<svg width="84" height="84" viewBox="0 0 84 84" fill="none" xmlns="http://www.w3.org/2000/svg">
<rect x="0.5" y="0.5" width="83" height="83" rx="19.5" stroke="url(#paint0_linear_146_17209)"/>
<mask id="path-2-inside-1_146_17209" fill="white">
<path d="M49.3571 28.9296C49.5514 28.9296 49.7413 28.872 49.9028 28.7641C50.0643 28.6562 50.1902 28.5028 50.2645 28.3233C50.3389 28.1439 50.3583 27.9464 50.3204 27.7559C50.2825 27.5654 50.189 27.3904 50.0516 27.253C49.9143 27.1156 49.7393 27.0221 49.5488 26.9842C49.3582 26.9463 49.1608 26.9658 48.9813 27.0401C48.8018 27.1144 48.6484 27.2403 48.5405 27.4018C48.4326 27.5633 48.375 27.7532 48.375 27.9475C48.3753 28.2079 48.4789 28.4575 48.663 28.6416C48.8471 28.8257 49.0968 28.9293 49.3571 28.9296ZM49.3571 27.4564C49.4543 27.4564 49.5492 27.4852 49.63 27.5392C49.7107 27.5931 49.7737 27.6698 49.8108 27.7596C49.848 27.8493 49.8577 27.948 49.8388 28.0433C49.8198 28.1385 49.7731 28.226 49.7044 28.2947C49.6357 28.3634 49.5482 28.4102 49.4529 28.4291C49.3577 28.4481 49.2589 28.4383 49.1692 28.4012C49.0795 28.364 49.0028 28.3011 48.9488 28.2203C48.8949 28.1395 48.8661 28.0446 48.8661 27.9475C48.8662 27.8173 48.918 27.6924 49.01 27.6004C49.1021 27.5083 49.2269 27.4565 49.3571 27.4564Z"/>
</mask>
<path d="M49.3571 28.9296C49.5514 28.9296 49.7413 28.872 49.9028 28.7641C50.0643 28.6562 50.1902 28.5028 50.2645 28.3233C50.3389 28.1439 50.3583 27.9464 50.3204 27.7559C50.2825 27.5654 50.189 27.3904 50.0516 27.253C49.9143 27.1156 49.7393 27.0221 49.5488 26.9842C49.3582 26.9463 49.1608 26.9658 48.9813 27.0401C48.8018 27.1144 48.6484 27.2403 48.5405 27.4018C48.4326 27.5633 48.375 27.7532 48.375 27.9475C48.3753 28.2079 48.4789 28.4575 48.663 28.6416C48.8471 28.8257 49.0968 28.9293 49.3571 28.9296ZM49.3571 27.4564C49.4543 27.4564 49.5492 27.4852 49.63 27.5392C49.7107 27.5931 49.7737 27.6698 49.8108 27.7596C49.848 27.8493 49.8577 27.948 49.8388 28.0433C49.8198 28.1385 49.7731 28.226 49.7044 28.2947C49.6357 28.3634 49.5482 28.4102 49.4529 28.4291C49.3577 28.4481 49.2589 28.4383 49.1692 28.4012C49.0795 28.364 49.0028 28.3011 48.9488 28.2203C48.8949 28.1395 48.8661 28.0446 48.8661 27.9475C48.8662 27.8173 48.918 27.6924 49.01 27.6004C49.1021 27.5083 49.2269 27.4565 49.3571 27.4564Z" fill="white"/>
<path d="M49.3571 28.9296L49.356 29.9296H49.3571V28.9296ZM48.375 27.9475H47.375L47.375 27.9486L48.375 27.9475ZM49.3571 27.4564V26.4564L49.3562 26.4564L49.3571 27.4564ZM48.8661 27.9475L47.8661 27.9465V27.9475H48.8661ZM49.3571 29.9296C49.7492 29.9296 50.1324 29.8134 50.4584 29.5956L49.3472 27.9326C49.3502 27.9307 49.3536 27.9296 49.3571 27.9296V29.9296ZM50.4584 29.5956C50.7843 29.3778 51.0384 29.0682 51.1884 28.706L49.3406 27.9406C49.342 27.9374 49.3443 27.9346 49.3472 27.9326L50.4584 29.5956ZM51.1884 28.706C51.3384 28.3438 51.3777 27.9453 51.3012 27.5608L49.3396 27.951C49.3389 27.9475 49.3393 27.9439 49.3406 27.9406L51.1884 28.706ZM51.3012 27.5608C51.2247 27.1763 51.0359 26.8231 50.7587 26.5459L49.3445 27.9601C49.342 27.9576 49.3403 27.9544 49.3396 27.951L51.3012 27.5608ZM50.7587 26.5459C50.4815 26.2687 50.1283 26.0799 49.7438 26.0034L49.3537 27.965C49.3502 27.9643 49.347 27.9626 49.3445 27.9601L50.7587 26.5459ZM49.7438 26.0034C49.3593 25.9269 48.9608 25.9662 48.5986 26.1162L49.364 27.964C49.3607 27.9653 49.3571 27.9657 49.3537 27.965L49.7438 26.0034ZM48.5986 26.1162C48.2364 26.2662 47.9269 26.5203 47.7091 26.8463L49.372 27.9574C49.37 27.9603 49.3672 27.9626 49.364 27.964L48.5986 26.1162ZM47.7091 26.8463C47.4913 27.1722 47.375 27.5554 47.375 27.9475H49.375C49.375 27.951 49.374 27.9545 49.372 27.9574L47.7091 26.8463ZM47.375 27.9486C47.3756 28.4738 47.5845 28.9774 47.9559 29.3487L49.3701 27.9345C49.3732 27.9377 49.375 27.9419 49.375 27.9463L47.375 27.9486ZM47.9559 29.3487C48.3273 29.7201 48.8308 29.929 49.356 29.9296L49.3583 27.9296C49.3627 27.9296 49.367 27.9314 49.3701 27.9345L47.9559 29.3487ZM49.3571 28.4564C49.2565 28.4564 49.1581 28.4266 49.0744 28.3706L50.1855 26.7077C49.9403 26.5439 49.652 26.4564 49.3571 26.4564V28.4564ZM49.0744 28.3706C48.9907 28.3147 48.9255 28.2352 48.887 28.1422L50.7347 27.3769C50.6219 27.1044 50.4308 26.8715 50.1855 26.7077L49.0744 28.3706ZM48.887 28.1422C48.8484 28.0492 48.8384 27.9469 48.858 27.8482L50.8196 28.2384C50.8771 27.9491 50.8476 27.6493 50.7347 27.3769L48.887 28.1422ZM48.858 27.8482C48.8776 27.7495 48.9261 27.6588 48.9973 27.5876L50.4115 29.0018C50.62 28.7933 50.762 28.5276 50.8196 28.2384L48.858 27.8482ZM48.9973 27.5876C49.0685 27.5164 49.1591 27.468 49.2579 27.4483L49.648 29.4099C49.9373 29.3524 50.203 29.2104 50.4115 29.0018L48.9973 27.5876ZM49.2579 27.4483C49.3566 27.4287 49.4589 27.4388 49.5519 27.4773L48.7865 29.325C49.059 29.4379 49.3588 29.4674 49.648 29.4099L49.2579 27.4483ZM49.5519 27.4773C49.6449 27.5158 49.7244 27.581 49.7803 27.6647L48.1174 28.7759C48.2812 29.0211 48.5141 29.2122 48.7865 29.325L49.5519 27.4773ZM49.7803 27.6647C49.8362 27.7484 49.8661 27.8468 49.8661 27.9475H47.8661C47.8661 28.2424 47.9535 28.5307 48.1174 28.7759L49.7803 27.6647ZM49.8661 27.9485C49.8659 28.0831 49.8124 28.2123 49.7172 28.3075L48.3029 26.8933C48.0236 27.1726 47.8665 27.5514 47.8661 27.9465L49.8661 27.9485ZM49.7172 28.3075C49.6219 28.4027 49.4928 28.4563 49.3581 28.4564L49.3562 26.4564C48.9611 26.4568 48.5823 26.6139 48.3029 26.8933L49.7172 28.3075Z" fill="url(#paint1_linear_146_17209)" mask="url(#path-2-inside-1_146_17209)"/>
<mask id="path-4-inside-2_146_17209" fill="white">
<path d="M61.1416 43.2766C61.0121 43.2766 60.8855 43.315 60.7778 43.387C60.6701 43.4589 60.5862 43.5612 60.5367 43.6808C60.4871 43.8004 60.4741 43.9321 60.4994 44.0591C60.5247 44.1861 60.587 44.3028 60.6786 44.3944C60.7702 44.4859 60.8868 44.5483 61.0138 44.5736C61.1409 44.5988 61.2725 44.5859 61.3921 44.5363C61.5118 44.4867 61.614 44.4028 61.686 44.2951C61.7579 44.1875 61.7963 44.0609 61.7963 43.9314C61.7961 43.7578 61.7271 43.5914 61.6043 43.4686C61.4816 43.3459 61.3152 43.2768 61.1416 43.2766ZM61.1416 44.2588C61.0768 44.2588 61.0135 44.2396 60.9597 44.2036C60.9059 44.1676 60.8639 44.1165 60.8391 44.0567C60.8143 43.9968 60.8079 43.931 60.8205 43.8675C60.8331 43.804 60.8643 43.7457 60.9101 43.6999C60.9559 43.6541 61.0142 43.6229 61.0777 43.6103C61.1412 43.5977 61.207 43.6041 61.2669 43.6289C61.3267 43.6537 61.3778 43.6957 61.4138 43.7495C61.4498 43.8033 61.469 43.8666 61.469 43.9314C61.4689 44.0182 61.4344 44.1014 61.373 44.1628C61.3116 44.2241 61.2284 44.2587 61.1416 44.2588Z"/>
</mask>
<path d="M61.1416 43.2766C61.0121 43.2766 60.8855 43.315 60.7778 43.387C60.6701 43.4589 60.5862 43.5612 60.5367 43.6808C60.4871 43.8004 60.4741 43.9321 60.4994 44.0591C60.5247 44.1861 60.587 44.3028 60.6786 44.3944C60.7702 44.4859 60.8868 44.5483 61.0138 44.5736C61.1409 44.5988 61.2725 44.5859 61.3921 44.5363C61.5118 44.4867 61.614 44.4028 61.686 44.2951C61.7579 44.1875 61.7963 44.0609 61.7963 43.9314C61.7961 43.7578 61.7271 43.5914 61.6043 43.4686C61.4816 43.3459 61.3152 43.2768 61.1416 43.2766ZM61.1416 44.2588C61.0768 44.2588 61.0135 44.2396 60.9597 44.2036C60.9059 44.1676 60.8639 44.1165 60.8391 44.0567C60.8143 43.9968 60.8079 43.931 60.8205 43.8675C60.8331 43.804 60.8643 43.7457 60.9101 43.6999C60.9559 43.6541 61.0142 43.6229 61.0777 43.6103C61.1412 43.5977 61.207 43.6041 61.2669 43.6289C61.3267 43.6537 61.3778 43.6957 61.4138 43.7495C61.4498 43.8033 61.469 43.8666 61.469 43.9314C61.4689 44.0182 61.4344 44.1014 61.373 44.1628C61.3116 44.2241 61.2284 44.2587 61.1416 44.2588Z" fill="white"/>
<path d="M61.1416 43.2766L61.1427 42.2766H61.1416V43.2766ZM61.7963 43.9314H62.7963L62.7963 43.9302L61.7963 43.9314ZM61.1416 44.2588V45.2588L61.1426 45.2588L61.1416 44.2588ZM61.469 43.9314L62.469 43.9324V43.9314H61.469ZM61.1416 42.2766C60.8143 42.2766 60.4944 42.3737 60.2222 42.5555L61.3334 44.2184C61.2766 44.2564 61.2099 44.2766 61.1416 44.2766V42.2766ZM60.2222 42.5555C59.9501 42.7373 59.738 42.9958 59.6128 43.2981L61.4605 44.0635C61.4344 44.1266 61.3902 44.1805 61.3334 44.2184L60.2222 42.5555ZM59.6128 43.2981C59.4875 43.6005 59.4548 43.9332 59.5186 44.2542L61.4802 43.864C61.4935 43.931 61.4867 44.0004 61.4605 44.0635L59.6128 43.2981ZM59.5186 44.2542C59.5825 44.5752 59.7401 44.8701 59.9715 45.1015L61.3857 43.6873C61.434 43.7355 61.4669 43.797 61.4802 43.864L59.5186 44.2542ZM59.9715 45.1015C60.2029 45.3329 60.4978 45.4905 60.8188 45.5543L61.2089 43.5928C61.2759 43.6061 61.3374 43.639 61.3857 43.6873L59.9715 45.1015ZM60.8188 45.5543C61.1397 45.6182 61.4725 45.5854 61.7748 45.4602L61.0095 43.6124C61.0726 43.5863 61.142 43.5794 61.2089 43.5928L60.8188 45.5543ZM61.7748 45.4602C62.0772 45.3349 62.3356 45.1228 62.5175 44.8507L60.8545 43.7396C60.8925 43.6828 60.9464 43.6385 61.0095 43.6124L61.7748 45.4602ZM62.5175 44.8507C62.6993 44.5786 62.7963 44.2587 62.7963 43.9314H60.7963C60.7963 43.8631 60.8166 43.7963 60.8545 43.7396L62.5175 44.8507ZM62.7963 43.9302C62.7958 43.4918 62.6215 43.0715 62.3115 42.7615L60.8972 44.1757C60.8327 44.1112 60.7964 44.0237 60.7963 43.9325L62.7963 43.9302ZM62.3115 42.7615C62.0015 42.4515 61.5811 42.2771 61.1427 42.2766L61.1404 44.2766C61.0492 44.2765 60.9617 44.2402 60.8972 44.1757L62.3115 42.7615ZM61.1416 43.2588C61.2746 43.2588 61.4046 43.2982 61.5153 43.3721L60.4041 45.0351C60.6224 45.1809 60.8791 45.2588 61.1416 45.2588V43.2588ZM61.5153 43.3721C61.6259 43.446 61.7121 43.551 61.763 43.674L59.9152 44.4393C60.0157 44.6819 60.1859 44.8892 60.4041 45.0351L61.5153 43.3721ZM61.763 43.674C61.8139 43.7969 61.8272 43.9321 61.8013 44.0626L59.8397 43.6724C59.7885 43.9299 59.8148 44.1968 59.9152 44.4393L61.763 43.674ZM61.8013 44.0626C61.7753 44.1931 61.7113 44.3129 61.6172 44.407L60.203 42.9928C60.0174 43.1784 59.8909 43.4149 59.8397 43.6724L61.8013 44.0626ZM61.6172 44.407C61.5231 44.501 61.4033 44.5651 61.2728 44.5911L60.8826 42.6295C60.6251 42.6807 60.3886 42.8072 60.203 42.9928L61.6172 44.407ZM61.2728 44.5911C61.1423 44.617 61.0071 44.6037 60.8842 44.5528L61.6495 42.705C61.407 42.6046 61.1401 42.5783 60.8826 42.6295L61.2728 44.5911ZM60.8842 44.5528C60.7613 44.5019 60.6562 44.4157 60.5823 44.3051L62.2453 43.1939C62.0994 42.9756 61.8921 42.8055 61.6495 42.705L60.8842 44.5528ZM60.5823 44.3051C60.5084 44.1945 60.469 44.0644 60.469 43.9314H62.469C62.469 43.6688 62.3911 43.4122 62.2453 43.1939L60.5823 44.3051ZM60.469 43.9304C60.4691 43.7523 60.54 43.5816 60.6659 43.4557L62.0801 44.8699C62.3287 44.6212 62.4686 44.2841 62.469 43.9324L60.469 43.9304ZM60.6659 43.4557C60.7918 43.3298 60.9625 43.2589 61.1406 43.2588L61.1426 45.2588C61.4943 45.2584 61.8314 45.1185 62.0801 44.8699L60.6659 43.4557Z" fill="url(#paint2_linear_146_17209)" mask="url(#path-4-inside-2_146_17209)"/>
<mask id="path-6-inside-3_146_17209" fill="white">
<path d="M33.3154 28.2056C33.1859 28.2056 33.0593 28.244 32.9516 28.3159C32.844 28.3879 32.76 28.4901 32.7105 28.6098C32.6609 28.7294 32.648 28.8611 32.6732 28.9881C32.6985 29.1151 32.7608 29.2317 32.8524 29.3233C32.944 29.4149 33.0607 29.4772 33.1877 29.5025C33.3147 29.5278 33.4463 29.5148 33.566 29.4652C33.6856 29.4157 33.7879 29.3318 33.8598 29.2241C33.9318 29.1164 33.9702 28.9898 33.9702 28.8603C33.97 28.6867 33.9009 28.5203 33.7782 28.3976C33.6554 28.2748 33.489 28.2058 33.3154 28.2056ZM33.3154 29.1877C33.2507 29.1877 33.1874 29.1685 33.1335 29.1325C33.0797 29.0966 33.0377 29.0454 33.0129 28.9856C32.9882 28.9258 32.9817 28.86 32.9943 28.7965C33.0069 28.733 33.0381 28.6746 33.0839 28.6288C33.1297 28.5831 33.188 28.5519 33.2515 28.5392C33.315 28.5266 33.3809 28.5331 33.4407 28.5579C33.5005 28.5826 33.5516 28.6246 33.5876 28.6784C33.6236 28.7323 33.6428 28.7956 33.6428 28.8603C33.6427 28.9471 33.6082 29.0303 33.5468 29.0917C33.4854 29.1531 33.4022 29.1876 33.3154 29.1877Z"/>
</mask>
<path d="M33.3154 28.2056C33.1859 28.2056 33.0593 28.244 32.9516 28.3159C32.844 28.3879 32.76 28.4901 32.7105 28.6098C32.6609 28.7294 32.648 28.8611 32.6732 28.9881C32.6985 29.1151 32.7608 29.2317 32.8524 29.3233C32.944 29.4149 33.0607 29.4772 33.1877 29.5025C33.3147 29.5278 33.4463 29.5148 33.566 29.4652C33.6856 29.4157 33.7879 29.3318 33.8598 29.2241C33.9318 29.1164 33.9702 28.9898 33.9702 28.8603C33.97 28.6867 33.9009 28.5203 33.7782 28.3976C33.6554 28.2748 33.489 28.2058 33.3154 28.2056ZM33.3154 29.1877C33.2507 29.1877 33.1874 29.1685 33.1335 29.1325C33.0797 29.0966 33.0377 29.0454 33.0129 28.9856C32.9882 28.9258 32.9817 28.86 32.9943 28.7965C33.0069 28.733 33.0381 28.6746 33.0839 28.6288C33.1297 28.5831 33.188 28.5519 33.2515 28.5392C33.315 28.5266 33.3809 28.5331 33.4407 28.5579C33.5005 28.5826 33.5516 28.6246 33.5876 28.6784C33.6236 28.7323 33.6428 28.7956 33.6428 28.8603C33.6427 28.9471 33.6082 29.0303 33.5468 29.0917C33.4854 29.1531 33.4022 29.1876 33.3154 29.1877Z" fill="white"/>
<path d="M33.3154 28.2056L33.3165 27.2056H33.3154V28.2056ZM33.9702 28.8603H34.9702L34.9702 28.8592L33.9702 28.8603ZM33.3154 29.1877V30.1877L33.3164 30.1877L33.3154 29.1877ZM33.6428 28.8603L34.6428 28.8613V28.8603H33.6428ZM33.3154 27.2056C32.9881 27.2056 32.6682 27.3026 32.3961 27.4844L33.5072 29.1474C33.4504 29.1853 33.3837 29.2056 33.3154 29.2056V27.2056ZM32.3961 27.4844C32.1239 27.6663 31.9119 27.9247 31.7866 28.2271L33.6344 28.9924C33.6082 29.0555 33.564 29.1094 33.5072 29.1474L32.3961 27.4844ZM31.7866 28.2271C31.6614 28.5294 31.6286 28.8622 31.6924 29.1832L33.654 28.793C33.6673 28.8599 33.6605 28.9294 33.6344 28.9924L31.7866 28.2271ZM31.6924 29.1832C31.7563 29.5041 31.9139 29.799 32.1453 30.0304L33.5595 28.6162C33.6078 28.6645 33.6407 28.726 33.654 28.793L31.6924 29.1832ZM32.1453 30.0304C32.3767 30.2618 32.6716 30.4194 32.9926 30.4833L33.3828 28.5217C33.4497 28.535 33.5112 28.5679 33.5595 28.6162L32.1453 30.0304ZM32.9926 30.4833C33.3136 30.5471 33.6463 30.5144 33.9487 30.3891L33.1833 28.5414C33.2464 28.5152 33.3158 28.5084 33.3828 28.5217L32.9926 30.4833ZM33.9487 30.3891C34.251 30.2639 34.5095 30.0518 34.6913 29.7797L33.0284 28.6685C33.0663 28.6117 33.1202 28.5675 33.1833 28.5414L33.9487 30.3891ZM34.6913 29.7797C34.8731 29.5075 34.9702 29.1876 34.9702 28.8603H32.9702C32.9702 28.7921 32.9904 28.7253 33.0284 28.6685L34.6913 29.7797ZM34.9702 28.8592C34.9697 28.4208 34.7953 28.0005 34.4853 27.6905L33.0711 29.1047C33.0066 29.0402 32.9703 28.9527 32.9702 28.8615L34.9702 28.8592ZM34.4853 27.6905C34.1753 27.3804 33.755 27.2061 33.3165 27.2056L33.3143 29.2056C33.223 29.2055 33.1356 29.1692 33.0711 29.1047L34.4853 27.6905ZM33.3154 28.1877C33.4484 28.1877 33.5785 28.2272 33.6891 28.3011L32.578 29.964C32.7962 30.1099 33.0529 30.1877 33.3154 30.1877V28.1877ZM33.6891 28.3011C33.7997 28.375 33.8859 28.48 33.9368 28.6029L32.0891 29.3683C32.1895 29.6108 32.3597 29.8181 32.578 29.964L33.6891 28.3011ZM33.9368 28.6029C33.9877 28.7258 34.0011 28.8611 33.9751 28.9916L32.0135 28.6014C31.9623 28.8589 31.9886 29.1258 32.0891 29.3683L33.9368 28.6029ZM33.9751 28.9916C33.9491 29.122 33.8851 29.2419 33.791 29.3359L32.3768 27.9217C32.1912 28.1074 32.0647 28.3439 32.0135 28.6014L33.9751 28.9916ZM33.791 29.3359C33.697 29.43 33.5771 29.4941 33.4466 29.52L33.0564 27.5585C32.799 27.6097 32.5624 27.7361 32.3768 27.9217L33.791 29.3359ZM33.4466 29.52C33.3161 29.546 33.1809 29.5327 33.058 29.4817L33.8234 27.634C33.5808 27.5335 33.3139 27.5072 33.0564 27.5585L33.4466 29.52ZM33.058 29.4817C32.9351 29.4308 32.8301 29.3446 32.7561 29.234L34.4191 28.1229C34.2732 27.9046 34.0659 27.7345 33.8234 27.634L33.058 29.4817ZM32.7561 29.234C32.6822 29.1234 32.6428 28.9934 32.6428 28.8603H34.6428C34.6428 28.5978 34.5649 28.3412 34.4191 28.1229L32.7561 29.234ZM32.6428 28.8593C32.643 28.6813 32.7138 28.5105 32.8397 28.3846L34.2539 29.7988C34.5026 29.5502 34.6424 29.213 34.6428 28.8613L32.6428 28.8593ZM32.8397 28.3846C32.9656 28.2587 33.1363 28.1879 33.3144 28.1877L33.3164 30.1877C33.6681 30.1874 34.0052 30.0475 34.2539 29.7988L32.8397 28.3846Z" fill="url(#paint3_linear_146_17209)" mask="url(#path-6-inside-3_146_17209)"/>
<mask id="path-8-inside-4_146_17209" fill="white">
<path d="M61.4692 23.4883C61.3397 23.4883 61.2131 23.5267 61.1054 23.5986C60.9978 23.6706 60.9139 23.7728 60.8643 23.8925C60.8147 24.0121 60.8018 24.1438 60.827 24.2708C60.8523 24.3978 60.9147 24.5145 61.0062 24.606C61.0978 24.6976 61.2145 24.76 61.3415 24.7852C61.4685 24.8105 61.6001 24.7975 61.7198 24.748C61.8394 24.6984 61.9417 24.6145 62.0136 24.5068C62.0856 24.3991 62.124 24.2725 62.124 24.143C62.1238 23.9695 62.0547 23.803 61.932 23.6803C61.8092 23.5575 61.6428 23.4885 61.4692 23.4883ZM61.4692 24.4704C61.4045 24.4704 61.3412 24.4512 61.2873 24.4153C61.2335 24.3793 61.1915 24.3281 61.1668 24.2683C61.142 24.2085 61.1355 24.1427 61.1481 24.0792C61.1608 24.0157 61.1919 23.9573 61.2377 23.9115C61.2835 23.8658 61.3418 23.8346 61.4053 23.822C61.4689 23.8093 61.5347 23.8158 61.5945 23.8406C61.6543 23.8654 61.7055 23.9073 61.7414 23.9612C61.7774 24.015 61.7966 24.0783 61.7966 24.143C61.7965 24.2298 61.762 24.3131 61.7006 24.3744C61.6392 24.4358 61.556 24.4703 61.4692 24.4704Z"/>
</mask>
<path d="M61.4692 23.4883C61.3397 23.4883 61.2131 23.5267 61.1054 23.5986C60.9978 23.6706 60.9139 23.7728 60.8643 23.8925C60.8147 24.0121 60.8018 24.1438 60.827 24.2708C60.8523 24.3978 60.9147 24.5145 61.0062 24.606C61.0978 24.6976 61.2145 24.76 61.3415 24.7852C61.4685 24.8105 61.6001 24.7975 61.7198 24.748C61.8394 24.6984 61.9417 24.6145 62.0136 24.5068C62.0856 24.3991 62.124 24.2725 62.124 24.143C62.1238 23.9695 62.0547 23.803 61.932 23.6803C61.8092 23.5575 61.6428 23.4885 61.4692 23.4883ZM61.4692 24.4704C61.4045 24.4704 61.3412 24.4512 61.2873 24.4153C61.2335 24.3793 61.1915 24.3281 61.1668 24.2683C61.142 24.2085 61.1355 24.1427 61.1481 24.0792C61.1608 24.0157 61.1919 23.9573 61.2377 23.9115C61.2835 23.8658 61.3418 23.8346 61.4053 23.822C61.4689 23.8093 61.5347 23.8158 61.5945 23.8406C61.6543 23.8654 61.7055 23.9073 61.7414 23.9612C61.7774 24.015 61.7966 24.0783 61.7966 24.143C61.7965 24.2298 61.762 24.3131 61.7006 24.3744C61.6392 24.4358 61.556 24.4703 61.4692 24.4704Z" fill="white"/>
<path d="M61.4692 23.4883L61.4704 22.4883H61.4692V23.4883ZM62.124 24.143H63.124L63.124 24.1419L62.124 24.143ZM61.4692 24.4704V25.4704L61.4702 25.4704L61.4692 24.4704ZM61.7966 24.143L62.7966 24.144V24.143H61.7966ZM61.4692 22.4883C61.1419 22.4883 60.822 22.5853 60.5499 22.7672L61.661 24.4301C61.6042 24.468 61.5375 24.4883 61.4692 24.4883V22.4883ZM60.5499 22.7672C60.2778 22.949 60.0657 23.2074 59.9404 23.5098L61.7882 24.2752C61.762 24.3382 61.7178 24.3922 61.661 24.4301L60.5499 22.7672ZM59.9404 23.5098C59.8152 23.8122 59.7824 24.1449 59.8462 24.4659L61.8078 24.0757C61.8211 24.1427 61.8143 24.2121 61.7882 24.2752L59.9404 23.5098ZM59.8462 24.4659C59.9101 24.7869 60.0677 25.0817 60.2991 25.3131L61.7133 23.8989C61.7616 23.9472 61.7945 24.0087 61.8078 24.0757L59.8462 24.4659ZM60.2991 25.3131C60.5305 25.5446 60.8254 25.7022 61.1464 25.766L61.5366 23.8044C61.6035 23.8178 61.6651 23.8506 61.7133 23.8989L60.2991 25.3131ZM61.1464 25.766C61.4674 25.8299 61.8001 25.7971 62.1025 25.6718L61.3371 23.8241C61.4002 23.798 61.4696 23.7911 61.5366 23.8044L61.1464 25.766ZM62.1025 25.6718C62.4048 25.5466 62.6633 25.3345 62.8451 25.0624L61.1822 23.9512C61.2201 23.8945 61.274 23.8502 61.3371 23.8241L62.1025 25.6718ZM62.8451 25.0624C63.0269 24.7903 63.124 24.4703 63.124 24.143H61.124C61.124 24.0748 61.1442 24.008 61.1822 23.9512L62.8451 25.0624ZM63.124 24.1419C63.1235 23.7035 62.9491 23.2832 62.6391 22.9732L61.2249 24.3874C61.1604 24.3229 61.1241 24.2354 61.124 24.1442L63.124 24.1419ZM62.6391 22.9732C62.3291 22.6632 61.9088 22.4888 61.4704 22.4883L61.4681 24.4883C61.3768 24.4882 61.2894 24.4519 61.2249 24.3874L62.6391 22.9732ZM61.4692 23.4704C61.6023 23.4704 61.7323 23.5099 61.8429 23.5838L60.7318 25.2467C60.95 25.3926 61.2067 25.4704 61.4692 25.4704V23.4704ZM61.8429 23.5838C61.9535 23.6577 62.0397 23.7627 62.0906 23.8856L60.2429 24.651C60.3433 24.8936 60.5135 25.1009 60.7318 25.2467L61.8429 23.5838ZM62.0906 23.8856C62.1416 24.0086 62.1549 24.1438 62.1289 24.2743L60.1673 23.8841C60.1161 24.1416 60.1424 24.4084 60.2429 24.651L62.0906 23.8856ZM62.1289 24.2743C62.103 24.4047 62.0389 24.5246 61.9448 24.6187L60.5306 23.2044C60.345 23.3901 60.2186 23.6266 60.1673 23.8841L62.1289 24.2743ZM61.9448 24.6187C61.8508 24.7127 61.7309 24.7768 61.6004 24.8027L61.2103 22.8412C60.9528 22.8924 60.7162 23.0188 60.5306 23.2044L61.9448 24.6187ZM61.6004 24.8027C61.47 24.8287 61.3347 24.8154 61.2118 24.7645L61.9772 22.9167C61.7346 22.8162 61.4677 22.79 61.2103 22.8412L61.6004 24.8027ZM61.2118 24.7645C61.0889 24.7136 60.9839 24.6274 60.91 24.5167L62.5729 23.4056C62.427 23.1873 62.2197 23.0172 61.9772 22.9167L61.2118 24.7645ZM60.91 24.5167C60.8361 24.4061 60.7966 24.2761 60.7966 24.143H62.7966C62.7966 23.8805 62.7187 23.6239 62.5729 23.4056L60.91 24.5167ZM60.7966 24.142C60.7968 23.9639 60.8676 23.7932 60.9935 23.6673L62.4077 25.0815C62.6564 24.8329 62.7962 24.4957 62.7966 24.144L60.7966 24.142ZM60.9935 23.6673C61.1194 23.5414 61.2901 23.4706 61.4682 23.4704L61.4702 25.4704C61.8219 25.4701 62.1591 25.3302 62.4077 25.0815L60.9935 23.6673Z" fill="url(#paint4_linear_146_17209)" mask="url(#path-8-inside-4_146_17209)"/>
<mask id="path-10-inside-5_146_17209" fill="white">
<path d="M15.9643 35.4079C15.9643 35.2784 15.9259 35.1518 15.854 35.0442C15.782 34.9365 15.6798 34.8526 15.5601 34.803C15.4405 34.7535 15.3088 34.7405 15.1818 34.7658C15.0548 34.791 14.9381 34.8534 14.8466 34.945C14.755 35.0365 14.6926 35.1532 14.6674 35.2802C14.6421 35.4072 14.6551 35.5389 14.7046 35.6585C14.7542 35.7781 14.8381 35.8804 14.9458 35.9524C15.0535 36.0243 15.18 36.0627 15.3095 36.0627C15.4831 36.0625 15.6496 35.9935 15.7723 35.8707C15.8951 35.748 15.9641 35.5815 15.9643 35.4079ZM14.9822 35.4079C14.9822 35.3432 15.0014 35.2799 15.0373 35.2261C15.0733 35.1722 15.1244 35.1303 15.1843 35.1055C15.2441 35.0807 15.3099 35.0742 15.3734 35.0868C15.4369 35.0995 15.4953 35.1307 15.541 35.1764C15.5868 35.2222 15.618 35.2806 15.6306 35.3441C15.6433 35.4076 15.6368 35.4734 15.612 35.5332C15.5872 35.593 15.5453 35.6442 15.4914 35.6801C15.4376 35.7161 15.3743 35.7353 15.3095 35.7353C15.2227 35.7352 15.1395 35.7007 15.0781 35.6393C15.0168 35.578 14.9823 35.4947 14.9822 35.4079Z"/>
</mask>
<path d="M15.9643 35.4079C15.9643 35.2784 15.9259 35.1518 15.854 35.0442C15.782 34.9365 15.6798 34.8526 15.5601 34.803C15.4405 34.7535 15.3088 34.7405 15.1818 34.7658C15.0548 34.791 14.9381 34.8534 14.8466 34.945C14.755 35.0365 14.6926 35.1532 14.6674 35.2802C14.6421 35.4072 14.6551 35.5389 14.7046 35.6585C14.7542 35.7781 14.8381 35.8804 14.9458 35.9524C15.0535 36.0243 15.18 36.0627 15.3095 36.0627C15.4831 36.0625 15.6496 35.9935 15.7723 35.8707C15.8951 35.748 15.9641 35.5815 15.9643 35.4079ZM14.9822 35.4079C14.9822 35.3432 15.0014 35.2799 15.0373 35.2261C15.0733 35.1722 15.1244 35.1303 15.1843 35.1055C15.2441 35.0807 15.3099 35.0742 15.3734 35.0868C15.4369 35.0995 15.4953 35.1307 15.541 35.1764C15.5868 35.2222 15.618 35.2806 15.6306 35.3441C15.6433 35.4076 15.6368 35.4734 15.612 35.5332C15.5872 35.593 15.5453 35.6442 15.4914 35.6801C15.4376 35.7161 15.3743 35.7353 15.3095 35.7353C15.2227 35.7352 15.1395 35.7007 15.0781 35.6393C15.0168 35.578 14.9823 35.4947 14.9822 35.4079Z" fill="white"/>
<path d="M15.9643 35.4079L16.9643 35.4091V35.4079H15.9643ZM15.3095 36.0627V37.0627L15.3107 37.0627L15.3095 36.0627ZM14.9822 35.4079H13.9822L13.9822 35.4089L14.9822 35.4079ZM15.3095 35.7353L15.3085 36.7353H15.3095V35.7353ZM16.9643 35.4079C16.9643 35.0807 16.8673 34.7607 16.6854 34.4886L15.0225 35.5997C14.9846 35.543 14.9643 35.4762 14.9643 35.4079H16.9643ZM16.6854 34.4886C16.5036 34.2165 16.2452 34.0044 15.9428 33.8791L15.1774 35.7269C15.1143 35.7008 15.0604 35.6565 15.0225 35.5997L16.6854 34.4886ZM15.9428 33.8791C15.6404 33.7539 15.3077 33.7211 14.9867 33.785L15.3769 35.7465C15.3099 35.7599 15.2405 35.753 15.1774 35.7269L15.9428 33.8791ZM14.9867 33.785C14.6657 33.8488 14.3709 34.0064 14.1395 34.2378L15.5537 35.6521C15.5054 35.7003 15.4439 35.7332 15.3769 35.7465L14.9867 33.785ZM14.1395 34.2378C13.908 34.4693 13.7504 34.7641 13.6866 35.0851L15.6482 35.4753C15.6348 35.5423 15.6019 35.6038 15.5537 35.6521L14.1395 34.2378ZM13.6866 35.0851C13.6227 35.4061 13.6555 35.7388 13.7807 36.0412L15.6285 35.2758C15.6546 35.3389 15.6615 35.4083 15.6482 35.4753L13.6866 35.0851ZM13.7807 36.0412C13.906 36.3436 14.1181 36.602 14.3902 36.7838L15.5014 35.1209C15.5581 35.1588 15.6024 35.2127 15.6285 35.2758L13.7807 36.0412ZM14.3902 36.7838C14.6623 36.9657 14.9823 37.0627 15.3095 37.0627V35.0627C15.3778 35.0627 15.4446 35.0829 15.5014 35.1209L14.3902 36.7838ZM15.3107 37.0627C15.7491 37.0622 16.1694 36.8878 16.4794 36.5778L15.0652 35.1636C15.1297 35.0991 15.2172 35.0628 15.3084 35.0627L15.3107 37.0627ZM16.4794 36.5778C16.7894 36.2678 16.9638 35.8475 16.9643 35.4091L14.9643 35.4068C14.9644 35.3156 15.0007 35.2281 15.0652 35.1636L16.4794 36.5778ZM15.9822 35.4079C15.9822 35.541 15.9427 35.671 15.8688 35.7816L14.2059 34.6705C14.06 34.8888 13.9822 35.1454 13.9822 35.4079H15.9822ZM15.8688 35.7816C15.7949 35.8922 15.6899 35.9784 15.5669 36.0294L14.8016 34.1816C14.559 34.2821 14.3517 34.4522 14.2059 34.6705L15.8688 35.7816ZM15.5669 36.0294C15.444 36.0803 15.3088 36.0936 15.1783 36.0676L15.5685 34.1061C15.311 34.0548 15.0441 34.0811 14.8016 34.1816L15.5669 36.0294ZM15.1783 36.0676C15.0478 36.0417 14.928 35.9776 14.8339 35.8836L16.2481 34.4693C16.0625 34.2837 15.826 34.1573 15.5685 34.1061L15.1783 36.0676ZM14.8339 35.8836C14.7399 35.7895 14.6758 35.6696 14.6499 35.5392L16.6114 35.149C16.5602 34.8915 16.4338 34.655 16.2481 34.4693L14.8339 35.8836ZM14.6499 35.5392C14.6239 35.4087 14.6372 35.2734 14.6881 35.1505L16.5359 35.9159C16.6364 35.6734 16.6626 35.4065 16.6114 35.149L14.6499 35.5392ZM14.6881 35.1505C14.739 35.0276 14.8252 34.9226 14.9359 34.8487L16.047 36.5116C16.2653 36.3658 16.4354 36.1584 16.5359 35.9159L14.6881 35.1505ZM14.9359 34.8487C15.0465 34.7748 15.1765 34.7353 15.3095 34.7353V36.7353C15.5721 36.7353 15.8287 36.6575 16.047 36.5116L14.9359 34.8487ZM15.3105 34.7353C15.4886 34.7355 15.6593 34.8063 15.7853 34.9322L14.371 36.3464C14.6197 36.5951 14.9569 36.735 15.3085 36.7353L15.3105 34.7353ZM15.7853 34.9322C15.9112 35.0581 15.982 35.2289 15.9822 35.4069L13.9822 35.4089C13.9825 35.7606 14.1224 36.0978 14.371 36.3464L15.7853 34.9322Z" fill="url(#paint5_linear_146_17209)" mask="url(#path-10-inside-5_146_17209)"/>
<path d="M22.9752 23.1645L23.462 22.5242L23.1546 22.3503L22.8423 23.067H22.8318L22.5146 22.3553L22.2016 22.5347L22.6835 23.1596V23.1698L21.9302 23.0722V23.4206L22.6884 23.3233V23.3338L22.2016 23.9584L22.4936 24.1431L22.8269 23.4206H22.8367L23.1441 24.1378L23.4669 23.9535L22.9752 23.3387V23.3286L23.7484 23.4206V23.0722L22.9752 23.1747V23.1645Z" fill="white"/>
<path d="M49.7611 38.8012L49.4809 39.161L49.6491 39.2671L49.841 38.8513H49.8469L50.0237 39.2641L50.2096 39.1581L49.9264 38.8039V38.7983L50.3717 38.8513V38.6506L49.9264 38.7096V38.7037L50.2067 38.335L50.0299 38.2349L49.8498 38.6477H49.8439L49.6613 38.2378L49.4809 38.3409L49.7585 38.7007V38.7066L49.3247 38.6506V38.8513L49.7611 38.7953V38.8012Z" fill="white"/>
<path d="M66.7816 35.5785V35.237L66.0231 35.3375V35.3274L66.5007 34.6995L66.1992 34.5286L65.8928 35.2318H65.8823L65.5713 34.5335L65.2642 34.7093L65.7369 35.3225V35.3326L64.998 35.237V35.5785L65.7419 35.4832V35.4934L65.2642 36.1062L65.5507 36.2873L65.8777 35.5785H65.8872L66.1887 36.282L66.5056 36.1013L66.0231 35.4983V35.4881L66.7816 35.5785Z" fill="white"/>
<path d="M27.5376 39.5116L27.9494 38.9701L27.6892 38.8228L27.425 39.4294H27.4161L27.1477 38.827L26.8828 38.9786L27.2904 39.5073V39.5161L26.6533 39.4336V39.7283L27.2947 39.6461V39.6546L26.8828 40.1834L27.13 40.3395L27.4119 39.7283H27.4204L27.6803 40.3349L27.9537 40.1791L27.5376 39.6589V39.6504L28.1917 39.7283V39.4336L27.5376 39.5204V39.5116Z" fill="white"/>
<path d="M14.8095 57.4116C14.8095 57.4971 14.7402 57.5664 14.6548 57.5664C14.5693 57.5664 14.5 57.4971 14.5 57.4116C14.5 57.3261 14.5693 57.2568 14.6548 57.2568C14.7402 57.2568 14.8095 57.3261 14.8095 57.4116Z" fill="white" stroke="url(#paint6_linear_146_17209)"/>
<path d="M16.6191 57.2568H17.6013C17.6423 57.2568 17.6817 57.2731 17.7107 57.3022C17.7397 57.3312 17.756 57.3706 17.756 57.4116C17.756 57.4526 17.7397 57.492 17.7107 57.521L18.0642 57.8746L17.7107 57.521C17.6817 57.5501 17.6423 57.5664 17.6013 57.5664H16.6191C16.5781 57.5664 16.5387 57.5501 16.5097 57.521C16.4807 57.492 16.4644 57.4526 16.4644 57.4116C16.4644 57.3706 16.4807 57.3312 16.5097 57.3022C16.5387 57.2731 16.5781 57.2568 16.6191 57.2568Z" fill="white" stroke="url(#paint7_linear_146_17209)"/>
<path d="M65.3989 57.2568H66.381C66.4221 57.2568 66.4615 57.2731 66.4905 57.3022C66.5195 57.3312 66.5358 57.3706 66.5358 57.4116C66.5358 57.4526 66.5195 57.492 66.4905 57.521C66.4615 57.5501 66.4221 57.5664 66.381 57.5664H65.3989C65.3579 57.5664 65.3185 57.5501 65.2895 57.521C65.2604 57.492 65.2441 57.4526 65.2441 57.4116C65.2441 57.3706 65.2604 57.3312 65.2895 57.3022C65.3185 57.2731 65.3579 57.2568 65.3989 57.2568Z" fill="white" stroke="url(#paint8_linear_146_17209)"/>
<path d="M68.5 57.4116C68.5 57.4971 68.4307 57.5664 68.3452 57.5664C68.2597 57.5664 68.1904 57.4971 68.1904 57.4116C68.1904 57.3261 68.2597 57.2568 68.3452 57.2568C68.4307 57.2568 68.5 57.3261 68.5 57.4116Z" fill="white" stroke="url(#paint9_linear_146_17209)"/>
<path d="M52.6811 59.376H49.9613C49.7967 59.3892 49.6431 59.4639 49.5311 59.5852C49.4191 59.7065 49.3569 59.8656 49.3569 60.0307C49.3569 60.1959 49.4191 60.3549 49.5311 60.4763C49.6431 60.5976 49.7967 60.6723 49.9613 60.6855H52.6811C52.8457 60.6723 52.9993 60.5976 53.1113 60.4763C53.2233 60.3549 53.2855 60.1959 53.2855 60.0307C53.2855 59.8656 53.2233 59.7065 53.1113 59.5852C52.9993 59.4639 52.8457 59.3892 52.6811 59.376Z" fill="white"/>
<path d="M33.0385 59.376H30.3188C30.1542 59.3892 30.0006 59.4639 29.8886 59.5852C29.7765 59.7065 29.7144 59.8656 29.7144 60.0307C29.7144 60.1959 29.7765 60.3549 29.8886 60.4763C30.0006 60.5976 30.1542 60.6723 30.3188 60.6855H33.0385C33.2031 60.6723 33.3567 60.5976 33.4687 60.4763C33.5808 60.3549 33.6429 60.1959 33.6429 60.0307C33.6429 59.8656 33.5808 59.7065 33.4687 59.5852C33.3567 59.4639 33.2031 59.3892 33.0385 59.376Z" fill="white"/>
<path d="M48.0479 59.376H34.9526C34.779 59.376 34.6124 59.445 34.4896 59.5678C34.3668 59.6905 34.2979 59.8571 34.2979 60.0307C34.2979 60.2044 34.3668 60.3709 34.4896 60.4937C34.6124 60.6165 34.779 60.6855 34.9526 60.6855H40.1711V61.3403H37.5717C37.398 61.3403 37.2315 61.4092 37.1087 61.532C36.9859 61.6548 36.9169 61.8214 36.9169 61.995C36.9169 62.1687 36.9859 62.3352 37.1087 62.458C37.2315 62.5808 37.398 62.6498 37.5717 62.6498H45.7562C45.9298 62.6498 46.0964 62.5808 46.2192 62.458C46.342 62.3352 46.4109 62.1687 46.4109 61.995C46.4109 61.8214 46.342 61.6548 46.2192 61.532C46.0964 61.4092 45.9298 61.3403 45.7562 61.3403H42.8294V60.6855H48.0479C48.2215 60.6855 48.388 60.6165 48.5108 60.4937C48.6336 60.3709 48.7026 60.2044 48.7026 60.0307C48.7026 59.8571 48.6336 59.6905 48.5108 59.5678C48.388 59.445 48.2215 59.376 48.0479 59.376Z" fill="white"/>
<mask id="path-23-inside-6_146_17209" fill="white">
<path d="M40.3072 38.11C40.3291 38.0144 40.3828 37.9292 40.4595 37.8682C40.5362 37.8072 40.6314 37.774 40.7294 37.7742H42.2707C42.3687 37.774 42.4639 37.8072 42.5406 37.8682C42.6173 37.9292 42.671 38.0144 42.6929 38.11L43.5738 41.8695C44.0815 41.9994 44.5746 42.1805 45.0457 42.41L43.9676 37.8089C43.8795 37.4249 43.6637 37.0823 43.3554 36.8371C43.0471 36.5918 42.6646 36.4586 42.2707 36.4592H40.7294C40.3355 36.4586 39.9531 36.5918 39.6448 36.8371C39.3365 37.0823 39.1206 37.4249 39.0326 37.8089L37.9546 42.4095C38.4256 42.18 38.9188 41.999 39.4264 41.8692L40.3072 38.11Z"/>
</mask>
<path d="M40.3072 38.11C40.3291 38.0144 40.3828 37.9292 40.4595 37.8682C40.5362 37.8072 40.6314 37.774 40.7294 37.7742H42.2707C42.3687 37.774 42.4639 37.8072 42.5406 37.8682C42.6173 37.9292 42.671 38.0144 42.6929 38.11L43.5738 41.8695C44.0815 41.9994 44.5746 42.1805 45.0457 42.41L43.9676 37.8089C43.8795 37.4249 43.6637 37.0823 43.3554 36.8371C43.0471 36.5918 42.6646 36.4586 42.2707 36.4592H40.7294C40.3355 36.4586 39.9531 36.5918 39.6448 36.8371C39.3365 37.0823 39.1206 37.4249 39.0326 37.8089L37.9546 42.4095C38.4256 42.18 38.9188 41.999 39.4264 41.8692L40.3072 38.11Z" fill="white"/>
<path d="M40.3072 38.11L41.2809 38.3381L41.282 38.3334L40.3072 38.11ZM40.7294 37.7742L40.7279 38.7742H40.7294V37.7742ZM42.2707 37.7742V38.7742L42.2722 38.7742L42.2707 37.7742ZM42.6929 38.11L41.7182 38.3334L41.7193 38.3381L42.6929 38.11ZM43.5738 41.8695L42.6002 42.0977L42.7385 42.688L43.326 42.8383L43.5738 41.8695ZM45.0457 42.41L44.6077 43.309L46.4994 44.2307L46.0193 42.1818L45.0457 42.41ZM43.9676 37.8089L42.9929 38.0324L42.9939 38.037L43.9676 37.8089ZM42.2707 36.4592V37.4592L42.2722 37.4592L42.2707 36.4592ZM40.7294 36.4592L40.7279 37.4592H40.7294V36.4592ZM39.0326 37.8089L40.0062 38.037L40.0073 38.0324L39.0326 37.8089ZM37.9546 42.4095L36.981 42.1813L36.501 44.2298L38.3925 43.3085L37.9546 42.4095ZM39.4264 41.8692L39.6741 42.8381L40.2617 42.6878L40.4 42.0974L39.4264 41.8692ZM41.282 38.3334C41.2532 38.4588 41.1827 38.5707 41.0821 38.6508L39.837 37.0856C39.5829 37.2877 39.4051 37.5701 39.3325 37.8865L41.282 38.3334ZM41.0821 38.6508C40.9814 38.7309 40.8565 38.7744 40.7279 38.7742L40.7309 36.7742C40.4063 36.7737 40.0911 36.8835 39.837 37.0856L41.0821 38.6508ZM40.7294 38.7742H42.2707V36.7742H40.7294V38.7742ZM42.2722 38.7742C42.1436 38.7744 42.0187 38.7309 41.9181 38.6508L43.1631 37.0856C42.909 36.8835 42.5938 36.7737 42.2692 36.7742L42.2722 38.7742ZM41.9181 38.6508C41.8174 38.5707 41.7469 38.4588 41.7182 38.3334L43.6676 37.8865C43.5951 37.5701 43.4172 37.2877 43.1631 37.0856L41.9181 38.6508ZM41.7193 38.3381L42.6002 42.0977L44.5474 41.6414L43.6665 37.8818L41.7193 38.3381ZM43.326 42.8383C43.768 42.9514 44.1975 43.1091 44.6077 43.309L45.4837 41.511C44.9518 41.2518 44.3949 41.0474 43.8217 40.9007L43.326 42.8383ZM46.0193 42.1818L44.9412 37.5807L42.9939 38.037L44.072 42.6381L46.0193 42.1818ZM44.9423 37.5853C44.8035 36.9805 44.4635 36.4407 43.9778 36.0544L42.7329 37.6197C42.8638 37.7238 42.9555 37.8693 42.9929 38.0324L44.9423 37.5853ZM43.9778 36.0544C43.4922 35.6681 42.8897 35.4583 42.2692 35.4592L42.2722 37.4592C42.4395 37.459 42.602 37.5156 42.7329 37.6197L43.9778 36.0544ZM42.2707 35.4592H40.7294V37.4592H42.2707V35.4592ZM40.7309 35.4592C40.1104 35.4583 39.5079 35.6681 39.0223 36.0544L40.2673 37.6197C40.3982 37.5156 40.5606 37.459 40.7279 37.4592L40.7309 35.4592ZM39.0223 36.0544C38.5366 36.4407 38.1966 36.9805 38.0579 37.5853L40.0073 38.0324C40.0447 37.8693 40.1363 37.7238 40.2673 37.6197L39.0223 36.0544ZM38.0589 37.5807L36.981 42.1813L38.9282 42.6376L40.0062 38.037L38.0589 37.5807ZM38.3925 43.3085C38.8027 43.1087 39.2321 42.9511 39.6741 42.8381L39.1787 40.9004C38.6055 41.0469 38.0486 41.2513 37.5167 41.5104L38.3925 43.3085ZM40.4 42.0974L41.2809 38.3381L39.3336 37.8818L38.4528 41.6411L40.4 42.0974Z" fill="url(#paint10_linear_146_17209)" mask="url(#path-23-inside-6_146_17209)"/>
<path d="M41.8784 45.5745H41.1217C39.3749 45.5745 38.024 46.6066 37.3175 48.4811C37.2842 48.569 37.2702 48.663 37.2763 48.7568C37.2824 48.8506 37.3086 48.942 37.353 49.0248C37.3975 49.1077 37.4591 49.18 37.5339 49.237C37.6086 49.294 37.6947 49.3343 37.7863 49.3553L41.3565 50.1607C41.451 50.1822 41.5491 50.1822 41.6436 50.1607L45.2138 49.3553C45.3054 49.3343 45.3915 49.294 45.4662 49.237C45.541 49.18 45.6026 49.1077 45.6471 49.0248C45.6915 48.942 45.7176 48.8506 45.7238 48.7568C45.7299 48.663 45.7159 48.569 45.6826 48.4811C44.9761 46.6066 43.6251 45.5745 41.8784 45.5745ZM41.5 48.8455L38.8711 48.2522C39.0849 47.8402 39.408 47.4951 39.805 47.2547C40.202 47.0143 40.6575 46.8879 41.1217 46.8894H41.8784C42.3425 46.8879 42.7981 47.0143 43.1951 47.2547C43.5921 47.4951 43.9152 47.8402 44.129 48.2522L41.5 48.8455Z" fill="white"/>
<mask id="path-26-inside-7_146_17209" fill="white">
<path d="M63.3431 56.7569H54.024C54.4896 56.3513 54.7968 55.7941 54.8915 55.1839C54.9861 54.5737 54.8621 53.9497 54.5413 53.4221L56.2635 53.083C56.2436 53.2091 56.233 53.3364 56.232 53.4641C56.2315 53.8673 56.3242 54.2651 56.5027 54.6266C56.6813 54.9881 56.9408 55.3035 57.2613 55.5482C57.5817 55.793 57.9543 55.9604 58.35 56.0375C58.7457 56.1147 59.1539 56.0994 59.5428 55.9929C59.9317 55.8864 60.2907 55.6915 60.5919 55.4235C60.8931 55.1555 61.1284 54.8216 61.2794 54.4478C61.4304 54.0739 61.4931 53.6703 61.4625 53.2683C61.4319 52.8662 61.309 52.4767 61.1032 52.13L61.3947 52.0726C61.7104 52.0095 61.992 51.8327 62.1862 51.5759C62.3803 51.319 62.4735 50.9999 62.4482 50.6789C62.4228 50.3579 62.2806 50.0574 62.0484 49.8342C61.8163 49.6111 61.5104 49.4808 61.1887 49.4681L49.8937 49.0691C49.9154 49.1517 49.9388 49.2306 49.9596 49.3151C50.037 49.6292 50.1142 49.9949 50.1786 50.3949L61.1427 50.7822L50.3097 52.9154C50.2945 53.1418 50.2712 53.3703 50.2383 53.5995L50.2349 53.6001C50.2251 53.6682 50.2112 53.7363 50.1997 53.8044C50.1803 53.9185 50.1594 54.0324 50.1348 54.1465C50.0467 54.5673 49.9196 54.979 49.7551 55.3762C49.8807 55.9117 50.1706 56.3944 50.5842 56.7569H47.1069C47.4057 56.5262 47.6754 56.26 47.9101 55.9643C48.8402 54.7716 49.0656 53.2708 49.0182 51.9337C49.0371 51.8393 49.0324 51.7416 49.0044 51.6494C48.9579 50.9688 48.8522 50.2935 48.6884 49.6313C47.0696 43.0645 42.5008 42.9059 41.5003 42.9502C40.498 42.903 35.9294 43.0616 34.3118 49.6309C34.1481 50.2929 34.0423 50.9679 33.9956 51.6482C33.9672 51.7413 33.9624 51.84 33.9816 51.9355C33.9341 53.2723 34.1595 54.7723 35.0887 55.9643C35.3234 56.26 35.5931 56.5262 35.892 56.7569H32.4154C32.8288 56.3946 33.1186 55.9122 33.2444 55.377C33.0797 54.9794 32.9525 54.5672 32.8644 54.1458C32.8399 54.0324 32.8192 53.919 32.7999 53.8055C32.7883 53.737 32.7745 53.6685 32.7646 53.6001L32.7612 53.5994C32.7283 53.3703 32.7051 53.1418 32.69 52.9154L21.857 50.7822L32.8217 50.3949C32.8861 49.995 32.9633 49.6295 33.0407 49.3154C33.0615 49.2309 33.0849 49.1517 33.1066 49.0691L21.8109 49.4681C21.4892 49.4808 21.1833 49.6111 20.9512 49.8342C20.7191 50.0574 20.5769 50.3579 20.5515 50.6789C20.5261 50.9999 20.6193 51.319 20.8135 51.5759C21.0076 51.8327 21.2892 52.0095 21.605 52.0726L21.8965 52.13C21.6894 52.4769 21.5654 52.867 21.534 53.2697C21.5027 53.6725 21.5648 54.0771 21.7157 54.4518C21.8665 54.8266 22.102 55.1614 22.4036 55.4301C22.7053 55.6989 23.065 55.8942 23.4546 56.0009C23.8443 56.1076 24.2533 56.1228 24.6498 56.0453C25.0463 55.9678 25.4195 55.7996 25.7402 55.554C26.061 55.3084 26.3206 54.992 26.4988 54.6294C26.6771 54.2669 26.7691 53.8681 26.7677 53.4641C26.7666 53.3364 26.7561 53.2091 26.7362 53.083L28.4583 53.4221C28.1375 53.9497 28.0135 54.5737 28.1081 55.1839C28.2028 55.7941 28.5101 56.3513 28.9757 56.7569H19.6565C19.5634 56.7447 19.4687 56.7526 19.3788 56.7799C19.289 56.8072 19.2059 56.8534 19.1353 56.9154C19.0647 56.9774 19.0082 57.0537 18.9694 57.1393C18.9307 57.2249 18.9106 57.3177 18.9106 57.4117C18.9106 57.5056 18.9307 57.5985 18.9694 57.684C19.0082 57.7696 19.0647 57.8459 19.1353 57.9079C19.2059 57.9699 19.289 58.0161 19.3788 58.0434C19.4687 58.0707 19.5634 58.0786 19.6565 58.0664H63.3431C63.4362 58.0786 63.5309 58.0707 63.6208 58.0434C63.7107 58.0161 63.7937 57.9699 63.8643 57.9079C63.9349 57.8459 63.9914 57.7696 64.0302 57.684C64.0689 57.5985 64.089 57.5056 64.089 57.4117C64.089 57.3177 64.0689 57.2249 64.0302 57.1393C63.9914 57.0537 63.9349 56.9774 63.8643 56.9154C63.7937 56.8534 63.7107 56.8072 63.6208 56.7799C63.5309 56.7526 63.4362 56.7447 63.3431 56.7569ZM57.7298 52.7942L59.6374 52.4186C59.8413 52.5703 59.9968 52.778 60.085 53.0163C60.1731 53.2547 60.1902 53.5135 60.1341 53.7614C60.078 54.0093 59.9511 54.2356 59.7689 54.4127C59.5867 54.5899 59.3569 54.7104 59.1076 54.7595C58.8582 54.8086 58.5999 54.7842 58.3641 54.6894C58.1283 54.5945 57.9252 54.4332 57.7793 54.2251C57.6334 54.017 57.551 53.771 57.5422 53.517C57.5335 53.263 57.5986 53.0119 57.7298 52.7942ZM51.1977 54.0805L53.0648 53.7128C53.274 53.8613 53.4351 54.0678 53.5282 54.3069C53.6213 54.546 53.6422 54.8071 53.5884 55.0579C53.5346 55.3088 53.4084 55.5383 53.2255 55.7182C53.0426 55.8981 52.8109 56.0204 52.5592 56.07C52.3075 56.1195 52.0467 56.0942 51.8093 55.9971C51.5718 55.9 51.368 55.7354 51.2231 55.5237C51.0782 55.312 50.9986 55.0624 50.9941 54.8059C50.9895 54.5494 51.0603 54.2972 51.1977 54.0805ZM35.583 49.9468C36.8509 44.7975 39.985 44.2588 41.233 44.2588C41.319 44.2588 41.3964 44.2613 41.4632 44.2652C41.4877 44.2665 41.5122 44.2665 41.5367 44.2652C42.5753 44.2055 46.0609 44.444 47.4173 49.9465C47.5159 50.3474 47.5919 50.7535 47.645 51.1629H35.3551C35.4083 50.7536 35.4843 50.3476 35.583 49.9468ZM35.2832 52.4779H47.7165C47.7289 53.4361 47.4356 54.3734 46.8791 55.1537C46.0525 56.2141 44.58 56.7515 42.5024 56.7515H40.4978C38.4193 56.7515 36.9462 56.214 36.1198 55.1537C35.5635 54.3734 35.2704 53.4361 35.2832 52.4779ZM24.1486 54.779C23.8736 54.7785 23.6058 54.6916 23.3829 54.5306C23.16 54.3695 22.9933 54.1426 22.9064 53.8817C22.8195 53.6208 22.8167 53.3392 22.8985 53.0767C22.9803 52.8141 23.1425 52.5839 23.3622 52.4186L25.2698 52.7942C25.3897 52.9928 25.4547 53.2197 25.458 53.4516C25.4614 53.6835 25.403 53.9122 25.2889 54.1141C25.1749 54.3161 25.0091 54.4841 24.8088 54.6009C24.6084 54.7177 24.3806 54.7792 24.1486 54.779ZM29.9349 53.7128L31.8019 54.0805C31.9381 54.2967 32.008 54.548 32.0029 54.8035C31.9978 55.059 31.9181 55.3073 31.7735 55.518C31.6289 55.7286 31.4257 55.8923 31.1891 55.9889C30.9526 56.0854 30.6929 56.1105 30.4422 56.0611C30.1915 56.0118 29.9607 55.8901 29.7784 55.7111C29.5961 55.5321 29.4702 55.3036 29.4162 55.0538C29.3623 54.8041 29.3826 54.544 29.4748 54.3057C29.567 54.0674 29.7269 53.8613 29.9349 53.7128Z"/>
</mask>
<path d="M63.3431 56.7569H54.024C54.4896 56.3513 54.7968 55.7941 54.8915 55.1839C54.9861 54.5737 54.8621 53.9497 54.5413 53.4221L56.2635 53.083C56.2436 53.2091 56.233 53.3364 56.232 53.4641C56.2315 53.8673 56.3242 54.2651 56.5027 54.6266C56.6813 54.9881 56.9408 55.3035 57.2613 55.5482C57.5817 55.793 57.9543 55.9604 58.35 56.0375C58.7457 56.1147 59.1539 56.0994 59.5428 55.9929C59.9317 55.8864 60.2907 55.6915 60.5919 55.4235C60.8931 55.1555 61.1284 54.8216 61.2794 54.4478C61.4304 54.0739 61.4931 53.6703 61.4625 53.2683C61.4319 52.8662 61.309 52.4767 61.1032 52.13L61.3947 52.0726C61.7104 52.0095 61.992 51.8327 62.1862 51.5759C62.3803 51.319 62.4735 50.9999 62.4482 50.6789C62.4228 50.3579 62.2806 50.0574 62.0484 49.8342C61.8163 49.6111 61.5104 49.4808 61.1887 49.4681L49.8937 49.0691C49.9154 49.1517 49.9388 49.2306 49.9596 49.3151C50.037 49.6292 50.1142 49.9949 50.1786 50.3949L61.1427 50.7822L50.3097 52.9154C50.2945 53.1418 50.2712 53.3703 50.2383 53.5995L50.2349 53.6001C50.2251 53.6682 50.2112 53.7363 50.1997 53.8044C50.1803 53.9185 50.1594 54.0324 50.1348 54.1465C50.0467 54.5673 49.9196 54.979 49.7551 55.3762C49.8807 55.9117 50.1706 56.3944 50.5842 56.7569H47.1069C47.4057 56.5262 47.6754 56.26 47.9101 55.9643C48.8402 54.7716 49.0656 53.2708 49.0182 51.9337C49.0371 51.8393 49.0324 51.7416 49.0044 51.6494C48.9579 50.9688 48.8522 50.2935 48.6884 49.6313C47.0696 43.0645 42.5008 42.9059 41.5003 42.9502C40.498 42.903 35.9294 43.0616 34.3118 49.6309C34.1481 50.2929 34.0423 50.9679 33.9956 51.6482C33.9672 51.7413 33.9624 51.84 33.9816 51.9355C33.9341 53.2723 34.1595 54.7723 35.0887 55.9643C35.3234 56.26 35.5931 56.5262 35.892 56.7569H32.4154C32.8288 56.3946 33.1186 55.9122 33.2444 55.377C33.0797 54.9794 32.9525 54.5672 32.8644 54.1458C32.8399 54.0324 32.8192 53.919 32.7999 53.8055C32.7883 53.737 32.7745 53.6685 32.7646 53.6001L32.7612 53.5994C32.7283 53.3703 32.7051 53.1418 32.69 52.9154L21.857 50.7822L32.8217 50.3949C32.8861 49.995 32.9633 49.6295 33.0407 49.3154C33.0615 49.2309 33.0849 49.1517 33.1066 49.0691L21.8109 49.4681C21.4892 49.4808 21.1833 49.6111 20.9512 49.8342C20.7191 50.0574 20.5769 50.3579 20.5515 50.6789C20.5261 50.9999 20.6193 51.319 20.8135 51.5759C21.0076 51.8327 21.2892 52.0095 21.605 52.0726L21.8965 52.13C21.6894 52.4769 21.5654 52.867 21.534 53.2697C21.5027 53.6725 21.5648 54.0771 21.7157 54.4518C21.8665 54.8266 22.102 55.1614 22.4036 55.4301C22.7053 55.6989 23.065 55.8942 23.4546 56.0009C23.8443 56.1076 24.2533 56.1228 24.6498 56.0453C25.0463 55.9678 25.4195 55.7996 25.7402 55.554C26.061 55.3084 26.3206 54.992 26.4988 54.6294C26.6771 54.2669 26.7691 53.8681 26.7677 53.4641C26.7666 53.3364 26.7561 53.2091 26.7362 53.083L28.4583 53.4221C28.1375 53.9497 28.0135 54.5737 28.1081 55.1839C28.2028 55.7941 28.5101 56.3513 28.9757 56.7569H19.6565C19.5634 56.7447 19.4687 56.7526 19.3788 56.7799C19.289 56.8072 19.2059 56.8534 19.1353 56.9154C19.0647 56.9774 19.0082 57.0537 18.9694 57.1393C18.9307 57.2249 18.9106 57.3177 18.9106 57.4117C18.9106 57.5056 18.9307 57.5985 18.9694 57.684C19.0082 57.7696 19.0647 57.8459 19.1353 57.9079C19.2059 57.9699 19.289 58.0161 19.3788 58.0434C19.4687 58.0707 19.5634 58.0786 19.6565 58.0664H63.3431C63.4362 58.0786 63.5309 58.0707 63.6208 58.0434C63.7107 58.0161 63.7937 57.9699 63.8643 57.9079C63.9349 57.8459 63.9914 57.7696 64.0302 57.684C64.0689 57.5985 64.089 57.5056 64.089 57.4117C64.089 57.3177 64.0689 57.2249 64.0302 57.1393C63.9914 57.0537 63.9349 56.9774 63.8643 56.9154C63.7937 56.8534 63.7107 56.8072 63.6208 56.7799C63.5309 56.7526 63.4362 56.7447 63.3431 56.7569ZM57.7298 52.7942L59.6374 52.4186C59.8413 52.5703 59.9968 52.778 60.085 53.0163C60.1731 53.2547 60.1902 53.5135 60.1341 53.7614C60.078 54.0093 59.9511 54.2356 59.7689 54.4127C59.5867 54.5899 59.3569 54.7104 59.1076 54.7595C58.8582 54.8086 58.5999 54.7842 58.3641 54.6894C58.1283 54.5945 57.9252 54.4332 57.7793 54.2251C57.6334 54.017 57.551 53.771 57.5422 53.517C57.5335 53.263 57.5986 53.0119 57.7298 52.7942ZM51.1977 54.0805L53.0648 53.7128C53.274 53.8613 53.4351 54.0678 53.5282 54.3069C53.6213 54.546 53.6422 54.8071 53.5884 55.0579C53.5346 55.3088 53.4084 55.5383 53.2255 55.7182C53.0426 55.8981 52.8109 56.0204 52.5592 56.07C52.3075 56.1195 52.0467 56.0942 51.8093 55.9971C51.5718 55.9 51.368 55.7354 51.2231 55.5237C51.0782 55.312 50.9986 55.0624 50.9941 54.8059C50.9895 54.5494 51.0603 54.2972 51.1977 54.0805ZM35.583 49.9468C36.8509 44.7975 39.985 44.2588 41.233 44.2588C41.319 44.2588 41.3964 44.2613 41.4632 44.2652C41.4877 44.2665 41.5122 44.2665 41.5367 44.2652C42.5753 44.2055 46.0609 44.444 47.4173 49.9465C47.5159 50.3474 47.5919 50.7535 47.645 51.1629H35.3551C35.4083 50.7536 35.4843 50.3476 35.583 49.9468ZM35.2832 52.4779H47.7165C47.7289 53.4361 47.4356 54.3734 46.8791 55.1537C46.0525 56.2141 44.58 56.7515 42.5024 56.7515H40.4978C38.4193 56.7515 36.9462 56.214 36.1198 55.1537C35.5635 54.3734 35.2704 53.4361 35.2832 52.4779ZM24.1486 54.779C23.8736 54.7785 23.6058 54.6916 23.3829 54.5306C23.16 54.3695 22.9933 54.1426 22.9064 53.8817C22.8195 53.6208 22.8167 53.3392 22.8985 53.0767C22.9803 52.8141 23.1425 52.5839 23.3622 52.4186L25.2698 52.7942C25.3897 52.9928 25.4547 53.2197 25.458 53.4516C25.4614 53.6835 25.403 53.9122 25.2889 54.1141C25.1749 54.3161 25.0091 54.4841 24.8088 54.6009C24.6084 54.7177 24.3806 54.7792 24.1486 54.779ZM29.9349 53.7128L31.8019 54.0805C31.9381 54.2967 32.008 54.548 32.0029 54.8035C31.9978 55.059 31.9181 55.3073 31.7735 55.518C31.6289 55.7286 31.4257 55.8923 31.1891 55.9889C30.9526 56.0854 30.6929 56.1105 30.4422 56.0611C30.1915 56.0118 29.9607 55.8901 29.7784 55.7111C29.5961 55.5321 29.4702 55.3036 29.4162 55.0538C29.3623 54.8041 29.3826 54.544 29.4748 54.3057C29.567 54.0674 29.7269 53.8613 29.9349 53.7128Z" fill="white" stroke="url(#paint11_linear_146_17209)" stroke-width="2" mask="url(#path-26-inside-7_146_17209)"/>
<defs>
<linearGradient id="paint0_linear_146_17209" x1="42" y1="0" x2="42" y2="84" gradientUnits="userSpaceOnUse">
<stop stop-color="#A3F17E"/>
<stop offset="1" stop-color="#99F783"/>
</linearGradient>
<linearGradient id="paint1_linear_146_17209" x1="49.3571" y1="26.9653" x2="49.3571" y2="28.9296" gradientUnits="userSpaceOnUse">
<stop stop-color="#A3F17E"/>
<stop offset="1" stop-color="#99F783"/>
</linearGradient>
<linearGradient id="paint2_linear_146_17209" x1="61.1416" y1="43.2766" x2="61.1416" y2="44.5861" gradientUnits="userSpaceOnUse">
<stop stop-color="#A3F17E"/>
<stop offset="1" stop-color="#99F783"/>
</linearGradient>
<linearGradient id="paint3_linear_146_17209" x1="33.3154" y1="28.2056" x2="33.3154" y2="29.5151" gradientUnits="userSpaceOnUse">
<stop stop-color="#A3F17E"/>
<stop offset="1" stop-color="#99F783"/>
</linearGradient>
<linearGradient id="paint4_linear_146_17209" x1="61.4692" y1="23.4883" x2="61.4692" y2="24.7978" gradientUnits="userSpaceOnUse">
<stop stop-color="#A3F17E"/>
<stop offset="1" stop-color="#99F783"/>
</linearGradient>
<linearGradient id="paint5_linear_146_17209" x1="15.3095" y1="34.7532" x2="15.3095" y2="36.0627" gradientUnits="userSpaceOnUse">
<stop stop-color="#A3F17E"/>
<stop offset="1" stop-color="#99F783"/>
</linearGradient>
<linearGradient id="paint6_linear_146_17209" x1="14.6548" y1="56.7568" x2="14.6548" y2="58.0664" gradientUnits="userSpaceOnUse">
<stop stop-color="#A3F17E"/>
<stop offset="1" stop-color="#99F783"/>
</linearGradient>
<linearGradient id="paint7_linear_146_17209" x1="17.1102" y1="56.7568" x2="17.1102" y2="58.0664" gradientUnits="userSpaceOnUse">
<stop stop-color="#A3F17E"/>
<stop offset="1" stop-color="#99F783"/>
</linearGradient>
<linearGradient id="paint8_linear_146_17209" x1="65.89" y1="56.7568" x2="65.89" y2="58.0664" gradientUnits="userSpaceOnUse">
<stop stop-color="#A3F17E"/>
<stop offset="1" stop-color="#99F783"/>
</linearGradient>
<linearGradient id="paint9_linear_146_17209" x1="68.3452" y1="56.7568" x2="68.3452" y2="58.0664" gradientUnits="userSpaceOnUse">
<stop stop-color="#A3F17E"/>
<stop offset="1" stop-color="#99F783"/>
</linearGradient>
<linearGradient id="paint10_linear_146_17209" x1="41.5001" y1="36.4592" x2="41.5001" y2="42.41" gradientUnits="userSpaceOnUse">
<stop stop-color="#A3F17E"/>
<stop offset="1" stop-color="#99F783"/>
</linearGradient>
<linearGradient id="paint11_linear_146_17209" x1="41.4998" y1="42.9453" x2="41.4998" y2="58.072" gradientUnits="userSpaceOnUse">
<stop stop-color="#A3F17E"/>
<stop offset="1" stop-color="#99F783"/>
</linearGradient>
</defs>
</svg>
