<svg width="84" height="84" viewBox="0 0 84 84" fill="none" xmlns="http://www.w3.org/2000/svg">
<rect x="0.5" y="0.5" width="83" height="83" rx="19.5" stroke="url(#paint0_linear_146_17282)"/>
<g clip-path="url(#clip0_146_17282)">
<path d="M43.8602 40.6255L44.0323 40.3731C44.2889 39.9972 44.5244 39.6073 44.7379 39.2054L45.0071 38.6987L45.4722 39.0346L48.2841 41.065L43.8602 40.6255ZM43.8602 40.6255L44.0061 40.8938M43.8602 40.6255L44.0061 40.8938M44.0061 40.8938L45.2371 43.1574L45.2371 43.1574C45.2499 43.181 45.2564 43.2076 45.2559 43.2344C45.2554 43.2613 45.2479 43.2876 45.2342 43.3107L45.664 43.5661M44.0061 40.8938L45.664 43.5661M45.664 43.5661L45.2342 43.3107C45.2205 43.3338 45.201 43.3529 45.1776 43.3662C45.1543 43.3795 45.1278 43.3865 45.101 43.3865H44.2199H43.8929L43.7618 43.6861L41.6418 48.5331C41.6298 48.5606 41.6099 48.5841 41.5847 48.6006C41.5595 48.6171 41.5301 48.6258 41.5 48.6258C41.4699 48.6258 41.4404 48.6171 41.4152 48.6006C41.39 48.5841 41.3702 48.5606 41.3581 48.5331L39.2381 43.6861L39.107 43.3865H38.78H37.899C37.8721 43.3865 37.8457 43.3795 37.8224 43.3662C37.799 43.3529 37.7795 43.3338 37.7658 43.3107C37.752 43.2876 37.7446 43.2613 37.7441 43.2344C37.7435 43.2076 37.75 43.181 37.7629 43.1574L37.7629 43.1574L38.9939 40.8938L39.1398 40.6255L38.9676 40.3731C38.7111 39.9972 38.4755 39.6073 38.262 39.2054L37.9929 38.6987L37.5277 39.0346L34.7158 41.065C34.6927 41.0817 34.6654 41.0917 34.6369 41.0939C34.6085 41.096 34.58 41.0903 34.5546 41.0773L34.3273 41.5216L34.5546 41.0773C34.5292 41.0643 34.5079 41.0445 34.493 41.0202C34.4781 40.9959 34.4702 40.9679 34.4702 40.9394L45.664 43.5661ZM48.5232 37.5623L48.5232 37.5609C48.5237 36.7511 48.317 35.9547 47.9226 35.2475C47.5282 34.5403 46.9593 33.9458 46.27 33.5207L46.0492 33.3846L46.0335 33.1256C45.8627 30.3255 44.7791 27.7676 43.7152 25.8875C43.1849 24.9502 42.6636 24.1887 42.2721 23.6584C42.0764 23.3935 41.9135 23.1867 41.7986 23.0451C41.7411 22.9744 41.6957 22.9199 41.6642 22.8827C41.6438 22.8586 41.6297 22.8422 41.6221 22.8335C41.6067 22.8187 41.5888 22.8068 41.5692 22.7984C41.5473 22.789 41.5238 22.7842 41.5 22.7842C41.4762 22.7842 41.4527 22.789 41.4308 22.7984C41.4112 22.8068 41.3932 22.8187 41.3779 22.8335C41.3703 22.8422 41.3561 22.8587 41.3357 22.8827C41.3042 22.9199 41.2588 22.9744 41.2013 23.0451C41.0864 23.1867 40.9235 23.3935 40.7279 23.6585C40.3364 24.1887 39.8151 24.9503 39.2847 25.8875C38.2209 27.7676 37.1373 30.3255 36.9665 33.1256L36.9507 33.3846L36.7299 33.5207C36.0407 33.9458 35.4718 34.5402 35.0774 35.2473C34.683 35.9545 34.4762 36.7509 34.4768 37.5606L34.4768 37.562C34.4735 39.0259 34.4719 39.8705 34.471 40.349L34.4703 40.8238L34.4702 40.9147L34.4702 40.9338L34.4702 40.9381L34.4702 40.9391V40.9394L48.5232 37.5623ZM48.5232 37.5623C48.5265 39.0261 48.5281 39.8705 48.5289 40.349L48.5296 40.8238L48.5297 40.9147L48.5297 40.9338L48.5297 40.9381V40.9391V40.9393C48.5297 40.9678 48.5218 40.9958 48.507 41.0201C48.4921 41.0445 48.4707 41.0643 48.4453 41.0772C48.4199 41.0902 48.3914 41.096 48.363 41.0938C48.3346 41.0917 48.3074 41.0818 48.2844 41.0652L48.5232 37.5623ZM46.8716 34.3926L46.1011 33.6569L46.0275 34.7196C45.9485 35.8599 45.6944 36.9812 45.274 38.0441L45.131 38.4057L45.4462 38.6334L47.4254 40.0627L48.22 40.6366L48.2181 39.6564C48.2172 39.1631 48.2157 38.4872 48.2137 37.5656C48.2186 36.9736 48.1022 36.3869 47.8718 35.8415C47.6409 35.2952 47.3005 34.8021 46.8716 34.3926ZM41.8939 23.665L41.4991 23.1437L41.0995 23.6614C40.6162 24.2876 40.1687 24.9407 39.7591 25.6174L39.2998 26.3763H40.1869H42.7821H43.6626L43.2116 25.6202C42.8087 24.9447 42.3688 24.292 41.8939 23.665ZM34.7818 39.6564L34.7799 40.6366L35.5746 40.0627L37.5538 38.6334L37.869 38.4057L37.726 38.0441C37.3056 36.9812 37.0514 35.8599 36.9724 34.7196L36.8988 33.657L36.1284 34.3925C35.6995 34.802 35.3591 35.2951 35.1282 35.8413C34.8978 36.3866 34.7814 36.9734 34.7863 37.5654C34.7842 38.4872 34.7828 39.1631 34.7818 39.6564ZM41.0419 47.0372L41.5 48.0845L41.9581 47.0372L43.2485 44.0869L43.5548 43.3865H42.7904H40.2095H39.4451L39.7514 44.0869L41.0419 47.0372ZM38.5611 42.3378L38.1593 43.0767H39.0003H43.9996H44.8407L44.4389 42.3378L43.7266 41.028L43.5845 40.7668H43.2873H39.7126H39.4154L39.2734 41.028L38.5611 42.3378ZM43.3375 40.457H43.6008L43.7498 40.2399C47.0575 35.4195 45.6301 30.2964 43.9497 26.9612L43.8112 26.6861H43.5032H39.4565H39.15L39.0109 26.9592C37.3189 30.2816 35.9063 35.3753 39.2502 40.2403L39.3993 40.457H39.6623H43.3375Z" fill="white" stroke="url(#paint1_linear_146_17282)"/>
<path d="M41.4998 30.4607C41.0464 30.4606 40.6032 30.5949 40.2261 30.8467C39.8491 31.0985 39.5552 31.4565 39.3817 31.8753C39.2081 32.2942 39.1626 32.7551 39.251 33.1998C39.3394 33.6444 39.5577 34.0529 39.8782 34.3735C40.1988 34.6942 40.6072 34.9125 41.0519 35.001C41.4965 35.0895 41.9574 35.0442 42.3763 34.8707C42.7952 34.6972 43.1532 34.4034 43.4051 34.0264C43.657 33.6495 43.7914 33.2063 43.7914 32.7529C43.7908 32.1453 43.5492 31.5627 43.1196 31.133C42.6899 30.7032 42.1074 30.4615 41.4998 30.4607ZM41.4998 33.7353C41.3055 33.7353 41.1155 33.6777 40.9539 33.5698C40.7924 33.4619 40.6664 33.3085 40.592 33.129C40.5176 32.9495 40.4981 32.752 40.536 32.5614C40.5739 32.3708 40.6675 32.1957 40.8048 32.0583C40.9422 31.9209 41.1173 31.8273 41.3078 31.7894C41.4984 31.7515 41.6959 31.7709 41.8754 31.8453C42.055 31.9196 42.2084 32.0456 42.3164 32.2071C42.4243 32.3687 42.4819 32.5586 42.4819 32.7529C42.4817 33.0133 42.3781 33.263 42.194 33.4472C42.0099 33.6314 41.7602 33.735 41.4998 33.7353Z" fill="white"/>
<path d="M54.9226 45.5239C54.4693 45.5238 54.026 45.6582 53.649 45.91C53.272 46.1618 52.9781 46.5197 52.8045 46.9386C52.6309 47.3574 52.5855 47.8183 52.6739 48.263C52.7622 48.7077 52.9805 49.1162 53.3011 49.4368C53.6216 49.7574 54.03 49.9758 54.4747 50.0643C54.9194 50.1527 55.3803 50.1074 55.7992 49.9339C56.218 49.7604 56.5761 49.4666 56.828 49.0897C57.0798 48.7127 57.2143 48.2695 57.2143 47.8161C57.2137 47.2085 56.972 46.6259 56.5424 46.1962C56.1128 45.7665 55.5303 45.5247 54.9226 45.5239ZM54.9226 48.7985C54.7283 48.7986 54.5384 48.741 54.3768 48.6331C54.2152 48.5252 54.0892 48.3717 54.0149 48.1922C53.9405 48.0127 53.921 47.8152 53.9589 47.6246C53.9967 47.434 54.0903 47.259 54.2277 47.1216C54.365 46.9842 54.5401 46.8906 54.7307 46.8526C54.9212 46.8147 55.1188 46.8342 55.2983 46.9085C55.4778 46.9829 55.6312 47.1088 55.7392 47.2703C55.8472 47.4319 55.9048 47.6218 55.9048 47.8161C55.9045 48.0766 55.801 48.3262 55.6168 48.5104C55.4327 48.6946 55.1831 48.7982 54.9226 48.7985Z" fill="white"/>
<path d="M28.0774 45.5239C27.624 45.5238 27.1808 45.6582 26.8038 45.91C26.4268 46.1618 26.1329 46.5197 25.9593 46.9386C25.7857 47.3574 25.7403 47.8183 25.8286 48.263C25.917 48.7077 26.1353 49.1162 26.4558 49.4368C26.7764 49.7574 27.1848 49.9758 27.6295 50.0643C28.0741 50.1527 28.5351 50.1074 28.9539 49.9339C29.3728 49.7604 29.7308 49.4666 29.9827 49.0897C30.2346 48.7127 30.3691 48.2695 30.3691 47.8161C30.3684 47.2085 30.1268 46.6259 29.6972 46.1962C29.2676 45.7665 28.6851 45.5247 28.0774 45.5239ZM28.0774 48.7985C27.8831 48.7986 27.6932 48.741 27.5316 48.6331C27.37 48.5252 27.244 48.3717 27.1696 48.1922C27.0953 48.0127 27.0758 47.8152 27.1136 47.6246C27.1515 47.434 27.2451 47.259 27.3824 47.1216C27.5198 46.9842 27.6949 46.8906 27.8854 46.8526C28.076 46.8147 28.2735 46.8342 28.4531 46.9085C28.6326 46.9829 28.786 47.1088 28.894 47.2703C29.0019 47.4319 29.0596 47.6218 29.0596 47.8161C29.0593 48.0766 28.9558 48.3262 28.7716 48.5104C28.5875 48.6946 28.3378 48.7982 28.0774 48.7985Z" fill="white"/>
<path d="M41.5 52.073C41.3263 52.073 41.1598 52.142 41.037 52.2649C40.9142 52.3877 40.8452 52.5542 40.8452 52.7279V60.5869C40.8452 60.7606 40.9142 60.9271 41.037 61.0499C41.1598 61.1727 41.3263 61.2417 41.5 61.2417C41.6736 61.2417 41.8402 61.1727 41.963 61.0499C42.0858 60.9271 42.1547 60.7606 42.1547 60.5869V52.7279C42.1547 52.5542 42.0858 52.3877 41.963 52.2649C41.8402 52.142 41.6736 52.073 41.5 52.073Z" fill="white"/>
<path d="M43.9644 49.1261V49.1261V56.9851C43.9644 57.0261 43.9807 57.0655 44.0097 57.0945C44.0387 57.1236 44.0781 57.1399 44.1191 57.1399C44.1602 57.1399 44.1995 57.1236 44.2286 57.0945C44.2576 57.0655 44.2739 57.0261 44.2739 56.9851V49.1261V49.1261C44.2739 49.085 44.2576 49.0456 44.2285 49.0166C44.1995 48.9876 44.1602 48.9712 44.1192 48.9712C44.1191 48.9712 44.1191 48.9712 44.119 48.9712M43.9644 49.1261L43.4644 49.1261C43.4643 48.9524 43.5333 48.7859 43.6561 48.663C43.7789 48.5402 43.9454 48.4712 44.1191 48.4712L44.119 48.9712M43.9644 49.1261C43.9644 49.085 43.9807 49.0456 44.0097 49.0166C44.0387 48.9876 44.078 48.9712 44.119 48.9712M43.9644 49.1261L44.119 48.9712" fill="white" stroke="url(#paint2_linear_146_17282)"/>
<path d="M38.7261 49.1261V49.1261V56.9851C38.7261 57.0261 38.7424 57.0655 38.7714 57.0945C38.8004 57.1236 38.8398 57.1399 38.8808 57.1399C38.9219 57.1399 38.9612 57.1236 38.9903 57.0945C39.0193 57.0655 39.0356 57.0261 39.0356 56.9851V49.1261V49.1261C39.0356 49.085 39.0193 49.0456 38.9903 49.0166C38.9612 48.9876 38.9219 48.9712 38.8809 48.9712C38.8809 48.9712 38.8808 48.9712 38.8808 48.9712M38.7261 49.1261L38.2261 49.1261C38.2261 48.9524 38.295 48.7859 38.4178 48.663C38.5406 48.5402 38.7072 48.4712 38.8808 48.4712L38.8808 48.9712M38.7261 49.1261C38.7261 49.085 38.7424 49.0456 38.7714 49.0166C38.8004 48.9876 38.8397 48.9712 38.8808 48.9712M38.7261 49.1261L38.8808 48.9712" fill="white" stroke="url(#paint3_linear_146_17282)"/>
<path d="M29.4091 29.0729L29.409 29.0729L27.9385 28.8622L27.6795 28.825L27.5623 28.591L26.9065 27.2806C26.9065 27.2806 26.9065 27.2805 26.9065 27.2805C26.8936 27.2548 26.8738 27.2333 26.8494 27.2182C26.825 27.2031 26.7968 27.1951 26.768 27.1951C26.7393 27.1951 26.7111 27.2031 26.6867 27.2182C26.6622 27.2333 26.6425 27.2549 26.6296 27.2805C26.6296 27.2805 26.6296 27.2806 26.6296 27.2806L25.9737 28.591L25.8566 28.825L25.5975 28.8622L24.1271 29.0729C24.1271 29.0729 24.127 29.0729 24.127 29.0729C24.0983 29.077 24.0713 29.0891 24.0492 29.1078C24.027 29.1266 24.0105 29.1511 24.0016 29.1788C23.9927 29.2064 23.9917 29.236 23.9988 29.2641C24.0059 29.2922 24.0208 29.3178 24.0417 29.3379L24.0418 29.338L25.1002 30.3552L25.2919 30.5395L25.2463 30.8014L24.997 32.2353L24.9969 32.2355C24.992 32.2639 24.995 32.2931 25.0058 32.3198C25.0166 32.3466 25.0346 32.3698 25.0579 32.3868C25.0811 32.4039 25.1087 32.4141 25.1374 32.4163C25.1661 32.4185 25.1949 32.4126 25.2205 32.3994L25.2206 32.3993L26.538 31.7166L26.768 31.5973L26.9981 31.7166L28.3155 32.3993L28.3156 32.3994C28.3412 32.4126 28.3699 32.4185 28.3987 32.4163C28.4274 32.4141 28.455 32.4039 28.4782 32.3868C28.5015 32.3698 28.5195 32.3466 28.5303 32.3198C28.541 32.2931 28.5441 32.2639 28.5392 32.2355L28.5391 32.2353L28.2898 30.8014L28.2442 30.5395L28.4359 30.3552L29.4942 29.3381L29.4091 29.0729ZM29.4091 29.0729C29.4378 29.077 29.4647 29.0891 29.4869 29.1078C29.5091 29.1265 29.5255 29.1511 29.5344 29.1787M29.4091 29.0729L29.5344 29.1787M29.5344 29.1787C29.5433 29.2063 29.5442 29.2359 29.5371 29.2641C29.53 29.2922 29.5152 29.3178 29.4943 29.338L29.5344 29.1787ZM27.9252 30.5114L27.9251 30.5113C27.9208 30.4863 27.9226 30.4606 27.9305 30.4365C27.9384 30.4124 27.9521 30.3906 27.9703 30.373C27.9704 30.373 27.9704 30.373 27.9704 30.373L28.3121 30.0446L29.0508 29.3347L28.0367 29.1891L27.5555 29.1201L27.5555 29.1201C27.5307 29.1165 27.5071 29.107 27.4868 29.0924C27.4666 29.0778 27.4501 29.0585 27.4389 29.0362C27.4389 29.0362 27.4389 29.0361 27.4388 29.0361L27.2152 28.589L26.768 27.6951L26.3209 28.589L26.0972 29.0361C26.0972 29.0361 26.0972 29.0362 26.0971 29.0362C26.0859 29.0586 26.0695 29.0778 26.0492 29.0924C26.0289 29.107 26.0054 29.1165 25.9806 29.1201L25.9805 29.1201L25.4994 29.1892L24.4852 29.3347L25.224 30.0446L25.5657 30.373C25.5657 30.373 25.5657 30.373 25.5657 30.373C25.584 30.3906 25.5977 30.4124 25.6056 30.4365C25.6134 30.4606 25.6153 30.4863 25.6109 30.5113L25.6109 30.5114L25.5283 30.9866L25.3555 31.9799L26.2508 31.5163L26.6966 31.2854L26.6971 31.2852C26.719 31.2738 26.7433 31.2678 26.768 31.2678C26.7927 31.2678 26.8171 31.2738 26.839 31.2852L26.8394 31.2854L27.2853 31.5163L28.1806 31.9799L28.0078 30.9866L27.9252 30.5114Z" fill="white" stroke="url(#paint4_linear_146_17282)"/>
<path d="M58.8734 29.0729L58.8734 29.0729C58.9021 29.077 58.9291 29.0891 58.9513 29.1078C58.9734 29.1265 58.9899 29.1511 58.9988 29.1787C59.0077 29.2063 59.0086 29.2359 59.0015 29.2641C58.9944 29.2923 58.9795 29.3179 58.9585 29.3381L57.9002 30.3552L57.7086 30.5395L57.7541 30.8014L58.0035 32.2353L58.0035 32.2355C58.0085 32.2639 58.0054 32.2931 57.9946 32.3198C57.9838 32.3466 57.9658 32.3698 57.9426 32.3868L58.2381 32.7901L57.9426 32.3868C57.9193 32.4039 57.8918 32.4141 57.863 32.4163C57.8343 32.4185 57.8055 32.4126 57.7799 32.3994L57.7798 32.3993L56.4625 31.7166L56.2324 31.5973L56.0023 31.7166L54.685 32.3993L54.6849 32.3994C54.6593 32.4126 54.6305 32.4185 54.6017 32.4163C54.573 32.4141 54.5455 32.4039 54.5222 32.3868C54.499 32.3698 54.4809 32.3466 54.4702 32.3198C54.4594 32.2931 54.4563 32.2639 54.4613 32.2355L54.4613 32.2353L54.7107 30.8014L54.7562 30.5395L54.5645 30.3552L53.5061 29.338L53.5061 29.3379C53.4851 29.3178 53.4703 29.2922 53.4632 29.2641C53.4561 29.236 53.4571 29.2064 53.466 29.1788C53.4748 29.1511 53.4913 29.1266 53.5135 29.1078C53.5357 29.0891 53.5627 29.077 53.5914 29.0729C53.5914 29.0729 53.5914 29.0729 53.5914 29.0729L55.0619 28.8622L55.321 28.825L55.4381 28.591L56.0939 27.2806C56.0939 27.2806 56.094 27.2805 56.094 27.2805C56.1068 27.2548 56.1266 27.2333 56.151 27.2182C56.1755 27.2031 56.2036 27.1951 56.2324 27.1951C56.2611 27.1951 56.2893 27.2031 56.3138 27.2182C56.3382 27.2333 56.3579 27.2549 56.3708 27.2805C56.3708 27.2805 56.3708 27.2806 56.3708 27.2806L57.0267 28.591L57.1438 28.825L57.4029 28.8622L58.8734 29.0729ZM57.3895 30.5114L57.3895 30.5113C57.3851 30.4863 57.387 30.4606 57.3949 30.4365C57.4028 30.4124 57.4164 30.3906 57.4347 30.373C57.4347 30.373 57.4347 30.373 57.4348 30.373L57.7765 30.0446L58.5152 29.3347L57.501 29.1892L57.0199 29.1201L57.0198 29.1201C56.9951 29.1165 56.9715 29.107 56.9512 29.0924C56.9309 29.0778 56.9144 29.0584 56.9032 29.0361L56.6796 28.589L56.2324 27.6951L55.7852 28.589L55.5616 29.0361C55.5615 29.0361 55.5615 29.0362 55.5615 29.0362C55.5503 29.0586 55.5338 29.0778 55.5136 29.0924C55.4933 29.107 55.4697 29.1165 55.445 29.1201L55.4449 29.1201L54.9637 29.1892L53.9496 29.3347L54.6883 30.0446L55.03 30.373C55.0301 30.373 55.0301 30.373 55.0301 30.373C55.0484 30.3906 55.062 30.4124 55.0699 30.4365C55.0778 30.4606 55.0796 30.4863 55.0753 30.5113L55.0753 30.5114L54.9926 30.9866L54.8199 31.9799L55.7152 31.5163L56.161 31.2854L56.1614 31.2852C56.1834 31.2738 56.2077 31.2678 56.2324 31.2678C56.2571 31.2678 56.2814 31.2738 56.3033 31.2852L56.3038 31.2854L56.7496 31.5163L57.6449 31.9799L57.4722 30.9866L57.3895 30.5114Z" fill="white" stroke="url(#paint5_linear_146_17282)"/>
<mask id="path-11-inside-1_146_17282" fill="white">
<path d="M45.2473 22.4487C45.4415 22.4487 45.6314 22.3911 45.7929 22.2831C45.9544 22.1752 46.0803 22.0218 46.1547 21.8424C46.229 21.6629 46.2484 21.4654 46.2105 21.2749C46.1727 21.0844 46.0791 20.9094 45.9418 20.772C45.8044 20.6347 45.6294 20.5411 45.4389 20.5032C45.2484 20.4654 45.0509 20.4848 44.8714 20.5591C44.692 20.6335 44.5386 20.7594 44.4307 20.9209C44.3227 21.0824 44.2651 21.2723 44.2651 21.4665C44.2654 21.7269 44.369 21.9765 44.5531 22.1607C44.7373 22.3448 44.9869 22.4484 45.2473 22.4487ZM45.2473 20.9754C45.3444 20.9754 45.4393 21.0042 45.5201 21.0582C45.6009 21.1122 45.6638 21.1889 45.701 21.2786C45.7381 21.3683 45.7479 21.4671 45.7289 21.5623C45.71 21.6576 45.6632 21.7451 45.5945 21.8138C45.5258 21.8824 45.4383 21.9292 45.3431 21.9482C45.2478 21.9671 45.1491 21.9574 45.0594 21.9202C44.9696 21.883 44.8929 21.8201 44.839 21.7393C44.785 21.6586 44.7562 21.5636 44.7562 21.4665C44.7563 21.3363 44.8081 21.2115 44.9002 21.1194C44.9922 21.0274 45.1171 20.9756 45.2473 20.9754Z"/>
</mask>
<path d="M45.2473 22.4487C45.4415 22.4487 45.6314 22.3911 45.7929 22.2831C45.9544 22.1752 46.0803 22.0218 46.1547 21.8424C46.229 21.6629 46.2484 21.4654 46.2105 21.2749C46.1727 21.0844 46.0791 20.9094 45.9418 20.772C45.8044 20.6347 45.6294 20.5411 45.4389 20.5032C45.2484 20.4654 45.0509 20.4848 44.8714 20.5591C44.692 20.6335 44.5386 20.7594 44.4307 20.9209C44.3227 21.0824 44.2651 21.2723 44.2651 21.4665C44.2654 21.7269 44.369 21.9765 44.5531 22.1607C44.7373 22.3448 44.9869 22.4484 45.2473 22.4487ZM45.2473 20.9754C45.3444 20.9754 45.4393 21.0042 45.5201 21.0582C45.6009 21.1122 45.6638 21.1889 45.701 21.2786C45.7381 21.3683 45.7479 21.4671 45.7289 21.5623C45.71 21.6576 45.6632 21.7451 45.5945 21.8138C45.5258 21.8824 45.4383 21.9292 45.3431 21.9482C45.2478 21.9671 45.1491 21.9574 45.0594 21.9202C44.9696 21.883 44.8929 21.8201 44.839 21.7393C44.785 21.6586 44.7562 21.5636 44.7562 21.4665C44.7563 21.3363 44.8081 21.2115 44.9002 21.1194C44.9922 21.0274 45.1171 20.9756 45.2473 20.9754Z" fill="white"/>
<path d="M45.2473 22.4487L45.2461 23.4487H45.2473V22.4487ZM44.2651 21.4665H43.2651L43.2651 21.4677L44.2651 21.4665ZM45.2473 20.9754V19.9754L45.2463 19.9754L45.2473 20.9754ZM44.7562 21.4665L43.7562 21.4655V21.4665H44.7562ZM45.2473 23.4487C45.6393 23.4487 46.0225 23.3324 46.3485 23.1146L45.2374 21.4517C45.2403 21.4497 45.2437 21.4487 45.2473 21.4487V23.4487ZM46.3485 23.1146C46.6745 22.8968 46.9285 22.5872 47.0785 22.2251L45.2308 21.4597C45.2321 21.4564 45.2344 21.4536 45.2374 21.4517L46.3485 23.1146ZM47.0785 22.2251C47.2286 21.8629 47.2678 21.4643 47.1913 21.0798L45.2298 21.47C45.2291 21.4665 45.2294 21.4629 45.2308 21.4597L47.0785 22.2251ZM47.1913 21.0798C47.1149 20.6953 46.9261 20.3421 46.6489 20.0649L45.2347 21.4791C45.2322 21.4766 45.2305 21.4735 45.2298 21.47L47.1913 21.0798ZM46.6489 20.0649C46.3717 19.7877 46.0185 19.5989 45.634 19.5225L45.2438 21.484C45.2403 21.4833 45.2372 21.4816 45.2347 21.4791L46.6489 20.0649ZM45.634 19.5225C45.2495 19.446 44.8509 19.4852 44.4887 19.6353L45.2541 21.483C45.2509 21.4844 45.2473 21.4847 45.2438 21.484L45.634 19.5225ZM44.4887 19.6353C44.1266 19.7853 43.817 20.0393 43.5992 20.3653L45.2621 21.4764C45.2602 21.4794 45.2574 21.4817 45.2541 21.483L44.4887 19.6353ZM43.5992 20.3653C43.3814 20.6913 43.2651 21.0745 43.2651 21.4665H45.2651C45.2651 21.4701 45.2641 21.4735 45.2621 21.4764L43.5992 20.3653ZM43.2651 21.4677C43.2657 21.9929 43.4746 22.4964 43.846 22.8678L45.2602 21.4536C45.2634 21.4567 45.2651 21.4609 45.2651 21.4654L43.2651 21.4677ZM43.846 22.8678C44.2174 23.2392 44.7209 23.4481 45.2461 23.4487L45.2484 21.4487C45.2529 21.4487 45.2571 21.4504 45.2602 21.4536L43.846 22.8678ZM45.2473 21.9754C45.1466 21.9754 45.0482 21.9456 44.9645 21.8897L46.0757 20.2267C45.8305 20.0629 45.5422 19.9754 45.2473 19.9754V21.9754ZM44.9645 21.8897C44.8808 21.8338 44.8156 21.7543 44.7771 21.6613L46.6248 20.8959C46.512 20.6234 46.3209 20.3906 46.0757 20.2267L44.9645 21.8897ZM44.7771 21.6613C44.7386 21.5683 44.7285 21.466 44.7481 21.3672L46.7097 21.7574C46.7672 21.4682 46.7377 21.1684 46.6248 20.8959L44.7771 21.6613ZM44.7481 21.3672C44.7678 21.2685 44.8162 21.1778 44.8874 21.1067L46.3016 22.5209C46.5102 22.3123 46.6522 22.0466 46.7097 21.7574L44.7481 21.3672ZM44.8874 21.1067C44.9586 21.0355 45.0493 20.987 45.148 20.9674L45.5382 22.9289C45.8274 22.8714 46.0931 22.7294 46.3016 22.5209L44.8874 21.1067ZM45.148 20.9674C45.2467 20.9477 45.349 20.9578 45.442 20.9963L44.6767 22.8441C44.9491 22.9569 45.2489 22.9865 45.5382 22.9289L45.148 20.9674ZM45.442 20.9963C45.535 21.0348 45.6145 21.1001 45.6704 21.1838L44.0075 22.2949C44.1713 22.5401 44.4042 22.7312 44.6767 22.8441L45.442 20.9963ZM45.6704 21.1838C45.7264 21.2675 45.7562 21.3659 45.7562 21.4665H43.7562C43.7562 21.7614 43.8437 22.0497 44.0075 22.2949L45.6704 21.1838ZM45.7562 21.4675C45.7561 21.6022 45.7025 21.7313 45.6073 21.8265L44.1931 20.4123C43.9137 20.6917 43.7566 21.0705 43.7562 21.4655L45.7562 21.4675ZM45.6073 21.8265C45.5121 21.9218 45.3829 21.9753 45.2483 21.9754L45.2463 19.9754C44.8512 19.9758 44.4724 20.133 44.1931 20.4123L45.6073 21.8265Z" fill="url(#paint6_linear_146_17282)" mask="url(#path-11-inside-1_146_17282)"/>
<mask id="path-13-inside-2_146_17282" fill="white">
<path d="M54.9414 16.8826C54.8119 16.8826 54.6853 16.921 54.5776 16.9929C54.4699 17.0649 54.386 17.1671 54.3365 17.2868C54.2869 17.4064 54.2739 17.5381 54.2992 17.6651C54.3245 17.7921 54.3868 17.9087 54.4784 18.0003C54.57 18.0919 54.6866 18.1542 54.8136 18.1795C54.9407 18.2048 55.0723 18.1918 55.192 18.1423C55.3116 18.0927 55.4139 18.0088 55.4858 17.9011C55.5577 17.7934 55.5961 17.6668 55.5961 17.5373C55.5959 17.3637 55.5269 17.1973 55.4042 17.0746C55.2814 16.9518 55.115 16.8828 54.9414 16.8826ZM54.9414 17.8647C54.8766 17.8647 54.8133 17.8455 54.7595 17.8095C54.7057 17.7736 54.6637 17.7224 54.6389 17.6626C54.6141 17.6028 54.6077 17.537 54.6203 17.4735C54.6329 17.41 54.6641 17.3516 54.7099 17.3058C54.7557 17.2601 54.814 17.2289 54.8775 17.2162C54.941 17.2036 55.0068 17.2101 55.0667 17.2349C55.1265 17.2596 55.1776 17.3016 55.2136 17.3554C55.2496 17.4093 55.2688 17.4726 55.2688 17.5373C55.2687 17.6241 55.2342 17.7074 55.1728 17.7687C55.1114 17.8301 55.0282 17.8646 54.9414 17.8647Z"/>
</mask>
<path d="M54.9414 16.8826C54.8119 16.8826 54.6853 16.921 54.5776 16.9929C54.4699 17.0649 54.386 17.1671 54.3365 17.2868C54.2869 17.4064 54.2739 17.5381 54.2992 17.6651C54.3245 17.7921 54.3868 17.9087 54.4784 18.0003C54.57 18.0919 54.6866 18.1542 54.8136 18.1795C54.9407 18.2048 55.0723 18.1918 55.192 18.1423C55.3116 18.0927 55.4139 18.0088 55.4858 17.9011C55.5577 17.7934 55.5961 17.6668 55.5961 17.5373C55.5959 17.3637 55.5269 17.1973 55.4042 17.0746C55.2814 16.9518 55.115 16.8828 54.9414 16.8826ZM54.9414 17.8647C54.8766 17.8647 54.8133 17.8455 54.7595 17.8095C54.7057 17.7736 54.6637 17.7224 54.6389 17.6626C54.6141 17.6028 54.6077 17.537 54.6203 17.4735C54.6329 17.41 54.6641 17.3516 54.7099 17.3058C54.7557 17.2601 54.814 17.2289 54.8775 17.2162C54.941 17.2036 55.0068 17.2101 55.0667 17.2349C55.1265 17.2596 55.1776 17.3016 55.2136 17.3554C55.2496 17.4093 55.2688 17.4726 55.2688 17.5373C55.2687 17.6241 55.2342 17.7074 55.1728 17.7687C55.1114 17.8301 55.0282 17.8646 54.9414 17.8647Z" fill="white"/>
<path d="M54.9414 16.8826L54.9425 15.8826H54.9414V16.8826ZM55.5961 17.5373H56.5961L56.5961 17.5362L55.5961 17.5373ZM54.9414 17.8647V18.8647L54.9424 18.8647L54.9414 17.8647ZM55.2688 17.5373L56.2688 17.5383V17.5373H55.2688ZM54.9414 15.8826C54.6141 15.8826 54.2942 15.9796 54.022 16.1614L55.1332 17.8244C55.0764 17.8623 55.0097 17.8826 54.9414 17.8826V15.8826ZM54.022 16.1614C53.7499 16.3433 53.5378 16.6017 53.4126 16.9041L55.2603 17.6694C55.2342 17.7325 55.19 17.7864 55.1332 17.8244L54.022 16.1614ZM53.4126 16.9041C53.2873 17.2064 53.2546 17.5392 53.3184 17.8602L55.28 17.47C55.2933 17.537 55.2865 17.6064 55.2603 17.6694L53.4126 16.9041ZM53.3184 17.8602C53.3823 18.1812 53.5399 18.476 53.7713 18.7074L55.1855 17.2932C55.2338 17.3415 55.2667 17.403 55.28 17.47L53.3184 17.8602ZM53.7713 18.7074C54.0027 18.9388 54.2976 19.0964 54.6186 19.1603L55.0087 17.1987C55.0757 17.212 55.1372 17.2449 55.1855 17.2932L53.7713 18.7074ZM54.6186 19.1603C54.9395 19.2241 55.2723 19.1914 55.5746 19.0661L54.8093 17.2184C54.8724 17.1922 54.9418 17.1854 55.0087 17.1987L54.6186 19.1603ZM55.5746 19.0661C55.877 18.9409 56.1354 18.7288 56.3173 18.4567L54.6543 17.3455C54.6923 17.2888 54.7462 17.2445 54.8093 17.2184L55.5746 19.0661ZM56.3173 18.4567C56.4991 18.1845 56.5961 17.8646 56.5961 17.5373H54.5961C54.5961 17.4691 54.6164 17.4023 54.6543 17.3455L56.3173 18.4567ZM56.5961 17.5362C56.5956 17.0978 56.4213 16.6775 56.1113 16.3675L54.697 17.7817C54.6325 17.7172 54.5962 17.6297 54.5961 17.5385L56.5961 17.5362ZM56.1113 16.3675C55.8013 16.0575 55.3809 15.8831 54.9425 15.8826L54.9402 17.8826C54.849 17.8825 54.7616 17.8462 54.697 17.7817L56.1113 16.3675ZM54.9414 16.8647C55.0744 16.8647 55.2045 16.9042 55.3151 16.9781L54.2039 18.641C54.4222 18.7869 54.6788 18.8647 54.9414 18.8647V16.8647ZM55.3151 16.9781C55.4257 17.052 55.5119 17.157 55.5628 17.2799L53.715 18.0453C53.8155 18.2878 53.9856 18.4952 54.2039 18.641L55.3151 16.9781ZM55.5628 17.2799C55.6137 17.4028 55.627 17.5381 55.6011 17.6686L53.6395 17.2784C53.5883 17.5359 53.6146 17.8028 53.715 18.0453L55.5628 17.2799ZM55.6011 17.6686C55.5751 17.799 55.5111 17.9189 55.417 18.0129L54.0028 16.5987C53.8171 16.7844 53.6907 17.0209 53.6395 17.2784L55.6011 17.6686ZM55.417 18.0129C55.3229 18.107 55.2031 18.1711 55.0726 18.197L54.6824 16.2355C54.4249 16.2867 54.1884 16.4131 54.0028 16.5987L55.417 18.0129ZM55.0726 18.197C54.9421 18.223 54.8069 18.2097 54.684 18.1587L55.4493 16.311C55.2068 16.2105 54.9399 16.1842 54.6824 16.2355L55.0726 18.197ZM54.684 18.1587C54.5611 18.1078 54.456 18.0216 54.3821 17.911L56.0451 16.7999C55.8992 16.5816 55.6919 16.4115 55.4493 16.311L54.684 18.1587ZM54.3821 17.911C54.3082 17.8004 54.2688 17.6703 54.2688 17.5373H56.2688C56.2688 17.2748 56.1909 17.0182 56.0451 16.7999L54.3821 17.911ZM54.2688 17.5363C54.2689 17.3583 54.3398 17.1875 54.4657 17.0616L55.8799 18.4758C56.1286 18.2272 56.2684 17.89 56.2688 17.5383L54.2688 17.5363ZM54.4657 17.0616C54.5916 16.9357 54.7623 16.8649 54.9404 16.8647L54.9424 18.8647C55.294 18.8644 55.6312 18.7245 55.8799 18.4758L54.4657 17.0616Z" fill="url(#paint7_linear_146_17282)" mask="url(#path-13-inside-2_146_17282)"/>
<mask id="path-15-inside-3_146_17282" fill="white">
<path d="M33.9892 15.9004C33.8597 15.9004 33.7331 15.9388 33.6255 16.0107C33.5178 16.0827 33.4339 16.1849 33.3843 16.3046C33.3348 16.4242 33.3218 16.5559 33.3471 16.6829C33.3723 16.8099 33.4347 16.9266 33.5262 17.0181C33.6178 17.1097 33.7345 17.1721 33.8615 17.1973C33.9885 17.2226 34.1202 17.2096 34.2398 17.1601C34.3594 17.1105 34.4617 17.0266 34.5336 16.9189C34.6056 16.8112 34.644 16.6847 34.644 16.5552C34.6438 16.3816 34.5748 16.2151 34.452 16.0924C34.3293 15.9696 34.1628 15.9006 33.9892 15.9004ZM33.9892 16.8825C33.9245 16.8825 33.8612 16.8633 33.8074 16.8274C33.7535 16.7914 33.7116 16.7403 33.6868 16.6804C33.662 16.6206 33.6555 16.5548 33.6681 16.4913C33.6808 16.4278 33.712 16.3694 33.7577 16.3237C33.8035 16.2779 33.8619 16.2467 33.9254 16.2341C33.9889 16.2214 34.0547 16.2279 34.1145 16.2527C34.1743 16.2775 34.2255 16.3194 34.2614 16.3733C34.2974 16.4271 34.3166 16.4904 34.3166 16.5552C34.3165 16.642 34.282 16.7252 34.2206 16.7866C34.1593 16.8479 34.076 16.8824 33.9892 16.8825Z"/>
</mask>
<path d="M33.9892 15.9004C33.8597 15.9004 33.7331 15.9388 33.6255 16.0107C33.5178 16.0827 33.4339 16.1849 33.3843 16.3046C33.3348 16.4242 33.3218 16.5559 33.3471 16.6829C33.3723 16.8099 33.4347 16.9266 33.5262 17.0181C33.6178 17.1097 33.7345 17.1721 33.8615 17.1973C33.9885 17.2226 34.1202 17.2096 34.2398 17.1601C34.3594 17.1105 34.4617 17.0266 34.5336 16.9189C34.6056 16.8112 34.644 16.6847 34.644 16.5552C34.6438 16.3816 34.5748 16.2151 34.452 16.0924C34.3293 15.9696 34.1628 15.9006 33.9892 15.9004ZM33.9892 16.8825C33.9245 16.8825 33.8612 16.8633 33.8074 16.8274C33.7535 16.7914 33.7116 16.7403 33.6868 16.6804C33.662 16.6206 33.6555 16.5548 33.6681 16.4913C33.6808 16.4278 33.712 16.3694 33.7577 16.3237C33.8035 16.2779 33.8619 16.2467 33.9254 16.2341C33.9889 16.2214 34.0547 16.2279 34.1145 16.2527C34.1743 16.2775 34.2255 16.3194 34.2614 16.3733C34.2974 16.4271 34.3166 16.4904 34.3166 16.5552C34.3165 16.642 34.282 16.7252 34.2206 16.7866C34.1593 16.8479 34.076 16.8824 33.9892 16.8825Z" fill="white"/>
<path d="M33.9892 15.9004L33.9904 14.9004H33.9892V15.9004ZM34.644 16.5552H35.644L35.644 16.554L34.644 16.5552ZM33.9892 16.8825V17.8825L33.9902 17.8825L33.9892 16.8825ZM34.3166 16.5552L35.3166 16.5562V16.5552H34.3166ZM33.9892 14.9004C33.662 14.9004 33.342 14.9974 33.0699 15.1793L34.181 16.8422C34.1243 16.8801 34.0575 16.9004 33.9892 16.9004V14.9004ZM33.0699 15.1793C32.7978 15.3611 32.5857 15.6195 32.4604 15.9219L34.3082 16.6873C34.2821 16.7504 34.2378 16.8043 34.181 16.8422L33.0699 15.1793ZM32.4604 15.9219C32.3352 16.2243 32.3024 16.557 32.3663 16.878L34.3278 16.4878C34.3412 16.5548 34.3343 16.6242 34.3082 16.6873L32.4604 15.9219ZM32.3663 16.878C32.4301 17.199 32.5877 17.4938 32.8191 17.7252L34.2334 16.311C34.2816 16.3593 34.3145 16.4208 34.3278 16.4878L32.3663 16.878ZM32.8191 17.7252C33.0506 17.9567 33.3454 18.1143 33.6664 18.1781L34.0566 16.2165C34.1236 16.2299 34.1851 16.2628 34.2334 16.311L32.8191 17.7252ZM33.6664 18.1781C33.9874 18.242 34.3201 18.2092 34.6225 18.084L33.8571 16.2362C33.9202 16.2101 33.9896 16.2032 34.0566 16.2165L33.6664 18.1781ZM34.6225 18.084C34.9249 17.9587 35.1833 17.7466 35.3651 17.4745L33.7022 16.3633C33.7401 16.3066 33.794 16.2623 33.8571 16.2362L34.6225 18.084ZM35.3651 17.4745C35.5469 17.2024 35.644 16.8824 35.644 16.5552H33.644C33.644 16.4869 33.6642 16.4201 33.7022 16.3633L35.3651 17.4745ZM35.644 16.554C35.6435 16.1156 35.4691 15.6953 35.1591 15.3853L33.7449 16.7995C33.6804 16.735 33.6441 16.6475 33.644 16.5563L35.644 16.554ZM35.1591 15.3853C34.8491 15.0753 34.4288 14.9009 33.9904 14.9004L33.9881 16.9004C33.8969 16.9003 33.8094 16.864 33.7449 16.7995L35.1591 15.3853ZM33.9892 15.8825C34.1223 15.8825 34.2523 15.922 34.3629 15.9959L33.2518 17.6588C33.4701 17.8047 33.7267 17.8825 33.9892 17.8825V15.8825ZM34.3629 15.9959C34.4735 16.0698 34.5597 16.1748 34.6107 16.2978L32.7629 17.0631C32.8634 17.3057 33.0335 17.513 33.2518 17.6588L34.3629 15.9959ZM34.6107 16.2978C34.6616 16.4207 34.6749 16.5559 34.6489 16.6864L32.6874 16.2962C32.6361 16.5537 32.6624 16.8206 32.7629 17.0631L34.6107 16.2978ZM34.6489 16.6864C34.623 16.8168 34.5589 16.9367 34.4648 17.0308L33.0506 15.6166C32.865 15.8022 32.7386 16.0387 32.6874 16.2962L34.6489 16.6864ZM34.4648 17.0308C34.3708 17.1248 34.2509 17.1889 34.1205 17.2148L33.7303 15.2533C33.4728 15.3045 33.2363 15.4309 33.0506 15.6166L34.4648 17.0308ZM34.1205 17.2148C33.99 17.2408 33.8547 17.2275 33.7318 17.1766L34.4972 15.3288C34.2547 15.2283 33.9878 15.2021 33.7303 15.2533L34.1205 17.2148ZM33.7318 17.1766C33.6089 17.1257 33.5039 17.0394 33.43 16.9288L35.0929 15.8177C34.9471 15.5994 34.7398 15.4293 34.4972 15.3288L33.7318 17.1766ZM33.43 16.9288C33.3561 16.8182 33.3166 16.6882 33.3166 16.5552H35.3166C35.3166 16.2926 35.2388 16.036 35.0929 15.8177L33.43 16.9288ZM33.3166 16.5542C33.3168 16.3761 33.3876 16.2054 33.5135 16.0794L34.9277 17.4937C35.1764 17.245 35.3163 16.9078 35.3166 16.5562L33.3166 16.5542ZM33.5135 16.0794C33.6394 15.9535 33.8102 15.8827 33.9882 15.8825L33.9902 17.8825C34.3419 17.8822 34.6791 17.7423 34.9277 17.4937L33.5135 16.0794Z" fill="url(#paint8_linear_146_17282)" mask="url(#path-15-inside-3_146_17282)"/>
<mask id="path-17-inside-4_146_17282" fill="white">
<path d="M58.2153 22.7754C58.0858 22.7754 57.9592 22.8138 57.8515 22.8857C57.7439 22.9577 57.6599 23.0599 57.6104 23.1796C57.5608 23.2992 57.5479 23.4309 57.5731 23.5579C57.5984 23.6849 57.6608 23.8016 57.7523 23.8931C57.8439 23.9847 57.9606 24.0471 58.0876 24.0723C58.2146 24.0976 58.3462 24.0846 58.4659 24.0351C58.5855 23.9855 58.6878 23.9016 58.7597 23.7939C58.8317 23.6862 58.8701 23.5597 58.8701 23.4302C58.8699 23.2566 58.8008 23.0901 58.6781 22.9674C58.5553 22.8446 58.3889 22.7756 58.2153 22.7754ZM58.2153 23.7575C58.1506 23.7575 58.0873 23.7383 58.0334 23.7024C57.9796 23.6664 57.9376 23.6153 57.9128 23.5554C57.8881 23.4956 57.8816 23.4298 57.8942 23.3663C57.9069 23.3028 57.938 23.2444 57.9838 23.1987C58.0296 23.1529 58.0879 23.1217 58.1514 23.1091C58.2149 23.0964 58.2808 23.1029 58.3406 23.1277C58.4004 23.1525 58.4515 23.1944 58.4875 23.2483C58.5235 23.3021 58.5427 23.3654 58.5427 23.4302C58.5426 23.517 58.5081 23.6002 58.4467 23.6615C58.3853 23.7229 58.3021 23.7574 58.2153 23.7575Z"/>
</mask>
<path d="M58.2153 22.7754C58.0858 22.7754 57.9592 22.8138 57.8515 22.8857C57.7439 22.9577 57.6599 23.0599 57.6104 23.1796C57.5608 23.2992 57.5479 23.4309 57.5731 23.5579C57.5984 23.6849 57.6608 23.8016 57.7523 23.8931C57.8439 23.9847 57.9606 24.0471 58.0876 24.0723C58.2146 24.0976 58.3462 24.0846 58.4659 24.0351C58.5855 23.9855 58.6878 23.9016 58.7597 23.7939C58.8317 23.6862 58.8701 23.5597 58.8701 23.4302C58.8699 23.2566 58.8008 23.0901 58.6781 22.9674C58.5553 22.8446 58.3889 22.7756 58.2153 22.7754ZM58.2153 23.7575C58.1506 23.7575 58.0873 23.7383 58.0334 23.7024C57.9796 23.6664 57.9376 23.6153 57.9128 23.5554C57.8881 23.4956 57.8816 23.4298 57.8942 23.3663C57.9069 23.3028 57.938 23.2444 57.9838 23.1987C58.0296 23.1529 58.0879 23.1217 58.1514 23.1091C58.2149 23.0964 58.2808 23.1029 58.3406 23.1277C58.4004 23.1525 58.4515 23.1944 58.4875 23.2483C58.5235 23.3021 58.5427 23.3654 58.5427 23.4302C58.5426 23.517 58.5081 23.6002 58.4467 23.6615C58.3853 23.7229 58.3021 23.7574 58.2153 23.7575Z" fill="white"/>
<path d="M58.2153 22.7754L58.2165 21.7754H58.2153V22.7754ZM58.8701 23.4302H59.8701L59.8701 23.429L58.8701 23.4302ZM58.2153 23.7575V24.7575L58.2163 24.7575L58.2153 23.7575ZM58.5427 23.4302L59.5427 23.4312V23.4302H58.5427ZM58.2153 21.7754C57.888 21.7754 57.5681 21.8724 57.296 22.0543L58.4071 23.7172C58.3503 23.7551 58.2836 23.7754 58.2153 23.7754V21.7754ZM57.296 22.0543C57.0238 22.2361 56.8118 22.4945 56.6865 22.7969L58.5343 23.5623C58.5081 23.6254 58.4639 23.6793 58.4071 23.7172L57.296 22.0543ZM56.6865 22.7969C56.5613 23.0993 56.5285 23.432 56.5923 23.753L58.5539 23.3628C58.5672 23.4298 58.5604 23.4992 58.5343 23.5623L56.6865 22.7969ZM56.5923 23.753C56.6562 24.074 56.8138 24.3688 57.0452 24.6002L58.4594 23.186C58.5077 23.2343 58.5406 23.2958 58.5539 23.3628L56.5923 23.753ZM57.0452 24.6002C57.2766 24.8317 57.5715 24.9893 57.8925 25.0531L58.2827 23.0915C58.3496 23.1049 58.4111 23.1378 58.4594 23.186L57.0452 24.6002ZM57.8925 25.0531C58.2135 25.117 58.5462 25.0842 58.8486 24.959L58.0832 23.1112C58.1463 23.0851 58.2157 23.0782 58.2827 23.0915L57.8925 25.0531ZM58.8486 24.959C59.1509 24.8337 59.4094 24.6216 59.5912 24.3495L57.9283 23.2383C57.9662 23.1816 58.0201 23.1373 58.0832 23.1112L58.8486 24.959ZM59.5912 24.3495C59.773 24.0774 59.8701 23.7574 59.8701 23.4302H57.8701C57.8701 23.3619 57.8903 23.2951 57.9283 23.2383L59.5912 24.3495ZM59.8701 23.429C59.8696 22.9906 59.6952 22.5703 59.3852 22.2603L57.971 23.6745C57.9065 23.61 57.8702 23.5225 57.8701 23.4313L59.8701 23.429ZM59.3852 22.2603C59.0752 21.9503 58.6549 21.7759 58.2165 21.7754L58.2142 23.7754C58.1229 23.7753 58.0355 23.739 57.971 23.6745L59.3852 22.2603ZM58.2153 22.7575C58.3483 22.7575 58.4784 22.797 58.589 22.8709L57.4779 24.5338C57.6961 24.6797 57.9528 24.7575 58.2153 24.7575V22.7575ZM58.589 22.8709C58.6996 22.9448 58.7858 23.0498 58.8367 23.1728L56.989 23.9381C57.0894 24.1807 57.2596 24.388 57.4779 24.5338L58.589 22.8709ZM58.8367 23.1728C58.8876 23.2957 58.901 23.4309 58.875 23.5614L56.9134 23.1712C56.8622 23.4287 56.8885 23.6956 56.989 23.9381L58.8367 23.1728ZM58.875 23.5614C58.849 23.6919 58.785 23.8117 58.6909 23.9058L57.2767 22.4916C57.0911 22.6772 56.9647 22.9137 56.9134 23.1712L58.875 23.5614ZM58.6909 23.9058C58.5969 23.9998 58.477 24.0639 58.3465 24.0898L57.9563 22.1283C57.6989 22.1795 57.4623 22.3059 57.2767 22.4916L58.6909 23.9058ZM58.3465 24.0898C58.2161 24.1158 58.0808 24.1025 57.9579 24.0516L58.7233 22.2038C58.4807 22.1033 58.2138 22.0771 57.9563 22.1283L58.3465 24.0898ZM57.9579 24.0516C57.835 24.0007 57.73 23.9145 57.656 23.8038L59.319 22.6927C59.1731 22.4744 58.9658 22.3043 58.7233 22.2038L57.9579 24.0516ZM57.656 23.8038C57.5821 23.6932 57.5427 23.5632 57.5427 23.4302H59.5427C59.5427 23.1676 59.4648 22.911 59.319 22.6927L57.656 23.8038ZM57.5427 23.4292C57.5429 23.2511 57.6137 23.0803 57.7396 22.9544L59.1538 24.3687C59.4025 24.12 59.5423 23.7829 59.5427 23.4312L57.5427 23.4292ZM57.7396 22.9544C57.8655 22.8285 58.0362 22.7577 58.2143 22.7575L58.2163 24.7575C58.568 24.7572 58.9052 24.6173 59.1538 24.3687L57.7396 22.9544Z" fill="url(#paint9_linear_146_17282)" mask="url(#path-17-inside-4_146_17282)"/>
<mask id="path-19-inside-5_146_17282" fill="white">
<path d="M19.5844 33.9062C19.5844 33.7767 19.546 33.6501 19.4741 33.5425C19.4021 33.4348 19.2999 33.3509 19.1802 33.3013C19.0606 33.2517 18.9289 33.2388 18.8019 33.264C18.6749 33.2893 18.5582 33.3517 18.4667 33.4432C18.3751 33.5348 18.3127 33.6515 18.2875 33.7785C18.2622 33.9055 18.2752 34.0372 18.3247 34.1568C18.3743 34.2764 18.4582 34.3787 18.5659 34.4506C18.6736 34.5226 18.8002 34.561 18.9297 34.561C19.1033 34.5608 19.2697 34.4917 19.3924 34.369C19.5152 34.2462 19.5842 34.0798 19.5844 33.9062ZM18.6023 33.9062C18.6023 33.8415 18.6215 33.7782 18.6575 33.7243C18.6934 33.6705 18.7446 33.6285 18.8044 33.6038C18.8642 33.579 18.93 33.5725 18.9935 33.5851C19.057 33.5978 19.1154 33.6289 19.1612 33.6747C19.2069 33.7205 19.2381 33.7789 19.2508 33.8424C19.2634 33.9059 19.2569 33.9717 19.2321 34.0315C19.2073 34.0913 19.1654 34.1425 19.1115 34.1784C19.0577 34.2144 18.9944 34.2336 18.9297 34.2336C18.8429 34.2335 18.7596 34.199 18.6983 34.1376C18.6369 34.0762 18.6024 33.993 18.6023 33.9062Z"/>
</mask>
<path d="M19.5844 33.9062C19.5844 33.7767 19.546 33.6501 19.4741 33.5425C19.4021 33.4348 19.2999 33.3509 19.1802 33.3013C19.0606 33.2517 18.9289 33.2388 18.8019 33.264C18.6749 33.2893 18.5582 33.3517 18.4667 33.4432C18.3751 33.5348 18.3127 33.6515 18.2875 33.7785C18.2622 33.9055 18.2752 34.0372 18.3247 34.1568C18.3743 34.2764 18.4582 34.3787 18.5659 34.4506C18.6736 34.5226 18.8002 34.561 18.9297 34.561C19.1033 34.5608 19.2697 34.4917 19.3924 34.369C19.5152 34.2462 19.5842 34.0798 19.5844 33.9062ZM18.6023 33.9062C18.6023 33.8415 18.6215 33.7782 18.6575 33.7243C18.6934 33.6705 18.7446 33.6285 18.8044 33.6038C18.8642 33.579 18.93 33.5725 18.9935 33.5851C19.057 33.5978 19.1154 33.6289 19.1612 33.6747C19.2069 33.7205 19.2381 33.7789 19.2508 33.8424C19.2634 33.9059 19.2569 33.9717 19.2321 34.0315C19.2073 34.0913 19.1654 34.1425 19.1115 34.1784C19.0577 34.2144 18.9944 34.2336 18.9297 34.2336C18.8429 34.2335 18.7596 34.199 18.6983 34.1376C18.6369 34.0762 18.6024 33.993 18.6023 33.9062Z" fill="white"/>
<path d="M19.5844 33.9062L20.5844 33.9074V33.9062H19.5844ZM18.9297 34.561V35.561L18.9308 35.561L18.9297 34.561ZM18.6023 33.9062H17.6023L17.6023 33.9072L18.6023 33.9062ZM18.9297 34.2336L18.9287 35.2336H18.9297V34.2336ZM20.5844 33.9062C20.5844 33.5789 20.4874 33.259 20.3055 32.9869L18.6426 34.098C18.6047 34.0413 18.5844 33.9745 18.5844 33.9062H20.5844ZM20.3055 32.9869C20.1237 32.7148 19.8653 32.5027 19.5629 32.3774L18.7975 34.2252C18.7345 34.1991 18.6805 34.1548 18.6426 34.098L20.3055 32.9869ZM19.5629 32.3774C19.2605 32.2522 18.9278 32.2194 18.6068 32.2833L18.997 34.2448C18.93 34.2582 18.8606 34.2513 18.7975 34.2252L19.5629 32.3774ZM18.6068 32.2833C18.2858 32.3471 17.991 32.5047 17.7596 32.7361L19.1738 34.1503C19.1255 34.1986 19.064 34.2315 18.997 34.2448L18.6068 32.2833ZM17.7596 32.7361C17.5281 32.9676 17.3705 33.2624 17.3067 33.5834L19.2683 33.9736C19.2549 34.0405 19.2221 34.1021 19.1738 34.1503L17.7596 32.7361ZM17.3067 33.5834C17.2428 33.9044 17.2756 34.2371 17.4009 34.5395L19.2486 33.7741C19.2748 33.8372 19.2816 33.9066 19.2683 33.9736L17.3067 33.5834ZM17.4009 34.5395C17.5261 34.8418 17.7382 35.1003 18.0103 35.2821L19.1215 33.6192C19.1782 33.6571 19.2225 33.711 19.2486 33.7741L17.4009 34.5395ZM18.0103 35.2821C18.2825 35.4639 18.6024 35.561 18.9297 35.561V33.561C18.9979 33.561 19.0647 33.5812 19.1215 33.6192L18.0103 35.2821ZM18.9308 35.561C19.3692 35.5605 19.7895 35.3861 20.0995 35.0761L18.6853 33.6619C18.7498 33.5974 18.8373 33.5611 18.9285 33.561L18.9308 35.561ZM20.0995 35.0761C20.4095 34.7661 20.5839 34.3458 20.5844 33.9074L18.5844 33.9051C18.5845 33.8139 18.6208 33.7264 18.6853 33.6619L20.0995 35.0761ZM19.6023 33.9062C19.6023 34.0393 19.5628 34.1693 19.4889 34.2799L17.826 33.1688C17.6801 33.3871 17.6023 33.6437 17.6023 33.9062H19.6023ZM19.4889 34.2799C19.415 34.3905 19.31 34.4767 19.1871 34.5276L18.4217 32.6799C18.1792 32.7804 17.9718 32.9505 17.826 33.1688L19.4889 34.2799ZM19.1871 34.5276C19.0642 34.5786 18.9289 34.5919 18.7984 34.5659L19.1886 32.6044C18.9311 32.5531 18.6642 32.5794 18.4217 32.6799L19.1871 34.5276ZM18.7984 34.5659C18.668 34.54 18.5481 34.4759 18.4541 34.3818L19.8683 32.9676C19.6826 32.782 19.4461 32.6556 19.1886 32.6044L18.7984 34.5659ZM18.4541 34.3818C18.36 34.2878 18.2959 34.1679 18.27 34.0374L20.2315 33.6473C20.1803 33.3898 20.0539 33.1533 19.8683 32.9676L18.4541 34.3818ZM18.27 34.0374C18.244 33.907 18.2573 33.7717 18.3082 33.6488L20.156 34.4142C20.2565 34.1716 20.2828 33.9048 20.2315 33.6473L18.27 34.0374ZM18.3082 33.6488C18.3592 33.5259 18.4454 33.4209 18.556 33.347L19.6671 35.0099C19.8854 34.864 20.0555 34.6567 20.156 34.4142L18.3082 33.6488ZM18.556 33.347C18.6666 33.2731 18.7966 33.2336 18.9297 33.2336V35.2336C19.1922 35.2336 19.4488 35.1558 19.6671 35.0099L18.556 33.347ZM18.9307 33.2336C19.1087 33.2338 19.2795 33.3046 19.4054 33.4305L17.9912 34.8447C18.2398 35.0934 18.577 35.2333 18.9287 35.2336L18.9307 33.2336ZM19.4054 33.4305C19.5313 33.5564 19.6021 33.7272 19.6023 33.9052L17.6023 33.9072C17.6026 34.2589 17.7425 34.5961 17.9912 34.8447L19.4054 33.4305Z" fill="url(#paint10_linear_146_17282)" mask="url(#path-19-inside-5_146_17282)"/>
<path d="M27.8095 23.0205L28.296 22.3805L27.9886 22.2063L27.6762 22.9233H27.6658L27.3485 22.2112L27.0356 22.3906L27.5175 23.0156V23.0257L26.7642 22.9285V23.2768L27.5224 23.1796V23.1898L27.0356 23.8144L27.3276 23.999L27.6609 23.2768H27.671L27.9784 23.9938L28.3012 23.8095L27.8095 23.1947V23.1845L28.5824 23.2768V22.9285L27.8095 23.031V23.0205Z" fill="white"/>
<path d="M16.892 20.1782L16.6117 20.538L16.78 20.644L16.9718 20.2283H16.9774L17.1545 20.6411L17.3405 20.535L17.0573 20.1808V20.1749L17.5025 20.2283V20.0276L17.0573 20.0865V20.0806L17.3375 19.712L17.1607 19.6118L16.9807 20.0246H16.9748L16.7918 19.6144L16.6117 19.7179L16.8893 20.0777V20.0836L16.4556 20.0276V20.2283L16.892 20.1723V20.1782Z" fill="white"/>
<path d="M66.0725 30.8658V30.5244L65.3139 30.6249V30.6147L65.7913 29.9868L65.4897 29.8159L65.1833 30.5191H65.1732L64.8618 29.8208L64.5551 29.997L65.0275 30.6098V30.62L64.2886 30.5244V30.8658L65.0324 30.7706V30.7807L64.5551 31.3936L64.8415 31.5746L65.1683 30.8658H65.1781L65.4796 31.5694L65.7962 31.3887L65.3139 30.7856V30.7755L66.0725 30.8658Z" fill="white"/>
<path d="M65.8901 17.0744L66.302 16.5326L66.042 16.3853L65.7775 16.9919H65.7687L65.5002 16.3895L65.2354 16.5414L65.6429 17.0701V17.0786L65.0059 16.9965V17.2911L65.6472 17.2086V17.2175L65.2354 17.7462L65.4825 17.9023L65.7644 17.2911H65.7729L66.0332 17.8978L66.3062 17.7419L65.8901 17.2217V17.2129L66.5442 17.2911V16.9965L65.8901 17.0829V17.0744Z" fill="white"/>
<path d="M14.8095 63.8615C14.8095 63.947 14.7402 64.0163 14.6548 64.0163C14.5693 64.0163 14.5 63.947 14.5 63.8615C14.5 63.7761 14.5693 63.7068 14.6548 63.7068C14.7402 63.7068 14.8095 63.7761 14.8095 63.8615Z" fill="white" stroke="url(#paint11_linear_146_17282)"/>
<path d="M16.6191 63.7068H17.6013C17.6423 63.7068 17.6817 63.7231 17.7107 63.7521C17.7397 63.7811 17.756 63.8205 17.756 63.8615C17.756 63.9026 17.7397 63.942 17.7107 63.971L18.0642 64.3245L17.7107 63.971C17.6817 64 17.6423 64.0163 17.6013 64.0163H16.6191C16.5781 64.0163 16.5387 64 16.5097 63.971C16.4807 63.942 16.4644 63.9026 16.4644 63.8615C16.4644 63.8205 16.4807 63.7811 16.5097 63.7521C16.5387 63.7231 16.5781 63.7068 16.6191 63.7068Z" fill="white" stroke="url(#paint12_linear_146_17282)"/>
<path d="M65.3989 63.7068H66.381C66.4221 63.7068 66.4615 63.7231 66.4905 63.7521C66.5195 63.7811 66.5358 63.8205 66.5358 63.8615C66.5358 63.9026 66.5195 63.942 66.4905 63.971C66.4615 64 66.4221 64.0163 66.381 64.0163H65.3989C65.3579 64.0163 65.3185 64 65.2895 63.971C65.2604 63.942 65.2441 63.9026 65.2441 63.8615C65.2441 63.8205 65.2604 63.7811 65.2895 63.7521C65.3185 63.7231 65.3579 63.7068 65.3989 63.7068Z" fill="white" stroke="url(#paint13_linear_146_17282)"/>
<path d="M68.5 63.8615C68.5 63.947 68.4307 64.0163 68.3452 64.0163C68.2597 64.0163 68.1904 63.947 68.1904 63.8615C68.1904 63.7761 68.2597 63.7068 68.3452 63.7068C68.4307 63.7068 68.5 63.7761 68.5 63.8615Z" fill="white" stroke="url(#paint14_linear_146_17282)"/>
<path d="M52.6811 65.8259H49.9613C49.7967 65.8391 49.6431 65.9138 49.5311 66.0352C49.4191 66.1565 49.3569 66.3156 49.3569 66.4807C49.3569 66.6458 49.4191 66.8049 49.5311 66.9262C49.6431 67.0476 49.7967 67.1223 49.9613 67.1355H52.6811C52.8457 67.1223 52.9993 67.0476 53.1113 66.9262C53.2233 66.8049 53.2855 66.6458 53.2855 66.4807C53.2855 66.3156 53.2233 66.1565 53.1113 66.0352C52.9993 65.9138 52.8457 65.8391 52.6811 65.8259Z" fill="white"/>
<path d="M33.0385 65.8259H30.3188C30.1542 65.8391 30.0006 65.9138 29.8886 66.0352C29.7765 66.1565 29.7144 66.3156 29.7144 66.4807C29.7144 66.6458 29.7765 66.8049 29.8886 66.9262C30.0006 67.0476 30.1542 67.1223 30.3188 67.1355H33.0385C33.2031 67.1223 33.3567 67.0476 33.4687 66.9262C33.5808 66.8049 33.6429 66.6458 33.6429 66.4807C33.6429 66.3156 33.5808 66.1565 33.4687 66.0352C33.3567 65.9138 33.2031 65.8391 33.0385 65.8259Z" fill="white"/>
<path d="M48.0479 65.8259H34.9526C34.779 65.8259 34.6124 65.8949 34.4896 66.0177C34.3668 66.1405 34.2979 66.307 34.2979 66.4807C34.2979 66.6543 34.3668 66.8209 34.4896 66.9437C34.6124 67.0665 34.779 67.1355 34.9526 67.1355H40.1711V67.7902H37.5717C37.398 67.7902 37.2315 67.8592 37.1087 67.982C36.9859 68.1048 36.9169 68.2713 36.9169 68.445C36.9169 68.6186 36.9859 68.7852 37.1087 68.908C37.2315 69.0308 37.398 69.0997 37.5717 69.0997H45.7562C45.9298 69.0997 46.0964 69.0308 46.2192 68.908C46.342 68.7852 46.4109 68.6186 46.4109 68.445C46.4109 68.2713 46.342 68.1048 46.2192 67.982C46.0964 67.8592 45.9298 67.7902 45.7562 67.7902H42.8294V67.1355H48.0479C48.2215 67.1355 48.388 67.0665 48.5108 66.9437C48.6336 66.8209 48.7026 66.6543 48.7026 66.4807C48.7026 66.307 48.6336 66.1405 48.5108 66.0177C48.388 65.8949 48.2215 65.8259 48.0479 65.8259Z" fill="white"/>
<mask id="path-32-inside-6_146_17282" fill="white">
<path d="M63.3431 63.207H55.7803L57.6424 58.9498H58.5236C58.6372 58.9497 58.7487 58.9201 58.8474 58.864C58.9461 58.8078 59.0285 58.7269 59.0865 58.6293C59.1445 58.5317 59.1761 58.4207 59.1783 58.3072C59.1804 58.1936 59.153 58.0815 59.0988 57.9818L57.8678 55.7182C58.1347 55.327 58.3798 54.9214 58.602 54.5032L61.4141 56.5338C61.5119 56.6043 61.6273 56.6465 61.7475 56.6556C61.8678 56.6648 61.9882 56.6405 62.0955 56.5856C62.2029 56.5307 62.293 56.4472 62.3559 56.3443C62.4189 56.2415 62.4522 56.1232 62.4522 56.0026C62.4522 56.0026 62.4522 55.5521 62.4456 52.6244C62.4463 51.7293 62.2177 50.849 61.7817 50.0672C61.3457 49.2854 60.7168 48.6283 59.955 48.1584C59.6007 42.3495 55.4714 37.6241 55.4113 37.5566C55.3482 37.4905 55.2723 37.4378 55.1883 37.4019C55.1043 37.3659 55.0138 37.3474 54.9224 37.3474C54.831 37.3474 54.7406 37.3659 54.6566 37.4019C54.5726 37.4378 54.4967 37.4905 54.4336 37.5566C54.3734 37.6241 50.2441 42.3495 49.8899 48.1584C49.128 48.6282 48.4992 49.2853 48.0632 50.067C47.6272 50.8487 47.3986 51.7291 47.3992 52.6241C47.3927 55.5521 47.3927 56.0026 47.3927 56.0026C47.3927 56.1232 47.426 56.2415 47.4889 56.3444C47.5518 56.4472 47.6419 56.5307 47.7493 56.5857C47.8566 56.6406 47.9771 56.6648 48.0973 56.6557C48.2176 56.6465 48.333 56.6043 48.4308 56.5338L51.2429 54.5032C51.465 54.9214 51.7101 55.327 51.9771 55.7182L50.7461 57.9818C50.6918 58.0815 50.6644 58.1936 50.6666 58.3072C50.6688 58.4207 50.7004 58.5317 50.7584 58.6293C50.8164 58.7269 50.8988 58.8078 50.9974 58.864C51.0961 58.9201 51.2077 58.9497 51.3212 58.9498H52.2025L54.0645 63.207H28.9351L30.7972 58.9498H31.6784C31.7919 58.9497 31.9035 58.9201 32.0022 58.864C32.1009 58.8078 32.1832 58.7269 32.2412 58.6293C32.2992 58.5317 32.3309 58.4207 32.333 58.3072C32.3352 58.1936 32.3078 58.0815 32.2535 57.9818L31.0226 55.7182C31.2895 55.327 31.5346 54.9214 31.7567 54.5032L34.5689 56.5338C34.6667 56.6043 34.7821 56.6465 34.9023 56.6556C35.0225 56.6648 35.143 56.6405 35.2503 56.5856C35.3577 56.5307 35.4478 56.4472 35.5107 56.3443C35.5736 56.2415 35.6069 56.1232 35.607 56.0026C35.607 56.0026 35.607 55.5521 35.6004 52.6244C35.601 51.7293 35.3724 50.849 34.9365 50.0672C34.5005 49.2854 33.8716 48.6283 33.1097 48.1584C32.7555 42.3495 28.6262 37.6241 28.566 37.5566C28.5029 37.4905 28.4271 37.4378 28.343 37.4019C28.259 37.3659 28.1686 37.3474 28.0772 37.3474C27.9858 37.3474 27.8954 37.3659 27.8113 37.4019C27.7273 37.4378 27.6515 37.4905 27.5884 37.5566C27.5282 37.6241 23.3989 42.3495 23.0446 48.1584C22.2828 48.6282 21.6539 49.2853 21.218 50.067C20.782 50.8487 20.5534 51.729 20.554 52.6241C20.5474 55.5521 20.5474 56.0026 20.5474 56.0026C20.5474 56.1232 20.5807 56.2415 20.6437 56.3444C20.7066 56.4472 20.7967 56.5307 20.904 56.5857C21.0114 56.6406 21.1318 56.6648 21.2521 56.6557C21.3723 56.6465 21.4877 56.6043 21.5855 56.5338L24.3977 54.5032C24.6198 54.9214 24.8649 55.327 25.1318 55.7182L23.9008 57.9818C23.8466 58.0815 23.8192 58.1936 23.8214 58.3072C23.8235 58.4207 23.8551 58.5317 23.9131 58.6293C23.9711 58.7269 24.0535 58.8078 24.1522 58.864C24.2509 58.9201 24.3625 58.9497 24.476 58.9498H25.3572L27.2193 63.207H19.6565C19.5634 63.1948 19.4687 63.2026 19.3788 63.23C19.289 63.2573 19.2059 63.3035 19.1353 63.3655C19.0647 63.4274 19.0082 63.5038 18.9694 63.5893C18.9307 63.6749 18.9106 63.7678 18.9106 63.8617C18.9106 63.9557 18.9307 64.0485 18.9694 64.1341C19.0082 64.2197 19.0647 64.296 19.1353 64.358C19.2059 64.4199 19.289 64.4661 19.3788 64.4935C19.4687 64.5208 19.5634 64.5286 19.6565 64.5165H63.3431C63.4362 64.5286 63.5309 64.5208 63.6208 64.4935C63.7107 64.4661 63.7937 64.4199 63.8643 64.358C63.9349 64.296 63.9914 64.2197 64.0302 64.1341C64.0689 64.0485 64.089 63.9557 64.089 63.8617C64.089 63.7678 64.0689 63.6749 64.0302 63.5893C63.9914 63.5038 63.9349 63.4274 63.8643 63.3655C63.7937 63.3035 63.7107 63.2573 63.6208 63.23C63.5309 63.2026 63.4362 63.1948 63.3431 63.207ZM59.9488 49.8174C60.3283 50.1798 60.6294 50.616 60.8336 51.0993C61.0379 51.5826 61.1408 52.1027 61.1361 52.6273C61.1382 53.5502 61.1396 54.2269 61.1406 54.7206L59.1614 53.2913C59.6006 52.1806 59.8662 51.0089 59.9488 49.8174ZM54.9178 39.0301C55.3815 39.6424 55.8111 40.2799 56.2046 40.9396H53.6093C54.0091 40.2789 54.446 39.6414 54.9178 39.0301ZM48.7043 54.7206C48.7052 54.2269 48.7067 53.5502 48.7087 52.627C48.7041 52.1024 48.807 51.5824 49.0112 51.0992C49.2155 50.6159 49.5166 50.1797 49.8961 49.8174C49.9786 51.0089 50.2442 52.1806 50.6835 53.2913L48.7043 54.7206ZM52.8789 42.2494H56.9257C58.5756 45.5242 59.9128 50.4256 56.7599 55.0202H53.0847C49.895 50.3796 51.2199 45.507 52.8789 42.2494ZM53.1351 56.3301H56.7098L57.4221 57.6399H52.4228L53.1351 56.3301ZM56.2129 58.9498L54.9224 61.9001L53.632 58.9498H56.2129ZM33.1035 49.8174C33.483 50.1798 33.7842 50.616 33.9884 51.0993C34.1926 51.5826 34.2956 52.1027 34.2909 52.6273C34.293 53.5502 34.2944 54.2269 34.2954 54.7206L32.3161 53.2913C32.7554 52.1806 33.021 51.0089 33.1035 49.8174ZM28.0726 39.0301C28.5363 39.6424 28.9659 40.2799 29.3594 40.9396H26.7641C27.1639 40.2789 27.6007 39.6414 28.0726 39.0301ZM21.859 54.7206C21.86 54.2269 21.8614 53.5502 21.8635 52.627C21.8588 52.1024 21.9618 51.5824 22.166 51.0992C22.3702 50.6159 22.6714 50.1797 23.0508 49.8174C23.1334 51.0089 23.399 52.1806 23.8382 53.2913L21.859 54.7206ZM26.0337 42.2494H30.0804C31.7304 45.5242 33.0675 50.4256 29.9147 55.0202H26.2395C23.0497 50.3796 24.3747 45.507 26.0337 42.2494ZM26.2899 56.3301H29.8645L30.5768 57.6399H25.5776L26.2899 56.3301ZM29.3676 58.9498L28.0772 61.9001L26.7867 58.9498H29.3676Z"/>
</mask>
<path d="M63.3431 63.207H55.7803L57.6424 58.9498H58.5236C58.6372 58.9497 58.7487 58.9201 58.8474 58.864C58.9461 58.8078 59.0285 58.7269 59.0865 58.6293C59.1445 58.5317 59.1761 58.4207 59.1783 58.3072C59.1804 58.1936 59.153 58.0815 59.0988 57.9818L57.8678 55.7182C58.1347 55.327 58.3798 54.9214 58.602 54.5032L61.4141 56.5338C61.5119 56.6043 61.6273 56.6465 61.7475 56.6556C61.8678 56.6648 61.9882 56.6405 62.0955 56.5856C62.2029 56.5307 62.293 56.4472 62.3559 56.3443C62.4189 56.2415 62.4522 56.1232 62.4522 56.0026C62.4522 56.0026 62.4522 55.5521 62.4456 52.6244C62.4463 51.7293 62.2177 50.849 61.7817 50.0672C61.3457 49.2854 60.7168 48.6283 59.955 48.1584C59.6007 42.3495 55.4714 37.6241 55.4113 37.5566C55.3482 37.4905 55.2723 37.4378 55.1883 37.4019C55.1043 37.3659 55.0138 37.3474 54.9224 37.3474C54.831 37.3474 54.7406 37.3659 54.6566 37.4019C54.5726 37.4378 54.4967 37.4905 54.4336 37.5566C54.3734 37.6241 50.2441 42.3495 49.8899 48.1584C49.128 48.6282 48.4992 49.2853 48.0632 50.067C47.6272 50.8487 47.3986 51.7291 47.3992 52.6241C47.3927 55.5521 47.3927 56.0026 47.3927 56.0026C47.3927 56.1232 47.426 56.2415 47.4889 56.3444C47.5518 56.4472 47.6419 56.5307 47.7493 56.5857C47.8566 56.6406 47.9771 56.6648 48.0973 56.6557C48.2176 56.6465 48.333 56.6043 48.4308 56.5338L51.2429 54.5032C51.465 54.9214 51.7101 55.327 51.9771 55.7182L50.7461 57.9818C50.6918 58.0815 50.6644 58.1936 50.6666 58.3072C50.6688 58.4207 50.7004 58.5317 50.7584 58.6293C50.8164 58.7269 50.8988 58.8078 50.9974 58.864C51.0961 58.9201 51.2077 58.9497 51.3212 58.9498H52.2025L54.0645 63.207H28.9351L30.7972 58.9498H31.6784C31.7919 58.9497 31.9035 58.9201 32.0022 58.864C32.1009 58.8078 32.1832 58.7269 32.2412 58.6293C32.2992 58.5317 32.3309 58.4207 32.333 58.3072C32.3352 58.1936 32.3078 58.0815 32.2535 57.9818L31.0226 55.7182C31.2895 55.327 31.5346 54.9214 31.7567 54.5032L34.5689 56.5338C34.6667 56.6043 34.7821 56.6465 34.9023 56.6556C35.0225 56.6648 35.143 56.6405 35.2503 56.5856C35.3577 56.5307 35.4478 56.4472 35.5107 56.3443C35.5736 56.2415 35.6069 56.1232 35.607 56.0026C35.607 56.0026 35.607 55.5521 35.6004 52.6244C35.601 51.7293 35.3724 50.849 34.9365 50.0672C34.5005 49.2854 33.8716 48.6283 33.1097 48.1584C32.7555 42.3495 28.6262 37.6241 28.566 37.5566C28.5029 37.4905 28.4271 37.4378 28.343 37.4019C28.259 37.3659 28.1686 37.3474 28.0772 37.3474C27.9858 37.3474 27.8954 37.3659 27.8113 37.4019C27.7273 37.4378 27.6515 37.4905 27.5884 37.5566C27.5282 37.6241 23.3989 42.3495 23.0446 48.1584C22.2828 48.6282 21.6539 49.2853 21.218 50.067C20.782 50.8487 20.5534 51.729 20.554 52.6241C20.5474 55.5521 20.5474 56.0026 20.5474 56.0026C20.5474 56.1232 20.5807 56.2415 20.6437 56.3444C20.7066 56.4472 20.7967 56.5307 20.904 56.5857C21.0114 56.6406 21.1318 56.6648 21.2521 56.6557C21.3723 56.6465 21.4877 56.6043 21.5855 56.5338L24.3977 54.5032C24.6198 54.9214 24.8649 55.327 25.1318 55.7182L23.9008 57.9818C23.8466 58.0815 23.8192 58.1936 23.8214 58.3072C23.8235 58.4207 23.8551 58.5317 23.9131 58.6293C23.9711 58.7269 24.0535 58.8078 24.1522 58.864C24.2509 58.9201 24.3625 58.9497 24.476 58.9498H25.3572L27.2193 63.207H19.6565C19.5634 63.1948 19.4687 63.2026 19.3788 63.23C19.289 63.2573 19.2059 63.3035 19.1353 63.3655C19.0647 63.4274 19.0082 63.5038 18.9694 63.5893C18.9307 63.6749 18.9106 63.7678 18.9106 63.8617C18.9106 63.9557 18.9307 64.0485 18.9694 64.1341C19.0082 64.2197 19.0647 64.296 19.1353 64.358C19.2059 64.4199 19.289 64.4661 19.3788 64.4935C19.4687 64.5208 19.5634 64.5286 19.6565 64.5165H63.3431C63.4362 64.5286 63.5309 64.5208 63.6208 64.4935C63.7107 64.4661 63.7937 64.4199 63.8643 64.358C63.9349 64.296 63.9914 64.2197 64.0302 64.1341C64.0689 64.0485 64.089 63.9557 64.089 63.8617C64.089 63.7678 64.0689 63.6749 64.0302 63.5893C63.9914 63.5038 63.9349 63.4274 63.8643 63.3655C63.7937 63.3035 63.7107 63.2573 63.6208 63.23C63.5309 63.2026 63.4362 63.1948 63.3431 63.207ZM59.9488 49.8174C60.3283 50.1798 60.6294 50.616 60.8336 51.0993C61.0379 51.5826 61.1408 52.1027 61.1361 52.6273C61.1382 53.5502 61.1396 54.2269 61.1406 54.7206L59.1614 53.2913C59.6006 52.1806 59.8662 51.0089 59.9488 49.8174ZM54.9178 39.0301C55.3815 39.6424 55.8111 40.2799 56.2046 40.9396H53.6093C54.0091 40.2789 54.446 39.6414 54.9178 39.0301ZM48.7043 54.7206C48.7052 54.2269 48.7067 53.5502 48.7087 52.627C48.7041 52.1024 48.807 51.5824 49.0112 51.0992C49.2155 50.6159 49.5166 50.1797 49.8961 49.8174C49.9786 51.0089 50.2442 52.1806 50.6835 53.2913L48.7043 54.7206ZM52.8789 42.2494H56.9257C58.5756 45.5242 59.9128 50.4256 56.7599 55.0202H53.0847C49.895 50.3796 51.2199 45.507 52.8789 42.2494ZM53.1351 56.3301H56.7098L57.4221 57.6399H52.4228L53.1351 56.3301ZM56.2129 58.9498L54.9224 61.9001L53.632 58.9498H56.2129ZM33.1035 49.8174C33.483 50.1798 33.7842 50.616 33.9884 51.0993C34.1926 51.5826 34.2956 52.1027 34.2909 52.6273C34.293 53.5502 34.2944 54.2269 34.2954 54.7206L32.3161 53.2913C32.7554 52.1806 33.021 51.0089 33.1035 49.8174ZM28.0726 39.0301C28.5363 39.6424 28.9659 40.2799 29.3594 40.9396H26.7641C27.1639 40.2789 27.6007 39.6414 28.0726 39.0301ZM21.859 54.7206C21.86 54.2269 21.8614 53.5502 21.8635 52.627C21.8588 52.1024 21.9618 51.5824 22.166 51.0992C22.3702 50.6159 22.6714 50.1797 23.0508 49.8174C23.1334 51.0089 23.399 52.1806 23.8382 53.2913L21.859 54.7206ZM26.0337 42.2494H30.0804C31.7304 45.5242 33.0675 50.4256 29.9147 55.0202H26.2395C23.0497 50.3796 24.3747 45.507 26.0337 42.2494ZM26.2899 56.3301H29.8645L30.5768 57.6399H25.5776L26.2899 56.3301ZM29.3676 58.9498L28.0772 61.9001L26.7867 58.9498H29.3676Z" fill="white" stroke="url(#paint15_linear_146_17282)" stroke-width="2" mask="url(#path-32-inside-6_146_17282)"/>
</g>
<defs>
<linearGradient id="paint0_linear_146_17282" x1="42" y1="0" x2="42" y2="84" gradientUnits="userSpaceOnUse">
<stop stop-color="#A6F4D4"/>
<stop offset="1" stop-color="#AAF2E0"/>
</linearGradient>
<linearGradient id="paint1_linear_146_17282" x1="41.5" y1="22.2842" x2="41.5" y2="49.1258" gradientUnits="userSpaceOnUse">
<stop stop-color="#A6F4D4"/>
<stop offset="1" stop-color="#AAF2E0"/>
</linearGradient>
<linearGradient id="paint2_linear_146_17282" x1="44.1191" y1="48.4712" x2="44.1191" y2="57.6399" gradientUnits="userSpaceOnUse">
<stop stop-color="#A6F4D4"/>
<stop offset="1" stop-color="#AAF2E0"/>
</linearGradient>
<linearGradient id="paint3_linear_146_17282" x1="38.8808" y1="48.4712" x2="38.8808" y2="57.6399" gradientUnits="userSpaceOnUse">
<stop stop-color="#A6F4D4"/>
<stop offset="1" stop-color="#AAF2E0"/>
</linearGradient>
<linearGradient id="paint4_linear_146_17282" x1="26.768" y1="26.6951" x2="26.768" y2="32.9167" gradientUnits="userSpaceOnUse">
<stop stop-color="#A6F4D4"/>
<stop offset="1" stop-color="#AAF2E0"/>
</linearGradient>
<linearGradient id="paint5_linear_146_17282" x1="56.2323" y1="26.6951" x2="56.2323" y2="32.9167" gradientUnits="userSpaceOnUse">
<stop stop-color="#A6F4D4"/>
<stop offset="1" stop-color="#AAF2E0"/>
</linearGradient>
<linearGradient id="paint6_linear_146_17282" x1="45.2473" y1="20.4844" x2="45.2473" y2="22.4487" gradientUnits="userSpaceOnUse">
<stop stop-color="#A6F4D4"/>
<stop offset="1" stop-color="#AAF2E0"/>
</linearGradient>
<linearGradient id="paint7_linear_146_17282" x1="54.9414" y1="16.8826" x2="54.9414" y2="18.1921" gradientUnits="userSpaceOnUse">
<stop stop-color="#A6F4D4"/>
<stop offset="1" stop-color="#AAF2E0"/>
</linearGradient>
<linearGradient id="paint8_linear_146_17282" x1="33.9892" y1="15.9004" x2="33.9892" y2="17.2099" gradientUnits="userSpaceOnUse">
<stop stop-color="#A6F4D4"/>
<stop offset="1" stop-color="#AAF2E0"/>
</linearGradient>
<linearGradient id="paint9_linear_146_17282" x1="58.2153" y1="22.7754" x2="58.2153" y2="24.0849" gradientUnits="userSpaceOnUse">
<stop stop-color="#A6F4D4"/>
<stop offset="1" stop-color="#AAF2E0"/>
</linearGradient>
<linearGradient id="paint10_linear_146_17282" x1="18.9297" y1="33.2515" x2="18.9297" y2="34.561" gradientUnits="userSpaceOnUse">
<stop stop-color="#A6F4D4"/>
<stop offset="1" stop-color="#AAF2E0"/>
</linearGradient>
<linearGradient id="paint11_linear_146_17282" x1="14.6548" y1="63.2068" x2="14.6548" y2="64.5163" gradientUnits="userSpaceOnUse">
<stop stop-color="#A6F4D4"/>
<stop offset="1" stop-color="#AAF2E0"/>
</linearGradient>
<linearGradient id="paint12_linear_146_17282" x1="17.1102" y1="63.2068" x2="17.1102" y2="64.5163" gradientUnits="userSpaceOnUse">
<stop stop-color="#A6F4D4"/>
<stop offset="1" stop-color="#AAF2E0"/>
</linearGradient>
<linearGradient id="paint13_linear_146_17282" x1="65.89" y1="63.2068" x2="65.89" y2="64.5163" gradientUnits="userSpaceOnUse">
<stop stop-color="#A6F4D4"/>
<stop offset="1" stop-color="#AAF2E0"/>
</linearGradient>
<linearGradient id="paint14_linear_146_17282" x1="68.3452" y1="63.2068" x2="68.3452" y2="64.5163" gradientUnits="userSpaceOnUse">
<stop stop-color="#A6F4D4"/>
<stop offset="1" stop-color="#AAF2E0"/>
</linearGradient>
<linearGradient id="paint15_linear_146_17282" x1="41.4998" y1="37.3474" x2="41.4998" y2="64.522" gradientUnits="userSpaceOnUse">
<stop stop-color="#A6F4D4"/>
<stop offset="1" stop-color="#AAF2E0"/>
</linearGradient>
<clipPath id="clip0_146_17282">
<rect width="55" height="55" fill="white" transform="translate(14 15)"/>
</clipPath>
</defs>
</svg>
