<svg width="84" height="84" viewBox="0 0 84 84" fill="none" xmlns="http://www.w3.org/2000/svg">
<rect x="0.5" y="0.5" width="83" height="83" rx="19.5" stroke="url(#paint0_linear_146_17154)"/>
<path d="M60.4874 57.6068H56.732V57.2973H57.0451L57.1008 56.8605C57.2336 55.8181 57.7089 54.8494 58.4519 54.1064C59.1949 53.3634 60.1636 52.8881 61.2059 52.7553L61.6427 52.6996V52.2593V37.1085V36.6682L61.2059 36.6125C60.1636 36.4797 59.1948 36.0044 58.4518 35.2614C57.7088 34.5184 57.2336 33.5497 57.1008 32.5073L57.0451 32.0705H56.6048H52.9035C52.9824 31.973 53.0537 31.8695 53.1168 31.761H60.4876C60.8759 31.7615 61.2481 31.9159 61.5227 32.1905C61.7973 32.4651 61.9518 32.8375 61.9522 33.2259V56.142C61.9518 56.5303 61.7973 56.9027 61.5227 57.1773C61.2481 57.4519 60.8757 57.6064 60.4874 57.6068ZM61.6427 56.1431V56.1425V53.5825V52.99L61.0586 53.0897C60.1537 53.2441 59.3192 53.6756 58.6701 54.3247C58.0211 54.9738 57.5896 55.8083 57.4351 56.7132L57.3355 57.2973H57.928H60.4879H60.4885C60.7945 57.2969 61.0879 57.1752 61.3042 56.9588L60.9507 56.6053L61.3042 56.9588C61.5206 56.7424 61.6423 56.4491 61.6427 56.1431ZM61.0586 36.2781L61.6427 36.3778V35.7853V33.2253V33.2247C61.6423 32.9187 61.5206 32.6254 61.3042 32.409C61.0879 32.1926 60.7945 32.0709 60.4885 32.0705H60.4879H57.928H57.3355L57.4351 32.6546C57.5896 33.5595 58.0211 34.394 58.6701 35.0431C59.3192 35.6922 60.1537 36.1237 61.0586 36.2781Z" fill="white" stroke="url(#paint1_linear_146_17154)"/>
<path d="M34.625 34.643C34.7986 34.643 34.9652 34.574 35.088 34.4512C35.2107 34.3284 35.2797 34.1619 35.2797 33.9882V31.5311L37.244 32.1811V35.2978C37.2444 35.6449 37.3825 35.9778 37.628 36.2233C37.8735 36.4688 38.2064 36.6069 38.5536 36.6073H47.0655C47.4127 36.6069 47.7455 36.4688 47.991 36.2233C48.2365 35.9778 48.3746 35.6449 48.375 35.2978V32.1816L51.1999 31.2465C51.3316 31.2028 51.4461 31.1185 51.5268 31.0056C51.6075 30.8927 51.6502 30.7571 51.6488 30.6183C51.6474 30.4796 51.602 30.3448 51.5191 30.2336C51.4361 30.1223 51.32 30.0403 51.1874 29.9993L43.0045 27.4697C42.8785 27.4307 42.7437 27.4307 42.6177 27.4697L34.4316 29.9993C34.299 30.0402 34.1828 30.1222 34.0999 30.2335C34.017 30.3448 33.9716 30.4795 33.9702 30.6182C33.9701 30.6316 33.9754 30.6436 33.976 30.6568C33.9743 30.6761 33.9702 30.6946 33.9702 30.7143V33.9882C33.9702 34.1618 34.0392 34.3284 34.162 34.4512C34.2848 34.574 34.4513 34.643 34.625 34.643ZM47.0655 35.2977H38.5536V32.6144L42.6055 33.9551C42.7392 33.9992 42.8834 33.9992 43.017 33.9551L47.0655 32.615V35.2977ZM42.8111 28.7805L48.8459 30.6461L42.8111 32.6438L36.7737 30.6461L42.8111 28.7805Z" fill="white"/>
<path d="M21.3574 52.2593V52.6996L21.7942 52.7553C22.8365 52.8881 23.8052 53.3634 24.5482 54.1064C25.2912 54.8494 25.7664 55.8181 25.8993 56.8605L25.9549 57.2973H26.3953H43.9467V57.6068H22.5127C22.1243 57.6064 21.752 57.4519 21.4774 57.1773L21.1238 57.5309L21.4774 57.1773C21.2028 56.9027 21.0483 56.5305 21.0479 56.1422V33.2256C21.0483 32.8373 21.2028 32.4651 21.4774 32.1905C21.7519 31.9159 22.1242 31.7615 22.5124 31.761H32.1609V32.0705H26.3953H25.9549L25.8993 32.5073C25.7664 33.5497 25.2912 34.5184 24.5482 35.2614C23.8052 36.0044 22.8365 36.4797 21.7942 36.6125L21.3574 36.6682V37.1085V52.2593ZM21.3574 33.2247V33.2253V35.7853V36.3778L21.9415 36.2781C22.8463 36.1237 23.6809 35.6922 24.3299 35.0431C24.979 34.3941 25.4105 33.5595 25.5649 32.6547L25.6646 32.0706H25.072L22.5121 32.0706L22.5116 32.0706C22.2056 32.0709 21.9122 32.1926 21.6958 32.409L22.0494 32.7625L21.6958 32.409C21.4794 32.6254 21.3577 32.9187 21.3574 33.2247ZM22.5116 57.2973H22.5121H25.072H25.6646L25.5649 56.7132C25.4105 55.8083 24.979 54.9738 24.3299 54.3247C23.6809 53.6756 22.8463 53.2441 21.9415 53.0897L21.3574 52.99V53.5825L21.3574 56.1425L21.3574 56.1431C21.3577 56.4491 21.4794 56.7425 21.6958 56.9588C21.9122 57.1752 22.2056 57.2969 22.5116 57.2973Z" fill="white" stroke="url(#paint2_linear_146_17154)"/>
<path d="M23.7118 48.3946C23.6828 48.3656 23.6665 48.3262 23.6665 48.2852V48.2851C23.6665 48.2441 23.6828 48.2047 23.7118 48.1757C23.7409 48.1467 23.7802 48.1304 23.8213 48.1304C23.8213 48.1304 23.8213 48.1304 23.8213 48.1304H40.0007C40.0418 48.1304 40.0811 48.1467 40.1102 48.1757C40.1392 48.2047 40.1555 48.2441 40.1555 48.2851C40.1555 48.3262 40.1392 48.3656 40.1102 48.3946C40.0811 48.4236 40.0418 48.4399 40.0007 48.4399H23.8213C23.8213 48.4399 23.8213 48.4399 23.8213 48.4399C23.7802 48.4399 23.7409 48.4236 23.7118 48.3946Z" fill="white" stroke="url(#paint3_linear_146_17154)"/>
<path d="M23.8213 51.5591H40.1903C40.364 51.5591 40.5305 51.4901 40.6533 51.3673C40.7761 51.2445 40.8451 51.0779 40.8451 50.9043C40.8451 50.7306 40.7761 50.5641 40.6533 50.4413C40.5305 50.3185 40.364 50.2495 40.1903 50.2495H23.8213C23.6476 50.2495 23.4811 50.3185 23.3583 50.4413C23.2355 50.5641 23.1665 50.7306 23.1665 50.9043C23.1665 51.0779 23.2355 51.2445 23.3583 51.3673C23.4811 51.4901 23.6476 51.5591 23.8213 51.5591Z" fill="white"/>
<path d="M29.49 42.3921V41.0825C29.4905 40.7362 29.3535 40.4038 29.1092 40.1582C28.8649 39.9127 28.5332 39.7742 28.1869 39.7729H26.1068C25.7605 39.7742 25.4288 39.9127 25.1845 40.1582C24.9402 40.4038 24.8032 40.7362 24.8037 41.0825V45.6659C24.8037 45.8396 24.8727 46.0061 24.9955 46.1289C25.1183 46.2517 25.2848 46.3207 25.4585 46.3207C25.6321 46.3207 25.7987 46.2517 25.9215 46.1289C26.0443 46.0061 26.1132 45.8396 26.1132 45.6659L26.1104 43.7016H28.1869C28.5332 43.7004 28.8649 43.5618 29.1092 43.3163C29.3535 43.0708 29.4905 42.7384 29.49 42.3921ZM26.1088 42.3921L26.1068 41.0825H28.1805L28.1869 42.3921H26.1088Z" fill="white"/>
<path d="M37.2632 46.3207C37.955 46.3174 38.6173 46.0397 39.1047 45.5487C39.5921 45.0577 39.8648 44.3934 39.8631 43.7016V42.3921C39.8648 41.7002 39.5921 41.0359 39.1047 40.5449C38.6173 40.0539 37.955 39.7763 37.2632 39.7729H35.9668C35.7931 39.773 35.6266 39.8419 35.5038 39.9647C35.381 40.0875 35.312 40.2541 35.312 40.4277V45.6659C35.312 45.8396 35.381 46.0061 35.5038 46.1289C35.6266 46.2517 35.7931 46.3207 35.9668 46.3207L37.2632 46.3207ZM36.6215 41.0825H37.2632C37.6078 41.0855 37.9372 41.225 38.1791 41.4705C38.421 41.716 38.5557 42.0474 38.5535 42.3921V43.7016C38.5557 44.0462 38.421 44.3777 38.1791 44.6231C37.9372 44.8686 37.6078 45.0082 37.2632 45.0112H36.6215V41.0825Z" fill="white"/>
<path d="M31.435 43.2016H30.935V43.7016V45.6659C30.935 45.707 30.9187 45.7463 30.8897 45.7754C30.8607 45.8044 30.8213 45.8207 30.7803 45.8207C30.7392 45.8207 30.6998 45.8044 30.6708 45.7754C30.6418 45.7463 30.6255 45.707 30.6255 45.6659V40.4277C30.6255 40.3867 30.6418 40.3473 30.6708 40.3183C30.6998 40.2893 30.7392 40.2729 30.7803 40.2729C30.8213 40.2729 30.8607 40.2893 30.8897 40.3183C30.9187 40.3473 30.935 40.3867 30.935 40.4277V42.392V42.892H31.435H32.7186H33.2186V42.392V40.4277C33.2186 40.3867 33.2349 40.3473 33.264 40.3183C33.293 40.2893 33.3324 40.2729 33.3734 40.2729C33.4144 40.2729 33.4538 40.2893 33.4828 40.3183C33.5119 40.3473 33.5282 40.3867 33.5282 40.4277V45.6659C33.5282 45.707 33.5119 45.7463 33.4828 45.7754C33.4538 45.8044 33.4144 45.8207 33.3734 45.8207C33.3324 45.8207 33.293 45.8044 33.264 45.7754C33.2349 45.7463 33.2186 45.707 33.2186 45.6659V43.7016V43.2016H32.7186H31.435Z" fill="white" stroke="url(#paint4_linear_146_17154)"/>
<path d="M50.3394 41.6292C49.3034 41.6291 48.2906 41.9363 47.4292 42.5119C46.5677 43.0875 45.8963 43.9055 45.4998 44.8627C45.1034 45.8199 44.9996 46.8731 45.2017 47.8892C45.4038 48.9053 45.9027 49.8387 46.6353 50.5713C47.3678 51.3039 48.3012 51.8028 49.3173 52.0049C50.3334 52.207 51.3867 52.1033 52.3438 51.7069C53.301 51.3104 54.1191 50.639 54.6947 49.7776C55.2703 48.9161 55.5775 47.9034 55.5775 46.8674C55.5759 45.4786 55.0236 44.1472 54.0416 43.1652C53.0596 42.1832 51.7282 41.6308 50.3394 41.6292ZM50.3394 50.796C49.5624 50.796 48.8028 50.5656 48.1567 50.134C47.5107 49.7023 47.0071 49.0887 46.7097 48.3709C46.4124 47.653 46.3346 46.8631 46.4861 46.101C46.6377 45.3389 47.0119 44.6389 47.5613 44.0894C48.1107 43.54 48.8108 43.1658 49.5728 43.0142C50.3349 42.8626 51.1249 42.9404 51.8427 43.2377C52.5606 43.5351 53.1742 44.0386 53.6059 44.6847C54.0376 45.3308 54.268 46.0903 54.268 46.8674C54.2668 47.9089 53.8526 48.9075 53.1161 49.644C52.3796 50.3806 51.381 50.7948 50.3394 50.796Z" fill="white"/>
<mask id="path-11-inside-1_146_17154" fill="white">
<path d="M41.0373 19.9753C41.2316 19.9753 41.4215 19.9177 41.583 19.8098C41.7445 19.7018 41.8704 19.5484 41.9447 19.369C42.019 19.1895 42.0385 18.992 42.0006 18.8015C41.9627 18.611 41.8692 18.436 41.7318 18.2986C41.5944 18.1613 41.4194 18.0678 41.2289 18.0299C41.0384 17.992 40.8409 18.0114 40.6615 18.0857C40.482 18.1601 40.3286 18.286 40.2207 18.4475C40.1128 18.609 40.0552 18.7989 40.0552 18.9931C40.0555 19.2535 40.159 19.5032 40.3432 19.6873C40.5273 19.8714 40.7769 19.975 41.0373 19.9753ZM41.0373 18.5021C41.1344 18.5021 41.2294 18.5309 41.3101 18.5848C41.3909 18.6388 41.4538 18.7155 41.491 18.8052C41.5282 18.8949 41.5379 18.9937 41.519 19.0889C41.5 19.1842 41.4532 19.2717 41.3846 19.3404C41.3159 19.409 41.2284 19.4558 41.1331 19.4748C41.0379 19.4937 40.9391 19.484 40.8494 19.4468C40.7597 19.4097 40.683 19.3467 40.629 19.266C40.575 19.1852 40.5462 19.0903 40.5462 18.9931C40.5464 18.8629 40.5982 18.7381 40.6902 18.646C40.7823 18.554 40.9071 18.5022 41.0373 18.5021Z"/>
</mask>
<path d="M41.0373 19.9753C41.2316 19.9753 41.4215 19.9177 41.583 19.8098C41.7445 19.7018 41.8704 19.5484 41.9447 19.369C42.019 19.1895 42.0385 18.992 42.0006 18.8015C41.9627 18.611 41.8692 18.436 41.7318 18.2986C41.5944 18.1613 41.4194 18.0678 41.2289 18.0299C41.0384 17.992 40.8409 18.0114 40.6615 18.0857C40.482 18.1601 40.3286 18.286 40.2207 18.4475C40.1128 18.609 40.0552 18.7989 40.0552 18.9931C40.0555 19.2535 40.159 19.5032 40.3432 19.6873C40.5273 19.8714 40.7769 19.975 41.0373 19.9753ZM41.0373 18.5021C41.1344 18.5021 41.2294 18.5309 41.3101 18.5848C41.3909 18.6388 41.4538 18.7155 41.491 18.8052C41.5282 18.8949 41.5379 18.9937 41.519 19.0889C41.5 19.1842 41.4532 19.2717 41.3846 19.3404C41.3159 19.409 41.2284 19.4558 41.1331 19.4748C41.0379 19.4937 40.9391 19.484 40.8494 19.4468C40.7597 19.4097 40.683 19.3467 40.629 19.266C40.575 19.1852 40.5462 19.0903 40.5462 18.9931C40.5464 18.8629 40.5982 18.7381 40.6902 18.646C40.7823 18.554 40.9071 18.5022 41.0373 18.5021Z" fill="white"/>
<path d="M41.0373 19.9753L41.0362 20.9753H41.0373V19.9753ZM40.0552 18.9931H39.0552L39.0552 18.9943L40.0552 18.9931ZM41.0373 18.5021V17.5021L41.0363 17.5021L41.0373 18.5021ZM40.5462 18.9931L39.5462 18.9921V18.9931H40.5462ZM41.0373 20.9753C41.4294 20.9753 41.8126 20.859 42.1385 20.6412L41.0274 18.9783C41.0303 18.9763 41.0338 18.9753 41.0373 18.9753V20.9753ZM42.1385 20.6412C42.4645 20.4234 42.7186 20.1139 42.8686 19.7517L41.0208 18.9863C41.0222 18.983 41.0245 18.9802 41.0274 18.9783L42.1385 20.6412ZM42.8686 19.7517C43.0186 19.3895 43.0579 18.9909 42.9814 18.6064L41.0198 18.9966C41.0191 18.9932 41.0195 18.9896 41.0208 18.9863L42.8686 19.7517ZM42.9814 18.6064C42.9049 18.2219 42.7161 17.8687 42.4389 17.5915L41.0247 19.0058C41.0222 19.0033 41.0205 19.0001 41.0198 18.9966L42.9814 18.6064ZM42.4389 17.5915C42.1617 17.3143 41.8085 17.1256 41.424 17.0491L41.0338 19.0106C41.0304 19.01 41.0272 19.0083 41.0247 19.0058L42.4389 17.5915ZM41.424 17.0491C41.0395 16.9726 40.641 17.0118 40.2788 17.1619L41.0442 19.0096C41.0409 19.011 41.0373 19.0113 41.0338 19.0106L41.424 17.0491ZM40.2788 17.1619C39.9166 17.3119 39.607 17.566 39.3892 17.8919L41.0522 19.0031C41.0502 19.006 41.0474 19.0083 41.0442 19.0096L40.2788 17.1619ZM39.3892 17.8919C39.1714 18.2179 39.0552 18.6011 39.0552 18.9931H41.0552C41.0552 18.9967 41.0541 19.0001 41.0522 19.0031L39.3892 17.8919ZM39.0552 18.9943C39.0558 19.5195 39.2647 20.023 39.6361 20.3944L41.0503 18.9802C41.0534 18.9833 41.0552 18.9876 41.0552 18.992L39.0552 18.9943ZM39.6361 20.3944C40.0074 20.7658 40.511 20.9747 41.0362 20.9753L41.0385 18.9753C41.0429 18.9753 41.0471 18.977 41.0503 18.9802L39.6361 20.3944ZM41.0373 19.5021C40.9367 19.5021 40.8383 19.4722 40.7546 19.4163L41.8657 17.7533C41.6205 17.5895 41.3322 17.5021 41.0373 17.5021V19.5021ZM40.7546 19.4163C40.6709 19.3604 40.6057 19.2809 40.5671 19.1879L42.4149 18.4225C42.302 18.1501 42.1109 17.9172 41.8657 17.7533L40.7546 19.4163ZM40.5671 19.1879C40.5286 19.0949 40.5185 18.9926 40.5382 18.8938L42.4997 19.284C42.5573 18.9948 42.5277 18.695 42.4149 18.4225L40.5671 19.1879ZM40.5382 18.8938C40.5578 18.7951 40.6063 18.7044 40.6775 18.6333L42.0917 20.0475C42.3002 19.8389 42.4422 19.5733 42.4997 19.284L40.5382 18.8938ZM40.6775 18.6333C40.7486 18.5621 40.8393 18.5136 40.938 18.494L41.3282 20.4556C41.6174 20.398 41.8831 20.256 42.0917 20.0475L40.6775 18.6333ZM40.938 18.494C41.0368 18.4743 41.1391 18.4844 41.2321 18.5229L40.4667 20.3707C40.7392 20.4836 41.039 20.5131 41.3282 20.4556L40.938 18.494ZM41.2321 18.5229C41.3251 18.5615 41.4046 18.6267 41.4605 18.7104L39.7975 19.8215C39.9614 20.0667 40.1943 20.2578 40.4667 20.3707L41.2321 18.5229ZM41.4605 18.7104C41.5164 18.7941 41.5462 18.8925 41.5462 18.9931H39.5462C39.5462 19.288 39.6337 19.5763 39.7975 19.8215L41.4605 18.7104ZM41.5462 18.9941C41.5461 19.1288 41.4926 19.2579 41.3973 19.3531L39.9831 17.9389C39.7038 18.2183 39.5466 18.5971 39.5462 18.9921L41.5462 18.9941ZM41.3973 19.3531C41.3021 19.4484 41.173 19.5019 41.0383 19.5021L41.0363 17.5021C40.6413 17.5024 40.2625 17.6596 39.9831 17.9389L41.3973 19.3531Z" fill="url(#paint5_linear_146_17154)" mask="url(#path-11-inside-1_146_17154)"/>
<mask id="path-13-inside-2_146_17154" fill="white">
<path d="M25.5415 17.6191C25.412 17.6191 25.2854 17.6575 25.1777 17.7295C25.07 17.8014 24.9861 17.9037 24.9366 18.0233C24.887 18.143 24.874 18.2746 24.8993 18.4016C24.9246 18.5287 24.9869 18.6453 25.0785 18.7369C25.1701 18.8285 25.2867 18.8908 25.4137 18.9161C25.5408 18.9413 25.6724 18.9284 25.792 18.8788C25.9117 18.8293 26.014 18.7453 26.0859 18.6377C26.1578 18.53 26.1962 18.4034 26.1962 18.2739C26.196 18.1003 26.127 17.9339 26.0042 17.8111C25.8815 17.6884 25.7151 17.6193 25.5415 17.6191ZM25.5415 18.6013C25.4767 18.6013 25.4134 18.5821 25.3596 18.5461C25.3058 18.5101 25.2638 18.459 25.239 18.3992C25.2142 18.3394 25.2078 18.2735 25.2204 18.21C25.233 18.1465 25.2642 18.0882 25.31 18.0424C25.3558 17.9966 25.4141 17.9654 25.4776 17.9528C25.5411 17.9402 25.6069 17.9467 25.6668 17.9714C25.7266 17.9962 25.7777 18.0382 25.8137 18.092C25.8497 18.1459 25.8689 18.2092 25.8689 18.2739C25.8688 18.3607 25.8343 18.4439 25.7729 18.5053C25.7115 18.5667 25.6283 18.6012 25.5415 18.6013Z"/>
</mask>
<path d="M25.5415 17.6191C25.412 17.6191 25.2854 17.6575 25.1777 17.7295C25.07 17.8014 24.9861 17.9037 24.9366 18.0233C24.887 18.143 24.874 18.2746 24.8993 18.4016C24.9246 18.5287 24.9869 18.6453 25.0785 18.7369C25.1701 18.8285 25.2867 18.8908 25.4137 18.9161C25.5408 18.9413 25.6724 18.9284 25.792 18.8788C25.9117 18.8293 26.014 18.7453 26.0859 18.6377C26.1578 18.53 26.1962 18.4034 26.1962 18.2739C26.196 18.1003 26.127 17.9339 26.0042 17.8111C25.8815 17.6884 25.7151 17.6193 25.5415 17.6191ZM25.5415 18.6013C25.4767 18.6013 25.4134 18.5821 25.3596 18.5461C25.3058 18.5101 25.2638 18.459 25.239 18.3992C25.2142 18.3394 25.2078 18.2735 25.2204 18.21C25.233 18.1465 25.2642 18.0882 25.31 18.0424C25.3558 17.9966 25.4141 17.9654 25.4776 17.9528C25.5411 17.9402 25.6069 17.9467 25.6668 17.9714C25.7266 17.9962 25.7777 18.0382 25.8137 18.092C25.8497 18.1459 25.8689 18.2092 25.8689 18.2739C25.8688 18.3607 25.8343 18.4439 25.7729 18.5053C25.7115 18.5667 25.6283 18.6012 25.5415 18.6013Z" fill="white"/>
<path d="M25.5415 17.6191L25.5426 16.6191H25.5415V17.6191ZM26.1962 18.2739H27.1962L27.1962 18.2728L26.1962 18.2739ZM25.5415 18.6013V19.6013L25.5425 19.6013L25.5415 18.6013ZM25.8689 18.2739L26.8689 18.2749V18.2739H25.8689ZM25.5415 16.6191C25.2142 16.6191 24.8943 16.7162 24.6221 16.898L25.7333 18.561C25.6765 18.5989 25.6098 18.6191 25.5415 18.6191V16.6191ZM24.6221 16.898C24.35 17.0798 24.1379 17.3383 24.0127 17.6407L25.8604 18.406C25.8343 18.4691 25.7901 18.523 25.7333 18.561L24.6221 16.898ZM24.0127 17.6407C23.8874 17.943 23.8547 18.2757 23.9185 18.5967L25.8801 18.2065C25.8934 18.2735 25.8866 18.3429 25.8604 18.406L24.0127 17.6407ZM23.9185 18.5967C23.9824 18.9177 24.14 19.2126 24.3714 19.444L25.7856 18.0298C25.8339 18.0781 25.8668 18.1396 25.8801 18.2065L23.9185 18.5967ZM24.3714 19.444C24.6028 19.6754 24.8977 19.833 25.2187 19.8969L25.6088 17.9353C25.6758 17.9486 25.7373 17.9815 25.7856 18.0298L24.3714 19.444ZM25.2187 19.8969C25.5396 19.9607 25.8724 19.9279 26.1747 19.8027L25.4094 17.9549C25.4724 17.9288 25.5419 17.922 25.6088 17.9353L25.2187 19.8969ZM26.1747 19.8027C26.4771 19.6775 26.7355 19.4654 26.9174 19.1932L25.2544 18.0821C25.2924 18.0253 25.3463 17.9811 25.4094 17.9549L26.1747 19.8027ZM26.9174 19.1932C27.0992 18.9211 27.1962 18.6012 27.1962 18.2739H25.1962C25.1962 18.2056 25.2165 18.1389 25.2544 18.0821L26.9174 19.1932ZM27.1962 18.2728C27.1957 17.8344 27.0214 17.414 26.7114 17.104L25.2971 18.5182C25.2326 18.4537 25.1963 18.3663 25.1962 18.275L27.1962 18.2728ZM26.7114 17.104C26.4014 16.794 25.981 16.6196 25.5426 16.6191L25.5403 18.6191C25.4491 18.619 25.3617 18.5828 25.2971 18.5182L26.7114 17.104ZM25.5415 17.6013C25.6745 17.6013 25.8046 17.6407 25.9152 17.7146L24.804 19.3776C25.0223 19.5234 25.2789 19.6013 25.5415 19.6013V17.6013ZM25.9152 17.7146C26.0258 17.7885 26.112 17.8936 26.1629 18.0165L24.3151 18.7819C24.4156 19.0244 24.5857 19.2317 24.804 19.3776L25.9152 17.7146ZM26.1629 18.0165C26.2138 18.1394 26.2271 18.2746 26.2012 18.4051L24.2396 18.0149C24.1884 18.2724 24.2147 18.5393 24.3151 18.7819L26.1629 18.0165ZM26.2012 18.4051C26.1752 18.5356 26.1112 18.6555 26.0171 18.7495L24.6029 17.3353C24.4173 17.5209 24.2908 17.7574 24.2396 18.0149L26.2012 18.4051ZM26.0171 18.7495C25.923 18.8436 25.8032 18.9076 25.6727 18.9336L25.2825 16.972C25.025 17.0232 24.7885 17.1497 24.6029 17.3353L26.0171 18.7495ZM25.6727 18.9336C25.5422 18.9596 25.407 18.9462 25.2841 18.8953L26.0494 17.0476C25.8069 16.9471 25.54 16.9208 25.2825 16.972L25.6727 18.9336ZM25.2841 18.8953C25.1612 18.8444 25.0561 18.7582 24.9822 18.6476L26.6452 17.5364C26.4993 17.3182 26.292 17.148 26.0494 17.0476L25.2841 18.8953ZM24.9822 18.6476C24.9083 18.537 24.8689 18.4069 24.8689 18.2739H26.8689C26.8689 18.0114 26.791 17.7547 26.6452 17.5364L24.9822 18.6476ZM24.8689 18.2729C24.869 18.0948 24.9399 17.9241 25.0658 17.7982L26.48 19.2124C26.7287 18.9637 26.8685 18.6266 26.8689 18.2749L24.8689 18.2729ZM25.0658 17.7982C25.1917 17.6723 25.3624 17.6015 25.5405 17.6013L25.5425 19.6013C25.8941 19.6009 26.2313 19.4611 26.48 19.2124L25.0658 17.7982Z" fill="url(#paint6_linear_146_17154)" mask="url(#path-13-inside-2_146_17154)"/>
<mask id="path-15-inside-3_146_17154" fill="white">
<path d="M58.4253 17.9019C58.2958 17.9019 58.1692 17.9403 58.0615 18.0122C57.9538 18.0841 57.8699 18.1864 57.8203 18.3061C57.7708 18.4257 57.7578 18.5573 57.7831 18.6844C57.8084 18.8114 57.8707 18.928 57.9623 19.0196C58.0539 19.1112 58.1705 19.1735 58.2975 19.1988C58.4245 19.2241 58.5562 19.2111 58.6758 19.1615C58.7955 19.112 58.8977 19.0281 58.9697 18.9204C59.0416 18.8127 59.08 18.6861 59.08 18.5566C59.0798 18.383 59.0108 18.2166 58.888 18.0939C58.7653 17.9711 58.5989 17.9021 58.4253 17.9019ZM58.4253 18.884C58.3605 18.884 58.2972 18.8648 58.2434 18.8288C58.1896 18.7929 58.1476 18.7417 58.1228 18.6819C58.098 18.6221 58.0915 18.5563 58.1042 18.4927C58.1168 18.4292 58.148 18.3709 58.1938 18.3251C58.2396 18.2793 58.2979 18.2482 58.3614 18.2355C58.4249 18.2229 58.4907 18.2294 58.5506 18.2542C58.6104 18.2789 58.6615 18.3209 58.6975 18.3747C58.7335 18.4286 58.7527 18.4919 58.7527 18.5566C58.7526 18.6434 58.718 18.7266 58.6567 18.788C58.5953 18.8494 58.5121 18.8839 58.4253 18.884Z"/>
</mask>
<path d="M58.4253 17.9019C58.2958 17.9019 58.1692 17.9403 58.0615 18.0122C57.9538 18.0841 57.8699 18.1864 57.8203 18.3061C57.7708 18.4257 57.7578 18.5573 57.7831 18.6844C57.8084 18.8114 57.8707 18.928 57.9623 19.0196C58.0539 19.1112 58.1705 19.1735 58.2975 19.1988C58.4245 19.2241 58.5562 19.2111 58.6758 19.1615C58.7955 19.112 58.8977 19.0281 58.9697 18.9204C59.0416 18.8127 59.08 18.6861 59.08 18.5566C59.0798 18.383 59.0108 18.2166 58.888 18.0939C58.7653 17.9711 58.5989 17.9021 58.4253 17.9019ZM58.4253 18.884C58.3605 18.884 58.2972 18.8648 58.2434 18.8288C58.1896 18.7929 58.1476 18.7417 58.1228 18.6819C58.098 18.6221 58.0915 18.5563 58.1042 18.4927C58.1168 18.4292 58.148 18.3709 58.1938 18.3251C58.2396 18.2793 58.2979 18.2482 58.3614 18.2355C58.4249 18.2229 58.4907 18.2294 58.5506 18.2542C58.6104 18.2789 58.6615 18.3209 58.6975 18.3747C58.7335 18.4286 58.7527 18.4919 58.7527 18.5566C58.7526 18.6434 58.718 18.7266 58.6567 18.788C58.5953 18.8494 58.5121 18.8839 58.4253 18.884Z" fill="white"/>
<path d="M58.4253 17.9019L58.4264 16.9019H58.4253V17.9019ZM59.08 18.5566H60.08L60.08 18.5555L59.08 18.5566ZM58.4253 18.884V19.884L58.4263 19.884L58.4253 18.884ZM58.7527 18.5566L59.7527 18.5576V18.5566H58.7527ZM58.4253 16.9019C58.098 16.9019 57.7781 16.9989 57.5059 17.1807L58.6171 18.8437C58.5603 18.8816 58.4936 18.9019 58.4253 18.9019V16.9019ZM57.5059 17.1807C57.2338 17.3626 57.0217 17.621 56.8965 17.9234L58.7442 18.6887C58.7181 18.7518 58.6738 18.8057 58.6171 18.8437L57.5059 17.1807ZM56.8965 17.9234C56.7712 18.2257 56.7385 18.5584 56.8023 18.8794L58.7639 18.4893C58.7772 18.5562 58.7704 18.6257 58.7442 18.6887L56.8965 17.9234ZM56.8023 18.8794C56.8662 19.2004 57.0238 19.4953 57.2552 19.7267L58.6694 18.3125C58.7177 18.3608 58.7506 18.4223 58.7639 18.4893L56.8023 18.8794ZM57.2552 19.7267C57.4866 19.9581 57.7815 20.1157 58.1024 20.1796L58.4926 18.218C58.5596 18.2313 58.6211 18.2642 58.6694 18.3125L57.2552 19.7267ZM58.1024 20.1796C58.4234 20.2434 58.7562 20.2107 59.0585 20.0854L58.2932 18.2377C58.3562 18.2115 58.4257 18.2047 58.4926 18.218L58.1024 20.1796ZM59.0585 20.0854C59.3609 19.9602 59.6193 19.7481 59.8012 19.476L58.1382 18.3648C58.1761 18.308 58.2301 18.2638 58.2932 18.2377L59.0585 20.0854ZM59.8012 19.476C59.983 19.2038 60.08 18.8839 60.08 18.5566H58.08C58.08 18.4883 58.1003 18.4216 58.1382 18.3648L59.8012 19.476ZM60.08 18.5555C60.0795 18.1171 59.9052 17.6967 59.5951 17.3867L58.1809 18.801C58.1164 18.7364 58.0801 18.649 58.08 18.5578L60.08 18.5555ZM59.5951 17.3867C59.2851 17.0767 58.8648 16.9024 58.4264 16.9019L58.4241 18.9019C58.3329 18.9018 58.2454 18.8655 58.1809 18.801L59.5951 17.3867ZM58.4253 17.884C58.5583 17.884 58.6883 17.9234 58.799 17.9974L57.6878 19.6603C57.9061 19.8061 58.1627 19.884 58.4253 19.884V17.884ZM58.799 17.9974C58.9096 18.0713 58.9958 18.1763 59.0467 18.2992L57.1989 19.0646C57.2994 19.3072 57.4695 19.5145 57.6878 19.6603L58.799 17.9974ZM59.0467 18.2992C59.0976 18.4221 59.1109 18.5574 59.085 18.6878L57.1234 18.2977C57.0722 18.5551 57.0985 18.822 57.1989 19.0646L59.0467 18.2992ZM59.085 18.6878C59.059 18.8183 58.9949 18.9382 58.9009 19.0322L57.4867 17.618C57.301 17.8036 57.1746 18.0402 57.1234 18.2977L59.085 18.6878ZM58.9009 19.0322C58.8068 19.1263 58.687 19.1904 58.5565 19.2163L58.1663 17.2547C57.9088 17.306 57.6723 17.4324 57.4867 17.618L58.9009 19.0322ZM58.5565 19.2163C58.426 19.2423 58.2908 19.2289 58.1679 19.178L58.9332 17.3303C58.6907 17.2298 58.4238 17.2035 58.1663 17.2547L58.5565 19.2163ZM58.1679 19.178C58.045 19.1271 57.9399 19.0409 57.866 18.9303L59.5289 17.8192C59.3831 17.6009 59.1758 17.4307 58.9332 17.3303L58.1679 19.178ZM57.866 18.9303C57.7921 18.8197 57.7527 18.6897 57.7527 18.5566H59.7527C59.7527 18.2941 59.6748 18.0374 59.5289 17.8192L57.866 18.9303ZM57.7527 18.5556C57.7528 18.3776 57.8236 18.2068 57.9496 18.0809L59.3638 19.4951C59.6125 19.2464 59.7523 18.9093 59.7527 18.5576L57.7527 18.5556ZM57.9496 18.0809C58.0755 17.955 58.2462 17.8842 58.4243 17.884L58.4263 19.884C58.7779 19.8836 59.1151 19.7438 59.3638 19.4951L57.9496 18.0809Z" fill="url(#paint7_linear_146_17154)" mask="url(#path-15-inside-3_146_17154)"/>
<mask id="path-17-inside-4_146_17154" fill="white">
<path d="M51.1137 22.9727C50.9842 22.9727 50.8577 23.0111 50.75 23.083C50.6423 23.1549 50.5584 23.2572 50.5088 23.3769C50.4593 23.4965 50.4463 23.6281 50.4716 23.7552C50.4968 23.8822 50.5592 23.9988 50.6508 24.0904C50.7423 24.182 50.859 24.2443 50.986 24.2696C51.113 24.2949 51.2447 24.2819 51.3643 24.2323C51.484 24.1828 51.5862 24.0989 51.6582 23.9912C51.7301 23.8835 51.7685 23.7569 51.7685 23.6274C51.7683 23.4538 51.6993 23.2874 51.5765 23.1647C51.4538 23.0419 51.2873 22.9729 51.1137 22.9727ZM51.1137 23.9548C51.049 23.9548 50.9857 23.9356 50.9319 23.8996C50.878 23.8637 50.8361 23.8125 50.8113 23.7527C50.7865 23.6929 50.78 23.6271 50.7927 23.5635C50.8053 23.5 50.8365 23.4417 50.8823 23.3959C50.928 23.3501 50.9864 23.319 51.0499 23.3063C51.1134 23.2937 51.1792 23.3002 51.239 23.325C51.2989 23.3497 51.35 23.3917 51.386 23.4455C51.4219 23.4994 51.4411 23.5627 51.4411 23.6274C51.441 23.7142 51.4065 23.7974 51.3451 23.8588C51.2838 23.9202 51.2005 23.9547 51.1137 23.9548Z"/>
</mask>
<path d="M51.1137 22.9727C50.9842 22.9727 50.8577 23.0111 50.75 23.083C50.6423 23.1549 50.5584 23.2572 50.5088 23.3769C50.4593 23.4965 50.4463 23.6281 50.4716 23.7552C50.4968 23.8822 50.5592 23.9988 50.6508 24.0904C50.7423 24.182 50.859 24.2443 50.986 24.2696C51.113 24.2949 51.2447 24.2819 51.3643 24.2323C51.484 24.1828 51.5862 24.0989 51.6582 23.9912C51.7301 23.8835 51.7685 23.7569 51.7685 23.6274C51.7683 23.4538 51.6993 23.2874 51.5765 23.1647C51.4538 23.0419 51.2873 22.9729 51.1137 22.9727ZM51.1137 23.9548C51.049 23.9548 50.9857 23.9356 50.9319 23.8996C50.878 23.8637 50.8361 23.8125 50.8113 23.7527C50.7865 23.6929 50.78 23.6271 50.7927 23.5635C50.8053 23.5 50.8365 23.4417 50.8823 23.3959C50.928 23.3501 50.9864 23.319 51.0499 23.3063C51.1134 23.2937 51.1792 23.3002 51.239 23.325C51.2989 23.3497 51.35 23.3917 51.386 23.4455C51.4219 23.4994 51.4411 23.5627 51.4411 23.6274C51.441 23.7142 51.4065 23.7974 51.3451 23.8588C51.2838 23.9202 51.2005 23.9547 51.1137 23.9548Z" fill="white"/>
<path d="M51.1137 22.9727L51.1149 21.9727H51.1137V22.9727ZM51.7685 23.6274H52.7685L52.7685 23.6263L51.7685 23.6274ZM51.1137 23.9548V24.9548L51.1147 24.9548L51.1137 23.9548ZM51.4411 23.6274L52.4411 23.6284V23.6274H51.4411ZM51.1137 21.9727C50.7865 21.9727 50.4665 22.0697 50.1944 22.2515L51.3056 23.9145C51.2488 23.9524 51.182 23.9727 51.1137 23.9727V21.9727ZM50.1944 22.2515C49.9223 22.4334 49.7102 22.6918 49.5849 22.9942L51.4327 23.7595C51.4066 23.8226 51.3623 23.8765 51.3056 23.9145L50.1944 22.2515ZM49.5849 22.9942C49.4597 23.2965 49.4269 23.6292 49.4908 23.9502L51.4524 23.5601C51.4657 23.627 51.4588 23.6965 51.4327 23.7595L49.5849 22.9942ZM49.4908 23.9502C49.5546 24.2712 49.7122 24.5661 49.9437 24.7975L51.3579 23.3833C51.4061 23.4316 51.439 23.4931 51.4524 23.5601L49.4908 23.9502ZM49.9437 24.7975C50.1751 25.0289 50.4699 25.1865 50.7909 25.2504L51.1811 23.2888C51.2481 23.3021 51.3096 23.335 51.3579 23.3833L49.9437 24.7975ZM50.7909 25.2504C51.1119 25.3142 51.4446 25.2815 51.747 25.1562L50.9816 23.3085C51.0447 23.2823 51.1141 23.2755 51.1811 23.2888L50.7909 25.2504ZM51.747 25.1562C52.0494 25.031 52.3078 24.8189 52.4896 24.5468L50.8267 23.4356C50.8646 23.3788 50.9185 23.3346 50.9816 23.3085L51.747 25.1562ZM52.4896 24.5468C52.6715 24.2746 52.7685 23.9547 52.7685 23.6274H50.7685C50.7685 23.5591 50.7888 23.4924 50.8267 23.4356L52.4896 24.5468ZM52.7685 23.6263C52.768 23.1879 52.5936 22.7675 52.2836 22.4575L50.8694 23.8718C50.8049 23.8073 50.7686 23.7198 50.7685 23.6286L52.7685 23.6263ZM52.2836 22.4575C51.9736 22.1475 51.5533 21.9732 51.1149 21.9727L51.1126 23.9727C51.0214 23.9726 50.9339 23.9363 50.8694 23.8718L52.2836 22.4575ZM51.1137 22.9548C51.2468 22.9548 51.3768 22.9942 51.4874 23.0682L50.3763 24.7311C50.5946 24.8769 50.8512 24.9548 51.1137 24.9548V22.9548ZM51.4874 23.0682C51.598 23.1421 51.6843 23.2471 51.7352 23.37L49.8874 24.1354C49.9879 24.3779 50.158 24.5852 50.3763 24.7311L51.4874 23.0682ZM51.7352 23.37C51.7861 23.4929 51.7994 23.6282 51.7734 23.7586L49.8119 23.3685C49.7607 23.626 49.7869 23.8928 49.8874 24.1354L51.7352 23.37ZM51.7734 23.7586C51.7475 23.8891 51.6834 24.009 51.5894 24.103L50.1751 22.6888C49.9895 22.8744 49.8631 23.111 49.8119 23.3685L51.7734 23.7586ZM51.5894 24.103C51.4953 24.1971 51.3754 24.2612 51.245 24.2871L50.8548 22.3255C50.5973 22.3768 50.3608 22.5032 50.1751 22.6888L51.5894 24.103ZM51.245 24.2871C51.1145 24.3131 50.9793 24.2997 50.8563 24.2488L51.6217 22.4011C51.3792 22.3006 51.1123 22.2743 50.8548 22.3255L51.245 24.2871ZM50.8563 24.2488C50.7334 24.1979 50.6284 24.1117 50.5545 24.0011L52.2174 22.89C52.0716 22.6717 51.8643 22.5015 51.6217 22.4011L50.8563 24.2488ZM50.5545 24.0011C50.4806 23.8905 50.4411 23.7604 50.4411 23.6274H52.4411C52.4411 23.3649 52.3633 23.1083 52.2174 22.89L50.5545 24.0011ZM50.4411 23.6264C50.4413 23.4484 50.5121 23.2776 50.638 23.1517L52.0523 24.5659C52.3009 24.3172 52.4408 23.9801 52.4411 23.6284L50.4411 23.6264ZM50.638 23.1517C50.764 23.0258 50.9347 22.955 51.1127 22.9548L51.1147 24.9548C51.4664 24.9544 51.8036 24.8146 52.0523 24.5659L50.638 23.1517Z" fill="url(#paint8_linear_146_17154)" mask="url(#path-17-inside-4_146_17154)"/>
<mask id="path-19-inside-5_146_17154" fill="white">
<path d="M18.2299 32.9612C18.2299 32.8317 18.1915 32.7051 18.1196 32.5974C18.0476 32.4897 17.9454 32.4058 17.8257 32.3562C17.7061 32.3067 17.5744 32.2937 17.4474 32.319C17.3204 32.3442 17.2038 32.4066 17.1122 32.4982C17.0206 32.5897 16.9583 32.7064 16.933 32.8334C16.9077 32.9604 16.9207 33.0921 16.9703 33.2117C17.0198 33.3314 17.1037 33.4336 17.2114 33.5056C17.3191 33.5775 17.4457 33.6159 17.5752 33.6159C17.7488 33.6157 17.9152 33.5467 18.0379 33.4239C18.1607 33.3012 18.2297 33.1348 18.2299 32.9612ZM17.2478 32.9612C17.2478 32.8964 17.267 32.8331 17.303 32.7793C17.3389 32.7254 17.3901 32.6835 17.4499 32.6587C17.5097 32.6339 17.5755 32.6274 17.639 32.6401C17.7025 32.6527 17.7609 32.6839 17.8067 32.7297C17.8525 32.7755 17.8836 32.8338 17.8963 32.8973C17.9089 32.9608 17.9024 33.0266 17.8776 33.0864C17.8529 33.1463 17.8109 33.1974 17.7571 33.2334C17.7032 33.2693 17.6399 33.2885 17.5752 33.2885C17.4884 33.2885 17.4052 33.2539 17.3438 33.1926C17.2824 33.1312 17.2479 33.048 17.2478 32.9612Z"/>
</mask>
<path d="M18.2299 32.9612C18.2299 32.8317 18.1915 32.7051 18.1196 32.5974C18.0476 32.4897 17.9454 32.4058 17.8257 32.3562C17.7061 32.3067 17.5744 32.2937 17.4474 32.319C17.3204 32.3442 17.2038 32.4066 17.1122 32.4982C17.0206 32.5897 16.9583 32.7064 16.933 32.8334C16.9077 32.9604 16.9207 33.0921 16.9703 33.2117C17.0198 33.3314 17.1037 33.4336 17.2114 33.5056C17.3191 33.5775 17.4457 33.6159 17.5752 33.6159C17.7488 33.6157 17.9152 33.5467 18.0379 33.4239C18.1607 33.3012 18.2297 33.1348 18.2299 32.9612ZM17.2478 32.9612C17.2478 32.8964 17.267 32.8331 17.303 32.7793C17.3389 32.7254 17.3901 32.6835 17.4499 32.6587C17.5097 32.6339 17.5755 32.6274 17.639 32.6401C17.7025 32.6527 17.7609 32.6839 17.8067 32.7297C17.8525 32.7755 17.8836 32.8338 17.8963 32.8973C17.9089 32.9608 17.9024 33.0266 17.8776 33.0864C17.8529 33.1463 17.8109 33.1974 17.7571 33.2334C17.7032 33.2693 17.6399 33.2885 17.5752 33.2885C17.4884 33.2885 17.4052 33.2539 17.3438 33.1926C17.2824 33.1312 17.2479 33.048 17.2478 32.9612Z" fill="white"/>
<path d="M18.2299 32.9612L19.2299 32.9623V32.9612H18.2299ZM17.5752 33.6159V34.6159L17.5763 34.6159L17.5752 33.6159ZM17.2478 32.9612H16.2478L16.2478 32.9622L17.2478 32.9612ZM17.5752 33.2885L17.5742 34.2885H17.5752V33.2885ZM19.2299 32.9612C19.2299 32.6339 19.1329 32.3139 18.9511 32.0418L17.2881 33.153C17.2502 33.0962 17.2299 33.0294 17.2299 32.9612H19.2299ZM18.9511 32.0418C18.7692 31.7697 18.5108 31.5576 18.2084 31.4324L17.4431 33.2801C17.38 33.254 17.3261 33.2097 17.2881 33.153L18.9511 32.0418ZM18.2084 31.4324C17.9061 31.3071 17.5733 31.2743 17.2523 31.3382L17.6425 33.2998C17.5756 33.3131 17.5061 33.3062 17.4431 33.2801L18.2084 31.4324ZM17.2523 31.3382C16.9314 31.402 16.6365 31.5596 16.4051 31.7911L17.8193 33.2053C17.771 33.2536 17.7095 33.2864 17.6425 33.2998L17.2523 31.3382ZM16.4051 31.7911C16.1737 32.0225 16.0161 32.3173 15.9522 32.6383L17.9138 33.0285C17.9005 33.0955 17.8676 33.157 17.8193 33.2053L16.4051 31.7911ZM15.9522 32.6383C15.8884 32.9593 15.9211 33.292 16.0464 33.5944L17.8941 32.829C17.9203 32.8921 17.9271 32.9615 17.9138 33.0285L15.9522 32.6383ZM16.0464 33.5944C16.1716 33.8968 16.3837 34.1552 16.6558 34.337L17.767 32.6741C17.8237 32.712 17.868 32.766 17.8941 32.829L16.0464 33.5944ZM16.6558 34.337C16.928 34.5189 17.2479 34.6159 17.5752 34.6159V32.6159C17.6435 32.6159 17.7102 32.6362 17.767 32.6741L16.6558 34.337ZM17.5763 34.6159C18.0147 34.6154 18.435 34.441 18.745 34.131L17.3308 32.7168C17.3953 32.6523 17.4828 32.616 17.574 32.6159L17.5763 34.6159ZM18.745 34.131C19.0551 33.821 19.2294 33.4007 19.2299 32.9623L17.2299 32.96C17.23 32.8688 17.2663 32.7813 17.3308 32.7168L18.745 34.131ZM18.2478 32.9612C18.2478 33.0942 18.2083 33.2242 18.1344 33.3348L16.4715 32.2237C16.3256 32.442 16.2478 32.6986 16.2478 32.9612H18.2478ZM18.1344 33.3348C18.0605 33.4455 17.9555 33.5317 17.8326 33.5826L17.0672 31.7348C16.8247 31.8353 16.6173 32.0054 16.4715 32.2237L18.1344 33.3348ZM17.8326 33.5826C17.7097 33.6335 17.5744 33.6468 17.444 33.6209L17.8341 31.6593C17.5767 31.6081 17.3098 31.6343 17.0672 31.7348L17.8326 33.5826ZM17.444 33.6209C17.3135 33.5949 17.1936 33.5308 17.0996 33.4368L18.5138 32.0226C18.3281 31.8369 18.0916 31.7105 17.8341 31.6593L17.444 33.6209ZM17.0996 33.4368C17.0055 33.3427 16.9414 33.2229 16.9155 33.0924L18.877 32.7022C18.8258 32.4447 18.6994 32.2082 18.5138 32.0226L17.0996 33.4368ZM16.9155 33.0924C16.8895 32.9619 16.9028 32.8267 16.9538 32.7038L18.8015 33.4691C18.902 33.2266 18.9283 32.9597 18.877 32.7022L16.9155 33.0924ZM16.9538 32.7038C17.0047 32.5809 17.0909 32.4758 17.2015 32.4019L18.3126 34.0648C18.5309 33.919 18.701 33.7117 18.8015 33.4691L16.9538 32.7038ZM17.2015 32.4019C17.3121 32.328 17.4421 32.2885 17.5752 32.2885V34.2885C17.8377 34.2885 18.0943 34.2107 18.3126 34.0648L17.2015 32.4019ZM17.5762 32.2885C17.7542 32.2887 17.925 32.3595 18.0509 32.4854L16.6367 33.8997C16.8853 34.1483 17.2225 34.2882 17.5742 34.2885L17.5762 32.2885ZM18.0509 32.4854C18.1768 32.6114 18.2476 32.7821 18.2478 32.9602L16.2478 32.9622C16.2481 33.3138 16.388 33.651 16.6367 33.8997L18.0509 32.4854Z" fill="url(#paint9_linear_146_17154)" mask="url(#path-19-inside-5_146_17154)"/>
<path d="M33.1166 24.99L33.6034 24.3499L33.296 24.1758L32.9834 24.8927H32.9732L32.6557 24.1807L32.343 24.3601L32.8246 24.9851V24.9952L32.0713 24.898V25.2463L32.8295 25.1491V25.1592L32.343 25.7839L32.6347 25.9685L32.968 25.2463H32.9781L33.2855 25.9633L33.6083 25.779L33.1166 25.1641V25.154L33.8899 25.2463V24.898L33.1166 25.0005V24.99Z" fill="white"/>
<path d="M15.6027 24.2151L15.3225 24.5748L15.4908 24.6812L15.6826 24.2651H15.6882L15.8653 24.6783L16.0513 24.5719L15.7681 24.218V24.2121L16.2133 24.2651V24.0648L15.7681 24.1237V24.1178L16.0483 23.7492L15.8712 23.6487L15.6915 24.0615H15.6856L15.5026 23.6516L15.3225 23.7548L15.5998 24.1149V24.1208L15.166 24.0648V24.2651L15.6027 24.2092V24.2151Z" fill="white"/>
<path d="M67.0847 32.6776V32.3361L66.3261 32.4366V32.4265L66.8035 31.7986L66.5019 31.6277L66.1955 32.3309H66.1854L65.874 31.6326L65.5673 31.8087L66.0397 32.4216V32.4317L65.3008 32.3361V32.6776L66.0446 32.5823V32.5925L65.5673 33.2053L65.8537 33.3864L66.1805 32.6776H66.1903L66.4918 33.3811L66.8084 33.2004L66.3261 32.5974V32.5872L67.0847 32.6776Z" fill="white"/>
<path d="M66.6341 23.234L67.0456 22.6925L66.7857 22.5452L66.5215 23.1515H66.5126L66.2439 22.5491L65.9793 22.701L66.3869 23.2297V23.2386L65.7495 23.1561V23.4507L66.3912 23.3685V23.377L65.9793 23.9058L66.2265 24.0619L66.5084 23.4507H66.5169L66.7768 24.0573L67.0499 23.9015L66.6341 23.3813V23.3728L67.2882 23.4507V23.1561L66.6341 23.2428V23.234Z" fill="white"/>
<path d="M14.8095 62.1428C14.8095 62.2283 14.7402 62.2976 14.6548 62.2976C14.5693 62.2976 14.5 62.2283 14.5 62.1428C14.5 62.0573 14.5693 61.988 14.6548 61.988C14.7402 61.988 14.8095 62.0573 14.8095 62.1428Z" fill="white" stroke="url(#paint10_linear_146_17154)"/>
<path d="M16.6191 61.988H17.6013C17.6423 61.988 17.6817 62.0043 17.7107 62.0334C17.7397 62.0624 17.756 62.1018 17.756 62.1428C17.756 62.1838 17.7397 62.2232 17.7107 62.2522L18.0642 62.6058L17.7107 62.2522C17.6817 62.2813 17.6423 62.2976 17.6013 62.2976H16.6191C16.5781 62.2976 16.5387 62.2813 16.5097 62.2522C16.4807 62.2232 16.4644 62.1838 16.4644 62.1428C16.4644 62.1018 16.4807 62.0624 16.5097 62.0334C16.5387 62.0043 16.5781 61.988 16.6191 61.988Z" fill="white" stroke="url(#paint11_linear_146_17154)"/>
<path d="M65.3989 61.988H66.381C66.4221 61.988 66.4615 62.0043 66.4905 62.0334C66.5195 62.0624 66.5358 62.1018 66.5358 62.1428C66.5358 62.1838 66.5195 62.2232 66.4905 62.2522C66.4615 62.2813 66.4221 62.2976 66.381 62.2976H65.3989C65.3579 62.2976 65.3185 62.2813 65.2895 62.2522C65.2604 62.2232 65.2441 62.1838 65.2441 62.1428C65.2441 62.1018 65.2604 62.0624 65.2895 62.0334C65.3185 62.0043 65.3579 61.988 65.3989 61.988Z" fill="white" stroke="url(#paint12_linear_146_17154)"/>
<path d="M68.5 62.1428C68.5 62.2283 68.4307 62.2976 68.3452 62.2976C68.2597 62.2976 68.1904 62.2283 68.1904 62.1428C68.1904 62.0573 68.2597 61.988 68.3452 61.988C68.4307 61.988 68.5 62.0573 68.5 62.1428Z" fill="white" stroke="url(#paint13_linear_146_17154)"/>
<path d="M52.6811 64.1072H49.9613C49.7967 64.1204 49.6431 64.1951 49.5311 64.3164C49.4191 64.4377 49.3569 64.5968 49.3569 64.7619C49.3569 64.9271 49.4191 65.0861 49.5311 65.2075C49.6431 65.3288 49.7967 65.4035 49.9613 65.4167H52.6811C52.8457 65.4035 52.9993 65.3288 53.1113 65.2075C53.2233 65.0861 53.2855 64.9271 53.2855 64.7619C53.2855 64.5968 53.2233 64.4377 53.1113 64.3164C52.9993 64.1951 52.8457 64.1204 52.6811 64.1072Z" fill="white"/>
<path d="M33.0385 64.1072H30.3188C30.1542 64.1204 30.0006 64.1951 29.8886 64.3164C29.7765 64.4377 29.7144 64.5968 29.7144 64.7619C29.7144 64.9271 29.7765 65.0861 29.8886 65.2075C30.0006 65.3288 30.1542 65.4035 30.3188 65.4167H33.0385C33.2031 65.4035 33.3567 65.3288 33.4687 65.2075C33.5808 65.0861 33.6429 64.9271 33.6429 64.7619C33.6429 64.5968 33.5808 64.4377 33.4687 64.3164C33.3567 64.1951 33.2031 64.1204 33.0385 64.1072Z" fill="white"/>
<path d="M48.0479 64.1072H34.9526C34.779 64.1072 34.6124 64.1762 34.4896 64.299C34.3668 64.4217 34.2979 64.5883 34.2979 64.7619C34.2979 64.9356 34.3668 65.1021 34.4896 65.2249C34.6124 65.3477 34.779 65.4167 34.9526 65.4167H40.1711V66.0715H37.5717C37.398 66.0715 37.2315 66.1404 37.1087 66.2632C36.9859 66.386 36.9169 66.5526 36.9169 66.7262C36.9169 66.8999 36.9859 67.0664 37.1087 67.1892C37.2315 67.312 37.398 67.381 37.5717 67.381H45.7562C45.9298 67.381 46.0964 67.312 46.2192 67.1892C46.342 67.0664 46.4109 66.8999 46.4109 66.7262C46.4109 66.5526 46.342 66.386 46.2192 66.2632C46.0964 66.1404 45.9298 66.0715 45.7562 66.0715H42.8294V65.4167H48.0479C48.2215 65.4167 48.388 65.3477 48.5108 65.2249C48.6336 65.1021 48.7026 64.9356 48.7026 64.7619C48.7026 64.5883 48.6336 64.4217 48.5108 64.299C48.388 64.1762 48.2215 64.1072 48.0479 64.1072Z" fill="white"/>
<mask id="path-32-inside-6_146_17154" fill="white">
<path d="M63.3431 61.488H54.9224V53.6905C54.9931 53.6177 55.0692 53.5505 55.1501 53.4892C55.398 53.3299 55.6625 53.1978 55.9388 53.0952C56.5417 52.9021 57.0789 52.545 57.4903 52.0639C57.8193 51.527 57.9926 50.9093 57.991 50.2796C58.0039 49.9815 58.0488 49.6857 58.1249 49.3972C58.2289 49.1327 58.3612 48.8802 58.5195 48.6442C58.9019 48.1257 59.1303 47.5098 59.1784 46.8673C59.1303 46.2247 58.9019 45.6086 58.5195 45.09C58.3611 44.8541 58.2288 44.6018 58.1249 44.3374C58.0488 44.0489 58.0039 43.753 57.991 43.455C57.9927 42.8253 57.8193 42.2076 57.4903 41.6708C57.0791 41.1896 56.5419 40.8324 55.9391 40.6394C55.6628 40.5369 55.3983 40.4047 55.1504 40.2453C54.9263 40.0611 54.7227 39.8531 54.5433 39.6251C54.1716 39.1059 53.6616 38.7016 53.0713 38.4583C52.4654 38.3145 51.8315 38.341 51.2397 38.5348C50.9457 38.6164 50.6437 38.6659 50.3391 38.6826C50.0344 38.6659 49.7325 38.6164 49.4385 38.5348C48.8467 38.3409 48.2128 38.3144 47.6069 38.4583C47.0167 38.7018 46.5067 39.106 46.1349 39.6251C45.9556 39.8531 45.7522 40.061 45.5281 40.2452C45.2802 40.4045 45.0157 40.5366 44.7394 40.6392C44.1365 40.8322 43.5993 41.1893 43.1879 41.6705C42.8589 42.2074 42.6855 42.8251 42.6872 43.4548C42.6743 43.7529 42.6294 44.0487 42.5532 44.3372C42.4492 44.6017 42.3169 44.8541 42.1587 45.0901C41.7762 45.6087 41.5479 46.2247 41.4998 46.8673C41.5479 47.5098 41.7763 48.1257 42.1587 48.6443C42.3171 48.8802 42.4494 49.1326 42.5533 49.397C42.6294 49.6855 42.6743 49.9814 42.6872 50.2794C42.6855 50.9091 42.8589 51.5268 43.1879 52.0636C43.5991 52.5448 44.1363 52.902 44.7391 53.095C45.0154 53.1975 45.2799 53.3296 45.5278 53.489C45.6088 53.5504 45.685 53.6177 45.7558 53.6906V61.488H19.6565C19.5634 61.4759 19.4687 61.4837 19.3788 61.511C19.289 61.5384 19.2059 61.5846 19.1353 61.6466C19.0647 61.7085 19.0082 61.7848 18.9694 61.8704C18.9307 61.956 18.9106 62.0489 18.9106 62.1428C18.9106 62.2367 18.9307 62.3296 18.9694 62.4152C19.0082 62.5008 19.0647 62.5771 19.1353 62.639C19.2059 62.701 19.289 62.7472 19.3788 62.7746C19.4687 62.8019 19.5634 62.8097 19.6565 62.7976H63.3431C63.4362 62.8097 63.5309 62.8019 63.6208 62.7746C63.7107 62.7472 63.7937 62.701 63.8643 62.639C63.9349 62.5771 63.9914 62.5008 64.0302 62.4152C64.0689 62.3296 64.089 62.2367 64.089 62.1428C64.089 62.0489 64.0689 61.956 64.0302 61.8704C63.9914 61.7848 63.9349 61.7085 63.8643 61.6466C63.7937 61.5846 63.7107 61.5384 63.6208 61.511C63.5309 61.4837 63.4362 61.4759 63.3431 61.488ZM45.2458 51.8874C44.8696 51.7731 44.5268 51.5691 44.2467 51.2931C44.0725 50.9442 43.9851 50.5585 43.9919 50.1686C43.9732 49.7705 43.9084 49.3758 43.7988 48.9926C43.6657 48.6297 43.4903 48.2838 43.2764 47.9618C43.0323 47.6414 42.8717 47.2652 42.8093 46.8673C42.8717 46.4692 43.0322 46.093 43.2764 45.7726C43.4903 45.4505 43.6656 45.1045 43.7988 44.7416C43.9084 44.3584 43.9732 43.9637 43.9919 43.5656C43.9853 43.1757 44.0727 42.79 44.2467 42.4411C44.5267 42.165 44.8696 41.9611 45.2458 41.8468C45.6167 41.7075 45.9701 41.5253 46.2986 41.3039C46.6068 41.0619 46.8854 40.7847 47.1289 40.4778C47.3552 40.1513 47.6583 39.8855 48.0116 39.7039C48.3911 39.6492 48.7782 39.6856 49.1408 39.8102C49.5319 39.9169 49.934 39.978 50.3391 39.9921C50.7442 39.978 51.1463 39.9169 51.5374 39.8102C51.9 39.6852 52.2873 39.6487 52.6669 39.7039C53.02 39.8855 53.3231 40.1512 53.5493 40.4776C53.7929 40.7847 54.0716 41.0621 54.3799 41.3042C54.7084 41.5255 55.0616 41.7076 55.4324 41.847C55.8086 41.9613 56.1514 42.1653 56.4314 42.4413C56.6056 42.7902 56.6931 43.1759 56.6863 43.5657C56.705 43.9639 56.7698 44.3586 56.8794 44.7418C57.0125 45.1047 57.1879 45.4506 57.4018 45.7726C57.646 46.093 57.8065 46.4692 57.8689 46.8673C57.8064 47.2652 57.6459 47.6414 57.4018 47.9618C57.1879 48.2838 57.0125 48.6298 56.8794 48.9927C56.7698 49.376 56.705 49.7706 56.6863 50.1688C56.6929 50.5586 56.6055 50.9444 56.4314 51.2933C56.1515 51.5693 55.8086 51.7733 55.4324 51.8876C55.0615 52.0269 54.7081 52.2091 54.3796 52.4305C54.0714 52.6724 53.7928 52.9497 53.5493 53.2566C53.323 53.5831 53.0198 53.8489 52.6666 54.0305C52.287 54.0854 51.8997 54.049 51.537 53.9242C51.1461 53.8175 50.7441 53.7565 50.3391 53.7424C49.9341 53.7565 49.5321 53.8175 49.1412 53.9242C48.7784 54.049 48.391 54.0854 48.0113 54.0305C47.6582 53.8489 47.3551 53.5832 47.1289 53.2568C46.8853 52.9497 46.6065 52.6723 46.2983 52.4301C45.9698 52.2089 45.6166 52.0268 45.2458 51.8874ZM47.0653 55.0062C47.2323 55.121 47.4146 55.2119 47.6069 55.2761C48.2128 55.4201 48.8467 55.3936 49.4385 55.1995C49.7325 55.118 50.0345 55.0685 50.3391 55.052C50.6438 55.0685 50.9457 55.118 51.2397 55.1995C51.619 55.3028 52.0088 55.3621 52.4016 55.3765C52.8339 55.3838 53.2576 55.2544 53.6121 55.0067L53.6104 61.4872L50.9939 59.8098V57.0163C50.9939 56.8426 50.9249 56.6761 50.8021 56.5533C50.6793 56.4305 50.5128 56.3615 50.3391 56.3615C50.1654 56.3615 49.9989 56.4305 49.8761 56.5533C49.7533 56.6761 49.6843 56.8426 49.6843 57.0163V59.8104L47.0752 61.488H47.0653V55.0062ZM51.1854 61.488H49.4927L50.3391 60.9455L51.1854 61.488Z"/>
</mask>
<path d="M63.3431 61.488H54.9224V53.6905C54.9931 53.6177 55.0692 53.5505 55.1501 53.4892C55.398 53.3299 55.6625 53.1978 55.9388 53.0952C56.5417 52.9021 57.0789 52.545 57.4903 52.0639C57.8193 51.527 57.9926 50.9093 57.991 50.2796C58.0039 49.9815 58.0488 49.6857 58.1249 49.3972C58.2289 49.1327 58.3612 48.8802 58.5195 48.6442C58.9019 48.1257 59.1303 47.5098 59.1784 46.8673C59.1303 46.2247 58.9019 45.6086 58.5195 45.09C58.3611 44.8541 58.2288 44.6018 58.1249 44.3374C58.0488 44.0489 58.0039 43.753 57.991 43.455C57.9927 42.8253 57.8193 42.2076 57.4903 41.6708C57.0791 41.1896 56.5419 40.8324 55.9391 40.6394C55.6628 40.5369 55.3983 40.4047 55.1504 40.2453C54.9263 40.0611 54.7227 39.8531 54.5433 39.6251C54.1716 39.1059 53.6616 38.7016 53.0713 38.4583C52.4654 38.3145 51.8315 38.341 51.2397 38.5348C50.9457 38.6164 50.6437 38.6659 50.3391 38.6826C50.0344 38.6659 49.7325 38.6164 49.4385 38.5348C48.8467 38.3409 48.2128 38.3144 47.6069 38.4583C47.0167 38.7018 46.5067 39.106 46.1349 39.6251C45.9556 39.8531 45.7522 40.061 45.5281 40.2452C45.2802 40.4045 45.0157 40.5366 44.7394 40.6392C44.1365 40.8322 43.5993 41.1893 43.1879 41.6705C42.8589 42.2074 42.6855 42.8251 42.6872 43.4548C42.6743 43.7529 42.6294 44.0487 42.5532 44.3372C42.4492 44.6017 42.3169 44.8541 42.1587 45.0901C41.7762 45.6087 41.5479 46.2247 41.4998 46.8673C41.5479 47.5098 41.7763 48.1257 42.1587 48.6443C42.3171 48.8802 42.4494 49.1326 42.5533 49.397C42.6294 49.6855 42.6743 49.9814 42.6872 50.2794C42.6855 50.9091 42.8589 51.5268 43.1879 52.0636C43.5991 52.5448 44.1363 52.902 44.7391 53.095C45.0154 53.1975 45.2799 53.3296 45.5278 53.489C45.6088 53.5504 45.685 53.6177 45.7558 53.6906V61.488H19.6565C19.5634 61.4759 19.4687 61.4837 19.3788 61.511C19.289 61.5384 19.2059 61.5846 19.1353 61.6466C19.0647 61.7085 19.0082 61.7848 18.9694 61.8704C18.9307 61.956 18.9106 62.0489 18.9106 62.1428C18.9106 62.2367 18.9307 62.3296 18.9694 62.4152C19.0082 62.5008 19.0647 62.5771 19.1353 62.639C19.2059 62.701 19.289 62.7472 19.3788 62.7746C19.4687 62.8019 19.5634 62.8097 19.6565 62.7976H63.3431C63.4362 62.8097 63.5309 62.8019 63.6208 62.7746C63.7107 62.7472 63.7937 62.701 63.8643 62.639C63.9349 62.5771 63.9914 62.5008 64.0302 62.4152C64.0689 62.3296 64.089 62.2367 64.089 62.1428C64.089 62.0489 64.0689 61.956 64.0302 61.8704C63.9914 61.7848 63.9349 61.7085 63.8643 61.6466C63.7937 61.5846 63.7107 61.5384 63.6208 61.511C63.5309 61.4837 63.4362 61.4759 63.3431 61.488ZM45.2458 51.8874C44.8696 51.7731 44.5268 51.5691 44.2467 51.2931C44.0725 50.9442 43.9851 50.5585 43.9919 50.1686C43.9732 49.7705 43.9084 49.3758 43.7988 48.9926C43.6657 48.6297 43.4903 48.2838 43.2764 47.9618C43.0323 47.6414 42.8717 47.2652 42.8093 46.8673C42.8717 46.4692 43.0322 46.093 43.2764 45.7726C43.4903 45.4505 43.6656 45.1045 43.7988 44.7416C43.9084 44.3584 43.9732 43.9637 43.9919 43.5656C43.9853 43.1757 44.0727 42.79 44.2467 42.4411C44.5267 42.165 44.8696 41.9611 45.2458 41.8468C45.6167 41.7075 45.9701 41.5253 46.2986 41.3039C46.6068 41.0619 46.8854 40.7847 47.1289 40.4778C47.3552 40.1513 47.6583 39.8855 48.0116 39.7039C48.3911 39.6492 48.7782 39.6856 49.1408 39.8102C49.5319 39.9169 49.934 39.978 50.3391 39.9921C50.7442 39.978 51.1463 39.9169 51.5374 39.8102C51.9 39.6852 52.2873 39.6487 52.6669 39.7039C53.02 39.8855 53.3231 40.1512 53.5493 40.4776C53.7929 40.7847 54.0716 41.0621 54.3799 41.3042C54.7084 41.5255 55.0616 41.7076 55.4324 41.847C55.8086 41.9613 56.1514 42.1653 56.4314 42.4413C56.6056 42.7902 56.6931 43.1759 56.6863 43.5657C56.705 43.9639 56.7698 44.3586 56.8794 44.7418C57.0125 45.1047 57.1879 45.4506 57.4018 45.7726C57.646 46.093 57.8065 46.4692 57.8689 46.8673C57.8064 47.2652 57.6459 47.6414 57.4018 47.9618C57.1879 48.2838 57.0125 48.6298 56.8794 48.9927C56.7698 49.376 56.705 49.7706 56.6863 50.1688C56.6929 50.5586 56.6055 50.9444 56.4314 51.2933C56.1515 51.5693 55.8086 51.7733 55.4324 51.8876C55.0615 52.0269 54.7081 52.2091 54.3796 52.4305C54.0714 52.6724 53.7928 52.9497 53.5493 53.2566C53.323 53.5831 53.0198 53.8489 52.6666 54.0305C52.287 54.0854 51.8997 54.049 51.537 53.9242C51.1461 53.8175 50.7441 53.7565 50.3391 53.7424C49.9341 53.7565 49.5321 53.8175 49.1412 53.9242C48.7784 54.049 48.391 54.0854 48.0113 54.0305C47.6582 53.8489 47.3551 53.5832 47.1289 53.2568C46.8853 52.9497 46.6065 52.6723 46.2983 52.4301C45.9698 52.2089 45.6166 52.0268 45.2458 51.8874ZM47.0653 55.0062C47.2323 55.121 47.4146 55.2119 47.6069 55.2761C48.2128 55.4201 48.8467 55.3936 49.4385 55.1995C49.7325 55.118 50.0345 55.0685 50.3391 55.052C50.6438 55.0685 50.9457 55.118 51.2397 55.1995C51.619 55.3028 52.0088 55.3621 52.4016 55.3765C52.8339 55.3838 53.2576 55.2544 53.6121 55.0067L53.6104 61.4872L50.9939 59.8098V57.0163C50.9939 56.8426 50.9249 56.6761 50.8021 56.5533C50.6793 56.4305 50.5128 56.3615 50.3391 56.3615C50.1654 56.3615 49.9989 56.4305 49.8761 56.5533C49.7533 56.6761 49.6843 56.8426 49.6843 57.0163V59.8104L47.0752 61.488H47.0653V55.0062ZM51.1854 61.488H49.4927L50.3391 60.9455L51.1854 61.488Z" fill="white" stroke="url(#paint14_linear_146_17154)" stroke-width="2" mask="url(#path-32-inside-6_146_17154)"/>
<defs>
<linearGradient id="paint0_linear_146_17154" x1="42" y1="0" x2="42" y2="84" gradientUnits="userSpaceOnUse">
<stop stop-color="#DBCC5D"/>
<stop offset="1" stop-color="#D1D263"/>
</linearGradient>
<linearGradient id="paint1_linear_146_17154" x1="56.7461" y1="31.261" x2="56.7461" y2="58.1068" gradientUnits="userSpaceOnUse">
<stop stop-color="#DBCC5D"/>
<stop offset="1" stop-color="#D1D263"/>
</linearGradient>
<linearGradient id="paint2_linear_146_17154" x1="32.4973" y1="31.261" x2="32.4973" y2="58.1068" gradientUnits="userSpaceOnUse">
<stop stop-color="#DBCC5D"/>
<stop offset="1" stop-color="#D1D263"/>
</linearGradient>
<linearGradient id="paint3_linear_146_17154" x1="31.911" y1="47.6304" x2="31.911" y2="48.9399" gradientUnits="userSpaceOnUse">
<stop stop-color="#DBCC5D"/>
<stop offset="1" stop-color="#D1D263"/>
</linearGradient>
<linearGradient id="paint4_linear_146_17154" x1="32.0768" y1="39.7729" x2="32.0768" y2="46.3207" gradientUnits="userSpaceOnUse">
<stop stop-color="#DBCC5D"/>
<stop offset="1" stop-color="#D1D263"/>
</linearGradient>
<linearGradient id="paint5_linear_146_17154" x1="41.0373" y1="18.011" x2="41.0373" y2="19.9753" gradientUnits="userSpaceOnUse">
<stop stop-color="#DBCC5D"/>
<stop offset="1" stop-color="#D1D263"/>
</linearGradient>
<linearGradient id="paint6_linear_146_17154" x1="25.5415" y1="17.6191" x2="25.5415" y2="18.9287" gradientUnits="userSpaceOnUse">
<stop stop-color="#DBCC5D"/>
<stop offset="1" stop-color="#D1D263"/>
</linearGradient>
<linearGradient id="paint7_linear_146_17154" x1="58.4253" y1="17.9019" x2="58.4253" y2="19.2114" gradientUnits="userSpaceOnUse">
<stop stop-color="#DBCC5D"/>
<stop offset="1" stop-color="#D1D263"/>
</linearGradient>
<linearGradient id="paint8_linear_146_17154" x1="51.1137" y1="22.9727" x2="51.1137" y2="24.2822" gradientUnits="userSpaceOnUse">
<stop stop-color="#DBCC5D"/>
<stop offset="1" stop-color="#D1D263"/>
</linearGradient>
<linearGradient id="paint9_linear_146_17154" x1="17.5752" y1="32.3064" x2="17.5752" y2="33.6159" gradientUnits="userSpaceOnUse">
<stop stop-color="#DBCC5D"/>
<stop offset="1" stop-color="#D1D263"/>
</linearGradient>
<linearGradient id="paint10_linear_146_17154" x1="14.6548" y1="61.488" x2="14.6548" y2="62.7976" gradientUnits="userSpaceOnUse">
<stop stop-color="#DBCC5D"/>
<stop offset="1" stop-color="#D1D263"/>
</linearGradient>
<linearGradient id="paint11_linear_146_17154" x1="17.1102" y1="61.488" x2="17.1102" y2="62.7976" gradientUnits="userSpaceOnUse">
<stop stop-color="#DBCC5D"/>
<stop offset="1" stop-color="#D1D263"/>
</linearGradient>
<linearGradient id="paint12_linear_146_17154" x1="65.89" y1="61.488" x2="65.89" y2="62.7976" gradientUnits="userSpaceOnUse">
<stop stop-color="#DBCC5D"/>
<stop offset="1" stop-color="#D1D263"/>
</linearGradient>
<linearGradient id="paint13_linear_146_17154" x1="68.3452" y1="61.488" x2="68.3452" y2="62.7976" gradientUnits="userSpaceOnUse">
<stop stop-color="#DBCC5D"/>
<stop offset="1" stop-color="#D1D263"/>
</linearGradient>
<linearGradient id="paint14_linear_146_17154" x1="41.4998" y1="38.3669" x2="41.4998" y2="62.8031" gradientUnits="userSpaceOnUse">
<stop stop-color="#DBCC5D"/>
<stop offset="1" stop-color="#D1D263"/>
</linearGradient>
</defs>
</svg>
