<svg width="84" height="84" viewBox="0 0 84 84" fill="none" xmlns="http://www.w3.org/2000/svg">
<rect x="0.5" y="0.5" width="83" height="83" rx="19.5" stroke="url(#paint0_linear_146_17124)"/>
<path d="M46.7381 27.8081C46.9117 27.8081 47.0783 27.7391 47.2011 27.6163C47.3239 27.4935 47.3928 27.327 47.3928 27.1533C47.3928 26.9796 47.3239 26.8131 47.2011 26.6903C47.0783 26.5675 46.9117 26.4985 46.7381 26.4985H41.5C41.3263 26.4985 41.1598 26.5675 41.037 26.6903C40.9142 26.8131 40.8452 26.9796 40.8452 27.1533C40.8452 27.327 40.9142 27.4935 41.037 27.6163C41.1598 27.7391 41.3263 27.8081 41.5 27.8081H46.7381Z" fill="white"/>
<path d="M39.5356 29.7724C39.5357 29.9461 39.6046 30.1126 39.7274 30.2354C39.8502 30.3582 40.0168 30.4272 40.1904 30.4272H48.0475C48.2212 30.4272 48.3877 30.3582 48.5105 30.2354C48.6333 30.1126 48.7023 29.9461 48.7023 29.7724C48.7023 29.5988 48.6333 29.4322 48.5105 29.3095C48.3877 29.1867 48.2212 29.1177 48.0475 29.1177H40.1904C40.0168 29.1177 39.8502 29.1867 39.7274 29.3095C39.6046 29.4323 39.5357 29.5988 39.5356 29.7724Z" fill="white"/>
<path d="M47.5656 45.9865H47.0656H45.4287C45.3876 45.9865 45.3483 46.0028 45.3193 46.0318C45.2902 46.0608 45.2739 46.1002 45.2739 46.1413C45.2739 46.1823 45.2902 46.2217 45.3193 46.2507C45.3483 46.2797 45.3876 46.296 45.4287 46.296H47.0656H47.5656V46.796V48.4329C47.5656 48.474 47.5819 48.5133 47.6109 48.5424C47.6399 48.5714 47.6793 48.5877 47.7204 48.5877C47.7614 48.5877 47.8008 48.5714 47.8298 48.5424C47.8588 48.5133 47.8751 48.474 47.8751 48.4329V46.796V46.296H48.3751H50.012C50.0531 46.296 50.0924 46.2797 50.1215 46.2507C50.1505 46.2217 50.1668 46.1823 50.1668 46.1413C50.1668 46.1002 50.1505 46.0608 50.1215 46.0318C50.0924 46.0028 50.0531 45.9865 50.012 45.9865H48.3751H47.8751V45.4865V43.8496C47.8751 43.8496 47.8751 43.8496 47.8751 43.8496C47.8751 43.8085 47.8588 43.7692 47.8298 43.7402C47.8008 43.7111 47.7614 43.6948 47.7204 43.6948L47.5656 45.9865ZM47.5656 45.9865V45.4865M47.5656 45.9865V45.4865M47.5656 45.4865V43.8496C47.5656 43.8496 47.5656 43.8496 47.5656 43.8496C47.5656 43.8085 47.5819 43.7692 47.6109 43.7402C47.6399 43.7111 47.6793 43.6948 47.7203 43.6948L47.5656 45.4865Z" fill="white" stroke="url(#paint1_linear_146_17124)"/>
<path d="M43.9363 49.471L43.9363 49.471C43.929 49.49 43.918 49.5073 43.904 49.5221C43.89 49.5368 43.8733 49.5486 43.8547 49.5569C43.8361 49.5652 43.8161 49.5697 43.7958 49.5702C43.7755 49.5707 43.7553 49.5672 43.7363 49.5599C43.7173 49.5526 43.7 49.5416 43.6853 49.5276C43.6705 49.5136 43.6587 49.4968 43.6505 49.4782L43.6503 49.4777L42.8573 47.6936L42.7253 47.3967H42.4004H39.9446H39.6197L39.4877 47.6936L38.6947 49.4777L38.6945 49.4782C38.6862 49.4968 38.6744 49.5136 38.6597 49.5276L38.9922 49.877L38.6597 49.5276C38.645 49.5416 38.6276 49.5526 38.6087 49.5599C38.5897 49.5672 38.5695 49.5707 38.5492 49.5702C38.5288 49.5697 38.5088 49.5652 38.4903 49.5569C38.4717 49.5486 38.4549 49.5368 38.4409 49.5221L38.0807 49.864L38.4409 49.5221C38.4269 49.5073 38.416 49.49 38.4087 49.471L37.9419 49.6501L38.4087 49.471C38.4014 49.452 38.398 49.4318 38.3985 49.4115C38.399 49.3911 38.4036 49.3711 38.4119 49.3526L38.4122 49.3519L39.3727 47.1907L39.3727 47.1907L39.3739 47.1879L39.374 47.1876L41.0312 43.459L41.0312 43.459C41.0434 43.4317 41.0632 43.4084 41.0882 43.3922C41.1133 43.3759 41.1426 43.3672 41.1725 43.3672C41.2024 43.3672 41.2316 43.3759 41.2567 43.3922L41.5251 42.9792L41.2567 43.3922C41.2818 43.4084 41.3016 43.4317 41.3137 43.459L41.3137 43.459L43.9328 49.3519L43.9331 49.3526C43.9414 49.3711 43.9459 49.3911 43.9465 49.4115C43.947 49.4318 43.9435 49.452 43.9363 49.471ZM40.0697 46.3841L39.7572 47.0872H40.5266H41.8183H42.5877L42.2752 46.3841L41.6294 44.931L41.1725 43.903L40.7156 44.931L40.0697 46.3841Z" fill="white" stroke="url(#paint2_linear_146_17124)"/>
<path d="M41.5 58.2543H55.9047C56.0784 58.2543 56.2449 58.1854 56.3677 58.0626C56.4905 57.9398 56.5595 57.7732 56.5595 57.5996C56.5595 57.4259 56.4905 57.2594 56.3677 57.1366C56.2449 57.0138 56.0784 56.9448 55.9047 56.9448H41.5C41.3263 56.9448 41.1598 57.0138 41.037 57.1366C40.9142 57.2594 40.8452 57.4259 40.8452 57.5996C40.8452 57.7732 40.9142 57.9398 41.037 58.0626C41.1598 58.1854 41.3263 58.2543 41.5 58.2543Z" fill="white"/>
<path d="M55.9049 54.3257H45.4287C45.255 54.3257 45.0885 54.3947 44.9657 54.5175C44.8429 54.6403 44.7739 54.8068 44.7739 54.9804C44.7739 55.1541 44.8429 55.3206 44.9657 55.4434C45.0885 55.5662 45.255 55.6352 45.4287 55.6352H55.9049C56.0785 55.6352 56.2451 55.5662 56.3679 55.4434C56.4907 55.3206 56.5596 55.1541 56.5596 54.9804C56.5596 54.8068 56.4907 54.6403 56.3679 54.5175C56.2451 54.3947 56.0785 54.3257 55.9049 54.3257Z" fill="white"/>
<path d="M34.2979 39.2661H42.8098C42.9834 39.2661 43.15 39.1971 43.2727 39.0743C43.3955 38.9515 43.4645 38.785 43.4645 38.6113C43.4645 38.4377 43.3955 38.2711 43.2727 38.1483C43.15 38.0255 42.9834 37.9565 42.8098 37.9565H34.2979V39.2661Z" fill="white"/>
<path d="M46.7383 35.3379H34.2979V36.6474H46.7383C46.912 36.6474 47.0785 36.5784 47.2013 36.4556C47.3241 36.3328 47.3931 36.1663 47.3931 35.9927C47.3931 35.819 47.3241 35.6525 47.2013 35.5297C47.0785 35.4069 46.912 35.3379 46.7383 35.3379Z" fill="white"/>
<path d="M24.6308 31.4088V31.4083C24.631 31.1891 24.7182 30.9789 24.8732 30.8239C25.0283 30.6688 25.2385 30.5816 25.4577 30.5814L25.4582 30.5814L26.4403 30.5814H26.9403V31.0814V48.1045C26.9405 48.131 26.9475 48.1571 26.9609 48.18C26.9743 48.2031 26.9935 48.2222 27.0166 48.2355L27.2677 48.3797V48.6692V50.9217V50.9218C27.2674 52.5733 27.52 54.2151 28.0167 55.7901L28.0167 55.7902L29.5302 60.5922L29.5302 60.5924C29.5401 60.6237 29.5597 60.6511 29.5862 60.6706C29.6127 60.69 29.6447 60.7005 29.6776 60.7005H29.6777H29.7506H29.7506C29.7835 60.7005 29.8155 60.69 29.8421 60.6706C29.8686 60.6511 29.8882 60.6237 29.898 60.5924L29.8981 60.5922L31.4116 55.7902L31.4116 55.7901C31.9083 54.2151 32.1608 52.5733 32.1606 50.9218V50.9217V48.6692V48.3797L32.4116 48.2355C32.4348 48.2222 32.454 48.2031 32.4674 48.18C32.4808 48.157 32.4878 48.131 32.488 48.1044C32.488 48.1043 32.488 48.1042 32.488 48.1041L32.488 29.7724C32.4875 29.3841 32.3331 29.0117 32.0584 28.7371C31.7839 28.4626 31.4117 28.3081 31.0234 28.3076H28.4049C28.0166 28.3081 27.6444 28.4626 27.3698 28.7371L27.0163 28.3836L27.3698 28.7371C27.0952 29.0117 26.9408 29.3841 26.9403 29.7724L26.9398 30.2719H26.4403H25.4584C25.157 30.2724 24.868 30.3923 24.6548 30.6055C24.4417 30.8186 24.3217 31.1076 24.3213 31.4091V38.6112C24.3213 38.6112 24.3213 38.6112 24.3213 38.6112C24.3213 38.6522 24.3376 38.6916 24.3666 38.7206C24.3956 38.7496 24.435 38.7659 24.476 38.7659L24.6308 31.4088ZM24.6308 31.4088V38.6112C24.6308 38.6112 24.6308 38.6112 24.6308 38.6112C24.6308 38.6522 24.6145 38.6916 24.5855 38.7206C24.5565 38.7496 24.5171 38.7659 24.4761 38.7659L24.6308 31.4088ZM31.1166 55.6972L31.1166 55.6972C31.6035 54.1521 31.8512 52.5417 31.8511 50.9217C31.8511 50.9217 31.8511 50.9217 31.8511 50.9216L31.8511 48.76V48.26H31.3511H28.0772H27.5772V48.76V50.9217C27.5772 50.9217 27.5772 50.9217 27.5772 50.9217C27.5771 52.5417 27.8248 54.1521 28.3117 55.6972L28.3117 55.6972L29.2373 58.6334L29.7141 60.1462L30.191 58.6334L31.1166 55.6972ZM27.2499 29.7713V29.7719V31.0814V31.5814H27.7499H31.6784H32.1784V31.0814V29.7719L32.1784 29.7713C32.1781 29.4653 32.0564 29.172 31.84 28.9556C31.6236 28.7392 31.3302 28.6175 31.0242 28.6171H31.0237L28.4046 28.6171L28.4041 28.6171C28.098 28.6175 27.8047 28.7392 27.5883 28.9556L27.9419 29.3091L27.5883 28.9556C27.3719 29.172 27.2502 29.4653 27.2499 29.7713ZM27.7499 31.8909H27.2499V32.3909V47.4505V47.9505H27.7499H31.6784H32.1784V47.4505V32.3909V31.8909H31.6784H27.7499Z" fill="white" stroke="url(#paint3_linear_146_17124)"/>
<mask id="path-11-inside-1_146_17124" fill="white">
<path d="M66.6267 19.3779C66.8209 19.3779 67.0108 19.3203 67.1723 19.2123C67.3338 19.1044 67.4597 18.951 67.5341 18.7716C67.6084 18.5921 67.6278 18.3946 67.5899 18.2041C67.552 18.0136 67.4585 17.8386 67.3212 17.7012C67.1838 17.5639 67.0088 17.4703 66.8183 17.4324C66.6278 17.3946 66.4303 17.414 66.2508 17.4883C66.0714 17.5627 65.918 17.6886 65.8101 17.8501C65.7021 18.0116 65.6445 18.2015 65.6445 18.3957C65.6448 18.6561 65.7484 18.9057 65.9325 19.0899C66.1166 19.274 66.3663 19.3776 66.6267 19.3779ZM66.6267 17.9046C66.7238 17.9046 66.8187 17.9334 66.8995 17.9874C66.9803 18.0414 67.0432 18.1181 67.0804 18.2078C67.1175 18.2975 67.1273 18.3963 67.1083 18.4915C67.0894 18.5868 67.0426 18.6743 66.9739 18.743C66.9052 18.8116 66.8177 18.8584 66.7225 18.8774C66.6272 18.8963 66.5285 18.8866 66.4388 18.8494C66.349 18.8122 66.2723 18.7493 66.2184 18.6685C66.1644 18.5878 66.1356 18.4928 66.1356 18.3957C66.1357 18.2655 66.1875 18.1407 66.2796 18.0486C66.3716 17.9566 66.4965 17.9048 66.6267 17.9046Z"/>
</mask>
<path d="M66.6267 19.3779C66.8209 19.3779 67.0108 19.3203 67.1723 19.2123C67.3338 19.1044 67.4597 18.951 67.5341 18.7716C67.6084 18.5921 67.6278 18.3946 67.5899 18.2041C67.552 18.0136 67.4585 17.8386 67.3212 17.7012C67.1838 17.5639 67.0088 17.4703 66.8183 17.4324C66.6278 17.3946 66.4303 17.414 66.2508 17.4883C66.0714 17.5627 65.918 17.6886 65.8101 17.8501C65.7021 18.0116 65.6445 18.2015 65.6445 18.3957C65.6448 18.6561 65.7484 18.9057 65.9325 19.0899C66.1166 19.274 66.3663 19.3776 66.6267 19.3779ZM66.6267 17.9046C66.7238 17.9046 66.8187 17.9334 66.8995 17.9874C66.9803 18.0414 67.0432 18.1181 67.0804 18.2078C67.1175 18.2975 67.1273 18.3963 67.1083 18.4915C67.0894 18.5868 67.0426 18.6743 66.9739 18.743C66.9052 18.8116 66.8177 18.8584 66.7225 18.8774C66.6272 18.8963 66.5285 18.8866 66.4388 18.8494C66.349 18.8122 66.2723 18.7493 66.2184 18.6685C66.1644 18.5878 66.1356 18.4928 66.1356 18.3957C66.1357 18.2655 66.1875 18.1407 66.2796 18.0486C66.3716 17.9566 66.4965 17.9048 66.6267 17.9046Z" fill="white"/>
<path d="M66.6267 19.3779L66.6255 20.3779H66.6267V19.3779ZM65.6445 18.3957H64.6445L64.6445 18.3969L65.6445 18.3957ZM66.6267 17.9046V16.9046L66.6257 16.9046L66.6267 17.9046ZM66.1356 18.3957L65.1356 18.3947V18.3957H66.1356ZM66.6267 20.3779C67.0187 20.3779 67.4019 20.2616 67.7279 20.0438L66.6168 18.3809C66.6197 18.3789 66.6231 18.3779 66.6267 18.3779V20.3779ZM67.7279 20.0438C68.0539 19.826 68.3079 19.5164 68.4579 19.1543L66.6102 18.3889C66.6115 18.3856 66.6138 18.3828 66.6168 18.3809L67.7279 20.0438ZM68.4579 19.1543C68.608 18.7921 68.6472 18.3935 68.5707 18.009L66.6092 18.3992C66.6085 18.3957 66.6088 18.3921 66.6102 18.3889L68.4579 19.1543ZM68.5707 18.009C68.4942 17.6245 68.3055 17.2713 68.0283 16.9941L66.614 18.4083C66.6115 18.4058 66.6098 18.4027 66.6092 18.3992L68.5707 18.009ZM68.0283 16.9941C67.7511 16.7169 67.3979 16.5281 67.0134 16.4517L66.6232 18.4132C66.6197 18.4125 66.6165 18.4108 66.614 18.4083L68.0283 16.9941ZM67.0134 16.4517C66.6289 16.3752 66.2303 16.4144 65.8681 16.5645L66.6335 18.4122C66.6302 18.4136 66.6267 18.4139 66.6232 18.4132L67.0134 16.4517ZM65.8681 16.5645C65.506 16.7145 65.1964 16.9685 64.9786 17.2945L66.6415 18.4056C66.6396 18.4086 66.6368 18.4109 66.6335 18.4122L65.8681 16.5645ZM64.9786 17.2945C64.7608 17.6205 64.6445 18.0037 64.6445 18.3957H66.6445C66.6445 18.3992 66.6435 18.4027 66.6415 18.4056L64.9786 17.2945ZM64.6445 18.3969C64.6451 18.9221 64.854 19.4256 65.2254 19.797L66.6396 18.3828C66.6428 18.3859 66.6445 18.3901 66.6445 18.3946L64.6445 18.3969ZM65.2254 19.797C65.5968 20.1684 66.1003 20.3773 66.6255 20.3779L66.6278 18.3779C66.6322 18.3779 66.6365 18.3796 66.6396 18.3828L65.2254 19.797ZM66.6267 18.9046C66.526 18.9046 66.4276 18.8748 66.3439 18.8189L67.4551 17.1559C67.2099 16.9921 66.9216 16.9046 66.6267 16.9046V18.9046ZM66.3439 18.8189C66.2602 18.7629 66.195 18.6835 66.1565 18.5905L68.0042 17.8251C67.8914 17.5527 67.7003 17.3198 67.4551 17.1559L66.3439 18.8189ZM66.1565 18.5905C66.118 18.4975 66.1079 18.3952 66.1275 18.2964L68.0891 18.6866C68.1466 18.3974 68.1171 18.0976 68.0042 17.8251L66.1565 18.5905ZM66.1275 18.2964C66.1472 18.1977 66.1956 18.107 66.2668 18.0359L67.681 19.4501C67.8895 19.2415 68.0316 18.9759 68.0891 18.6866L66.1275 18.2964ZM66.2668 18.0359C66.338 17.9647 66.4287 17.9162 66.5274 17.8966L66.9176 19.8581C67.2068 19.8006 67.4725 19.6586 67.681 19.4501L66.2668 18.0359ZM66.5274 17.8966C66.6261 17.8769 66.7284 17.887 66.8214 17.9255L66.0561 19.7733C66.3285 19.8861 66.6283 19.9157 66.9176 19.8581L66.5274 17.8966ZM66.8214 17.9255C66.9144 17.964 66.9939 18.0293 67.0498 18.113L65.3869 19.2241C65.5507 19.4693 65.7836 19.6604 66.0561 19.7733L66.8214 17.9255ZM67.0498 18.113C67.1058 18.1967 67.1356 18.2951 67.1356 18.3957H65.1356C65.1356 18.6906 65.223 18.9789 65.3869 19.2241L67.0498 18.113ZM67.1356 18.3967C67.1355 18.5314 67.0819 18.6605 66.9867 18.7557L65.5725 17.3415C65.2931 17.6209 65.136 17.9997 65.1356 18.3947L67.1356 18.3967ZM66.9867 18.7557C66.8915 18.851 66.7623 18.9045 66.6277 18.9046L66.6257 16.9046C66.2306 16.905 65.8518 17.0622 65.5725 17.3415L66.9867 18.7557Z" fill="url(#paint4_linear_146_17124)" mask="url(#path-11-inside-1_146_17124)"/>
<mask id="path-13-inside-2_146_17124" fill="white">
<path d="M43.6279 18.6406C43.4984 18.6406 43.3718 18.679 43.2641 18.751C43.1565 18.8229 43.0725 18.9252 43.023 19.0448C42.9734 19.1645 42.9605 19.2961 42.9857 19.4231C43.011 19.5501 43.0733 19.6668 43.1649 19.7584C43.2565 19.8499 43.3732 19.9123 43.5002 19.9376C43.6272 19.9628 43.7588 19.9499 43.8785 19.9003C43.9981 19.8508 44.1004 19.7668 44.1723 19.6592C44.2443 19.5515 44.2827 19.4249 44.2827 19.2954C44.2825 19.1218 44.2134 18.9554 44.0907 18.8326C43.9679 18.7099 43.8015 18.6408 43.6279 18.6406ZM43.6279 19.6228C43.5632 19.6228 43.4999 19.6036 43.446 19.5676C43.3922 19.5316 43.3502 19.4805 43.3254 19.4207C43.3007 19.3608 43.2942 19.295 43.3068 19.2315C43.3194 19.168 43.3506 19.1097 43.3964 19.0639C43.4422 19.0181 43.5005 18.9869 43.564 18.9743C43.6275 18.9617 43.6934 18.9681 43.7532 18.9929C43.813 19.0177 43.8641 19.0597 43.9001 19.1135C43.9361 19.1673 43.9553 19.2306 43.9553 19.2954C43.9552 19.3822 43.9207 19.4654 43.8593 19.5268C43.7979 19.5882 43.7147 19.6227 43.6279 19.6228Z"/>
</mask>
<path d="M43.6279 18.6406C43.4984 18.6406 43.3718 18.679 43.2641 18.751C43.1565 18.8229 43.0725 18.9252 43.023 19.0448C42.9734 19.1645 42.9605 19.2961 42.9857 19.4231C43.011 19.5501 43.0733 19.6668 43.1649 19.7584C43.2565 19.8499 43.3732 19.9123 43.5002 19.9376C43.6272 19.9628 43.7588 19.9499 43.8785 19.9003C43.9981 19.8508 44.1004 19.7668 44.1723 19.6592C44.2443 19.5515 44.2827 19.4249 44.2827 19.2954C44.2825 19.1218 44.2134 18.9554 44.0907 18.8326C43.9679 18.7099 43.8015 18.6408 43.6279 18.6406ZM43.6279 19.6228C43.5632 19.6228 43.4999 19.6036 43.446 19.5676C43.3922 19.5316 43.3502 19.4805 43.3254 19.4207C43.3007 19.3608 43.2942 19.295 43.3068 19.2315C43.3194 19.168 43.3506 19.1097 43.3964 19.0639C43.4422 19.0181 43.5005 18.9869 43.564 18.9743C43.6275 18.9617 43.6934 18.9681 43.7532 18.9929C43.813 19.0177 43.8641 19.0597 43.9001 19.1135C43.9361 19.1673 43.9553 19.2306 43.9553 19.2954C43.9552 19.3822 43.9207 19.4654 43.8593 19.5268C43.7979 19.5882 43.7147 19.6227 43.6279 19.6228Z" fill="white"/>
<path d="M43.6279 18.6406L43.629 17.6406H43.6279V18.6406ZM44.2827 19.2954H45.2827L45.2827 19.2942L44.2827 19.2954ZM43.6279 19.6228V20.6228L43.6289 20.6228L43.6279 19.6228ZM43.9553 19.2954L44.9553 19.2964V19.2954H43.9553ZM43.6279 17.6406C43.3006 17.6406 42.9807 17.7377 42.7086 17.9195L43.8197 19.5824C43.7629 19.6204 43.6962 19.6406 43.6279 19.6406V17.6406ZM42.7086 17.9195C42.4364 18.1013 42.2244 18.3598 42.0991 18.6621L43.9469 19.4275C43.9207 19.4906 43.8765 19.5445 43.8197 19.5824L42.7086 17.9195ZM42.0991 18.6621C41.9739 18.9645 41.9411 19.2972 42.0049 19.6182L43.9665 19.228C43.9798 19.295 43.973 19.3644 43.9469 19.4275L42.0991 18.6621ZM42.0049 19.6182C42.0688 19.9392 42.2264 20.2341 42.4578 20.4655L43.872 19.0513C43.9203 19.0996 43.9532 19.1611 43.9665 19.228L42.0049 19.6182ZM42.4578 20.4655C42.6892 20.6969 42.9841 20.8545 43.3051 20.9184L43.6953 18.9568C43.7622 18.9701 43.8237 19.003 43.872 19.0513L42.4578 20.4655ZM43.3051 20.9184C43.6261 20.9822 43.9588 20.9494 44.2612 20.8242L43.4958 18.9764C43.5589 18.9503 43.6283 18.9435 43.6953 18.9568L43.3051 20.9184ZM44.2612 20.8242C44.5635 20.6989 44.822 20.4868 45.0038 20.2147L43.3409 19.1036C43.3788 19.0468 43.4327 19.0026 43.4958 18.9764L44.2612 20.8242ZM45.0038 20.2147C45.1856 19.9426 45.2827 19.6227 45.2827 19.2954H43.2827C43.2827 19.2271 43.3029 19.1604 43.3409 19.1036L45.0038 20.2147ZM45.2827 19.2942C45.2822 18.8558 45.1078 18.4355 44.7978 18.1255L43.3836 19.5397C43.3191 19.4752 43.2828 19.3878 43.2827 19.2965L45.2827 19.2942ZM44.7978 18.1255C44.4878 17.8155 44.0675 17.6411 43.629 17.6406L43.6268 19.6406C43.5355 19.6405 43.4481 19.6042 43.3836 19.5397L44.7978 18.1255ZM43.6279 18.6228C43.7609 18.6228 43.891 18.6622 44.0016 18.7361L42.8905 20.3991C43.1087 20.5449 43.3654 20.6228 43.6279 20.6228V18.6228ZM44.0016 18.7361C44.1122 18.81 44.1984 18.9151 44.2493 19.038L42.4016 19.8034C42.502 20.0459 42.6722 20.2532 42.8905 20.3991L44.0016 18.7361ZM44.2493 19.038C44.3002 19.1609 44.3136 19.2962 44.2876 19.4266L42.326 19.0364C42.2748 19.2939 42.3011 19.5608 42.4016 19.8034L44.2493 19.038ZM44.2876 19.4266C44.2617 19.5571 44.1976 19.6769 44.1035 19.771L42.6893 18.3568C42.5037 18.5424 42.3772 18.779 42.326 19.0364L44.2876 19.4266ZM44.1035 19.771C44.0095 19.8651 43.8896 19.9291 43.7591 19.9551L43.3689 17.9935C43.1115 18.0447 42.8749 18.1712 42.6893 18.3568L44.1035 19.771ZM43.7591 19.9551C43.6287 19.981 43.4934 19.9677 43.3705 19.9168L44.1359 18.069C43.8933 17.9686 43.6264 17.9423 43.3689 17.9935L43.7591 19.9551ZM43.3705 19.9168C43.2476 19.8659 43.1425 19.7797 43.0686 19.6691L44.7316 18.5579C44.5857 18.3397 44.3784 18.1695 44.1359 18.069L43.3705 19.9168ZM43.0686 19.6691C42.9947 19.5585 42.9553 19.4284 42.9553 19.2954H44.9553C44.9553 19.0328 44.8774 18.7762 44.7316 18.5579L43.0686 19.6691ZM42.9553 19.2944C42.9555 19.1163 43.0263 18.9456 43.1522 18.8197L44.5664 20.2339C44.8151 19.9852 44.9549 19.648 44.9553 19.2964L42.9553 19.2944ZM43.1522 18.8197C43.2781 18.6938 43.4488 18.6229 43.6269 18.6228L43.6289 20.6228C43.9806 20.6224 44.3177 20.4826 44.5664 20.2339L43.1522 18.8197Z" fill="url(#paint5_linear_146_17124)" mask="url(#path-13-inside-2_146_17124)"/>
<mask id="path-15-inside-3_146_17124" fill="white">
<path d="M66.2993 28.7896C66.1698 28.7896 66.0432 28.828 65.9355 28.8999C65.8278 28.9718 65.7439 29.0741 65.6944 29.1937C65.6448 29.3134 65.6318 29.445 65.6571 29.572C65.6824 29.6991 65.7447 29.8157 65.8363 29.9073C65.9279 29.9989 66.0445 30.0612 66.1716 30.0865C66.2986 30.1118 66.4302 30.0988 66.5499 30.0492C66.6695 29.9997 66.7718 29.9158 66.8437 29.8081C66.9157 29.7004 66.9541 29.5738 66.9541 29.4443C66.9539 29.2707 66.8848 29.1043 66.7621 28.9815C66.6393 28.8588 66.4729 28.7897 66.2993 28.7896ZM66.2993 29.7717C66.2345 29.7717 66.1712 29.7525 66.1174 29.7165C66.0636 29.6805 66.0216 29.6294 65.9968 29.5696C65.9721 29.5098 65.9656 29.4439 65.9782 29.3804C65.9908 29.3169 66.022 29.2586 66.0678 29.2128C66.1136 29.167 66.1719 29.1359 66.2354 29.1232C66.2989 29.1106 66.3648 29.1171 66.4246 29.1419C66.4844 29.1666 66.5355 29.2086 66.5715 29.2624C66.6075 29.3163 66.6267 29.3796 66.6267 29.4443C66.6266 29.5311 66.5921 29.6143 66.5307 29.6757C66.4693 29.7371 66.3861 29.7716 66.2993 29.7717Z"/>
</mask>
<path d="M66.2993 28.7896C66.1698 28.7896 66.0432 28.828 65.9355 28.8999C65.8278 28.9718 65.7439 29.0741 65.6944 29.1937C65.6448 29.3134 65.6318 29.445 65.6571 29.572C65.6824 29.6991 65.7447 29.8157 65.8363 29.9073C65.9279 29.9989 66.0445 30.0612 66.1716 30.0865C66.2986 30.1118 66.4302 30.0988 66.5499 30.0492C66.6695 29.9997 66.7718 29.9158 66.8437 29.8081C66.9157 29.7004 66.9541 29.5738 66.9541 29.4443C66.9539 29.2707 66.8848 29.1043 66.7621 28.9815C66.6393 28.8588 66.4729 28.7897 66.2993 28.7896ZM66.2993 29.7717C66.2345 29.7717 66.1712 29.7525 66.1174 29.7165C66.0636 29.6805 66.0216 29.6294 65.9968 29.5696C65.9721 29.5098 65.9656 29.4439 65.9782 29.3804C65.9908 29.3169 66.022 29.2586 66.0678 29.2128C66.1136 29.167 66.1719 29.1359 66.2354 29.1232C66.2989 29.1106 66.3648 29.1171 66.4246 29.1419C66.4844 29.1666 66.5355 29.2086 66.5715 29.2624C66.6075 29.3163 66.6267 29.3796 66.6267 29.4443C66.6266 29.5311 66.5921 29.6143 66.5307 29.6757C66.4693 29.7371 66.3861 29.7716 66.2993 29.7717Z" fill="white"/>
<path d="M66.2993 28.7896L66.3004 27.7896H66.2993V28.7896ZM66.9541 29.4443H67.9541L67.9541 29.4432L66.9541 29.4443ZM66.2993 29.7717V30.7717L66.3003 30.7717L66.2993 29.7717ZM66.6267 29.4443L67.6267 29.4453V29.4443H66.6267ZM66.2993 27.7896C65.972 27.7896 65.6521 27.8866 65.38 28.0684L66.4911 29.7314C66.4343 29.7693 66.3676 29.7896 66.2993 29.7896V27.7896ZM65.38 28.0684C65.1078 28.2503 64.8957 28.5087 64.7705 28.8111L66.6182 29.5764C66.5921 29.6395 66.5479 29.6934 66.4911 29.7314L65.38 28.0684ZM64.7705 28.8111C64.6452 29.1134 64.6125 29.4462 64.6763 29.7671L66.6379 29.377C66.6512 29.4439 66.6444 29.5133 66.6182 29.5764L64.7705 28.8111ZM64.6763 29.7671C64.7402 30.0881 64.8978 30.383 65.1292 30.6144L66.5434 29.2002C66.5917 29.2485 66.6246 29.31 66.6379 29.377L64.6763 29.7671ZM65.1292 30.6144C65.3606 30.8458 65.6555 31.0034 65.9765 31.0673L66.3666 29.1057C66.4336 29.119 66.4951 29.1519 66.5434 29.2002L65.1292 30.6144ZM65.9765 31.0673C66.2975 31.1311 66.6302 31.0984 66.9325 30.9731L66.1672 29.1254C66.2303 29.0992 66.2997 29.0924 66.3666 29.1057L65.9765 31.0673ZM66.9325 30.9731C67.2349 30.8479 67.4934 30.6358 67.6752 30.3636L66.0122 29.2525C66.0502 29.1957 66.1041 29.1515 66.1672 29.1254L66.9325 30.9731ZM67.6752 30.3636C67.857 30.0915 67.9541 29.7716 67.9541 29.4443H65.9541C65.9541 29.376 65.9743 29.3093 66.0122 29.2525L67.6752 30.3636ZM67.9541 29.4432C67.9536 29.0048 67.7792 28.5844 67.4692 28.2744L66.055 29.6887C65.9904 29.6241 65.9542 29.5367 65.9541 29.4455L67.9541 29.4432ZM67.4692 28.2744C67.1592 27.9644 66.7388 27.7901 66.3004 27.7896L66.2981 29.7896C66.2069 29.7894 66.1195 29.7532 66.055 29.6887L67.4692 28.2744ZM66.2993 28.7717C66.4323 28.7717 66.5624 28.8111 66.673 28.885L65.5618 30.548C65.7801 30.6938 66.0368 30.7717 66.2993 30.7717V28.7717ZM66.673 28.885C66.7836 28.959 66.8698 29.064 66.9207 29.1869L65.073 29.9523C65.1734 30.1948 65.3435 30.4021 65.5618 30.548L66.673 28.885ZM66.9207 29.1869C66.9716 29.3098 66.9849 29.445 66.959 29.5755L64.9974 29.1854C64.9462 29.4429 64.9725 29.7098 65.073 29.9523L66.9207 29.1869ZM66.959 29.5755C66.933 29.706 66.869 29.8259 66.7749 29.9199L65.3607 28.5057C65.1751 28.6913 65.0486 28.9279 64.9974 29.1854L66.959 29.5755ZM66.7749 29.9199C66.6808 30.014 66.561 30.0781 66.4305 30.104L66.0403 28.1424C65.7829 28.1937 65.5463 28.3201 65.3607 28.5057L66.7749 29.9199ZM66.4305 30.104C66.3 30.13 66.1648 30.1166 66.0419 30.0657L66.8073 28.218C66.5647 28.1175 66.2978 28.0912 66.0403 28.1424L66.4305 30.104ZM66.0419 30.0657C65.919 30.0148 65.8139 29.9286 65.74 29.818L67.403 28.7069C67.2571 28.4886 67.0498 28.3184 66.8073 28.218L66.0419 30.0657ZM65.74 29.818C65.6661 29.7074 65.6267 29.5774 65.6267 29.4443H67.6267C67.6267 29.1818 67.5488 28.9251 67.403 28.7069L65.74 29.818ZM65.6267 29.4433C65.6269 29.2653 65.6977 29.0945 65.8236 28.9686L67.2378 30.3828C67.4865 30.1341 67.6263 29.797 67.6267 29.4453L65.6267 29.4433ZM65.8236 28.9686C65.9495 28.8427 66.1202 28.7719 66.2983 28.7717L66.3003 30.7717C66.652 30.7713 66.9891 30.6315 67.2378 30.3828L65.8236 28.9686Z" fill="url(#paint6_linear_146_17124)" mask="url(#path-15-inside-3_146_17124)"/>
<mask id="path-17-inside-4_146_17124" fill="white">
<path d="M19.4018 28.7896C19.2723 28.7896 19.1457 28.828 19.0381 28.8999C18.9304 28.9718 18.8465 29.0741 18.7969 29.1937C18.7474 29.3134 18.7344 29.445 18.7597 29.572C18.7849 29.6991 18.8473 29.8157 18.9388 29.9073C19.0304 29.9989 19.1471 30.0612 19.2741 30.0865C19.4011 30.1118 19.5328 30.0988 19.6524 30.0492C19.772 29.9997 19.8743 29.9158 19.9462 29.8081C20.0182 29.7004 20.0566 29.5738 20.0566 29.4443C20.0564 29.2707 19.9873 29.1043 19.8646 28.9815C19.7419 28.8588 19.5754 28.7897 19.4018 28.7896ZM19.4018 29.7717C19.3371 29.7717 19.2738 29.7525 19.2199 29.7165C19.1661 29.6805 19.1242 29.6294 19.0994 29.5696C19.0746 29.5098 19.0681 29.4439 19.0807 29.3804C19.0934 29.3169 19.1246 29.2586 19.1703 29.2128C19.2161 29.167 19.2745 29.1359 19.338 29.1232C19.4015 29.1106 19.4673 29.1171 19.5271 29.1419C19.5869 29.1666 19.6381 29.2086 19.674 29.2624C19.71 29.3163 19.7292 29.3796 19.7292 29.4443C19.7291 29.5311 19.6946 29.6143 19.6332 29.6757C19.5719 29.7371 19.4886 29.7716 19.4018 29.7717Z"/>
</mask>
<path d="M19.4018 28.7896C19.2723 28.7896 19.1457 28.828 19.0381 28.8999C18.9304 28.9718 18.8465 29.0741 18.7969 29.1937C18.7474 29.3134 18.7344 29.445 18.7597 29.572C18.7849 29.6991 18.8473 29.8157 18.9388 29.9073C19.0304 29.9989 19.1471 30.0612 19.2741 30.0865C19.4011 30.1118 19.5328 30.0988 19.6524 30.0492C19.772 29.9997 19.8743 29.9158 19.9462 29.8081C20.0182 29.7004 20.0566 29.5738 20.0566 29.4443C20.0564 29.2707 19.9873 29.1043 19.8646 28.9815C19.7419 28.8588 19.5754 28.7897 19.4018 28.7896ZM19.4018 29.7717C19.3371 29.7717 19.2738 29.7525 19.2199 29.7165C19.1661 29.6805 19.1242 29.6294 19.0994 29.5696C19.0746 29.5098 19.0681 29.4439 19.0807 29.3804C19.0934 29.3169 19.1246 29.2586 19.1703 29.2128C19.2161 29.167 19.2745 29.1359 19.338 29.1232C19.4015 29.1106 19.4673 29.1171 19.5271 29.1419C19.5869 29.1666 19.6381 29.2086 19.674 29.2624C19.71 29.3163 19.7292 29.3796 19.7292 29.4443C19.7291 29.5311 19.6946 29.6143 19.6332 29.6757C19.5719 29.7371 19.4886 29.7716 19.4018 29.7717Z" fill="white"/>
<path d="M19.4018 28.7896L19.403 27.7896H19.4018V28.7896ZM20.0566 29.4443H21.0566L21.0566 29.4432L20.0566 29.4443ZM19.4018 29.7717V30.7717L19.4028 30.7717L19.4018 29.7717ZM19.7292 29.4443L20.7292 29.4453V29.4443H19.7292ZM19.4018 27.7896C19.0746 27.7896 18.7546 27.8866 18.4825 28.0684L19.5936 29.7314C19.5369 29.7693 19.4701 29.7896 19.4018 29.7896V27.7896ZM18.4825 28.0684C18.2104 28.2503 17.9983 28.5087 17.873 28.8111L19.7208 29.5764C19.6947 29.6395 19.6504 29.6934 19.5936 29.7314L18.4825 28.0684ZM17.873 28.8111C17.7478 29.1134 17.715 29.4461 17.7789 29.7671L19.7404 29.377C19.7538 29.4439 19.7469 29.5133 19.7208 29.5764L17.873 28.8111ZM17.7789 29.7671C17.8427 30.0881 18.0003 30.383 18.2317 30.6144L19.646 29.2002C19.6942 29.2485 19.7271 29.31 19.7404 29.377L17.7789 29.7671ZM18.2317 30.6144C18.4632 30.8458 18.758 31.0034 19.079 31.0673L19.4692 29.1057C19.5362 29.119 19.5977 29.1519 19.646 29.2002L18.2317 30.6144ZM19.079 31.0673C19.4 31.1311 19.7327 31.0984 20.0351 30.9731L19.2697 29.1254C19.3328 29.0992 19.4022 29.0924 19.4692 29.1057L19.079 31.0673ZM20.0351 30.9731C20.3375 30.8479 20.5959 30.6358 20.7777 30.3636L19.1148 29.2525C19.1527 29.1957 19.2066 29.1515 19.2697 29.1254L20.0351 30.9731ZM20.7777 30.3636C20.9595 30.0915 21.0566 29.7716 21.0566 29.4443H19.0566C19.0566 29.376 19.0768 29.3093 19.1148 29.2525L20.7777 30.3636ZM21.0566 29.4432C21.0561 29.0048 20.8817 28.5844 20.5717 28.2744L19.1575 29.6887C19.093 29.6241 19.0567 29.5367 19.0566 29.4455L21.0566 29.4432ZM20.5717 28.2744C20.2617 27.9644 19.8414 27.7901 19.403 27.7896L19.4007 29.7896C19.3095 29.7894 19.222 29.7532 19.1575 29.6887L20.5717 28.2744ZM19.4018 28.7717C19.5349 28.7717 19.6649 28.8111 19.7755 28.885L18.6644 30.548C18.8827 30.6938 19.1393 30.7717 19.4018 30.7717V28.7717ZM19.7755 28.885C19.8861 28.959 19.9723 29.064 20.0233 29.1869L18.1755 29.9523C18.276 30.1948 18.4461 30.4021 18.6644 30.548L19.7755 28.885ZM20.0233 29.1869C20.0742 29.3098 20.0875 29.4451 20.0615 29.5755L18.1 29.1854C18.0487 29.4428 18.075 29.7097 18.1755 29.9523L20.0233 29.1869ZM20.0615 29.5755C20.0356 29.706 19.9715 29.8259 19.8774 29.9199L18.4632 28.5057C18.2776 28.6913 18.1512 28.9279 18.1 29.1854L20.0615 29.5755ZM19.8774 29.9199C19.7834 30.014 19.6635 30.0781 19.5331 30.104L19.1429 28.1424C18.8854 28.1937 18.6489 28.3201 18.4632 28.5057L19.8774 29.9199ZM19.5331 30.104C19.4026 30.13 19.2673 30.1166 19.1444 30.0657L19.9098 28.218C19.6672 28.1175 19.4004 28.0912 19.1429 28.1424L19.5331 30.104ZM19.1444 30.0657C19.0215 30.0148 18.9165 29.9286 18.8426 29.818L20.5055 28.7069C20.3597 28.4886 20.1523 28.3184 19.9098 28.218L19.1444 30.0657ZM18.8426 29.818C18.7687 29.7074 18.7292 29.5773 18.7292 29.4443H20.7292C20.7292 29.1818 20.6514 28.9251 20.5055 28.7069L18.8426 29.818ZM18.7292 29.4433C18.7294 29.2652 18.8002 29.0945 18.9261 28.9686L20.3403 30.3828C20.589 30.1341 20.7289 29.797 20.7292 29.4453L18.7292 29.4433ZM18.9261 28.9686C19.052 28.8427 19.2228 28.7719 19.4008 28.7717L19.4028 30.7717C19.7545 30.7713 20.0917 30.6315 20.3403 30.3828L18.9261 28.9686Z" fill="url(#paint7_linear_146_17124)" mask="url(#path-17-inside-4_146_17124)"/>
<mask id="path-19-inside-5_146_17124" fill="white">
<path d="M33.5956 16.8619C33.5028 16.9522 33.4389 17.068 33.4119 17.1947C33.3849 17.3213 33.396 17.4531 33.4439 17.5735C33.4918 17.6938 33.5743 17.7972 33.681 17.8706C33.7877 17.944 33.9137 17.9841 34.0432 17.9859C34.1727 17.9877 34.2998 17.951 34.4085 17.8806C34.5171 17.8101 34.6025 17.709 34.6536 17.5901C34.7048 17.4711 34.7196 17.3396 34.6961 17.2123C34.6726 17.085 34.6118 16.9674 34.5215 16.8746C34.4003 16.7503 34.2348 16.6792 34.0612 16.6768C33.8876 16.6744 33.7202 16.741 33.5956 16.8619ZM34.2805 17.5659C34.2341 17.611 34.1754 17.6414 34.1117 17.6531C34.048 17.6649 33.9823 17.6575 33.9228 17.6319C33.8633 17.6063 33.8128 17.5637 33.7775 17.5093C33.7423 17.455 33.724 17.3915 33.7249 17.3267C33.7258 17.262 33.7458 17.1989 33.7825 17.1456C33.8192 17.0923 33.8709 17.051 33.9311 17.0271C33.9913 17.0031 34.0572 16.9975 34.1205 17.011C34.1838 17.0245 34.2417 17.0565 34.2869 17.1029C34.3473 17.1652 34.3806 17.2489 34.3794 17.3357C34.3782 17.4225 34.3427 17.5053 34.2805 17.5659Z"/>
</mask>
<path d="M33.5956 16.8619C33.5028 16.9522 33.4389 17.068 33.4119 17.1947C33.3849 17.3213 33.396 17.4531 33.4439 17.5735C33.4918 17.6938 33.5743 17.7972 33.681 17.8706C33.7877 17.944 33.9137 17.9841 34.0432 17.9859C34.1727 17.9877 34.2998 17.951 34.4085 17.8806C34.5171 17.8101 34.6025 17.709 34.6536 17.5901C34.7048 17.4711 34.7196 17.3396 34.6961 17.2123C34.6726 17.085 34.6118 16.9674 34.5215 16.8746C34.4003 16.7503 34.2348 16.6792 34.0612 16.6768C33.8876 16.6744 33.7202 16.741 33.5956 16.8619ZM34.2805 17.5659C34.2341 17.611 34.1754 17.6414 34.1117 17.6531C34.048 17.6649 33.9823 17.6575 33.9228 17.6319C33.8633 17.6063 33.8128 17.5637 33.7775 17.5093C33.7423 17.455 33.724 17.3915 33.7249 17.3267C33.7258 17.262 33.7458 17.1989 33.7825 17.1456C33.8192 17.0923 33.8709 17.051 33.9311 17.0271C33.9913 17.0031 34.0572 16.9975 34.1205 17.011C34.1838 17.0245 34.2417 17.0565 34.2869 17.1029C34.3473 17.1652 34.3806 17.2489 34.3794 17.3357C34.3782 17.4225 34.3427 17.5053 34.2805 17.5659Z" fill="white"/>
<path d="M33.5956 16.8619L32.8991 16.1444L32.8983 16.1452L33.5956 16.8619ZM34.5215 16.8746L35.2383 16.1773L35.2375 16.1765L34.5215 16.8746ZM34.2805 17.5659L34.9779 18.2826L34.9786 18.2819L34.2805 17.5659ZM34.2869 17.1029L35.0043 16.4063L35.0036 16.4056L34.2869 17.1029ZM32.8983 16.1452C32.6637 16.3734 32.5021 16.666 32.4338 16.9861L34.3899 17.4032C34.3756 17.47 34.3419 17.531 34.293 17.5787L32.8983 16.1452ZM32.4338 16.9861C32.3656 17.3062 32.3938 17.6394 32.5149 17.9434L34.373 17.2035C34.3982 17.2669 34.4041 17.3364 34.3899 17.4032L32.4338 16.9861ZM32.5149 17.9434C32.636 18.2475 32.8445 18.5088 33.1141 18.6943L34.2479 17.0468C34.3042 17.0855 34.3477 17.14 34.373 17.2035L32.5149 17.9434ZM33.1141 18.6943C33.3837 18.8799 33.7023 18.9813 34.0295 18.9858L34.057 16.986C34.1252 16.9869 34.1917 17.0081 34.2479 17.0468L33.1141 18.6943ZM34.0295 18.9858C34.3568 18.9903 34.678 18.8977 34.9526 18.7196L33.8644 17.0415C33.9217 17.0044 33.9887 16.9851 34.057 16.986L34.0295 18.9858ZM34.9526 18.7196C35.2272 18.5415 35.4428 18.286 35.5722 17.9854L33.7351 17.1947C33.7621 17.132 33.8071 17.0787 33.8644 17.0415L34.9526 18.7196ZM35.5722 17.9854C35.7016 17.6848 35.7389 17.3525 35.6795 17.0307L33.7127 17.3939C33.7003 17.3268 33.7081 17.2575 33.7351 17.1947L35.5722 17.9854ZM35.6795 17.0307C35.62 16.7089 35.4665 16.4119 35.2383 16.1773L33.8048 17.572C33.7572 17.523 33.7251 17.4611 33.7127 17.3939L35.6795 17.0307ZM35.2375 16.1765C34.9314 15.8626 34.5133 15.6829 34.0749 15.6769L34.0475 17.6767C33.9563 17.6755 33.8693 17.6381 33.8056 17.5728L35.2375 16.1765ZM34.0749 15.6769C33.6366 15.6709 33.2137 15.839 32.8991 16.1444L34.2922 17.5795C34.2267 17.643 34.1387 17.678 34.0475 17.6767L34.0749 15.6769ZM33.5832 16.8491C33.6785 16.7563 33.7992 16.6939 33.9301 16.6698L34.2933 18.6365C34.5515 18.5888 34.7897 18.4657 34.9779 18.2826L33.5832 16.8491ZM33.9301 16.6698C34.0609 16.6456 34.1959 16.6608 34.3181 16.7134L33.5275 18.5505C33.7686 18.6542 34.0351 18.6842 34.2933 18.6365L33.9301 16.6698ZM34.3181 16.7134C34.4403 16.766 34.5442 16.8536 34.6166 16.9652L32.9385 18.0534C33.0814 18.2737 33.2863 18.4467 33.5275 18.5505L34.3181 16.7134ZM34.6166 16.9652C34.6889 17.0769 34.7266 17.2074 34.7248 17.3404L32.725 17.313C32.7214 17.5755 32.7957 17.8332 32.9385 18.0534L34.6166 16.9652ZM34.7248 17.3404C34.723 17.4735 34.6817 17.603 34.6063 17.7125L32.9588 16.5787C32.8099 16.7949 32.7286 17.0505 32.725 17.313L34.7248 17.3404ZM34.6063 17.7125C34.5309 17.8221 34.4247 17.9069 34.3011 17.9561L33.5611 16.098C33.3172 16.1951 33.1076 16.3624 32.9588 16.5787L34.6063 17.7125ZM34.3011 17.9561C34.1775 18.0053 34.0421 18.0168 33.912 17.989L34.329 16.033C34.0723 15.9783 33.805 16.0009 33.5611 16.098L34.3011 17.9561ZM33.912 17.989C33.7819 17.9613 33.6629 17.8956 33.5701 17.8003L35.0036 16.4056C34.8205 16.2174 34.5858 16.0878 34.329 16.033L33.912 17.989ZM33.5694 17.7995C33.4454 17.6718 33.3771 17.5 33.3795 17.322L35.3793 17.3494C35.3842 16.9978 35.2493 16.6586 35.0043 16.4063L33.5694 17.7995ZM33.3795 17.322C33.382 17.1439 33.455 16.9741 33.5825 16.8498L34.9786 18.2819C35.2304 18.0364 35.3745 17.7011 35.3793 17.3494L33.3795 17.322Z" fill="url(#paint8_linear_146_17124)" mask="url(#path-19-inside-5_146_17124)"/>
<path d="M16.3189 17.335L16.8057 16.6947L16.4983 16.5205L16.186 17.2375H16.1755L15.858 16.5257L15.5453 16.7048L16.0269 17.3298V17.3403L15.2739 17.2427V17.591L16.0321 17.4938V17.504L15.5453 18.1289L15.8373 18.3132L16.1706 17.591H16.1804L16.4879 18.308L16.8107 18.1237L16.3189 17.5092V17.4987L17.0922 17.591V17.2427L16.3189 17.3452V17.335Z" fill="white"/>
<path d="M59.7141 23.5737L59.4338 23.9335L59.6018 24.0399L59.794 23.6238H59.7995L59.9766 24.0366L60.1626 23.9305L59.8794 23.5766V23.5707L60.3246 23.6238V23.4231L59.8794 23.482V23.4761L60.1596 23.1075L59.9825 23.0073L59.8028 23.4202H59.7966L59.6139 23.0103L59.4338 23.1134L59.7111 23.4735V23.4794L59.2773 23.4231V23.6238L59.7141 23.5678V23.5737Z" fill="white"/>
<path d="M55.0863 17.3194V16.9777L54.3278 17.0782V17.0683L54.8054 16.4401L54.5039 16.2695L54.1975 16.9727H54.187L53.8757 16.2744L53.5689 16.4502L54.0413 17.0631V17.0733L53.3027 16.9777V17.3194L54.0462 17.2242V17.234L53.5689 17.8469L53.8554 18.0279L54.1821 17.3194H54.1919L54.4934 18.0227L54.81 17.8419L54.3278 17.2389V17.2291L55.0863 17.3194Z" fill="white"/>
<path d="M26.9131 23.2523L27.3249 22.7108L27.065 22.5635L26.8004 23.1701H26.7916L26.5232 22.5677L26.2586 22.7193L26.6662 23.248V23.2569L26.0288 23.1744V23.469L26.6705 23.3868V23.3954L26.2586 23.9241L26.5055 24.0802L26.7877 23.469H26.7959L27.0561 24.0756L27.3292 23.9198L26.9131 23.3996V23.3911L27.5675 23.469V23.1744L26.9131 23.2611V23.2523Z" fill="white"/>
<path d="M14.8095 63.4922C14.8095 63.5776 14.7402 63.6469 14.6548 63.6469C14.5693 63.6469 14.5 63.5776 14.5 63.4922C14.5 63.4067 14.5693 63.3374 14.6548 63.3374C14.7402 63.3374 14.8095 63.4067 14.8095 63.4922Z" fill="white" stroke="url(#paint9_linear_146_17124)"/>
<path d="M16.6191 63.3379H17.6013C17.6423 63.3379 17.6817 63.3542 17.7107 63.3832C17.7397 63.4122 17.756 63.4516 17.756 63.4927C17.756 63.5337 17.7397 63.5731 17.7107 63.6021L18.0642 63.9556L17.7107 63.6021C17.6817 63.6311 17.6423 63.6474 17.6013 63.6474H16.6191C16.5781 63.6474 16.5387 63.6311 16.5097 63.6021C16.4807 63.5731 16.4644 63.5337 16.4644 63.4927C16.4644 63.4516 16.4807 63.4122 16.5097 63.3832C16.5387 63.3542 16.5781 63.3379 16.6191 63.3379Z" fill="white" stroke="url(#paint10_linear_146_17124)"/>
<path d="M65.3989 63.3379H66.381C66.4221 63.3379 66.4615 63.3542 66.4905 63.3832C66.5195 63.4122 66.5358 63.4516 66.5358 63.4927C66.5358 63.5337 66.5195 63.5731 66.4905 63.6021C66.4615 63.6311 66.4221 63.6474 66.381 63.6474H65.3989C65.3579 63.6474 65.3185 63.6311 65.2895 63.6021C65.2604 63.5731 65.2441 63.5337 65.2441 63.4927C65.2441 63.4516 65.2604 63.4122 65.2895 63.3832C65.3185 63.3542 65.3579 63.3379 65.3989 63.3379Z" fill="white" stroke="url(#paint11_linear_146_17124)"/>
<path d="M68.5 63.4922C68.5 63.5776 68.4307 63.6469 68.3452 63.6469C68.2597 63.6469 68.1904 63.5776 68.1904 63.4922C68.1904 63.4067 68.2597 63.3374 68.3452 63.3374C68.4307 63.3374 68.5 63.4067 68.5 63.4922Z" fill="white" stroke="url(#paint12_linear_146_17124)"/>
<path d="M52.6811 65.4565H49.9613C49.7967 65.4697 49.6431 65.5444 49.5311 65.6658C49.4191 65.7871 49.3569 65.9462 49.3569 66.1113C49.3569 66.2764 49.4191 66.4355 49.5311 66.5568C49.6431 66.6782 49.7967 66.7529 49.9613 66.7661H52.6811C52.8457 66.7529 52.9993 66.6782 53.1113 66.5568C53.2233 66.4355 53.2855 66.2764 53.2855 66.1113C53.2855 65.9462 53.2233 65.7871 53.1113 65.6658C52.9993 65.5444 52.8457 65.4697 52.6811 65.4565Z" fill="white"/>
<path d="M33.0385 65.4565H30.3188C30.1542 65.4697 30.0006 65.5444 29.8886 65.6658C29.7765 65.7871 29.7144 65.9462 29.7144 66.1113C29.7144 66.2764 29.7765 66.4355 29.8886 66.5568C30.0006 66.6782 30.1542 66.7529 30.3188 66.7661H33.0385C33.2031 66.7529 33.3567 66.6782 33.4687 66.5568C33.5808 66.4355 33.6429 66.2764 33.6429 66.1113C33.6429 65.9462 33.5808 65.7871 33.4687 65.6658C33.3567 65.5444 33.2031 65.4697 33.0385 65.4565Z" fill="white"/>
<path d="M48.0479 65.4565H34.9526C34.779 65.4565 34.6124 65.5255 34.4896 65.6483C34.3668 65.7711 34.2979 65.9377 34.2979 66.1113C34.2979 66.285 34.3668 66.4515 34.4896 66.5743C34.6124 66.6971 34.779 66.7661 34.9526 66.7661H40.1711V67.4208H37.5717C37.398 67.4208 37.2315 67.4898 37.1087 67.6126C36.9859 67.7354 36.9169 67.9019 36.9169 68.0756C36.9169 68.2492 36.9859 68.4158 37.1087 68.5386C37.2315 68.6614 37.398 68.7304 37.5717 68.7304H45.7562C45.9298 68.7304 46.0964 68.6614 46.2192 68.5386C46.342 68.4158 46.4109 68.2492 46.4109 68.0756C46.4109 67.9019 46.342 67.7354 46.2192 67.6126C46.0964 67.4898 45.9298 67.4208 45.7562 67.4208H42.8294V66.7661H48.0479C48.2215 66.7661 48.388 66.6971 48.5108 66.5743C48.6336 66.4515 48.7026 66.285 48.7026 66.1113C48.7026 65.9377 48.6336 65.7711 48.5108 65.6483C48.388 65.5255 48.2215 65.4565 48.0479 65.4565Z" fill="white"/>
<path d="M63.3431 63.3379H63.3756L63.4079 63.3337C63.4305 63.3307 63.4534 63.3326 63.4753 63.3393C63.4971 63.3459 63.5173 63.3571 63.5344 63.3722C63.5516 63.3872 63.5653 63.4058 63.5747 63.4265L64.0302 63.2203L63.5747 63.4266C63.5841 63.4473 63.589 63.4699 63.589 63.4927C63.589 63.5155 63.5841 63.538 63.5747 63.5588C63.5653 63.5796 63.5516 63.5981 63.5344 63.6132L63.8643 63.9889L63.5344 63.6132C63.5173 63.6282 63.4971 63.6394 63.4753 63.6461L63.6208 64.1244L63.4753 63.6461C63.4535 63.6527 63.4305 63.6546 63.4079 63.6517L63.3756 63.6474H63.3431H19.6565H19.624L19.5917 63.6517C19.5691 63.6546 19.5462 63.6527 19.5243 63.6461C19.5025 63.6394 19.4823 63.6282 19.4652 63.6132L19.1355 63.9887L19.4652 63.6132C19.4481 63.5981 19.4343 63.5796 19.4249 63.5588C19.4155 63.538 19.4106 63.5155 19.4106 63.4927C19.4106 63.4699 19.4155 63.4473 19.4249 63.4266L18.9698 63.2205L19.4249 63.4265C19.4343 63.4058 19.4481 63.3872 19.4652 63.3722C19.4823 63.3571 19.5025 63.3459 19.5243 63.3393C19.5461 63.3326 19.5691 63.3307 19.5918 63.3337L19.624 63.3379H19.6565H29.1785H29.8966L29.7754 63.0104C29.9122 63.0087 30.0483 62.9957 30.1825 62.9715C30.2341 63.0268 30.2913 63.0771 30.3534 63.1217C30.5483 63.2615 30.782 63.3371 31.022 63.3379H31.0236H57.2141H57.2147C57.5207 63.3376 57.814 63.2159 58.0304 62.9995C58.2468 62.7831 58.3685 62.4897 58.3689 62.1837V62.1832V60.8736V60.3736H57.8689H32.3888L32.4863 60.0641H57.8689H58.3689V59.5641V34.0284V33.5284H57.8689H34.7974V33.2189H57.8689H58.3689V32.7189V28.6266V28.1266H57.8689L54.7593 28.1266C54.7592 28.1266 54.759 28.1266 54.7589 28.1266C54.3707 28.1261 53.9985 27.9716 53.724 27.6971C53.4493 27.4225 53.2949 27.0501 53.2945 26.6618V23.5522V23.0522H52.7945L31.0236 23.0522L31.023 23.0522C30.717 23.0525 30.4237 23.1743 30.2073 23.3906C29.9909 23.607 29.8692 23.9004 29.8689 24.2064V24.207V25.9986H29.5593V24.2075C29.5598 23.8191 29.7142 23.4468 29.9888 23.1722C30.2634 22.8976 30.6356 22.7432 31.0239 22.7427H53.4475C53.4568 22.7428 53.466 22.7437 53.4751 22.7455L53.4817 22.7468C53.4912 22.7494 53.5004 22.753 53.5092 22.7575L53.5092 22.7575L53.5157 22.7607C53.5172 22.7615 53.5198 22.7628 53.5245 22.7655L53.5245 22.7656L53.5322 22.7698C53.5431 22.7759 53.5532 22.7832 53.5623 22.7917L58.6293 27.8588C58.6379 27.8679 58.6452 27.878 58.6513 27.8889L58.6512 27.889L58.6555 27.8964C58.6586 27.9018 58.6597 27.904 58.66 27.9047L58.6599 27.9047L58.6638 27.9123C58.6688 27.9222 58.6727 27.9325 58.6755 27.9431C58.6774 27.9528 58.6784 27.9627 58.6784 27.9725V62.1821C58.678 62.3481 58.6492 62.5128 58.5932 62.6691L58.3533 63.3379H59.0638H63.3431ZM54.7582 27.8171H54.7587L56.9429 27.8171L58.15 27.8171L57.2964 26.9635L55.877 25.5441L55.5235 25.8977L55.877 25.5441L54.4575 24.1247L53.604 23.2712V24.4782V26.6623V26.6629C53.6043 26.9689 53.726 27.2622 53.9424 27.4786C54.1588 27.695 54.4522 27.8167 54.7582 27.8171Z" fill="white" stroke="url(#paint13_linear_146_17124)"/>
<defs>
<linearGradient id="paint0_linear_146_17124" x1="42" y1="0" x2="42" y2="84" gradientUnits="userSpaceOnUse">
<stop stop-color="#FDB64A"/>
<stop offset="1" stop-color="#F3BC50"/>
</linearGradient>
<linearGradient id="paint1_linear_146_17124" x1="47.7204" y1="43.1948" x2="47.7204" y2="49.0877" gradientUnits="userSpaceOnUse">
<stop stop-color="#FDB64A"/>
<stop offset="1" stop-color="#F3BC50"/>
</linearGradient>
<linearGradient id="paint2_linear_146_17124" x1="41.1725" y1="42.8672" x2="41.1725" y2="50.0702" gradientUnits="userSpaceOnUse">
<stop stop-color="#FDB64A"/>
<stop offset="1" stop-color="#F3BC50"/>
</linearGradient>
<linearGradient id="paint3_linear_146_17124" x1="28.4046" y1="27.8076" x2="28.4046" y2="61.2005" gradientUnits="userSpaceOnUse">
<stop stop-color="#FDB64A"/>
<stop offset="1" stop-color="#F3BC50"/>
</linearGradient>
<linearGradient id="paint4_linear_146_17124" x1="66.6267" y1="17.4136" x2="66.6267" y2="19.3779" gradientUnits="userSpaceOnUse">
<stop stop-color="#FDB64A"/>
<stop offset="1" stop-color="#F3BC50"/>
</linearGradient>
<linearGradient id="paint5_linear_146_17124" x1="43.6279" y1="18.6406" x2="43.6279" y2="19.9501" gradientUnits="userSpaceOnUse">
<stop stop-color="#FDB64A"/>
<stop offset="1" stop-color="#F3BC50"/>
</linearGradient>
<linearGradient id="paint6_linear_146_17124" x1="66.2993" y1="28.7896" x2="66.2993" y2="30.0991" gradientUnits="userSpaceOnUse">
<stop stop-color="#FDB64A"/>
<stop offset="1" stop-color="#F3BC50"/>
</linearGradient>
<linearGradient id="paint7_linear_146_17124" x1="19.4018" y1="28.7896" x2="19.4018" y2="30.0991" gradientUnits="userSpaceOnUse">
<stop stop-color="#FDB64A"/>
<stop offset="1" stop-color="#F3BC50"/>
</linearGradient>
<linearGradient id="paint8_linear_146_17124" x1="34.0522" y1="16.6768" x2="34.0522" y2="17.986" gradientUnits="userSpaceOnUse">
<stop stop-color="#FDB64A"/>
<stop offset="1" stop-color="#F3BC50"/>
</linearGradient>
<linearGradient id="paint9_linear_146_17124" x1="14.6548" y1="62.8374" x2="14.6548" y2="64.1469" gradientUnits="userSpaceOnUse">
<stop stop-color="#FDB64A"/>
<stop offset="1" stop-color="#F3BC50"/>
</linearGradient>
<linearGradient id="paint10_linear_146_17124" x1="17.1102" y1="62.8379" x2="17.1102" y2="64.1474" gradientUnits="userSpaceOnUse">
<stop stop-color="#FDB64A"/>
<stop offset="1" stop-color="#F3BC50"/>
</linearGradient>
<linearGradient id="paint11_linear_146_17124" x1="65.89" y1="62.8379" x2="65.89" y2="64.1474" gradientUnits="userSpaceOnUse">
<stop stop-color="#FDB64A"/>
<stop offset="1" stop-color="#F3BC50"/>
</linearGradient>
<linearGradient id="paint12_linear_146_17124" x1="68.3452" y1="62.8374" x2="68.3452" y2="64.1469" gradientUnits="userSpaceOnUse">
<stop stop-color="#FDB64A"/>
<stop offset="1" stop-color="#F3BC50"/>
</linearGradient>
<linearGradient id="paint13_linear_146_17124" x1="41.4998" y1="22.2427" x2="41.4998" y2="64.153" gradientUnits="userSpaceOnUse">
<stop stop-color="#FDB64A"/>
<stop offset="1" stop-color="#F3BC50"/>
</linearGradient>
</defs>
</svg>
