<svg width="84" height="84" viewBox="0 0 84 84" fill="none" xmlns="http://www.w3.org/2000/svg">
<rect x="0.5" y="0.5" width="83" height="83" rx="19.5" stroke="url(#paint0_linear_146_17258)"/>
<path d="M42.1546 27.7845V26.7856C42.1546 26.612 42.0856 26.4454 41.9628 26.3226C41.8401 26.1998 41.6735 26.1309 41.4999 26.1309C41.3262 26.1309 41.1597 26.1998 41.0369 26.3226C40.9141 26.4454 40.8451 26.612 40.8451 26.7856V27.7845C36.8229 27.9535 33.0109 29.6271 30.1642 32.4738C27.3176 35.3204 25.6439 39.1324 25.4749 43.1547H24.4761C24.3024 43.1547 24.1359 43.2237 24.0131 43.3464C23.8903 43.4692 23.8213 43.6358 23.8213 43.8094C23.8213 43.9831 23.8903 44.1496 24.0131 44.2724C24.1359 44.3952 24.3024 44.4642 24.4761 44.4642H25.4749C25.6439 48.4864 27.3176 52.2984 30.1642 55.1451C33.0109 57.9917 36.8229 59.6654 40.8451 59.8344V60.8332C40.8451 61.0069 40.9141 61.1734 41.0369 61.2962C41.1597 61.419 41.3262 61.488 41.4999 61.488C41.6735 61.488 41.8401 61.419 41.9628 61.2962C42.0856 61.1734 42.1546 61.0069 42.1546 60.8332V59.8344C46.1768 59.6654 49.9889 57.9917 52.8355 55.1451C55.6822 52.2984 57.3558 48.4864 57.5248 44.4642H58.5237C58.6973 44.4642 58.8639 44.3952 58.9867 44.2724C59.1094 44.1496 59.1784 43.9831 59.1784 43.8094C59.1784 43.6358 59.1094 43.4692 58.9867 43.3464C58.8639 43.2237 58.6973 43.1547 58.5237 43.1547H57.5248C57.3558 39.1324 55.6822 35.3204 52.8355 32.4738C49.9889 29.6271 46.1768 27.9535 42.1546 27.7845ZM55.2499 44.4642H56.2153C56.0517 48.1407 54.5178 51.6228 51.9155 54.2251C49.3132 56.8273 45.8311 58.3613 42.1546 58.5249V57.5594C42.1546 57.3858 42.0856 57.2192 41.9628 57.0964C41.8401 56.9737 41.6735 56.9047 41.4999 56.9047C41.3262 56.9047 41.1597 56.9737 41.0369 57.0964C40.9141 57.2192 40.8451 57.3858 40.8451 57.5594V58.5249C37.1686 58.3613 33.6865 56.8273 31.0842 54.2251C28.482 51.6228 26.948 48.1407 26.7844 44.4642H27.7499C27.9235 44.4642 28.0901 44.3952 28.2128 44.2724C28.3356 44.1496 28.4046 43.9831 28.4046 43.8094C28.4046 43.6358 28.3356 43.4692 28.2128 43.3464C28.0901 43.2237 27.9235 43.1547 27.7499 43.1547H26.7844C26.948 39.4782 28.482 35.9961 31.0842 33.3938C33.6865 30.7915 37.1686 29.2576 40.8451 29.094V30.0594C40.8451 30.2331 40.9141 30.3996 41.0369 30.5224C41.1597 30.6452 41.3262 30.7142 41.4999 30.7142C41.6735 30.7142 41.8401 30.6452 41.9628 30.5224C42.0856 30.3996 42.1546 30.2331 42.1546 30.0594V29.094C45.8311 29.2576 49.3132 30.7915 51.9155 33.3938C54.5178 35.9961 56.0517 39.4782 56.2153 43.1547H55.2499C55.0762 43.1547 54.9097 43.2237 54.7869 43.3464C54.6641 43.4692 54.5951 43.6358 54.5951 43.8094C54.5951 43.9831 54.6641 44.1496 54.7869 44.2724C54.9097 44.3952 55.0762 44.4642 55.2499 44.4642Z" fill="white"/>
<path d="M51.1668 43.8096C51.168 41.4843 50.3276 39.2372 48.8006 37.4836L48.4488 37.0796L48.07 37.4584L47.3969 38.1315L47.3968 38.1314L47.3908 38.1377C47.3765 38.1525 47.3594 38.1643 47.3406 38.1724C47.3217 38.1805 47.3014 38.1848 47.2808 38.1849C47.2603 38.1851 47.2399 38.1812 47.2209 38.1734L47.0493 38.5927L47.2209 38.1734C47.2019 38.1656 47.1846 38.1541 47.17 38.1396C47.1555 38.1251 47.144 38.1078 47.1362 38.0888C47.1285 38.0698 47.1245 38.0494 47.1247 38.0288C47.1249 38.0083 47.1292 37.988 47.1373 37.9691C47.1454 37.9502 47.1572 37.9331 47.172 37.9189L47.172 37.9189L47.1782 37.9128L47.8513 37.2397L48.2303 36.8606L47.8258 36.5088C46.0715 34.9832 43.825 34.1429 41.5001 34.1429C39.1752 34.1429 36.9286 34.9832 35.1744 36.5088L34.7699 36.8606L35.1489 37.2397L35.8179 37.9086C35.8448 37.9376 35.8597 37.9758 35.8594 38.0154C35.859 38.056 35.8427 38.0948 35.814 38.1235L36.1676 38.4771L35.814 38.1235C35.7853 38.1522 35.7465 38.1685 35.7059 38.1688C35.6663 38.1692 35.6281 38.1543 35.5991 38.1274L34.9302 37.4584L34.5511 37.0793L34.1994 37.4838C32.6737 39.2381 31.8334 41.4847 31.8334 43.8096C31.8334 46.1345 32.6737 48.381 34.1994 50.1353L34.5511 50.5398L34.9302 50.1607L35.5991 49.4918C35.6281 49.4648 35.6663 49.45 35.7059 49.4503C35.7465 49.4507 35.7853 49.4669 35.814 49.4956C35.8427 49.5243 35.859 49.5631 35.8594 49.6037C35.8597 49.6433 35.8448 49.6815 35.8179 49.7105L35.1489 50.3795L34.7699 50.7585L35.1744 51.1103C36.9286 52.636 39.1752 53.4762 41.5001 53.4762C43.825 53.4762 46.0715 52.636 47.8258 51.1103L48.2303 50.7585L47.8513 50.3795L47.1823 49.7105C47.1553 49.6816 47.1405 49.6433 47.1408 49.6037C47.1412 49.5631 47.1574 49.5243 47.1861 49.4956C47.2148 49.4669 47.2536 49.4507 47.2942 49.4503C47.3339 49.45 47.3721 49.4648 47.401 49.4918L48.07 50.1607L48.4488 50.5396L48.8006 50.1355C50.3276 48.3819 51.168 46.1348 51.1668 43.8096ZM51.1668 43.8096C51.1668 43.8097 51.1668 43.8098 51.1668 43.8099L50.6668 43.8096L51.1668 43.8093C51.1668 43.8094 51.1668 43.8095 51.1668 43.8096ZM48.0978 36.3301L48.45 36.6412L48.7823 36.3089L49.4889 35.6023C49.5179 35.5754 49.5561 35.5605 49.5957 35.5608C49.6363 35.5612 49.6751 35.5775 49.7038 35.6062C49.7325 35.6349 49.7488 35.6737 49.7491 35.7142C49.7495 35.7539 49.7346 35.7921 49.7077 35.821L49.0011 36.5277L48.6688 36.86L48.9798 37.2122C50.5885 39.0336 51.4762 41.3799 51.4762 43.8099C51.4762 46.2399 50.5885 48.5862 48.9798 50.4076L48.6688 50.7598L49.0011 51.0921L49.7077 51.7988C49.7346 51.8277 49.7495 51.8659 49.7491 51.9056C49.7488 51.9461 49.7325 51.9849 49.7038 52.0136C49.6751 52.0423 49.6363 52.0586 49.5957 52.059C49.5561 52.0593 49.5179 52.0444 49.4889 52.0175L48.7823 51.3109L48.45 50.9786L48.0978 51.2897C46.2764 52.8983 43.9301 53.7862 41.5001 53.7862C39.07 53.7862 36.7237 52.8983 34.9024 51.2897L34.5502 50.9786L34.2178 51.3109L33.5071 52.0216L33.507 52.0216L33.501 52.0278C33.4867 52.0426 33.4696 52.0544 33.4508 52.0625C33.4319 52.0706 33.4116 52.0749 33.391 52.0751C33.3705 52.0752 33.3501 52.0713 33.3311 52.0635C33.3121 52.0557 33.2948 52.0443 33.2803 52.0297C33.2657 52.0152 33.2542 51.9979 33.2465 51.9789C33.2387 51.9599 33.2348 51.9395 33.2349 51.9189C33.2351 51.8984 33.2394 51.8781 33.2475 51.8592C33.2556 51.8403 33.2674 51.8233 33.2822 51.809L33.2822 51.809L33.2884 51.8029L33.9991 51.0921L34.3314 50.7598L34.0203 50.4076C32.4117 48.5862 31.5239 46.2399 31.5239 43.8099C31.5239 41.3799 32.4117 39.0336 34.0203 37.2122L34.3314 36.86L33.9991 36.5277L33.2925 35.821C33.2655 35.7921 33.2507 35.7539 33.251 35.7142C33.2514 35.6737 33.2677 35.6349 33.2963 35.6062C33.325 35.5775 33.3639 35.5612 33.4044 35.5608C33.4441 35.5605 33.4823 35.5754 33.5112 35.6023L34.2178 36.3089L34.5501 36.6412L34.9024 36.3301C36.7237 34.7215 39.0701 33.8337 41.5001 33.8337C43.9301 33.8337 46.2764 34.7215 48.0978 36.3301ZM48.4235 49.8072L48.7771 49.4536L48.7429 49.4194C48.6402 49.5513 48.5338 49.6806 48.4235 49.8072Z" fill="white" stroke="url(#paint1_linear_146_17258)"/>
<path d="M41.4998 38.5715C40.4638 38.5715 39.4511 38.8787 38.5897 39.4543C37.7283 40.0299 37.0569 40.848 36.6604 41.8051C36.264 42.7622 36.1603 43.8154 36.3624 44.8315C36.5645 45.8476 37.0634 46.781 37.7959 47.5135C38.5285 48.2461 39.4618 48.745 40.4779 48.9471C41.494 49.1492 42.5472 49.0455 43.5043 48.649C44.4615 48.2525 45.2796 47.5812 45.8551 46.7198C46.4307 45.8584 46.7379 44.8456 46.7379 43.8096C46.7379 42.4204 46.186 41.0881 45.2037 40.1057C44.2214 39.1234 42.889 38.5715 41.4998 38.5715ZM41.4998 47.7382C40.7228 47.7382 39.9633 47.5078 39.3172 47.0761C38.6712 46.6444 38.1676 46.0309 37.8703 45.313C37.5729 44.5952 37.4951 43.8053 37.6467 43.0432C37.7983 42.2811 38.1725 41.5811 38.7219 41.0317C39.2713 40.4823 39.9713 40.1081 40.7334 39.9565C41.4955 39.805 42.2854 39.8828 43.0032 40.1801C43.7211 40.4774 44.3346 40.981 44.7663 41.627C45.198 42.2731 45.4284 43.0326 45.4284 43.8096C45.4272 44.8512 45.0129 45.8497 44.2764 46.5862C43.5399 47.3227 42.5414 47.737 41.4998 47.7382Z" fill="white"/>
<path d="M14.8095 64.1072C14.8095 64.1926 14.7402 64.2619 14.6548 64.2619C14.5693 64.2619 14.5 64.1926 14.5 64.1072C14.5 64.0217 14.5693 63.9524 14.6548 63.9524C14.7402 63.9524 14.8095 64.0217 14.8095 64.1072Z" fill="white" stroke="url(#paint2_linear_146_17258)"/>
<path d="M16.6191 63.9524H17.6013C17.6423 63.9524 17.6817 63.9687 17.7107 63.9977C17.7397 64.0267 17.756 64.0661 17.756 64.1072C17.756 64.1482 17.7397 64.1876 17.7107 64.2166L18.0642 64.5701L17.7107 64.2166C17.6817 64.2456 17.6423 64.2619 17.6013 64.2619H16.6191C16.5781 64.2619 16.5387 64.2456 16.5097 64.2166C16.4807 64.1876 16.4644 64.1482 16.4644 64.1072C16.4644 64.0661 16.4807 64.0267 16.5097 63.9977C16.5387 63.9687 16.5781 63.9524 16.6191 63.9524Z" fill="white" stroke="url(#paint3_linear_146_17258)"/>
<path d="M65.3989 63.9524H66.381C66.4221 63.9524 66.4615 63.9687 66.4905 63.9977C66.5195 64.0267 66.5358 64.0661 66.5358 64.1072C66.5358 64.1482 66.5195 64.1876 66.4905 64.2166C66.4615 64.2456 66.4221 64.2619 66.381 64.2619H65.3989C65.3579 64.2619 65.3185 64.2456 65.2895 64.2166C65.2604 64.1876 65.2441 64.1482 65.2441 64.1072C65.2441 64.0661 65.2604 64.0267 65.2895 63.9977C65.3185 63.9687 65.3579 63.9524 65.3989 63.9524Z" fill="white" stroke="url(#paint4_linear_146_17258)"/>
<path d="M68.5 64.1072C68.5 64.1926 68.4307 64.2619 68.3452 64.2619C68.2597 64.2619 68.1904 64.1926 68.1904 64.1072C68.1904 64.0217 68.2597 63.9524 68.3452 63.9524C68.4307 63.9524 68.5 64.0217 68.5 64.1072Z" fill="white" stroke="url(#paint5_linear_146_17258)"/>
<path d="M52.6813 66.0715H49.9614C49.7965 66.0843 49.6425 66.1588 49.5302 66.2802C49.4179 66.4016 49.3555 66.5609 49.3555 66.7263C49.3555 66.8917 49.4179 67.051 49.5302 67.1724C49.6425 67.2937 49.7965 67.3683 49.9614 67.3811H52.6813C52.8462 67.3683 53.0002 67.2937 53.1126 67.1724C53.2249 67.051 53.2873 66.8917 53.2873 66.7263C53.2873 66.5609 53.2249 66.4016 53.1126 66.2802C53.0002 66.1588 52.8462 66.0843 52.6813 66.0715Z" fill="white"/>
<path d="M33.0387 66.0715H30.3189C30.154 66.0843 30 66.1588 29.8876 66.2802C29.7753 66.4016 29.7129 66.5609 29.7129 66.7263C29.7129 66.8917 29.7753 67.051 29.8876 67.1724C30 67.2937 30.154 67.3683 30.3189 67.3811H33.0387C33.2036 67.3683 33.3576 67.2937 33.47 67.1724C33.5823 67.051 33.6447 66.8917 33.6447 66.7263C33.6447 66.5609 33.5823 66.4016 33.47 66.2802C33.3576 66.1588 33.2036 66.0843 33.0387 66.0715Z" fill="white"/>
<path d="M48.0479 66.0715H34.9526C34.779 66.0715 34.6124 66.1405 34.4896 66.2633C34.3668 66.3861 34.2979 66.5526 34.2979 66.7263C34.2979 66.8999 34.3668 67.0665 34.4896 67.1893C34.6124 67.3121 34.779 67.3811 34.9526 67.3811H40.1711V68.0358H37.5717C37.398 68.0358 37.2315 68.1048 37.1087 68.2276C36.9859 68.3504 36.9169 68.5169 36.9169 68.6906C36.9169 68.8642 36.9859 69.0308 37.1087 69.1536C37.2315 69.2764 37.398 69.3453 37.5717 69.3453H45.7562C45.9298 69.3453 46.0964 69.2764 46.2192 69.1536C46.342 69.0308 46.4109 68.8642 46.4109 68.6906C46.4109 68.5169 46.342 68.3504 46.2192 68.2276C46.0964 68.1048 45.9298 68.0358 45.7562 68.0358H42.8294V67.3811H48.0479C48.2215 67.3811 48.388 67.3121 48.5108 67.1893C48.6336 67.0665 48.7026 66.8999 48.7026 66.7263C48.7026 66.5526 48.6336 66.3861 48.5108 66.2633C48.388 66.1405 48.2215 66.0715 48.0479 66.0715Z" fill="white"/>
<path d="M63.3434 63.9524H63.3759L63.4082 63.9481C63.4308 63.9452 63.4538 63.9471 63.4756 63.9537C63.4974 63.9604 63.5176 63.9716 63.5347 63.9866L63.8646 63.6109L63.5347 63.9866C63.5518 64.0017 63.5656 64.0202 63.575 64.041C63.5844 64.0618 63.5893 64.0843 63.5893 64.1071C63.5893 64.1299 63.5844 64.1525 63.575 64.1732L64.0305 64.3795L63.575 64.1733C63.5656 64.194 63.5518 64.2126 63.5347 64.2276L63.8646 64.6034L63.5347 64.2276C63.5176 64.2427 63.4974 64.2539 63.4756 64.2605C63.4538 64.2671 63.4308 64.2691 63.4081 64.2661L63.3759 64.2619H63.3434H19.657H19.6245L19.5922 64.2661C19.5696 64.2691 19.5466 64.2671 19.5248 64.2605C19.503 64.2539 19.4828 64.2427 19.4657 64.2276C19.4485 64.2126 19.4348 64.194 19.4254 64.1733L18.9699 64.3795L19.4254 64.1732C19.416 64.1525 19.4111 64.1299 19.4111 64.1071C19.4111 64.0843 19.416 64.0618 19.4254 64.041C19.4348 64.0202 19.4486 64.0017 19.4657 63.9866C19.4828 63.9716 19.503 63.9604 19.5248 63.9537C19.5466 63.9471 19.5696 63.9452 19.5922 63.9481L19.6245 63.9524H19.657H34.212L34.386 62.9836C29.888 61.3148 26.1198 58.118 23.7404 53.9521C21.361 49.7862 20.5218 44.9165 21.3695 40.1944C22.2172 35.4724 24.6979 31.1987 28.3778 28.1206C32.0577 25.0425 36.7025 23.356 41.5 23.356C46.2976 23.356 50.9424 25.0425 54.6223 28.1206C58.3022 31.1987 60.7829 35.4724 61.6306 40.1944C62.4783 44.9165 61.6391 49.7862 59.2596 53.9521C56.8802 58.118 53.112 61.3148 48.6141 62.9836L48.788 63.9524H63.3434ZM24.752 32.6187C22.5387 35.9312 21.3573 39.8256 21.3573 43.8095C21.3573 49.1517 23.4795 54.2751 27.257 58.0527C31.0346 61.8302 36.158 63.9524 41.5002 63.9524C45.4841 63.9524 49.3785 62.771 52.691 60.5577C56.0034 58.3443 58.5852 55.1985 60.1098 51.5178C61.6343 47.8372 62.0332 43.7872 61.256 39.8798C60.4788 35.9725 58.5604 32.3834 55.7433 29.5663C52.9263 26.7493 49.3372 24.8309 45.4299 24.0537C41.5225 23.2765 37.4725 23.6754 33.7919 25.1999C30.1112 26.7245 26.9653 29.3063 24.752 32.6187Z" fill="white" stroke="url(#paint6_linear_146_17258)"/>
<mask id="path-13-inside-1_146_17258" fill="white">
<path d="M46.5246 20.9465C46.7189 20.9465 46.9088 20.8889 47.0703 20.7809C47.2318 20.673 47.3577 20.5196 47.432 20.3402C47.5063 20.1607 47.5258 19.9632 47.4879 19.7727C47.45 19.5822 47.3565 19.4072 47.2191 19.2698C47.0817 19.1325 46.9067 19.0389 46.7162 19.001C46.5257 18.9632 46.3282 18.9826 46.1488 19.0569C45.9693 19.1313 45.8159 19.2572 45.708 19.4187C45.6001 19.5802 45.5425 19.7701 45.5425 19.9643C45.5425 20.2248 45.646 20.4746 45.8301 20.6588C46.0143 20.843 46.2641 20.9465 46.5246 20.9465ZM46.5246 19.4732C46.6217 19.4732 46.7167 19.5021 46.7974 19.556C46.8782 19.61 46.9411 19.6867 46.9783 19.7764C47.0155 19.8661 47.0252 19.9649 47.0063 20.0601C46.9873 20.1554 46.9405 20.2429 46.8719 20.3116C46.8032 20.3802 46.7157 20.427 46.6204 20.446C46.5252 20.4649 46.4264 20.4552 46.3367 20.418C46.247 20.3808 46.1703 20.3179 46.1163 20.2371C46.0624 20.1564 46.0336 20.0614 46.0336 19.9643C46.0336 19.8341 46.0853 19.7092 46.1774 19.6171C46.2695 19.525 46.3944 19.4732 46.5246 19.4732Z"/>
</mask>
<path d="M46.5246 20.9465C46.7189 20.9465 46.9088 20.8889 47.0703 20.7809C47.2318 20.673 47.3577 20.5196 47.432 20.3402C47.5063 20.1607 47.5258 19.9632 47.4879 19.7727C47.45 19.5822 47.3565 19.4072 47.2191 19.2698C47.0817 19.1325 46.9067 19.0389 46.7162 19.001C46.5257 18.9632 46.3282 18.9826 46.1488 19.0569C45.9693 19.1313 45.8159 19.2572 45.708 19.4187C45.6001 19.5802 45.5425 19.7701 45.5425 19.9643C45.5425 20.2248 45.646 20.4746 45.8301 20.6588C46.0143 20.843 46.2641 20.9465 46.5246 20.9465ZM46.5246 19.4732C46.6217 19.4732 46.7167 19.5021 46.7974 19.556C46.8782 19.61 46.9411 19.6867 46.9783 19.7764C47.0155 19.8661 47.0252 19.9649 47.0063 20.0601C46.9873 20.1554 46.9405 20.2429 46.8719 20.3116C46.8032 20.3802 46.7157 20.427 46.6204 20.446C46.5252 20.4649 46.4264 20.4552 46.3367 20.418C46.247 20.3808 46.1703 20.3179 46.1163 20.2371C46.0624 20.1564 46.0336 20.0614 46.0336 19.9643C46.0336 19.8341 46.0853 19.7092 46.1774 19.6171C46.2695 19.525 46.3944 19.4732 46.5246 19.4732Z" fill="white"/>
<path d="M46.5246 20.9465V21.9465V20.9465ZM46.5246 19.4732V18.4732V19.4732ZM46.5246 21.9465C46.9167 21.9465 47.2999 21.8302 47.6258 21.6124L46.5147 19.9495C46.5176 19.9475 46.5211 19.9465 46.5246 19.9465V21.9465ZM47.6258 21.6124C47.9518 21.3946 48.2059 21.085 48.3559 20.7229L46.5081 19.9575C46.5095 19.9542 46.5118 19.9514 46.5147 19.9495L47.6258 21.6124ZM48.3559 20.7229C48.5059 20.3607 48.5452 19.9621 48.4687 19.5776L46.5071 19.9678C46.5064 19.9643 46.5068 19.9607 46.5081 19.9575L48.3559 20.7229ZM48.4687 19.5776C48.3922 19.1931 48.2034 18.8399 47.9262 18.5627L46.512 19.9769C46.5095 19.9745 46.5078 19.9713 46.5071 19.9678L48.4687 19.5776ZM47.9262 18.5627C47.649 18.2855 47.2958 18.0967 46.9113 18.0203L46.5211 19.9818C46.5177 19.9811 46.5145 19.9794 46.512 19.9769L47.9262 18.5627ZM46.9113 18.0203C46.5268 17.9438 46.1283 17.983 45.7661 18.1331L46.5315 19.9808C46.5282 19.9822 46.5246 19.9825 46.5211 19.9818L46.9113 18.0203ZM45.7661 18.1331C45.4039 18.2831 45.0943 18.5371 44.8765 18.8631L46.5395 19.9742C46.5375 19.9772 46.5347 19.9795 46.5315 19.9808L45.7661 18.1331ZM44.8765 18.8631C44.6587 19.1891 44.5425 19.5723 44.5425 19.9643H46.5425C46.5425 19.9679 46.5414 19.9713 46.5395 19.9742L44.8765 18.8631ZM44.5425 19.9643C44.5425 20.49 44.7513 20.9942 45.123 21.3659L46.5372 19.9517C46.5406 19.955 46.5425 19.9596 46.5425 19.9643H44.5425ZM45.123 21.3659C45.4948 21.7376 45.9989 21.9465 46.5246 21.9465V19.9465C46.5294 19.9465 46.5339 19.9483 46.5372 19.9517L45.123 21.3659ZM46.5246 20.4732C46.424 20.4732 46.3256 20.4434 46.2419 20.3875L47.353 18.7245C47.1078 18.5607 46.8195 18.4732 46.5246 18.4732V20.4732ZM46.2419 20.3875C46.1582 20.3316 46.093 20.2521 46.0544 20.1591L47.9022 19.3937C47.7893 19.1213 47.5982 18.8884 47.353 18.7245L46.2419 20.3875ZM46.0544 20.1591C46.0159 20.0661 46.0058 19.9638 46.0255 19.865L47.987 20.2552C48.0446 19.966 48.015 19.6662 47.9022 19.3937L46.0544 20.1591ZM46.0255 19.865C46.0451 19.7663 46.0936 19.6756 46.1648 19.6045L47.579 21.0187C47.7875 20.8101 47.9295 20.5444 47.987 20.2552L46.0255 19.865ZM46.1648 19.6045C46.2359 19.5333 46.3266 19.4848 46.4253 19.4652L46.8155 21.4267C47.1047 21.3692 47.3704 21.2272 47.579 21.0187L46.1648 19.6045ZM46.4253 19.4652C46.5241 19.4455 46.6264 19.4556 46.7194 19.4941L45.954 21.3419C46.2265 21.4547 46.5263 21.4843 46.8155 21.4267L46.4253 19.4652ZM46.7194 19.4941C46.8124 19.5327 46.8919 19.5979 46.9478 19.6816L45.2848 20.7927C45.4487 21.0379 45.6816 21.229 45.954 21.3419L46.7194 19.4941ZM46.9478 19.6816C47.0037 19.7653 47.0336 19.8637 47.0336 19.9643H45.0336C45.0336 20.2592 45.121 20.5475 45.2848 20.7927L46.9478 19.6816ZM47.0336 19.9643C47.0336 20.0993 46.9799 20.2287 46.8845 20.3242L45.4703 18.91C45.1906 19.1896 45.0336 19.5689 45.0336 19.9643H47.0336ZM46.8845 20.3242C46.789 20.4196 46.6596 20.4732 46.5246 20.4732V18.4732C46.1292 18.4732 45.7499 18.6303 45.4703 18.91L46.8845 20.3242Z" fill="url(#paint7_linear_146_17258)" mask="url(#path-13-inside-1_146_17258)"/>
<mask id="path-15-inside-2_146_17258" fill="white">
<path d="M65.3989 35.0923C65.2694 35.0923 65.1428 35.1307 65.0351 35.2026C64.9275 35.2746 64.8435 35.3768 64.794 35.4965C64.7444 35.6161 64.7315 35.7478 64.7567 35.8748C64.782 36.0018 64.8443 36.1185 64.9359 36.21C65.0275 36.3016 65.1442 36.364 65.2712 36.3892C65.3982 36.4145 65.5298 36.4015 65.6495 36.352C65.7691 36.3024 65.8714 36.2185 65.9433 36.1108C66.0153 36.0031 66.0537 35.8765 66.0537 35.747C66.0537 35.5734 65.9847 35.4069 65.8619 35.2841C65.7391 35.1613 65.5726 35.0923 65.3989 35.0923ZM65.3989 36.0744C65.3342 36.0744 65.2709 36.0552 65.217 36.0193C65.1632 35.9833 65.1212 35.9322 65.0964 35.8723C65.0717 35.8125 65.0652 35.7467 65.0778 35.6832C65.0904 35.6197 65.1216 35.5613 65.1674 35.5156C65.2132 35.4698 65.2715 35.4386 65.335 35.426C65.3985 35.4133 65.4644 35.4198 65.5242 35.4446C65.584 35.4694 65.6351 35.5113 65.6711 35.5652C65.7071 35.619 65.7263 35.6823 65.7263 35.747C65.7263 35.8339 65.6918 35.9171 65.6304 35.9785C65.569 36.0399 65.4857 36.0744 65.3989 36.0744Z"/>
</mask>
<path d="M65.3989 35.0923C65.2694 35.0923 65.1428 35.1307 65.0351 35.2026C64.9275 35.2746 64.8435 35.3768 64.794 35.4965C64.7444 35.6161 64.7315 35.7478 64.7567 35.8748C64.782 36.0018 64.8443 36.1185 64.9359 36.21C65.0275 36.3016 65.1442 36.364 65.2712 36.3892C65.3982 36.4145 65.5298 36.4015 65.6495 36.352C65.7691 36.3024 65.8714 36.2185 65.9433 36.1108C66.0153 36.0031 66.0537 35.8765 66.0537 35.747C66.0537 35.5734 65.9847 35.4069 65.8619 35.2841C65.7391 35.1613 65.5726 35.0923 65.3989 35.0923ZM65.3989 36.0744C65.3342 36.0744 65.2709 36.0552 65.217 36.0193C65.1632 35.9833 65.1212 35.9322 65.0964 35.8723C65.0717 35.8125 65.0652 35.7467 65.0778 35.6832C65.0904 35.6197 65.1216 35.5613 65.1674 35.5156C65.2132 35.4698 65.2715 35.4386 65.335 35.426C65.3985 35.4133 65.4644 35.4198 65.5242 35.4446C65.584 35.4694 65.6351 35.5113 65.6711 35.5652C65.7071 35.619 65.7263 35.6823 65.7263 35.747C65.7263 35.8339 65.6918 35.9171 65.6304 35.9785C65.569 36.0399 65.4857 36.0744 65.3989 36.0744Z" fill="white"/>
<path d="M65.3989 34.0923C65.0716 34.0923 64.7517 34.1893 64.4796 34.3712L65.5907 36.0341C65.5339 36.072 65.4672 36.0923 65.3989 36.0923V34.0923ZM64.4796 34.3712C64.2074 34.553 63.9953 34.8114 63.8701 35.1138L65.7179 35.8792C65.6917 35.9422 65.6475 35.9962 65.5907 36.0341L64.4796 34.3712ZM63.8701 35.1138C63.7448 35.4162 63.7121 35.7489 63.7759 36.0699L65.7375 35.6797C65.7508 35.7466 65.744 35.8161 65.7179 35.8792L63.8701 35.1138ZM63.7759 36.0699C63.8398 36.3909 63.9974 36.6857 64.2288 36.9171L65.643 35.5029C65.6913 35.5512 65.7242 35.6127 65.7375 35.6797L63.7759 36.0699ZM64.2288 36.9171C64.4602 37.1486 64.7551 37.3062 65.0761 37.37L65.4663 35.4084C65.5332 35.4218 65.5947 35.4546 65.643 35.5029L64.2288 36.9171ZM65.0761 37.37C65.3971 37.4339 65.7298 37.4011 66.0322 37.2758L65.2668 35.4281C65.3299 35.402 65.3993 35.3951 65.4663 35.4084L65.0761 37.37ZM66.0322 37.2758C66.3345 37.1506 66.593 36.9385 66.7748 36.6664L65.1118 35.5552C65.1498 35.4985 65.2037 35.4542 65.2668 35.4281L66.0322 37.2758ZM66.7748 36.6664C66.9566 36.3943 67.0537 36.0743 67.0537 35.747H65.0537C65.0537 35.6788 65.0739 35.612 65.1118 35.5552L66.7748 36.6664ZM67.0537 35.747C67.0537 35.3082 66.8793 34.8873 66.569 34.577L65.1548 35.9912C65.09 35.9264 65.0537 35.8386 65.0537 35.747H67.0537ZM66.569 34.577C66.2587 34.2666 65.8378 34.0923 65.3989 34.0923V36.0923C65.3073 36.0923 65.2195 36.0559 65.1548 35.9912L66.569 34.577ZM65.3989 35.0744C65.5319 35.0744 65.662 35.1139 65.7726 35.1878L64.6614 36.8507C64.8797 36.9966 65.1364 37.0744 65.3989 37.0744V35.0744ZM65.7726 35.1878C65.8832 35.2617 65.9694 35.3668 66.0203 35.4896L64.1726 36.255C64.273 36.4975 64.4431 36.7049 64.6614 36.8507L65.7726 35.1878ZM66.0203 35.4896C66.0712 35.6125 66.0846 35.7478 66.0586 35.8783L64.097 35.4881C64.0458 35.7456 64.0721 36.0125 64.1726 36.255L66.0203 35.4896ZM66.0586 35.8783C66.0326 36.0088 65.9686 36.1286 65.8745 36.2227L64.4603 34.8084C64.2747 34.9941 64.1482 35.2306 64.097 35.4881L66.0586 35.8783ZM65.8745 36.2227C65.7804 36.3167 65.6606 36.3808 65.5301 36.4067L65.1399 34.4452C64.8825 34.4964 64.6459 34.6228 64.4603 34.8084L65.8745 36.2227ZM65.5301 36.4067C65.3997 36.4327 65.2644 36.4194 65.1415 36.3685L65.9069 34.5207C65.6643 34.4202 65.3974 34.394 65.1399 34.4452L65.5301 36.4067ZM65.1415 36.3685C65.0186 36.3175 64.9135 36.2313 64.8396 36.1207L66.5026 35.0096C66.3567 34.7913 66.1494 34.6212 65.9069 34.5207L65.1415 36.3685ZM64.8396 36.1207C64.7657 36.0101 64.7263 35.8801 64.7263 35.747H66.7263C66.7263 35.4845 66.6484 35.2279 66.5026 35.0096L64.8396 36.1207ZM64.7263 35.747C64.7263 35.5687 64.7971 35.3976 64.9233 35.2714L66.3375 36.6856C66.5864 36.4367 66.7263 36.0991 66.7263 35.747H64.7263ZM64.9233 35.2714C65.0494 35.1453 65.2205 35.0744 65.3989 35.0744V37.0744C65.7509 37.0744 66.0886 36.9346 66.3375 36.6856L64.9233 35.2714Z" fill="url(#paint8_linear_146_17258)" mask="url(#path-15-inside-2_146_17258)"/>
<mask id="path-17-inside-3_146_17258" fill="white">
<path d="M59.8335 16.4731C59.704 16.4731 59.5774 16.5115 59.4697 16.5835C59.362 16.6554 59.2781 16.7577 59.2285 16.8773C59.179 16.997 59.166 17.1286 59.1913 17.2556C59.2166 17.3827 59.2789 17.4993 59.3705 17.5909C59.4621 17.6825 59.5787 17.7448 59.7057 17.7701C59.8327 17.7954 59.9644 17.7824 60.084 17.7328C60.2037 17.6833 60.3059 17.5993 60.3779 17.4917C60.4498 17.384 60.4882 17.2574 60.4882 17.1279C60.4882 16.9543 60.4193 16.7877 60.2965 16.6649C60.1737 16.5421 60.0071 16.4731 59.8335 16.4731ZM59.8335 17.4553C59.7687 17.4553 59.7054 17.4361 59.6516 17.4001C59.5978 17.3641 59.5558 17.313 59.531 17.2532C59.5062 17.1934 59.4997 17.1275 59.5124 17.064C59.525 17.0005 59.5562 16.9422 59.602 16.8964C59.6478 16.8506 59.7061 16.8194 59.7696 16.8068C59.8331 16.7942 59.8989 16.8007 59.9588 16.8254C60.0186 16.8502 60.0697 16.8922 60.1057 16.946C60.1417 16.9999 60.1609 17.0632 60.1609 17.1279C60.1609 17.2147 60.1264 17.298 60.065 17.3594C60.0036 17.4208 59.9203 17.4553 59.8335 17.4553Z"/>
</mask>
<path d="M59.8335 16.4731C59.704 16.4731 59.5774 16.5115 59.4697 16.5835C59.362 16.6554 59.2781 16.7577 59.2285 16.8773C59.179 16.997 59.166 17.1286 59.1913 17.2556C59.2166 17.3827 59.2789 17.4993 59.3705 17.5909C59.4621 17.6825 59.5787 17.7448 59.7057 17.7701C59.8327 17.7954 59.9644 17.7824 60.084 17.7328C60.2037 17.6833 60.3059 17.5993 60.3779 17.4917C60.4498 17.384 60.4882 17.2574 60.4882 17.1279C60.4882 16.9543 60.4193 16.7877 60.2965 16.6649C60.1737 16.5421 60.0071 16.4731 59.8335 16.4731ZM59.8335 17.4553C59.7687 17.4553 59.7054 17.4361 59.6516 17.4001C59.5978 17.3641 59.5558 17.313 59.531 17.2532C59.5062 17.1934 59.4997 17.1275 59.5124 17.064C59.525 17.0005 59.5562 16.9422 59.602 16.8964C59.6478 16.8506 59.7061 16.8194 59.7696 16.8068C59.8331 16.7942 59.8989 16.8007 59.9588 16.8254C60.0186 16.8502 60.0697 16.8922 60.1057 16.946C60.1417 16.9999 60.1609 17.0632 60.1609 17.1279C60.1609 17.2147 60.1264 17.298 60.065 17.3594C60.0036 17.4208 59.9203 17.4553 59.8335 17.4553Z" fill="white"/>
<path d="M59.8335 16.4731V15.4731V16.4731ZM59.8335 15.4731C59.5062 15.4731 59.1863 15.5702 58.9141 15.752L60.0253 17.415C59.9685 17.4529 59.9018 17.4731 59.8335 17.4731V15.4731ZM58.9141 15.752C58.642 15.9339 58.4299 16.1923 58.3047 16.4947L60.1524 17.26C60.1263 17.3231 60.082 17.377 60.0253 17.415L58.9141 15.752ZM58.3047 16.4947C58.1794 16.797 58.1467 17.1298 58.2105 17.4507L60.1721 17.0606C60.1854 17.1275 60.1786 17.1969 60.1524 17.26L58.3047 16.4947ZM58.2105 17.4507C58.2744 17.7717 58.4319 18.0666 58.6634 18.298L60.0776 16.8838C60.1259 16.9321 60.1588 16.9936 60.1721 17.0606L58.2105 17.4507ZM58.6634 18.298C58.8948 18.5294 59.1897 18.687 59.5106 18.7509L59.9008 16.7893C59.9678 16.8026 60.0293 16.8355 60.0776 16.8838L58.6634 18.298ZM59.5106 18.7509C59.8316 18.8147 60.1644 18.782 60.4667 18.6567L59.7014 16.8089C59.7644 16.7828 59.8339 16.776 59.9008 16.7893L59.5106 18.7509ZM60.4667 18.6567C60.7691 18.5315 61.0275 18.3194 61.2094 18.0472L59.5464 16.9361C59.5843 16.8793 59.6383 16.8351 59.7014 16.8089L60.4667 18.6567ZM61.2094 18.0472C61.3912 17.7751 61.4882 17.4552 61.4882 17.1279H59.4882C59.4882 17.0596 59.5085 16.9929 59.5464 16.9361L61.2094 18.0472ZM61.4882 17.1279C61.4882 16.689 61.3139 16.2681 61.0036 15.9578L59.5894 17.372C59.5246 17.3073 59.4882 17.2195 59.4882 17.1279H61.4882ZM61.0036 15.9578C60.6932 15.6475 60.2723 15.4731 59.8335 15.4731V17.4731C59.7419 17.4731 59.6541 17.4368 59.5894 17.372L61.0036 15.9578ZM59.8335 16.4553C59.9665 16.4553 60.0965 16.4947 60.2072 16.5686L59.096 18.2316C59.3143 18.3774 59.5709 18.4553 59.8335 18.4553V16.4553ZM60.2072 16.5686C60.3178 16.6426 60.404 16.7476 60.4549 16.8705L58.6071 17.6359C58.7076 17.8784 58.8777 18.0857 59.096 18.2316L60.2072 16.5686ZM60.4549 16.8705C60.5058 16.9934 60.5191 17.1286 60.4932 17.2591L58.5316 16.8689C58.4804 17.1265 58.5067 17.3934 58.6071 17.6359L60.4549 16.8705ZM60.4932 17.2591C60.4672 17.3896 60.4031 17.5095 60.3091 17.6035L58.8949 16.1893C58.7092 16.3749 58.5828 16.6115 58.5316 16.8689L60.4932 17.2591ZM60.3091 17.6035C60.215 17.6976 60.0952 17.7617 59.9647 17.7876L59.5745 15.826C59.317 15.8772 59.0805 16.0037 58.8949 16.1893L60.3091 17.6035ZM59.9647 17.7876C59.8342 17.8136 59.699 17.8002 59.5761 17.7493L60.3414 15.9016C60.0989 15.8011 59.832 15.7748 59.5745 15.826L59.9647 17.7876ZM59.5761 17.7493C59.4531 17.6984 59.3481 17.6122 59.2742 17.5016L60.9371 16.3905C60.7913 16.1722 60.584 16.002 60.3414 15.9016L59.5761 17.7493ZM59.2742 17.5016C59.2003 17.391 59.1609 17.2609 59.1609 17.1279H61.1609C61.1609 16.8654 61.083 16.6087 60.9371 16.3905L59.2742 17.5016ZM59.1609 17.1279C59.1609 16.9495 59.2317 16.7784 59.3579 16.6523L60.7721 18.0665C61.021 17.8176 61.1609 17.4799 61.1609 17.1279H59.1609ZM59.3579 16.6523C59.484 16.5262 59.6551 16.4553 59.8335 16.4553V18.4553C60.1855 18.4553 60.5231 18.3154 60.7721 18.0665L59.3579 16.6523Z" fill="url(#paint9_linear_146_17258)" mask="url(#path-17-inside-3_146_17258)"/>
<mask id="path-19-inside-4_146_17258" fill="white">
<path d="M60.1611 25.8828C60.0316 25.8828 59.905 25.9212 59.7973 25.9932C59.6897 26.0651 59.6057 26.1674 59.5562 26.287C59.5066 26.4067 59.4937 26.5383 59.5189 26.6653C59.5442 26.7923 59.6066 26.909 59.6981 27.0006C59.7897 27.0921 59.9064 27.1545 60.0334 27.1798C60.1604 27.205 60.292 27.1921 60.4117 27.1425C60.5313 27.0929 60.6336 27.009 60.7055 26.9013C60.7775 26.7937 60.8159 26.6671 60.8159 26.5376C60.8159 26.3639 60.7469 26.1974 60.6241 26.0746C60.5013 25.9518 60.3348 25.8828 60.1611 25.8828ZM60.1611 26.865C60.0964 26.865 60.0331 26.8458 59.9792 26.8098C59.9254 26.7738 59.8834 26.7227 59.8586 26.6629C59.8339 26.603 59.8274 26.5372 59.84 26.4737C59.8526 26.4102 59.8838 26.3519 59.9296 26.3061C59.9754 26.2603 60.0337 26.2291 60.0972 26.2165C60.1607 26.2039 60.2266 26.2103 60.2864 26.2351C60.3462 26.2599 60.3973 26.3019 60.4333 26.3557C60.4693 26.4095 60.4885 26.4728 60.4885 26.5376C60.4885 26.6244 60.454 26.7077 60.3926 26.7691C60.3312 26.8305 60.2479 26.865 60.1611 26.865Z"/>
</mask>
<path d="M60.1611 25.8828C60.0316 25.8828 59.905 25.9212 59.7973 25.9932C59.6897 26.0651 59.6057 26.1674 59.5562 26.287C59.5066 26.4067 59.4937 26.5383 59.5189 26.6653C59.5442 26.7923 59.6066 26.909 59.6981 27.0006C59.7897 27.0921 59.9064 27.1545 60.0334 27.1798C60.1604 27.205 60.292 27.1921 60.4117 27.1425C60.5313 27.0929 60.6336 27.009 60.7055 26.9013C60.7775 26.7937 60.8159 26.6671 60.8159 26.5376C60.8159 26.3639 60.7469 26.1974 60.6241 26.0746C60.5013 25.9518 60.3348 25.8828 60.1611 25.8828ZM60.1611 26.865C60.0964 26.865 60.0331 26.8458 59.9792 26.8098C59.9254 26.7738 59.8834 26.7227 59.8586 26.6629C59.8339 26.603 59.8274 26.5372 59.84 26.4737C59.8526 26.4102 59.8838 26.3519 59.9296 26.3061C59.9754 26.2603 60.0337 26.2291 60.0972 26.2165C60.1607 26.2039 60.2266 26.2103 60.2864 26.2351C60.3462 26.2599 60.3973 26.3019 60.4333 26.3557C60.4693 26.4095 60.4885 26.4728 60.4885 26.5376C60.4885 26.6244 60.454 26.7077 60.3926 26.7691C60.3312 26.8305 60.2479 26.865 60.1611 26.865Z" fill="white"/>
<path d="M60.1611 24.8828C59.8338 24.8828 59.5139 24.9799 59.2418 25.1617L60.3529 26.8246C60.2961 26.8626 60.2294 26.8828 60.1611 26.8828V24.8828ZM59.2418 25.1617C58.9696 25.3435 58.7575 25.602 58.6323 25.9043L60.4801 26.6697C60.4539 26.7328 60.4097 26.7867 60.3529 26.8246L59.2418 25.1617ZM58.6323 25.9043C58.5071 26.2067 58.4743 26.5394 58.5381 26.8604L60.4997 26.4702C60.513 26.5372 60.5062 26.6066 60.4801 26.6697L58.6323 25.9043ZM58.5381 26.8604C58.602 27.1814 58.7596 27.4762 58.991 27.7077L60.4052 26.2935C60.4535 26.3417 60.4864 26.4033 60.4997 26.4702L58.5381 26.8604ZM58.991 27.7077C59.2224 27.9391 59.5173 28.0967 59.8383 28.1605L60.2285 26.199C60.2954 26.2123 60.3569 26.2452 60.4052 26.2935L58.991 27.7077ZM59.8383 28.1605C60.1593 28.2244 60.492 28.1916 60.7944 28.0664L60.029 26.2186C60.0921 26.1925 60.1615 26.1856 60.2285 26.199L59.8383 28.1605ZM60.7944 28.0664C61.0967 27.9411 61.3552 27.729 61.537 27.4569L59.8741 26.3458C59.912 26.289 59.9659 26.2447 60.029 26.2186L60.7944 28.0664ZM61.537 27.4569C61.7188 27.1848 61.8159 26.8649 61.8159 26.5376H59.8159C59.8159 26.4693 59.8361 26.4025 59.8741 26.3458L61.537 27.4569ZM61.8159 26.5376C61.8159 26.0987 61.6415 25.6778 61.3312 25.3675L59.917 26.7817C59.8522 26.7169 59.8159 26.6291 59.8159 26.5376H61.8159ZM61.3312 25.3675C61.0209 25.0572 60.6 24.8828 60.1611 24.8828V26.8828C60.0695 26.8828 59.9817 26.8464 59.917 26.7817L61.3312 25.3675ZM60.1611 25.865C60.2941 25.865 60.4242 25.9044 60.5348 25.9783L59.4237 27.6413C59.6419 27.7871 59.8986 27.865 60.1611 27.865V25.865ZM60.5348 25.9783C60.6454 26.0522 60.7316 26.1573 60.7825 26.2802L58.9348 27.0455C59.0352 27.2881 59.2053 27.4954 59.4237 27.6413L60.5348 25.9783ZM60.7825 26.2802C60.8334 26.403 60.8468 26.5383 60.8208 26.6688L58.8592 26.2786C58.808 26.5361 58.8343 26.803 58.9348 27.0455L60.7825 26.2802ZM60.8208 26.6688C60.7948 26.7993 60.7308 26.9191 60.6367 27.0132L59.2225 25.599C59.0369 25.7846 58.9105 26.0211 58.8592 26.2786L60.8208 26.6688ZM60.6367 27.0132C60.5426 27.1073 60.4228 27.1713 60.2923 27.1973L59.9022 25.2357C59.6447 25.2869 59.4082 25.4133 59.2225 25.599L60.6367 27.0132ZM60.2923 27.1973C60.1619 27.2232 60.0266 27.2099 59.9037 27.159L60.6691 25.3112C60.4265 25.2108 60.1596 25.1845 59.9022 25.2357L60.2923 27.1973ZM59.9037 27.159C59.7808 27.1081 59.6757 27.0219 59.6018 26.9113L61.2648 25.8001C61.1189 25.5819 60.9116 25.4117 60.6691 25.3112L59.9037 27.159ZM59.6018 26.9113C59.5279 26.8007 59.4885 26.6706 59.4885 26.5376H61.4885C61.4885 26.275 61.4106 26.0184 61.2648 25.8001L59.6018 26.9113ZM59.4885 26.5376C59.4885 26.3592 59.5594 26.1881 59.6855 26.062L61.0997 27.4762C61.3486 27.2272 61.4885 26.8896 61.4885 26.5376H59.4885ZM59.6855 26.062C59.8116 25.9358 59.9827 25.865 60.1611 25.865V27.865C60.5131 27.865 60.8508 27.7251 61.0997 27.4762L59.6855 26.062Z" fill="url(#paint10_linear_146_17258)" mask="url(#path-19-inside-4_146_17258)"/>
<mask id="path-21-inside-5_146_17258" fill="white">
<path d="M22.5122 25.6584C22.5122 25.5289 22.4738 25.4023 22.4018 25.2947C22.3299 25.187 22.2276 25.1031 22.108 25.0535C21.9883 25.0039 21.8567 24.991 21.7297 25.0162C21.6026 25.0415 21.486 25.1039 21.3944 25.1954C21.3028 25.287 21.2405 25.4037 21.2152 25.5307C21.19 25.6577 21.2029 25.7893 21.2525 25.909C21.302 26.0286 21.386 26.1309 21.4936 26.2028C21.6013 26.2748 21.7279 26.3132 21.8574 26.3132C22.0311 26.3132 22.1976 26.2442 22.3204 26.1214C22.4432 25.9986 22.5122 25.8321 22.5122 25.6584ZM21.53 25.6584C21.53 25.5937 21.5492 25.5304 21.5852 25.4765C21.6212 25.4227 21.6723 25.3807 21.7321 25.356C21.7919 25.3312 21.8578 25.3247 21.9213 25.3373C21.9848 25.35 22.0431 25.3811 22.0889 25.4269C22.1347 25.4727 22.1659 25.531 22.1785 25.5946C22.1911 25.6581 22.1846 25.7239 22.1599 25.7837C22.1351 25.8435 22.0931 25.8947 22.0393 25.9306C21.9854 25.9666 21.9221 25.9858 21.8574 25.9858C21.7706 25.9858 21.6873 25.9513 21.6259 25.8899C21.5645 25.8285 21.53 25.7453 21.53 25.6584Z"/>
</mask>
<path d="M22.5122 25.6584C22.5122 25.5289 22.4738 25.4023 22.4018 25.2947C22.3299 25.187 22.2276 25.1031 22.108 25.0535C21.9883 25.0039 21.8567 24.991 21.7297 25.0162C21.6026 25.0415 21.486 25.1039 21.3944 25.1954C21.3028 25.287 21.2405 25.4037 21.2152 25.5307C21.19 25.6577 21.2029 25.7893 21.2525 25.909C21.302 26.0286 21.386 26.1309 21.4936 26.2028C21.6013 26.2748 21.7279 26.3132 21.8574 26.3132C22.0311 26.3132 22.1976 26.2442 22.3204 26.1214C22.4432 25.9986 22.5122 25.8321 22.5122 25.6584ZM21.53 25.6584C21.53 25.5937 21.5492 25.5304 21.5852 25.4765C21.6212 25.4227 21.6723 25.3807 21.7321 25.356C21.7919 25.3312 21.8578 25.3247 21.9213 25.3373C21.9848 25.35 22.0431 25.3811 22.0889 25.4269C22.1347 25.4727 22.1659 25.531 22.1785 25.5946C22.1911 25.6581 22.1846 25.7239 22.1599 25.7837C22.1351 25.8435 22.0931 25.8947 22.0393 25.9306C21.9854 25.9666 21.9221 25.9858 21.8574 25.9858C21.7706 25.9858 21.6873 25.9513 21.6259 25.8899C21.5645 25.8285 21.53 25.7453 21.53 25.6584Z" fill="white"/>
<path d="M23.5122 25.6584C23.5122 25.3311 23.4151 25.0112 23.2333 24.7391L21.5703 25.8502C21.5324 25.7935 21.5122 25.7267 21.5122 25.6584H23.5122ZM23.2333 24.7391C23.0515 24.467 22.793 24.2549 22.4906 24.1296L21.7253 25.9774C21.6622 25.9513 21.6083 25.907 21.5703 25.8502L23.2333 24.7391ZM22.4906 24.1296C22.1883 24.0044 21.8556 23.9716 21.5346 24.0355L21.9248 25.997C21.8578 26.0103 21.7884 26.0035 21.7253 25.9774L22.4906 24.1296ZM21.5346 24.0355C21.2136 24.0993 20.9187 24.2569 20.6873 24.4883L22.1015 25.9025C22.0532 25.9508 21.9917 25.9837 21.9248 25.997L21.5346 24.0355ZM20.6873 24.4883C20.4559 24.7198 20.2983 25.0146 20.2344 25.3356L22.196 25.7258C22.1827 25.7927 22.1498 25.8543 22.1015 25.9025L20.6873 24.4883ZM20.2344 25.3356C20.1706 25.6566 20.2034 25.9893 20.3286 26.2917L22.1764 25.5263C22.2025 25.5894 22.2093 25.6588 22.196 25.7258L20.2344 25.3356ZM20.3286 26.2917C20.4538 26.594 20.6659 26.8525 20.9381 27.0343L22.0492 25.3714C22.106 25.4093 22.1502 25.4632 22.1764 25.5263L20.3286 26.2917ZM20.9381 27.0343C21.2102 27.2161 21.5301 27.3132 21.8574 27.3132V25.3132C21.9257 25.3132 21.9924 25.3334 22.0492 25.3714L20.9381 27.0343ZM21.8574 27.3132C22.2963 27.3132 22.7172 27.1388 23.0275 26.8285L21.6133 25.4143C21.678 25.3496 21.7658 25.3132 21.8574 25.3132V27.3132ZM23.0275 26.8285C23.3378 26.5182 23.5122 26.0973 23.5122 25.6584H21.5122C21.5122 25.5669 21.5485 25.479 21.6133 25.4143L23.0275 26.8285ZM22.53 25.6584C22.53 25.7915 22.4906 25.9215 22.4167 26.0321L20.7537 24.921C20.6079 25.1393 20.53 25.3959 20.53 25.6584H22.53ZM22.4167 26.0321C22.3428 26.1427 22.2377 26.2289 22.1148 26.2798L21.3494 24.4321C21.1069 24.5326 20.8996 24.7027 20.7537 24.921L22.4167 26.0321ZM22.1148 26.2798C21.9919 26.3308 21.8567 26.3441 21.7262 26.3181L22.1164 24.3565C21.8589 24.3053 21.592 24.3316 21.3494 24.4321L22.1148 26.2798ZM21.7262 26.3181C21.5957 26.2922 21.4759 26.2281 21.3818 26.134L22.796 24.7198C22.6104 24.5342 22.3738 24.4078 22.1164 24.3565L21.7262 26.3181ZM21.3818 26.134C21.2877 26.04 21.2237 25.9201 21.1977 25.7896L23.1593 25.3995C23.1081 25.142 22.9816 24.9055 22.796 24.7198L21.3818 26.134ZM21.1977 25.7896C21.1718 25.6592 21.1851 25.5239 21.236 25.401L23.0837 26.1664C23.1842 25.9238 23.2105 25.657 23.1593 25.3995L21.1977 25.7896ZM21.236 25.401C21.2869 25.2781 21.3731 25.1731 21.4837 25.0992L22.5949 26.7621C22.8131 26.6162 22.9833 26.4089 23.0837 26.1664L21.236 25.401ZM21.4837 25.0992C21.5943 25.0253 21.7244 24.9858 21.8574 24.9858V26.9858C22.1199 26.9858 22.3766 26.908 22.5949 26.7621L21.4837 25.0992ZM21.8574 24.9858C22.0358 24.9858 22.2069 25.0567 22.333 25.1828L20.9188 26.597C21.1677 26.846 21.5054 26.9858 21.8574 26.9858V24.9858ZM22.333 25.1828C22.4592 25.309 22.53 25.48 22.53 25.6584H20.53C20.53 26.0105 20.6699 26.3481 20.9188 26.597L22.333 25.1828Z" fill="url(#paint11_linear_146_17258)" mask="url(#path-21-inside-5_146_17258)"/>
<path d="M17.5644 37.593L18.0512 36.953L17.7438 36.7788L17.4311 37.4958H17.421L17.1034 36.7837L16.7908 36.9631L17.2723 37.5881V37.5982L16.519 37.501V37.8493L17.2773 37.7521V37.7623L16.7908 38.3869L17.0825 38.5715L17.4157 37.8493H17.4259L17.7333 38.5663L18.0561 38.382L17.5644 37.7672V37.757L18.3376 37.8493V37.501L17.5644 37.6032V37.593Z" fill="white"/>
<path d="M17.0228 18.9787L16.7426 19.3385L16.9109 19.4449L17.1027 19.0288H17.1086L17.2854 19.442L17.4713 19.3356L17.1882 18.9817V18.9758L17.6334 19.0288V18.8285L17.1882 18.8874V18.8815L17.4684 18.5129L17.2916 18.4124L17.1115 18.8252H17.1057L16.923 18.4153L16.7426 18.5184L17.0202 18.8785V18.8844L16.5864 18.8285V19.0288L17.0228 18.9728V18.9787Z" fill="white"/>
<path d="M67.3724 23.0277V22.6862L66.6139 22.7867V22.7766L67.0912 22.1487L66.7897 21.9778L66.4833 22.681H66.4731L66.1618 21.9827L65.855 22.1588L66.3274 22.7717V22.7818L65.5889 22.6862V23.0277L66.3324 22.9324V22.9426L65.855 23.5554L66.1415 23.7365L66.4682 23.0277H66.478L66.7796 23.7312L67.0961 23.5505L66.6139 22.9475V22.9373L67.3724 23.0277Z" fill="white"/>
<path d="M32.4482 16.7311L32.8601 16.1893L32.6001 16.042L32.3359 16.6486H32.3271L32.0583 16.0462L31.7938 16.1982L32.2014 16.7269V16.7354L31.564 16.6532V16.9479L32.2056 16.8657V16.8742L31.7938 17.4029L32.0406 17.5591L32.3228 16.9479H32.3313L32.5913 17.5545L32.8643 17.3987L32.4482 16.8785V16.8699L33.1027 16.9479V16.6532L32.4482 16.7396V16.7311Z" fill="white"/>
<defs>
<linearGradient id="paint0_linear_146_17258" x1="42" y1="0" x2="42" y2="84" gradientUnits="userSpaceOnUse">
<stop stop-color="#9CF8B7"/>
<stop offset="1" stop-color="#A0F7C2"/>
</linearGradient>
<linearGradient id="paint1_linear_146_17258" x1="41.5001" y1="33.3337" x2="41.5001" y2="54.2862" gradientUnits="userSpaceOnUse">
<stop stop-color="#9CF8B7"/>
<stop offset="1" stop-color="#A0F7C2"/>
</linearGradient>
<linearGradient id="paint2_linear_146_17258" x1="14.6548" y1="63.4524" x2="14.6548" y2="64.7619" gradientUnits="userSpaceOnUse">
<stop stop-color="#9CF8B7"/>
<stop offset="1" stop-color="#A0F7C2"/>
</linearGradient>
<linearGradient id="paint3_linear_146_17258" x1="17.1102" y1="63.4524" x2="17.1102" y2="64.7619" gradientUnits="userSpaceOnUse">
<stop stop-color="#9CF8B7"/>
<stop offset="1" stop-color="#A0F7C2"/>
</linearGradient>
<linearGradient id="paint4_linear_146_17258" x1="65.89" y1="63.4524" x2="65.89" y2="64.7619" gradientUnits="userSpaceOnUse">
<stop stop-color="#9CF8B7"/>
<stop offset="1" stop-color="#A0F7C2"/>
</linearGradient>
<linearGradient id="paint5_linear_146_17258" x1="68.3452" y1="63.4524" x2="68.3452" y2="64.7619" gradientUnits="userSpaceOnUse">
<stop stop-color="#9CF8B7"/>
<stop offset="1" stop-color="#A0F7C2"/>
</linearGradient>
<linearGradient id="paint6_linear_146_17258" x1="41.5002" y1="22.856" x2="41.5002" y2="64.7674" gradientUnits="userSpaceOnUse">
<stop stop-color="#9CF8B7"/>
<stop offset="1" stop-color="#A0F7C2"/>
</linearGradient>
<linearGradient id="paint7_linear_146_17258" x1="46.5246" y1="18.9822" x2="46.5246" y2="20.9465" gradientUnits="userSpaceOnUse">
<stop stop-color="#9CF8B7"/>
<stop offset="1" stop-color="#A0F7C2"/>
</linearGradient>
<linearGradient id="paint8_linear_146_17258" x1="65.3989" y1="35.0923" x2="65.3989" y2="36.4018" gradientUnits="userSpaceOnUse">
<stop stop-color="#9CF8B7"/>
<stop offset="1" stop-color="#A0F7C2"/>
</linearGradient>
<linearGradient id="paint9_linear_146_17258" x1="59.8335" y1="16.4731" x2="59.8335" y2="17.7827" gradientUnits="userSpaceOnUse">
<stop stop-color="#9CF8B7"/>
<stop offset="1" stop-color="#A0F7C2"/>
</linearGradient>
<linearGradient id="paint10_linear_146_17258" x1="60.1611" y1="25.8828" x2="60.1611" y2="27.1923" gradientUnits="userSpaceOnUse">
<stop stop-color="#9CF8B7"/>
<stop offset="1" stop-color="#A0F7C2"/>
</linearGradient>
<linearGradient id="paint11_linear_146_17258" x1="21.8574" y1="25.0037" x2="21.8574" y2="26.3132" gradientUnits="userSpaceOnUse">
<stop stop-color="#9CF8B7"/>
<stop offset="1" stop-color="#A0F7C2"/>
</linearGradient>
</defs>
</svg>
