<svg width="250" height="250" viewBox="0 0 250 250" fill="none" xmlns="http://www.w3.org/2000/svg">
<path d="M230.356 17.8573C231.239 17.8573 232.102 17.5955 232.837 17.1049C233.571 16.6144 234.143 15.9171 234.481 15.1014C234.819 14.2857 234.907 13.388 234.735 12.5221C234.563 11.6561 234.137 10.8606 233.513 10.2363C232.889 9.61193 232.093 9.18675 231.227 9.01449C230.361 8.84224 229.464 8.93065 228.648 9.26854C227.832 9.60643 227.135 10.1786 226.644 10.9128C226.154 11.6469 225.892 12.51 225.892 13.393C225.893 14.5766 226.364 15.7113 227.201 16.5482C228.038 17.3851 229.173 17.8559 230.356 17.8573ZM230.356 11.1609C230.798 11.1609 231.229 11.2918 231.596 11.537C231.964 11.7823 232.25 12.1309 232.419 12.5388C232.588 12.9467 232.632 13.3955 232.546 13.8285C232.459 14.2615 232.247 14.6592 231.935 14.9714C231.623 15.2835 231.225 15.4961 230.792 15.5823C230.359 15.6684 229.91 15.6242 229.502 15.4552C229.094 15.2863 228.746 15.0002 228.5 14.6331C228.255 14.266 228.124 13.8345 228.124 13.393C228.125 12.8012 228.36 12.2338 228.779 11.8153C229.197 11.3968 229.765 11.1614 230.356 11.1609Z" fill="#395064"/>
<path d="M128.018 17.8213C127.429 17.8213 126.854 17.9958 126.364 18.3229C125.875 18.6499 125.493 19.1147 125.268 19.6585C125.043 20.2024 124.984 20.8008 125.099 21.3781C125.213 21.9554 125.497 22.4857 125.913 22.902C126.329 23.3182 126.86 23.6016 127.437 23.7165C128.014 23.8313 128.613 23.7724 129.157 23.5471C129.7 23.3219 130.165 22.9404 130.492 22.451C130.819 21.9615 130.994 21.3861 130.994 20.7975C130.993 20.0084 130.679 19.2519 130.121 18.694C129.563 18.136 128.807 17.8222 128.018 17.8213ZM128.018 22.2856C127.723 22.2856 127.436 22.1983 127.191 22.0348C126.946 21.8713 126.755 21.6389 126.643 21.367C126.53 21.095 126.501 20.7958 126.558 20.5072C126.616 20.2185 126.757 19.9534 126.965 19.7452C127.174 19.5371 127.439 19.3954 127.727 19.338C128.016 19.2806 128.315 19.31 128.587 19.4227C128.859 19.5353 129.091 19.726 129.255 19.9707C129.418 20.2155 129.506 20.5032 129.506 20.7975C129.505 21.192 129.348 21.5703 129.069 21.8493C128.79 22.1283 128.412 22.2852 128.018 22.2856Z" fill="#395064"/>
<path d="M233.3 76.5088C232.712 76.5088 232.136 76.6833 231.647 77.0104C231.157 77.3374 230.776 77.8022 230.551 78.346C230.325 78.8899 230.267 79.4883 230.381 80.0656C230.496 80.6429 230.78 81.1732 231.196 81.5895C231.612 82.0057 232.142 82.2891 232.72 82.404C233.297 82.5188 233.895 82.4599 234.439 82.2346C234.983 82.0094 235.448 81.6279 235.775 81.1385C236.102 80.649 236.277 80.0736 236.277 79.485C236.276 78.6959 235.962 77.9394 235.404 77.3815C234.846 76.8235 234.089 76.5097 233.3 76.5088ZM233.3 80.9731C233.006 80.9731 232.718 80.8858 232.474 80.7223C232.229 80.5588 232.038 80.3264 231.926 80.0544C231.813 79.7825 231.783 79.4833 231.841 79.1947C231.898 78.906 232.04 78.6409 232.248 78.4327C232.456 78.2246 232.721 78.0829 233.01 78.0255C233.299 77.9681 233.598 77.9975 233.87 78.1102C234.142 78.2228 234.374 78.4135 234.538 78.6582C234.701 78.903 234.788 79.1907 234.788 79.485C234.788 79.8795 234.631 80.2578 234.352 80.5368C234.073 80.8158 233.695 80.9727 233.3 80.9731Z" fill="#395064"/>
<path d="M12.3184 71.6514C11.7298 71.6514 11.1544 71.8259 10.665 72.1529C10.1755 72.48 9.79407 72.9448 9.5688 73.4886C9.34354 74.0324 9.28461 74.6309 9.39944 75.2082C9.51428 75.7855 9.79773 76.3158 10.214 76.732C10.6302 77.1483 11.1605 77.4317 11.7378 77.5466C12.3151 77.6614 12.9136 77.6025 13.4574 77.3772C14.0012 77.1519 14.466 76.7705 14.7931 76.281C15.1201 75.7916 15.2946 75.2162 15.2946 74.6276C15.2937 73.8385 14.9799 73.082 14.4219 72.5241C13.864 71.9661 13.1075 71.6523 12.3184 71.6514ZM12.3184 76.1157C12.0241 76.1157 11.7364 76.0284 11.4917 75.8649C11.247 75.7014 11.0563 75.4689 10.9436 75.197C10.831 74.9251 10.8015 74.6259 10.8589 74.3372C10.9164 74.0486 11.0581 73.7834 11.2662 73.5753C11.4743 73.3672 11.7395 73.2255 12.0281 73.1681C12.3168 73.1106 12.616 73.1401 12.8879 73.2527C13.1598 73.3654 13.3922 73.5561 13.5558 73.8008C13.7193 74.0455 13.8065 74.3332 13.8065 74.6276C13.8061 75.0221 13.6492 75.4004 13.3703 75.6794C13.0913 75.9584 12.713 76.1153 12.3184 76.1157Z" fill="#395064"/>
<path d="M79.1044 22.5174C78.6825 22.9279 78.3918 23.4542 78.269 24.0299C78.1463 24.6056 78.197 25.2048 78.4148 25.7517C78.6325 26.2985 79.0076 26.7685 79.4925 27.1022C79.9774 27.436 80.5503 27.6184 81.1389 27.6265C81.7275 27.6346 82.3053 27.4679 82.7991 27.1476C83.293 26.8274 83.6808 26.3678 83.9135 25.8271C84.1462 25.2864 84.2134 24.6889 84.1065 24.1101C83.9996 23.5312 83.7234 22.9971 83.3129 22.5752C82.7621 22.0102 82.0096 21.6869 81.2206 21.6761C80.4316 21.6652 79.6706 21.9678 79.1044 22.5174ZM82.2175 25.7172C82.0065 25.9224 81.7394 26.0605 81.45 26.1139C81.1606 26.1674 80.8618 26.1338 80.5915 26.0174C80.3211 25.9011 80.0914 25.7072 79.9312 25.4603C79.7711 25.2133 79.6878 24.9244 79.6918 24.6301C79.6959 24.3359 79.7871 24.0494 79.9539 23.8069C80.1208 23.5645 80.3558 23.377 80.6292 23.2681C80.9027 23.1592 81.2022 23.1338 81.4901 23.1952C81.7779 23.2566 82.0411 23.4019 82.2464 23.6129C82.5212 23.8959 82.6725 24.2765 82.6671 24.671C82.6617 25.0655 82.5 25.4417 82.2175 25.7172Z" fill="#395064"/>
<path d="M21.9302 18.5373L24.143 15.6266L22.7457 14.835L21.326 18.0939H21.2784L19.8349 14.8588L18.4138 15.6742L20.6028 18.515V18.5612L17.1802 18.1177V19.701L20.6266 19.2591V19.3067L18.4138 22.146L19.7412 22.9853L21.2561 19.701H21.3007L22.698 22.9614L24.1653 22.1237L21.9302 19.329V19.2829L25.4451 19.701V18.1177L21.9302 18.5835V18.5373Z" fill="#8DFF8A"/>
<path d="M207.207 53.3098L205.932 54.9452L206.696 55.4288L207.568 53.5374H207.595L208.399 55.4154L209.244 54.9318L207.957 53.3231V53.2964L209.981 53.5374V52.6267L207.957 52.8946V52.8678L209.231 51.1922L208.427 50.7354L207.609 52.6118H207.582L206.751 50.7487L205.932 51.219L207.193 52.8544V52.8812L205.222 52.6267V53.5374L207.207 53.283V53.3098Z" fill="#8DFF8A"/>
<path d="M182.327 32.0731V30.521L178.879 30.9779V30.9317L181.049 28.0776L179.679 27.3008L178.286 30.4972H178.24L176.824 27.3231L175.43 28.1237L177.577 30.9094V30.9555L174.219 30.521V32.0731L177.6 31.6401V31.6862L175.43 34.4719L176.731 35.2948L178.217 32.0731H178.262L179.632 35.271L181.071 34.4496L178.879 31.7085V31.6624L182.327 32.0731Z" fill="#8DFF8A"/>
<path d="M53.9002 49.7335L55.7722 47.2722L54.5907 46.6025L53.3883 49.36H53.3481L52.1279 46.6219L50.9255 47.3109L52.7782 49.7156V49.7543L49.8809 49.3793V50.7186L52.7975 50.3451V50.3853L50.9255 52.7871L52.0475 53.4969L53.3303 50.7186H53.3675L54.5505 53.4775L55.7916 52.7677L53.9002 50.4031V50.3644L56.8749 50.7186V49.3793L53.9002 49.7737V49.7335Z" fill="#8DFF8A"/>
<path d="M2.97619 220.238C4.6199 220.238 5.95238 218.906 5.95238 217.262C5.95238 215.618 4.6199 214.286 2.97619 214.286C1.33249 214.286 0 215.618 0 217.262C0 218.906 1.33249 220.238 2.97619 220.238Z" fill="#395064"/>
<path d="M16.3691 214.286H11.9048C11.1154 214.286 10.3584 214.599 9.80028 215.157C9.24214 215.715 8.92857 216.473 8.92857 217.262C8.92857 218.051 9.24214 218.808 9.80028 219.366C10.3584 219.924 11.1154 220.238 11.9048 220.238H16.3691C17.1584 220.238 17.9154 219.924 18.4735 219.366C19.0317 218.808 19.3452 218.051 19.3452 217.262C19.3452 216.473 19.0317 215.715 18.4735 215.157C17.9154 214.599 17.1584 214.286 16.3691 214.286Z" fill="#395064"/>
<path d="M238.095 214.286H233.631C232.842 214.286 232.085 214.599 231.526 215.157C230.968 215.715 230.655 216.473 230.655 217.262C230.655 218.051 230.968 218.808 231.526 219.366C232.085 219.924 232.842 220.238 233.631 220.238H238.095C238.885 220.238 239.642 219.924 240.2 219.366C240.758 218.808 241.071 218.051 241.071 217.262C241.071 216.473 240.758 215.715 240.2 215.157C239.642 214.599 238.885 214.286 238.095 214.286Z" fill="#395064"/>
<path d="M247.024 220.238C248.668 220.238 250 218.906 250 217.262C250 215.618 248.668 214.286 247.024 214.286C245.38 214.286 244.048 215.618 244.048 217.262C244.048 218.906 245.38 220.238 247.024 220.238Z" fill="#395064"/>
<path d="M178.824 226.19H166.462C165.713 226.25 165.015 226.59 164.506 227.141C163.997 227.693 163.714 228.416 163.714 229.167C163.714 229.917 163.997 230.64 164.506 231.192C165.015 231.743 165.713 232.083 166.462 232.143H178.824C179.573 232.083 180.271 231.743 180.78 231.192C181.289 230.64 181.572 229.917 181.572 229.167C181.572 228.416 181.289 227.693 180.78 227.141C180.271 226.59 179.573 226.25 178.824 226.19Z" fill="#8DFF8A"/>
<path d="M83.5387 226.19H71.176C70.4278 226.25 69.7296 226.59 69.2205 227.141C68.7114 227.693 68.4287 228.416 68.4287 229.167C68.4287 229.917 68.7114 230.64 69.2205 231.192C69.7296 231.743 70.4278 232.083 71.176 232.143H83.5387C84.2869 232.083 84.985 231.743 85.4941 231.192C86.0032 230.64 86.2859 229.917 86.2859 229.167C86.2859 228.416 86.0032 227.693 85.4941 227.141C84.985 226.59 84.2869 226.25 83.5387 226.19Z" fill="#8DFF8A"/>
<path d="M154.762 226.19H95.2381C94.4488 226.19 93.6917 226.504 93.1336 227.062C92.5755 227.62 92.2619 228.377 92.2619 229.167C92.2619 229.956 92.5755 230.713 93.1336 231.271C93.6917 231.829 94.4488 232.143 95.2381 232.143H118.958V235.119H107.143C106.354 235.119 105.597 235.433 105.038 235.991C104.48 236.549 104.167 237.306 104.167 238.095C104.167 238.885 104.48 239.642 105.038 240.2C105.597 240.758 106.354 241.071 107.143 241.071H144.345C145.135 241.071 145.892 240.758 146.45 240.2C147.008 239.642 147.321 238.885 147.321 238.095C147.321 237.306 147.008 236.549 146.45 235.991C145.892 235.433 145.135 235.119 144.345 235.119H131.042V232.143H154.762C155.551 232.143 156.308 231.829 156.866 231.271C157.425 230.713 157.738 229.956 157.738 229.167C157.738 228.377 157.425 227.62 156.866 227.062C156.308 226.504 155.551 226.19 154.762 226.19Z" fill="#8DFF8A"/>
<path d="M94.4765 71.4588C93.994 71.6632 93.5138 71.8718 93.0357 72.0845C92.3141 72.4062 91.7499 73.0013 91.4669 73.7389C91.1839 74.4765 91.2053 75.2963 91.5265 76.0181C91.8554 76.7322 92.45 77.2897 93.1838 77.572C93.9176 77.8542 94.7326 77.8389 95.4553 77.5293C95.8992 77.3321 96.3456 77.1386 96.7944 76.9487C97.5224 76.6414 98.0985 76.0574 98.396 75.3252C98.6934 74.5931 98.6878 73.7728 98.3805 73.0448C98.0731 72.3168 97.4891 71.7407 96.757 71.4432C96.0248 71.1458 95.2045 71.1514 94.4765 71.4588Z" fill="#3A576A"/>
<path d="M107.976 67.1678C107.462 67.2806 106.949 67.3987 106.439 67.5221C105.73 67.6939 105.11 68.1191 104.694 68.7175C104.278 69.3158 104.095 70.0458 104.181 70.7695C104.267 71.4932 104.615 72.1604 105.159 72.645C105.703 73.1297 106.406 73.3982 107.135 73.3998C107.852 73.3378 108.562 73.2003 109.251 72.9895C110.022 72.8202 110.695 72.3514 111.121 71.6861C111.548 71.0208 111.692 70.2135 111.523 69.4417C111.354 68.6699 110.886 67.9968 110.22 67.5704C109.555 67.144 108.748 66.9992 107.976 67.1678Z" fill="#65E862"/>
<path d="M198.026 116.068C197.895 115.699 197.693 115.36 197.43 115.069C197.168 114.779 196.85 114.543 196.496 114.375C196.143 114.207 195.759 114.111 195.368 114.092C194.977 114.072 194.586 114.13 194.217 114.262C193.848 114.394 193.509 114.598 193.22 114.861C192.93 115.124 192.695 115.442 192.528 115.797C192.361 116.151 192.266 116.535 192.247 116.926C192.229 117.317 192.288 117.708 192.421 118.076C192.585 118.533 192.744 118.992 192.899 119.453C193.16 120.194 193.699 120.804 194.402 121.154C195.105 121.505 195.917 121.568 196.666 121.331C197.415 121.079 198.033 120.54 198.385 119.833C198.736 119.125 198.793 118.307 198.541 117.558C198.375 117.06 198.203 116.563 198.026 116.068Z" fill="#65E862"/>
<path d="M60.7292 98.9563C60.507 99.2788 60.3507 99.6419 60.2691 100.025C60.1875 100.408 60.1823 100.803 60.2537 101.188C60.3251 101.573 60.4717 101.94 60.6852 102.269C60.8987 102.597 61.1748 102.88 61.4978 103.101C61.8208 103.323 62.1843 103.478 62.5674 103.559C62.9506 103.64 63.3459 103.644 63.7308 103.572C64.1157 103.499 64.4825 103.352 64.8103 103.138C65.138 102.924 65.4204 102.647 65.641 102.323C65.9135 101.925 66.1906 101.529 66.4723 101.136C66.7019 100.819 66.8667 100.459 66.9572 100.078C67.0477 99.6971 67.0621 99.3019 66.9996 98.9152C66.9371 98.5285 66.7989 98.158 66.593 97.8248C66.387 97.4917 66.1173 97.2024 65.7994 96.9736C65.4814 96.7449 65.1215 96.5811 64.7401 96.4917C64.3588 96.4023 63.9636 96.389 63.5771 96.4526C63.1906 96.5162 62.8204 96.6555 62.4879 96.8624C62.1553 97.0693 61.8668 97.3398 61.6389 97.6583C61.3308 98.0876 61.0276 98.5202 60.7292 98.9563Z" fill="#65E862"/>
<path d="M80.6869 78.9998C80.0355 79.4469 79.5881 80.1343 79.4431 80.911C79.2982 81.6877 79.4675 82.4902 79.9138 83.1422C80.3666 83.7849 81.0524 84.2254 81.8252 84.37C82.5979 84.5146 83.3966 84.3518 84.0511 83.9163C84.4508 83.642 84.8533 83.3717 85.2587 83.1052C85.9192 82.6718 86.3805 81.9938 86.541 81.2203C86.7016 80.4468 86.5483 79.6412 86.1149 78.9807C85.6815 78.3202 85.0035 77.859 84.23 77.6984C83.4565 77.5379 82.6509 77.6911 81.9905 78.1245C81.553 78.4119 81.1185 78.7037 80.6869 78.9998Z" fill="#65E862"/>
<path d="M69.7914 88.0521C69.2321 88.6096 68.9171 89.3665 68.9157 90.1563C68.9144 90.946 69.2269 91.704 69.7844 92.2633C70.3419 92.8227 71.0988 93.1377 71.8885 93.139C72.6783 93.1403 73.4362 92.8279 73.9956 92.2704C74.3393 91.9277 74.6864 91.5882 75.0368 91.2518C75.607 90.7051 75.9367 89.9543 75.9532 89.1645C75.9698 88.3748 75.672 87.6108 75.1253 87.0406C74.5786 86.4704 73.8278 86.1408 73.038 86.1242C72.2482 86.1076 71.4842 86.4054 70.9141 86.9521C70.5362 87.3159 70.162 87.6826 69.7914 88.0521Z" fill="#3A576A"/>
<path d="M187.599 107.519C187.998 108.195 188.642 108.691 189.398 108.902C190.154 109.113 190.962 109.024 191.653 108.652C192.341 108.263 192.847 107.617 193.059 106.856C193.271 106.095 193.172 105.281 192.785 104.593C192.527 104.134 192.264 103.679 191.998 103.227C191.798 102.891 191.535 102.597 191.222 102.362C190.909 102.128 190.553 101.957 190.175 101.86C189.796 101.763 189.402 101.741 189.015 101.797C188.628 101.852 188.255 101.983 187.919 102.182C187.582 102.381 187.288 102.645 187.054 102.957C186.819 103.27 186.648 103.626 186.551 104.005C186.454 104.384 186.433 104.778 186.488 105.165C186.543 105.552 186.674 105.924 186.874 106.261C187.12 106.677 187.362 107.096 187.599 107.519Z" fill="#3A576A"/>
<path d="M169.211 82.4946C168.723 83.1161 168.502 83.9057 168.596 84.6902C168.69 85.4747 169.091 86.1898 169.712 86.6786C170.093 86.9791 170.472 87.2834 170.847 87.5917C171.458 88.0922 172.243 88.3293 173.029 88.251C173.815 88.1726 174.538 87.7852 175.039 87.1739C175.539 86.5626 175.776 85.7776 175.698 84.9915C175.619 84.2053 175.232 83.4826 174.621 82.9821C174.214 82.6489 173.804 82.3194 173.39 81.9934C173.083 81.7513 172.731 81.5722 172.355 81.4664C171.978 81.3606 171.585 81.3301 171.196 81.3766C170.808 81.4232 170.433 81.5459 170.092 81.7378C169.752 81.9296 169.452 82.1868 169.211 82.4946Z" fill="#3A576A"/>
<path d="M183.676 91.7434C183.417 91.4499 183.104 91.2102 182.753 91.0379C182.401 90.8656 182.02 90.7642 181.63 90.7394C181.239 90.7146 180.848 90.7669 180.478 90.8933C180.108 91.0198 179.766 91.2179 179.473 91.4763C179.179 91.7347 178.94 92.0484 178.767 92.3995C178.595 92.7506 178.494 93.1322 178.469 93.5225C178.444 93.9128 178.496 94.3041 178.623 94.6742C178.749 95.0442 178.947 95.3858 179.206 95.6793C179.525 96.043 179.841 96.4102 180.152 96.7807C180.661 97.3845 181.389 97.7613 182.176 97.8283C182.963 97.8953 183.744 97.647 184.348 97.138C184.952 96.629 185.329 95.901 185.396 95.1142C185.463 94.3273 185.214 93.5461 184.705 92.9423C184.366 92.5386 184.023 92.139 183.676 91.7434Z" fill="#65E862"/>
<path d="M195.632 130.737C195.706 131.216 195.775 131.696 195.838 132.177C195.953 132.955 196.366 133.658 196.99 134.136C197.615 134.614 198.401 134.83 199.182 134.737C199.964 134.632 200.674 134.221 201.153 133.593C201.633 132.965 201.843 132.173 201.738 131.39C201.669 130.868 201.594 130.347 201.515 129.827C201.394 129.047 200.969 128.347 200.332 127.881C199.695 127.414 198.899 127.22 198.119 127.341C197.339 127.461 196.638 127.887 196.172 128.524C195.706 129.161 195.512 129.957 195.632 130.737Z" fill="#3A576A"/>
<path d="M144.686 70.823C144.452 71.5777 144.528 72.3942 144.896 73.0933C145.264 73.7924 145.894 74.3169 146.649 74.5515C147.389 74.8643 148.172 75.0658 148.972 75.1496C149.679 75.1483 150.363 74.8957 150.901 74.4368C151.439 73.9779 151.797 73.3427 151.909 72.6445C152.022 71.9464 151.883 71.2309 151.517 70.6259C151.151 70.0208 150.582 69.5657 149.911 69.3417C149.413 69.1758 148.913 69.0146 148.41 68.8579C148.036 68.7419 147.644 68.7007 147.254 68.7368C146.865 68.7728 146.486 68.8853 146.14 69.0678C145.794 69.2504 145.488 69.4994 145.238 69.8005C144.989 70.1017 144.801 70.4492 144.686 70.823Z" fill="#3A576A"/>
<path d="M131.26 68.4963C131.165 69.2804 131.385 70.0704 131.871 70.6925C132.358 71.3146 133.072 71.7179 133.856 71.8138C134.473 71.9241 135.096 71.9975 135.721 72.0335C136.474 72.0315 137.199 71.7443 137.749 71.2296C138.299 70.7149 138.634 70.011 138.686 69.2594C138.739 68.5079 138.504 67.7644 138.031 67.1786C137.557 66.5929 136.879 66.2082 136.133 66.102C135.614 66.0285 135.094 65.9604 134.574 65.8975C134.186 65.8506 133.792 65.8805 133.415 65.9857C133.039 66.0909 132.686 66.2692 132.379 66.5106C132.071 66.7519 131.814 67.0515 131.622 67.3922C131.43 67.7329 131.307 68.1081 131.26 68.4963Z" fill="#65E862"/>
<path d="M157.482 75.5351C157.114 76.2346 157.04 77.0513 157.274 77.8057C157.509 78.5601 158.034 79.1904 158.733 79.5583C159.542 80.1235 160.473 80.4881 161.451 80.6219C162.112 80.6216 162.754 80.4018 163.276 79.9971C163.798 79.5924 164.171 79.0256 164.336 78.3859C164.501 77.7462 164.449 77.0698 164.188 76.4629C163.927 75.856 163.471 75.3531 162.893 75.0331C162.431 74.7777 161.967 74.5274 161.5 74.2823C161.154 74.1005 160.775 73.9886 160.386 73.9532C159.997 73.9177 159.604 73.9594 159.231 74.0757C158.858 74.1921 158.511 74.3809 158.211 74.6313C157.911 74.8817 157.663 75.1888 157.482 75.5351Z" fill="#65E862"/>
<path d="M120.434 65.4525C119.661 65.4981 118.936 65.8429 118.412 66.4139C117.889 66.985 117.608 67.7374 117.63 68.5117C117.652 69.286 117.975 70.0213 118.53 70.5618C119.084 71.1023 119.828 71.4056 120.602 71.4073C120.661 71.4073 121.744 71.3513 122.23 71.3331C123.02 71.3036 123.766 70.9616 124.303 70.3824C124.841 69.8031 125.126 69.0339 125.097 68.2442C125.067 67.4544 124.725 66.7087 124.146 66.1711C123.567 65.6335 122.797 65.3481 122.008 65.3776C121.481 65.3972 120.956 65.4222 120.434 65.4525Z" fill="#3A576A"/>
<path d="M55.3821 115.293C56.1067 115.601 56.9229 115.612 57.6555 115.324C58.3881 115.036 58.9787 114.473 59.3006 113.755C59.4946 113.31 59.6932 112.868 59.8964 112.429C60.061 112.075 60.1542 111.691 60.1706 111.3C60.187 110.91 60.1263 110.52 59.992 110.153C59.8576 109.786 59.6523 109.449 59.3877 109.161C59.1231 108.873 58.8044 108.64 58.4499 108.476C58.0953 108.311 57.7118 108.218 57.3212 108.201C56.9306 108.185 56.5406 108.246 56.1735 108.38C55.8063 108.514 55.4693 108.72 55.1815 108.984C54.8937 109.249 54.6609 109.567 54.4963 109.922C54.2739 110.402 54.0569 110.885 53.8452 111.37C53.5293 112.094 53.5138 112.914 53.8019 113.65C54.0901 114.385 54.6584 114.976 55.3821 115.293Z" fill="#3A576A"/>
<path d="M49.7922 123.326C49.6651 123.838 49.544 124.352 49.4289 124.869C49.343 125.25 49.3331 125.645 49.3997 126.03C49.4664 126.416 49.6084 126.784 49.8176 127.115C50.0268 127.445 50.2991 127.731 50.6189 127.956C50.9387 128.182 51.2997 128.342 51.6814 128.427C52.063 128.513 52.4578 128.522 52.8431 128.455C53.2285 128.388 53.5968 128.246 53.927 128.036C54.2573 127.826 54.543 127.554 54.7679 127.234C54.9927 126.914 55.1523 126.553 55.2375 126.171C55.3428 125.699 55.4533 125.229 55.5688 124.761C55.6638 124.381 55.683 123.987 55.6253 123.6C55.5676 123.213 55.4342 122.841 55.2327 122.506C55.0312 122.17 54.7655 121.878 54.4509 121.645C54.1363 121.413 53.7789 121.245 53.3991 121.15C53.0194 121.056 52.6248 121.037 52.2379 121.096C51.851 121.154 51.4795 121.288 51.1445 121.49C50.8094 121.692 50.5176 121.959 50.2855 122.274C50.0535 122.589 49.8859 122.946 49.7922 123.326Z" fill="#65E862"/>
<path d="M202.26 145.579C202.291 145.052 202.315 144.526 202.334 143.998C202.349 143.607 202.286 143.217 202.15 142.851C202.013 142.484 201.806 142.148 201.54 141.862C201.274 141.575 200.953 141.344 200.598 141.181C200.242 141.019 199.858 140.928 199.467 140.914C198.68 140.894 197.917 141.184 197.341 141.72C196.765 142.257 196.422 142.998 196.386 143.784C196.369 144.269 196.346 144.753 196.318 145.236C196.303 145.639 196.368 146.041 196.51 146.418C196.652 146.796 196.868 147.142 197.144 147.435C197.421 147.728 197.754 147.964 198.122 148.127C198.491 148.291 198.889 148.379 199.292 148.387C200.052 148.386 200.782 148.095 201.334 147.573C201.886 147.051 202.217 146.337 202.26 145.579Z" fill="#65E862"/>
<path d="M47.7214 137.372C47.6945 137.898 47.6732 138.424 47.6574 138.952C47.6612 139.42 47.7723 139.881 47.9823 140.3C48.1923 140.718 48.4955 141.083 48.8686 141.366C49.2417 141.649 49.6747 141.842 50.1343 141.931C50.594 142.02 51.0679 142.003 51.5197 141.88C52.1089 141.694 52.6259 141.33 52.9997 140.838C53.3735 140.346 53.5856 139.75 53.6069 139.132C53.6214 138.647 53.6411 138.164 53.6658 137.68C53.7067 136.892 53.4327 136.12 52.9043 135.533C52.3758 134.947 51.6361 134.595 50.8478 134.554C50.0595 134.513 49.2873 134.787 48.701 135.315C48.1146 135.844 47.7623 136.584 47.7214 137.372Z" fill="#3A576A"/>
<path d="M197.372 161.26C198.039 161.259 198.686 161.035 199.21 160.622C199.734 160.21 200.104 159.634 200.261 158.986L200.442 158.228C200.53 157.847 200.542 157.453 200.478 157.067C200.414 156.682 200.275 156.312 200.068 155.981C199.862 155.649 199.592 155.361 199.274 155.134C198.956 154.907 198.596 154.744 198.215 154.656C197.835 154.567 197.44 154.555 197.055 154.619C196.669 154.683 196.3 154.822 195.968 155.029C195.637 155.236 195.349 155.506 195.121 155.824C194.894 156.142 194.732 156.501 194.643 156.882L194.479 157.573C194.381 158.011 194.382 158.465 194.481 158.902C194.58 159.34 194.775 159.749 195.052 160.102C195.329 160.455 195.681 160.742 196.082 160.942C196.483 161.143 196.924 161.251 197.372 161.26Z" fill="#3A576A"/>
<path d="M32.6599 143.264C33.0577 143.304 33.4595 143.258 33.8378 143.129C34.2161 142.999 34.562 142.79 34.8519 142.514C35.1418 142.239 35.3689 141.904 35.5176 141.533C35.6664 141.162 35.7333 140.763 35.7138 140.364L35.7349 139.645C35.7496 139.254 35.687 138.864 35.5506 138.497C35.4143 138.13 35.207 137.794 34.9405 137.507C34.674 137.22 34.3536 136.989 33.9976 136.827C33.6416 136.664 33.257 136.573 32.8659 136.559C32.4748 136.546 32.0848 136.609 31.7182 136.746C31.3517 136.884 31.0158 137.092 30.7298 137.359C30.4438 137.626 30.2133 137.947 30.0515 138.303C29.8897 138.66 29.7998 139.044 29.7869 139.436L29.7629 140.207C29.7418 140.996 30.0351 141.762 30.5783 142.335C31.1216 142.909 31.8703 143.243 32.6599 143.264Z" fill="#3A576A"/>
<path d="M214.256 140.173C214.27 140.658 214.269 141.144 214.286 141.631C214.267 142.028 214.333 142.424 214.479 142.794C214.625 143.164 214.847 143.499 215.131 143.777C215.416 144.055 215.755 144.27 216.128 144.408C216.501 144.546 216.899 144.603 217.296 144.576C218.086 144.567 218.839 144.244 219.391 143.679C219.943 143.113 220.247 142.352 220.238 141.562C220.231 141.041 220.221 140.52 220.206 140C220.196 139.608 220.11 139.222 219.95 138.864C219.791 138.506 219.563 138.182 219.278 137.913C218.994 137.643 218.659 137.432 218.293 137.292C217.926 137.152 217.536 137.086 217.144 137.097C216.752 137.109 216.367 137.198 216.009 137.359C215.652 137.519 215.329 137.749 215.061 138.035C214.793 138.321 214.584 138.657 214.446 139.024C214.307 139.391 214.243 139.781 214.256 140.173Z" fill="#65E862"/>
<path d="M168.64 64.7831C169.067 65.0232 169.492 65.2664 169.915 65.5128C170.598 65.9084 171.41 66.0166 172.173 65.8135C172.937 65.6104 173.588 65.1127 173.984 64.4297C174.38 63.7468 174.489 62.9344 174.287 62.1711C174.085 61.4078 173.588 60.7561 172.905 60.359C172.457 60.0985 172.006 59.8408 171.552 59.5857C170.863 59.2024 170.05 59.1079 169.292 59.3229C168.533 59.5379 167.891 60.0449 167.505 60.7327C167.12 61.4206 167.023 62.2332 167.236 62.9924C167.448 63.7516 167.953 64.3956 168.64 64.7831Z" fill="#3A576A"/>
<path d="M198.613 92.172C199.069 92.8116 199.756 93.2484 200.529 93.3899C201.302 93.5314 202.1 93.3665 202.753 92.9302C203.403 92.4805 203.847 91.7913 203.989 91.0141C204.131 90.2369 203.959 89.4351 203.51 88.7848C203.216 88.3592 202.92 87.9355 202.62 87.5137C202.393 87.1954 202.105 86.9249 201.774 86.7177C201.442 86.5105 201.073 86.3706 200.688 86.306C200.302 86.2415 199.908 86.2535 199.527 86.3414C199.146 86.4293 198.786 86.5914 198.467 86.8184C198.149 87.0454 197.879 87.3328 197.671 87.6644C197.464 87.9959 197.324 88.365 197.26 88.7506C197.195 89.1362 197.207 89.5308 197.295 89.9117C197.383 90.2927 197.545 90.6526 197.772 90.9709C198.055 91.3688 198.335 91.7692 198.613 92.172Z" fill="#65E862"/>
<path d="M156.728 59.2066C157.499 59.6011 158.336 59.8537 159.196 59.9523C159.889 59.9514 160.559 59.7097 161.092 59.2685C161.626 58.8274 161.989 58.2144 162.12 57.5347C162.25 56.855 162.141 56.1509 161.809 55.5433C161.477 54.9358 160.945 54.4625 160.302 54.2048C159.818 54.0107 159.331 53.8208 158.842 53.6353C158.104 53.3549 157.284 53.3795 156.563 53.7036C155.842 54.0278 155.28 54.625 154.999 55.3638C154.719 56.1026 154.744 56.9225 155.068 57.6432C155.392 58.3639 155.989 58.9262 156.728 59.2066Z" fill="#65E862"/>
<path d="M209.677 114.334C209.831 114.795 209.981 115.258 210.129 115.723C210.378 116.468 210.907 117.086 211.603 117.449C212.3 117.811 213.111 117.889 213.863 117.665C214.616 117.426 215.244 116.898 215.608 116.197C215.971 115.496 216.042 114.679 215.804 113.926C215.647 113.429 215.485 112.933 215.32 112.439C215.196 112.068 215 111.726 214.743 111.43C214.486 111.135 214.174 110.893 213.824 110.719C213.474 110.545 213.093 110.441 212.703 110.414C212.312 110.387 211.921 110.437 211.55 110.561C211.179 110.686 210.836 110.882 210.541 111.139C210.246 111.396 210.005 111.709 209.831 112.059C209.657 112.41 209.554 112.791 209.528 113.181C209.501 113.572 209.552 113.963 209.677 114.334Z" fill="#65E862"/>
<path d="M190.385 81.9069C190.928 82.4741 191.671 82.8075 192.456 82.8364C193.241 82.8653 194.007 82.5875 194.591 82.0618C195.169 81.5234 195.51 80.7776 195.539 79.988C195.568 79.1985 195.283 78.4296 194.746 77.8502C194.391 77.4683 194.033 77.0895 193.672 76.7138C193.401 76.4321 193.077 76.2067 192.718 76.0503C192.36 75.8939 191.974 75.8096 191.583 75.8023C191.192 75.795 190.803 75.8648 190.439 76.0076C190.075 76.1505 189.743 76.3637 189.461 76.6351C189.18 76.9064 188.954 77.2306 188.798 77.5891C188.641 77.9475 188.557 78.3333 188.55 78.7244C188.542 79.1154 188.612 79.5041 188.755 79.8681C188.898 80.2322 189.111 80.5646 189.383 80.8462C189.72 81.1968 190.054 81.5504 190.385 81.9069Z" fill="#3A576A"/>
<path d="M219.389 155.569C219.458 155.054 219.523 154.537 219.584 154.02C219.676 153.236 219.453 152.447 218.964 151.828C218.475 151.208 217.76 150.808 216.976 150.716C216.192 150.624 215.404 150.847 214.784 151.336C214.164 151.825 213.765 152.54 213.672 153.324C213.616 153.81 213.555 154.294 213.489 154.777C213.437 155.165 213.462 155.558 213.562 155.936C213.663 156.314 213.836 156.668 214.074 156.979C214.311 157.29 214.607 157.551 214.945 157.747C215.283 157.943 215.656 158.071 216.044 158.123C216.826 158.228 217.618 158.018 218.245 157.539C218.556 157.302 218.817 157.006 219.013 156.668C219.21 156.329 219.337 155.956 219.389 155.569Z" fill="#3A576A"/>
<path d="M144.126 55.4562C144.604 55.5602 145.08 55.6681 145.554 55.7799C146.322 55.9583 147.13 55.8244 147.801 55.4077C148.471 54.991 148.948 54.3255 149.128 53.5571C149.309 52.7888 149.176 51.9804 148.761 51.3092C148.346 50.6381 147.682 50.1591 146.914 49.9772C146.409 49.8593 145.903 49.7446 145.396 49.6331C144.624 49.4665 143.818 49.6127 143.154 50.0398C142.491 50.4668 142.023 51.1397 141.855 51.9109C141.687 52.6821 141.832 53.4885 142.257 54.1531C142.683 54.8178 143.355 55.2864 144.126 55.4562Z" fill="#3A576A"/>
<path d="M205.237 103.512C205.594 104.211 206.208 104.745 206.95 105.001C207.692 105.257 208.505 105.215 209.217 104.884C209.926 104.536 210.469 103.922 210.726 103.175C210.983 102.427 210.933 101.609 210.586 100.899C210.358 100.431 210.126 99.9652 209.89 99.5013C209.712 99.1523 209.468 98.8419 209.17 98.5876C208.872 98.3333 208.527 98.1402 208.155 98.0194C207.783 97.8985 207.39 97.8523 207 97.8834C206.61 97.9145 206.229 98.0222 205.881 98.2005C205.532 98.3787 205.222 98.6239 204.969 98.9221C204.715 99.2203 204.522 99.5656 204.402 99.9382C204.282 100.311 204.237 100.703 204.269 101.094C204.301 101.484 204.409 101.864 204.588 102.212C204.808 102.643 205.025 103.077 205.237 103.512Z" fill="#3A576A"/>
<path d="M179.601 72.052C179.987 72.3502 180.37 72.6519 180.75 72.9569C181.371 73.4387 182.155 73.6597 182.936 73.5729C183.717 73.4861 184.434 73.0984 184.933 72.4921C185.427 71.8749 185.655 71.0871 185.568 70.3019C185.481 69.5166 185.086 68.7979 184.469 68.3037C184.064 67.9785 183.655 67.6564 183.244 67.3375C182.619 66.8562 181.828 66.6427 181.045 66.7438C180.263 66.8449 179.552 67.2523 179.07 67.8767C178.587 68.5011 178.372 69.2914 178.472 70.0741C178.571 70.8569 178.978 71.5682 179.601 72.052Z" fill="#65E862"/>
<path d="M212.92 127.083C213.005 127.562 213.086 128.042 213.163 128.524C213.297 129.299 213.729 129.991 214.366 130.453C215.003 130.914 215.795 131.109 216.573 130.995C217.353 130.869 218.051 130.439 218.513 129.799C218.976 129.158 219.165 128.36 219.04 127.581C218.958 127.065 218.871 126.552 218.78 126.04C218.712 125.655 218.569 125.287 218.358 124.957C218.148 124.627 217.875 124.342 217.554 124.118C217.233 123.894 216.872 123.736 216.49 123.652C216.108 123.568 215.713 123.56 215.328 123.628C214.943 123.697 214.575 123.84 214.246 124.051C213.916 124.262 213.631 124.536 213.408 124.856C213.184 125.177 213.026 125.539 212.942 125.921C212.858 126.303 212.851 126.698 212.92 127.083Z" fill="#3A576A"/>
<path d="M41.0228 104.353C41.7308 104.697 42.5453 104.749 43.2915 104.499C44.0377 104.249 44.6562 103.716 45.0141 103.015C45.2321 102.578 45.4532 102.142 45.6775 101.709C45.8588 101.362 45.9699 100.982 46.0045 100.592C46.039 100.202 45.9963 99.8095 45.8788 99.4361C45.7614 99.0627 45.5714 98.7161 45.3198 98.4162C45.0682 98.1163 44.7599 97.869 44.4126 97.6883C44.0653 97.5077 43.6858 97.3974 43.2958 97.3636C42.9058 97.3299 42.513 97.3734 42.1398 97.4916C41.7666 97.6099 41.4204 97.8005 41.121 98.0528C40.8216 98.305 40.5749 98.6137 40.395 98.9614C40.1552 99.4241 39.9191 99.8892 39.6866 100.357C39.3344 101.064 39.2773 101.882 39.5278 102.631C39.7783 103.381 40.316 104 41.0228 104.353Z" fill="#65E862"/>
<path d="M47.5826 92.4316C48.2328 92.8747 49.0306 93.0454 49.8051 92.9074C50.5797 92.7694 51.2693 92.3335 51.7265 91.6932C52.0062 91.2916 52.2891 90.8927 52.5751 90.4964C52.8041 90.1794 52.9683 89.8205 53.0585 89.44C53.1487 89.0595 53.163 88.6651 53.1007 88.2791C53.0385 87.893 52.9008 87.5231 52.6955 87.1903C52.4903 86.8575 52.2215 86.5684 51.9045 86.3395C51.5875 86.1106 51.2285 85.9463 50.8481 85.8562C50.4676 85.766 50.0731 85.7516 49.6871 85.8139C49.3011 85.8762 48.9312 86.0139 48.5984 86.2191C48.2656 86.4244 47.9765 86.6932 47.7476 87.0101C47.4431 87.4321 47.1423 87.8563 46.8451 88.2826C46.3933 88.9308 46.2172 89.7318 46.3555 90.5097C46.4937 91.2876 46.9351 91.9789 47.5826 92.4316Z" fill="#3A576A"/>
<path d="M104.313 55.7342C105.023 55.6755 105.725 55.5446 106.409 55.3434C107.179 55.1768 107.852 54.7116 108.281 54.0499C108.709 53.3881 108.858 52.5835 108.694 51.8124C108.53 51.0413 108.068 50.3664 107.408 49.9354C106.748 49.5045 105.944 49.3526 105.172 49.5131C104.665 49.6215 104.159 49.7333 103.654 49.8485C102.94 50.0122 102.312 50.4326 101.889 51.0295C101.466 51.6264 101.277 52.3581 101.358 53.0853C101.44 53.8124 101.786 54.4842 102.331 54.9727C102.875 55.4612 103.581 55.7322 104.313 55.7342Z" fill="#65E862"/>
<path d="M91.3469 59.7138C92.1985 59.6409 93.0279 59.4034 93.7891 59.0147C94.5274 58.7377 95.1258 58.1793 95.4532 57.4619C95.7805 56.7445 95.8101 55.9266 95.5355 55.1875C95.2609 54.4483 94.7045 53.8481 93.9881 53.5185C93.2718 53.1888 92.454 53.1566 91.7139 53.4288C91.2264 53.6099 90.741 53.7956 90.2578 53.986C89.5229 54.2758 88.9329 54.8453 88.6174 55.5695C88.3019 56.2938 88.2866 57.1137 88.575 57.8492C88.8138 58.39 89.2009 58.8522 89.6914 59.1822C90.182 59.5121 90.756 59.6964 91.3469 59.7138Z" fill="#3A576A"/>
<path d="M79.1161 65.6077C80.1132 65.4858 81.0612 65.1057 81.8663 64.505C82.558 64.1231 83.0697 63.482 83.2887 62.7228C83.5078 61.9635 83.4162 61.1484 83.0343 60.4567C82.6523 59.765 82.0112 59.2533 81.252 59.0342C80.4928 58.8152 79.6777 58.9067 78.9859 59.2887C78.5318 59.5404 78.0801 59.7952 77.6308 60.0533C77.061 60.3791 76.6151 60.8843 76.3625 61.4901C76.1099 62.0959 76.0649 62.7683 76.2344 63.4024C76.4039 64.0364 76.7785 64.5966 77.2998 64.9955C77.821 65.3944 78.4597 65.6097 79.1161 65.6077Z" fill="#65E862"/>
<path d="M67.8727 73.187C69.0143 73.0564 70.0738 72.5295 70.8668 71.698C71.4943 71.2191 71.9061 70.5107 72.0117 69.7284C72.1173 68.9461 71.9081 68.1539 71.43 67.5257C70.9519 66.8976 70.244 66.4849 69.4618 66.3784C68.6797 66.2718 67.8872 66.4801 67.2584 66.9574C66.8443 67.2739 66.4333 67.5933 66.0254 67.9155C65.406 68.4059 65.0064 69.1221 64.9145 69.9068C64.8225 70.6915 65.0457 71.4806 65.5349 72.101C65.8206 72.4429 66.1783 72.7175 66.5824 72.9053C66.9866 73.093 67.4271 73.1892 67.8727 73.187Z" fill="#3A576A"/>
<path d="M57.8554 82.3792C59.2824 82.3754 60.1146 81.3658 61.0314 80.4263C61.3065 80.1469 61.5237 79.816 61.6705 79.4524C61.8174 79.0889 61.891 78.6999 61.8872 78.3078C61.8834 77.9158 61.8022 77.5283 61.6483 77.1677C61.4944 76.8071 61.2708 76.4804 60.9903 76.2064C60.7099 75.9324 60.3781 75.7165 60.014 75.571C59.6499 75.4255 59.2607 75.3534 58.8686 75.3587C58.4766 75.364 58.0894 75.4466 57.7294 75.6019C57.3694 75.7572 57.0435 75.982 56.7706 76.2635C56.4073 76.6367 56.0471 77.0131 55.6901 77.3926C55.2855 77.811 55.0141 78.3399 54.9101 78.9125C54.8062 79.4852 54.8744 80.0758 55.1062 80.6096C55.338 81.1434 55.723 81.5965 56.2123 81.9115C56.7017 82.2265 57.2735 82.3892 57.8554 82.3792Z" fill="#65E862"/>
<path d="M131.116 53.6089C131.603 53.6416 132.743 53.7297 132.827 53.7297C133.595 53.7278 134.332 53.4297 134.886 52.8974C135.439 52.3651 135.766 51.6398 135.797 50.8727C135.829 50.1055 135.564 49.3557 135.056 48.7795C134.549 48.2033 133.838 47.8453 133.073 47.7799C132.557 47.7371 132.039 47.6978 131.52 47.6621C130.731 47.6086 129.954 47.8704 129.358 48.3902C128.763 48.9099 128.398 49.6449 128.344 50.4335C128.291 51.2221 128.553 51.9997 129.072 52.5952C129.592 53.1907 130.327 53.5553 131.116 53.6089Z" fill="#65E862"/>
<path d="M36.294 117.118C37.0452 117.353 37.8586 117.284 38.5597 116.926C39.2607 116.569 39.7936 115.95 40.044 115.204C40.1952 114.738 40.3499 114.273 40.5083 113.809C40.6357 113.439 40.6889 113.048 40.6649 112.658C40.6408 112.267 40.5401 111.885 40.3684 111.534C40.1967 111.182 39.9573 110.868 39.6641 110.609C39.3708 110.35 39.0294 110.152 38.6594 110.025C38.2893 109.898 37.8979 109.845 37.5074 109.87C37.117 109.894 36.7352 109.995 36.384 110.168C36.0327 110.34 35.7188 110.579 35.4602 110.873C35.2017 111.167 35.0035 111.508 34.8771 111.878C34.7085 112.371 34.5436 112.866 34.3823 113.363C34.1384 114.115 34.2028 114.932 34.5613 115.636C34.9197 116.34 35.5429 116.873 36.294 117.118Z" fill="#3A576A"/>
<path d="M33.5067 130.442C34.2845 130.563 35.0787 130.374 35.7189 129.916C36.3591 129.458 36.7943 128.768 36.9313 127.993C37.0119 127.512 37.0955 127.031 37.1827 126.553C37.2547 126.168 37.2501 125.773 37.1691 125.39C37.0881 125.007 36.9324 124.643 36.7107 124.321C36.489 123.998 36.2059 123.722 35.8774 123.509C35.5489 123.296 35.1816 123.149 34.7966 123.079C34.4115 123.008 34.0162 123.013 33.6334 123.095C33.2505 123.178 32.8877 123.334 32.5655 123.557C32.2434 123.78 31.9684 124.064 31.7562 124.393C31.5441 124.722 31.3989 125.09 31.3291 125.475C31.2347 125.986 31.145 126.499 31.0603 127.013C30.9301 127.793 31.1148 128.591 31.5736 129.234C32.0323 129.877 32.7277 130.312 33.5067 130.442Z" fill="#65E862"/>
<path d="M117.736 53.6845C117.814 53.6845 118.94 53.6037 119.426 53.5747C120.214 53.5251 120.949 53.1652 121.472 52.5739C121.995 51.9826 122.261 51.2081 122.214 50.4204C122.166 49.6327 121.808 48.8961 121.217 48.3721C120.627 47.8482 119.853 47.5797 119.066 47.6257C118.545 47.657 118.025 47.6929 117.506 47.7334C116.739 47.7943 116.026 48.1495 115.515 48.7246C115.003 49.2998 114.735 50.0503 114.764 50.8192C114.794 51.588 115.12 52.3156 115.674 52.8497C116.228 53.3837 116.967 53.6828 117.736 53.6845Z" fill="#3A576A"/>
<path d="M214.796 164.277C214.035 164.071 213.222 164.175 212.537 164.567C211.851 164.959 211.35 165.607 211.142 166.368L210.949 167.066C210.843 167.442 210.812 167.836 210.858 168.224C210.904 168.613 211.027 168.988 211.218 169.33C211.409 169.671 211.666 169.971 211.973 170.213C212.281 170.455 212.633 170.633 213.009 170.739C213.386 170.845 213.78 170.875 214.168 170.829C214.556 170.782 214.932 170.66 215.273 170.468C215.614 170.276 215.913 170.019 216.155 169.712C216.397 169.404 216.575 169.052 216.681 168.675L216.885 167.937C217.093 167.175 216.989 166.361 216.598 165.675C216.206 164.989 215.558 164.486 214.796 164.277Z" fill="#65E862"/>
<path d="M224.288 214.286H141.934L190.983 187.134C196.91 184.022 199.362 177.959 197.085 172.046C195.81 168.732 190.042 160.869 180.333 164.71L154.682 176.33C154.849 178.638 154.614 180.958 153.987 183.186C164.042 178.631 182.784 170.141 182.787 170.139C186.207 168.592 190.254 170.87 191.531 174.189C192.931 177.824 190.738 180.534 188.161 181.887L132.61 212.637C130.754 213.614 128.707 214.176 126.612 214.286H125.123C123.809 214.222 122.51 213.981 121.262 213.57L78.7332 200.038C77.4217 199.62 76.0536 199.408 74.6772 199.408H68.4524V160.677H82.8799C83.799 160.676 84.7097 160.851 85.5633 161.192L107.964 170.11C109.517 170.731 111.175 171.049 112.848 171.048H135.894C136.803 171.033 137.706 171.2 138.55 171.538C139.395 171.876 140.163 172.378 140.811 173.016C141.459 173.654 141.974 174.415 142.325 175.253C142.676 176.092 142.857 176.992 142.857 177.902C142.857 178.811 142.676 179.711 142.325 180.55C141.974 181.388 141.459 182.149 140.811 182.787C140.163 183.425 139.395 183.927 138.55 184.265C137.706 184.603 136.803 184.77 135.894 184.756H110.964C107.886 184.756 104.906 185.832 102.538 187.798L98.4926 191.166C97.8886 191.672 97.5097 192.396 97.4388 193.181C97.3678 193.965 97.6106 194.746 98.114 195.352C98.6173 195.958 99.3403 196.34 100.125 196.414C100.909 196.488 101.691 196.249 102.299 195.748L106.343 192.381C107.642 191.304 109.277 190.715 110.964 190.715H135.894C137.585 190.729 139.263 190.407 140.829 189.769C142.395 189.131 143.82 188.19 145.021 186.998C146.221 185.807 147.174 184.39 147.825 182.829C148.475 181.267 148.81 179.593 148.81 177.901C148.81 176.21 148.475 174.536 147.825 172.974C147.174 171.413 146.221 169.996 145.021 168.805C143.82 167.613 142.395 166.672 140.829 166.034C139.263 165.396 137.585 165.074 135.894 165.088H112.848C111.929 165.089 111.018 164.914 110.165 164.573L87.7642 155.655C86.2108 155.034 84.5529 154.716 82.88 154.717H68.2173C67.8711 153.437 67.1134 152.305 66.061 151.498C65.0086 150.69 63.7198 150.251 62.3931 150.248H32.7381C31.9478 150.248 31.1898 150.562 30.6309 151.12C30.0721 151.679 29.7581 152.437 29.7581 153.228C29.7581 154.018 30.0721 154.776 30.6309 155.335C31.1898 155.894 31.9478 156.207 32.7381 156.207L62.5 156.293L62.3932 203.886H46.9782C46.1878 203.886 45.4299 204.2 44.871 204.759C44.3122 205.318 43.9982 206.076 43.9982 206.866C43.9982 207.657 44.3122 208.415 44.871 208.974C45.4299 209.532 46.1878 209.846 46.9782 209.846H62.3932C63.7214 209.843 65.0117 209.403 66.0648 208.593C67.1179 207.784 67.8753 206.65 68.22 205.368H74.6772C75.4419 205.368 76.202 205.486 76.9304 205.718C76.9304 205.718 91.7262 210.426 103.857 214.286H25.7123C25.2889 214.231 24.8586 214.266 24.4501 214.39C24.0416 214.515 23.6642 214.725 23.3433 215.006C23.0224 215.288 22.7653 215.635 22.5892 216.024C22.4131 216.413 22.322 216.835 22.322 217.262C22.322 217.689 22.4131 218.111 22.5892 218.5C22.7653 218.889 23.0224 219.236 23.3433 219.518C23.6642 219.799 24.0416 220.009 24.4501 220.134C24.8586 220.258 25.2889 220.294 25.7123 220.238H224.288C224.711 220.294 225.141 220.258 225.55 220.134C225.958 220.009 226.336 219.799 226.657 219.518C226.978 219.236 227.235 218.889 227.411 218.5C227.587 218.111 227.678 217.689 227.678 217.262C227.678 216.835 227.587 216.413 227.411 216.024C227.235 215.635 226.978 215.288 226.657 215.006C226.336 214.725 225.958 214.515 225.55 214.39C225.141 214.266 224.711 214.231 224.288 214.286Z" fill="#395064"/>
<path d="M125 118.536C121.449 118.532 118.045 117.119 115.534 114.609C113.023 112.098 111.611 108.694 111.607 105.143V93.2381C111.607 89.6861 113.018 86.2795 115.53 83.7679C118.041 81.2562 121.448 79.8452 125 79.8452C128.552 79.8452 131.958 81.2562 134.47 83.7679C136.982 86.2795 138.393 89.6861 138.393 93.2381V105.143C138.389 108.694 136.976 112.098 134.466 114.609C131.955 117.119 128.551 118.532 125 118.536ZM125 85.7976C123.027 85.7999 121.136 86.5846 119.741 87.9794C118.346 89.3743 117.562 91.2654 117.559 93.2381V105.143C117.559 107.116 118.343 109.009 119.739 110.404C121.134 111.799 123.026 112.583 125 112.583C126.973 112.583 128.866 111.799 130.261 110.404C131.656 109.009 132.44 107.116 132.44 105.143V93.2381C132.438 91.2654 131.653 89.3743 130.258 87.9794C128.864 86.5846 126.972 85.7999 125 85.7976Z" fill="#8DFF8A"/>
<path d="M160.716 165.056L160.716 138.038C160.82 133.146 159.255 128.135 154.502 125.96C154.502 125.96 137.073 117.141 136.908 117.091V111.243C135.599 113.785 133.514 115.843 130.956 117.121V122.267L124.993 131.335L119.051 122.276V117.124C116.495 115.85 114.41 113.795 113.099 111.258V117.092C112.934 117.141 95.6347 125.896 95.6028 125.912C90.9131 128.286 89.173 132.949 89.2907 137.978V147.883C89.5166 147.963 95.2428 150.217 95.2428 150.217L95.2424 137.921C95.1961 135.259 95.5756 132.552 98.1953 131.277L112.931 123.803L120.228 134.929L114.686 156.338C114.633 156.598 114.606 156.862 114.607 157.128H121.312L120.77 156.585L125.004 140.234L129.238 156.584L128.695 157.128H135.394C135.394 156.835 135.363 156.544 135.302 156.258L129.772 134.904L137.074 123.801C137.074 123.801 151.869 131.304 151.884 131.311C154.46 132.618 154.809 135.364 154.764 137.978V167.753L160.716 165.056Z" fill="#395064"/>
</svg>
