<svg width="251" height="251" viewBox="0 0 251 251" fill="none" xmlns="http://www.w3.org/2000/svg">
<g clip-path="url(#clip0_30_3928)">
<path d="M236.856 18.357C237.739 18.357 238.602 18.0952 239.336 17.6047C240.071 17.1141 240.643 16.4169 240.981 15.6012C241.319 14.7854 241.407 13.8878 241.235 13.0218C241.062 12.1558 240.637 11.3604 240.013 10.736C239.389 10.1117 238.593 9.6865 237.727 9.51425C236.861 9.34199 235.964 9.4304 235.148 9.76829C234.332 10.1062 233.635 10.6784 233.144 11.4125C232.654 12.1467 232.392 13.0098 232.392 13.8928C232.393 15.0763 232.864 16.2111 233.701 17.048C234.538 17.8849 235.673 18.3557 236.856 18.357ZM236.856 11.6606C237.298 11.6606 237.729 11.7915 238.096 12.0368C238.463 12.2821 238.75 12.6307 238.918 13.0385C239.087 13.4464 239.132 13.8952 239.046 14.3282C238.959 14.7612 238.747 15.1589 238.435 15.4711C238.122 15.7833 237.725 15.9959 237.292 16.082C236.859 16.1681 236.41 16.1239 236.002 15.955C235.594 15.786 235.246 15.4999 235 15.1329C234.755 14.7658 234.624 14.3342 234.624 13.8928C234.625 13.3009 234.86 12.7335 235.279 12.315C235.697 11.8966 236.264 11.6612 236.856 11.6606Z" fill="#2D4356"/>
<path d="M128.518 28.3208C127.929 28.3208 127.354 28.4954 126.864 28.8224C126.375 29.1494 125.994 29.6142 125.768 30.1581C125.543 30.7019 125.484 31.3003 125.599 31.8776C125.714 32.4549 125.997 32.9853 126.413 33.4015C126.83 33.8177 127.36 34.1012 127.937 34.216C128.515 34.3308 129.113 34.2719 129.657 34.0466C130.201 33.8214 130.666 33.4399 130.993 32.9505C131.32 32.461 131.494 31.8856 131.494 31.297C131.493 30.5079 131.179 29.7515 130.621 29.1935C130.063 28.6356 129.307 28.3217 128.518 28.3208ZM128.518 32.7851C128.224 32.7851 127.936 32.6978 127.691 32.5343C127.446 32.3708 127.256 32.1384 127.143 31.8665C127.03 31.5945 127.001 31.2953 127.058 31.0067C127.116 30.718 127.258 30.4529 127.466 30.2448C127.674 30.0366 127.939 29.8949 128.228 29.8375C128.516 29.7801 128.815 29.8095 129.087 29.9222C129.359 30.0348 129.592 30.2255 129.755 30.4703C129.919 30.715 130.006 31.0027 130.006 31.297C130.006 31.6915 129.849 32.0698 129.57 32.3488C129.291 32.6278 128.912 32.7847 128.518 32.7851Z" fill="#2D4356"/>
<path d="M233.801 83.0083C233.212 83.0083 232.637 83.1829 232.147 83.5099C231.658 83.8369 231.276 84.3017 231.051 84.8456C230.826 85.3894 230.767 85.9878 230.882 86.5651C230.996 87.1424 231.28 87.6728 231.696 88.089C232.112 88.5052 232.643 88.7887 233.22 88.9035C233.797 89.0183 234.396 88.9594 234.94 88.7341C235.483 88.5089 235.948 88.1274 236.275 87.638C236.602 87.1485 236.777 86.5731 236.777 85.9845C236.776 85.1954 236.462 84.439 235.904 83.881C235.346 83.3231 234.59 83.0092 233.801 83.0083ZM233.801 87.4726C233.506 87.4726 233.219 87.3853 232.974 87.2218C232.729 87.0583 232.538 86.8259 232.426 86.554C232.313 86.282 232.284 85.9828 232.341 85.6942C232.399 85.4055 232.54 85.1404 232.748 84.9322C232.957 84.7241 233.222 84.5824 233.51 84.525C233.799 84.4676 234.098 84.497 234.37 84.6097C234.642 84.7223 234.874 84.913 235.038 85.1578C235.201 85.4025 235.289 85.6902 235.289 85.9845C235.288 86.379 235.131 86.7573 234.852 87.0363C234.573 87.3153 234.195 87.4722 233.801 87.4726Z" fill="#2D4356"/>
<path d="M12.8185 65.1511C12.2298 65.1511 11.6544 65.3257 11.165 65.6527C10.6756 65.9797 10.2941 66.4445 10.0688 66.9884C9.84357 67.5322 9.78464 68.1306 9.89947 68.7079C10.0143 69.2853 10.2978 69.8156 10.714 70.2318C11.1302 70.648 11.6605 70.9315 12.2379 71.0463C12.8152 71.1612 13.4136 71.1022 13.9574 70.877C14.5012 70.6517 14.9661 70.2702 15.2931 69.7808C15.6201 69.2914 15.7947 68.7159 15.7947 68.1273C15.7938 67.3383 15.4799 66.5818 14.922 66.0238C14.364 65.4659 13.6075 65.152 12.8185 65.1511ZM12.8185 69.6154C12.5242 69.6154 12.2365 69.5281 11.9917 69.3646C11.747 69.2011 11.5563 68.9687 11.4437 68.6968C11.331 68.4249 11.3016 68.1257 11.359 67.837C11.4164 67.5483 11.5581 67.2832 11.7662 67.0751C11.9743 66.867 12.2395 66.7252 12.5282 66.6678C12.8168 66.6104 13.116 66.6399 13.3879 66.7525C13.6599 66.8651 13.8923 67.0559 14.0558 67.3006C14.2193 67.5453 14.3066 67.833 14.3066 68.1273C14.3062 68.5219 14.1493 68.9001 13.8703 69.1791C13.5913 69.4581 13.213 69.615 12.8185 69.6154Z" fill="#2D4356"/>
<path d="M79.6042 17.0174C79.1823 17.4279 78.8916 17.9542 78.7688 18.5299C78.6461 19.1056 78.6968 19.7048 78.9145 20.2517C79.1323 20.7985 79.5074 21.2685 79.9923 21.6022C80.4772 21.936 81.0501 22.1184 81.6387 22.1265C82.2273 22.1346 82.805 21.9679 83.2989 21.6476C83.7928 21.3274 84.1806 20.8678 84.4133 20.3271C84.646 19.7864 84.7132 19.1889 84.6063 18.6101C84.4994 18.0312 84.2232 17.4971 83.8127 17.0752C83.2618 16.5102 82.5094 16.1869 81.7204 16.1761C80.9314 16.1652 80.1703 16.4678 79.6042 17.0174ZM82.7173 20.2172C82.5063 20.4224 82.2392 20.5605 81.9498 20.6139C81.6604 20.6674 81.3616 20.6338 81.0913 20.5174C80.8209 20.4011 80.5912 20.2072 80.431 19.9603C80.2709 19.7133 80.1876 19.4244 80.1916 19.1301C80.1956 18.8359 80.2869 18.5494 80.4537 18.3069C80.6206 18.0645 80.8556 17.877 81.129 17.7681C81.4024 17.6592 81.702 17.6338 81.9899 17.6952C82.2777 17.7566 82.5409 17.9019 82.7461 18.1129C83.021 18.3959 83.1723 18.7765 83.1669 19.171C83.1615 19.5655 82.9998 19.9417 82.7173 20.2172Z" fill="#2D4356"/>
<path d="M14.4301 19.0371L16.6429 16.1264L15.2455 15.3347L13.8259 18.5936H13.7783L12.3348 15.3585L10.9137 16.174L13.1027 19.0148V19.0609L9.68005 18.6175V20.2008L13.1265 19.7588V19.8064L10.9137 22.6457L12.2411 23.485L13.7559 20.2008H13.8006L15.1979 23.4612L16.6652 22.6234L14.4301 19.8288V19.7826L17.9449 20.2008V18.6175L14.4301 19.0832V19.0371Z" fill="#8DFF8A"/>
<path d="M203.707 57.8095L202.432 59.4449L203.196 59.9286L204.068 58.0372H204.095L204.899 59.9152L205.744 59.4315L204.457 57.8229V57.7961L206.481 58.0372V57.1265L204.457 57.3943V57.3675L205.731 55.692L204.927 55.2351L204.109 57.1116H204.082L203.251 55.2485L202.432 55.7187L203.693 57.3542V57.3809L201.722 57.1265V58.0372L203.707 57.7827V57.8095Z" fill="#8DFF8A"/>
<path d="M188.827 26.5729V25.0208L185.379 25.4776V25.4315L187.549 22.5773L186.179 21.8005L184.786 24.997H184.74L183.324 21.8229L181.93 22.6235L184.077 25.4092V25.4553L180.719 25.0208V26.5729L184.1 26.1398V26.186L181.93 28.9717L183.231 29.7946L184.717 26.5729H184.762L186.132 29.7708L187.571 28.9493L185.379 26.2083V26.1621L188.827 26.5729Z" fill="#8DFF8A"/>
<path d="M54.4003 55.2337L56.2723 52.7724L55.0908 52.1028L53.8884 54.8602H53.8482L52.628 52.1221L51.4256 52.8111L53.2783 55.2159V55.2546L50.381 54.8796V56.2189L53.2976 55.8453V55.8855L51.4256 58.2873L52.5476 58.9971L53.8304 56.2189H53.8676L55.0506 58.9778L56.2917 58.268L54.4003 55.9034V55.8647L57.375 56.2189V54.8796L54.4003 55.2739V55.2337Z" fill="#8DFF8A"/>
<path d="M3.47619 220.738C5.1199 220.738 6.45238 219.406 6.45238 217.762C6.45238 216.118 5.1199 214.786 3.47619 214.786C1.83249 214.786 0.5 216.118 0.5 217.762C0.5 219.406 1.83249 220.738 3.47619 220.738Z" fill="#2D4356"/>
<path d="M16.8691 214.786H12.4048C11.6154 214.786 10.8584 215.099 10.3003 215.657C9.74215 216.215 9.42859 216.973 9.42859 217.762C9.42859 218.551 9.74215 219.308 10.3003 219.866C10.8584 220.424 11.6154 220.738 12.4048 220.738H16.8691C17.6584 220.738 18.4154 220.424 18.9735 219.866C19.5317 219.308 19.8453 218.551 19.8453 217.762C19.8453 216.973 19.5317 216.215 18.9735 215.657C18.4154 215.099 17.6584 214.786 16.8691 214.786Z" fill="#2D4356"/>
<path d="M238.595 214.786H234.131C233.342 214.786 232.585 215.099 232.026 215.657C231.468 216.215 231.155 216.973 231.155 217.762C231.155 218.551 231.468 219.308 232.026 219.866C232.585 220.424 233.342 220.738 234.131 220.738H238.595C239.385 220.738 240.142 220.424 240.7 219.866C241.258 219.308 241.571 218.551 241.571 217.762C241.571 216.973 241.258 216.215 240.7 215.657C240.142 215.099 239.385 214.786 238.595 214.786Z" fill="#2D4356"/>
<path d="M247.524 220.738C249.168 220.738 250.5 219.406 250.5 217.762C250.5 216.118 249.168 214.786 247.524 214.786C245.88 214.786 244.548 216.118 244.548 217.762C244.548 219.406 245.88 220.738 247.524 220.738Z" fill="#2D4356"/>
<path d="M176.324 226.69H163.961C163.213 226.75 162.515 227.09 162.006 227.641C161.497 228.193 161.214 228.916 161.214 229.667C161.214 230.417 161.497 231.14 162.006 231.692C162.515 232.243 163.213 232.583 163.961 232.643H176.324C177.072 232.583 177.771 232.243 178.28 231.692C178.789 231.14 179.071 230.417 179.071 229.667C179.071 228.916 178.789 228.193 178.28 227.641C177.771 227.09 177.072 226.75 176.324 226.69Z" fill="#8DFF8A"/>
<path d="M87.0384 226.69H74.6757C73.9275 226.75 73.2294 227.09 72.7203 227.641C72.2112 228.193 71.9285 228.916 71.9285 229.667C71.9285 230.417 72.2112 231.14 72.7203 231.692C73.2294 232.243 73.9275 232.583 74.6757 232.643H87.0384C87.7866 232.583 88.4848 232.243 88.9939 231.692C89.503 231.14 89.7857 230.417 89.7857 229.667C89.7857 228.916 89.503 228.193 88.9939 227.641C88.4848 227.09 87.7866 226.75 87.0384 226.69Z" fill="#8DFF8A"/>
<path d="M155.262 226.69H95.7382C94.9488 226.69 94.1918 227.004 93.6337 227.562C93.0755 228.12 92.762 228.877 92.762 229.667C92.762 230.456 93.0755 231.213 93.6337 231.771C94.1918 232.329 94.9488 232.643 95.7382 232.643H119.458V235.619H107.643C106.854 235.619 106.097 235.933 105.538 236.491C104.98 237.049 104.667 237.806 104.667 238.595C104.667 239.385 104.98 240.142 105.538 240.7C106.097 241.258 106.854 241.571 107.643 241.571H144.845C145.635 241.571 146.392 241.258 146.95 240.7C147.508 240.142 147.821 239.385 147.821 238.595C147.821 237.806 147.508 237.049 146.95 236.491C146.392 235.933 145.635 235.619 144.845 235.619H131.542V232.643H155.262C156.051 232.643 156.808 232.329 157.366 231.771C157.925 231.213 158.238 230.456 158.238 229.667C158.238 228.877 157.925 228.12 157.366 227.562C156.808 227.004 156.051 226.69 155.262 226.69Z" fill="#8DFF8A"/>
<path d="M94.9765 71.9588C94.494 72.1632 94.0137 72.3718 93.5356 72.5845C92.8141 72.9062 92.2498 73.5013 91.9668 74.2389C91.6838 74.9765 91.7053 75.7963 92.0264 76.5181C92.3553 77.2322 92.95 77.7897 93.6838 78.072C94.4176 78.3542 95.2325 78.3389 95.9552 78.0293C96.3992 77.8321 96.8455 77.6386 97.2943 77.4487C98.0224 77.1414 98.5985 76.5574 98.8959 75.8252C99.1933 75.0931 99.1878 74.2728 98.8804 73.5448C98.573 72.8168 97.989 72.2407 97.2569 71.9432C96.5248 71.6458 95.7045 71.6514 94.9765 71.9588Z" fill="#8DFF8A"/>
<path d="M108.476 67.6678C107.962 67.7806 107.449 67.8987 106.939 68.0221C106.23 68.1939 105.61 68.6191 105.194 69.2175C104.778 69.8158 104.595 70.5458 104.681 71.2695C104.767 71.9932 105.115 72.6604 105.659 73.145C106.203 73.6297 106.906 73.8982 107.635 73.8998C108.352 73.8378 109.062 73.7003 109.751 73.4895C110.522 73.3202 111.195 72.8514 111.621 72.1861C112.048 71.5208 112.192 70.7135 112.023 69.9417C111.854 69.1699 111.386 68.4968 110.72 68.0704C110.055 67.644 109.248 67.4992 108.476 67.6678Z" fill="#2D4356"/>
<path d="M198.526 116.568C198.395 116.199 198.193 115.86 197.93 115.569C197.668 115.279 197.35 115.043 196.996 114.875C196.643 114.707 196.259 114.611 195.868 114.592C195.477 114.572 195.086 114.63 194.717 114.762C194.348 114.894 194.009 115.098 193.72 115.361C193.43 115.624 193.195 115.942 193.028 116.297C192.861 116.651 192.766 117.035 192.747 117.426C192.729 117.817 192.788 118.208 192.921 118.576C193.085 119.033 193.244 119.492 193.399 119.953C193.66 120.694 194.199 121.304 194.902 121.654C195.605 122.005 196.417 122.068 197.166 121.831C197.915 121.579 198.533 121.04 198.885 120.333C199.236 119.625 199.293 118.807 199.041 118.058C198.875 117.56 198.703 117.063 198.526 116.568Z" fill="#2D4356"/>
<path d="M61.2291 99.4563C61.007 99.7788 60.8507 100.142 60.7691 100.525C60.6875 100.908 60.6822 101.303 60.7536 101.688C60.825 102.073 60.9717 102.44 61.1852 102.769C61.3987 103.097 61.6748 103.38 61.9978 103.601C62.3208 103.823 62.6842 103.978 63.0674 104.059C63.4506 104.14 63.8459 104.144 64.2308 104.072C64.6156 103.999 64.9824 103.852 65.3102 103.638C65.638 103.424 65.9203 103.147 66.141 102.823C66.4135 102.425 66.6906 102.029 66.9722 101.636C67.2019 101.319 67.3667 100.959 67.4572 100.578C67.5477 100.197 67.5621 99.8019 67.4996 99.4152C67.4371 99.0285 67.2989 98.658 67.0929 98.3248C66.887 97.9917 66.6173 97.7024 66.2993 97.4736C65.9814 97.2449 65.6215 97.0811 65.2401 96.9917C64.8588 96.9023 64.4635 96.889 64.077 96.9526C63.6906 97.0162 63.3204 97.1555 62.9878 97.3624C62.6552 97.5693 62.3668 97.8398 62.1389 98.1583C61.8308 98.5876 61.5275 99.0202 61.2291 99.4563Z" fill="#2D4356"/>
<path d="M81.187 79.4995C80.5355 79.9466 80.0882 80.634 79.9432 81.4108C79.7982 82.1875 79.9675 82.99 80.4139 83.642C80.8667 84.2847 81.5525 84.7252 82.3252 84.8698C83.098 85.0143 83.8967 84.8516 84.5512 84.4161C84.9508 84.1418 85.3534 83.8714 85.7588 83.6049C86.4193 83.1715 86.8805 82.4935 87.0411 81.72C87.2017 80.9465 87.0484 80.1409 86.615 79.4805C86.1816 78.82 85.5036 78.3587 84.7301 78.1982C83.9566 78.0376 83.151 78.1909 82.4905 78.6243C82.0531 78.9117 81.6186 79.2034 81.187 79.4995Z" fill="#2D4356"/>
<path d="M70.2915 88.5521C69.7321 89.1096 69.4171 89.8665 69.4158 90.6563C69.4145 91.446 69.7269 92.204 70.2844 92.7633C70.8419 93.3227 71.5988 93.6377 72.3886 93.639C73.1783 93.6403 73.9363 93.3279 74.4956 92.7704C74.8393 92.4277 75.1864 92.0882 75.5369 91.7518C76.107 91.2051 76.4367 90.4543 76.4533 89.6645C76.4699 88.8748 76.172 88.1108 75.6253 87.5406C75.0786 86.9704 74.3278 86.6408 73.538 86.6242C72.7483 86.6076 71.9843 86.9054 71.4141 87.4521C71.0362 87.8159 70.662 88.1826 70.2915 88.5521Z" fill="#8DFF8A"/>
<path d="M188.099 108.018C188.497 108.695 189.142 109.191 189.898 109.402C190.654 109.613 191.462 109.523 192.153 109.151C192.841 108.763 193.347 108.117 193.559 107.356C193.771 106.595 193.672 105.781 193.284 105.092C193.027 104.634 192.764 104.179 192.498 103.727C192.298 103.39 192.035 103.097 191.722 102.862C191.409 102.627 191.053 102.457 190.675 102.36C190.296 102.262 189.902 102.241 189.515 102.296C189.127 102.352 188.755 102.483 188.419 102.682C188.082 102.881 187.788 103.144 187.554 103.457C187.319 103.77 187.148 104.126 187.051 104.505C186.954 104.884 186.933 105.278 186.988 105.665C187.043 106.052 187.174 106.424 187.374 106.761C187.62 107.177 187.862 107.596 188.099 108.018Z" fill="#8DFF8A"/>
<path d="M169.711 82.9946C169.223 83.6161 169.002 84.4057 169.096 85.1902C169.19 85.9747 169.591 86.6898 170.212 87.1786C170.593 87.4791 170.972 87.7834 171.347 88.0917C171.958 88.5922 172.743 88.8293 173.529 88.751C174.315 88.6726 175.038 88.2852 175.539 87.6739C176.039 87.0626 176.276 86.2776 176.198 85.4915C176.12 84.7053 175.732 83.9826 175.121 83.4821C174.714 83.1489 174.304 82.8194 173.89 82.4934C173.583 82.2513 173.231 82.0722 172.855 81.9664C172.478 81.8606 172.085 81.8301 171.697 81.8766C171.308 81.9232 170.933 82.0459 170.592 82.2378C170.252 82.4296 169.952 82.6868 169.711 82.9946Z" fill="#8DFF8A"/>
<path d="M184.176 92.2437C183.917 91.9502 183.604 91.7104 183.253 91.5382C182.901 91.3659 182.52 91.2644 182.13 91.2396C181.739 91.2148 181.348 91.2671 180.978 91.3936C180.608 91.52 180.266 91.7181 179.973 91.9765C179.679 92.235 179.44 92.5487 179.267 92.8998C179.095 93.2509 178.994 93.6324 178.969 94.0227C178.944 94.413 178.996 94.8043 179.123 95.1744C179.249 95.5445 179.447 95.886 179.706 96.1795C180.025 96.5433 180.341 96.9104 180.652 97.281C181.161 97.8847 181.889 98.2616 182.676 98.3286C183.463 98.3956 184.244 98.1472 184.848 97.6382C185.452 97.1292 185.829 96.4012 185.896 95.6144C185.963 94.8276 185.714 94.0463 185.205 93.4426C184.866 93.0389 184.523 92.6392 184.176 92.2437Z" fill="#2D4356"/>
<path d="M196.132 131.237C196.206 131.716 196.275 132.196 196.339 132.677C196.453 133.455 196.866 134.158 197.49 134.636C198.115 135.114 198.901 135.33 199.682 135.237C200.465 135.132 201.174 134.721 201.653 134.093C202.133 133.465 202.343 132.673 202.239 131.89C202.169 131.368 202.094 130.847 202.015 130.327C201.894 129.547 201.469 128.847 200.832 128.381C200.195 127.914 199.399 127.72 198.619 127.841C197.839 127.961 197.138 128.387 196.672 129.024C196.206 129.661 196.012 130.457 196.132 131.237Z" fill="#8DFF8A"/>
<path d="M145.186 71.323C144.952 72.0777 145.028 72.8942 145.396 73.5933C145.764 74.2924 146.394 74.8169 147.149 75.0515C147.889 75.3643 148.672 75.5658 149.472 75.6496C150.179 75.6483 150.863 75.3957 151.401 74.9368C151.939 74.4779 152.297 73.8427 152.409 73.1445C152.522 72.4464 152.383 71.7309 152.017 71.1259C151.651 70.5208 151.082 70.0657 150.411 69.8417C149.913 69.6758 149.413 69.5146 148.91 69.3579C148.536 69.2419 148.144 69.2007 147.754 69.2368C147.365 69.2728 146.986 69.3853 146.64 69.5678C146.294 69.7504 145.988 69.9994 145.738 70.3005C145.489 70.6017 145.301 70.9492 145.186 71.323Z" fill="#8DFF8A"/>
<path d="M131.76 68.9963C131.665 69.7804 131.885 70.5704 132.371 71.1925C132.858 71.8146 133.572 72.2179 134.356 72.3138C134.973 72.4241 135.596 72.4975 136.221 72.5335C136.974 72.5315 137.699 72.2443 138.249 71.7296C138.799 71.2149 139.134 70.511 139.186 69.7594C139.239 69.0079 139.004 68.2644 138.531 67.6786C138.057 67.0929 137.379 66.7082 136.633 66.602C136.114 66.5285 135.595 66.4604 135.074 66.3975C134.686 66.3506 134.292 66.3805 133.915 66.4857C133.539 66.5909 133.186 66.7692 132.879 67.0106C132.571 67.2519 132.314 67.5515 132.122 67.8922C131.93 68.2329 131.807 68.6081 131.76 68.9963Z" fill="#2D4356"/>
<path d="M157.982 76.0351C157.614 76.7346 157.54 77.5513 157.774 78.3057C158.009 79.0601 158.534 79.6904 159.233 80.0583C160.042 80.6235 160.973 80.9881 161.951 81.1219C162.612 81.1216 163.254 80.9018 163.776 80.4971C164.298 80.0924 164.671 79.5256 164.836 78.8859C165.001 78.2462 164.949 77.5698 164.688 76.9629C164.427 76.356 163.971 75.8531 163.393 75.5331C162.931 75.2777 162.467 75.0274 162 74.7823C161.654 74.6005 161.275 74.4886 160.886 74.4532C160.497 74.4177 160.104 74.4594 159.731 74.5757C159.358 74.6921 159.011 74.8809 158.711 75.1313C158.411 75.3817 158.163 75.6888 157.982 76.0351Z" fill="#2D4356"/>
<path d="M120.934 65.9523C120.161 65.9978 119.436 66.3426 118.912 66.9137C118.389 67.4848 118.108 68.2371 118.13 69.0114C118.152 69.7857 118.475 70.521 119.03 71.0616C119.584 71.6021 120.328 71.9054 121.102 71.9071C121.161 71.9071 122.244 71.8511 122.73 71.8329C123.52 71.8034 124.266 71.4614 124.803 70.8821C125.341 70.3028 125.626 69.5337 125.597 68.7439C125.567 67.9542 125.225 67.2085 124.646 66.6709C124.067 66.1333 123.298 65.8478 122.508 65.8773C121.981 65.8969 121.456 65.9219 120.934 65.9523Z" fill="#8DFF8A"/>
<path d="M55.8821 115.794C56.6067 116.101 57.4229 116.112 58.1555 115.824C58.8881 115.537 59.4787 114.973 59.8006 114.255C59.9946 113.81 60.1933 113.369 60.3965 112.929C60.5611 112.575 60.6542 112.191 60.6706 111.801C60.687 111.41 60.6263 111.02 60.492 110.653C60.3577 110.286 60.1524 109.949 59.8878 109.661C59.6232 109.373 59.3045 109.14 58.9499 108.976C58.5953 108.811 58.2118 108.718 57.8212 108.702C57.4306 108.685 57.0406 108.746 56.6735 108.88C56.3064 109.015 55.9693 109.22 55.6815 109.484C55.3938 109.749 55.1609 110.068 54.9963 110.422C54.774 110.902 54.5569 111.385 54.3453 111.87C54.0294 112.594 54.0138 113.414 54.302 114.15C54.5901 114.885 55.1584 115.477 55.8821 115.794Z" fill="#8DFF8A"/>
<path d="M50.2923 123.826C50.1651 124.337 50.044 124.852 49.929 125.368C49.843 125.75 49.8331 126.145 49.8998 126.53C49.9665 126.916 50.1085 127.284 50.3177 127.614C50.5269 127.945 50.7991 128.231 51.1189 128.456C51.4387 128.681 51.7998 128.841 52.1814 128.927C52.5631 129.012 52.9578 129.022 53.3432 128.955C53.7285 128.888 54.0968 128.745 54.4271 128.536C54.7573 128.326 55.0431 128.054 55.2679 127.734C55.4928 127.414 55.6523 127.052 55.7375 126.671C55.8429 126.199 55.9533 125.729 56.0688 125.261C56.1638 124.881 56.183 124.487 56.1254 124.1C56.0677 123.713 55.9343 123.341 55.7328 123.005C55.5312 122.67 55.2656 122.378 54.9509 122.145C54.6363 121.913 54.2789 121.744 53.8992 121.65C53.5195 121.556 53.1249 121.537 52.738 121.596C52.3511 121.654 51.9795 121.788 51.6445 121.99C51.3095 122.192 51.0176 122.458 50.7856 122.773C50.5536 123.088 50.3859 123.446 50.2923 123.826Z" fill="#2D4356"/>
<path d="M202.76 146.079C202.791 145.552 202.816 145.026 202.834 144.498C202.849 144.107 202.786 143.717 202.65 143.351C202.513 142.984 202.306 142.648 202.04 142.362C201.774 142.075 201.454 141.844 201.098 141.681C200.742 141.518 200.358 141.427 199.967 141.413C199.18 141.394 198.417 141.684 197.841 142.22C197.265 142.757 196.923 143.498 196.886 144.284C196.869 144.769 196.846 145.252 196.818 145.735C196.803 146.138 196.868 146.541 197.01 146.918C197.152 147.296 197.368 147.641 197.644 147.935C197.921 148.228 198.254 148.463 198.622 148.627C198.991 148.79 199.389 148.879 199.792 148.887C200.552 148.886 201.282 148.595 201.834 148.073C202.386 147.55 202.717 146.837 202.76 146.079Z" fill="#2D4356"/>
<path d="M48.2215 137.872C48.1946 138.398 48.1732 138.924 48.1575 139.452C48.1612 139.92 48.2723 140.381 48.4823 140.8C48.6923 141.218 48.9955 141.583 49.3686 141.866C49.7417 142.149 50.1748 142.342 50.6344 142.431C51.094 142.52 51.568 142.503 52.0198 142.38C52.6089 142.194 53.126 141.83 53.4997 141.338C53.8735 140.846 54.0856 140.25 54.107 139.632C54.1215 139.147 54.1411 138.664 54.1658 138.18C54.2067 137.392 53.9328 136.62 53.4043 136.033C52.8758 135.447 52.1361 135.095 51.3478 135.054C50.5596 135.013 49.7873 135.287 49.201 135.815C48.6147 136.344 48.2624 137.084 48.2215 137.872Z" fill="#8DFF8A"/>
<path d="M197.872 161.76C198.539 161.759 199.186 161.535 199.71 161.122C200.234 160.71 200.604 160.134 200.761 159.486L200.942 158.728C201.03 158.347 201.042 157.953 200.978 157.567C200.914 157.182 200.775 156.812 200.568 156.481C200.362 156.149 200.092 155.861 199.774 155.634C199.456 155.407 199.096 155.244 198.715 155.156C198.335 155.067 197.94 155.055 197.555 155.119C197.169 155.183 196.8 155.322 196.468 155.529C196.137 155.736 195.849 156.006 195.621 156.324C195.394 156.642 195.232 157.001 195.143 157.382L194.979 158.073C194.881 158.511 194.882 158.965 194.981 159.402C195.08 159.84 195.275 160.249 195.552 160.602C195.829 160.955 196.181 161.242 196.582 161.442C196.983 161.643 197.424 161.751 197.872 161.76Z" fill="#8DFF8A"/>
<path d="M33.1599 143.765C33.5577 143.805 33.9595 143.758 34.3378 143.629C34.7161 143.499 35.062 143.29 35.3519 143.015C35.6418 142.739 35.8689 142.405 36.0176 142.033C36.1664 141.662 36.2333 141.263 36.2138 140.864L36.2349 140.145C36.2496 139.754 36.187 139.364 36.0506 138.997C35.9143 138.63 35.707 138.294 35.4405 138.007C35.174 137.721 34.8536 137.49 34.4976 137.327C34.1416 137.164 33.757 137.073 33.3659 137.06C32.9748 137.046 32.5848 137.109 32.2182 137.247C31.8517 137.384 31.5158 137.592 31.2298 137.859C30.9438 138.126 30.7133 138.447 30.5515 138.803C30.3897 139.16 30.2998 139.545 30.2869 139.936L30.2629 140.707C30.2418 141.497 30.5351 142.262 31.0783 142.836C31.6216 143.409 32.3703 143.743 33.1599 143.765Z" fill="#8DFF8A"/>
<path d="M214.756 140.673C214.77 141.158 214.769 141.644 214.785 142.131C214.767 142.528 214.833 142.924 214.979 143.294C215.125 143.664 215.347 143.999 215.631 144.277C215.916 144.555 216.255 144.77 216.628 144.908C217.001 145.046 217.399 145.103 217.796 145.076C218.586 145.067 219.339 144.744 219.891 144.179C220.443 143.613 220.747 142.852 220.738 142.062C220.731 141.541 220.721 141.02 220.706 140.5C220.696 140.108 220.61 139.722 220.45 139.364C220.291 139.006 220.063 138.682 219.778 138.413C219.494 138.143 219.159 137.932 218.793 137.792C218.426 137.652 218.036 137.586 217.644 137.597C217.252 137.609 216.867 137.698 216.509 137.859C216.152 138.019 215.829 138.249 215.561 138.535C215.293 138.821 215.084 139.157 214.945 139.524C214.807 139.891 214.743 140.281 214.756 140.673Z" fill="#2D4356"/>
<path d="M169.14 65.2831C169.567 65.5232 169.992 65.7664 170.414 66.0128C171.098 66.4084 171.91 66.5166 172.673 66.3135C173.436 66.1104 174.088 65.6127 174.484 64.9297C174.88 64.2468 174.989 63.4344 174.787 62.6711C174.585 61.9078 174.088 61.2561 173.405 60.859C172.957 60.5985 172.506 60.3408 172.052 60.0857C171.363 59.7024 170.55 59.6079 169.792 59.8229C169.033 60.0379 168.391 60.5449 168.005 61.2327C167.62 61.9206 167.523 62.7332 167.736 63.4924C167.948 64.2516 168.453 64.8956 169.14 65.2831Z" fill="#8DFF8A"/>
<path d="M199.113 92.672C199.569 93.3116 200.256 93.7484 201.029 93.8899C201.802 94.0314 202.6 93.8665 203.253 93.4302C203.902 92.9805 204.347 92.2913 204.489 91.5141C204.631 90.7369 204.459 89.9351 204.01 89.2848C203.716 88.8592 203.42 88.4355 203.12 88.0137C202.893 87.6954 202.605 87.4249 202.274 87.2177C201.942 87.0105 201.573 86.8706 201.188 86.806C200.802 86.7415 200.407 86.7535 200.027 86.8414C199.646 86.9293 199.286 87.0914 198.967 87.3184C198.649 87.5454 198.379 87.8328 198.171 88.1644C197.964 88.4959 197.824 88.865 197.76 89.2506C197.695 89.6362 197.707 90.0308 197.795 90.4117C197.883 90.7927 198.045 91.1526 198.272 91.4709C198.555 91.8688 198.835 92.2692 199.113 92.672Z" fill="#2D4356"/>
<path d="M157.228 59.7066C157.999 60.1011 158.835 60.3537 159.696 60.4523C160.388 60.4514 161.059 60.2097 161.592 59.7685C162.126 59.3274 162.489 58.7144 162.62 58.0347C162.75 57.355 162.641 56.6509 162.309 56.0433C161.977 55.4358 161.445 54.9625 160.802 54.7048C160.318 54.5107 159.831 54.3208 159.342 54.1353C158.604 53.8549 157.784 53.8795 157.063 54.2036C156.342 54.5278 155.78 55.125 155.499 55.8638C155.219 56.6026 155.244 57.4225 155.568 58.1432C155.892 58.8639 156.489 59.4262 157.228 59.7066Z" fill="#2D4356"/>
<path d="M210.177 114.834C210.331 115.295 210.481 115.758 210.629 116.223C210.878 116.968 211.407 117.586 212.103 117.949C212.8 118.311 213.611 118.389 214.363 118.165C215.116 117.926 215.744 117.398 216.108 116.697C216.471 115.996 216.542 115.179 216.304 114.426C216.147 113.929 215.985 113.433 215.82 112.939C215.696 112.568 215.5 112.226 215.243 111.93C214.986 111.635 214.674 111.393 214.324 111.219C213.974 111.045 213.593 110.941 213.203 110.914C212.812 110.887 212.421 110.937 212.05 111.061C211.679 111.186 211.336 111.382 211.041 111.639C210.746 111.896 210.505 112.209 210.331 112.559C210.157 112.91 210.054 113.291 210.028 113.681C210.001 114.072 210.052 114.463 210.177 114.834Z" fill="#2D4356"/>
<path d="M190.885 82.4066C191.428 82.9739 192.171 83.3073 192.956 83.3362C193.741 83.3651 194.507 83.0873 195.091 82.5616C195.669 82.0231 196.01 81.2773 196.039 80.4878C196.068 79.6982 195.783 78.9294 195.246 78.35C194.891 77.968 194.533 77.5892 194.172 77.2136C193.901 76.9319 193.577 76.7064 193.218 76.55C192.86 76.3936 192.474 76.3093 192.083 76.302C191.692 76.2947 191.303 76.3645 190.939 76.5074C190.575 76.6503 190.243 76.8635 189.961 77.1348C189.68 77.4062 189.454 77.7303 189.298 78.0888C189.141 78.4473 189.057 78.8331 189.05 79.2241C189.042 79.6152 189.112 80.0038 189.255 80.3679C189.398 80.732 189.611 81.0643 189.883 81.346C190.22 81.6966 190.554 82.0501 190.885 82.4066Z" fill="#8DFF8A"/>
<path d="M219.889 156.069C219.958 155.554 220.023 155.037 220.084 154.52C220.176 153.736 219.953 152.947 219.464 152.328C218.975 151.708 218.26 151.308 217.476 151.216C216.692 151.124 215.904 151.347 215.284 151.836C214.664 152.325 214.265 153.04 214.172 153.824C214.116 154.31 214.055 154.794 213.989 155.277C213.937 155.665 213.962 156.058 214.062 156.436C214.163 156.814 214.336 157.168 214.574 157.479C214.811 157.79 215.107 158.051 215.445 158.247C215.783 158.443 216.156 158.571 216.544 158.623C217.326 158.728 218.118 158.518 218.745 158.039C219.056 157.802 219.317 157.506 219.513 157.168C219.71 156.829 219.837 156.456 219.889 156.069Z" fill="#8DFF8A"/>
<path d="M144.626 55.9562C145.104 56.0602 145.58 56.1681 146.054 56.2799C146.822 56.4583 147.63 56.3244 148.301 55.9077C148.971 55.491 149.448 54.8255 149.628 54.0571C149.809 53.2888 149.677 52.4804 149.261 51.8092C148.846 51.1381 148.182 50.6591 147.414 50.4772C146.909 50.3593 146.404 50.2446 145.896 50.1331C145.124 49.9665 144.318 50.1127 143.654 50.5398C142.991 50.9668 142.523 51.6397 142.355 52.4109C142.187 53.1821 142.332 53.9885 142.757 54.6531C143.183 55.3178 143.855 55.7864 144.626 55.9562Z" fill="#8DFF8A"/>
<path d="M205.737 104.012C206.094 104.711 206.708 105.245 207.45 105.501C208.192 105.757 209.005 105.715 209.717 105.384C210.426 105.036 210.969 104.422 211.226 103.675C211.483 102.927 211.433 102.109 211.086 101.399C210.858 100.931 210.626 100.465 210.39 100.001C210.212 99.6523 209.968 99.3419 209.67 99.0876C209.372 98.8333 209.027 98.6402 208.655 98.5194C208.283 98.3985 207.89 98.3523 207.5 98.3834C207.11 98.4145 206.729 98.5222 206.381 98.7005C206.032 98.8787 205.722 99.1239 205.469 99.4221C205.215 99.7203 205.023 100.066 204.902 100.438C204.782 100.811 204.737 101.203 204.769 101.594C204.801 101.984 204.909 102.364 205.088 102.712C205.308 103.143 205.525 103.577 205.737 104.012Z" fill="#8DFF8A"/>
<path d="M180.101 72.5517C180.487 72.85 180.87 73.1516 181.25 73.4567C181.871 73.9385 182.655 74.1594 183.436 74.0726C184.217 73.9858 184.934 73.5982 185.433 72.9918C185.927 72.3746 186.155 71.5869 186.068 70.8016C185.981 70.0163 185.586 69.2977 184.969 68.8035C184.564 68.4782 184.155 68.1562 183.744 67.8373C183.119 67.356 182.328 67.1425 181.545 67.2435C180.763 67.3446 180.052 67.7521 179.57 68.3764C179.087 69.0008 178.872 69.7911 178.972 70.5739C179.071 71.3567 179.477 72.068 180.101 72.5517Z" fill="#2D4356"/>
<path d="M213.42 127.583C213.505 128.062 213.586 128.542 213.663 129.024C213.797 129.799 214.229 130.491 214.866 130.953C215.503 131.414 216.295 131.609 217.073 131.495C217.853 131.369 218.551 130.939 219.013 130.299C219.476 129.658 219.665 128.861 219.54 128.081C219.458 127.566 219.371 127.052 219.28 126.54C219.212 126.155 219.069 125.787 218.858 125.457C218.648 125.128 218.375 124.843 218.054 124.619C217.733 124.395 217.372 124.236 216.99 124.152C216.608 124.068 216.213 124.06 215.828 124.128C215.443 124.197 215.075 124.341 214.746 124.551C214.416 124.762 214.131 125.036 213.908 125.357C213.684 125.677 213.526 126.039 213.442 126.421C213.358 126.803 213.351 127.198 213.42 127.583Z" fill="#8DFF8A"/>
<path d="M41.5228 104.853C42.2308 105.197 43.0453 105.249 43.7915 104.999C44.5377 104.749 45.1561 104.216 45.5141 103.515C45.732 103.078 45.9532 102.642 46.1774 102.209C46.3588 101.862 46.4699 101.482 46.5044 101.092C46.539 100.702 46.4963 100.31 46.3788 99.9361C46.2613 99.5627 46.0714 99.2161 45.8198 98.9162C45.5682 98.6163 45.2599 98.369 44.9126 98.1883C44.5653 98.0077 44.1858 97.8974 43.7958 97.8636C43.4058 97.8299 43.0129 97.8734 42.6398 97.9916C42.2666 98.1099 41.9204 98.3005 41.621 98.5528C41.3216 98.805 41.0749 99.1137 40.895 99.4614C40.6552 99.9241 40.4191 100.389 40.1866 100.857C39.8344 101.564 39.7772 102.382 40.0278 103.131C40.2783 103.881 40.816 104.5 41.5228 104.853Z" fill="#2D4356"/>
<path d="M48.0826 92.9319C48.7328 93.3749 49.5306 93.5457 50.3051 93.4077C51.0797 93.2696 51.7694 92.8338 52.2265 92.1935C52.5062 91.7918 52.7891 91.3929 53.0752 90.9967C53.3041 90.6797 53.4683 90.3207 53.5585 89.9402C53.6487 89.5598 53.663 89.1653 53.6008 88.7793C53.5385 88.3933 53.4008 88.0233 53.1955 87.6905C52.9903 87.3577 52.7215 87.0686 52.4045 86.8397C52.0875 86.6108 51.7285 86.4466 51.3481 86.3564C50.9676 86.2662 50.5731 86.2519 50.1871 86.3141C49.8011 86.3764 49.4312 86.5141 49.0984 86.7194C48.7656 86.9246 48.4765 87.1934 48.2476 87.5104C47.9431 87.9324 47.6423 88.3565 47.3451 88.7829C46.8933 89.431 46.7172 90.232 46.8555 91.01C46.9938 91.7879 47.4351 92.4791 48.0826 92.9319Z" fill="#8DFF8A"/>
<path d="M104.813 56.2342C105.523 56.1755 106.225 56.0446 106.909 55.8434C107.679 55.6768 108.352 55.2116 108.781 54.5499C109.209 53.8881 109.358 53.0835 109.194 52.3124C109.031 51.5413 108.568 50.8664 107.908 50.4354C107.248 50.0045 106.444 49.8526 105.672 50.0131C105.165 50.1215 104.659 50.2333 104.154 50.3485C103.44 50.5122 102.812 50.9326 102.389 51.5295C101.966 52.1264 101.777 52.8581 101.858 53.5853C101.94 54.3124 102.286 54.9842 102.831 55.4727C103.376 55.9612 104.081 56.2322 104.813 56.2342Z" fill="#2D4356"/>
<path d="M91.847 60.2135C92.6986 60.1406 93.528 59.9032 94.2892 59.5144C95.0275 59.2374 95.6258 58.6791 95.9532 57.9617C96.2805 57.2443 96.3101 56.4264 96.0355 55.6872C95.7609 54.948 95.2045 54.3479 94.4882 54.0182C93.7718 53.6886 92.954 53.6563 92.214 53.9285C91.7264 54.1097 91.241 54.2954 90.7579 54.4858C90.0229 54.7755 89.4329 55.345 89.1174 56.0693C88.8019 56.7936 88.7867 57.6134 89.075 58.349C89.3138 58.8898 89.7009 59.3519 90.1915 59.6819C90.682 60.0119 91.256 60.1962 91.847 60.2135Z" fill="#8DFF8A"/>
<path d="M79.6161 66.1077C80.6132 65.9858 81.5612 65.6057 82.3663 65.005C83.0581 64.6231 83.5697 63.982 83.7888 63.2228C84.0078 62.4635 83.9163 61.6484 83.5343 60.9567C83.1524 60.265 82.5113 59.7533 81.7521 59.5342C80.9928 59.3152 80.1777 59.4067 79.486 59.7887C79.0319 60.0404 78.5802 60.2952 78.1309 60.5533C77.5611 60.8791 77.1151 61.3843 76.8625 61.9901C76.6099 62.5959 76.5649 63.2683 76.7344 63.9024C76.904 64.5364 77.2786 65.0966 77.7998 65.4955C78.321 65.8944 78.9598 66.1097 79.6161 66.1077Z" fill="#2D4356"/>
<path d="M68.3727 73.6872C69.5142 73.5566 70.5738 73.0297 71.3668 72.1982C71.9943 71.7193 72.4061 71.0109 72.5117 70.2286C72.6173 69.4463 72.4081 68.6541 71.93 68.026C71.4519 67.3978 70.744 66.9852 69.9618 66.8786C69.1796 66.772 68.3871 66.9803 67.7584 67.4576C67.3443 67.7742 66.9332 68.0935 66.5254 68.4158C65.9059 68.9062 65.5064 69.6223 65.4144 70.407C65.3225 71.1917 65.5456 71.9809 66.0349 72.6012C66.3206 72.9431 66.6783 73.2178 67.0824 73.4055C67.4865 73.5932 67.9271 73.6894 68.3727 73.6872Z" fill="#8DFF8A"/>
<path d="M58.3554 82.8792C59.7824 82.8754 60.6146 81.8658 61.5314 80.9263C61.8065 80.6469 62.0237 80.316 62.1705 79.9524C62.3174 79.5889 62.391 79.1999 62.3872 78.8078C62.3833 78.4158 62.3022 78.0283 62.1483 77.6677C61.9943 77.3071 61.7708 76.9804 61.4903 76.7064C61.2098 76.4324 60.8781 76.2165 60.514 76.071C60.1499 75.9255 59.7606 75.8534 59.3686 75.8587C58.9765 75.864 58.5894 75.9466 58.2294 76.1019C57.8693 76.2572 57.5435 76.482 57.2706 76.7635C56.9073 77.1367 56.5471 77.5131 56.1901 77.8926C55.7855 78.311 55.514 78.8399 55.4101 79.4125C55.3062 79.9852 55.3744 80.5758 55.6062 81.1096C55.838 81.6434 56.2229 82.0965 56.7123 82.4115C57.2017 82.7265 57.7735 82.8892 58.3554 82.8792Z" fill="#2D4356"/>
<path d="M131.616 54.1089C132.103 54.1416 133.243 54.2297 133.327 54.2297C134.095 54.2278 134.832 53.9297 135.386 53.3974C135.939 52.8651 136.266 52.1398 136.297 51.3727C136.329 50.6055 136.064 49.8557 135.556 49.2795C135.049 48.7033 134.338 48.3453 133.573 48.2799C133.057 48.2371 132.539 48.1978 132.02 48.1621C131.231 48.1086 130.454 48.3704 129.858 48.8902C129.263 49.4099 128.898 50.1449 128.844 50.9335C128.791 51.7221 129.053 52.4997 129.572 53.0952C130.092 53.6907 130.827 54.0553 131.616 54.1089Z" fill="#2D4356"/>
<path d="M36.794 117.618C37.5452 117.853 38.3586 117.784 39.0597 117.426C39.7607 117.069 40.2936 116.45 40.544 115.704C40.6951 115.238 40.8499 114.773 41.0083 114.309C41.1357 113.939 41.1888 113.548 41.1648 113.158C41.1408 112.767 41.0401 112.385 40.8684 112.034C40.6966 111.682 40.4573 111.368 40.1641 111.109C39.8708 110.85 39.5294 110.652 39.1594 110.525C38.7893 110.398 38.3979 110.345 38.0074 110.37C37.617 110.394 37.2352 110.495 36.8839 110.668C36.5327 110.84 36.2188 111.079 35.9602 111.373C35.7016 111.667 35.5035 112.008 35.3771 112.378C35.2085 112.871 35.0436 113.366 34.8823 113.863C34.6384 114.615 34.7028 115.432 35.0613 116.136C35.4197 116.84 36.0429 117.373 36.794 117.618Z" fill="#8DFF8A"/>
<path d="M34.0067 130.942C34.7845 131.063 35.5786 130.874 36.2188 130.416C36.859 129.958 37.2943 129.268 37.4312 128.493C37.5119 128.012 37.5954 127.531 37.6826 127.053C37.7547 126.668 37.7501 126.273 37.6691 125.89C37.5881 125.506 37.4323 125.143 37.2107 124.82C36.989 124.498 36.7058 124.222 36.3774 124.009C36.0489 123.795 35.6816 123.649 35.2965 123.578C34.9115 123.507 34.5162 123.513 34.1333 123.595C33.7505 123.677 33.3876 123.834 33.0655 124.057C32.7434 124.279 32.4684 124.563 32.2562 124.892C32.044 125.222 31.8989 125.589 31.8291 125.975C31.7346 126.486 31.645 126.999 31.5602 127.513C31.4301 128.292 31.6147 129.091 32.0735 129.734C32.5323 130.377 33.2277 130.812 34.0067 130.942Z" fill="#2D4356"/>
<path d="M118.236 54.1845C118.314 54.1845 119.44 54.1037 119.926 54.0747C120.714 54.0251 121.449 53.6652 121.972 53.0739C122.495 52.4826 122.761 51.7081 122.714 50.9204C122.666 50.1327 122.308 49.3961 121.717 48.8721C121.127 48.3482 120.354 48.0797 119.566 48.1257C119.045 48.157 118.525 48.1929 118.006 48.2334C117.239 48.2943 116.526 48.6495 116.015 49.2246C115.503 49.7998 115.235 50.5503 115.264 51.3192C115.294 52.088 115.62 52.8156 116.174 53.3497C116.728 53.8837 117.467 54.1828 118.236 54.1845Z" fill="#8DFF8A"/>
<path d="M215.296 164.777C214.535 164.57 213.722 164.674 213.037 165.066C212.351 165.458 211.85 166.106 211.642 166.868L211.449 167.566C211.343 167.942 211.312 168.336 211.358 168.724C211.404 169.113 211.527 169.488 211.718 169.829C211.909 170.17 212.166 170.471 212.473 170.712C212.781 170.954 213.133 171.133 213.509 171.239C213.886 171.345 214.28 171.375 214.668 171.329C215.056 171.282 215.432 171.159 215.773 170.968C216.114 170.776 216.413 170.519 216.655 170.211C216.897 169.904 217.075 169.552 217.181 169.175L217.385 168.436C217.593 167.674 217.489 166.861 217.098 166.175C216.706 165.489 216.058 164.986 215.296 164.777Z" fill="#2D4356"/>
<path d="M224.788 214.786H142.434L191.483 187.634C197.41 184.522 199.862 178.459 197.585 172.546C196.31 169.232 190.542 161.369 180.833 165.21L155.182 176.83C155.349 179.138 155.114 181.458 154.487 183.686C164.542 179.131 183.285 170.641 183.287 170.639C186.707 169.092 190.754 171.37 192.031 174.689C193.431 178.324 191.238 181.034 188.661 182.387L133.111 213.137C131.254 214.114 129.207 214.676 127.112 214.786H125.623C124.309 214.722 123.011 214.481 121.762 214.07L79.2332 200.538C77.9218 200.12 76.5537 199.908 75.1773 199.908H68.9524V161.177H83.38C84.299 161.176 85.2098 161.351 86.0633 161.692L108.464 170.61C110.017 171.231 111.675 171.549 113.348 171.548H136.394C137.303 171.533 138.206 171.7 139.05 172.038C139.895 172.376 140.663 172.878 141.311 173.516C141.959 174.154 142.474 174.915 142.825 175.753C143.176 176.592 143.357 177.492 143.357 178.402C143.357 179.311 143.176 180.211 142.825 181.05C142.474 181.888 141.959 182.649 141.311 183.287C140.663 183.925 139.895 184.427 139.05 184.765C138.206 185.103 137.303 185.27 136.394 185.256H111.464C108.386 185.256 105.406 186.332 103.038 188.298L98.9926 191.666C98.3887 192.172 98.0098 192.896 97.9388 193.681C97.8679 194.465 98.1106 195.246 98.614 195.852C99.1174 196.458 99.8403 196.84 100.625 196.914C101.409 196.988 102.191 196.749 102.799 196.248L106.843 192.881C108.142 191.804 109.777 191.215 111.464 191.215H136.394C138.085 191.229 139.763 190.907 141.329 190.269C142.895 189.631 144.32 188.69 145.521 187.498C146.721 186.307 147.674 184.89 148.325 183.329C148.975 181.767 149.31 180.093 149.31 178.401C149.31 176.71 148.975 175.036 148.325 173.474C147.674 171.913 146.721 170.496 145.521 169.305C144.32 168.113 142.895 167.172 141.329 166.534C139.763 165.896 138.085 165.574 136.394 165.588H113.348C112.429 165.589 111.518 165.414 110.665 165.073L88.2643 156.155C86.7108 155.534 85.0529 155.216 83.38 155.217H68.7173C68.3711 153.937 67.6134 152.805 66.561 151.998C65.5086 151.19 64.2198 150.751 62.8932 150.748H33.2381C32.4478 150.748 31.6898 151.062 31.131 151.62C30.5721 152.179 30.2582 152.937 30.2582 153.728C30.2582 154.518 30.5721 155.276 31.131 155.835C31.6898 156.394 32.4478 156.707 33.2381 156.707L63 156.793L62.8932 204.386H47.4782C46.6879 204.386 45.9299 204.7 45.3711 205.259C44.8122 205.818 44.4983 206.576 44.4983 207.366C44.4983 208.157 44.8122 208.915 45.3711 209.474C45.9299 210.032 46.6879 210.346 47.4782 210.346H62.8932C64.2215 210.343 65.5117 209.903 66.5648 209.093C67.6179 208.284 68.3753 207.15 68.7201 205.868H75.1773C75.9419 205.868 76.702 205.986 77.4305 206.218C77.4305 206.218 92.2262 210.926 104.357 214.786H26.2124C25.789 214.731 25.3586 214.766 24.9501 214.89C24.5416 215.015 24.1643 215.225 23.8434 215.506C23.5225 215.788 23.2654 216.135 23.0893 216.524C22.9131 216.913 22.822 217.335 22.822 217.762C22.822 218.189 22.9131 218.611 23.0893 219C23.2654 219.389 23.5225 219.736 23.8434 220.018C24.1643 220.299 24.5416 220.509 24.9501 220.634C25.3586 220.758 25.789 220.794 26.2124 220.738H224.788C225.211 220.794 225.641 220.758 226.05 220.634C226.458 220.509 226.836 220.299 227.157 220.018C227.478 219.736 227.735 219.389 227.911 219C228.087 218.611 228.178 218.189 228.178 217.762C228.178 217.335 228.087 216.913 227.911 216.524C227.735 216.135 227.478 215.788 227.157 215.506C226.836 215.225 226.458 215.015 226.05 214.89C225.641 214.766 225.211 214.731 224.788 214.786Z" fill="#2D4356"/>
<path d="M125.5 121.036C121.949 121.032 118.545 119.619 116.034 117.109C113.523 114.598 112.111 111.194 112.107 107.643V95.7381C112.107 92.1861 113.518 88.7795 116.03 86.2679C118.542 83.7562 121.948 82.3452 125.5 82.3452C129.052 82.3452 132.459 83.7562 134.97 86.2679C137.482 88.7795 138.893 92.1861 138.893 95.7381V107.643C138.889 111.194 137.477 114.598 134.966 117.109C132.455 119.619 129.051 121.032 125.5 121.036ZM125.5 88.2976C123.527 88.2999 121.636 89.0846 120.241 90.4794C118.847 91.8743 118.062 93.7654 118.06 95.7381V107.643C118.06 109.616 118.843 111.509 120.239 112.904C121.634 114.299 123.527 115.083 125.5 115.083C127.473 115.083 129.366 114.299 130.761 112.904C132.157 111.509 132.941 109.616 132.941 107.643V95.7381C132.938 93.7654 132.154 91.8743 130.759 90.4794C129.364 89.0846 127.473 88.2999 125.5 88.2976Z" fill="#8DFF8A"/>
<path d="M161.216 167.556L161.216 140.538C161.32 135.646 159.755 130.635 155.002 128.46C155.002 128.46 137.573 119.641 137.408 119.591V113.743C136.099 116.285 134.014 118.343 131.456 119.621V124.767L125.493 133.835L119.551 124.776V119.624C116.995 118.35 114.91 116.295 113.599 113.758V119.592C113.434 119.641 96.1347 128.396 96.1028 128.412C91.4131 130.786 89.673 135.449 89.7907 140.478V150.383C90.0166 150.463 95.7428 152.717 95.7428 152.717L95.7424 140.421C95.6961 137.759 96.0756 135.052 98.6953 133.777L113.431 126.303L120.728 137.429L115.186 158.838C115.133 159.098 115.106 159.362 115.107 159.628H121.812L121.27 159.085L125.504 142.734L129.738 159.084L129.195 159.628H135.894C135.894 159.335 135.863 159.044 135.802 158.758L130.272 137.404L137.574 126.301C137.574 126.301 152.369 133.804 152.384 133.811C154.96 135.118 155.309 137.864 155.264 140.478V170.253L161.216 167.556Z" fill="#2D4356"/>
</g>
<defs>
<clipPath id="clip0_30_3928">
<rect width="250" height="250" fill="white" transform="translate(0.5 0.5)"/>
</clipPath>
</defs>
</svg>
