<svg width="140" height="140" viewBox="0 0 140 140" fill="none" xmlns="http://www.w3.org/2000/svg">
<g clip-path="url(#clip0_30_3700)">
<path d="M70.0001 34C82.7038 34 93.0001 30.4187 93.0001 26C93.0001 21.5813 82.7038 18 70.0001 18C57.2963 18 47.0001 21.5813 47.0001 26C47.0001 30.4187 57.2963 34 70.0001 34ZM55.1324 22.9386C59.96 21.5134 64.9717 20.8293 70.0001 20.9091C75.0284 20.8293 80.0401 21.5134 84.8678 22.9386C89.0076 24.2923 90.0689 25.7084 90.1258 25.9865C90.0689 26.2915 89.0076 27.7077 84.8678 29.0614C80.0401 30.4866 75.0284 31.1707 70.0001 31.0909C64.9717 31.1707 59.96 30.4866 55.1324 29.0614C50.9925 27.7077 49.9312 26.2915 49.8744 26.0135C49.9312 25.7084 50.9925 24.2923 55.1324 22.9386Z" fill="#466B83"/>
<path d="M78.501 102.771C78.7262 103.151 79.0931 103.426 79.521 103.536C79.9489 103.645 80.4028 103.581 80.783 103.356C81.1632 103.131 81.4386 102.764 81.5487 102.337C81.6589 101.909 81.5947 101.455 81.3704 101.075C80.1782 99.2542 78.5645 97.7484 76.6663 96.6847C74.768 95.621 72.6412 95.0309 70.4663 94.9644C68.1389 94.8906 65.8311 95.4117 63.7612 96.4785C61.6914 97.5453 59.9279 99.1226 58.6376 101.061C58.4116 101.439 58.3441 101.89 58.4498 102.317C58.5556 102.745 58.826 103.113 59.2021 103.341C59.5781 103.57 60.0293 103.64 60.4572 103.537C60.8851 103.434 61.2549 103.167 61.486 102.792C62.4647 101.353 63.7923 100.186 65.3446 99.4001C66.8969 98.6138 68.6232 98.234 70.3621 98.2962C71.9767 98.3417 73.5572 98.7713 74.9727 99.5496C76.3881 100.328 77.5976 101.432 78.501 102.771Z" fill="#466B83"/>
<path d="M62.0518 76.7395C62.0518 75.2984 61.6245 73.8897 60.8239 72.6915C60.0232 71.4932 58.8853 70.5593 57.5539 70.0078C56.2225 69.4563 54.7575 69.312 53.3441 69.5931C51.9307 69.8742 50.6324 70.5681 49.6133 71.5871C48.5943 72.6061 47.9003 73.9044 47.6191 75.3177C47.3379 76.7311 47.4822 78.1962 48.0336 79.5276C48.585 80.859 49.5189 81.997 50.7171 82.7977C51.9152 83.5984 53.3239 84.0258 54.765 84.0259C56.6975 84.0258 58.5508 83.2581 59.9173 81.8917C61.2838 80.5253 62.0516 78.672 62.0518 76.7395ZM54.765 80.6926C54.1076 80.6942 53.4601 80.5314 52.8816 80.219C52.3031 79.9066 51.8119 79.4544 51.4527 78.9037C51.0935 78.353 50.8778 77.7212 50.8251 77.0659C50.7724 76.4105 50.8844 75.7524 51.1509 75.1514C51.4605 75.7399 51.9585 76.2075 52.5653 76.4796C53.1721 76.7516 53.8525 76.8122 54.4978 76.6518C55.1432 76.4913 55.716 76.119 56.1247 75.5945C56.5334 75.07 56.7544 74.4235 56.7523 73.7586C56.7486 73.6107 56.7336 73.4634 56.7075 73.3178C57.4683 73.745 58.0658 74.4125 58.4062 75.2159C58.7467 76.0192 58.8108 76.9128 58.5886 77.7565C58.3663 78.6002 57.8703 79.3463 57.1783 79.8777C56.4863 80.409 55.6375 80.6957 54.765 80.6926Z" fill="#466B83"/>
<path d="M52.6317 62.196C52.4749 62.0432 52.2895 61.9229 52.0861 61.8419C51.8827 61.7608 51.6654 61.7207 51.4465 61.7238C51.2276 61.7269 51.0114 61.7731 50.8104 61.8598C50.6094 61.9465 50.4275 62.072 50.275 62.2291L43.6157 69.0783C43.4618 69.235 43.3404 69.4205 43.2584 69.6242C43.1765 69.828 43.1356 70.0459 43.1381 70.2655C43.1406 70.4851 43.1865 70.702 43.2731 70.9038C43.3597 71.1056 43.4854 71.2883 43.6428 71.4413C43.8003 71.5944 43.9864 71.7149 44.1906 71.7958C44.3947 71.8767 44.6128 71.9165 44.8324 71.9128C45.052 71.9091 45.2687 71.8621 45.47 71.7745C45.6713 71.6868 45.8534 71.5602 46.0056 71.402L52.6649 64.5528C52.9729 64.2358 53.1425 63.8095 53.1363 63.3675C53.13 62.9256 52.9485 62.5042 52.6317 62.196Z" fill="#466B83"/>
<path d="M85.235 84.0258C86.6761 84.0258 88.0848 83.5983 89.283 82.7977C90.4812 81.997 91.415 80.859 91.9665 79.5276C92.5179 78.1962 92.6621 76.7311 92.3809 75.3178C92.0998 73.9044 91.4058 72.6061 90.3868 71.5871C89.3677 70.5682 88.0694 69.8742 86.656 69.5931C85.2426 69.312 83.7776 69.4563 82.4462 70.0078C81.1148 70.5593 79.9769 71.4932 79.1763 72.6914C78.3756 73.8896 77.9483 75.2984 77.9483 76.7395C77.9483 77.6963 78.1368 78.6439 78.503 79.5279C78.8692 80.412 79.4059 81.2152 80.0826 81.8918C80.7592 82.5684 81.5625 83.1051 82.4466 83.4713C83.3306 83.8374 84.2781 84.0259 85.235 84.0258ZM83.2925 73.3178C83.2665 73.4633 83.2515 73.6107 83.2478 73.7585C83.2456 74.4235 83.4666 75.0699 83.8753 75.5944C84.2841 76.1189 84.8569 76.4912 85.5022 76.6517C86.1475 76.8121 86.828 76.7515 87.4348 76.4795C88.0416 76.2075 88.5396 75.7398 88.8491 75.1513C89.1613 75.8512 89.2633 76.6267 89.1429 77.3836C89.0225 78.1405 88.6848 78.846 88.1708 79.4145C87.6569 79.9831 86.9889 80.39 86.248 80.5859C85.5071 80.7819 84.7252 80.7583 83.9974 80.5182C83.2696 80.278 82.6273 79.8316 82.1485 79.2332C81.6697 78.6348 81.375 77.9102 81.3004 77.1475C81.2257 76.3848 81.3742 75.6168 81.7279 74.9369C82.0816 74.257 82.6251 73.6945 83.2925 73.3178Z" fill="#466B83"/>
<path d="M87.3265 64.5702L94.0127 71.3931C94.1655 71.5508 94.3481 71.6768 94.5498 71.7638C94.7515 71.8507 94.9684 71.8969 95.188 71.8998C95.4077 71.9026 95.6257 71.862 95.8296 71.7803C96.0335 71.6986 96.2192 71.5774 96.3761 71.4236C96.533 71.2699 96.6579 71.0867 96.7437 70.8845C96.8296 70.6823 96.8746 70.4651 96.8762 70.2455C96.8778 70.0258 96.836 69.808 96.7531 69.6046C96.6702 69.4012 96.548 69.2161 96.3934 69.0601L89.7072 62.2372C89.3976 61.9222 88.9758 61.743 88.5342 61.7388C88.0926 61.7347 87.6674 61.906 87.352 62.2151C87.0366 62.5242 86.8567 62.9458 86.8519 63.3874C86.8472 63.829 87.0178 64.2544 87.3265 64.5702Z" fill="#466B83"/>
<path d="M29.1837 34.8169C29.6781 34.8169 30.1615 34.6703 30.5726 34.3956C30.9837 34.1209 31.3041 33.7304 31.4934 33.2736C31.6826 32.8168 31.7321 32.3141 31.6356 31.8292C31.5392 31.3442 31.3011 30.8988 30.9514 30.5491C30.6018 30.1995 30.1563 29.9614 29.6714 29.8649C29.1864 29.7685 28.6838 29.818 28.2269 30.0072C27.7701 30.1964 27.3797 30.5168 27.105 30.928C26.8303 31.3391 26.6837 31.8224 26.6837 32.3169C26.6844 32.9797 26.948 33.6151 27.4167 34.0838C27.8854 34.5525 28.5208 34.8161 29.1837 34.8169ZM29.1837 31.0669C29.4309 31.0669 29.6726 31.1402 29.8781 31.2776C30.0837 31.4149 30.2439 31.6101 30.3385 31.8385C30.4331 32.0669 30.4579 32.3183 30.4096 32.5608C30.3614 32.8032 30.2424 33.026 30.0675 33.2008C29.8927 33.3756 29.67 33.4946 29.4275 33.5429C29.185 33.5911 28.9337 33.5664 28.7053 33.4717C28.4769 33.3771 28.2817 33.2169 28.1443 33.0114C28.007 32.8058 27.9337 32.5641 27.9337 32.3169C27.934 31.9855 28.0658 31.6677 28.3001 31.4334C28.5345 31.199 28.8522 31.0672 29.1837 31.0669Z" fill="#466B83"/>
<path d="M107.85 11.3169C108.345 11.3169 108.828 11.1703 109.239 10.8956C109.65 10.6209 109.971 10.2304 110.16 9.7736C110.349 9.31679 110.399 8.81412 110.302 8.32917C110.206 7.84422 109.968 7.39876 109.618 7.04913C109.268 6.6995 108.823 6.4614 108.338 6.36493C107.853 6.26847 107.35 6.31798 106.893 6.5072C106.437 6.69642 106.046 7.01685 105.771 7.42797C105.497 7.83909 105.35 8.32244 105.35 8.8169C105.351 9.4797 105.615 10.1151 106.083 10.5838C106.552 11.0525 107.187 11.3161 107.85 11.3169ZM107.85 7.5669C108.097 7.5669 108.339 7.64021 108.545 7.77756C108.75 7.91491 108.91 8.11013 109.005 8.33854C109.1 8.56695 109.124 8.81828 109.076 9.06076C109.028 9.30323 108.909 9.52596 108.734 9.70078C108.559 9.87559 108.336 9.99465 108.094 10.0429C107.852 10.0911 107.6 10.0664 107.372 9.97174C107.143 9.87714 106.948 9.71692 106.811 9.51136C106.673 9.3058 106.6 9.06412 106.6 8.8169C106.6 8.48547 106.732 8.16772 106.967 7.93337C107.201 7.69902 107.519 7.56722 107.85 7.5669Z" fill="#466B83"/>
<path d="M73.3502 9.65039C73.8446 9.65039 74.328 9.50377 74.7391 9.22907C75.1502 8.95436 75.4706 8.56392 75.6599 8.1071C75.8491 7.65029 75.8986 7.14762 75.8021 6.66267C75.7057 6.17771 75.4676 5.73226 75.1179 5.38262C74.7683 5.03299 74.3228 4.79489 73.8379 4.69843C73.3529 4.60197 72.8503 4.65147 72.3934 4.84069C71.9366 5.02991 71.5462 5.35034 71.2715 5.76147C70.9968 6.17259 70.8502 6.65594 70.8502 7.15039C70.8509 7.8132 71.1146 8.44864 71.5832 8.91732C72.0519 9.386 72.6874 9.64963 73.3502 9.65039ZM73.3502 5.90039C73.5974 5.90039 73.8391 5.9737 74.0446 6.11105C74.2502 6.24841 74.4104 6.44363 74.505 6.67204C74.5996 6.90045 74.6244 7.15178 74.5761 7.39425C74.5279 7.63673 74.4089 7.85946 74.234 8.03428C74.0592 8.20909 73.8365 8.32814 73.594 8.37637C73.3515 8.4246 73.1002 8.39985 72.8718 8.30524C72.6434 8.21063 72.4482 8.05042 72.3108 7.84485C72.1735 7.63929 72.1002 7.39762 72.1002 7.15039C72.1005 6.81897 72.2323 6.50122 72.4666 6.26687C72.701 6.03252 73.0187 5.90072 73.3502 5.90039Z" fill="#466B83"/>
<path d="M131.684 50.8172C132.013 50.8172 132.336 50.7195 132.61 50.5363C132.884 50.3532 133.097 50.0929 133.223 49.7884C133.35 49.4838 133.383 49.1487 133.318 48.8254C133.254 48.5021 133.095 48.2051 132.862 47.972C132.629 47.739 132.332 47.5802 132.009 47.5159C131.685 47.4516 131.35 47.4846 131.046 47.6108C130.741 47.7369 130.481 47.9505 130.298 48.2246C130.115 48.4987 130.017 48.8209 130.017 49.1506C130.017 49.5924 130.193 50.0161 130.506 50.3285C130.818 50.641 131.242 50.8167 131.684 50.8172ZM131.684 48.3172C131.848 48.3172 132.01 48.3661 132.147 48.4577C132.284 48.5492 132.39 48.6794 132.454 48.8317C132.517 48.9839 132.533 49.1515 132.501 49.3131C132.469 49.4748 132.389 49.6233 132.273 49.7398C132.156 49.8564 132.008 49.9357 131.846 49.9679C131.685 50 131.517 49.9835 131.365 49.9205C131.212 49.8574 131.082 49.7506 130.991 49.6135C130.899 49.4765 130.85 49.3154 130.85 49.1506C130.851 48.9296 130.938 48.7178 131.095 48.5615C131.251 48.4053 131.463 48.3174 131.684 48.3172Z" fill="#466B83"/>
<path d="M115.517 60.8172C115.846 60.8172 116.169 60.7195 116.443 60.5363C116.717 60.3532 116.93 60.0929 117.057 59.7884C117.183 59.4838 117.216 59.1487 117.151 58.8254C117.087 58.5021 116.928 58.2051 116.695 57.972C116.462 57.739 116.165 57.5802 115.842 57.5159C115.519 57.4516 115.184 57.4846 114.879 57.6108C114.574 57.7369 114.314 57.9505 114.131 58.2246C113.948 58.4987 113.85 58.8209 113.85 59.1506C113.851 59.5924 114.026 60.0161 114.339 60.3285C114.651 60.641 115.075 60.8167 115.517 60.8172ZM115.517 58.3172C115.682 58.3172 115.843 58.3661 115.98 58.4577C116.117 58.5492 116.224 58.6794 116.287 58.8317C116.35 58.9839 116.366 59.1515 116.334 59.3131C116.302 59.4748 116.223 59.6233 116.106 59.7398C115.99 59.8564 115.841 59.9357 115.679 59.9679C115.518 60 115.35 59.9835 115.198 59.9205C115.046 59.8574 114.916 59.7506 114.824 59.6135C114.732 59.4765 114.683 59.3154 114.683 59.1506C114.684 58.9296 114.772 58.7178 114.928 58.5615C115.084 58.4053 115.296 58.3174 115.517 58.3172Z" fill="#466B83"/>
<path d="M11.8503 17.4837C12.18 17.4837 12.5022 17.386 12.7763 17.2028C13.0504 17.0197 13.264 16.7594 13.3901 16.4549C13.5163 16.1503 13.5493 15.8152 13.485 15.4919C13.4207 15.1686 13.2619 14.8716 13.0288 14.6385C12.7957 14.4055 12.4988 14.2467 12.1755 14.1824C11.8522 14.1181 11.5171 14.1511 11.2125 14.2773C10.908 14.4034 10.6477 14.617 10.4645 14.8911C10.2814 15.1652 10.1837 15.4874 10.1837 15.8171C10.1842 16.2589 10.3599 16.6826 10.6724 16.995C10.9848 17.3075 11.4084 17.4832 11.8503 17.4837ZM11.8503 14.9837C12.0151 14.9837 12.1763 15.0326 12.3133 15.1242C12.4503 15.2157 12.5571 15.3459 12.6202 15.4982C12.6833 15.6504 12.6998 15.818 12.6676 15.9796C12.6355 16.1413 12.5561 16.2898 12.4396 16.4063C12.323 16.5229 12.1745 16.6022 12.0129 16.6344C11.8512 16.6665 11.6837 16.65 11.5314 16.587C11.3791 16.5239 11.249 16.4171 11.1574 16.28C11.0659 16.143 11.017 15.9819 11.017 15.8171C11.0172 15.5961 11.1051 15.3843 11.2613 15.228C11.4175 15.0718 11.6294 14.9839 11.8503 14.9837Z" fill="#466B83"/>
<path d="M1.68333 125.817C2.6038 125.817 3.35 125.071 3.35 124.15C3.35 123.23 2.6038 122.483 1.68333 122.483C0.762855 122.483 0.0166626 123.23 0.0166626 124.15C0.0166626 125.071 0.762855 125.817 1.68333 125.817Z" fill="#466B83"/>
<path d="M9.18366 122.484H6.68366C6.24164 122.484 5.81771 122.659 5.50515 122.972C5.19259 123.285 5.017 123.709 5.017 124.151C5.017 124.593 5.19259 125.017 5.50515 125.329C5.81771 125.642 6.24164 125.817 6.68366 125.817H9.18366C9.62569 125.817 10.0496 125.642 10.3622 125.329C10.6747 125.017 10.8503 124.593 10.8503 124.151C10.8503 123.709 10.6747 123.285 10.3622 122.972C10.0496 122.659 9.62569 122.484 9.18366 122.484Z" fill="#466B83"/>
<path d="M133.35 122.484H130.85C130.408 122.484 129.984 122.659 129.672 122.972C129.359 123.285 129.184 123.709 129.184 124.151C129.184 124.593 129.359 125.017 129.672 125.329C129.984 125.642 130.408 125.817 130.85 125.817H133.35C133.792 125.817 134.216 125.642 134.529 125.329C134.841 125.017 135.017 124.593 135.017 124.151C135.017 123.709 134.841 123.285 134.529 122.972C134.216 122.659 133.792 122.484 133.35 122.484Z" fill="#466B83"/>
<path d="M138.35 125.817C139.27 125.817 140.017 125.071 140.017 124.15C140.017 123.23 139.27 122.483 138.35 122.483C137.43 122.483 136.683 123.23 136.683 124.15C136.683 125.071 137.43 125.817 138.35 125.817Z" fill="#466B83"/>
<path d="M125.618 122.484H78.4879C88.8089 120.38 97.981 114.519 104.226 106.036C110.47 97.5536 113.343 87.0544 112.285 76.5743C111.228 66.0943 106.317 56.3802 98.5041 49.3158C90.6911 42.2513 80.5332 38.3398 70 38.3398C59.4668 38.3398 49.3088 42.2513 41.4959 49.3158C33.6829 56.3802 28.7717 66.0943 27.7146 76.5743C26.6574 87.0544 29.5296 97.5536 35.7743 106.036C42.0189 114.519 51.191 120.38 61.5121 122.484H14.4159C14.1788 122.453 13.9378 122.473 13.709 122.542C13.4802 122.612 13.2689 122.729 13.0892 122.887C12.9095 123.045 12.7656 123.239 12.6669 123.457C12.5683 123.675 12.5173 123.911 12.5173 124.15C12.5173 124.389 12.5683 124.626 12.6669 124.844C12.7656 125.061 12.9095 125.256 13.0892 125.413C13.2689 125.571 13.4802 125.689 13.709 125.758C13.9378 125.828 14.1788 125.848 14.4159 125.817H125.618C125.855 125.848 126.096 125.828 126.325 125.758C126.554 125.689 126.765 125.571 126.945 125.413C127.124 125.256 127.268 125.061 127.367 124.844C127.466 124.626 127.517 124.389 127.517 124.15C127.517 123.911 127.466 123.675 127.367 123.457C127.268 123.239 127.124 123.045 126.945 122.887C126.765 122.729 126.554 122.612 126.325 122.542C126.096 122.473 125.855 122.453 125.618 122.484ZM30.8333 80.8336C30.8332 73.0872 33.1302 65.5147 37.4339 59.0737C41.7375 52.6327 47.8545 47.6126 55.0113 44.6481C62.168 41.6836 70.0431 40.9079 77.6408 42.4191C85.2384 43.9303 92.2173 47.6605 97.6949 53.1381C103.172 58.6156 106.903 65.5945 108.414 73.1921C109.925 80.7897 109.15 88.6648 106.185 95.8216C103.221 102.978 98.2008 109.095 91.7599 113.399C85.3189 117.703 77.7464 120 70 120C59.616 119.988 49.6607 115.858 42.3181 108.515C34.9755 101.173 30.8452 91.2176 30.8333 80.8336Z" fill="#466B83"/>
<path d="M8.50312 47.4933L9.74145 45.8633L8.95895 45.4199L8.16395 47.2449H8.13728L7.32979 45.4333L6.53312 45.8891L7.75979 47.4799V47.5066L5.84229 47.2583V48.1449L7.77229 47.8974V47.9233L6.53312 49.5141L7.27645 49.9833L8.12479 48.1449H8.15062L8.93312 49.9708L9.75478 49.5008L8.50312 47.9366V47.9099L10.4706 48.1449V47.2583L8.50312 47.5191V47.4933Z" fill="#FDB549"/>
<path d="M28.9182 53.9583L29.6316 53.0192L29.1807 52.7642L28.7232 53.815H28.7074L28.2424 52.7717L27.7841 53.0342L28.4899 53.9508V53.9658L27.3857 53.8225V54.3333L28.4974 54.1908V54.2058L27.7841 55.1217L28.2116 55.3925L28.7007 54.3333H28.7149L29.1657 55.385L29.6391 55.1142L28.9182 54.2133V54.1983L30.0516 54.3333V53.8225L28.9182 53.9733V53.9583Z" fill="#FDB549"/>
<path d="M107.252 33.9583L107.965 33.0192L107.514 32.7642L107.057 33.815H107.041L106.576 32.7717L106.118 33.0342L106.823 33.9508V33.9658L105.719 33.8225V34.3333L106.831 34.1908V34.2058L106.118 35.1217L106.545 35.3925L107.034 34.3333H107.048L107.499 35.385L107.973 35.1142L107.252 34.2133V34.1983L108.385 34.3333V33.8225L107.252 33.9733V33.9583Z" fill="#FDB549"/>
<path d="M131.684 20.7448V19.8748L129.754 20.1306V20.1056L130.969 18.5064L130.201 18.0723L129.421 19.8623H129.395L128.603 18.0848L127.822 18.5323L129.024 20.0931V20.1181L127.144 19.8748V20.7448L129.037 20.5023V20.5273L127.822 22.0873L128.55 22.5481L129.383 20.7448H129.408L130.175 22.5356L130.981 22.0748L129.754 20.5398V20.5148L131.684 20.7448Z" fill="#FDB549"/>
<path d="M47.2681 6.33576L46.2198 7.6816L46.8489 8.0791L47.5664 6.52326H47.5881L48.2498 8.06826L48.9448 7.67076L47.8864 6.34659V6.32493L49.5514 6.52326V5.77326L47.8864 5.9941V5.9716L48.9348 4.59326L48.2723 4.21826L47.5998 5.76243H47.5773L46.8939 4.2291L46.2198 4.61493L47.2573 5.96076V5.98326L45.6348 5.77326V6.52326L47.2681 6.3141V6.33576Z" fill="#FDB549"/>
<path d="M102.479 129.984H95.5556C95.1366 130.017 94.7456 130.208 94.4605 130.516C94.1754 130.825 94.0171 131.23 94.0171 131.651C94.0171 132.071 94.1754 132.476 94.4605 132.785C94.7456 133.094 95.1366 133.284 95.5556 133.317H102.479C102.898 133.284 103.289 133.094 103.574 132.785C103.859 132.476 104.017 132.071 104.017 131.651C104.017 131.23 103.859 130.825 103.574 130.516C103.289 130.208 102.898 130.017 102.479 129.984Z" fill="#FDB549"/>
<path d="M45.4787 129.984H38.5556C38.1366 130.017 37.7456 130.208 37.4605 130.516C37.1754 130.825 37.0171 131.23 37.0171 131.651C37.0171 132.071 37.1754 132.476 37.4605 132.785C37.7456 133.094 38.1366 133.284 38.5556 133.317H45.4787C45.8977 133.284 46.2886 133.094 46.5737 132.785C46.8588 132.476 47.0171 132.071 47.0171 131.651C47.0171 131.23 46.8588 130.825 46.5737 130.516C46.2886 130.208 45.8977 130.017 45.4787 129.984Z" fill="#FDB549"/>
<path d="M86.6837 129.984H53.3503C52.9083 129.984 52.4844 130.159 52.1718 130.472C51.8593 130.785 51.6837 131.209 51.6837 131.651C51.6837 132.093 51.8593 132.517 52.1718 132.829C52.4844 133.142 52.9083 133.317 53.3503 133.317H66.6337V134.984H60.017C59.575 134.984 59.151 135.159 58.8385 135.472C58.5259 135.785 58.3503 136.209 58.3503 136.651C58.3503 137.093 58.5259 137.517 58.8385 137.829C59.151 138.142 59.575 138.317 60.017 138.317H80.8503C81.2924 138.317 81.7163 138.142 82.0288 137.829C82.3414 137.517 82.517 137.093 82.517 136.651C82.517 136.209 82.3414 135.785 82.0288 135.472C81.7163 135.159 81.2924 134.984 80.8503 134.984H73.4003V133.317H86.6837C87.1257 133.317 87.5496 133.142 87.8622 132.829C88.1747 132.517 88.3503 132.093 88.3503 131.651C88.3503 131.209 88.1747 130.785 87.8622 130.472C87.5496 130.159 87.1257 129.984 86.6837 129.984Z" fill="#FDB549"/>
</g>
<defs>
<clipPath id="clip0_30_3700">
<rect width="140" height="140" fill="white"/>
</clipPath>
</defs>
</svg>
