<svg width="131" height="130" viewBox="0 0 131 130" fill="none" xmlns="http://www.w3.org/2000/svg">
<g clip-path="url(#clip0_2055_484)">
<path d="M1.92262 103.304C2.77735 103.304 3.47024 102.611 3.47024 101.756C3.47024 100.901 2.77735 100.208 1.92262 100.208C1.06789 100.208 0.375 100.901 0.375 101.756C0.375 102.611 1.06789 103.304 1.92262 103.304Z" fill="#3A576A"/>
<path d="M8.88687 100.208H6.56544C6.15499 100.208 5.76134 100.372 5.47111 100.662C5.18087 100.952 5.01782 101.346 5.01782 101.756C5.01782 102.167 5.18087 102.56 5.47111 102.85C5.76134 103.141 6.15499 103.304 6.56544 103.304H8.88687C9.29732 103.304 9.69097 103.141 9.9812 102.85C10.2714 102.56 10.4345 102.167 10.4345 101.756C10.4345 101.346 10.2714 100.952 9.9812 100.662C9.69097 100.372 9.29732 100.208 8.88687 100.208Z" fill="#3A576A"/>
<path d="M91.8035 106.399H85.3749C84.9858 106.43 84.6228 106.607 84.358 106.893C84.0933 107.18 83.9463 107.556 83.9463 107.947C83.9463 108.337 84.0933 108.713 84.358 109C84.6228 109.286 84.9858 109.463 85.3749 109.494H91.8035C92.1925 109.463 92.5556 109.286 92.8203 109C93.085 108.713 93.2321 108.337 93.2321 107.947C93.2321 107.556 93.085 107.18 92.8203 106.893C92.5556 106.607 92.1925 106.43 91.8035 106.399Z" fill="#B4EDFF"/>
<path d="M45.375 106.399H38.9464C38.5573 106.43 38.1943 106.607 37.9296 106.893C37.6648 107.18 37.5178 107.556 37.5178 107.947C37.5178 108.337 37.6648 108.713 37.9296 109C38.1943 109.286 38.5573 109.463 38.9464 109.494H45.375C45.7641 109.463 46.1271 109.286 46.3918 109C46.6566 108.713 46.8036 108.337 46.8036 107.947C46.8036 107.556 46.6566 107.18 46.3918 106.893C46.1271 106.607 45.7641 106.43 45.375 106.399Z" fill="#B4EDFF"/>
<path d="M80.8511 106.399H49.8987C49.4882 106.399 49.0946 106.562 48.8044 106.852C48.5141 107.142 48.3511 107.536 48.3511 107.947C48.3511 108.357 48.5141 108.751 48.8044 109.041C49.0946 109.331 49.4882 109.494 49.8987 109.494H62.2332V111.042H56.0892C55.6787 111.042 55.2851 111.205 54.9948 111.495C54.7046 111.785 54.5416 112.179 54.5416 112.589C54.5416 113 54.7046 113.394 54.9948 113.684C55.2851 113.974 55.6787 114.137 56.0892 114.137H75.4344C75.8449 114.137 76.2385 113.974 76.5287 113.684C76.819 113.394 76.982 113 76.982 112.589C76.982 112.179 76.819 111.785 76.5287 111.495C76.2385 111.205 75.8449 111.042 75.4344 111.042H68.5165V109.494H80.8511C81.2615 109.494 81.6552 109.331 81.9454 109.041C82.2356 108.751 82.3987 108.357 82.3987 107.947C82.3987 107.536 82.2356 107.142 81.9454 106.852C81.6552 106.562 81.2615 106.399 80.8511 106.399Z" fill="#B4EDFF"/>
<path d="M124.184 100.208H121.863C121.453 100.208 121.059 100.372 120.769 100.662C120.478 100.952 120.315 101.346 120.315 101.756C120.315 102.167 120.478 102.56 120.769 102.85C121.059 103.141 121.453 103.304 121.863 103.304H124.184C124.595 103.304 124.989 103.141 125.279 102.85C125.569 102.56 125.732 102.167 125.732 101.756C125.732 101.346 125.569 100.952 125.279 100.662C124.989 100.372 124.595 100.208 124.184 100.208Z" fill="#3A576A"/>
<path d="M128.827 103.304C129.682 103.304 130.375 102.611 130.375 101.756C130.375 100.901 129.682 100.208 128.827 100.208C127.973 100.208 127.28 100.901 127.28 101.756C127.28 102.611 127.973 103.304 128.827 103.304Z" fill="#3A576A"/>
<path d="M114.899 79.3157C114.899 79.5189 114.859 79.7202 114.781 79.908C114.703 80.0958 114.589 80.2664 114.446 80.4101C114.302 80.5539 114.131 80.6679 113.943 80.7456C113.756 80.8234 113.554 80.8634 113.351 80.8633H100.97V77.7681H113.351C113.761 77.7693 114.154 77.9327 114.444 78.2227C114.734 78.5127 114.898 78.9056 114.899 79.3157Z" fill="#B4EDFF"/>
<path d="M114.899 73.1248C114.899 73.328 114.859 73.5293 114.781 73.7171C114.703 73.9049 114.589 74.0755 114.446 74.2192C114.302 74.3629 114.131 74.4769 113.943 74.5547C113.756 74.6324 113.554 74.6724 113.351 74.6724H100.97V71.5771H113.351C113.761 71.5783 114.154 71.7418 114.444 72.0318C114.734 72.3217 114.898 72.7147 114.899 73.1248Z" fill="#B4EDFF"/>
<path d="M117.004 100.208H72.6876C73.0566 99.8642 73.3699 99.4648 73.6162 99.0244C74.5206 99.6455 75.6067 99.9464 76.7018 99.8791C77.7969 99.8117 78.8381 99.3802 79.6596 98.653C80.4051 97.9953 80.9271 97.1217 81.1531 96.1536C81.9357 96.4686 82.7932 96.5485 83.6206 96.3836C84.448 96.2187 85.2094 95.816 85.8114 95.225C86.6921 94.4484 87.2544 93.3735 87.39 92.2071L90.6477 91.4643C90.9421 91.9966 91.372 92.4416 91.8938 92.7542C92.4157 93.0668 93.0109 93.2358 93.6191 93.2441H97.4882C98.2954 93.2264 99.0721 92.9326 99.6889 92.4116C100.306 91.8906 100.725 91.1739 100.877 90.381L112.972 93.4143C113.096 93.4483 113.223 93.4639 113.351 93.4607C113.728 93.4616 114.093 93.3246 114.375 93.0754C114.658 92.8262 114.84 92.4821 114.887 92.108C114.934 91.7339 114.842 91.3557 114.629 91.0447C114.416 90.7336 114.096 90.5113 113.73 90.4196L100.97 87.2083V65.2322L113.73 62.0286C114.129 61.928 114.47 61.6734 114.681 61.3208C114.891 60.9681 114.953 60.5464 114.852 60.1482C114.752 59.7501 114.497 59.4082 114.145 59.1978C113.792 58.9874 113.37 58.9256 112.972 59.0262L100.258 62.222C99.949 61.7716 99.5358 61.4022 99.0537 61.1449C98.5715 60.8877 98.0346 60.7502 97.4882 60.7441H93.6191C92.9792 60.7546 92.3547 60.9425 91.8151 61.2868C91.2755 61.631 90.8419 62.1182 90.5626 62.694C85.1459 61.7964 78.7929 58.678 78.7001 58.6315C74.9548 56.8518 72.5638 55.9542 72.4632 55.9155C72.3749 55.8851 72.2843 55.8618 72.1923 55.8459C64.315 54.4453 61.4054 56.2792 60.7477 56.8209L52.2745 63.0655H42.0989C41.9892 62.2274 41.5849 61.4558 40.9582 60.8886C40.3315 60.3215 39.5235 59.9959 38.6787 59.9702H34.8096C34.0679 59.9885 33.3512 60.2419 32.7629 60.6939C32.1746 61.146 31.7451 61.7732 31.5364 62.4851L17.7781 59.0262C17.3799 58.9256 16.9581 58.9874 16.6055 59.1978C16.2529 59.4082 15.9983 59.7501 15.8977 60.1482C15.7971 60.5464 15.8589 60.9681 16.0693 61.3208C16.2797 61.6734 16.6216 61.928 17.0197 62.0286L31.3275 65.6268V86.8214L17.0197 90.4196C16.654 90.5113 16.3346 90.7336 16.1215 91.0447C15.9085 91.3557 15.8166 91.7339 15.8632 92.108C15.9099 92.4821 16.0918 92.8262 16.3747 93.0754C16.6576 93.3246 17.0219 93.4616 17.3989 93.4607C17.5269 93.4639 17.6546 93.4483 17.7781 93.4143L31.5364 89.9631C31.7455 90.6742 32.1753 91.3003 32.7637 91.751C33.3521 92.2017 34.0686 92.4536 34.8096 92.4702H38.6787C39.5326 92.4432 40.3485 92.1104 40.9777 91.5324C41.6069 90.9543 42.0075 90.1695 42.1066 89.3208H42.7721L56.6543 100.208H13.7465C13.5262 100.179 13.3023 100.198 13.0897 100.262C12.8772 100.327 12.6808 100.436 12.5138 100.583C12.3468 100.729 12.213 100.909 12.1213 101.112C12.0296 101.314 11.9822 101.534 11.9822 101.756C11.9822 101.978 12.0296 102.198 12.1213 102.4C12.213 102.602 12.3468 102.783 12.5138 102.929C12.6808 103.076 12.8772 103.185 13.0897 103.25C13.3023 103.314 13.5262 103.333 13.7465 103.304H117.004C117.224 103.333 117.448 103.314 117.66 103.25C117.873 103.185 118.069 103.076 118.236 102.929C118.403 102.783 118.537 102.602 118.629 102.4C118.721 102.198 118.768 101.978 118.768 101.756C118.768 101.534 118.721 101.314 118.629 101.112C118.537 100.909 118.403 100.729 118.236 100.583C118.069 100.436 117.873 100.327 117.66 100.262C117.448 100.198 117.224 100.179 117.004 100.208ZM93.2322 64.4196C93.2322 64.0869 93.4334 63.8393 93.6191 63.8393H97.4882C97.6739 63.8393 97.8751 64.0869 97.8751 64.4196V89.5762C97.8751 89.9089 97.6739 90.1488 97.4882 90.1488H93.6191C93.4334 90.1488 93.2322 89.9089 93.2322 89.5762V64.4196ZM39.0656 88.7482C39.0656 89.1351 38.8334 89.375 38.6787 89.375H34.8096C34.6548 89.375 34.4227 89.1351 34.4227 88.7482V63.7C34.4227 63.3131 34.6548 63.0655 34.8096 63.0655H38.6787C38.8334 63.0655 39.0656 63.3131 39.0656 63.7V88.7482ZM51.137 67.7393C51.1912 67.7083 51.2453 67.6774 51.2918 67.6464L62.6281 59.2816C62.6498 59.2676 62.6682 59.2491 62.6822 59.2274C62.7054 59.2119 64.8257 57.703 71.5114 58.8637C72.0453 59.0726 78.1894 61.8274 79.3114 62.3226C79.3269 63.7077 79.0096 66.9655 75.837 67.7548C75.4698 67.8452 75.1485 68.067 74.9338 68.3782C74.719 68.6894 74.6257 69.0685 74.6714 69.4438C74.7171 69.8191 74.8988 70.1647 75.1819 70.4153C75.4651 70.6658 75.8303 70.8039 76.2084 70.8036C76.3334 70.806 76.4581 70.793 76.5798 70.7649C80.6346 69.7589 82.0429 66.3155 82.3447 63.553C84.8652 64.5352 87.4748 65.2712 90.137 65.7506V88.4077L86.6162 89.2125L67.3947 67.3446L65.2048 65.0774C64.9351 64.7999 64.5718 64.6328 64.1856 64.6084C63.7994 64.5841 63.418 64.7044 63.1156 64.9458C60.4614 67.097 57.0721 69.55 56.2519 69.7821C55.1531 70.0607 51.965 70.4476 50.4715 68.9077C50.4483 68.8845 50.2703 68.6369 50.2858 68.5131C50.3013 68.4048 50.4947 68.1107 51.137 67.7393ZM70.5519 97.9798C70.1983 98.2933 69.7356 98.4552 69.2636 98.4306C68.7917 98.406 68.3483 98.1968 68.0293 97.8482L66.3578 96.0143C66.2521 95.9038 66.1325 95.8075 66.0019 95.728L58.8441 88.6399C58.6999 88.4966 58.5289 88.3831 58.3408 88.306C58.1527 88.2289 57.9513 88.1896 57.748 88.1905C57.5447 88.1913 57.3436 88.2323 57.1561 88.3109C56.9687 88.3896 56.7986 88.5045 56.6556 88.649C56.5126 88.7935 56.3996 88.9648 56.3229 89.1531C56.2462 89.3414 56.2074 89.5429 56.2087 89.7462C56.21 89.9495 56.2514 90.1505 56.3305 90.3378C56.4096 90.525 56.5249 90.6949 56.6697 90.8375L63.8352 97.9411C63.8662 97.972 63.8971 97.9875 63.9281 98.0185C64.0166 98.3278 64.0164 98.6558 63.9275 98.965C63.8385 99.2743 63.6645 99.5522 63.4251 99.7673C63.2015 100.005 62.9043 100.16 62.5816 100.208H62.4037C61.7791 100.132 61.1917 99.8704 60.7168 99.4577L44.2656 86.5583C43.9949 86.3432 43.6595 86.2259 43.3138 86.2256H42.1608V66.1607H48.1733C47.6496 66.6982 47.3131 67.3901 47.2138 68.1339C47.1679 68.6775 47.2403 69.2246 47.4259 69.7375C47.6116 70.2505 47.9062 70.7171 48.2894 71.1054C51.2917 74.2083 56.7858 72.8387 57.0102 72.7845C58.4572 72.4286 61.8078 69.9214 63.9513 68.2423L84.2793 91.2399C84.3201 91.3938 84.3384 91.5528 84.3334 91.7119C84.3218 91.9416 84.2646 92.1667 84.1649 92.374C84.0652 92.5813 83.9252 92.7666 83.7531 92.9191C83.312 93.3137 82.7548 93.8089 81.0215 92.6018L80.6037 92.2613C80.5502 92.1527 80.4797 92.0534 80.3947 91.9673L73.7787 84.8637C73.4985 84.563 73.1104 84.386 72.6997 84.3715C72.2891 84.357 71.8894 84.5062 71.5888 84.7863C71.2881 85.0664 71.1111 85.4545 71.0965 85.8652C71.082 86.2759 71.2313 86.6755 71.5114 86.9762L77.4001 93.2905C77.4633 93.5082 77.5744 93.7092 77.7251 93.8786C77.8811 94.048 78.0018 94.2468 78.0802 94.4633C78.1586 94.6799 78.1931 94.9099 78.1816 95.1399C78.17 95.3685 78.1126 95.5924 78.013 95.7984C77.9133 96.0044 77.7733 96.1883 77.6013 96.3393C77.2494 96.6555 76.7869 96.8199 76.3145 96.7967C75.842 96.7735 75.3978 96.5646 75.0787 96.2155L74.0108 95.0393C73.948 94.9141 73.87 94.7972 73.7787 94.6911L66.6054 87.0458C66.3249 86.748 65.9377 86.5735 65.5287 86.5605C65.1198 86.5475 64.7223 86.6971 64.4234 86.9766C64.1245 87.256 63.9485 87.6425 63.934 88.0514C63.9195 88.4604 64.0676 88.8584 64.3459 89.1583L71.0703 96.3316C71.1342 96.6277 71.12 96.9353 71.0291 97.2242C70.9382 97.5132 70.7737 97.7735 70.5519 97.9798Z" fill="#3A576A"/>
<path d="M31.3273 71.5771V74.6724H17.3987C16.9882 74.6724 16.5946 74.5093 16.3044 74.2191C16.0141 73.9289 15.8511 73.5352 15.8511 73.1248C15.8511 72.7143 16.0141 72.3207 16.3044 72.0304C16.5946 71.7402 16.9882 71.5771 17.3987 71.5771H31.3273Z" fill="#B4EDFF"/>
<path d="M31.3273 77.7681V80.8633H17.3987C16.9882 80.8633 16.5946 80.7003 16.3044 80.41C16.0141 80.1198 15.8511 79.7261 15.8511 79.3157C15.8511 78.9052 16.0141 78.5116 16.3044 78.2214C16.5946 77.9311 16.9882 77.7681 17.3987 77.7681H31.3273Z" fill="#B4EDFF"/>
<path d="M5.01796 32.1131C5.4771 32.1131 5.92592 31.9769 6.30768 31.7218C6.68944 31.4668 6.98698 31.1042 7.16268 30.68C7.33839 30.2558 7.38436 29.7891 7.29478 29.3388C7.20521 28.8884 6.98412 28.4748 6.65946 28.1501C6.3348 27.8255 5.92116 27.6044 5.47085 27.5148C5.02054 27.4252 4.55378 27.4712 4.12959 27.6469C3.7054 27.8226 3.34285 28.1202 3.08776 28.5019C2.83268 28.8837 2.69653 29.3325 2.69653 29.7916C2.69724 30.4071 2.94204 30.9972 3.37724 31.4324C3.81244 31.8676 4.4025 32.1124 5.01796 32.1131ZM5.01796 28.6309C5.24753 28.6309 5.47194 28.699 5.66282 28.8265C5.8537 28.9541 6.00247 29.1354 6.09032 29.3475C6.17817 29.5596 6.20116 29.7929 6.15637 30.0181C6.11159 30.2432 6.00104 30.4501 5.83871 30.6124C5.67638 30.7747 5.46956 30.8853 5.24441 30.9301C5.01925 30.9748 4.78587 30.9519 4.57378 30.864C4.36168 30.7762 4.1804 30.6274 4.05286 30.4365C3.92532 30.2456 3.85725 30.0212 3.85725 29.7916C3.85755 29.4839 3.97994 29.1888 4.19755 28.9712C4.41516 28.7536 4.71021 28.6312 5.01796 28.6309Z" fill="#3A576A"/>
<path d="M122.873 60.7441C122.567 60.7441 122.268 60.8349 122.013 61.005C121.759 61.175 121.56 61.4167 121.443 61.6995C121.326 61.9823 121.295 62.2935 121.355 62.5937C121.415 62.8939 121.562 63.1697 121.778 63.3861C121.995 63.6025 122.271 63.7499 122.571 63.8096C122.871 63.8694 123.182 63.8387 123.465 63.7216C123.748 63.6044 123.99 63.4061 124.16 63.1516C124.33 62.8971 124.42 62.5978 124.42 62.2918C124.42 61.8814 124.257 61.4881 123.967 61.1979C123.677 60.9078 123.283 60.7446 122.873 60.7441ZM122.873 63.0656C122.72 63.0656 122.57 63.0202 122.443 62.9352C122.316 62.8501 122.216 62.7293 122.158 62.5879C122.099 62.4465 122.084 62.2909 122.114 62.1408C122.144 61.9907 122.217 61.8528 122.326 61.7446C122.434 61.6364 122.572 61.5627 122.722 61.5328C122.872 61.503 123.028 61.5183 123.169 61.5769C123.31 61.6354 123.431 61.7346 123.516 61.8619C123.601 61.9891 123.647 62.1387 123.647 62.2918C123.646 62.4969 123.565 62.6936 123.42 62.8387C123.275 62.9838 123.078 63.0654 122.873 63.0656Z" fill="#3A576A"/>
<path d="M79.3037 51.4199C78.9976 51.4199 78.6984 51.5107 78.4439 51.6807C78.1894 51.8508 77.991 52.0925 77.8739 52.3753C77.7568 52.6581 77.7261 52.9693 77.7858 53.2695C77.8456 53.5697 77.993 53.8454 78.2094 54.0619C78.4258 54.2783 78.7016 54.4257 79.0018 54.4854C79.302 54.5451 79.6132 54.5145 79.896 54.3974C80.1788 54.2802 80.4205 54.0819 80.5905 53.8273C80.7606 53.5728 80.8513 53.2736 80.8513 52.9675C80.8509 52.5572 80.6877 52.1639 80.3975 51.8737C80.1074 51.5836 79.714 51.4204 79.3037 51.4199ZM79.3037 53.7414C79.1507 53.7414 79.0011 53.696 78.8738 53.6109C78.7466 53.5259 78.6474 53.4051 78.5888 53.2637C78.5302 53.1223 78.5149 52.9667 78.5448 52.8166C78.5746 52.6665 78.6483 52.5286 78.7566 52.4204C78.8648 52.3122 79.0027 52.2385 79.1528 52.2086C79.3029 52.1787 79.4585 52.1941 79.5998 52.2526C79.7412 52.3112 79.8621 52.4104 79.9471 52.5376C80.0321 52.6649 80.0775 52.8145 80.0775 52.9675C80.0773 53.1727 79.9957 53.3694 79.8507 53.5145C79.7056 53.6596 79.5089 53.7411 79.3037 53.7414Z" fill="#3A576A"/>
<path d="M104.839 15.8633C104.533 15.8633 104.234 15.954 103.98 16.1241C103.725 16.2942 103.527 16.5359 103.41 16.8187C103.292 17.1014 103.262 17.4126 103.321 17.7128C103.381 18.013 103.529 18.2888 103.745 18.5052C103.961 18.7217 104.237 18.8691 104.537 18.9288C104.838 18.9885 105.149 18.9578 105.432 18.8407C105.714 18.7236 105.956 18.5252 106.126 18.2707C106.296 18.0162 106.387 17.717 106.387 17.4109C106.387 17.0006 106.223 16.6072 105.933 16.3171C105.643 16.027 105.25 15.8638 104.839 15.8633ZM104.839 18.1847C104.686 18.1847 104.537 18.1393 104.409 18.0543C104.282 17.9693 104.183 17.8484 104.124 17.707C104.066 17.5656 104.051 17.41 104.08 17.2599C104.11 17.1098 104.184 16.972 104.292 16.8637C104.4 16.7555 104.538 16.6818 104.688 16.652C104.839 16.6221 104.994 16.6374 105.135 16.696C105.277 16.7546 105.398 16.8537 105.483 16.981C105.568 17.1082 105.613 17.2579 105.613 17.4109C105.613 17.6161 105.531 17.8128 105.386 17.9578C105.241 18.1029 105.045 18.1845 104.839 18.1847Z" fill="#3A576A"/>
<path d="M35.9702 40.968C35.9702 40.6619 35.8795 40.3627 35.7094 40.1082C35.5394 39.8537 35.2977 39.6554 35.0149 39.5382C34.7321 39.4211 34.4209 39.3904 34.1207 39.4501C33.8205 39.5099 33.5447 39.6573 33.3283 39.8737C33.1118 40.0901 32.9645 40.3659 32.9047 40.6661C32.845 40.9663 32.8757 41.2775 32.9928 41.5603C33.1099 41.8431 33.3083 42.0848 33.5628 42.2548C33.8173 42.4249 34.1165 42.5156 34.4226 42.5156C34.8329 42.5152 35.2263 42.352 35.5164 42.0618C35.8066 41.7717 35.9698 41.3783 35.9702 40.968ZM33.6488 40.968C33.6488 40.815 33.6942 40.6654 33.7792 40.5381C33.8642 40.4109 33.9851 40.3117 34.1265 40.2531C34.2679 40.1946 34.4235 40.1792 34.5736 40.2091C34.7237 40.2389 34.8616 40.3126 34.9698 40.4209C35.078 40.5291 35.1517 40.667 35.1816 40.8171C35.2114 40.9672 35.1961 41.1228 35.1375 41.2642C35.079 41.4055 34.9798 41.5264 34.8525 41.6114C34.7253 41.6965 34.5757 41.7418 34.4226 41.7418C34.2175 41.7416 34.0208 41.66 33.8757 41.515C33.7306 41.3699 33.649 41.1732 33.6488 40.968Z" fill="#3A576A"/>
<path d="M8.80012 60.7526L9.95077 59.2398L9.22417 58.8281L8.48518 60.5228H8.46119L7.7106 58.8397L6.97161 59.2638L8.10988 60.741V60.765L6.32935 60.5351V61.3585L8.12149 61.1287V61.1526L6.97161 62.6291L7.66107 63.0655L8.44881 61.3585H8.4728L9.19941 63.0531L9.96238 62.6175L8.80012 61.1643V61.1403L10.6279 61.3585V60.5351L8.80012 60.7766V60.7526Z" fill="#B4EDFF"/>
<path d="M67.2847 22.2166L66.6223 23.067L67.02 23.3185L67.4735 22.335H67.4874L67.9053 23.3116L68.3448 23.0601L67.6754 22.2236V22.2097L68.7278 22.335V21.8607L67.6754 22.0007V21.9868L68.3378 21.1147L67.92 20.8779L67.4944 21.8537H67.4804L67.0479 20.8849L66.6223 21.1286L67.2785 21.9798V21.9938L66.2532 21.8607V22.335L67.2847 22.2027V22.2166Z" fill="#B4EDFF"/>
<path d="M127.84 31.988V31.1809L126.047 31.4177V31.3944L127.176 29.9103L126.463 29.5063L125.739 31.1685H125.714L124.979 29.518L124.253 29.9335L125.371 31.3828V31.406L123.624 31.1809V31.988L125.382 31.7628V31.7868L124.253 33.2346L124.93 33.6625L125.703 31.988H125.726L126.439 33.6509L127.188 33.223L126.047 31.7984V31.7744L127.84 31.988Z" fill="#B4EDFF"/>
<path d="M103.06 36.2282L104.034 34.9483L103.419 34.6001L102.794 36.034H102.773L102.139 34.6102L101.513 34.9684L102.477 36.2181V36.239L100.97 36.044V36.7405L102.487 36.5462V36.5663L101.513 37.816L102.097 38.1852L102.763 36.7405H102.783L103.398 38.1751L104.044 37.806L103.06 36.5764V36.5563L104.607 36.7405V36.044L103.06 36.2491V36.2282Z" fill="#B4EDFF"/>
</g>
<defs>
<clipPath id="clip0_2055_484">
<rect width="130" height="130" fill="white" transform="translate(0.375)"/>
</clipPath>
</defs>
</svg>
