<svg width="131" height="130" viewBox="0 0 131 130" fill="none" xmlns="http://www.w3.org/2000/svg">
<g clip-path="url(#clip0_2055_3)">
<path d="M91.5536 120.197H85.125C84.7359 120.228 84.3729 120.405 84.1082 120.692C83.8434 120.979 83.6964 121.355 83.6964 121.745C83.6964 122.135 83.8434 122.511 84.1082 122.798C84.3729 123.085 84.7359 123.261 85.125 123.293H91.5536C91.9427 123.261 92.3057 123.085 92.5704 122.798C92.8352 122.511 92.9822 122.135 92.9822 121.745C92.9822 121.355 92.8352 120.979 92.5704 120.692C92.3057 120.405 91.9427 120.228 91.5536 120.197Z" fill="#B4EDFF"/>
<path d="M45.125 120.197H38.6964C38.3073 120.228 37.9443 120.405 37.6796 120.692C37.4148 120.979 37.2678 121.355 37.2678 121.745C37.2678 122.135 37.4148 122.511 37.6796 122.798C37.9443 123.085 38.3073 123.261 38.6964 123.293H45.125C45.5141 123.261 45.8771 123.085 46.1418 122.798C46.4066 122.511 46.5536 122.135 46.5536 121.745C46.5536 121.355 46.4066 120.979 46.1418 120.692C45.8771 120.405 45.5141 120.228 45.125 120.197Z" fill="#B4EDFF"/>
<path d="M80.6012 120.197H49.6488C49.2384 120.197 48.8447 120.36 48.5545 120.651C48.2642 120.941 48.1012 121.334 48.1012 121.745C48.1012 122.155 48.2642 122.549 48.5545 122.839C48.8447 123.129 49.2384 123.293 49.6488 123.293H61.9833V124.84H55.8393C55.4288 124.84 55.0352 125.003 54.745 125.293C54.4547 125.584 54.2917 125.977 54.2917 126.388C54.2917 126.798 54.4547 127.192 54.745 127.482C55.0352 127.772 55.4288 127.935 55.8393 127.935H75.1845C75.595 127.935 75.9886 127.772 76.2789 127.482C76.5691 127.192 76.7321 126.798 76.7321 126.388C76.7321 125.977 76.5691 125.584 76.2789 125.293C75.9886 125.003 75.595 124.84 75.1845 124.84H68.2667V123.293H80.6012C81.0117 123.293 81.4053 123.129 81.6955 122.839C81.9858 122.549 82.1488 122.155 82.1488 121.745C82.1488 121.334 81.9858 120.941 81.6955 120.651C81.4053 120.36 81.0117 120.197 80.6012 120.197Z" fill="#B4EDFF"/>
<path d="M46.7893 13.4114C47.2485 13.4114 47.6973 13.2753 48.079 13.0202C48.4608 12.7651 48.7583 12.4025 48.934 11.9784C49.1097 11.5542 49.1557 11.0874 49.0661 10.6371C48.9766 10.1868 48.7555 9.77314 48.4308 9.44849C48.1062 9.12383 47.6925 8.90273 47.2422 8.81316C46.7919 8.72359 46.3251 8.76956 45.901 8.94526C45.4768 9.12097 45.1142 9.41851 44.8591 9.80027C44.604 10.182 44.4679 10.6308 44.4679 11.09C44.4686 11.7054 44.7134 12.2955 45.1486 12.7307C45.5838 13.1659 46.1739 13.4107 46.7893 13.4114ZM46.7893 9.92927C47.0189 9.92927 47.2433 9.99734 47.4342 10.1249C47.6251 10.2524 47.7738 10.4337 47.8617 10.6458C47.9495 10.8579 47.9725 11.0913 47.9277 11.3164C47.8829 11.5416 47.7724 11.7484 47.6101 11.9107C47.4477 12.0731 47.2409 12.1836 47.0158 12.2284C46.7906 12.2732 46.5572 12.2502 46.3451 12.1623C46.133 12.0745 45.9518 11.9257 45.8242 11.7348C45.6967 11.544 45.6286 11.3196 45.6286 11.09C45.6289 10.7822 45.7513 10.4872 45.9689 10.2696C46.1865 10.052 46.4816 9.92957 46.7893 9.92927Z" fill="#3A576A"/>
<path d="M123.396 25.0186C123.09 25.0186 122.791 25.1093 122.537 25.2794C122.282 25.4494 122.084 25.6911 121.967 25.9739C121.85 26.2567 121.819 26.5679 121.879 26.8681C121.938 27.1683 122.086 27.4441 122.302 27.6605C122.519 27.8769 122.794 28.0243 123.095 28.0841C123.395 28.1438 123.706 28.1131 123.989 27.996C124.272 27.8789 124.513 27.6805 124.683 27.426C124.853 27.1715 124.944 26.8723 124.944 26.5662C124.944 26.1559 124.78 25.7625 124.49 25.4724C124.2 25.1822 123.807 25.019 123.396 25.0186ZM123.396 27.34C123.243 27.34 123.094 27.2946 122.967 27.2096C122.839 27.1245 122.74 27.0037 122.682 26.8623C122.623 26.7209 122.608 26.5653 122.638 26.4152C122.667 26.2651 122.741 26.1272 122.849 26.019C122.958 25.9108 123.095 25.8371 123.246 25.8072C123.396 25.7774 123.551 25.7927 123.693 25.8513C123.834 25.9098 123.955 26.009 124.04 26.1363C124.125 26.2635 124.17 26.4131 124.17 26.5662C124.17 26.7713 124.089 26.968 123.943 27.1131C123.798 27.2582 123.602 27.3398 123.396 27.34Z" fill="#3A576A"/>
<path d="M125.718 4.12549C125.412 4.12549 125.113 4.21625 124.858 4.38631C124.604 4.55636 124.405 4.79807 124.288 5.08086C124.171 5.36365 124.14 5.67482 124.2 5.97503C124.26 6.27524 124.407 6.551 124.624 6.76744C124.84 6.98388 125.116 7.13127 125.416 7.19099C125.716 7.2507 126.027 7.22006 126.31 7.10292C126.593 6.98579 126.835 6.78742 127.005 6.53292C127.175 6.27841 127.266 5.9792 127.266 5.67311C127.265 5.2628 127.102 4.86943 126.812 4.57929C126.522 4.28916 126.128 4.12596 125.718 4.12549ZM125.718 6.44692C125.565 6.44692 125.415 6.40153 125.288 6.31651C125.161 6.23148 125.062 6.11063 125.003 5.96923C124.944 5.82784 124.929 5.67225 124.959 5.52214C124.989 5.37204 125.063 5.23416 125.171 5.12594C125.279 5.01772 125.417 4.94402 125.567 4.91417C125.717 4.88431 125.873 4.89963 126.014 4.9582C126.155 5.01677 126.276 5.11595 126.361 5.2432C126.446 5.37045 126.492 5.52006 126.492 5.67311C126.492 5.87827 126.41 6.07497 126.265 6.22005C126.12 6.36512 125.923 6.44671 125.718 6.44692Z" fill="#3A576A"/>
<path d="M97.0869 12.6377C96.7808 12.6377 96.4816 12.7285 96.2271 12.8985C95.9726 13.0686 95.7742 13.3103 95.6571 13.5931C95.54 13.8759 95.5093 14.187 95.569 14.4872C95.6288 14.7874 95.7762 15.0632 95.9926 15.2796C96.209 15.4961 96.4848 15.6435 96.785 15.7032C97.0852 15.7629 97.3964 15.7323 97.6792 15.6151C97.962 15.498 98.2037 15.2996 98.3737 15.0451C98.5438 14.7906 98.6345 14.4914 98.6345 14.1853C98.6341 13.775 98.4709 13.3816 98.1807 13.0915C97.8906 12.8014 97.4972 12.6382 97.0869 12.6377ZM97.0869 14.9591C96.9339 14.9591 96.7843 14.9137 96.657 14.8287C96.5298 14.7437 96.4306 14.6228 96.372 14.4814C96.3135 14.34 96.2981 14.1845 96.328 14.0344C96.3578 13.8842 96.4315 13.7464 96.5398 13.6381C96.648 13.5299 96.7859 13.4562 96.936 13.4264C97.0861 13.3965 97.2417 13.4118 97.3831 13.4704C97.5244 13.529 97.6453 13.6282 97.7303 13.7554C97.8154 13.8827 97.8607 14.0323 97.8607 14.1853C97.8605 14.3905 97.7789 14.5872 97.6339 14.7323C97.4888 14.8773 97.2921 14.9589 97.0869 14.9591Z" fill="#3A576A"/>
<path d="M11.9679 39.721C11.9679 39.4149 11.8772 39.1157 11.7071 38.8611C11.537 38.6066 11.2953 38.4083 11.0125 38.2911C10.7298 38.174 10.4186 38.1434 10.1184 38.2031C9.81817 38.2628 9.54241 38.4102 9.32597 38.6266C9.10953 38.8431 8.96213 39.1188 8.90242 39.419C8.8427 39.7192 8.87335 40.0304 8.99049 40.3132C9.10762 40.596 9.30598 40.8377 9.56049 41.0078C9.81499 41.1778 10.1142 41.2686 10.4203 41.2686C10.8306 41.2681 11.224 41.1049 11.5141 40.8148C11.8042 40.5246 11.9675 40.1313 11.9679 39.721ZM9.64649 39.721C9.64649 39.5679 9.69187 39.4183 9.7769 39.2911C9.86193 39.1638 9.98278 39.0646 10.1242 39.0061C10.2656 38.9475 10.4212 38.9322 10.5713 38.962C10.7214 38.9919 10.8592 39.0656 10.9675 39.1738C11.0757 39.282 11.1494 39.4199 11.1792 39.57C11.2091 39.7201 11.1938 39.8757 11.1352 40.0171C11.0766 40.1585 10.9775 40.2793 10.8502 40.3644C10.723 40.4494 10.5733 40.4948 10.4203 40.4948C10.2151 40.4946 10.0184 40.413 9.87336 40.2679C9.72829 40.1228 9.6467 39.9261 9.64649 39.721Z" fill="#3A576A"/>
<path d="M3.90742 21.9323L5.05807 20.4187L4.33147 20.0078L3.59248 21.7025H3.56849L2.8179 20.0194L2.07891 20.4435L3.21718 21.9207V21.9447L1.43665 21.7141V22.5374L3.22879 22.3076V22.3323L2.07891 23.8088L2.76837 24.2452L3.55611 22.5374H3.5801L4.3067 24.2328L5.06968 23.7972L3.90742 22.3439V22.32L5.73516 22.5374V21.7141L3.90742 21.9563V21.9323Z" fill="#B4EDFF"/>
<path d="M15.6639 3.40314L15.0015 4.25356L15.3992 4.50505L15.8527 3.52154H15.8658L16.2844 4.49808L16.724 4.2466L16.0546 3.41011V3.39618L17.107 3.52154V3.04796L16.0546 3.18725V3.17332L16.717 2.30201L16.2992 2.06445L15.8736 3.04023H15.8596L15.4271 2.07142L15.0015 2.31594L15.6569 3.16636V3.18029L14.6316 3.04796V3.52154L15.6639 3.38922V3.40314Z" fill="#B4EDFF"/>
<path d="M122.623 43.3683V42.5612L120.83 42.798V42.7748L121.958 41.2906L121.246 40.8867L120.521 42.5489H120.497L119.761 40.8983L119.036 41.3139L120.153 42.7632V42.7864L118.406 42.5612V43.3683L120.165 43.1431V43.1671L119.036 44.6149L119.713 45.0428L120.486 43.3683H120.509L121.222 45.0312L121.97 44.6033L120.83 43.1787V43.1548L122.623 43.3683Z" fill="#B4EDFF"/>
<path d="M82.7276 6.12614L83.7011 4.84626L83.0859 4.49805L82.4614 5.93192H82.4406L81.806 4.50811L81.18 4.86638L82.1434 6.11686V6.13698L80.6376 5.94198V6.6384L82.1535 6.44418V6.46507L81.18 7.714L81.7642 8.08311L82.4305 6.6384H82.4506L83.0658 8.07305L83.7111 7.70394L82.7276 6.47513V6.45424L84.2737 6.6384V5.94198L82.7276 6.14703V6.12614Z" fill="#B4EDFF"/>
<path d="M16.9917 23.8911C17.0746 24.2267 17.2675 24.5249 17.5397 24.7381C17.8118 24.9513 18.1474 25.0673 18.4932 25.0676C18.6182 25.0676 18.7427 25.0527 18.8642 25.0231C19.0615 24.9747 19.2473 24.888 19.411 24.7679C19.5748 24.6477 19.7132 24.4965 19.8185 24.3228C19.9237 24.1491 19.9938 23.9564 20.0245 23.7556C20.0552 23.5548 20.0461 23.35 19.9977 23.1528L19.9758 23.0651L25.3403 28.4243C25.6303 28.7141 26.0235 28.8768 26.4334 28.8769C26.8433 28.8769 27.2365 28.7141 27.5265 28.4244C27.8166 28.1347 27.9797 27.7417 27.9801 27.3318C27.9805 26.9218 27.8182 26.5285 27.5288 26.2382L22.1642 20.8789L22.2519 20.9C22.4492 20.949 22.6543 20.9586 22.8554 20.9282C23.0565 20.8978 23.2496 20.828 23.4237 20.7229C23.5978 20.6178 23.7494 20.4794 23.87 20.3156C23.9905 20.1518 24.0776 19.9659 24.1262 19.7684C24.1748 19.5709 24.1839 19.3658 24.1531 19.1648C24.1224 18.9638 24.0522 18.7708 23.9468 18.5969C23.8414 18.423 23.7027 18.2716 23.5386 18.1514C23.3746 18.0312 23.1885 17.9445 22.9909 17.8963L17.5183 16.5527C17.2599 16.4891 16.9894 16.4932 16.7331 16.5646C16.4767 16.636 16.2431 16.7724 16.0548 16.9605C15.8665 17.1486 15.73 17.3821 15.6583 17.6384C15.5867 17.8948 15.5823 18.1652 15.6458 18.4237L16.9917 23.8911Z" fill="#3A576A"/>
<path d="M103.815 28.8777C104.019 28.8779 104.22 28.838 104.408 28.7602C104.596 28.6824 104.766 28.5683 104.91 28.4243L110.274 23.0651L110.252 23.1528C110.204 23.35 110.195 23.5548 110.225 23.7556C110.256 23.9563 110.326 24.1491 110.431 24.3228C110.537 24.4965 110.675 24.6477 110.839 24.7679C111.003 24.888 111.189 24.9747 111.386 25.023C111.507 25.0526 111.632 25.0676 111.757 25.0676C112.103 25.0673 112.438 24.9513 112.71 24.7381C112.982 24.5248 113.175 24.2267 113.258 23.891L114.604 18.4237C114.668 18.1652 114.663 17.8948 114.592 17.6384C114.52 17.3821 114.383 17.1486 114.195 16.9605C114.007 16.7724 113.773 16.636 113.517 16.5646C113.261 16.4932 112.99 16.4891 112.732 16.5527L107.259 17.8963C107.061 17.9445 106.875 18.0312 106.711 18.1514C106.547 18.2716 106.409 18.423 106.303 18.5969C106.198 18.7708 106.128 18.9638 106.097 19.1648C106.066 19.3658 106.075 19.5709 106.124 19.7684C106.172 19.9659 106.259 20.1518 106.38 20.3156C106.501 20.4794 106.652 20.6178 106.826 20.7229C107 20.828 107.193 20.8978 107.395 20.9282C107.596 20.9586 107.801 20.949 107.998 20.9L108.086 20.8789L102.721 26.2382C102.505 26.4545 102.358 26.7301 102.298 27.0301C102.239 27.3301 102.269 27.641 102.387 27.9235C102.504 28.206 102.702 28.4474 102.956 28.6173C103.211 28.7871 103.51 28.8778 103.815 28.8777Z" fill="#3A576A"/>
<path d="M98.6239 80.1027C98.8227 79.6433 99.7983 76.9501 99.8776 76.6849C100.794 76.6776 101.689 76.4009 102.449 75.8891C103.087 75.4598 103.634 74.9093 104.06 74.269C105.529 72.0964 105.288 68.8122 105.346 66.3192C105.383 64.2114 105.226 62.1046 104.879 60.0253C104.769 59.2027 104.49 58.4116 104.06 57.7015C103.634 57.0616 103.087 56.5115 102.449 56.0822C101.688 55.5707 100.794 55.294 99.8776 55.2864C99.8549 55.2063 99.836 55.1262 99.8096 55.0469C99.6652 54.6517 98.8869 52.5026 98.6209 51.8708C99.3261 51.2781 99.8379 50.4881 100.091 49.6022C100.302 48.8642 100.366 48.0919 100.279 47.3292C100.156 46.5084 99.8626 45.7225 99.4174 45.0221C97.7213 42.1022 95.6035 39.4487 93.1324 37.1472C92.4089 36.3861 91.6035 35.7072 90.7309 35.1228C89.9161 34.6362 88.9845 34.3798 88.0354 34.3808C87.0863 34.3819 86.1553 34.6404 85.3415 35.1288C85.1713 35.2394 85.0083 35.3606 84.8533 35.4916C84.4248 35.2294 81.9485 33.7898 81.6969 33.6674C81.7015 32.943 81.656 32.2191 81.5608 31.5009C81.2817 30.6536 80.8057 29.8845 80.1717 29.2569C79.5378 28.6292 78.764 28.1608 77.9139 27.8902C74.0653 26.4991 70.1607 26.153 66.1451 25.831C65.3121 25.7796 64.4791 25.9324 63.7186 26.2761C63.0289 26.5434 62.4063 26.959 61.895 27.4935C61.3836 28.028 60.9959 28.6683 60.7594 29.3691C60.4958 30.4002 60.5173 31.4836 60.8217 32.5034C61.1261 33.5233 61.7019 34.4412 62.4876 35.1591C62.9438 35.6137 63.4794 35.9809 64.0678 36.2427C65.635 36.9168 67.4388 36.6417 69.0915 36.8715C70.7016 37.058 72.2884 37.4084 73.8273 37.9173C75.2107 38.4856 76.7622 38.487 78.1467 37.921C78.9495 37.5686 79.6707 37.0537 80.2648 36.4089C80.5014 36.5231 82.779 37.8485 83.172 38.0873C83.1152 38.2755 83.0661 38.4636 83.0291 38.6518C82.8162 39.5999 82.8455 40.5862 83.1143 41.52C83.383 42.4537 83.8826 43.3047 84.5669 43.9944C84.5669 43.9944 84.7694 44.1788 85.074 44.4546C86.903 46.1131 88.5016 48.009 89.8272 50.0919C90.2409 50.8351 90.7983 51.4886 91.467 52.0144C91.9724 52.3983 92.5456 52.6836 93.1566 52.8554C94.004 53.0983 94.8913 53.17 95.7667 53.0663C96.0116 53.6459 96.7249 55.6159 96.8579 55.9771C96.8821 56.0512 96.8995 56.1252 96.9206 56.1993C96.1769 56.6804 95.5386 57.3074 95.0443 58.0424C94.688 58.566 94.4337 59.152 94.2947 59.7699C94.1275 60.371 94.0828 60.9995 94.1632 61.6183C94.641 64.5092 94.6413 67.459 94.1639 70.35C94.0831 70.9695 94.1278 71.5989 94.2955 72.2007C94.4338 72.8188 94.6879 73.4052 95.0443 73.9289C95.5384 74.6638 96.1768 75.2906 96.9206 75.7712C96.8473 76.0153 95.9527 78.4834 95.7705 78.9065C94.8942 78.8019 94.0059 78.8731 93.1574 79.1159C91.9338 79.4565 90.8758 80.2305 90.1808 81.2937C88.6644 83.7967 86.7711 86.0509 84.5677 87.9768C84.114 88.4019 83.7383 88.9032 83.4576 89.458C82.8996 90.6649 82.7495 92.0205 83.0299 93.3202C83.0676 93.5091 83.1168 93.6989 83.1742 93.8877C82.6362 94.2142 80.4916 95.4535 80.4916 95.4535C80.4145 95.4905 80.3419 95.5253 80.2656 95.5624C78.8669 94.0661 76.4933 93.0664 74.4711 93.819C74.4711 93.819 74.2142 93.9127 73.8288 94.054C71.2058 95.0152 68.6041 95.0439 65.8738 95.3198C65.2551 95.3649 64.6468 95.5029 64.0692 95.7293C63.1384 96.159 62.3311 96.8164 61.7219 97.6409C61.1127 98.4655 60.7213 99.4303 60.5841 100.446C60.425 101.548 60.6499 102.671 61.2209 103.627C61.792 104.583 62.6744 105.313 63.7202 105.695C64.4805 106.039 65.3136 106.192 66.1466 106.14L69.1361 105.985C71.7971 105.615 74.4332 105.083 77.0298 104.394C77.5603 104.206 77.9139 104.081 77.9139 104.081C78.6776 103.843 79.3813 103.443 79.978 102.91C80.5747 102.377 81.0505 101.723 81.3734 100.991C81.7381 100.146 81.8504 99.2126 81.6969 98.3047C81.7739 98.2677 81.8465 98.2321 81.9236 98.1951C81.9236 98.1951 84.2677 96.8394 84.8563 96.4827C85.2876 96.8469 85.7798 97.1322 86.3102 97.3253C87.0394 97.5616 87.8102 97.6412 88.5722 97.559C89.3343 97.4769 90.0704 97.2347 90.7325 96.8485C91.0911 96.6252 91.4289 96.3703 91.742 96.0868C94.7285 93.428 97.3138 90.3504 99.4174 86.9499C99.8434 86.2758 100.124 85.5199 100.24 84.7309C100.356 83.9419 100.305 83.1373 100.091 82.3691C99.839 81.4843 99.328 80.6951 98.6239 80.1027ZM75.4309 35.2883C75.4309 35.2883 75.1467 35.1856 74.7213 35.0321C71.8822 34.1352 68.9259 33.6633 65.9487 33.6319C65.6462 33.6131 65.3505 33.535 65.0781 33.4022C64.8071 33.2931 64.56 33.1319 64.3511 32.9276C64.3088 32.886 64.2741 32.8354 64.234 32.7908C64.67 32.7666 65.0395 32.7364 65.3123 32.753C65.6547 32.7712 65.8496 32.781 65.8496 32.781C66.255 32.7826 66.6447 32.625 66.935 32.3421C67.2253 32.0591 67.3929 31.6735 67.4017 31.2683C67.4105 30.863 67.2598 30.4705 66.9821 30.1752C66.7044 29.88 66.3219 29.7055 65.9168 29.6895C65.9168 29.6895 65.703 29.679 65.3297 29.6608C65.0312 29.6441 64.6269 29.6744 64.1509 29.6993C64.1924 29.6495 64.2265 29.5951 64.2725 29.5482C64.5018 29.3155 64.7731 29.1283 65.072 28.9965C65.3909 28.8808 65.7301 28.8314 66.0687 28.8515C68.7018 28.9335 71.32 29.2799 73.8839 29.8853C74.6366 30.0719 75.3855 30.2692 76.1359 30.4641C76.6255 30.6379 76.952 30.7543 76.952 30.7543C77.2951 30.8739 77.6084 31.0664 77.8703 31.3183C78.1322 31.5703 78.3365 31.8759 78.4694 32.2142C77.787 31.9611 77.3661 31.8046 77.3661 31.8046C77.177 31.7291 76.9743 31.6937 76.7709 31.7008C76.5674 31.7078 76.3677 31.7571 76.1843 31.8455C76.001 31.934 75.838 32.0596 75.7058 32.2144C75.5736 32.3692 75.4751 32.5498 75.4164 32.7447C75.2943 33.1272 75.3197 33.5416 75.4877 33.9063C75.6556 34.271 75.954 34.5597 76.324 34.7155C76.324 34.7155 76.7072 34.8575 77.3283 35.0873C77.0458 35.2571 76.7296 35.3631 76.4018 35.3978C76.0741 35.4325 75.7427 35.3952 75.4309 35.2883ZM76.9535 101.217C76.9535 101.217 76.6263 101.333 76.1366 101.508C75.6326 101.638 74.9615 101.812 74.2898 101.985C71.5926 102.625 68.8402 103.006 66.0703 103.121C65.7314 103.141 65.392 103.091 65.0728 102.975C64.774 102.843 64.5027 102.656 64.2733 102.423C64.2279 102.376 64.1932 102.323 64.1524 102.273C64.373 102.284 65.323 102.311 65.323 102.311C65.5289 102.305 65.7316 102.258 65.9192 102.173C66.1069 102.087 66.2757 101.966 66.4161 101.815C66.5564 101.664 66.6654 101.487 66.7368 101.294C66.8082 101.1 66.8406 100.895 66.832 100.689C66.8228 100.292 66.6573 99.9152 66.3716 99.6398C66.0859 99.3644 65.7031 99.213 65.3063 99.2183C65.3063 99.2183 64.4358 99.1926 64.2333 99.182C64.2733 99.1374 64.308 99.086 64.3512 99.0445C64.5602 98.8399 64.8075 98.6784 65.0788 98.5691C65.3513 98.4358 65.6474 98.3578 65.9501 98.3394C68.9146 98.1773 71.8543 97.7081 74.722 96.9392C75.1482 96.785 75.4315 96.6838 75.4315 96.6838C75.7443 96.5765 76.0768 96.5392 76.4055 96.5743C76.7342 96.6094 77.0513 96.7162 77.3343 96.887C76.4117 97.224 75.8132 97.4432 75.8132 97.4432C75.4448 97.5897 75.1439 97.8678 74.9688 98.2235C74.7938 98.5793 74.757 98.9873 74.8656 99.3686C74.9184 99.5677 75.0123 99.7534 75.1412 99.9139C75.2702 100.074 75.4313 100.206 75.6143 100.301C75.7972 100.395 75.998 100.45 76.2035 100.462C76.409 100.475 76.6149 100.444 76.8077 100.371C76.8077 100.371 77.4606 100.132 78.4671 99.7639C78.3339 100.101 78.1298 100.405 77.8686 100.655C77.6074 100.906 77.2953 101.098 76.9535 101.217ZM92.7584 49.099C91.1799 46.5829 89.2879 44.2778 87.1279 42.239C86.7932 41.9337 86.5695 41.7312 86.5695 41.7312C86.0967 41.2658 85.8231 40.6351 85.8062 39.972C86.1569 40.2326 87.0402 41.0178 87.0402 41.0178C87.3479 41.2735 87.742 41.4013 88.1411 41.375C88.5403 41.3487 88.9141 41.1703 89.1856 40.8765C89.3268 40.7287 89.4364 40.5537 89.5079 40.3621C89.5794 40.1706 89.6113 39.9666 89.6016 39.7624C89.592 39.5582 89.5409 39.3581 89.4516 39.1742C89.3623 38.9903 89.2366 38.8265 89.0821 38.6926C89.0821 38.6926 88.1171 37.8387 87.7362 37.5538C88.0934 37.4852 88.4617 37.5035 88.8104 37.607C89.159 37.7105 89.4776 37.8962 89.7395 38.1485C92.4591 40.6491 94.8453 43.4896 96.8391 46.5999C97.1921 47.162 97.3092 47.8406 97.1648 48.4884C97.1489 48.5496 97.1186 48.6063 97.0967 48.666C96.9902 48.4726 96.4952 47.6617 96.4952 47.6617C96.3931 47.4846 96.2561 47.3302 96.0925 47.2076C95.9289 47.0851 95.7421 46.9971 95.5435 46.9489C95.3449 46.9007 95.1386 46.8934 94.937 46.9273C94.7355 46.9612 94.5429 47.0357 94.371 47.1463C94.0308 47.3566 93.7845 47.6895 93.6828 48.0763C93.5811 48.463 93.6319 48.8741 93.8247 49.2245C93.8247 49.2245 94.2811 49.9665 94.3786 50.1448C94.3182 50.1328 94.2569 50.1282 94.1972 50.1123C93.9023 50.0469 93.6233 49.9237 93.3763 49.7498C93.1293 49.5758 92.9193 49.3546 92.7584 49.099ZM97.4323 63.5724C97.3711 62.7759 97.2784 61.9771 97.1542 61.1762C97.1132 60.877 97.132 60.5726 97.2096 60.2807C97.2871 59.9888 97.4219 59.7153 97.6061 59.4759C97.6416 59.4268 97.6846 59.3844 97.7232 59.3368C97.8071 59.7631 97.9725 60.9328 97.9725 60.9328C98.0522 61.3268 98.2777 61.6761 98.6039 61.9108C98.9301 62.1455 99.333 62.2483 99.7318 62.1986C99.934 62.1772 100.13 62.1143 100.306 62.0139C100.483 61.9135 100.638 61.7778 100.76 61.6151C100.882 61.4524 100.969 61.2663 101.016 61.0685C101.063 60.8706 101.068 60.6652 101.032 60.4651C101.032 60.4651 100.849 59.1865 100.756 58.7195C100.812 58.7527 100.872 58.7769 100.924 58.8147C101.451 59.2179 101.797 59.8126 101.888 60.4696C102.454 64.1248 102.454 67.8451 101.888 71.5002C101.798 72.1579 101.451 72.7533 100.924 73.1574C100.874 73.1936 100.815 73.2178 100.761 73.2496C100.796 73.032 100.942 72.0934 100.942 72.0934C100.978 71.8922 100.972 71.6858 100.926 71.4869C100.879 71.2879 100.792 71.1005 100.671 70.936C100.55 70.7715 100.396 70.6335 100.22 70.5301C100.044 70.4268 99.8484 70.3604 99.6456 70.3349C99.2497 70.2778 98.8469 70.3748 98.5204 70.606C98.1939 70.8372 97.9686 71.1848 97.891 71.5773C97.891 71.5773 97.7587 72.4388 97.7269 72.6382C97.6877 72.5899 97.6431 72.546 97.6061 72.4962C97.4222 72.2568 97.2875 71.9834 97.21 71.6917C97.1324 71.3999 97.1134 71.0957 97.1542 70.7967C97.5242 68.4073 97.6176 65.9832 97.4323 63.5724ZM96.8398 85.3721C94.8484 88.4839 92.462 91.3245 89.7402 93.8227C89.478 94.0755 89.1589 94.2615 88.8097 94.3649C88.4605 94.4682 88.0915 94.486 87.734 94.4167C87.9115 94.2853 88.6423 93.6777 88.6423 93.6777C88.946 93.4094 89.1324 93.0326 89.1613 92.6283C89.1902 92.2241 89.0593 91.8246 88.7967 91.5159C88.5342 91.2071 88.161 91.0137 87.7574 90.9772C87.3537 90.9407 86.9519 91.064 86.6383 91.3207C86.6383 91.3207 85.9694 91.8776 85.8069 91.9986C85.8241 91.3357 86.0977 90.7053 86.5702 90.2401C88.9327 88.0521 91.0118 85.5769 92.7592 82.8723C92.92 82.6166 93.13 82.3955 93.377 82.2217C93.624 82.0478 93.9031 81.9248 94.198 81.8597C94.2562 81.8446 94.3166 81.8393 94.3756 81.8279C94.1685 82.2096 93.542 83.2108 93.542 83.2108C93.3497 83.5638 93.2979 83.9765 93.397 84.3661C93.496 84.7556 93.7387 85.0934 94.0763 85.3116C94.2452 85.425 94.4356 85.5024 94.6357 85.539C94.8357 85.5755 95.0412 85.5705 95.2392 85.5241C95.4373 85.4777 95.6236 85.391 95.7867 85.2694C95.9497 85.1479 96.086 84.994 96.1869 84.8174C96.1869 84.8174 96.87 83.7209 97.096 83.3023C97.1186 83.3627 97.1489 83.4202 97.1655 83.4829C97.3098 84.1309 97.1928 84.8097 96.8398 85.3721Z" fill="#3A576A"/>
<path d="M57.5917 99.9361C57.8797 98.5497 57.687 97.1065 57.0454 95.8441C56.7492 95.2849 56.3709 94.7732 55.9232 94.326C55.4948 93.8704 54.9659 93.5213 54.3786 93.3066C52.8289 92.757 51.3409 92.0469 49.939 91.1877C48.4065 90.2386 46.9926 88.5572 45.1813 88.0954C44.5567 87.9235 43.9062 87.8657 43.2611 87.9247C42.3922 87.9634 41.5415 88.187 40.7659 88.5806C40.3457 88.1129 39.912 87.6216 39.4609 87.1441C39.1745 86.7617 38.8913 86.3834 38.6114 86.0091C39.1388 85.318 39.5142 84.5233 39.7133 83.6771C39.8501 83.0514 39.8997 82.4098 39.8606 81.7705C39.8097 81.1502 39.6135 80.5507 39.2878 80.0204C39.2878 80.0204 38.8132 79.035 38.3379 78.0503C37.5089 76.3815 36.884 74.6189 36.4766 72.8006C36.1154 71.083 35.7323 69.8769 34.2762 68.7548C33.5837 68.2251 32.786 67.8494 31.9366 67.653C31.9041 67.0235 31.852 66.3721 31.8656 65.7147C31.8973 65.2455 31.9184 64.7792 31.9381 64.3198C32.7868 64.1231 33.5837 63.7475 34.2754 63.2179C35.8344 62.0157 36.2122 60.3169 36.7381 58.526C37.4065 56.2686 38.2593 54.07 39.2878 51.9523C39.8443 50.8184 39.9944 49.5278 39.7133 48.2964C39.514 47.4498 39.1385 46.6547 38.6114 45.9629C38.7679 45.7536 38.9243 45.5435 39.0868 45.3266L39.8281 44.4259C40.1447 44.0783 40.4583 43.7329 40.7674 43.3936C41.5426 43.786 42.3924 44.0091 43.2603 44.048C43.9058 44.1068 44.5565 44.0487 45.1813 43.8765C45.7714 43.687 46.3251 43.3988 46.8188 43.0241C46.8188 43.0241 47.6962 42.3666 48.5735 41.71C50.3767 40.4626 52.3257 39.4404 54.3771 38.6661C54.9645 38.4509 55.4937 38.1016 55.9224 37.646C56.3702 37.1988 56.7484 36.6871 57.0446 36.1278C57.6865 34.8656 57.8792 33.4223 57.591 32.0359C57.4846 31.5472 57.3044 31.0776 57.0566 30.6432C57.0479 30.6238 57.0379 30.6051 57.0265 30.5872C56.5599 29.7929 55.8733 29.1507 55.0496 28.7381C54.3687 28.3787 53.6142 28.1807 52.8446 28.1593C52.0139 28.1553 51.1893 28.3025 50.4113 28.5937C50.4113 28.5937 50.0599 28.7245 49.5324 28.9202C47.0109 29.8728 44.6328 31.1687 42.4654 32.7712C41.2646 33.6674 40.0631 34.5628 40.0631 34.5628C39.4013 35.0703 38.8651 35.7231 38.4958 36.4709C38.1393 37.1385 37.9216 37.8714 37.8558 38.6253C37.8147 39.5564 38.0385 40.4801 38.5012 41.2891C38.1633 41.6608 37.821 42.0372 37.4742 42.4181L36.6648 43.4019C36.4918 43.6324 36.3248 43.8546 36.1571 44.079C35.2826 43.7672 34.3376 43.7103 33.4321 43.915C32.6856 44.0771 31.9893 44.417 31.4023 44.9057C30.52 45.6364 29.8206 46.563 29.3598 47.6118C27.8887 50.6474 26.7311 53.825 25.9048 57.0955C25.4438 58.922 25.4318 60.9812 26.6454 62.5424C27.2118 63.28 27.9748 63.8428 28.8467 64.1663C28.8248 64.6674 28.8021 65.1774 28.7704 65.6898C28.756 66.4076 28.8104 67.1203 28.8451 67.8064C27.974 68.1305 27.2116 68.6933 26.6454 69.4304C26.1896 70.0839 25.8699 70.8224 25.7051 71.6019C25.5404 72.3814 25.534 73.1861 25.6864 73.9682C26.0296 75.7567 26.5394 77.5092 27.2091 79.2028C27.8272 80.9621 28.5455 82.6846 29.3605 84.3617C29.8226 85.4096 30.5218 86.3357 31.4031 87.067C31.9898 87.5557 32.6859 87.8956 33.4321 88.0577C34.3381 88.2625 35.2838 88.2054 36.1585 87.8929C36.4608 88.295 36.7661 88.7021 37.0744 89.1142C37.5649 89.6386 38.0394 90.1766 38.4996 90.6859C38.0378 91.4947 37.8146 92.4177 37.8558 93.3481C37.9225 94.1018 38.1404 94.8343 38.4966 95.5018C38.866 96.2495 39.4022 96.9023 40.0639 97.4099C43.3903 99.72 46.5899 101.958 50.4128 103.378C51.1908 103.67 52.0153 103.817 52.846 103.813C53.6158 103.791 54.3702 103.593 55.0511 103.233C55.6962 102.911 56.26 102.447 56.7001 101.876C57.1401 101.305 57.4449 100.642 57.5917 99.9361ZM41.9485 36.9243C44.7002 34.9183 47.6313 33.1708 50.7045 31.7041C51.1926 31.5243 51.5184 31.4049 51.5184 31.4049C51.8561 31.2756 52.2178 31.2206 52.5787 31.2436C52.9396 31.2665 53.2914 31.3669 53.61 31.5379C53.4037 31.6149 52.5105 31.9406 52.5105 31.9406C52.3178 32.005 52.1406 32.1085 51.9898 32.2447C51.8391 32.3809 51.7182 32.5468 51.6347 32.732C51.5513 32.9172 51.507 33.1176 51.5048 33.3208C51.5026 33.5239 51.5425 33.7253 51.6219 33.9122C51.7728 34.2852 52.0585 34.5877 52.4223 34.7596C52.786 34.9316 53.2011 34.9603 53.5851 34.8402C53.5851 34.8402 54.4043 34.5417 54.5947 34.4699C54.4884 34.7834 54.3148 35.0698 54.0861 35.309C53.8574 35.5483 53.5791 35.7347 53.2708 35.855C53.2708 35.855 52.9866 35.9578 52.5612 36.1127C50.528 36.876 48.6119 37.9204 46.8687 39.2155C45.9014 39.9387 44.9335 40.6626 44.9335 40.6626C44.4537 41.0203 43.863 41.1967 43.2657 41.1607C43.2059 41.1561 43.1463 41.1387 43.0858 41.1296C43.4032 40.8417 44.31 40.074 44.31 40.074C44.619 39.8236 44.8179 39.4622 44.864 39.0671C44.9102 38.672 44.8 38.2745 44.5571 37.9596C44.4345 37.7946 44.2801 37.6558 44.1031 37.5513C43.9261 37.4468 43.73 37.3788 43.5264 37.3512C43.3227 37.3236 43.1155 37.337 42.9171 37.3906C42.7187 37.4442 42.533 37.5369 42.3709 37.6634C42.3709 37.6634 41.3863 38.4961 41.0334 38.815C41.0342 38.7508 41.0251 38.6873 41.0304 38.6238C41.0514 38.291 41.1444 37.9667 41.3029 37.6733C41.4614 37.3799 41.6817 37.1243 41.9485 36.9243ZM28.6494 58.6023C28.6591 58.5235 28.6755 58.4456 28.6985 58.3696C29.6098 54.9557 30.8224 51.6295 32.322 48.4302C32.3862 48.2934 32.43 48.2186 32.43 48.2186C32.6153 47.9047 32.8651 47.6339 33.1629 47.4239C33.4607 47.2139 33.7997 47.0695 34.1575 47.0004C33.7812 47.6193 33.5492 48.001 33.5492 48.001C33.4426 48.1774 33.374 48.374 33.3478 48.5784C33.3215 48.7828 33.3381 48.9904 33.3965 49.188C33.455 49.3856 33.554 49.5689 33.6872 49.7261C33.8205 49.8833 33.985 50.011 34.1704 50.101C34.5234 50.2808 34.9308 50.3224 35.3129 50.2177C35.695 50.113 36.0243 49.8696 36.2364 49.535C36.2364 49.535 36.4495 49.1844 36.7948 48.6161C36.9104 48.9234 36.9558 49.2526 36.9279 49.5797C36.8999 49.9068 36.7992 50.2236 36.6331 50.5068C35.765 51.9729 35.0704 53.5351 34.5633 55.1617C34.0379 56.5882 33.6293 58.055 33.3414 59.5477C33.2867 59.8711 33.1605 60.1782 32.9719 60.4466C32.7834 60.715 32.5374 60.9379 32.2517 61.0991C32.3991 60.1287 32.495 59.4993 32.495 59.4993C32.5656 59.1004 32.4769 58.6898 32.2481 58.3555C32.0193 58.0212 31.6686 57.7899 31.2712 57.7113C30.8739 57.6327 30.4615 57.713 30.1226 57.9349C29.7838 58.1569 29.5454 58.5028 29.4587 58.8985C29.4587 58.8985 29.353 59.5854 29.1905 60.6434C28.9607 60.361 28.7936 60.033 28.7003 59.6811C28.6071 59.3292 28.5897 58.9614 28.6494 58.6023ZM32.427 83.7572C32.0474 83.0941 31.721 82.402 31.4507 81.6874C30.9429 80.5403 30.4857 79.3697 30.0724 78.1848C29.5976 76.9606 29.1892 75.7117 28.8489 74.4435C28.6977 73.9083 28.6227 73.3545 28.626 72.7984C28.638 72.5124 28.6993 72.2307 28.8073 71.9656C28.8579 71.8447 29.2063 71.4298 29.1912 71.3286C29.3008 72.0442 29.3681 72.4863 29.3681 72.4863C29.3993 72.6899 29.4727 72.8847 29.5836 73.0582C29.6945 73.2318 29.8404 73.3802 30.012 73.4941C30.1836 73.608 30.377 73.6848 30.58 73.7196C30.783 73.7544 30.991 73.7464 31.1908 73.6962C31.5769 73.607 31.9159 73.3773 32.142 73.0518C32.368 72.7263 32.4648 72.3284 32.4134 71.9354C32.4134 71.9354 32.3515 71.5303 32.2517 70.8737C32.5377 71.0348 32.784 71.2577 32.9727 71.5263C33.1614 71.7948 33.2876 72.1022 33.3422 72.4258C33.3497 72.4945 33.3639 72.5624 33.3844 72.6284C33.8712 74.3059 34.2625 76.0138 34.8746 77.6521C35.3651 78.9632 36.0248 80.2078 36.6331 81.466C36.7991 81.7491 36.8998 82.0656 36.9279 82.3926C36.956 82.7195 36.9108 83.0486 36.7955 83.3559C36.2847 82.5171 35.953 81.973 35.953 81.973C35.761 81.6267 35.4416 81.3689 35.0626 81.2544C34.6836 81.1398 34.2749 81.1775 33.9232 81.3594C33.7382 81.4504 33.5733 81.5775 33.4383 81.7334C33.3033 81.8892 33.201 82.0705 33.1373 82.2666C33.0737 82.4627 33.0501 82.6696 33.0679 82.875C33.0857 83.0804 33.1445 83.2802 33.2409 83.4624C33.2409 83.4624 33.6013 84.0556 34.1575 84.9715C34.0555 84.803 33.1494 84.5605 32.9174 84.3481C32.7302 84.1722 32.5654 83.9737 32.427 83.7572ZM51.5199 100.568C51.5199 100.568 51.1942 100.448 50.706 100.268C47.4195 99.0588 44.786 97.0177 41.9492 95.0492C41.6824 94.8489 41.4621 94.5933 41.3035 94.2998C41.1449 94.0062 41.0517 93.6819 41.0303 93.3489C41.0251 93.2839 41.0341 93.2205 41.0341 93.1563C41.5714 93.6429 41.9024 93.9437 41.9024 93.9437C42.0639 94.072 42.2493 94.1669 42.4478 94.2228C42.6463 94.2786 42.854 94.2943 43.0586 94.269C43.2633 94.2437 43.4609 94.1778 43.6398 94.0752C43.8187 93.9726 43.9754 93.8354 44.1007 93.6716C44.347 93.3616 44.462 92.9673 44.4207 92.5735C44.3794 92.1796 44.1853 91.8177 43.88 91.5655C43.88 91.5655 43.577 91.2897 43.0858 90.8431C43.1462 90.834 43.2059 90.8167 43.2664 90.8121C43.8637 90.7759 44.4545 90.9523 44.9341 91.3101C47.3585 93.0167 49.9083 94.5377 52.5619 95.86C52.9874 96.0142 53.2715 96.117 53.2715 96.117C53.5797 96.2373 53.8579 96.4236 54.0866 96.6627C54.3153 96.9018 54.489 97.1881 54.5955 97.5014C53.6728 97.1636 53.075 96.9444 53.075 96.9444C52.702 96.8165 52.2939 96.8378 51.9363 97.0041C51.5592 97.1615 51.2585 97.46 51.0984 97.8359C50.9383 98.2119 50.9314 98.6355 51.0793 99.0165C51.1608 99.2046 51.2804 99.3737 51.4307 99.5131C51.5809 99.6526 51.7585 99.7593 51.9521 99.8266C51.9521 99.8266 52.605 100.065 53.6116 100.433C53.293 100.604 52.9413 100.705 52.5804 100.728C52.2195 100.751 51.8578 100.697 51.5199 100.568Z" fill="#3A576A"/>
<path d="M55.9186 23.1822C56.0484 23.5717 56.3275 23.8936 56.6947 24.0772C57.0618 24.2608 57.4868 24.291 57.8762 24.1612C58.2656 24.0315 58.5876 23.7523 58.7711 23.3852C58.9547 23.018 58.985 22.593 58.8552 22.2036L57.3076 17.5653C57.1777 17.1762 56.8986 16.8546 56.5317 16.6711C56.1647 16.4877 55.74 16.4575 55.3508 16.5871C54.9616 16.7167 54.6397 16.9955 54.456 17.3623C54.2723 17.7291 54.2417 18.1538 54.371 18.5431L55.9186 23.1822Z" fill="#B4EDFF"/>
<path d="M50.876 25.3322C51.0195 25.4761 51.19 25.5904 51.3776 25.6684C51.5653 25.7464 51.7665 25.7867 51.9698 25.7869C52.173 25.7871 52.3743 25.7472 52.5621 25.6696C52.75 25.592 52.9206 25.4781 53.0644 25.3344C53.2082 25.1908 53.3223 25.0202 53.4001 24.8325C53.478 24.6447 53.518 24.4435 53.518 24.2402C53.518 24.037 53.478 23.8357 53.4002 23.648C53.3223 23.4602 53.2083 23.2897 53.0645 23.146L49.9693 20.0538C49.8258 19.9099 49.6553 19.7956 49.4677 19.7176C49.28 19.6396 49.0788 19.5993 48.8755 19.5991C48.6723 19.5989 48.471 19.6388 48.2832 19.7164C48.0953 19.794 47.9246 19.9079 47.7809 20.0516C47.6371 20.1952 47.523 20.3658 47.4452 20.5535C47.3673 20.7413 47.3273 20.9425 47.3273 21.1457C47.3273 21.349 47.3673 21.5502 47.4451 21.738C47.5229 21.9257 47.637 22.0963 47.7808 22.24L50.876 25.3322Z" fill="#3A576A"/>
<path d="M62.2285 23.3559C62.4113 23.4283 62.6061 23.4657 62.8028 23.4662C63.1121 23.4662 63.4143 23.3736 63.6706 23.2005C63.9269 23.0273 64.1255 22.7814 64.2408 22.4944L65.7884 18.6284C65.9403 18.2473 65.9346 17.8215 65.7727 17.4446C65.6107 17.0677 65.3058 16.7705 64.9249 16.6183C64.544 16.4661 64.1182 16.4713 63.7411 16.6329C63.364 16.7944 63.0665 17.099 62.9139 17.4798L61.3663 21.345C61.214 21.726 61.2192 22.1519 61.3809 22.529C61.5426 22.9061 61.8475 23.2036 62.2285 23.3559Z" fill="#3A576A"/>
<path d="M58.4607 108.961C58.4348 108.759 58.3695 108.565 58.2684 108.389C58.1673 108.212 58.0326 108.058 57.8717 107.934C57.7109 107.809 57.5272 107.718 57.331 107.665C57.1349 107.612 56.9302 107.598 56.7287 107.623C56.5271 107.649 56.3327 107.715 56.1564 107.816C55.9801 107.917 55.8254 108.052 55.7012 108.212C55.4504 108.537 55.3389 108.948 55.3912 109.355L56.0153 114.205C56.0635 114.578 56.2456 114.92 56.5276 115.168C56.8096 115.417 57.1722 115.554 57.5479 115.554C57.6146 115.554 57.6812 115.55 57.7473 115.541C57.9488 115.516 58.1433 115.451 58.3196 115.35C58.4959 115.249 58.6506 115.114 58.7748 114.953C58.8991 114.793 58.9904 114.609 59.0436 114.413C59.0968 114.217 59.1108 114.012 59.0849 113.811L58.4607 108.961Z" fill="#B4EDFF"/>
<path d="M63.8238 107.821C63.5948 107.481 63.2402 107.246 62.838 107.168C62.4358 107.089 62.0188 107.173 61.6785 107.401C61.3382 107.63 61.1024 107.984 61.0229 108.386C60.9434 108.788 61.0267 109.205 61.2545 109.546L63.6953 113.175C63.9239 113.516 64.2786 113.752 64.6812 113.831C65.0838 113.91 65.5014 113.826 65.8422 113.598C66.1829 113.369 66.4188 113.014 66.498 112.612C66.5773 112.209 66.4933 111.791 66.2646 111.451L63.8238 107.821Z" fill="#3A576A"/>
<path d="M52.3028 107.577C51.9582 107.355 51.5395 107.278 51.1383 107.364C50.7372 107.449 50.3864 107.691 50.1628 108.035L47.8987 111.53C47.7884 111.7 47.7127 111.891 47.676 112.091C47.6394 112.29 47.6424 112.496 47.685 112.694C47.7276 112.893 47.8089 113.081 47.9243 113.248C48.0396 113.416 48.1868 113.558 48.3574 113.669C48.528 113.779 48.7187 113.855 48.9185 113.892C49.1183 113.928 49.3234 113.925 49.5221 113.883C49.7207 113.84 49.909 113.759 50.0763 113.643C50.2435 113.528 50.3864 113.381 50.4967 113.21L52.7607 109.715C52.8712 109.545 52.947 109.354 52.9838 109.155C53.0205 108.955 53.0176 108.75 52.975 108.551C52.9325 108.353 52.8512 108.165 52.7359 107.997C52.6205 107.83 52.4734 107.688 52.3028 107.577Z" fill="#3A576A"/>
<path d="M1.67262 117.102C2.52735 117.102 3.22024 116.409 3.22024 115.554C3.22024 114.7 2.52735 114.007 1.67262 114.007C0.817893 114.007 0.125 114.7 0.125 115.554C0.125 116.409 0.817893 117.102 1.67262 117.102Z" fill="#3A576A"/>
<path d="M8.63687 114.006H6.31544C5.90499 114.006 5.51134 114.169 5.22111 114.46C4.93087 114.75 4.76782 115.144 4.76782 115.554C4.76782 115.964 4.93087 116.358 5.22111 116.648C5.51134 116.939 5.90499 117.102 6.31544 117.102H8.63687C9.04732 117.102 9.44097 116.939 9.7312 116.648C10.0214 116.358 10.1845 115.964 10.1845 115.554C10.1845 115.144 10.0214 114.75 9.7312 114.46C9.44097 114.169 9.04732 114.006 8.63687 114.006Z" fill="#3A576A"/>
<path d="M123.934 114.006H121.613C121.203 114.006 120.809 114.169 120.519 114.46C120.228 114.75 120.065 115.144 120.065 115.554C120.065 115.964 120.228 116.358 120.519 116.648C120.809 116.939 121.203 117.102 121.613 117.102H123.934C124.345 117.102 124.739 116.939 125.029 116.648C125.319 116.358 125.482 115.964 125.482 115.554C125.482 115.144 125.319 114.75 125.029 114.46C124.739 114.169 124.345 114.006 123.934 114.006Z" fill="#3A576A"/>
<path d="M128.577 117.102C129.432 117.102 130.125 116.409 130.125 115.554C130.125 114.7 129.432 114.007 128.577 114.007C127.723 114.007 127.03 114.7 127.03 115.554C127.03 116.409 127.723 117.102 128.577 117.102Z" fill="#3A576A"/>
<path d="M116.755 114.007H114.64C114.651 113.853 114.639 113.698 114.604 113.548L113.258 108.08C113.16 107.682 112.907 107.339 112.556 107.127C112.206 106.916 111.785 106.851 111.387 106.949C110.989 107.047 110.646 107.299 110.433 107.649C110.221 107.999 110.155 108.42 110.252 108.818L110.274 108.906L104.91 103.546C104.766 103.403 104.596 103.289 104.408 103.211C104.221 103.133 104.019 103.093 103.816 103.093C103.613 103.093 103.412 103.133 103.224 103.21C103.037 103.288 102.866 103.402 102.722 103.545C102.579 103.689 102.465 103.859 102.387 104.047C102.309 104.234 102.269 104.436 102.269 104.639C102.269 104.842 102.309 105.043 102.386 105.231C102.464 105.418 102.578 105.589 102.721 105.733L108.086 111.093L107.998 111.071C107.617 110.976 107.215 111.03 106.872 111.221C106.529 111.413 106.273 111.728 106.154 112.102C106.035 112.476 106.064 112.881 106.234 113.235C106.403 113.589 106.702 113.865 107.068 114.007H23.1822C23.5483 113.865 23.8466 113.589 24.0163 113.235C24.1861 112.881 24.2146 112.476 24.096 112.102C23.9774 111.728 23.7207 111.413 23.378 111.221C23.0354 111.03 22.6327 110.976 22.2519 111.071L22.1642 111.093L27.5288 105.733C27.6723 105.589 27.7862 105.418 27.8638 105.231C27.9414 105.043 27.9813 104.842 27.9812 104.639C27.9811 104.436 27.941 104.234 27.8632 104.047C27.7853 103.859 27.6713 103.689 27.5276 103.545C27.3839 103.402 27.2133 103.288 27.0256 103.21C26.8379 103.133 26.6368 103.093 26.4337 103.093C26.2306 103.093 26.0295 103.133 25.8419 103.211C25.6543 103.289 25.4838 103.403 25.3403 103.546L19.9758 108.906L19.9976 108.818C20.0945 108.42 20.0295 107.999 19.8167 107.649C19.604 107.299 19.261 107.047 18.863 106.949C18.4649 106.851 18.0443 106.916 17.6935 107.127C17.3427 107.339 17.0903 107.682 16.9916 108.08L15.6458 113.548C15.6109 113.698 15.599 113.853 15.6104 114.007H13.4954C13.2752 113.978 13.0515 113.996 12.839 114.061C12.6266 114.125 12.4304 114.235 12.2635 114.381C12.0967 114.528 11.963 114.708 11.8714 114.91C11.7798 115.113 11.7324 115.332 11.7324 115.554C11.7324 115.776 11.7798 115.996 11.8714 116.198C11.963 116.4 12.0967 116.581 12.2635 116.727C12.4304 116.874 12.6266 116.983 12.839 117.047C13.0515 117.112 13.2752 117.131 13.4954 117.102H116.755C116.975 117.131 117.199 117.112 117.411 117.047C117.623 116.983 117.82 116.874 117.986 116.727C118.153 116.581 118.287 116.4 118.379 116.198C118.47 115.996 118.518 115.776 118.518 115.554C118.518 115.332 118.47 115.113 118.379 114.91C118.287 114.708 118.153 114.528 117.986 114.381C117.82 114.235 117.623 114.125 117.411 114.061C117.199 113.996 116.975 113.978 116.755 114.007Z" fill="#3A576A"/>
</g>
<defs>
<clipPath id="clip0_2055_3">
<rect width="130" height="130" fill="white" transform="translate(0.125)"/>
</clipPath>
</defs>
</svg>
