<svg width="130" height="130" viewBox="0 0 130 130" fill="none" xmlns="http://www.w3.org/2000/svg">
<g clip-path="url(#clip0_30_4362)">
<path d="M17.0238 21.503H65.7738C66.1843 21.503 66.5779 21.3399 66.8681 21.0497C67.1584 20.7594 67.3214 20.3658 67.3214 19.9553C67.3214 19.5449 67.1584 19.1512 66.8681 18.861C66.5779 18.5708 66.1843 18.4077 65.7738 18.4077H17.0238C16.6134 18.4077 16.2197 18.5708 15.9295 18.861C15.6392 19.1512 15.4762 19.5449 15.4762 19.9553C15.4762 20.3658 15.6392 20.7594 15.9295 21.0497C16.2197 21.3399 16.6134 21.503 17.0238 21.503Z" fill="#5A859D"/>
<path d="M17.0238 66.3841H34.0476C34.4581 66.3841 34.8517 66.221 35.1419 65.9308C35.4322 65.6406 35.5952 65.2469 35.5952 64.8365V60.1936C35.5952 59.7832 35.4322 59.3895 35.142 59.0993C34.8517 58.8091 34.4581 58.646 34.0476 58.646C33.6372 58.646 33.2435 58.8091 32.9533 59.0993C32.6631 59.3895 32.5 59.7832 32.5 60.1936V63.2889H17.0238C16.6134 63.2889 16.2197 63.4519 15.9295 63.7421C15.6392 64.0324 15.4762 64.426 15.4762 64.8365C15.4762 65.2469 15.6392 65.6406 15.9295 65.9308C16.2197 66.221 16.6134 66.3841 17.0238 66.3841Z" fill="#5A859D"/>
<path d="M17.0238 36.2055H32.5V52.4555C32.5 52.866 32.6631 53.2596 32.9533 53.5498C33.2435 53.8401 33.6372 54.0031 34.0476 54.0031C34.4581 54.0031 34.8517 53.8401 35.142 53.5498C35.4322 53.2596 35.5952 52.866 35.5952 52.4555V36.2055H51.0714C51.4819 36.2055 51.8755 36.0424 52.1657 35.7522C52.456 35.462 52.619 35.0683 52.6191 34.6579V27.6936C52.6191 27.2832 52.456 26.8895 52.1658 26.5993C51.8755 26.309 51.4819 26.146 51.0714 26.146C50.661 26.146 50.2673 26.309 49.9771 26.5993C49.6869 26.8895 49.5238 27.2832 49.5238 27.6936V33.1103H17.0238C16.6134 33.1103 16.2197 33.2733 15.9295 33.5636C15.6392 33.8538 15.4762 34.2474 15.4762 34.6579C15.4762 35.0684 15.6392 35.462 15.9295 35.7522C16.2197 36.0425 16.6134 36.2055 17.0238 36.2055Z" fill="#B4EDFF"/>
<path d="M85.8928 65.6101H91.3095C91.72 65.6101 92.1136 65.447 92.4038 65.1568C92.6941 64.8666 92.8571 64.4729 92.8571 64.0625C92.8571 63.652 92.6941 63.2584 92.4038 62.9681C92.1136 62.6779 91.72 62.5149 91.3095 62.5149H87.4405V40.0744H106.012C106.422 40.0744 106.816 39.9113 107.106 39.6211C107.396 39.3308 107.559 38.9372 107.56 38.5268V21.503H112.976C113.387 21.503 113.78 21.3399 114.071 21.0497C114.361 20.7594 114.524 20.3658 114.524 19.9553C114.524 19.5449 114.361 19.1512 114.071 18.861C113.78 18.5708 113.387 18.4077 112.976 18.4077H90.5357C90.1252 18.4077 89.7316 18.5708 89.4414 18.861C89.1511 19.1512 88.9881 19.5449 88.9881 19.9553C88.9881 20.3658 89.1511 20.7594 89.4414 21.0497C89.7316 21.3399 90.1252 21.503 90.5357 21.503H104.464V36.9791H85.8928C85.4824 36.9792 85.0888 37.1422 84.7985 37.4325C84.5083 37.7227 84.3452 38.1163 84.3452 38.5268V64.0625C84.3452 64.4729 84.5083 64.8666 84.7985 65.1568C85.0888 65.447 85.4824 65.6101 85.8928 65.6101Z" fill="#5A859D"/>
<path d="M112.976 47.8125H93.6309C93.2205 47.8125 92.8268 47.9756 92.5366 48.2658C92.2464 48.556 92.0833 48.9497 92.0833 49.3601C92.0833 49.7706 92.2464 50.1642 92.5366 50.4544C92.8268 50.7447 93.2205 50.9077 93.6309 50.9077H112.976C113.387 50.9077 113.78 50.7447 114.071 50.4544C114.361 50.1642 114.524 49.7706 114.524 49.3601C114.524 48.9497 114.361 48.556 114.071 48.2658C113.78 47.9756 113.387 47.8125 112.976 47.8125Z" fill="#B4EDFF"/>
<path d="M58.8095 34.6575V50.9075H43.3333C42.9229 50.9075 42.5292 51.0705 42.239 51.3608C41.9488 51.651 41.7857 52.0446 41.7857 52.4551C41.7857 52.8656 41.9488 53.2592 42.239 53.5494C42.5292 53.8397 42.9229 54.0027 43.3333 54.0027H60.3571C60.7676 54.0027 61.1612 53.8396 61.4514 53.5494C61.7417 53.2592 61.9047 52.8655 61.9048 52.4551V36.2051H70.4167C70.8271 36.2051 71.2208 36.0421 71.511 35.7518C71.8012 35.4616 71.9643 35.0679 71.9643 34.6575C71.9643 34.247 71.8012 33.8534 71.511 33.5631C71.2208 33.2729 70.8271 33.1099 70.4167 33.1099H60.3571C59.9467 33.1099 59.5531 33.2729 59.2628 33.5632C58.9726 33.8534 58.8095 34.247 58.8095 34.6575Z" fill="#5A859D"/>
<path d="M112.976 58.646H103.69C103.28 58.646 102.886 58.8091 102.596 59.0993C102.306 59.3895 102.143 59.7832 102.143 60.1936V77.9912H36.369C35.9586 77.9912 35.5649 78.1543 35.2747 78.4445C34.9845 78.7348 34.8214 79.1284 34.8214 79.5389C34.8214 79.9493 34.9845 80.343 35.2747 80.6332C35.5649 80.9234 35.9586 81.0865 36.369 81.0865H71.9643V99.6579C71.9643 100.068 72.1273 100.462 72.4176 100.752C72.7078 101.042 73.1014 101.206 73.5119 101.206C73.9223 101.206 74.316 101.042 74.6062 100.752C74.8965 100.462 75.0595 100.068 75.0595 99.6579V81.0865H103.69C104.101 81.0865 104.495 80.9234 104.785 80.6332C105.075 80.3429 105.238 79.9493 105.238 79.5389V61.7412H111.429V65.3526C111.429 65.7631 111.592 66.1567 111.882 66.4469C112.172 66.7372 112.566 66.9002 112.976 66.9002C113.387 66.9002 113.78 66.7372 114.071 66.4469C114.361 66.1567 114.524 65.7631 114.524 65.3526V60.1936C114.524 59.7832 114.361 59.3895 114.07 59.0993C113.78 58.8091 113.387 58.646 112.976 58.646Z" fill="#5A859D"/>
<path d="M79.398 30.8225C79.398 30.4121 79.2349 30.0184 78.9447 29.7282C78.6544 29.438 78.2608 29.2749 77.8504 29.2749C77.4399 29.2749 77.0463 29.438 76.756 29.7282C76.4658 30.0184 76.3027 30.4121 76.3027 30.8225V31.579C76.3027 31.9894 76.4658 32.383 76.756 32.6733C77.0463 32.9635 77.4399 33.1266 77.8504 33.1266C78.2608 33.1266 78.6544 32.9635 78.9447 32.6733C79.2349 32.383 79.398 31.9894 79.398 31.579V30.8225Z" fill="#B4EDFF"/>
<path d="M79.398 41.4163C79.398 41.0058 79.2349 40.6122 78.9447 40.3219C78.6544 40.0317 78.2608 39.8687 77.8504 39.8687C77.4399 39.8687 77.0463 40.0317 76.756 40.3219C76.4658 40.6122 76.3027 41.0058 76.3027 41.4163V42.1727C76.3027 42.5832 76.4658 42.9768 76.756 43.267C77.0463 43.5573 77.4399 43.7203 77.8504 43.7203C78.2608 43.7203 78.6544 43.5573 78.9447 43.267C79.2349 42.9768 79.398 42.5832 79.398 42.1727V41.4163Z" fill="#B4EDFF"/>
<path d="M79.398 46.7136C79.398 46.3032 79.2349 45.9095 78.9447 45.6193C78.6544 45.3291 78.2608 45.166 77.8504 45.166C77.4399 45.166 77.0463 45.3291 76.756 45.6193C76.4658 45.9095 76.3027 46.3032 76.3027 46.7136V47.4701C76.3027 47.8805 76.4658 48.2742 76.756 48.5644C77.0463 48.8547 77.4399 49.0177 77.8504 49.0177C78.2608 49.0177 78.6544 48.8547 78.9447 48.5644C79.2349 48.2742 79.398 47.8805 79.398 47.4701V46.7136Z" fill="#5A859D"/>
<path d="M79.398 36.1189C79.398 35.7085 79.2349 35.3148 78.9447 35.0246C78.6544 34.7343 78.2608 34.5713 77.8504 34.5713C77.4399 34.5713 77.0463 34.7343 76.756 35.0246C76.4658 35.3148 76.3027 35.7085 76.3027 36.1189V36.8761C76.3027 37.2866 76.4658 37.6802 76.756 37.9704C77.0463 38.2607 77.4399 38.4237 77.8504 38.4237C78.2608 38.4237 78.6544 38.2607 78.9447 37.9704C79.2349 37.6802 79.398 37.2866 79.398 36.8761V36.1189Z" fill="#5A859D"/>
<path d="M79.398 25.5252C79.398 25.1147 79.2349 24.7211 78.9447 24.4308C78.6544 24.1406 78.2608 23.9775 77.8504 23.9775C77.4399 23.9775 77.0463 24.1406 76.756 24.4308C76.4658 24.7211 76.3027 25.1147 76.3027 25.5252V26.2816C76.3027 26.692 76.4658 27.0857 76.756 27.3759C77.0463 27.6662 77.4399 27.8292 77.8504 27.8292C78.2608 27.8292 78.6544 27.6662 78.9447 27.3759C79.2349 27.0857 79.398 26.692 79.398 26.2816V25.5252Z" fill="#5A859D"/>
<path d="M79.398 52.01C79.398 51.5996 79.2349 51.2059 78.9447 50.9157C78.6544 50.6255 78.2608 50.4624 77.8504 50.4624C77.4399 50.4624 77.0463 50.6255 76.756 50.9157C76.4658 51.2059 76.3027 51.5996 76.3027 52.01V52.7672C76.3027 53.1777 76.4658 53.5713 76.756 53.8615C77.0463 54.1518 77.4399 54.3148 77.8504 54.3148C78.2608 54.3148 78.6544 54.1518 78.9447 53.8615C79.2349 53.5713 79.398 53.1777 79.398 52.7672V52.01Z" fill="#B4EDFF"/>
<path d="M79.398 57.3074C79.398 56.8969 79.2349 56.5033 78.9447 56.2131C78.6544 55.9228 78.2608 55.7598 77.8504 55.7598C77.4399 55.7598 77.0463 55.9228 76.756 56.2131C76.4658 56.5033 76.3027 56.8969 76.3027 57.3074V58.0638C76.3027 58.4743 76.4658 58.8679 76.756 59.1581C77.0463 59.4484 77.4399 59.6114 77.8504 59.6114C78.2608 59.6114 78.6544 59.4484 78.9447 59.1581C79.2349 58.8679 79.398 58.4743 79.398 58.0638V57.3074Z" fill="#5A859D"/>
<path d="M79.398 62.6047C79.398 62.1943 79.2349 61.8006 78.9447 61.5104C78.6544 61.2202 78.2608 61.0571 77.8504 61.0571C77.4399 61.0571 77.0463 61.2202 76.756 61.5104C76.4658 61.8006 76.3027 62.1943 76.3027 62.6047V63.3612C76.3027 63.7716 76.4658 64.1653 76.756 64.4555C77.0463 64.7457 77.4399 64.9088 77.8504 64.9088C78.2608 64.9088 78.6544 64.7457 78.9447 64.4555C79.2349 64.1653 79.398 63.7716 79.398 63.3612V62.6047Z" fill="#B4EDFF"/>
<path d="M77.8503 66.3541C77.389 66.3037 76.9265 66.4384 76.5644 66.7286C76.2023 67.0188 75.9702 67.4409 75.9189 67.9021C75.8677 68.3633 76.0015 68.826 76.2911 69.1886C76.5807 69.5513 77.0023 69.7842 77.4634 69.8363H77.8503C78.2607 69.8362 78.6544 69.6732 78.9446 69.383C79.2348 69.0927 79.3979 68.6991 79.3979 68.2886V67.9017C79.3979 67.4913 79.2348 67.0977 78.9446 66.8074C78.6544 66.5172 78.2607 66.3541 77.8503 66.3541Z" fill="#5A859D"/>
<path d="M64.8347 70.7412C64.4243 70.7412 64.0306 70.9043 63.7404 71.1945C63.4502 71.4847 63.2871 71.8784 63.2871 72.2888C63.2871 72.6993 63.4502 73.0929 63.7404 73.3832C64.0306 73.6734 64.4243 73.8364 64.8347 73.8364H65.6267C66.0371 73.8364 66.4308 73.6734 66.721 73.3832C67.0112 73.0929 67.1743 72.6993 67.1743 72.2888C67.1743 71.8784 67.0112 71.4847 66.721 71.1945C66.4308 70.9043 66.0371 70.7412 65.6267 70.7412H64.8347Z" fill="#B4EDFF"/>
<path d="M32.3703 70.7412H31.5784C31.1679 70.7412 30.7743 70.9043 30.4841 71.1945C30.1938 71.4847 30.0308 71.8784 30.0308 72.2888C30.0308 72.6993 30.1938 73.0929 30.4841 73.3832C30.7743 73.6734 31.1679 73.8364 31.5784 73.8364H32.3703C32.7808 73.8364 33.1744 73.6734 33.4647 73.3832C33.7549 73.0929 33.9179 72.6993 33.9179 72.2888C33.9179 71.8784 33.7549 71.4847 33.4647 71.1945C33.1744 70.9043 32.7808 70.7412 32.3703 70.7412Z" fill="#B4EDFF"/>
<path d="M39.4609 72.2888C39.4609 71.8784 39.2978 71.4848 39.0076 71.1945C38.7174 70.9043 38.3237 70.7412 37.9133 70.7412H37.1213C36.7109 70.7412 36.3173 70.9043 36.027 71.1945C35.7368 71.4847 35.5737 71.8784 35.5737 72.2888C35.5737 72.6993 35.7368 73.0929 36.027 73.3832C36.3173 73.6734 36.7109 73.8364 37.1213 73.8364H37.9133C38.3237 73.8364 38.7174 73.6734 39.0076 73.3831C39.2978 73.0929 39.4609 72.6993 39.4609 72.2888Z" fill="#5A859D"/>
<path d="M48.2068 70.7412C47.7963 70.7412 47.4027 70.9043 47.1125 71.1945C46.8222 71.4847 46.6592 71.8784 46.6592 72.2888C46.6592 72.6993 46.8222 73.0929 47.1125 73.3832C47.4027 73.6734 47.7963 73.8364 48.2068 73.8364H48.998C49.4084 73.8364 49.8021 73.6734 50.0923 73.3832C50.3826 73.0929 50.5456 72.6993 50.5456 72.2888C50.5456 71.8784 50.3826 71.4847 50.0923 71.1945C49.8021 70.9043 49.4084 70.7412 48.998 70.7412H48.2068Z" fill="#5A859D"/>
<path d="M70.3777 70.7412C69.9672 70.7412 69.5736 70.9043 69.2834 71.1945C68.9931 71.4847 68.8301 71.8784 68.8301 72.2888C68.8301 72.6993 68.9931 73.0929 69.2834 73.3832C69.5736 73.6734 69.9672 73.8364 70.3777 73.8364H71.1696C71.5801 73.8364 71.9737 73.6734 72.264 73.3832C72.5542 73.0929 72.7173 72.6993 72.7173 72.2888C72.7173 71.8784 72.5542 71.4847 72.264 71.1945C71.9737 70.9043 71.5801 70.7412 71.1696 70.7412H70.3777Z" fill="#5A859D"/>
<path d="M59.2918 70.7412C58.8813 70.7412 58.4877 70.9043 58.1974 71.1945C57.9072 71.4847 57.7441 71.8784 57.7441 72.2888C57.7441 72.6993 57.9072 73.0929 58.1974 73.3832C58.4877 73.6734 58.8813 73.8364 59.2918 73.8364H60.0837C60.4942 73.8364 60.8878 73.6734 61.178 73.3832C61.4683 73.0929 61.6313 72.6993 61.6313 72.2888C61.6313 71.8784 61.4683 71.4847 61.178 71.1945C60.8878 70.9043 60.4942 70.7412 60.0837 70.7412H59.2918Z" fill="#5A859D"/>
<path d="M42.6638 70.7412C42.2534 70.7412 41.8597 70.9043 41.5695 71.1945C41.2793 71.4847 41.1162 71.8784 41.1162 72.2888C41.1162 72.6993 41.2793 73.0929 41.5695 73.3832C41.8597 73.6734 42.2534 73.8364 42.6638 73.8364H43.455C43.8655 73.8364 44.2591 73.6734 44.5494 73.3832C44.8396 73.0929 45.0026 72.6993 45.0026 72.2888C45.0026 71.8784 44.8396 71.4847 44.5494 71.1945C44.2591 70.9043 43.8655 70.7412 43.455 70.7412H42.6638Z" fill="#B4EDFF"/>
<path d="M74.373 72.2888C74.3731 72.6993 74.5361 73.0929 74.8264 73.3831C75.1166 73.6734 75.5102 73.8364 75.9207 73.8364H76.7126C77.1231 73.8364 77.5167 73.6734 77.8069 73.3832C78.0972 73.0929 78.2602 72.6993 78.2602 72.2888C78.2602 71.8784 78.0972 71.4847 77.8069 71.1945C77.5167 70.9043 77.1231 70.7412 76.7126 70.7412H75.9207C75.5102 70.7412 75.1166 70.9043 74.8264 71.1945C74.5361 71.4848 74.3731 71.8784 74.373 72.2888Z" fill="#B4EDFF"/>
<path d="M53.7488 70.7412C53.3383 70.7412 52.9447 70.9043 52.6545 71.1945C52.3642 71.4847 52.2012 71.8784 52.2012 72.2888C52.2012 72.6993 52.3642 73.0929 52.6545 73.3832C52.9447 73.6734 53.3383 73.8364 53.7488 73.8364H54.5407C54.9512 73.8364 55.3448 73.6734 55.6351 73.3832C55.9253 73.0929 56.0884 72.6993 56.0884 72.2888C56.0884 71.8784 55.9253 71.4847 55.6351 71.1945C55.3448 70.9043 54.9512 70.7412 54.5407 70.7412H53.7488Z" fill="#B4EDFF"/>
<path d="M26.8276 70.7412H26.4407C26.0302 70.7412 25.6366 70.9043 25.3464 71.1945C25.0561 71.4848 24.8931 71.8784 24.8931 72.2888V72.6757C24.893 73.0053 24.9982 73.3263 25.1932 73.5919C25.3883 73.8575 25.6631 74.0539 25.9775 74.1525C26.292 74.2511 26.6297 74.2467 26.9415 74.14C27.2533 74.0332 27.5229 73.8297 27.711 73.5591C27.9816 73.371 28.1851 73.1015 28.2918 72.7897C28.3985 72.4779 28.4029 72.1401 28.3044 71.8257C28.2058 71.5112 28.0094 71.2364 27.7437 71.0414C27.4781 70.8463 27.1571 70.7411 26.8276 70.7412Z" fill="#5A859D"/>
<path d="M22.4407 75.1351C22.8511 75.1351 23.2448 74.9721 23.535 74.6818C23.8252 74.3916 23.9883 73.998 23.9883 73.5875V72.8855C23.9883 72.4751 23.8253 72.0814 23.535 71.7912C23.2448 71.5009 22.8511 71.3379 22.4407 71.3379C22.0302 71.3379 21.6366 71.5009 21.3464 71.7912C21.0561 72.0814 20.8931 72.4751 20.8931 72.8855V73.5875C20.8931 73.998 21.0561 74.3916 21.3464 74.6818C21.6366 74.9721 22.0302 75.1351 22.4407 75.1351Z" fill="#B4EDFF"/>
<path d="M20.8931 78.4984C20.8931 78.9088 21.0561 79.3025 21.3464 79.5927C21.6366 79.883 22.0302 80.046 22.4407 80.046C22.8511 80.046 23.2448 79.883 23.535 79.5927C23.8253 79.3025 23.9883 78.9088 23.9883 78.4984V77.7971C23.9883 77.3867 23.8253 76.993 23.535 76.7028C23.2448 76.4126 22.8511 76.2495 22.4407 76.2495C22.0302 76.2495 21.6366 76.4126 21.3464 76.7028C21.0561 76.993 20.8931 77.3867 20.8931 77.7971V78.4984Z" fill="#5A859D"/>
<path d="M20.8931 83.0952C20.8931 83.5056 21.0561 83.8992 21.3464 84.1895C21.6366 84.4797 22.0302 84.6428 22.4407 84.6428H22.8276C23.1571 84.6429 23.4781 84.5377 23.7437 84.3426C24.0094 84.1476 24.2058 83.8728 24.3044 83.5583C24.4029 83.2439 24.3985 82.9061 24.2918 82.5943C24.1851 82.2825 23.9816 82.013 23.711 81.8249C23.5229 81.5543 23.2533 81.3508 22.9415 81.244C22.6297 81.1373 22.292 81.1329 21.9775 81.2315C21.6631 81.3301 21.3883 81.5265 21.1932 81.7921C20.9982 82.0577 20.893 82.3787 20.8931 82.7083V83.0952Z" fill="#B4EDFF"/>
<path d="M40.7585 88.6431C41.169 88.6431 41.5626 88.48 41.8528 88.1898C42.1431 87.8996 42.3061 87.5059 42.3061 87.0955C42.3061 86.685 42.1431 86.2914 41.8528 86.0011C41.5626 85.7109 41.169 85.5479 40.7585 85.5479H39.9749C39.5644 85.5479 39.1708 85.7109 38.8805 86.0011C38.5903 86.2914 38.4272 86.685 38.4272 87.0955C38.4272 87.5059 38.5903 87.8996 38.8805 88.1898C39.1708 88.48 39.5644 88.6431 39.9749 88.6431H40.7585Z" fill="#B4EDFF"/>
<path d="M51.7243 88.6431C52.1348 88.6431 52.5284 88.48 52.8187 88.1898C53.1089 87.8996 53.2719 87.5059 53.2719 87.0955C53.2719 86.685 53.1089 86.2914 52.8187 86.0011C52.5284 85.7109 52.1348 85.5479 51.7243 85.5479H50.9407C50.5302 85.5479 50.1366 85.7109 49.8464 86.0011C49.5561 86.2914 49.3931 86.685 49.3931 87.0955C49.3931 87.5059 49.5561 87.8996 49.8464 88.1898C50.1366 88.48 50.5302 88.6431 50.9407 88.6431H51.7243Z" fill="#B4EDFF"/>
<path d="M57.2065 88.6431C57.6169 88.6431 58.0106 88.48 58.3008 88.1898C58.591 87.8996 58.7541 87.5059 58.7541 87.0955C58.7541 86.685 58.591 86.2914 58.3008 86.0011C58.0106 85.7109 57.6169 85.5479 57.2065 85.5479H56.4236C56.0131 85.5479 55.6195 85.7109 55.3293 86.0011C55.039 86.2914 54.876 86.685 54.876 87.0955C54.876 87.5059 55.039 87.8996 55.3293 88.1898C55.6195 88.48 56.0131 88.6431 56.4236 88.6431H57.2065Z" fill="#5A859D"/>
<path d="M46.2412 88.6431C46.6516 88.6431 47.0453 88.48 47.3355 88.1898C47.6257 87.8996 47.7888 87.5059 47.7888 87.0955C47.7888 86.685 47.6257 86.2914 47.3355 86.0011C47.0453 85.7109 46.6516 85.5479 46.2412 85.5479H45.4583C45.0478 85.5479 44.6542 85.7109 44.3639 86.0011C44.0737 86.2914 43.9106 86.685 43.9106 87.0955C43.9106 87.5059 44.0737 87.8996 44.3639 88.1898C44.6542 88.48 45.0478 88.6431 45.4583 88.6431H46.2412Z" fill="#5A859D"/>
<path d="M24.31 85.5479H23.5271C23.1167 85.5479 22.723 85.7109 22.4328 86.0011C22.1425 86.2914 21.9795 86.685 21.9795 87.0955C21.9795 87.5059 22.1425 87.8996 22.4328 88.1898C22.723 88.48 23.1167 88.6431 23.5271 88.6431H24.31C24.7205 88.6431 25.1141 88.48 25.4044 88.1898C25.6946 87.8996 25.8576 87.5059 25.8576 87.0955C25.8576 86.685 25.6946 86.2914 25.4044 86.0011C25.1141 85.7109 24.7205 85.5479 24.31 85.5479Z" fill="#5A859D"/>
<path d="M27.4619 87.0955C27.4619 87.5059 27.625 87.8995 27.9152 88.1898C28.2055 88.48 28.5991 88.6431 29.0095 88.6431H29.7932C30.2036 88.6431 30.5973 88.48 30.8875 88.1898C31.1777 87.8996 31.3408 87.5059 31.3408 87.0955C31.3408 86.685 31.1777 86.2914 30.8875 86.0011C30.5973 85.7109 30.2036 85.5479 29.7932 85.5479H29.0095C28.5991 85.5479 28.2055 85.7109 27.9152 86.0012C27.625 86.2914 27.4619 86.685 27.4619 87.0955Z" fill="#B4EDFF"/>
<path d="M35.2753 88.6431C35.6858 88.6431 36.0794 88.48 36.3697 88.1898C36.6599 87.8996 36.8229 87.5059 36.8229 87.0955C36.8229 86.685 36.6599 86.2914 36.3697 86.0011C36.0794 85.7109 35.6858 85.5479 35.2753 85.5479H34.4924C34.082 85.5479 33.6883 85.7109 33.3981 86.0011C33.1079 86.2914 32.9448 86.685 32.9448 87.0955C32.9448 87.5059 33.1079 87.8996 33.3981 88.1898C33.6883 88.48 34.082 88.6431 34.4924 88.6431H35.2753Z" fill="#5A859D"/>
<path d="M62.2929 85.5479H61.906C61.578 85.5843 61.267 85.7126 61.0088 85.9181C60.7506 86.1235 60.5556 86.3977 60.4464 86.7091C60.3372 87.0204 60.3181 87.3563 60.3914 87.6781C60.4647 87.9998 60.6274 88.2943 60.8607 88.5276C61.0941 88.761 61.3886 88.9236 61.7103 88.9969C62.032 89.0702 62.3679 89.0512 62.6793 88.942C62.9907 88.8327 63.2649 88.6378 63.4703 88.3796C63.6758 88.1213 63.8041 87.8103 63.8405 87.4824V87.0955C63.8405 86.685 63.6774 86.2914 63.3872 86.0012C63.097 85.7109 62.7033 85.5479 62.2929 85.5479Z" fill="#B4EDFF"/>
<path d="M66.2927 89.8917C66.7032 89.8917 67.0968 89.7287 67.387 89.4384C67.6773 89.1482 67.8403 88.7546 67.8404 88.3441V87.6497C67.8404 87.2392 67.6773 86.8456 67.3871 86.5553C67.0968 86.2651 66.7032 86.1021 66.2927 86.1021C65.8823 86.1021 65.4886 86.2651 65.1984 86.5553C64.9082 86.8456 64.7451 87.2392 64.7451 87.6497V88.3441C64.7451 88.7546 64.9082 89.1482 65.1984 89.4384C65.4887 89.7287 65.8823 89.8917 66.2927 89.8917Z" fill="#5A859D"/>
<path d="M64.7451 98.0685C64.7451 98.479 64.9082 98.8726 65.1984 99.1629C65.4886 99.4531 65.8823 99.6161 66.2927 99.6161C66.7032 99.6161 67.0968 99.4531 67.3871 99.1629C67.6773 98.8726 67.8404 98.479 67.8404 98.0685V97.3733C67.8404 96.9628 67.6773 96.5692 67.3871 96.279C67.0968 95.9887 66.7032 95.8257 66.2927 95.8257C65.8823 95.8257 65.4886 95.9887 65.1984 96.279C64.9082 96.5692 64.7451 96.9628 64.7451 97.3733V98.0685Z" fill="#5A859D"/>
<path d="M64.7451 93.2064C64.7451 93.6169 64.9082 94.0105 65.1984 94.3008C65.4886 94.591 65.8823 94.754 66.2927 94.754C66.7032 94.754 67.0968 94.591 67.3871 94.3008C67.6773 94.0105 67.8404 93.6169 67.8404 93.2064V92.512C67.8404 92.1015 67.6773 91.7079 67.3871 91.4176C67.0968 91.1274 66.7032 90.9644 66.2927 90.9644C65.8823 90.9644 65.4886 91.1274 65.1984 91.4176C64.9082 91.7079 64.7451 92.1015 64.7451 92.512V93.2064Z" fill="#B4EDFF"/>
<path d="M64.7451 102.622C64.7451 103.032 64.9082 103.426 65.1984 103.716C65.4887 104.007 65.8823 104.17 66.2927 104.17H66.6796C67.0076 104.133 67.3186 104.005 67.5768 103.799C67.8351 103.594 68.03 103.32 68.1392 103.008C68.2485 102.697 68.2675 102.361 68.1942 102.039C68.1209 101.718 67.9582 101.423 67.7249 101.19C67.4916 100.957 67.1971 100.794 66.8753 100.721C66.5536 100.647 66.2177 100.666 65.9063 100.776C65.595 100.885 65.3208 101.08 65.1153 101.338C64.9099 101.596 64.7816 101.907 64.7451 102.235V102.622Z" fill="#B4EDFF"/>
<path d="M72.4181 108.169C72.8286 108.169 73.2222 108.006 73.5125 107.716C73.8027 107.426 73.9658 107.032 73.9658 106.622C73.9658 106.211 73.8027 105.818 73.5125 105.528C73.2222 105.237 72.8286 105.074 72.4181 105.074H71.7229C71.3125 105.074 70.9188 105.237 70.6286 105.528C70.3383 105.818 70.1753 106.211 70.1753 106.622C70.1753 107.032 70.3383 107.426 70.6286 107.716C70.9188 108.006 71.3125 108.169 71.7229 108.169H72.4181Z" fill="#B4EDFF"/>
<path d="M67.5493 108.169C67.9597 108.169 68.3534 108.006 68.6436 107.716C68.9338 107.426 69.0969 107.032 69.0969 106.622C69.0969 106.211 68.9338 105.818 68.6436 105.528C68.3534 105.237 67.9597 105.074 67.5493 105.074H66.8533C66.4428 105.074 66.0492 105.237 65.7589 105.528C65.4687 105.818 65.3057 106.211 65.3057 106.622C65.3057 107.032 65.4687 107.426 65.7589 107.716C66.0492 108.006 66.4428 108.169 66.8533 108.169H67.5493Z" fill="#5A859D"/>
<path d="M76.592 108.17H76.9789C77.3894 108.17 77.783 108.007 78.0732 107.716C78.3635 107.426 78.5265 107.032 78.5266 106.622V106.235C78.4901 105.907 78.3618 105.596 78.1563 105.338C77.9509 105.08 77.6767 104.885 77.3653 104.776C77.054 104.666 76.7181 104.647 76.3963 104.721C76.0746 104.794 75.7801 104.957 75.5468 105.19C75.3134 105.423 75.1508 105.718 75.0775 106.039C75.0042 106.361 75.0232 106.697 75.1324 107.008C75.2417 107.32 75.4366 107.594 75.6948 107.799C75.9531 108.005 76.2641 108.133 76.592 108.17Z" fill="#5A859D"/>
<path d="M79.4312 101.126C79.4312 101.536 79.5942 101.93 79.8844 102.22C80.1747 102.51 80.5683 102.673 80.9788 102.673C81.3892 102.673 81.7829 102.51 82.0731 102.22C82.3633 101.93 82.5264 101.536 82.5264 101.126V100.425C82.5264 100.015 82.3633 99.621 82.0731 99.3307C81.7829 99.0405 81.3892 98.8774 80.9788 98.8774C80.5683 98.8774 80.1747 99.0405 79.8844 99.3307C79.5942 99.621 79.4312 100.015 79.4312 100.425V101.126Z" fill="#5A859D"/>
<path d="M79.4312 106.03C79.4312 106.441 79.5942 106.834 79.8844 107.125C80.1747 107.415 80.5683 107.578 80.9788 107.578C81.3892 107.578 81.7829 107.415 82.0731 107.125C82.3633 106.834 82.5264 106.441 82.5264 106.03V105.33C82.5264 104.919 82.3633 104.526 82.0731 104.236C81.7829 103.945 81.3892 103.782 80.9788 103.782C80.5683 103.782 80.1747 103.945 79.8844 104.236C79.5942 104.526 79.4312 104.919 79.4312 105.33V106.03Z" fill="#B4EDFF"/>
<path d="M79.4312 96.2206C79.4312 96.631 79.5942 97.0247 79.8844 97.3149C80.1747 97.6051 80.5683 97.7682 80.9788 97.7682C81.3892 97.7682 81.7829 97.6051 82.0731 97.3149C82.3633 97.0247 82.5264 96.631 82.5264 96.2206V95.5193C82.5264 95.1088 82.3633 94.7152 82.0731 94.425C81.7829 94.1347 81.3892 93.9717 80.9788 93.9717C80.5683 93.9717 80.1747 94.1347 79.8844 94.425C79.5942 94.7152 79.4312 95.1088 79.4312 95.5193V96.2206Z" fill="#B4EDFF"/>
<path d="M80.9788 92.863C81.4401 92.9134 81.9025 92.7787 82.2646 92.4885C82.6267 92.1983 82.8589 91.7762 82.9101 91.315C82.9614 90.8538 82.8275 90.3911 82.538 90.0285C82.2484 89.6659 81.8268 89.4329 81.3657 89.3809H80.9788C80.5683 89.3809 80.1747 89.5439 79.8845 89.8342C79.5942 90.1244 79.4312 90.518 79.4312 90.9285V91.3154C79.4312 91.7258 79.5942 92.1195 79.8845 92.4097C80.1747 92.6999 80.5683 92.863 80.9788 92.863Z" fill="#5A859D"/>
<path d="M82.697 88.4761C83.1075 88.4761 83.5011 88.313 83.7914 88.0228C84.0816 87.7326 84.2447 87.3389 84.2447 86.9285C84.2447 86.518 84.0816 86.1244 83.7914 85.8341C83.5011 85.5439 83.1075 85.3809 82.697 85.3809H81.9353C81.5249 85.3809 81.1312 85.5439 80.841 85.8341C80.5508 86.1244 80.3877 86.518 80.3877 86.9285C80.3877 87.3389 80.5508 87.7326 80.841 88.0228C81.1312 88.313 81.5249 88.4761 81.9353 88.4761H82.697Z" fill="#B4EDFF"/>
<path d="M98.6892 88.4761C99.0997 88.4761 99.4933 88.313 99.7836 88.0228C100.074 87.7326 100.237 87.3389 100.237 86.9285C100.237 86.518 100.074 86.1244 99.7836 85.8341C99.4933 85.5439 99.0997 85.3809 98.6892 85.3809H97.9275C97.517 85.3809 97.1234 85.5439 96.8332 85.8341C96.5429 86.1244 96.3799 86.518 96.3799 86.9285C96.3799 87.3389 96.5429 87.7326 96.8332 88.0228C97.1234 88.313 97.517 88.4761 97.9275 88.4761H98.6892Z" fill="#5A859D"/>
<path d="M93.3587 88.4761C93.7691 88.4761 94.1628 88.313 94.453 88.0228C94.7432 87.7326 94.9063 87.3389 94.9063 86.9285C94.9063 86.518 94.7432 86.1244 94.453 85.8341C94.1628 85.5439 93.7691 85.3809 93.3587 85.3809H92.5969C92.1865 85.3809 91.7928 85.5439 91.5026 85.8341C91.2124 86.1244 91.0493 86.518 91.0493 86.9285C91.0493 87.3389 91.2124 87.7326 91.5026 88.0228C91.7928 88.313 92.1865 88.4761 92.5969 88.4761H93.3587Z" fill="#B4EDFF"/>
<path d="M88.0276 88.4761C88.438 88.4761 88.8317 88.313 89.1219 88.0228C89.4122 87.7326 89.5752 87.3389 89.5752 86.9285C89.5752 86.518 89.4122 86.1244 89.1219 85.8341C88.8317 85.5439 88.438 85.3809 88.0276 85.3809H87.2659C86.8554 85.3809 86.4618 85.5439 86.1715 85.8341C85.8813 86.1244 85.7183 86.518 85.7183 86.9285C85.7183 87.3389 85.8813 87.7326 86.1715 88.0228C86.4618 88.313 86.8554 88.4761 87.2659 88.4761H88.0276Z" fill="#5A859D"/>
<path d="M104.02 88.4761C104.431 88.4761 104.824 88.313 105.115 88.0228C105.405 87.7326 105.568 87.3389 105.568 86.9285C105.568 86.518 105.405 86.1244 105.115 85.8341C104.824 85.5439 104.431 85.3809 104.02 85.3809H103.259C102.848 85.3809 102.454 85.5439 102.164 85.8341C101.874 86.1244 101.711 86.518 101.711 86.9285C101.711 87.3389 101.874 87.7326 102.164 88.0228C102.454 88.313 102.848 88.4761 103.259 88.4761H104.02Z" fill="#B4EDFF"/>
<path d="M108.976 85.3809H108.589C108.179 85.3809 107.785 85.5439 107.495 85.8341C107.205 86.1244 107.042 86.518 107.042 86.9285C107.042 87.3389 107.205 87.7326 107.495 88.0228C107.785 88.313 108.179 88.4761 108.589 88.4761H108.976C109.386 88.4761 109.78 88.313 110.07 88.0228C110.361 87.7326 110.524 87.3389 110.524 86.9285C110.524 86.518 110.361 86.1244 110.07 85.8341C109.78 85.5439 109.386 85.3809 108.976 85.3809Z" fill="#5A859D"/>
<path d="M74.0613 23.5302C74.2431 23.6212 74.441 23.6755 74.6438 23.6899C74.8465 23.7044 75.0502 23.6787 75.243 23.6144C75.4359 23.5502 75.6142 23.4485 75.7677 23.3153C75.9212 23.182 76.047 23.0199 76.1379 22.838L76.6072 21.8991C76.7495 22.0952 76.9362 22.2548 77.1519 22.3649C77.3677 22.475 77.6065 22.5325 77.8487 22.5327C78.0909 22.5329 78.3298 22.4759 78.5458 22.3661C78.7617 22.2564 78.9487 22.0972 79.0914 21.9014L79.5595 22.838C79.7431 23.2052 80.065 23.4844 80.4545 23.6142C80.8439 23.744 81.2689 23.7138 81.6361 23.5302C82.0033 23.3466 82.2825 23.0247 82.4123 22.6353C82.5421 22.2458 82.5119 21.8208 82.3283 21.4536L79.2331 15.2631C79.1045 15.0061 78.9069 14.7899 78.6624 14.6388C78.4178 14.4877 78.1361 14.4077 77.8487 14.4077C77.5613 14.4077 77.2795 14.4877 77.035 14.6388C76.7905 14.7899 76.5929 15.0061 76.4643 15.2631L73.369 21.4536C73.2781 21.6354 73.2239 21.8333 73.2095 22.0361C73.195 22.2389 73.2207 22.4425 73.285 22.6353C73.3493 22.8281 73.4509 23.0064 73.5841 23.16C73.7173 23.3135 73.8794 23.4393 74.0613 23.5302Z" fill="#B4EDFF"/>
<path d="M1.54762 117.455C2.40235 117.455 3.09524 116.762 3.09524 115.907C3.09524 115.053 2.40235 114.36 1.54762 114.36C0.692893 114.36 0 115.053 0 115.907C0 116.762 0.692893 117.455 1.54762 117.455Z" fill="#5A859D"/>
<path d="M8.51193 114.36H6.1905C5.78005 114.36 5.38641 114.523 5.09617 114.813C4.80594 115.103 4.64288 115.497 4.64288 115.907C4.64288 116.318 4.80594 116.712 5.09617 117.002C5.38641 117.292 5.78005 117.455 6.1905 117.455H8.51193C8.92238 117.455 9.31603 117.292 9.60626 117.002C9.8965 116.712 10.0595 116.318 10.0595 115.907C10.0595 115.497 9.8965 115.103 9.60626 114.813C9.31603 114.523 8.92238 114.36 8.51193 114.36Z" fill="#5A859D"/>
<path d="M93.4285 120.551H86.9999C86.6108 120.582 86.2478 120.759 85.983 121.045C85.7183 121.332 85.5713 121.708 85.5713 122.098C85.5713 122.489 85.7183 122.865 85.983 123.151C86.2478 123.438 86.6108 123.615 86.9999 123.646H93.4285C93.8175 123.615 94.1806 123.438 94.4453 123.151C94.71 122.865 94.8571 122.489 94.8571 122.098C94.8571 121.708 94.71 121.332 94.4453 121.045C94.1806 120.759 93.8175 120.582 93.4285 120.551Z" fill="#B4EDFF"/>
<path d="M43.0002 120.551H36.5716C36.1826 120.582 35.8195 120.759 35.5548 121.045C35.2901 121.332 35.1431 121.708 35.1431 122.098C35.1431 122.489 35.2901 122.865 35.5548 123.151C35.8195 123.438 36.1826 123.615 36.5716 123.646H43.0002C43.3893 123.615 43.7523 123.438 44.0171 123.151C44.2818 122.865 44.4288 122.489 44.4288 122.098C44.4288 121.708 44.2818 121.332 44.0171 121.045C43.7523 120.759 43.3893 120.582 43.0002 120.551Z" fill="#B4EDFF"/>
<path d="M80.4762 120.551H49.5238C49.1134 120.551 48.7197 120.714 48.4295 121.004C48.1392 121.294 47.9762 121.688 47.9762 122.098C47.9762 122.509 48.1392 122.902 48.4295 123.193C48.7197 123.483 49.1134 123.646 49.5238 123.646H61.8583V125.194H55.7143C55.3038 125.194 54.9102 125.357 54.62 125.647C54.3297 125.937 54.1667 126.331 54.1667 126.741C54.1667 127.152 54.3297 127.545 54.62 127.836C54.9102 128.126 55.3038 128.289 55.7143 128.289H75.0595C75.47 128.289 75.8636 128.126 76.1539 127.836C76.4441 127.545 76.6071 127.152 76.6071 126.741C76.6071 126.331 76.4441 125.937 76.1539 125.647C75.8636 125.357 75.47 125.194 75.0595 125.194H68.1417V123.646H80.4762C80.8867 123.646 81.2803 123.483 81.5705 123.193C81.8608 122.902 82.0238 122.509 82.0238 122.098C82.0238 121.688 81.8608 121.294 81.5705 121.004C81.2803 120.714 80.8867 120.551 80.4762 120.551Z" fill="#B4EDFF"/>
<path d="M1.54762 117.455C2.40235 117.455 3.09524 116.762 3.09524 115.907C3.09524 115.053 2.40235 114.36 1.54762 114.36C0.692893 114.36 0 115.053 0 115.907C0 116.762 0.692893 117.455 1.54762 117.455Z" fill="#5A859D"/>
<path d="M8.51193 114.36H6.1905C5.78005 114.36 5.38641 114.523 5.09617 114.813C4.80594 115.103 4.64288 115.497 4.64288 115.907C4.64288 116.318 4.80594 116.712 5.09617 117.002C5.38641 117.292 5.78005 117.455 6.1905 117.455H8.51193C8.92238 117.455 9.31603 117.292 9.60626 117.002C9.8965 116.712 10.0595 116.318 10.0595 115.907C10.0595 115.497 9.8965 115.103 9.60626 114.813C9.31603 114.523 8.92238 114.36 8.51193 114.36Z" fill="#5A859D"/>
<path d="M103.428 120.551H96.9999C96.6108 120.582 96.2478 120.759 95.983 121.045C95.7183 121.332 95.5713 121.708 95.5713 122.098C95.5713 122.489 95.7183 122.865 95.983 123.151C96.2478 123.438 96.6108 123.615 96.9999 123.646H103.428C103.818 123.615 104.181 123.438 104.445 123.151C104.71 122.865 104.857 122.489 104.857 122.098C104.857 121.708 104.71 121.332 104.445 121.045C104.181 120.759 103.818 120.582 103.428 120.551Z" fill="#B4EDFF"/>
<path d="M33.0002 120.551H26.5716C26.1826 120.582 25.8195 120.759 25.5548 121.045C25.2901 121.332 25.1431 121.708 25.1431 122.098C25.1431 122.489 25.2901 122.865 25.5548 123.151C25.8195 123.438 26.1826 123.615 26.5716 123.646H33.0002C33.3893 123.615 33.7523 123.438 34.0171 123.151C34.2818 122.865 34.4288 122.489 34.4288 122.098C34.4288 121.708 34.2818 121.332 34.0171 121.045C33.7523 120.759 33.3893 120.582 33.0002 120.551Z" fill="#B4EDFF"/>
<path d="M80.4762 120.551H49.5238C49.1134 120.551 48.7197 120.714 48.4295 121.004C48.1392 121.294 47.9762 121.688 47.9762 122.098C47.9762 122.509 48.1392 122.902 48.4295 123.193C48.7197 123.483 49.1134 123.646 49.5238 123.646H61.8583V125.194H55.7143C55.3038 125.194 54.9102 125.357 54.62 125.647C54.3297 125.937 54.1667 126.331 54.1667 126.741C54.1667 127.152 54.3297 127.545 54.62 127.836C54.9102 128.126 55.3038 128.289 55.7143 128.289H75.0595C75.47 128.289 75.8636 128.126 76.1539 127.836C76.4441 127.545 76.6071 127.152 76.6071 126.741C76.6071 126.331 76.4441 125.937 76.1539 125.647C75.8636 125.357 75.47 125.194 75.0595 125.194H68.1417V123.646H80.4762C80.8867 123.646 81.2803 123.483 81.5705 123.193C81.8608 122.902 82.0238 122.509 82.0238 122.098C82.0238 121.688 81.8608 121.294 81.5705 121.004C81.2803 120.714 80.8867 120.551 80.4762 120.551Z" fill="#B4EDFF"/>
<path d="M123.81 114.36H121.488C121.078 114.36 120.684 114.523 120.394 114.813C120.104 115.103 119.94 115.497 119.94 115.907C119.94 116.318 120.104 116.712 120.394 117.002C120.684 117.292 121.078 117.455 121.488 117.455H123.81C124.22 117.455 124.614 117.292 124.904 117.002C125.194 116.712 125.357 116.318 125.357 115.907C125.357 115.497 125.194 115.103 124.904 114.813C124.614 114.523 124.22 114.36 123.81 114.36Z" fill="#5A859D"/>
<path d="M128.452 117.455C129.307 117.455 130 116.762 130 115.907C130 115.053 129.307 114.36 128.452 114.36C127.598 114.36 126.905 115.053 126.905 115.907C126.905 116.762 127.598 117.455 128.452 117.455Z" fill="#5A859D"/>
<path d="M116.63 114.36H89.7619V95.7889H112.976C113.387 95.7889 113.78 95.6258 114.071 95.3356C114.361 95.0453 114.524 94.6517 114.524 94.2412C114.524 93.8308 114.361 93.4371 114.071 93.1469C113.78 92.8567 113.387 92.6936 112.976 92.6936H88.2143C87.8038 92.6936 87.4102 92.8567 87.12 93.1469C86.8297 93.4372 86.6667 93.8308 86.6667 94.2412V114.36H35.5952V105.075H58.8095C59.22 105.075 59.6136 104.912 59.9039 104.621C60.1941 104.331 60.3571 103.937 60.3571 103.527C60.3571 103.116 60.1941 102.723 59.9039 102.433C59.6136 102.142 59.22 101.979 58.8095 101.979H35.5952V92.6936C35.5952 92.2832 35.4322 91.8895 35.1419 91.5993C34.8517 91.3091 34.4581 91.146 34.0476 91.146C33.6372 91.146 33.2435 91.3091 32.9533 91.5993C32.663 91.8895 32.5 92.2832 32.5 92.6936V114.36H13.3704C13.1502 114.332 12.9265 114.35 12.714 114.415C12.5016 114.479 12.3054 114.588 12.1385 114.735C11.9717 114.881 11.838 115.062 11.7464 115.264C11.6548 115.466 11.6074 115.686 11.6074 115.908C11.6074 116.13 11.6548 116.349 11.7464 116.552C11.838 116.754 11.9717 116.934 12.1385 117.081C12.3054 117.227 12.5016 117.337 12.714 117.401C12.9265 117.466 13.1502 117.484 13.3704 117.456H116.63C116.85 117.484 117.074 117.466 117.286 117.401C117.498 117.337 117.695 117.227 117.861 117.081C118.028 116.934 118.162 116.754 118.254 116.552C118.345 116.349 118.393 116.13 118.393 115.908C118.393 115.686 118.345 115.466 118.254 115.264C118.162 115.062 118.028 114.881 117.861 114.735C117.695 114.588 117.498 114.479 117.286 114.415C117.074 114.35 116.85 114.332 116.63 114.36Z" fill="#5A859D"/>
<path d="M112.8 3.80057C113.26 3.80057 113.708 3.66442 114.09 3.40934C114.472 3.15426 114.77 2.7917 114.945 2.36752C115.121 1.94333 115.167 1.47657 115.077 1.02626C114.988 0.575943 114.767 0.162304 114.442 -0.162353C114.117 -0.487011 113.704 -0.708106 113.253 -0.797679C112.803 -0.887251 112.336 -0.841279 111.912 -0.665576C111.488 -0.489872 111.125 -0.192329 110.87 0.189428C110.615 0.571185 110.479 1.02001 110.479 1.47914C110.48 2.09461 110.725 2.68466 111.16 3.11986C111.595 3.55506 112.185 3.79987 112.8 3.80057ZM112.8 0.31843C113.03 0.31843 113.254 0.386505 113.445 0.514046C113.636 0.641587 113.785 0.822866 113.873 1.03496C113.961 1.24705 113.984 1.48043 113.939 1.70559C113.894 1.93075 113.784 2.13756 113.621 2.29989C113.459 2.46222 113.252 2.57277 113.027 2.61756C112.802 2.66234 112.568 2.63936 112.356 2.5515C112.144 2.46365 111.963 2.31488 111.835 2.124C111.708 1.93312 111.64 1.70871 111.64 1.47914C111.64 1.1714 111.762 0.876341 111.98 0.658731C112.198 0.44112 112.493 0.318734 112.8 0.31843Z" fill="#5A859D"/>
<path d="M66.3216 1.86133C66.0155 1.86133 65.7163 1.95209 65.4618 2.12215C65.2073 2.2922 65.0089 2.53391 64.8918 2.8167C64.7747 3.09949 64.744 3.41066 64.8037 3.71087C64.8634 4.01108 65.0108 4.28684 65.2273 4.50328C65.4437 4.71972 65.7195 4.86711 66.0197 4.92683C66.3199 4.98654 66.6311 4.9559 66.9139 4.83876C67.1966 4.72162 67.4384 4.52326 67.6084 4.26876C67.7785 4.01425 67.8692 3.71504 67.8692 3.40895C67.8688 2.99864 67.7056 2.60527 67.4154 2.31513C67.1253 2.025 66.7319 1.8618 66.3216 1.86133ZM66.3216 4.18276C66.1686 4.18276 66.019 4.13737 65.8917 4.05235C65.7644 3.96732 65.6653 3.84647 65.6067 3.70507C65.5481 3.56368 65.5328 3.40809 65.5627 3.25798C65.5925 3.10788 65.6662 2.97 65.7744 2.86178C65.8827 2.75356 66.0205 2.67986 66.1706 2.65001C66.3207 2.62015 66.4763 2.63547 66.6177 2.69404C66.7591 2.75261 66.88 2.85179 66.965 2.97904C67.05 3.10629 67.0954 3.2559 67.0954 3.40895C67.0952 3.61411 67.0136 3.81081 66.8685 3.95589C66.7235 4.10096 66.5268 4.18255 66.3216 4.18276Z" fill="#5A859D"/>
<path d="M6.40706 4.15771C6.10097 4.15771 5.80175 4.24848 5.54724 4.41854C5.29274 4.58859 5.09438 4.8303 4.97724 5.11309C4.86011 5.39588 4.82946 5.70705 4.88917 6.00726C4.94889 6.30747 5.09629 6.58323 5.31272 6.79967C5.52916 7.0161 5.80492 7.1635 6.10513 7.22322C6.40534 7.28293 6.71651 7.25228 6.9993 7.13515C7.28209 7.01801 7.5238 6.81965 7.69385 6.56515C7.86391 6.31064 7.95467 6.01142 7.95467 5.70533C7.95421 5.29502 7.791 4.90165 7.50087 4.61152C7.21074 4.32139 6.81737 4.15818 6.40706 4.15771ZM6.40706 6.47914C6.25401 6.47914 6.1044 6.43376 5.97715 6.34873C5.8499 6.26371 5.75072 6.14285 5.69215 6.00146C5.63358 5.86006 5.61826 5.70448 5.64811 5.55437C5.67797 5.40427 5.75167 5.26639 5.85989 5.15817C5.96811 5.04995 6.10599 4.97625 6.25609 4.94639C6.4062 4.91654 6.56178 4.93186 6.70318 4.99043C6.84458 5.049 6.96543 5.14818 7.05046 5.27543C7.13548 5.40268 7.18087 5.55229 7.18087 5.70533C7.18066 5.9105 7.09907 6.1072 6.954 6.25227C6.80892 6.39735 6.61222 6.47894 6.40706 6.47914Z" fill="#5A859D"/>
<path d="M122.325 16.8599C122.018 16.8599 121.719 16.9506 121.465 17.1207C121.21 17.2907 121.012 17.5324 120.895 17.8152C120.778 18.098 120.747 18.4092 120.807 18.7094C120.866 19.0096 121.014 19.2854 121.23 19.5018C121.447 19.7183 121.722 19.8656 122.023 19.9254C122.323 19.9851 122.634 19.9544 122.917 19.8373C123.2 19.7202 123.441 19.5218 123.611 19.2673C123.781 19.0128 123.872 18.7136 123.872 18.4075C123.872 17.9972 123.708 17.6038 123.418 17.3137C123.128 17.0235 122.735 16.8603 122.325 16.8599ZM122.325 19.1813C122.171 19.1813 122.022 19.1359 121.895 19.0509C121.767 18.9659 121.668 18.845 121.61 18.7036C121.551 18.5622 121.536 18.4066 121.566 18.2565C121.595 18.1064 121.669 17.9685 121.777 17.8603C121.886 17.7521 122.023 17.6784 122.174 17.6485C122.324 17.6187 122.479 17.634 122.621 17.6926C122.762 17.7511 122.883 17.8503 122.968 17.9776C123.053 18.1048 123.098 18.2544 123.098 18.4075C123.098 18.6126 123.017 18.8093 122.871 18.9544C122.726 19.0995 122.53 19.1811 122.325 19.1813Z" fill="#5A859D"/>
<path d="M29.4654 10.5042C29.4654 10.1981 29.3747 9.89886 29.2046 9.64435C29.0345 9.38985 28.7928 9.19148 28.51 9.07435C28.2273 8.95721 27.9161 8.92657 27.6159 8.98628C27.3157 9.046 27.0399 9.19339 26.8235 9.40983C26.607 9.62627 26.4596 9.90203 26.3999 10.2022C26.3402 10.5024 26.3708 10.8136 26.488 11.0964C26.6051 11.3792 26.8035 11.6209 27.058 11.791C27.3125 11.961 27.6117 12.0518 27.9178 12.0518C28.3281 12.0513 28.7215 11.8881 29.0116 11.598C29.3017 11.3078 29.4649 10.9145 29.4654 10.5042ZM27.144 10.5042C27.144 10.3511 27.1894 10.2015 27.2744 10.0743C27.3594 9.94701 27.4803 9.84782 27.6217 9.78926C27.7631 9.73069 27.9187 9.71536 28.0688 9.74522C28.2189 9.77508 28.3567 9.84878 28.465 9.957C28.5732 10.0652 28.6469 10.2031 28.6767 10.3532C28.7066 10.5033 28.6913 10.6589 28.6327 10.8003C28.5741 10.9417 28.475 11.0625 28.3477 11.1476C28.2205 11.2326 28.0708 11.278 27.9178 11.278C27.7126 11.2778 27.5159 11.1962 27.3709 11.0511C27.2258 10.906 27.1442 10.7093 27.144 10.5042Z" fill="#5A859D"/>
<path d="M10.5025 26.0893L11.6524 24.5757L10.9258 24.1641L10.1876 25.8587H10.1628L9.41299 24.1764L8.67323 24.5997L9.81227 26.0769V26.1017L8.03174 25.8711V26.6944L9.82388 26.4646V26.4886L8.67323 27.9658L9.36346 28.4014L10.1512 26.6944H10.1752L10.9018 28.3891L11.6648 27.9534L10.5025 26.501V26.4762L12.3302 26.6944V25.8711L10.5025 26.1133V26.0893Z" fill="#B4EDFF"/>
<path d="M46.3404 10.0506L45.678 10.901L46.075 11.1517L46.5284 10.169H46.5423L46.961 11.1448L47.4005 10.8941L46.7311 10.0568V10.0429L47.7835 10.169V9.69465L46.7311 9.83394V9.82001L47.3935 8.9487L46.9749 8.71191L46.5493 9.68769H46.5354L46.1036 8.7181L45.678 8.96263L46.3334 9.81305V9.82697L45.3081 9.69465V10.169L46.3404 10.0367V10.0506Z" fill="#B4EDFF"/>
<path d="M120.757 38.6037V37.7966L118.964 38.0342V38.0102L120.093 36.526L119.38 36.1221L118.656 37.7842H118.631L117.896 36.1337L117.17 36.55L118.288 37.9986V38.0225L116.541 37.7966V38.6037L118.299 38.3785V38.4025L117.17 39.8511L117.847 40.279L118.62 38.6037H118.643L119.355 40.2666L120.104 39.8395L118.964 38.4141V38.3901L120.757 38.6037Z" fill="#B4EDFF"/>
<path d="M92.3406 10.9919L93.314 9.71198L92.6988 9.36377L92.0744 10.7976H92.0535L91.4189 9.37383L90.7929 9.7321L91.7563 10.9818V11.0027L90.2505 10.8077V11.5041L91.7664 11.3099V11.33L90.7929 12.5797L91.3772 12.9488L92.0434 11.5041H92.0635L92.6787 12.9388L93.3241 12.5697L92.3406 11.3401V11.32L93.8866 11.5041V10.8077L92.3406 11.0128V10.9919Z" fill="#B4EDFF"/>
</g>
<defs>
<clipPath id="clip0_30_4362">
<rect width="130" height="130" fill="white"/>
</clipPath>
</defs>
</svg>
