<svg width="131" height="130" viewBox="0 0 131 130" fill="none" xmlns="http://www.w3.org/2000/svg">
<g clip-path="url(#clip0_2055_398)">
<path d="M17.6487 21.503H66.3987C66.8091 21.503 67.2028 21.3399 67.493 21.0497C67.7833 20.7594 67.9463 20.3658 67.9463 19.9553C67.9463 19.5449 67.7833 19.1512 67.493 18.861C67.2028 18.5708 66.8091 18.4077 66.3987 18.4077H17.6487C17.2382 18.4077 16.8446 18.5708 16.5544 18.861C16.2641 19.1512 16.1011 19.5449 16.1011 19.9553C16.1011 20.3658 16.2641 20.7594 16.5544 21.0497C16.8446 21.3399 17.2382 21.503 17.6487 21.503Z" fill="#3A576A"/>
<path d="M17.6487 66.3841H34.6725C35.083 66.3841 35.4766 66.221 35.7668 65.9308C36.057 65.6406 36.2201 65.2469 36.2201 64.8365V60.1936C36.2201 59.7832 36.0571 59.3895 35.7668 59.0993C35.4766 58.8091 35.083 58.646 34.6725 58.646C34.262 58.646 33.8684 58.8091 33.5782 59.0993C33.2879 59.3895 33.1249 59.7832 33.1249 60.1936V63.2889H17.6487C17.2382 63.2889 16.8446 63.4519 16.5544 63.7421C16.2641 64.0324 16.1011 64.426 16.1011 64.8365C16.1011 65.2469 16.2641 65.6406 16.5544 65.9308C16.8446 66.221 17.2382 66.3841 17.6487 66.3841Z" fill="#3A576A"/>
<path d="M17.6487 36.2055H33.1249V52.4555C33.1249 52.866 33.2879 53.2596 33.5782 53.5498C33.8684 53.8401 34.262 54.0031 34.6725 54.0031C35.083 54.0031 35.4766 53.8401 35.7668 53.5498C36.0571 53.2596 36.2201 52.866 36.2201 52.4555V36.2055H51.6963C52.1068 36.2055 52.5004 36.0424 52.7906 35.7522C53.0809 35.462 53.2439 35.0683 53.2439 34.6579V27.6936C53.2439 27.2832 53.0809 26.8895 52.7906 26.5993C52.5004 26.309 52.1068 26.146 51.6963 26.146C51.2859 26.146 50.8922 26.309 50.602 26.5993C50.3117 26.8895 50.1487 27.2832 50.1487 27.6936V33.1103H17.6487C17.2382 33.1103 16.8446 33.2733 16.5544 33.5636C16.2641 33.8538 16.1011 34.2474 16.1011 34.6579C16.1011 35.0684 16.2641 35.462 16.5544 35.7522C16.8446 36.0425 17.2382 36.2055 17.6487 36.2055Z" fill="#B4EDFF"/>
<path d="M86.5178 65.6101H91.9345C92.345 65.6101 92.7386 65.447 93.0288 65.1568C93.3191 64.8666 93.4821 64.4729 93.4821 64.0625C93.4821 63.652 93.3191 63.2584 93.0288 62.9681C92.7386 62.6779 92.345 62.5149 91.9345 62.5149H88.0655V40.0744H106.637C107.047 40.0744 107.441 39.9113 107.731 39.6211C108.021 39.3308 108.184 38.9372 108.185 38.5268V21.503H113.601C114.012 21.503 114.405 21.3399 114.696 21.0497C114.986 20.7594 115.149 20.3658 115.149 19.9553C115.149 19.5449 114.986 19.1512 114.696 18.861C114.405 18.5708 114.012 18.4077 113.601 18.4077H91.1607C90.7502 18.4077 90.3566 18.5708 90.0664 18.861C89.7761 19.1512 89.6131 19.5449 89.6131 19.9553C89.6131 20.3658 89.7761 20.7594 90.0664 21.0497C90.3566 21.3399 90.7502 21.503 91.1607 21.503H105.089V36.9791H86.5178C86.1074 36.9792 85.7138 37.1422 85.4235 37.4325C85.1333 37.7227 84.9702 38.1163 84.9702 38.5268V64.0625C84.9702 64.4729 85.1333 64.8666 85.4235 65.1568C85.7138 65.447 86.1074 65.6101 86.5178 65.6101Z" fill="#3A576A"/>
<path d="M113.601 47.8125H94.2559C93.8454 47.8125 93.4518 47.9756 93.1615 48.2658C92.8713 48.556 92.7083 48.9497 92.7083 49.3601C92.7083 49.7706 92.8713 50.1642 93.1615 50.4544C93.4518 50.7447 93.8454 50.9077 94.2559 50.9077H113.601C114.012 50.9077 114.405 50.7447 114.695 50.4544C114.986 50.1642 115.149 49.7706 115.149 49.3601C115.149 48.9497 114.986 48.556 114.695 48.2658C114.405 47.9756 114.012 47.8125 113.601 47.8125Z" fill="#B4EDFF"/>
<path d="M59.4345 34.6575V50.9075H43.9583C43.5478 50.9075 43.1542 51.0705 42.8639 51.3608C42.5737 51.651 42.4106 52.0446 42.4106 52.4551C42.4106 52.8656 42.5737 53.2592 42.8639 53.5494C43.1542 53.8397 43.5478 54.0027 43.9583 54.0027H60.9821C61.3925 54.0027 61.7862 53.8396 62.0764 53.5494C62.3666 53.2592 62.5297 52.8655 62.5297 52.4551V36.2051H71.0416C71.4521 36.2051 71.8457 36.0421 72.1359 35.7518C72.4262 35.4616 72.5892 35.0679 72.5892 34.6575C72.5892 34.247 72.4262 33.8534 72.1359 33.5631C71.8457 33.2729 71.4521 33.1099 71.0416 33.1099H60.9821C60.5716 33.1099 60.178 33.2729 59.8878 33.5632C59.5975 33.8534 59.4345 34.247 59.4345 34.6575Z" fill="#3A576A"/>
<path d="M113.601 58.646H104.316C103.905 58.646 103.511 58.8091 103.221 59.0993C102.931 59.3895 102.768 59.7832 102.768 60.1936V77.9912H36.9942C36.5837 77.9912 36.1901 78.1543 35.8998 78.4445C35.6096 78.7348 35.4465 79.1284 35.4465 79.5389C35.4465 79.9493 35.6096 80.343 35.8998 80.6332C36.1901 80.9234 36.5837 81.0865 36.9942 81.0865H72.5894V99.6579C72.5894 100.068 72.7524 100.462 73.0427 100.752C73.3329 101.042 73.7266 101.206 74.137 101.206C74.5475 101.206 74.9411 101.042 75.2313 100.752C75.5216 100.462 75.6846 100.068 75.6846 99.6579V81.0865H104.316C104.726 81.0865 105.12 80.9234 105.41 80.6332C105.7 80.3429 105.863 79.9493 105.863 79.5389V61.7412H112.054V65.3526C112.054 65.7631 112.217 66.1567 112.507 66.4469C112.797 66.7372 113.191 66.9002 113.601 66.9002C114.012 66.9002 114.405 66.7372 114.696 66.4469C114.986 66.1567 115.149 65.7631 115.149 65.3526V60.1936C115.149 59.7832 114.986 59.3895 114.696 59.0993C114.405 58.8091 114.012 58.646 113.601 58.646Z" fill="#3A576A"/>
<path d="M80.023 34.8225C80.023 34.4121 79.8599 34.0184 79.5697 33.7282C79.2794 33.438 78.8858 33.2749 78.4754 33.2749C78.0649 33.2749 77.6713 33.438 77.381 33.7282C77.0908 34.0184 76.9277 34.4121 76.9277 34.8225V35.579C76.9277 35.9894 77.0908 36.383 77.381 36.6733C77.6713 36.9635 78.0649 37.1266 78.4754 37.1266C78.8858 37.1266 79.2794 36.9635 79.5697 36.6733C79.8599 36.383 80.023 35.9894 80.023 35.579V34.8225Z" fill="#3A576A"/>
<path d="M80.023 45.4163C80.023 45.0058 79.8599 44.6122 79.5697 44.3219C79.2794 44.0317 78.8858 43.8687 78.4754 43.8687C78.0649 43.8687 77.6713 44.0317 77.381 44.3219C77.0908 44.6122 76.9277 45.0058 76.9277 45.4163V46.1727C76.9277 46.5832 77.0908 46.9768 77.381 47.267C77.6713 47.5573 78.0649 47.7203 78.4754 47.7203C78.8858 47.7203 79.2794 47.5573 79.5697 47.267C79.8599 46.9768 80.023 46.5832 80.023 46.1727V45.4163Z" fill="#3A576A"/>
<path d="M80.023 50.7136C80.023 50.3032 79.8599 49.9095 79.5697 49.6193C79.2794 49.3291 78.8858 49.166 78.4754 49.166C78.0649 49.166 77.6713 49.3291 77.381 49.6193C77.0908 49.9095 76.9277 50.3032 76.9277 50.7136V51.4701C76.9277 51.8805 77.0908 52.2742 77.381 52.5644C77.6713 52.8547 78.0649 53.0177 78.4754 53.0177C78.8858 53.0177 79.2794 52.8547 79.5697 52.5644C79.8599 52.2742 80.023 51.8805 80.023 51.4701V50.7136Z" fill="#B4EDFF"/>
<path d="M80.023 40.1189C80.023 39.7085 79.8599 39.3148 79.5697 39.0246C79.2794 38.7343 78.8858 38.5713 78.4754 38.5713C78.0649 38.5713 77.6713 38.7343 77.381 39.0246C77.0908 39.3148 76.9277 39.7085 76.9277 40.1189V40.8761C76.9277 41.2866 77.0908 41.6802 77.381 41.9704C77.6713 42.2607 78.0649 42.4237 78.4754 42.4237C78.8858 42.4237 79.2794 42.2607 79.5697 41.9704C79.8599 41.6802 80.023 41.2866 80.023 40.8761V40.1189Z" fill="#B4EDFF"/>
<path d="M80.023 29.5252C80.023 29.1147 79.8599 28.7211 79.5697 28.4308C79.2794 28.1406 78.8858 27.9775 78.4754 27.9775C78.0649 27.9775 77.6713 28.1406 77.381 28.4308C77.0908 28.7211 76.9277 29.1147 76.9277 29.5252V30.2816C76.9277 30.692 77.0908 31.0857 77.381 31.3759C77.6713 31.6662 78.0649 31.8292 78.4754 31.8292C78.8858 31.8292 79.2794 31.6662 79.5697 31.3759C79.8599 31.0857 80.023 30.692 80.023 30.2816V29.5252Z" fill="#B4EDFF"/>
<path d="M80.023 56.01C80.023 55.5996 79.8599 55.2059 79.5697 54.9157C79.2794 54.6255 78.8858 54.4624 78.4754 54.4624C78.0649 54.4624 77.6713 54.6255 77.381 54.9157C77.0908 55.2059 76.9277 55.5996 76.9277 56.01V56.7672C76.9277 57.1777 77.0908 57.5713 77.381 57.8615C77.6713 58.1518 78.0649 58.3148 78.4754 58.3148C78.8858 58.3148 79.2794 58.1518 79.5697 57.8615C79.8599 57.5713 80.023 57.1777 80.023 56.7672V56.01Z" fill="#3A576A"/>
<path d="M80.023 61.3074C80.023 60.8969 79.8599 60.5033 79.5697 60.2131C79.2794 59.9228 78.8858 59.7598 78.4754 59.7598C78.0649 59.7598 77.6713 59.9228 77.381 60.2131C77.0908 60.5033 76.9277 60.8969 76.9277 61.3074V62.0638C76.9277 62.4743 77.0908 62.8679 77.381 63.1581C77.6713 63.4484 78.0649 63.6114 78.4754 63.6114C78.8858 63.6114 79.2794 63.4484 79.5697 63.1581C79.8599 62.8679 80.023 62.4743 80.023 62.0638V61.3074Z" fill="#B4EDFF"/>
<path d="M80.023 66.6047C80.023 66.1943 79.8599 65.8006 79.5697 65.5104C79.2794 65.2202 78.8858 65.0571 78.4754 65.0571C78.0649 65.0571 77.6713 65.2202 77.381 65.5104C77.0908 65.8006 76.9277 66.1943 76.9277 66.6047V67.3612C76.9277 67.7716 77.0908 68.1653 77.381 68.4555C77.6713 68.7457 78.0649 68.9088 78.4754 68.9088C78.8858 68.9088 79.2794 68.7457 79.5697 68.4555C79.8599 68.1653 80.023 67.7716 80.023 67.3612V66.6047Z" fill="#3A576A"/>
<path d="M78.4753 70.3541C78.014 70.3037 77.5515 70.4384 77.1894 70.7286C76.8273 71.0188 76.5952 71.4409 76.5439 71.9021C76.4927 72.3633 76.6265 72.826 76.9161 73.1886C77.2057 73.5513 77.6273 73.7842 78.0884 73.8363H78.4753C78.8857 73.8362 79.2794 73.6732 79.5696 73.383C79.8598 73.0927 80.0229 72.6991 80.0229 72.2886V71.9017C80.0229 71.4913 79.8598 71.0977 79.5696 70.8074C79.2794 70.5172 78.8857 70.3541 78.4753 70.3541Z" fill="#B4EDFF"/>
<path d="M61.4597 70.7412C61.0493 70.7412 60.6556 70.9043 60.3654 71.1945C60.0752 71.4847 59.9121 71.8784 59.9121 72.2888C59.9121 72.6993 60.0752 73.0929 60.3654 73.3832C60.6556 73.6734 61.0493 73.8364 61.4597 73.8364H62.2517C62.6621 73.8364 63.0558 73.6734 63.346 73.3832C63.6362 73.0929 63.7993 72.6993 63.7993 72.2888C63.7993 71.8784 63.6362 71.4847 63.346 71.1945C63.0558 70.9043 62.6621 70.7412 62.2517 70.7412H61.4597Z" fill="#3A576A"/>
<path d="M28.9953 70.7412H28.2034C27.7929 70.7412 27.3993 70.9043 27.1091 71.1945C26.8188 71.4847 26.6558 71.8784 26.6558 72.2888C26.6558 72.6993 26.8188 73.0929 27.1091 73.3832C27.3993 73.6734 27.7929 73.8364 28.2034 73.8364H28.9953C29.4058 73.8364 29.7994 73.6734 30.0897 73.3832C30.3799 73.0929 30.5429 72.6993 30.5429 72.2888C30.5429 71.8784 30.3799 71.4847 30.0897 71.1945C29.7994 70.9043 29.4058 70.7412 28.9953 70.7412Z" fill="#3A576A"/>
<path d="M36.0857 72.2888C36.0857 71.8784 35.9226 71.4848 35.6324 71.1945C35.3421 70.9043 34.9485 70.7412 34.5381 70.7412H33.7461C33.3357 70.7412 32.942 70.9043 32.6518 71.1945C32.3615 71.4847 32.1985 71.8784 32.1985 72.2888C32.1985 72.6993 32.3615 73.0929 32.6518 73.3832C32.942 73.6734 33.3357 73.8364 33.7461 73.8364H34.5381C34.9485 73.8364 35.3421 73.6734 35.6324 73.3831C35.9226 73.0929 36.0857 72.6993 36.0857 72.2888Z" fill="#B4EDFF"/>
<path d="M44.8318 70.7412C44.4213 70.7412 44.0277 70.9043 43.7375 71.1945C43.4472 71.4847 43.2842 71.8784 43.2842 72.2888C43.2842 72.6993 43.4472 73.0929 43.7375 73.3832C44.0277 73.6734 44.4213 73.8364 44.8318 73.8364H45.623C46.0334 73.8364 46.4271 73.6734 46.7173 73.3832C47.0076 73.0929 47.1706 72.6993 47.1706 72.2888C47.1706 71.8784 47.0076 71.4847 46.7173 71.1945C46.4271 70.9043 46.0334 70.7412 45.623 70.7412H44.8318Z" fill="#B4EDFF"/>
<path d="M67.0027 70.7412C66.5922 70.7412 66.1986 70.9043 65.9084 71.1945C65.6181 71.4847 65.4551 71.8784 65.4551 72.2888C65.4551 72.6993 65.6181 73.0929 65.9084 73.3832C66.1986 73.6734 66.5922 73.8364 67.0027 73.8364H67.7946C68.2051 73.8364 68.5987 73.6734 68.889 73.3832C69.1792 73.0929 69.3423 72.6993 69.3423 72.2888C69.3423 71.8784 69.1792 71.4847 68.889 71.1945C68.5987 70.9043 68.2051 70.7412 67.7946 70.7412H67.0027Z" fill="#B4EDFF"/>
<path d="M55.9168 70.7412C55.5063 70.7412 55.1127 70.9043 54.8224 71.1945C54.5322 71.4847 54.3691 71.8784 54.3691 72.2888C54.3691 72.6993 54.5322 73.0929 54.8224 73.3832C55.1127 73.6734 55.5063 73.8364 55.9168 73.8364H56.7087C57.1192 73.8364 57.5128 73.6734 57.803 73.3832C58.0933 73.0929 58.2563 72.6993 58.2563 72.2888C58.2563 71.8784 58.0933 71.4847 57.803 71.1945C57.5128 70.9043 57.1192 70.7412 56.7087 70.7412H55.9168Z" fill="#B4EDFF"/>
<path d="M39.2891 70.7412C38.8786 70.7412 38.485 70.9043 38.1947 71.1945C37.9045 71.4847 37.7415 71.8784 37.7415 72.2888C37.7415 72.6993 37.9045 73.0929 38.1947 73.3832C38.485 73.6734 38.8786 73.8364 39.2891 73.8364H40.0803C40.4907 73.8364 40.8844 73.6734 41.1746 73.3832C41.4648 73.0929 41.6279 72.6993 41.6279 72.2888C41.6279 71.8784 41.4648 71.4847 41.1746 71.1945C40.8844 70.9043 40.4907 70.7412 40.0803 70.7412H39.2891Z" fill="#3A576A"/>
<path d="M70.9978 72.2888C70.9978 72.6993 71.1609 73.0929 71.4511 73.3831C71.7413 73.6734 72.135 73.8364 72.5454 73.8364H73.3374C73.7478 73.8364 74.1415 73.6734 74.4317 73.3832C74.7219 73.0929 74.885 72.6993 74.885 72.2888C74.885 71.8784 74.7219 71.4847 74.4317 71.1945C74.1415 70.9043 73.7478 70.7412 73.3374 70.7412H72.5454C72.135 70.7412 71.7413 70.9043 71.4511 71.1945C71.1609 71.4848 70.9978 71.8784 70.9978 72.2888Z" fill="#3A576A"/>
<path d="M50.374 70.7412C49.9636 70.7412 49.5699 70.9043 49.2797 71.1945C48.9895 71.4847 48.8264 71.8784 48.8264 72.2888C48.8264 72.6993 48.9895 73.0929 49.2797 73.3832C49.5699 73.6734 49.9636 73.8364 50.374 73.8364H51.166C51.5764 73.8364 51.9701 73.6734 52.2603 73.3832C52.5505 73.0929 52.7136 72.6993 52.7136 72.2888C52.7136 71.8784 52.5505 71.4847 52.2603 71.1945C51.9701 70.9043 51.5764 70.7412 51.166 70.7412H50.374Z" fill="#3A576A"/>
<path d="M23.4523 70.7412H23.0654C22.655 70.7412 22.2614 70.9043 21.9711 71.1945C21.6809 71.4848 21.5178 71.8784 21.5178 72.2888V72.6757C21.5178 73.0053 21.6229 73.3263 21.818 73.5919C22.013 73.8575 22.2878 74.0539 22.6023 74.1525C22.9168 74.2511 23.2545 74.2467 23.5663 74.14C23.8781 74.0332 24.1476 73.8297 24.3357 73.5591C24.6063 73.371 24.8098 73.1015 24.9166 72.7897C25.0233 72.4779 25.0277 72.1401 24.9291 71.8257C24.8305 71.5112 24.6341 71.2364 24.3685 71.0414C24.1029 70.8463 23.7819 70.7411 23.4523 70.7412Z" fill="#B4EDFF"/>
<path d="M23.0654 79.1351C23.4759 79.1351 23.8695 78.9721 24.1598 78.6818C24.45 78.3916 24.613 77.998 24.6131 77.5875V76.8855C24.6131 76.4751 24.45 76.0814 24.1598 75.7912C23.8695 75.5009 23.4759 75.3379 23.0654 75.3379C22.655 75.3379 22.2613 75.5009 21.9711 75.7912C21.6809 76.0814 21.5178 76.4751 21.5178 76.8855V77.5875C21.5178 77.998 21.6809 78.3916 21.9711 78.6818C22.2614 78.9721 22.655 79.1351 23.0654 79.1351Z" fill="#3A576A"/>
<path d="M21.5178 82.4984C21.5178 82.9088 21.6809 83.3025 21.9711 83.5927C22.2613 83.883 22.655 84.046 23.0654 84.046C23.4759 84.046 23.8695 83.883 24.1598 83.5927C24.45 83.3025 24.6131 82.9088 24.6131 82.4984V81.7971C24.6131 81.3867 24.45 80.993 24.1598 80.7028C23.8695 80.4126 23.4759 80.2495 23.0654 80.2495C22.655 80.2495 22.2613 80.4126 21.9711 80.7028C21.6809 80.993 21.5178 81.3867 21.5178 81.7971V82.4984Z" fill="#B4EDFF"/>
<path d="M21.5178 87.0952C21.5178 87.5056 21.6809 87.8992 21.9711 88.1895C22.2614 88.4797 22.655 88.6428 23.0654 88.6428H23.4523C23.7819 88.6429 24.1029 88.5377 24.3685 88.3426C24.6341 88.1476 24.8305 87.8728 24.9291 87.5583C25.0277 87.2439 25.0233 86.9061 24.9166 86.5943C24.8098 86.2825 24.6063 86.013 24.3357 85.8249C24.1476 85.5543 23.8781 85.3508 23.5663 85.244C23.2545 85.1373 22.9168 85.1329 22.6023 85.2315C22.2878 85.3301 22.013 85.5265 21.818 85.7921C21.6229 86.0577 21.5178 86.3787 21.5178 86.7083V87.0952Z" fill="#3A576A"/>
<path d="M45.3835 88.6431C45.794 88.6431 46.1876 88.48 46.4778 88.1898C46.7681 87.8996 46.9311 87.5059 46.9311 87.0955C46.9311 86.685 46.7681 86.2914 46.4778 86.0011C46.1876 85.7109 45.794 85.5479 45.3835 85.5479H44.5999C44.1894 85.5479 43.7958 85.7109 43.5055 86.0011C43.2153 86.2914 43.0522 86.685 43.0522 87.0955C43.0522 87.5059 43.2153 87.8996 43.5055 88.1898C43.7958 88.48 44.1894 88.6431 44.5999 88.6431H45.3835Z" fill="#3A576A"/>
<path d="M56.3491 88.6431C56.7595 88.6431 57.1532 88.48 57.4434 88.1898C57.7336 87.8996 57.8967 87.5059 57.8967 87.0955C57.8967 86.685 57.7336 86.2914 57.4434 86.0011C57.1532 85.7109 56.7595 85.5479 56.3491 85.5479H55.5654C55.155 85.5479 54.7613 85.7109 54.4711 86.0011C54.1809 86.2914 54.0178 86.685 54.0178 87.0955C54.0178 87.5059 54.1809 87.8996 54.4711 88.1898C54.7613 88.48 55.155 88.6431 55.5654 88.6431H56.3491Z" fill="#3A576A"/>
<path d="M61.8315 88.6431C62.2419 88.6431 62.6356 88.48 62.9258 88.1898C63.216 87.8996 63.3791 87.5059 63.3791 87.0955C63.3791 86.685 63.216 86.2914 62.9258 86.0011C62.6356 85.7109 62.2419 85.5479 61.8315 85.5479H61.0486C60.6381 85.5479 60.2445 85.7109 59.9543 86.0011C59.664 86.2914 59.501 86.685 59.501 87.0955C59.501 87.5059 59.664 87.8996 59.9543 88.1898C60.2445 88.48 60.6381 88.6431 61.0486 88.6431H61.8315Z" fill="#B4EDFF"/>
<path d="M50.8659 88.6431C51.2764 88.6431 51.67 88.48 51.9603 88.1898C52.2505 87.8996 52.4135 87.5059 52.4135 87.0955C52.4135 86.685 52.2505 86.2914 51.9603 86.0011C51.67 85.7109 51.2764 85.5479 50.8659 85.5479H50.083C49.6726 85.5479 49.2789 85.7109 48.9887 86.0011C48.6985 86.2914 48.5354 86.685 48.5354 87.0955C48.5354 87.5059 48.6985 87.8996 48.9887 88.1898C49.2789 88.48 49.6726 88.6431 50.083 88.6431H50.8659Z" fill="#B4EDFF"/>
<path d="M28.9348 85.5479H28.1519C27.7414 85.5479 27.3478 85.7109 27.0575 86.0011C26.7673 86.2914 26.6042 86.685 26.6042 87.0955C26.6042 87.5059 26.7673 87.8996 27.0575 88.1898C27.3478 88.48 27.7414 88.6431 28.1519 88.6431H28.9348C29.3452 88.6431 29.7389 88.48 30.0291 88.1898C30.3193 87.8996 30.4824 87.5059 30.4824 87.0955C30.4824 86.685 30.3193 86.2914 30.0291 86.0011C29.7389 85.7109 29.3452 85.5479 28.9348 85.5479Z" fill="#B4EDFF"/>
<path d="M32.0867 87.0955C32.0867 87.5059 32.2497 87.8995 32.54 88.1898C32.8302 88.48 33.2238 88.6431 33.6343 88.6431H34.4179C34.8284 88.6431 35.222 88.48 35.5123 88.1898C35.8025 87.8996 35.9655 87.5059 35.9655 87.0955C35.9655 86.685 35.8025 86.2914 35.5123 86.0011C35.222 85.7109 34.8284 85.5479 34.4179 85.5479H33.6343C33.2238 85.5479 32.8302 85.7109 32.54 86.0012C32.2497 86.2914 32.0867 86.685 32.0867 87.0955Z" fill="#3A576A"/>
<path d="M39.9003 88.6431C40.3108 88.6431 40.7044 88.48 40.9947 88.1898C41.2849 87.8996 41.4479 87.5059 41.4479 87.0955C41.4479 86.685 41.2849 86.2914 40.9947 86.0011C40.7044 85.7109 40.3108 85.5479 39.9003 85.5479H39.1174C38.707 85.5479 38.3133 85.7109 38.0231 86.0011C37.7329 86.2914 37.5698 86.685 37.5698 87.0955C37.5698 87.5059 37.7329 87.8996 38.0231 88.1898C38.3133 88.48 38.707 88.6431 39.1174 88.6431H39.9003Z" fill="#B4EDFF"/>
<path d="M66.9179 85.5479H66.531C66.203 85.5843 65.892 85.7126 65.6338 85.9181C65.3756 86.1235 65.1806 86.3977 65.0714 86.7091C64.9622 87.0204 64.9431 87.3563 65.0164 87.6781C65.0897 87.9998 65.2524 88.2943 65.4857 88.5276C65.7191 88.761 66.0136 88.9236 66.3353 88.9969C66.657 89.0702 66.9929 89.0512 67.3043 88.942C67.6157 88.8327 67.8899 88.6378 68.0953 88.3796C68.3008 88.1213 68.4291 87.8103 68.4655 87.4824V87.0955C68.4655 86.685 68.3024 86.2914 68.0122 86.0012C67.722 85.7109 67.3283 85.5479 66.9179 85.5479Z" fill="#3A576A"/>
<path d="M66.918 93.8917C67.3284 93.8917 67.7221 93.7287 68.0123 93.4384C68.3025 93.1482 68.4656 92.7546 68.4656 92.3441V91.6497C68.4656 91.2392 68.3025 90.8456 68.0123 90.5553C67.7221 90.2651 67.3284 90.1021 66.918 90.1021C66.5075 90.1021 66.1139 90.2651 65.8236 90.5553C65.5334 90.8456 65.3704 91.2392 65.3704 91.6497V92.3441C65.3704 92.7546 65.5334 93.1482 65.8237 93.4384C66.1139 93.7287 66.5075 93.8917 66.918 93.8917Z" fill="#B4EDFF"/>
<path d="M65.3704 102.069C65.3704 102.479 65.5334 102.873 65.8236 103.163C66.1139 103.453 66.5075 103.616 66.918 103.616C67.3284 103.616 67.7221 103.453 68.0123 103.163C68.3025 102.873 68.4656 102.479 68.4656 102.069V101.373C68.4656 100.963 68.3025 100.569 68.0123 100.279C67.7221 99.9887 67.3284 99.8257 66.918 99.8257C66.5075 99.8257 66.1139 99.9887 65.8236 100.279C65.5334 100.569 65.3704 100.963 65.3704 101.373V102.069Z" fill="#B4EDFF"/>
<path d="M65.3704 97.2064C65.3704 97.6169 65.5334 98.0105 65.8236 98.3008C66.1139 98.591 66.5075 98.754 66.918 98.754C67.3284 98.754 67.7221 98.591 68.0123 98.3008C68.3025 98.0105 68.4656 97.6169 68.4656 97.2064V96.512C68.4656 96.1015 68.3025 95.7079 68.0123 95.4176C67.7221 95.1274 67.3284 94.9644 66.918 94.9644C66.5075 94.9644 66.1139 95.1274 65.8236 95.4176C65.5334 95.7079 65.3704 96.1015 65.3704 96.512V97.2064Z" fill="#3A576A"/>
<path d="M65.3704 106.622C65.3704 107.032 65.5334 107.426 65.8237 107.716C66.1139 108.007 66.5075 108.17 66.918 108.17H67.3049C67.6328 108.133 67.9438 108.005 68.2021 107.799C68.4603 107.594 68.6552 107.32 68.7645 107.008C68.8737 106.697 68.8928 106.361 68.8195 106.039C68.7462 105.718 68.5835 105.423 68.3501 105.19C68.1168 104.957 67.8223 104.794 67.5006 104.721C67.1789 104.647 66.843 104.666 66.5316 104.776C66.2202 104.885 65.946 105.08 65.7406 105.338C65.5351 105.596 65.4068 105.907 65.3704 106.235V106.622Z" fill="#3A576A"/>
<path d="M77.0431 108.169C77.4536 108.169 77.8472 108.006 78.1375 107.716C78.4277 107.426 78.5908 107.032 78.5908 106.622C78.5908 106.211 78.4277 105.818 78.1375 105.528C77.8472 105.237 77.4536 105.074 77.0431 105.074H76.3479C75.9375 105.074 75.5438 105.237 75.2536 105.528C74.9633 105.818 74.8003 106.211 74.8003 106.622C74.8003 107.032 74.9633 107.426 75.2536 107.716C75.5438 108.006 75.9375 108.169 76.3479 108.169H77.0431Z" fill="#3A576A"/>
<path d="M72.1745 108.169C72.585 108.169 72.9786 108.006 73.2688 107.716C73.5591 107.426 73.7221 107.032 73.7221 106.622C73.7221 106.211 73.5591 105.818 73.2688 105.528C72.9786 105.237 72.585 105.074 72.1745 105.074H71.4785C71.0681 105.074 70.6744 105.237 70.3842 105.528C70.094 105.818 69.9309 106.211 69.9309 106.622C69.9309 107.032 70.094 107.426 70.3842 107.716C70.6744 108.006 71.0681 108.169 71.4785 108.169H72.1745Z" fill="#B4EDFF"/>
<path d="M81.2168 108.17H81.6037C82.0141 108.17 82.4078 108.007 82.698 107.716C82.9882 107.426 83.1513 107.032 83.1513 106.622V106.235C83.1149 105.907 82.9865 105.596 82.7811 105.338C82.5757 105.08 82.3015 104.885 81.9901 104.776C81.6787 104.666 81.3428 104.647 81.0211 104.721C80.6994 104.794 80.4049 104.957 80.1715 105.19C79.9382 105.423 79.7755 105.718 79.7022 106.039C79.6289 106.361 79.648 106.697 79.7572 107.008C79.8664 107.32 80.0614 107.594 80.3196 107.799C80.5778 108.005 80.8888 108.133 81.2168 108.17Z" fill="#B4EDFF"/>
<path d="M80.0562 97.1256C80.0562 97.536 80.2192 97.9297 80.5094 98.2199C80.7997 98.5101 81.1933 98.6732 81.6038 98.6732C82.0142 98.6732 82.4079 98.5101 82.6981 98.2199C82.9883 97.9297 83.1514 97.536 83.1514 97.1256V96.4251C83.1514 96.0146 82.9883 95.621 82.6981 95.3307C82.4079 95.0405 82.0142 94.8774 81.6038 94.8774C81.1933 94.8774 80.7997 95.0405 80.5094 95.3307C80.2192 95.621 80.0562 96.0146 80.0562 96.4251V97.1256Z" fill="#B4EDFF"/>
<path d="M80.0562 102.03C80.0562 102.441 80.2192 102.834 80.5094 103.125C80.7997 103.415 81.1933 103.578 81.6038 103.578C82.0142 103.578 82.4079 103.415 82.6981 103.125C82.9883 102.834 83.1514 102.441 83.1514 102.03V101.33C83.1514 100.919 82.9883 100.526 82.6981 100.236C82.4079 99.9453 82.0142 99.7822 81.6038 99.7822C81.1933 99.7822 80.7997 99.9453 80.5094 100.236C80.2192 100.526 80.0562 100.919 80.0562 101.33V102.03Z" fill="#3A576A"/>
<path d="M80.0562 92.2206C80.0562 92.631 80.2192 93.0247 80.5094 93.3149C80.7997 93.6051 81.1933 93.7682 81.6038 93.7682C82.0142 93.7682 82.4079 93.6051 82.6981 93.3149C82.9883 93.0247 83.1514 92.631 83.1514 92.2206V91.5193C83.1514 91.1088 82.9883 90.7152 82.6981 90.425C82.4079 90.1347 82.0142 89.9717 81.6038 89.9717C81.1933 89.9717 80.7997 90.1347 80.5094 90.425C80.2192 90.7152 80.0562 91.1088 80.0562 91.5193V92.2206Z" fill="#3A576A"/>
<path d="M81.6038 88.863C82.0651 88.9134 82.5275 88.7787 82.8896 88.4885C83.2517 88.1983 83.4839 87.7762 83.5351 87.315C83.5864 86.8538 83.4525 86.3911 83.163 86.0285C82.8734 85.6659 82.4518 85.4329 81.9907 85.3809H81.6038C81.1933 85.3809 80.7997 85.5439 80.5095 85.8342C80.2192 86.1244 80.0562 86.518 80.0562 86.9285V87.3154C80.0562 87.7258 80.2192 88.1195 80.5095 88.4097C80.7997 88.6999 81.1933 88.863 81.6038 88.863Z" fill="#B4EDFF"/>
<path d="M87.3218 88.4761C87.7322 88.4761 88.1259 88.313 88.4161 88.0228C88.7064 87.7326 88.8694 87.3389 88.8694 86.9285C88.8694 86.518 88.7064 86.1244 88.4161 85.8341C88.1259 85.5439 87.7322 85.3809 87.3218 85.3809H86.5601C86.1496 85.3809 85.756 85.5439 85.4657 85.8341C85.1755 86.1244 85.0125 86.518 85.0125 86.9285C85.0125 87.3389 85.1755 87.7326 85.4657 88.0228C85.756 88.313 86.1496 88.4761 86.5601 88.4761H87.3218Z" fill="#3A576A"/>
<path d="M103.314 88.4761C103.725 88.4761 104.118 88.313 104.409 88.0228C104.699 87.7326 104.862 87.3389 104.862 86.9285C104.862 86.518 104.699 86.1244 104.409 85.8341C104.118 85.5439 103.725 85.3809 103.314 85.3809H102.553C102.142 85.3809 101.748 85.5439 101.458 85.8341C101.168 86.1244 101.005 86.518 101.005 86.9285C101.005 87.3389 101.168 87.7326 101.458 88.0228C101.748 88.313 102.142 88.4761 102.553 88.4761H103.314Z" fill="#B4EDFF"/>
<path d="M97.9837 88.4761C98.3941 88.4761 98.7878 88.313 99.078 88.0228C99.3682 87.7326 99.5313 87.3389 99.5313 86.9285C99.5313 86.518 99.3682 86.1244 99.078 85.8341C98.7878 85.5439 98.3941 85.3809 97.9837 85.3809H97.2219C96.8115 85.3809 96.4178 85.5439 96.1276 85.8341C95.8374 86.1244 95.6743 86.518 95.6743 86.9285C95.6743 87.3389 95.8374 87.7326 96.1276 88.0228C96.4178 88.313 96.8115 88.4761 97.2219 88.4761H97.9837Z" fill="#3A576A"/>
<path d="M92.6523 88.4761C93.0628 88.4761 93.4564 88.313 93.7467 88.0228C94.0369 87.7326 94.2 87.3389 94.2 86.9285C94.2 86.518 94.0369 86.1244 93.7467 85.8341C93.4564 85.5439 93.0628 85.3809 92.6523 85.3809H91.8906C91.4802 85.3809 91.0865 85.5439 90.7963 85.8341C90.5061 86.1244 90.343 86.518 90.343 86.9285C90.343 87.3389 90.5061 87.7326 90.7963 88.0228C91.0865 88.313 91.4802 88.4761 91.8906 88.4761H92.6523Z" fill="#B4EDFF"/>
<path d="M108.646 88.4761C109.056 88.4761 109.45 88.313 109.74 88.0228C110.03 87.7326 110.193 87.3389 110.193 86.9285C110.193 86.518 110.03 86.1244 109.74 85.8341C109.45 85.5439 109.056 85.3809 108.646 85.3809H107.884C107.473 85.3809 107.08 85.5439 106.789 85.8341C106.499 86.1244 106.336 86.518 106.336 86.9285C106.336 87.3389 106.499 87.7326 106.789 88.0228C107.08 88.313 107.473 88.4761 107.884 88.4761H108.646Z" fill="#3A576A"/>
<path d="M113.601 85.3809H113.214C112.804 85.3809 112.41 85.5439 112.12 85.8341C111.83 86.1244 111.667 86.518 111.667 86.9285C111.667 87.3389 111.83 87.7326 112.12 88.0228C112.41 88.313 112.804 88.4761 113.214 88.4761H113.601C114.012 88.4761 114.405 88.313 114.696 88.0228C114.986 87.7326 115.149 87.3389 115.149 86.9285C115.149 86.518 114.986 86.1244 114.696 85.8341C114.405 85.5439 114.012 85.3809 113.601 85.3809Z" fill="#B4EDFF"/>
<path d="M74.6863 27.5302C74.8681 27.6212 75.066 27.6755 75.2688 27.6899C75.4715 27.7044 75.6752 27.6787 75.868 27.6144C76.0609 27.5502 76.2392 27.4485 76.3927 27.3153C76.5462 27.182 76.672 27.0199 76.7629 26.838L77.2322 25.8991C77.3745 26.0952 77.5612 26.2548 77.7769 26.3649C77.9927 26.475 78.2315 26.5325 78.4737 26.5327C78.7159 26.5329 78.9548 26.4759 79.1708 26.3661C79.3867 26.2564 79.5737 26.0972 79.7164 25.9014L80.1845 26.838C80.3681 27.2052 80.69 27.4844 81.0795 27.6142C81.4689 27.744 81.8939 27.7138 82.2611 27.5302C82.6283 27.3466 82.9075 27.0247 83.0373 26.6353C83.1671 26.2458 83.1369 25.8208 82.9533 25.4536L79.8581 19.2631C79.7295 19.0061 79.5319 18.7899 79.2874 18.6388C79.0428 18.4877 78.7611 18.4077 78.4737 18.4077C78.1863 18.4077 77.9045 18.4877 77.66 18.6388C77.4155 18.7899 77.2179 19.0061 77.0893 19.2631L73.994 25.4536C73.9031 25.6354 73.8489 25.8333 73.8345 26.0361C73.82 26.2389 73.8457 26.4425 73.91 26.6353C73.9743 26.8281 74.0759 27.0064 74.2091 27.16C74.3423 27.3135 74.5044 27.4393 74.6863 27.5302Z" fill="#3A576A"/>
<path d="M2.17262 117.455C3.02735 117.455 3.72024 116.762 3.72024 115.907C3.72024 115.053 3.02735 114.36 2.17262 114.36C1.31789 114.36 0.625 115.053 0.625 115.907C0.625 116.762 1.31789 117.455 2.17262 117.455Z" fill="#3A576A"/>
<path d="M9.13687 114.36H6.81544C6.40499 114.36 6.01134 114.523 5.72111 114.813C5.43087 115.103 5.26782 115.497 5.26782 115.907C5.26782 116.318 5.43087 116.712 5.72111 117.002C6.01134 117.292 6.40499 117.455 6.81544 117.455H9.13687C9.54732 117.455 9.94097 117.292 10.2312 117.002C10.5214 116.712 10.6845 116.318 10.6845 115.907C10.6845 115.497 10.5214 115.103 10.2312 114.813C9.94097 114.523 9.54732 114.36 9.13687 114.36Z" fill="#3A576A"/>
<path d="M92.0535 120.551H85.6249C85.2358 120.582 84.8728 120.759 84.608 121.045C84.3433 121.332 84.1963 121.708 84.1963 122.098C84.1963 122.489 84.3433 122.865 84.608 123.151C84.8728 123.438 85.2358 123.615 85.6249 123.646H92.0535C92.4425 123.615 92.8056 123.438 93.0703 123.151C93.335 122.865 93.4821 122.489 93.4821 122.098C93.4821 121.708 93.335 121.332 93.0703 121.045C92.8056 120.759 92.4425 120.582 92.0535 120.551Z" fill="#B4EDFF"/>
<path d="M45.625 120.551H39.1964C38.8073 120.582 38.4443 120.759 38.1796 121.045C37.9148 121.332 37.7678 121.708 37.7678 122.098C37.7678 122.489 37.9148 122.865 38.1796 123.151C38.4443 123.438 38.8073 123.615 39.1964 123.646H45.625C46.0141 123.615 46.3771 123.438 46.6418 123.151C46.9066 122.865 47.0536 122.489 47.0536 122.098C47.0536 121.708 46.9066 121.332 46.6418 121.045C46.3771 120.759 46.0141 120.582 45.625 120.551Z" fill="#B4EDFF"/>
<path d="M81.1011 120.551H50.1487C49.7382 120.551 49.3446 120.714 49.0544 121.004C48.7641 121.294 48.6011 121.688 48.6011 122.098C48.6011 122.509 48.7641 122.902 49.0544 123.193C49.3446 123.483 49.7382 123.646 50.1487 123.646H62.4832V125.194H56.3392C55.9287 125.194 55.5351 125.357 55.2448 125.647C54.9546 125.937 54.7916 126.331 54.7916 126.741C54.7916 127.152 54.9546 127.545 55.2448 127.836C55.5351 128.126 55.9287 128.289 56.3392 128.289H75.6844C76.0949 128.289 76.4885 128.126 76.7787 127.836C77.069 127.545 77.232 127.152 77.232 126.741C77.232 126.331 77.069 125.937 76.7787 125.647C76.4885 125.357 76.0949 125.194 75.6844 125.194H68.7665V123.646H81.1011C81.5115 123.646 81.9052 123.483 82.1954 123.193C82.4856 122.902 82.6487 122.509 82.6487 122.098C82.6487 121.688 82.4856 121.294 82.1954 121.004C81.9052 120.714 81.5115 120.551 81.1011 120.551Z" fill="#B4EDFF"/>
<path d="M2.17262 117.455C3.02735 117.455 3.72024 116.762 3.72024 115.907C3.72024 115.053 3.02735 114.36 2.17262 114.36C1.31789 114.36 0.625 115.053 0.625 115.907C0.625 116.762 1.31789 117.455 2.17262 117.455Z" fill="#3A576A"/>
<path d="M9.13687 114.36H6.81544C6.40499 114.36 6.01134 114.523 5.72111 114.813C5.43087 115.103 5.26782 115.497 5.26782 115.907C5.26782 116.318 5.43087 116.712 5.72111 117.002C6.01134 117.292 6.40499 117.455 6.81544 117.455H9.13687C9.54732 117.455 9.94097 117.292 10.2312 117.002C10.5214 116.712 10.6845 116.318 10.6845 115.907C10.6845 115.497 10.5214 115.103 10.2312 114.813C9.94097 114.523 9.54732 114.36 9.13687 114.36Z" fill="#3A576A"/>
<path d="M92.0535 120.551H85.6249C85.2358 120.582 84.8728 120.759 84.608 121.045C84.3433 121.332 84.1963 121.708 84.1963 122.098C84.1963 122.489 84.3433 122.865 84.608 123.151C84.8728 123.438 85.2358 123.615 85.6249 123.646H92.0535C92.4425 123.615 92.8056 123.438 93.0703 123.151C93.335 122.865 93.4821 122.489 93.4821 122.098C93.4821 121.708 93.335 121.332 93.0703 121.045C92.8056 120.759 92.4425 120.582 92.0535 120.551Z" fill="#B4EDFF"/>
<path d="M45.625 120.551H39.1964C38.8073 120.582 38.4443 120.759 38.1796 121.045C37.9148 121.332 37.7678 121.708 37.7678 122.098C37.7678 122.489 37.9148 122.865 38.1796 123.151C38.4443 123.438 38.8073 123.615 39.1964 123.646H45.625C46.0141 123.615 46.3771 123.438 46.6418 123.151C46.9066 122.865 47.0536 122.489 47.0536 122.098C47.0536 121.708 46.9066 121.332 46.6418 121.045C46.3771 120.759 46.0141 120.582 45.625 120.551Z" fill="#B4EDFF"/>
<path d="M81.1011 120.551H50.1487C49.7382 120.551 49.3446 120.714 49.0544 121.004C48.7641 121.294 48.6011 121.688 48.6011 122.098C48.6011 122.509 48.7641 122.902 49.0544 123.193C49.3446 123.483 49.7382 123.646 50.1487 123.646H62.4832V125.194H56.3392C55.9287 125.194 55.5351 125.357 55.2448 125.647C54.9546 125.937 54.7916 126.331 54.7916 126.741C54.7916 127.152 54.9546 127.545 55.2448 127.836C55.5351 128.126 55.9287 128.289 56.3392 128.289H75.6844C76.0949 128.289 76.4885 128.126 76.7787 127.836C77.069 127.545 77.232 127.152 77.232 126.741C77.232 126.331 77.069 125.937 76.7787 125.647C76.4885 125.357 76.0949 125.194 75.6844 125.194H68.7665V123.646H81.1011C81.5115 123.646 81.9052 123.483 82.1954 123.193C82.4856 122.902 82.6487 122.509 82.6487 122.098C82.6487 121.688 82.4856 121.294 82.1954 121.004C81.9052 120.714 81.5115 120.551 81.1011 120.551Z" fill="#B4EDFF"/>
<path d="M124.434 114.36H122.113C121.703 114.36 121.309 114.523 121.019 114.813C120.728 115.103 120.565 115.497 120.565 115.907C120.565 116.318 120.728 116.712 121.019 117.002C121.309 117.292 121.703 117.455 122.113 117.455H124.434C124.845 117.455 125.239 117.292 125.529 117.002C125.819 116.712 125.982 116.318 125.982 115.907C125.982 115.497 125.819 115.103 125.529 114.813C125.239 114.523 124.845 114.36 124.434 114.36Z" fill="#3A576A"/>
<path d="M129.077 117.455C129.932 117.455 130.625 116.762 130.625 115.907C130.625 115.053 129.932 114.36 129.077 114.36C128.223 114.36 127.53 115.053 127.53 115.907C127.53 116.762 128.223 117.455 129.077 117.455Z" fill="#3A576A"/>
<path d="M117.255 114.36H90.3869V95.7889H113.601C114.012 95.7889 114.405 95.6258 114.696 95.3356C114.986 95.0453 115.149 94.6517 115.149 94.2412C115.149 93.8308 114.986 93.4371 114.696 93.1469C114.405 92.8567 114.012 92.6936 113.601 92.6936H88.8393C88.4288 92.6936 88.0352 92.8567 87.745 93.1469C87.4547 93.4372 87.2917 93.8308 87.2917 94.2412V114.36H36.2202V105.075H59.4345C59.845 105.075 60.2386 104.912 60.5289 104.621C60.8191 104.331 60.9821 103.937 60.9821 103.527C60.9821 103.116 60.8191 102.723 60.5289 102.433C60.2386 102.142 59.845 101.979 59.4345 101.979H36.2202V92.6936C36.2202 92.2832 36.0572 91.8895 35.7669 91.5993C35.4767 91.3091 35.0831 91.146 34.6726 91.146C34.2622 91.146 33.8685 91.3091 33.5783 91.5993C33.288 91.8895 33.125 92.2832 33.125 92.6936V114.36H13.9954C13.7752 114.332 13.5515 114.35 13.339 114.415C13.1266 114.479 12.9304 114.588 12.7635 114.735C12.5967 114.881 12.463 115.062 12.3714 115.264C12.2798 115.466 12.2324 115.686 12.2324 115.908C12.2324 116.13 12.2798 116.349 12.3714 116.552C12.463 116.754 12.5967 116.934 12.7635 117.081C12.9304 117.227 13.1266 117.337 13.339 117.401C13.5515 117.466 13.7752 117.484 13.9954 117.456H117.255C117.475 117.484 117.699 117.466 117.911 117.401C118.123 117.337 118.32 117.227 118.486 117.081C118.653 116.934 118.787 116.754 118.879 116.552C118.97 116.349 119.018 116.13 119.018 115.908C119.018 115.686 118.97 115.466 118.879 115.264C118.787 115.062 118.653 114.881 118.486 114.735C118.32 114.588 118.123 114.479 117.911 114.415C117.699 114.35 117.475 114.332 117.255 114.36Z" fill="#3A576A"/>
<path d="M109.425 6.80057C109.884 6.80057 110.333 6.66442 110.715 6.40934C111.097 6.15426 111.394 5.7917 111.57 5.36752C111.746 4.94333 111.792 4.47657 111.702 4.02626C111.612 3.57594 111.391 3.1623 111.067 2.83765C110.742 2.51299 110.328 2.29189 109.878 2.20232C109.428 2.11275 108.961 2.15872 108.537 2.33442C108.113 2.51013 107.75 2.80767 107.495 3.18943C107.24 3.57118 107.104 4.02001 107.104 4.47914C107.104 5.09461 107.349 5.68466 107.784 6.11986C108.22 6.55506 108.81 6.79987 109.425 6.80057ZM109.425 3.31843C109.655 3.31843 109.879 3.3865 110.07 3.51405C110.261 3.64159 110.41 3.82287 110.498 4.03496C110.585 4.24705 110.608 4.48043 110.564 4.70559C110.519 4.93075 110.408 5.13756 110.246 5.29989C110.084 5.46222 109.877 5.57277 109.652 5.61756C109.426 5.66234 109.193 5.63936 108.981 5.5515C108.769 5.46365 108.588 5.31488 108.46 5.124C108.333 4.93312 108.264 4.70871 108.264 4.47914C108.265 4.1714 108.387 3.87634 108.605 3.65873C108.822 3.44112 109.117 3.31873 109.425 3.31843Z" fill="#3A576A"/>
<path d="M67.9463 8.86133C67.6402 8.86133 67.341 8.95209 67.0865 9.12215C66.832 9.2922 66.6336 9.53391 66.5165 9.8167C66.3994 10.0995 66.3687 10.4107 66.4284 10.7109C66.4881 11.0111 66.6355 11.2868 66.852 11.5033C67.0684 11.7197 67.3442 11.8671 67.6444 11.9268C67.9446 11.9865 68.2558 11.9559 68.5385 11.8388C68.8213 11.7216 69.063 11.5233 69.2331 11.2688C69.4032 11.0143 69.4939 10.715 69.4939 10.4089C69.4935 9.99864 69.3302 9.60527 69.0401 9.31513C68.75 9.025 68.3566 8.8618 67.9463 8.86133ZM67.9463 11.1828C67.7933 11.1828 67.6436 11.1374 67.5164 11.0523C67.3891 10.9673 67.29 10.8465 67.2314 10.7051C67.1728 10.5637 67.1575 10.4081 67.1874 10.258C67.2172 10.1079 67.2909 9.97 67.3991 9.86178C67.5074 9.75356 67.6452 9.67986 67.7953 9.65001C67.9454 9.62015 68.101 9.63547 68.2424 9.69404C68.3838 9.75261 68.5047 9.85179 68.5897 9.97904C68.6747 10.1063 68.7201 10.2559 68.7201 10.4089C68.7199 10.6141 68.6383 10.8108 68.4932 10.9559C68.3482 11.101 68.1515 11.1826 67.9463 11.1828Z" fill="#3A576A"/>
<path d="M5.032 2.15771C4.7259 2.15771 4.42669 2.24848 4.17218 2.41854C3.91768 2.58859 3.71932 2.8303 3.60218 3.11309C3.48505 3.39588 3.4544 3.70705 3.51411 4.00726C3.57383 4.30747 3.72122 4.58323 3.93766 4.79967C4.1541 5.0161 4.42986 5.1635 4.73007 5.22322C5.03028 5.28293 5.34145 5.25228 5.62424 5.13515C5.90703 5.01801 6.14874 4.81965 6.31879 4.56515C6.48885 4.31064 6.57961 4.01142 6.57961 3.70533C6.57914 3.29502 6.41594 2.90165 6.12581 2.61152C5.83568 2.32139 5.44231 2.15818 5.032 2.15771ZM5.032 4.47914C4.87895 4.47914 4.72934 4.43376 4.60209 4.34873C4.47484 4.26371 4.37566 4.14285 4.31709 4.00146C4.25852 3.86006 4.2432 3.70448 4.27305 3.55437C4.30291 3.40427 4.37661 3.26639 4.48483 3.15817C4.59305 3.04995 4.73093 2.97625 4.88103 2.94639C5.03114 2.91654 5.18672 2.93186 5.32812 2.99043C5.46951 3.049 5.59037 3.14818 5.67539 3.27543C5.76042 3.40268 5.8058 3.55229 5.8058 3.70533C5.8056 3.9105 5.72401 4.1072 5.57893 4.25227C5.43386 4.39735 5.23716 4.47894 5.032 4.47914Z" fill="#3A576A"/>
<path d="M126.949 16.8599C126.643 16.8599 126.344 16.9506 126.089 17.1207C125.835 17.2907 125.637 17.5324 125.519 17.8152C125.402 18.098 125.372 18.4092 125.431 18.7094C125.491 19.0096 125.638 19.2854 125.855 19.5018C126.071 19.7183 126.347 19.8656 126.647 19.9254C126.948 19.9851 127.259 19.9544 127.541 19.8373C127.824 19.7202 128.066 19.5218 128.236 19.2673C128.406 19.0128 128.497 18.7136 128.497 18.4075C128.496 17.9972 128.333 17.6038 128.043 17.3137C127.753 17.0235 127.36 16.8603 126.949 16.8599ZM126.949 19.1813C126.796 19.1813 126.647 19.1359 126.519 19.0509C126.392 18.9659 126.293 18.845 126.234 18.7036C126.176 18.5622 126.16 18.4066 126.19 18.2565C126.22 18.1064 126.294 17.9685 126.402 17.8603C126.51 17.7521 126.648 17.6784 126.798 17.6485C126.948 17.6187 127.104 17.634 127.245 17.6926C127.387 17.7511 127.508 17.8503 127.593 17.9776C127.678 18.1048 127.723 18.2544 127.723 18.4075C127.723 18.6126 127.641 18.8093 127.496 18.9544C127.351 19.0995 127.154 19.1811 126.949 19.1813Z" fill="#3A576A"/>
<path d="M32.0904 13.5042C32.0904 13.1981 31.9996 12.8989 31.8295 12.6444C31.6595 12.3898 31.4178 12.1915 31.135 12.0743C30.8522 11.9572 30.541 11.9266 30.2408 11.9863C29.9406 12.046 29.6648 12.1934 29.4484 12.4098C29.232 12.6263 29.0846 12.902 29.0249 13.2022C28.9651 13.5024 28.9958 13.8136 29.1129 14.0964C29.2301 14.3792 29.4284 14.6209 29.6829 14.791C29.9374 14.961 30.2366 15.0518 30.5427 15.0518C30.953 15.0513 31.3464 14.8881 31.6366 14.598C31.9267 14.3078 32.0899 13.9145 32.0904 13.5042ZM29.7689 13.5042C29.7689 13.3511 29.8143 13.2015 29.8993 13.0743C29.9844 12.947 30.1052 12.8478 30.2466 12.7893C30.388 12.7307 30.5436 12.7154 30.6937 12.7452C30.8438 12.7751 30.9817 12.8488 31.0899 12.957C31.1981 13.0652 31.2718 13.2031 31.3017 13.3532C31.3315 13.5033 31.3162 13.6589 31.2576 13.8003C31.1991 13.9417 31.0999 14.0625 30.9726 14.1476C30.8454 14.2326 30.6958 14.278 30.5427 14.278C30.3376 14.2778 30.1409 14.1962 29.9958 14.0511C29.8507 13.906 29.7691 13.7093 29.7689 13.5042Z" fill="#3A576A"/>
<path d="M6.12751 28.0893L7.27739 26.5757L6.55079 26.1641L5.81257 27.8587H5.78781L5.03799 26.1764L4.29823 26.5997L5.43727 28.0769V28.1017L3.65674 27.8711V28.6944L5.44888 28.4646V28.4886L4.29823 29.9658L4.98846 30.4014L5.7762 28.6944H5.80019L6.5268 30.3891L7.28977 29.9534L6.12751 28.501V28.4762L7.95525 28.6944V27.8711L6.12751 28.1133V28.0893Z" fill="#B4EDFF"/>
<path d="M46.9654 3.05012L46.303 3.90053L46.7 4.15125L47.1534 3.16851H47.1673L47.586 4.14428L48.0255 3.89357L47.3561 3.05631V3.04238L48.4085 3.16851V2.69416L47.3561 2.83345V2.81952L48.0185 1.94821L47.5999 1.71143L47.1743 2.6872H47.1604L46.7286 1.71762L46.303 1.96214L46.9584 2.81256V2.82649L45.9331 2.69416V3.16851L46.9654 3.03619V3.05012Z" fill="#B4EDFF"/>
<path d="M125.382 35.6037V34.7966L123.589 35.0342V35.0102L124.718 33.526L124.005 33.1221L123.281 34.7842H123.256L122.521 33.1337L121.795 33.55L122.913 34.9986V35.0225L121.166 34.7966V35.6037L122.924 35.3785V35.4025L121.795 36.8511L122.472 37.279L123.245 35.6037H123.268L123.98 37.2666L124.729 36.8395L123.589 35.4141V35.3901L125.382 35.6037Z" fill="#B4EDFF"/>
<path d="M90.9658 14.9919L91.9392 13.712L91.3241 13.3638L90.6996 14.7976H90.6787L90.0442 13.3738L89.4182 13.7321L90.3816 14.9818V15.0027L88.8757 14.8077V15.5041L90.3916 15.3099V15.33L89.4182 16.5797L90.0024 16.9488L90.6687 15.5041H90.6888L91.3039 16.9388L91.9493 16.5697L90.9658 15.3401V15.32L92.5119 15.5041V14.8077L90.9658 15.0128V14.9919Z" fill="#B4EDFF"/>
</g>
<defs>
<clipPath id="clip0_2055_398">
<rect width="130" height="130" fill="white" transform="translate(0.625)"/>
</clipPath>
</defs>
</svg>
