<svg width="130" height="130" viewBox="0 0 130 130" fill="none" xmlns="http://www.w3.org/2000/svg">
<g clip-path="url(#clip0_30_4334)">
<path d="M1.54762 103.304C2.40235 103.304 3.09524 102.611 3.09524 101.756C3.09524 100.901 2.40235 100.208 1.54762 100.208C0.692893 100.208 0 100.901 0 101.756C0 102.611 0.692893 103.304 1.54762 103.304Z" fill="#5A859D"/>
<path d="M8.51187 100.208H6.19044C5.77999 100.208 5.38634 100.372 5.09611 100.662C4.80587 100.952 4.64282 101.346 4.64282 101.756C4.64282 102.167 4.80587 102.56 5.09611 102.85C5.38634 103.141 5.77999 103.304 6.19044 103.304H8.51187C8.92232 103.304 9.31597 103.141 9.6062 102.85C9.89644 102.56 10.0595 102.167 10.0595 101.756C10.0595 101.346 9.89644 100.952 9.6062 100.662C9.31597 100.372 8.92232 100.208 8.51187 100.208Z" fill="#5A859D"/>
<path d="M94.4285 106.399H87.9999C87.6108 106.43 87.2478 106.607 86.983 106.893C86.7183 107.18 86.5713 107.556 86.5713 107.947C86.5713 108.337 86.7183 108.713 86.983 109C87.2478 109.286 87.6108 109.463 87.9999 109.494H94.4285C94.8175 109.463 95.1806 109.286 95.4453 109C95.71 108.713 95.8571 108.337 95.8571 107.947C95.8571 107.556 95.71 107.18 95.4453 106.893C95.1806 106.607 94.8175 106.43 94.4285 106.399Z" fill="#B4EDFF"/>
<path d="M42.0002 106.399H35.5716C35.1826 106.43 34.8195 106.607 34.5548 106.893C34.2901 107.18 34.1431 107.556 34.1431 107.947C34.1431 108.337 34.2901 108.713 34.5548 109C34.8195 109.286 35.1826 109.463 35.5716 109.494H42.0002C42.3893 109.463 42.7523 109.286 43.0171 109C43.2818 108.713 43.4288 108.337 43.4288 107.947C43.4288 107.556 43.2818 107.18 43.0171 106.893C42.7523 106.607 42.3893 106.43 42.0002 106.399Z" fill="#B4EDFF"/>
<path d="M80.4762 106.399H49.5238C49.1134 106.399 48.7197 106.562 48.4295 106.852C48.1392 107.142 47.9762 107.536 47.9762 107.947C47.9762 108.357 48.1392 108.751 48.4295 109.041C48.7197 109.331 49.1134 109.494 49.5238 109.494H61.8583V111.042H55.7143C55.3038 111.042 54.9102 111.205 54.62 111.495C54.3297 111.785 54.1667 112.179 54.1667 112.589C54.1667 113 54.3297 113.394 54.62 113.684C54.9102 113.974 55.3038 114.137 55.7143 114.137H75.0595C75.47 114.137 75.8636 113.974 76.1539 113.684C76.4441 113.394 76.6071 113 76.6071 112.589C76.6071 112.179 76.4441 111.785 76.1539 111.495C75.8636 111.205 75.47 111.042 75.0595 111.042H68.1417V109.494H80.4762C80.8867 109.494 81.2803 109.331 81.5705 109.041C81.8608 108.751 82.0238 108.357 82.0238 107.947C82.0238 107.536 81.8608 107.142 81.5705 106.852C81.2803 106.562 80.8867 106.399 80.4762 106.399Z" fill="#B4EDFF"/>
<path d="M123.809 100.208H121.488C121.078 100.208 120.684 100.372 120.394 100.662C120.103 100.952 119.94 101.346 119.94 101.756C119.94 102.167 120.103 102.56 120.394 102.85C120.684 103.141 121.078 103.304 121.488 103.304H123.809C124.22 103.304 124.614 103.141 124.904 102.85C125.194 102.56 125.357 102.167 125.357 101.756C125.357 101.346 125.194 100.952 124.904 100.662C124.614 100.372 124.22 100.208 123.809 100.208Z" fill="#5A859D"/>
<path d="M128.452 103.304C129.307 103.304 130 102.611 130 101.756C130 100.901 129.307 100.208 128.452 100.208C127.598 100.208 126.905 100.901 126.905 101.756C126.905 102.611 127.598 103.304 128.452 103.304Z" fill="#5A859D"/>
<path d="M114.524 76.3157C114.524 76.5189 114.484 76.7202 114.406 76.908C114.328 77.0958 114.214 77.2664 114.071 77.4101C113.927 77.5539 113.756 77.6679 113.568 77.7456C113.381 77.8234 113.179 77.8634 112.976 77.8633H100.595V74.7681H112.976C113.386 74.7693 113.779 74.9327 114.069 75.2227C114.359 75.5127 114.523 75.9056 114.524 76.3157Z" fill="#B4EDFF"/>
<path d="M114.524 70.1248C114.524 70.328 114.484 70.5293 114.406 70.7171C114.328 70.9049 114.214 71.0755 114.071 71.2192C113.927 71.3629 113.756 71.4769 113.568 71.5547C113.381 71.6324 113.179 71.6724 112.976 71.6724H100.595V68.5771H112.976C113.386 68.5783 113.779 68.7418 114.069 69.0318C114.359 69.3217 114.523 69.7147 114.524 70.1248Z" fill="#B4EDFF"/>
<path d="M116.628 97.2083H72.3123C72.6814 96.8642 72.9946 96.4648 73.2409 96.0244C74.1453 96.6455 75.2315 96.9464 76.3266 96.8791C77.4217 96.8117 78.4628 96.3802 79.2844 95.653C80.0298 94.9953 80.5519 94.1217 80.7778 93.1536C81.5605 93.4686 82.418 93.5485 83.2454 93.3836C84.0728 93.2187 84.8341 92.816 85.4361 92.225C86.3168 91.4484 86.8791 90.3735 87.0147 89.2071L90.2725 88.4643C90.5668 88.9966 90.9967 89.4416 91.5186 89.7542C92.0404 90.0668 92.6357 90.2358 93.2439 90.2441H97.1129C97.9201 90.2264 98.6969 89.9326 99.3137 89.4116C99.9304 88.8906 100.35 88.1739 100.502 87.381L112.597 90.4143C112.72 90.4483 112.848 90.4639 112.976 90.4607C113.353 90.4616 113.717 90.3246 114 90.0754C114.283 89.8262 114.465 89.4821 114.512 89.108C114.558 88.7339 114.466 88.3557 114.253 88.0447C114.04 87.7336 113.721 87.5113 113.355 87.4196L100.595 84.2083V62.2322L113.355 59.0286C113.753 58.928 114.095 58.6734 114.306 58.3208C114.516 57.9681 114.578 57.5464 114.477 57.1482C114.377 56.7501 114.122 56.4082 113.769 56.1978C113.417 55.9874 112.995 55.9256 112.597 56.0262L99.8832 59.222C99.5738 58.7716 99.1606 58.4022 98.6784 58.1449C98.1963 57.8877 97.6594 57.7502 97.1129 57.7441H93.2439C92.6039 57.7546 91.9794 57.9425 91.4398 58.2868C90.9002 58.631 90.4667 59.1182 90.1873 59.694C84.7707 58.7964 78.4177 55.678 78.3248 55.6315C74.5796 53.8518 72.1885 52.9542 72.0879 52.9155C71.9997 52.8851 71.9091 52.8618 71.8171 52.8459C63.9397 51.4453 61.0302 53.2792 60.3725 53.8209L51.8992 60.0655H41.7236C41.614 59.2274 41.2096 58.4558 40.583 57.8886C39.9563 57.3215 39.1482 56.9959 38.3034 56.9702H34.4344C33.6927 56.9885 32.976 57.2419 32.3877 57.6939C31.7994 58.146 31.3699 58.7732 31.1611 59.4851L17.4028 56.0262C17.0047 55.9256 16.5829 55.9874 16.2303 56.1978C15.8776 56.4082 15.623 56.7501 15.5225 57.1482C15.4219 57.5464 15.4836 57.9681 15.694 58.3208C15.9045 58.6734 16.2463 58.928 16.6445 59.0286L30.9522 62.6268V83.8214L16.6445 87.4196C16.2788 87.5113 15.9593 87.7336 15.7463 88.0447C15.5332 88.3557 15.4414 88.7339 15.488 89.108C15.5346 89.4821 15.7166 89.8262 15.9995 90.0754C16.2824 90.3246 16.6467 90.4616 17.0236 90.4607C17.1516 90.4639 17.2794 90.4483 17.4028 90.4143L31.1611 86.9631C31.3702 87.6742 31.8 88.3003 32.3885 88.751C32.9769 89.2017 33.6934 89.4536 34.4344 89.4702H38.3034C39.1574 89.4432 39.9733 89.1104 40.6025 88.5324C41.2317 87.9543 41.6323 87.1695 41.7314 86.3208H42.3969L56.279 97.2083H13.3713C13.151 97.1794 12.9271 97.1978 12.7145 97.2623C12.5019 97.3268 12.3056 97.436 12.1385 97.5825C11.9715 97.729 11.8377 97.9095 11.746 98.1118C11.6544 98.3142 11.6069 98.5338 11.6069 98.756C11.6069 98.9781 11.6544 99.1977 11.746 99.4001C11.8377 99.6025 11.9715 99.7829 12.1385 99.9294C12.3056 100.076 12.5019 100.185 12.7145 100.25C12.9271 100.314 13.151 100.333 13.3713 100.304H116.628C116.849 100.333 117.073 100.314 117.285 100.25C117.498 100.185 117.694 100.076 117.861 99.9294C118.028 99.7829 118.162 99.6025 118.254 99.4001C118.345 99.1977 118.393 98.9781 118.393 98.756C118.393 98.5338 118.345 98.3142 118.254 98.1118C118.162 97.9095 118.028 97.729 117.861 97.5825C117.694 97.436 117.498 97.3268 117.285 97.2623C117.073 97.1978 116.849 97.1794 116.628 97.2083ZM92.857 61.4196C92.857 61.0869 93.0582 60.8393 93.2439 60.8393H97.1129C97.2987 60.8393 97.4998 61.0869 97.4998 61.4196V86.5762C97.4998 86.9089 97.2987 87.1488 97.1129 87.1488H93.2439C93.0582 87.1488 92.857 86.9089 92.857 86.5762V61.4196ZM38.6903 85.7482C38.6903 86.1351 38.4582 86.375 38.3034 86.375H34.4344C34.2796 86.375 34.0475 86.1351 34.0475 85.7482V60.7C34.0475 60.3131 34.2796 60.0655 34.4344 60.0655H38.3034C38.4582 60.0655 38.6903 60.3131 38.6903 60.7V85.7482ZM50.7617 64.7393C50.8159 64.7083 50.8701 64.6774 50.9165 64.6464L62.2528 56.2816C62.2745 56.2676 62.293 56.2491 62.307 56.2274C62.3302 56.2119 64.4504 54.703 71.1362 55.8637C71.6701 56.0726 77.8141 58.8274 78.9361 59.3226C78.9516 60.7077 78.6344 63.9655 75.4617 64.7548C75.0946 64.8452 74.7733 65.067 74.5585 65.3782C74.3438 65.6894 74.2504 66.0685 74.2962 66.4438C74.3419 66.8191 74.5235 67.1647 74.8067 67.4153C75.0899 67.6658 75.4551 67.8039 75.8332 67.8036C75.9581 67.806 76.0829 67.793 76.2046 67.7649C80.2594 66.7589 81.6677 63.3155 81.9695 60.553C84.4899 61.5352 87.0995 62.2712 89.7617 62.7506V85.4077L86.2409 86.2125L67.0195 64.3446L64.8296 62.0774C64.5599 61.7999 64.1965 61.6328 63.8103 61.6084C63.4241 61.5841 63.0427 61.7044 62.7403 61.9458C60.0862 64.097 56.6969 66.55 55.8766 66.7821C54.7778 67.0607 51.5897 67.4476 50.0963 65.9077C50.0731 65.8845 49.8951 65.6369 49.9106 65.5131C49.926 65.4048 50.1195 65.1107 50.7617 64.7393ZM70.1766 94.9798C69.823 95.2933 69.3603 95.4552 68.8884 95.4306C68.4164 95.406 67.9731 95.1968 67.654 94.8482L65.9826 93.0143C65.8769 92.9038 65.7572 92.8075 65.6266 92.728L58.4689 85.6399C58.3247 85.4966 58.1537 85.3831 57.9656 85.306C57.7775 85.2289 57.576 85.1896 57.3727 85.1905C57.1694 85.1913 56.9683 85.2323 56.7809 85.3109C56.5934 85.3896 56.4233 85.5045 56.2804 85.649C56.1374 85.7935 56.0243 85.9648 55.9476 86.1531C55.8709 86.3414 55.8321 86.5429 55.8334 86.7462C55.8348 86.9495 55.8761 87.1505 55.9553 87.3378C56.0344 87.525 56.1496 87.6949 56.2945 87.8375L63.46 94.9411C63.4909 94.972 63.5219 94.9875 63.5528 95.0185C63.6414 95.3278 63.6412 95.6558 63.5522 95.965C63.4633 96.2743 63.2892 96.5522 63.0498 96.7673C62.8262 97.0048 62.5291 97.1602 62.2064 97.2083H62.0284C61.4039 97.1318 60.8165 96.8704 60.3415 96.4577L43.8903 83.5583C43.6197 83.3432 43.2843 83.2259 42.9385 83.2256H41.7856V63.1607H47.7981C47.2744 63.6982 46.9379 64.3901 46.8385 65.1339C46.7926 65.6775 46.865 66.2246 47.0507 66.7375C47.2364 67.2505 47.5309 67.7171 47.9141 68.1054C50.9165 71.2083 56.4106 69.8387 56.635 69.7845C58.082 69.4286 61.4326 66.9214 63.576 65.2423L83.904 88.2399C83.9449 88.3938 83.9631 88.5528 83.9582 88.7119C83.9466 88.9416 83.8893 89.1667 83.7897 89.374C83.69 89.5813 83.55 89.7666 83.3778 89.9191C82.9367 90.3137 82.3796 90.8089 80.6463 89.6018L80.2284 89.2613C80.175 89.1527 80.1045 89.0534 80.0195 88.9673L73.4034 81.8637C73.1233 81.563 72.7352 81.386 72.3245 81.3715C71.9138 81.357 71.5142 81.5062 71.2135 81.7863C70.9129 82.0664 70.7358 82.4545 70.7213 82.8652C70.7068 83.2759 70.856 83.6755 71.1362 83.9762L77.0248 90.2905C77.0881 90.5082 77.1991 90.7092 77.3498 90.8786C77.5058 91.048 77.6266 91.2468 77.7049 91.4633C77.7833 91.6799 77.8178 91.9099 77.8064 92.1399C77.7948 92.3685 77.7374 92.5924 77.6377 92.7984C77.538 93.0044 77.398 93.1883 77.226 93.3393C76.8742 93.6555 76.4117 93.8199 75.9392 93.7967C75.4668 93.7735 75.0226 93.5646 74.7034 93.2155L73.6356 92.0393C73.5728 91.9141 73.4948 91.7972 73.4034 91.6911L66.2302 84.0458C65.9496 83.748 65.5625 83.5735 65.1535 83.5605C64.7445 83.5475 64.347 83.6971 64.0482 83.9766C63.7493 84.256 63.5733 84.6425 63.5588 85.0514C63.5442 85.4604 63.6924 85.8584 63.9707 86.1583L70.6951 93.3316C70.7589 93.6277 70.7447 93.9353 70.6538 94.2242C70.5629 94.5132 70.3985 94.7735 70.1766 94.9798Z" fill="#5A859D"/>
<path d="M30.9523 68.5771V71.6724H17.0237C16.6132 71.6724 16.2196 71.5093 15.9294 71.2191C15.6391 70.9289 15.4761 70.5352 15.4761 70.1248C15.4761 69.7143 15.6391 69.3207 15.9294 69.0304C16.2196 68.7402 16.6132 68.5771 17.0237 68.5771H30.9523Z" fill="#B4EDFF"/>
<path d="M30.9523 74.7681V77.8633H17.0237C16.6132 77.8633 16.2196 77.7003 15.9294 77.41C15.6391 77.1198 15.4761 76.7261 15.4761 76.3157C15.4761 75.9052 15.6391 75.5116 15.9294 75.2214C16.2196 74.9311 16.6132 74.7681 17.0237 74.7681H30.9523Z" fill="#B4EDFF"/>
<path d="M6.64272 30.1131C7.10185 30.1131 7.55068 29.9769 7.93243 29.7218C8.31419 29.4668 8.61173 29.1042 8.78744 28.68C8.96314 28.2558 9.00911 27.7891 8.91954 27.3388C8.82997 26.8884 8.60887 26.4748 8.28422 26.1501C7.95956 25.8255 7.54592 25.6044 7.09561 25.5148C6.64529 25.4252 6.17853 25.4712 5.75435 25.6469C5.33016 25.8226 4.9676 26.1202 4.71252 26.5019C4.45744 26.8837 4.32129 27.3325 4.32129 27.7916C4.32199 28.4071 4.5668 28.9972 5.002 29.4324C5.4372 29.8676 6.02725 30.1124 6.64272 30.1131ZM6.64272 26.6309C6.87229 26.6309 7.0967 26.699 7.28758 26.8265C7.47845 26.9541 7.62723 27.1354 7.71508 27.3475C7.80293 27.5596 7.82592 27.7929 7.78113 28.0181C7.73634 28.2432 7.6258 28.4501 7.46347 28.6124C7.30114 28.7747 7.09432 28.8853 6.86916 28.9301C6.64401 28.9748 6.41062 28.9519 6.19853 28.864C5.98644 28.7762 5.80516 28.6274 5.67762 28.4365C5.55008 28.2456 5.482 28.0212 5.482 27.7916C5.48231 27.4839 5.60469 27.1888 5.8223 26.9712C6.03991 26.7536 6.33497 26.6312 6.64272 26.6309Z" fill="#5A859D"/>
<path d="M126.497 58.7441C126.191 58.7441 125.892 58.8349 125.638 59.005C125.383 59.175 125.185 59.4167 125.068 59.6995C124.95 59.9823 124.92 60.2935 124.979 60.5937C125.039 60.8939 125.187 61.1697 125.403 61.3861C125.619 61.6025 125.895 61.7499 126.195 61.8096C126.496 61.8694 126.807 61.8387 127.09 61.7216C127.372 61.6044 127.614 61.4061 127.784 61.1516C127.954 60.8971 128.045 60.5978 128.045 60.2918C128.044 59.8814 127.881 59.4881 127.591 59.1979C127.301 58.9078 126.908 58.7446 126.497 58.7441ZM126.497 61.0656C126.344 61.0656 126.195 61.0202 126.067 60.9352C125.94 60.8501 125.841 60.7293 125.782 60.5879C125.724 60.4465 125.709 60.2909 125.738 60.1408C125.768 59.9907 125.842 59.8528 125.95 59.7446C126.058 59.6364 126.196 59.5627 126.346 59.5328C126.496 59.503 126.652 59.5183 126.793 59.5769C126.935 59.6354 127.056 59.7346 127.141 59.8619C127.226 59.9891 127.271 60.1387 127.271 60.2918C127.271 60.4969 127.189 60.6936 127.044 60.8387C126.899 60.9838 126.702 61.0654 126.497 61.0656Z" fill="#5A859D"/>
<path d="M79.9285 46.4199C79.6224 46.4199 79.3232 46.5107 79.0687 46.6807C78.8142 46.8508 78.6158 47.0925 78.4987 47.3753C78.3815 47.6581 78.3509 47.9693 78.4106 48.2695C78.4703 48.5697 78.6177 48.8454 78.8341 49.0619C79.0506 49.2783 79.3263 49.4257 79.6266 49.4854C79.9268 49.5451 80.2379 49.5145 80.5207 49.3974C80.8035 49.2802 81.0452 49.0819 81.2153 48.8273C81.3853 48.5728 81.4761 48.2736 81.4761 47.9675C81.4756 47.5572 81.3124 47.1639 81.0223 46.8737C80.7322 46.5836 80.3388 46.4204 79.9285 46.4199ZM79.9285 48.7414C79.7754 48.7414 79.6258 48.696 79.4986 48.6109C79.3713 48.5259 79.2721 48.4051 79.2136 48.2637C79.155 48.1223 79.1397 47.9667 79.1695 47.8166C79.1994 47.6665 79.2731 47.5286 79.3813 47.4204C79.4895 47.3122 79.6274 47.2385 79.7775 47.2086C79.9276 47.1787 80.0832 47.1941 80.2246 47.2526C80.366 47.3112 80.4868 47.4104 80.5719 47.5376C80.6569 47.6649 80.7023 47.8145 80.7023 47.9675C80.7021 48.1727 80.6205 48.3694 80.4754 48.5145C80.3303 48.6596 80.1336 48.7411 79.9285 48.7414Z" fill="#5A859D"/>
<path d="M105.464 13.8633C105.158 13.8633 104.859 13.954 104.604 14.1241C104.35 14.2942 104.151 14.5359 104.034 14.8187C103.917 15.1014 103.887 15.4126 103.946 15.7128C104.006 16.013 104.153 16.2888 104.37 16.5052C104.586 16.7217 104.862 16.8691 105.162 16.9288C105.462 16.9885 105.774 16.9578 106.056 16.8407C106.339 16.7236 106.581 16.5252 106.751 16.2707C106.921 16.0162 107.012 15.717 107.012 15.4109C107.011 15.0006 106.848 14.6072 106.558 14.3171C106.268 14.027 105.874 13.8638 105.464 13.8633ZM105.464 16.1847C105.311 16.1847 105.161 16.1393 105.034 16.0543C104.907 15.9693 104.808 15.8484 104.749 15.707C104.691 15.5656 104.675 15.41 104.705 15.2599C104.735 15.1098 104.809 14.972 104.917 14.8637C105.025 14.7555 105.163 14.6818 105.313 14.652C105.463 14.6221 105.619 14.6374 105.76 14.696C105.902 14.7546 106.022 14.8537 106.108 14.981C106.193 15.1082 106.238 15.2579 106.238 15.4109C106.238 15.6161 106.156 15.8128 106.011 15.9578C105.866 16.1029 105.669 16.1845 105.464 16.1847Z" fill="#5A859D"/>
<path d="M37.5952 35.968C37.5952 35.6619 37.5045 35.3627 37.3344 35.1082C37.1644 34.8537 36.9227 34.6554 36.6399 34.5382C36.3571 34.4211 36.0459 34.3904 35.7457 34.4501C35.4455 34.5099 35.1697 34.6573 34.9533 34.8737C34.7368 35.0901 34.5895 35.3659 34.5297 35.6661C34.47 35.9663 34.5007 36.2775 34.6178 36.5603C34.7349 36.8431 34.9333 37.0848 35.1878 37.2548C35.4423 37.4249 35.7415 37.5156 36.0476 37.5156C36.4579 37.5152 36.8513 37.352 37.1414 37.0618C37.4316 36.7717 37.5948 36.3783 37.5952 35.968ZM35.2738 35.968C35.2738 35.815 35.3192 35.6654 35.4042 35.5381C35.4892 35.4109 35.6101 35.3117 35.7515 35.2531C35.8929 35.1946 36.0485 35.1792 36.1986 35.2091C36.3487 35.2389 36.4866 35.3126 36.5948 35.4209C36.703 35.5291 36.7767 35.667 36.8066 35.8171C36.8364 35.9672 36.8211 36.1228 36.7625 36.2642C36.704 36.4055 36.6048 36.5264 36.4775 36.6114C36.3503 36.6965 36.2007 36.7418 36.0476 36.7418C35.8425 36.7416 35.6458 36.66 35.5007 36.515C35.3556 36.3699 35.274 36.1732 35.2738 35.968Z" fill="#5A859D"/>
<path d="M8.42536 57.7526L9.57602 56.2398L8.84941 55.8281L8.11042 57.5228H8.08643L7.33584 55.8397L6.59685 56.2638L7.73513 57.741V57.765L5.95459 57.5351V58.3585L7.74673 58.1287V58.1526L6.59685 59.6291L7.28632 60.0655L8.07405 58.3585H8.09804L8.82465 60.0531L9.58763 59.6175L8.42536 58.1643V58.1403L10.2531 58.3585V57.5351L8.42536 57.7766V57.7526Z" fill="#B4EDFF"/>
<path d="M63.9099 21.2166L63.2475 22.067L63.6453 22.3185L64.0987 21.335H64.1126L64.5305 22.3116L64.97 22.0601L64.3007 21.2236V21.2097L65.3531 21.335V20.8607L64.3007 21.0007V20.9868L64.9631 20.1147L64.5452 19.8779L64.1196 20.8537H64.1057L63.6731 19.8849L63.2475 20.1286L63.9037 20.9798V20.9938L62.8784 20.8607V21.335L63.9099 21.2027V21.2166Z" fill="#B4EDFF"/>
<path d="M127.465 28.988V28.1809L125.672 28.4177V28.3944L126.801 26.9103L126.089 26.5063L125.364 28.1685H125.34L124.604 26.518L123.879 26.9335L124.996 28.3828V28.406L123.25 28.1809V28.988L125.008 28.7628V28.7868L123.879 30.2346L124.556 30.6625L125.329 28.988H125.351L126.064 30.6509L126.813 30.223L125.672 28.7984V28.7744L127.465 28.988Z" fill="#B4EDFF"/>
<path d="M101.685 33.2282L102.659 31.9483L102.044 31.6001L101.419 33.034H101.398L100.764 31.6102L100.138 31.9684L101.102 33.2181V33.239L99.5952 33.044V33.7405L101.112 33.5462V33.5663L100.138 34.816L100.722 35.1852L101.388 33.7405H101.408L102.023 35.1751L102.669 34.806L101.685 33.5764V33.5563L103.232 33.7405V33.044L101.685 33.2491V33.2282Z" fill="#B4EDFF"/>
</g>
<defs>
<clipPath id="clip0_30_4334">
<rect width="130" height="130" fill="white"/>
</clipPath>
</defs>
</svg>
