<svg width="149" height="176" viewBox="0 0 149 176" fill="none" xmlns="http://www.w3.org/2000/svg">
<g filter="url(#filter0_d_174_190)">
<path d="M126.861 76.012L130.796 73.3203V75.5972L126.861 78.3923V76.012Z" fill="#3A565E"/>
<path d="M131.314 70.0808L128.71 71.5736L127.393 72.3281V70.0808L131.314 67.7287V70.0808Z" fill="#3A565E"/>
<path d="M109.154 62.5063L106.374 64.222L96.4636 68.4375L101.434 65.5095L109.154 62.5063Z" fill="#D1E1E6"/>
<path d="M106.374 64.2219L109.525 69.6511L100.443 75.7004L96.4636 68.4374L106.374 64.2219Z" fill="#869EA6"/>
<path d="M109.938 68.7785C110.53 68.4375 111.536 67.7729 112.231 67.299L112.395 67.5501L109.525 69.6511L106.374 64.222L109.154 62.5063L109.599 63.1869V63.2017C108.623 63.779 107.794 64.2515 107.588 64.371C106.522 64.9617 107.394 66.2935 108.282 65.8196C108.623 65.6424 109.495 65.096 110.427 64.4892L111.492 66.1458C110.545 66.7217 109.481 67.3729 109.154 67.5501C108.505 67.9059 108.962 69.3262 109.938 68.7785Z" fill="#3A565E"/>
<path d="M112.942 65.2288L112.75 66.9593C112.617 67.0479 112.438 67.166 112.231 67.2989C111.536 67.7728 110.53 68.4374 109.938 68.7784C108.962 69.3261 108.505 67.9058 109.154 67.55C109.481 67.3728 110.545 66.7216 111.492 66.1457C112.084 65.7752 112.63 65.4355 112.942 65.2288Z" fill="#869EA6"/>
<path d="M113.416 60.9528L113.222 62.6833C112.691 63.0391 111.507 63.7936 110.427 64.489C109.495 65.0958 108.623 65.6422 108.282 65.8194C107.394 66.2933 106.522 64.9615 107.588 64.3708C107.795 64.2513 108.623 63.7788 109.599 63.2015V63.1868C111.019 62.3584 112.75 61.3381 113.416 60.9528Z" fill="#869EA6"/>
<path d="M122.911 59.1044L131.314 67.7287L127.393 70.0808L118.858 61.6794L122.911 59.1044Z" fill="#B2C6CC"/>
<path d="M122.911 59.1043L118.858 61.6792L113.711 58.2907L117.794 55.5547L122.911 59.1043Z" fill="#D1E1E6"/>
<path d="M118.192 66.3231L120.59 67.8912L117.794 69.5774L118.192 66.3231Z" fill="#3A565E"/>
<path d="M130.796 73.3202L126.861 76.012L117.794 69.5773L120.59 67.8911L127.393 72.3281L128.71 71.5736L130.796 73.3202Z" fill="#547078"/>
<path d="M127.393 70.0808V72.3282L120.59 67.8912L118.192 66.3231L117.794 69.5774L126.861 76.012V78.3923L116.921 73.8224L112.396 70.0808L112.75 66.9595L112.942 65.229L113.222 62.6836L113.416 60.9531L113.711 58.2908L118.858 61.6794L127.393 70.0808Z" fill="#869EA6"/>
<path d="M115.22 64.0167C116.019 64.4745 116.654 65.5835 116.654 66.5004C116.654 66.9152 116.522 67.2253 116.299 67.3878C115.723 67.7878 114.939 67.2992 114.569 66.93L114.747 67.0629C115.279 67.3582 115.707 67.122 115.707 66.5004C115.707 65.8949 115.279 65.1404 114.747 64.829C114.214 64.5336 113.785 64.7847 113.785 65.3915L113.8 65.6278C113.622 64.9176 113.726 64.2074 114.198 63.9268C114.451 63.7644 114.82 63.7791 115.22 64.0167Z" fill="#B2C6CC"/>
<path d="M114.747 64.8289C115.279 65.1403 115.707 65.8948 115.707 66.5003C115.707 67.1219 115.279 67.3582 114.747 67.0628L114.569 66.9299L114.539 66.9151C114.229 66.648 113.962 66.2493 113.844 65.8358L113.8 65.6277L113.785 65.3914C113.785 64.7846 114.215 64.5335 114.747 64.8289Z" fill="#D1E1E6"/>
<path d="M92.9879 65.8196L93.5652 66.5003L89.6599 68.4375L83.0923 61.8565C85.2967 59.7998 85.3249 56.5751 85.3249 56.5751L92.9879 65.8196Z" fill="#B2C6CC"/>
<path d="M90.931 55.6726L96.6998 64.5628L93.5651 66.5L92.9878 65.8193L85.3247 56.5748L89.8517 54.016L90.931 55.6726Z" fill="white"/>
<path d="M81.2423 62.7587C79.3937 63.971 76.761 63.8824 73.8317 62.1962C68.2414 58.9567 63.6997 51.103 63.6997 44.6388C63.6997 41.1482 65.0315 38.7814 67.1325 37.8484C68.9221 37.0509 71.2581 37.302 73.8317 38.7814C79.438 42.0209 83.9797 49.8746 83.9797 56.3388C83.9797 59.4306 82.9446 61.6337 81.2423 62.7587Z" fill="#869EA6"/>
<path d="M85.325 56.575C85.325 56.575 85.2968 59.7996 83.0924 61.8564L81.2424 62.7585C82.9447 61.6335 83.9798 59.4305 83.9798 56.3387C83.9798 49.8745 79.4381 42.0208 73.8317 38.7813C71.2581 37.3018 68.9221 37.0508 67.1326 37.8482V37.8348L73.8317 34.5362C75.6804 33.3521 78.2848 33.4555 81.1846 35.127C86.7749 38.3664 91.3166 46.2201 91.3166 52.6857C91.3166 53.7946 91.1824 54.8001 90.9313 55.6728L89.8519 54.0161L85.325 56.575Z" fill="#B2C6CC"/>
<mask id="mask0_174_190" style="mask-type:luminance" maskUnits="userSpaceOnUse" x="69" y="33" width="23" height="21">
<path d="M89.0357 53.7717L86.8675 52.5218L85.9345 51.9808L85.8794 51.9513V44.8239L85.8781 44.8252V44.8239C85.0095 44.2627 84.1234 43.7203 83.2253 43.2021C80.116 41.4072 77.1611 40.0674 74.4895 39.184C74.272 39.043 74.0532 38.9088 73.8317 38.7812C73.8169 38.7718 73.8035 38.7638 73.7887 38.7557C73.7807 38.7517 73.7726 38.7463 73.7659 38.7423C72.2663 37.8925 70.85 37.4589 69.5759 37.4078L74.2157 34.3147C74.9393 33.9401 75.7622 33.7441 76.6631 33.7441C78.023 33.7441 79.5562 34.1885 81.1846 35.1269C86.7037 38.3248 91.2011 46.0228 91.3139 52.4386C90.401 52.9649 89.4894 53.4952 89.0357 53.7717Z" fill="white"/>
</mask>
<g mask="url(#mask0_174_190)">
<path d="M89.0357 53.7717L86.8675 52.5218L85.9345 51.9808L85.8794 51.9513V44.8239L85.8781 44.8252V44.8239C85.0095 44.2627 84.1234 43.7203 83.2253 43.2021C80.116 41.4072 77.1611 40.0674 74.4895 39.184C74.272 39.043 74.0532 38.9088 73.8317 38.7812C73.8169 38.7718 73.8035 38.7638 73.7887 38.7557C73.7807 38.7517 73.7726 38.7463 73.7659 38.7423C72.2663 37.8925 70.85 37.4589 69.5759 37.4078L74.2157 34.3147C74.9393 33.9401 75.7622 33.7441 76.6631 33.7441C78.023 33.7441 79.5562 34.1885 81.1846 35.1269C86.7037 38.3248 91.2011 46.0228 91.3139 52.4386C90.401 52.9649 89.4894 53.4952 89.0357 53.7717Z" fill="url(#paint0_linear_174_190)"/>
</g>
<path d="M41.0084 60.314L36.6882 56.5925L47.188 28.1446L51.5082 31.8688L41.0084 60.314Z" fill="#A0B6BD"/>
<mask id="mask1_174_190" style="mask-type:luminance" maskUnits="userSpaceOnUse" x="37" y="33" width="13" height="21">
<path d="M37.6765 53.9155L45.2402 33.4207C46.5465 34.4907 48.0447 35.5701 49.743 36.6521L44.918 49.7229L37.6765 53.9155Z" fill="white"/>
</mask>
<g mask="url(#mask1_174_190)">
<path d="M37.6765 53.9155L45.2402 33.4207C46.5465 34.4907 48.0447 35.5701 49.743 36.6521L44.918 49.7229L37.6765 53.9155Z" fill="url(#paint1_linear_174_190)"/>
</g>
<path d="M48.9064 55.5588L44.5862 51.8361L55.086 23.3868L59.4062 27.1096L48.9064 55.5588Z" fill="#869EA6"/>
<mask id="mask2_174_190" style="mask-type:luminance" maskUnits="userSpaceOnUse" x="45" y="36" width="10" height="14">
<path d="M45.4885 49.3926L50.1054 36.8817C50.7378 37.2777 51.3969 37.6738 52.083 38.0698C52.1957 38.1584 52.3233 38.2363 52.4723 38.2994L52.4709 38.3007L54.7774 39.6513L52.7301 45.1986L45.4885 49.3926Z" fill="white"/>
</mask>
<g mask="url(#mask2_174_190)">
<path d="M45.4885 49.3926L50.1054 36.8817C50.7378 37.2777 51.3969 37.6738 52.083 38.0698C52.1957 38.1584 52.3233 38.2363 52.4723 38.2994L52.4709 38.3007L54.7774 39.6513L52.7301 45.1986L45.4885 49.3926Z" fill="url(#paint2_linear_174_190)"/>
</g>
<path d="M37.5303 107.787L35.0278 105.475L36.6053 75.1904L39.1091 77.5035L37.5303 107.787Z" fill="#231F20"/>
<path d="M69.2914 122.883L38.2269 93.9612C37.3865 99.6856 36.2373 105.379 35.2009 111.059L65.0061 127.948L68.1972 131.646L70.7547 130.12C71.3602 129.777 71.7334 129.033 71.7334 127.975C71.7334 126.215 70.6956 124.134 69.2914 122.883Z" fill="#547078"/>
<path d="M40.9817 78.533L39.8755 99.7703L42.5914 98.025L43.4855 80.8475L40.9817 78.533Z" fill="#3A565E"/>
<path d="M66.5205 124.553L39.8756 99.7703L40.9819 78.533L36.6053 75.1902L35.534 95.732L35.0278 105.475L65.6573 131.556C67.4804 132.61 68.9652 131.752 68.9652 129.645C68.9652 127.885 67.9261 125.804 66.5205 124.553Z" fill="#869EA6"/>
<path d="M65.6572 129.645C64.7443 129.119 64.0032 127.836 64.0032 126.783C64.0032 125.729 64.7456 125.3 65.6572 125.827C66.5687 126.353 67.3111 127.638 67.3111 128.689C67.3111 129.745 66.5687 130.173 65.6572 129.645Z" fill="#B5B5B5"/>
<path d="M117.078 108.599C115.812 109.892 113.573 109.712 110.773 108.095L86.9747 94.3574C82.1565 91.5731 78.584 82.7071 83.8359 80.9148L102.721 74.4976C104.352 73.9432 106.061 74.1392 107.667 75.0655C110.347 76.6148 112.516 80.0677 113.617 84.5423L117.675 101.047C118.555 104.626 118.343 107.307 117.078 108.599ZM120.317 101.564L116.26 85.0592C113.846 75.2387 107.009 68.9356 100.989 70.9816L82.0826 77.4055C78.4901 78.8971 65.6409 92.0604 65.6409 92.0604L70.1947 100.791L82.9969 108.859L100.995 119.069L105.817 117.237C105.817 117.237 122.733 111.385 120.317 101.564Z" fill="#94AFB8"/>
<path d="M89.362 95.7346L88.5525 95.2674V95.2661L89.362 95.7346Z" fill="#DFDFDF"/>
<path d="M77.1771 104.025L75.2466 102.911L75.5688 102.725L77.5168 103.83L77.1771 104.025ZM89.9659 96.68L88.4878 95.3039L88.5522 95.2677L89.3618 95.7349L90.4841 96.3833L89.9659 96.68Z" fill="#8199A1"/>
<path d="M80.8733 106.159L78.9387 105.042L79.2958 104.837L81.2492 105.943L80.8733 106.159ZM92.7935 99.3137L91.314 97.9363L92.2457 97.4006L94.1803 98.5163L92.7935 99.3137Z" fill="#8199A1"/>
<path d="M97.2008 100.26L95.9402 99.5329L95.9415 99.5315L97.2022 100.26H97.2008Z" fill="#DFDFDF"/>
<path d="M84.5664 108.291L82.6345 107.176L83.0265 106.95L84.9759 108.056L84.5664 108.291ZM95.1024 101.462L94.1399 100.566L95.9402 99.5327L97.2008 100.26L95.1024 101.462Z" fill="#8199A1"/>
<path d="M88.2436 110.414L86.3145 109.301L86.7387 109.055L88.6867 110.159L88.2436 110.414Z" fill="#8199A1"/>
<path d="M91.9272 112.542L90.0034 111.43L90.4625 111.164L92.4052 112.265L91.9272 112.542Z" fill="#8199A1"/>
<path d="M95.6449 114.687L93.7117 113.571L94.207 113.287L95.8543 114.218C95.9604 114.282 96.0664 114.337 96.1711 114.385L95.6449 114.687Z" fill="#8199A1"/>
<path d="M99.5125 116.698C98.8681 116.472 98.1781 116.15 97.4504 115.729L97.3914 115.695L98.1821 115.239C98.3472 115.351 98.515 115.456 98.6855 115.554C99.2548 115.883 99.8052 116.106 100.325 116.229L99.5125 116.698Z" fill="#8199A1"/>
<path d="M117.808 104.573C117.808 100.875 115.212 96.3793 112.009 94.5307C110.422 93.6137 108.984 93.5211 107.937 94.1078L107.926 94.1131L107.894 94.1333L94.6311 101.733L102.651 116.031L115.902 108.436C116.036 108.372 116.168 108.298 116.291 108.212C117.234 107.565 117.808 106.313 117.808 104.573Z" fill="#869EA6"/>
<path d="M112.993 85.2042C112.993 81.613 110.472 77.2471 107.364 75.4509C105.766 74.5286 104.326 74.4681 103.3 75.1099L90.0989 82.6696L97.7687 96.6089L111.3 88.8733H111.297C112.344 88.2947 112.993 87.026 112.993 85.2042Z" fill="#869EA6"/>
<path d="M91.3408 90.6628C91.3421 87.5549 89.1605 83.7784 86.4701 82.2265C85.18 81.4814 84.012 81.3901 83.1393 81.8304L83.1367 81.8264L83.0803 81.8586L82.9809 81.9164L69.5947 89.5861L76.7127 101.372L89.5525 93.9829C90.644 93.5828 91.3408 92.4188 91.3408 90.6628Z" fill="#869EA6"/>
<path d="M85.9988 93.7678C85.9988 90.6599 83.8186 86.8834 81.1282 85.3302C79.9106 84.6267 78.8003 84.5059 77.9464 84.8643L77.9438 84.8603L77.8766 84.8979L77.5625 85.0737L75.0386 86.4807V86.4834C75.9193 85.9786 77.1315 86.0551 78.4727 86.8271C81.1618 88.3803 83.3434 92.1595 83.3434 95.2648C83.3434 96.6825 82.8869 97.7108 82.1351 98.2666L84.5664 96.9227L84.5758 96.9174L84.5852 96.9134H84.5838C85.4592 96.3992 85.9988 95.3117 85.9988 93.7678Z" fill="#3A565E"/>
<path d="M103.754 116.231C102.489 117.525 100.248 117.346 97.4506 115.729L73.6519 101.989C68.8322 99.2078 65.2598 90.3418 70.5117 88.5482L89.3969 82.1297C91.0294 81.5752 92.7384 81.7739 94.3427 82.6989C97.0237 84.2468 99.1932 87.6998 100.293 92.177L104.351 108.681C105.232 112.257 105.02 114.939 103.754 116.231ZM106.995 109.196L102.936 92.6912C100.521 82.8721 93.6848 76.569 87.6664 78.615L68.7597 85.0389C61.2712 88.1468 66.1418 100.868 73.6519 105.203C86.7951 112.793 97.4506 118.943 97.4506 118.943C105.136 123.381 109.408 119.017 106.995 109.196Z" fill="#547078"/>
<mask id="mask3_174_190" style="mask-type:luminance" maskUnits="userSpaceOnUse" x="66" y="78" width="42" height="43">
<path d="M102.788 120.68C101.292 120.679 99.4899 120.121 97.4506 118.943C97.4506 118.943 86.7951 112.793 73.6519 105.203C70.8514 103.587 68.4174 100.804 66.8547 97.7887L71.8368 100.611C72.4087 101.156 73.0196 101.624 73.6519 101.989L97.4506 115.729C99.0133 116.632 100.401 117.086 101.543 117.086C102.446 117.086 103.195 116.803 103.754 116.231C104.506 115.464 104.885 114.208 104.885 112.564C104.887 111.439 104.71 110.133 104.351 108.681L100.937 94.7976L100.293 92.177C99.1932 87.6997 97.0237 84.2468 94.3427 82.6989C93.4378 82.1766 92.4994 81.8867 91.561 81.8316C91.4523 81.8262 91.3435 81.8222 91.2348 81.8222C90.6172 81.8222 90.0024 81.9242 89.3969 82.1296L78.3641 85.8793L78.2809 85.8028L91.1556 78.3223C96.1269 79.0983 100.981 84.7435 102.935 92.6925L106.995 109.196C107.452 111.057 107.67 112.72 107.668 114.166C107.668 115.051 107.588 115.854 107.43 116.568C107.063 118.224 106.288 119.414 105.166 120.073V120.076L105.241 120.033C104.554 120.458 103.731 120.68 102.788 120.68Z" fill="white"/>
</mask>
<g mask="url(#mask3_174_190)">
<path d="M102.788 120.68C101.292 120.679 99.4899 120.121 97.4506 118.943C97.4506 118.943 86.7951 112.793 73.6519 105.203C70.8514 103.587 68.4174 100.804 66.8547 97.7887L71.8368 100.611C72.4087 101.156 73.0196 101.624 73.6519 101.989L97.4506 115.729C99.0133 116.632 100.401 117.086 101.543 117.086C102.446 117.086 103.195 116.803 103.754 116.231C104.506 115.464 104.885 114.208 104.885 112.564C104.887 111.439 104.71 110.133 104.351 108.681L100.937 94.7976L100.293 92.177C99.1932 87.6997 97.0237 84.2468 94.3427 82.6989C93.4378 82.1766 92.4994 81.8867 91.561 81.8316C91.4523 81.8262 91.3435 81.8222 91.2348 81.8222C90.6172 81.8222 90.0024 81.9242 89.3969 82.1296L78.3641 85.8793L78.2809 85.8028L91.1556 78.3223C96.1269 79.0983 100.981 84.7435 102.935 92.6925L106.995 109.196C107.452 111.057 107.67 112.72 107.668 114.166C107.668 115.051 107.588 115.854 107.43 116.568C107.063 118.224 106.288 119.414 105.166 120.073V120.076L105.241 120.033C104.554 120.458 103.731 120.68 102.788 120.68Z" fill="url(#paint3_linear_174_190)"/>
</g>
<path d="M78.0178 98.2961C78.0178 101.401 75.8375 102.661 73.1458 101.107C70.4567 99.5541 68.2751 95.7776 68.2751 92.6724C68.2765 89.5644 70.4567 88.3065 73.1458 89.8585C75.8375 91.4117 78.0178 95.1896 78.0178 98.2961Z" fill="#B5B5B5"/>
<path d="M73.1458 98.1139C71.8905 97.3889 70.8689 95.6181 70.8689 94.1682C70.8689 92.7197 71.8905 92.1276 73.1458 92.8539C74.4024 93.5775 75.4241 95.3483 75.4241 96.7996C75.4241 98.2481 74.4024 98.8389 73.1458 98.1139Z" fill="#231F20"/>
<path d="M104.484 112.208C104.484 115.905 101.886 117.404 98.6854 115.554C95.4822 113.707 92.8857 109.21 92.8857 105.511C92.8871 101.812 95.4822 100.316 98.6854 102.163C101.886 104.012 104.484 108.51 104.484 112.208Z" fill="#B2C6CC"/>
<path d="M98.6855 111.801C97.2799 110.988 96.1375 109.011 96.1375 107.388C96.1375 105.766 97.2799 105.107 98.6855 105.916C100.09 106.729 101.232 108.709 101.232 110.328C101.232 111.951 100.09 112.611 98.6855 111.801Z" fill="#231F20"/>
<path d="M99.6697 92.8364C99.6697 96.4276 97.1484 97.8829 94.0392 96.0879C90.9299 94.2917 88.4087 89.9258 88.4087 86.3359C88.4087 82.7461 90.9299 81.2881 94.0392 83.0857C97.1498 84.8807 99.6697 89.2465 99.6697 92.8364Z" fill="#B2C6CC"/>
<path d="M94.0389 92.4431C92.6749 91.655 91.5647 89.7339 91.5647 88.1591C91.5647 86.5844 92.6763 85.944 94.0389 86.732C95.4029 87.5174 96.5119 89.4398 96.5119 91.0133C96.5119 92.588 95.4029 93.2311 94.0389 92.4431Z" fill="#3A565E"/>
<path d="M118.555 112.401V112.403L118.372 112.511L105.166 120.076V120.073C107.564 118.665 108.38 114.829 106.994 109.196L102.935 92.6927C100.522 82.8735 93.6846 76.5704 87.6661 78.6164L68.7609 85.039C68.5192 85.1397 68.291 85.2484 68.0762 85.3693L81.167 77.8686L81.3375 77.7693C81.5725 77.6377 81.8195 77.5156 82.0826 77.4068L100.991 70.9815C107.008 68.9382 113.844 75.2387 116.262 85.0591L120.317 101.563C121.689 107.143 120.903 110.963 118.555 112.401Z" fill="#D1E1E6"/>
<path d="M96.2046 72.6087L83.1366 80.1549H83.1339L73.7578 83.342L86.8326 75.7917L96.2046 72.6087Z" fill="#B2C6CC"/>
<path d="M106.895 71.4501L93.631 79.1091C92.8147 78.7144 91.9797 78.4473 91.1406 78.3184L104.382 70.6728C105.226 70.7963 106.069 71.0554 106.895 71.4501Z" fill="#B2C6CC"/>
<path d="M110.692 74.2732L97.4007 81.9443C96.9255 81.4396 96.4287 80.9817 95.9226 80.5749L109.203 72.9079C109.712 73.3106 110.21 73.7671 110.692 74.2732Z" fill="#B2C6CC"/>
<path d="M113.319 77.7692L100.023 85.447C99.6857 84.8778 99.3326 84.3394 98.9634 83.8306L112.257 76.1555C112.629 76.663 112.983 77.2 113.319 77.7692Z" fill="#B2C6CC"/>
<path d="M115.175 81.597L101.868 89.2788C101.633 88.6626 101.38 88.0679 101.11 87.4919L114.409 79.8141C114.685 80.386 114.94 80.9821 115.175 81.597Z" fill="#B2C6CC"/>
<path d="M116.434 85.7691L103.123 93.4536L102.935 92.6924C102.839 92.295 102.733 91.9017 102.619 91.515L115.929 83.8305C116.048 84.2319 116.157 84.644 116.262 85.0589L116.434 85.7691Z" fill="#B2C6CC"/>
<path d="M117.489 90.0613L104.179 97.7458L103.7 95.7965V95.7952L117.011 88.1106L117.489 90.0613Z" fill="#B2C6CC"/>
<path d="M118.547 94.3494L105.311 101.991L105.157 101.724L104.755 100.089L118.065 92.4001L118.547 94.3494Z" fill="#B2C6CC"/>
<path d="M119.601 98.6414L106.288 106.326L105.809 104.375L119.121 96.6907L119.601 98.6414Z" fill="#B2C6CC"/>
<path d="M120.622 102.952L107.31 110.637C107.22 110.171 107.117 109.693 106.995 109.196L106.866 108.671V108.667L120.175 100.983L120.318 101.563C120.433 102.038 120.535 102.501 120.622 102.952Z" fill="#B2C6CC"/>
<path d="M120.941 107.667L107.612 115.362C107.681 114.676 107.686 113.927 107.632 113.126L120.951 105.433C121.009 106.237 121.005 106.982 120.941 107.667Z" fill="#B2C6CC"/>
<path d="M101.932 110.638C101.93 108.879 100.893 106.799 99.4884 105.546L55.8567 64.9269L52.334 86.3199L95.2018 110.611L98.3943 114.309L100.952 112.784C101.556 112.44 101.932 111.697 101.932 110.638Z" fill="#547078"/>
<path d="M96.7177 107.217L53.0873 66.5971L49.5632 87.9914L95.8544 114.219C97.6776 115.273 99.1624 114.416 99.1624 112.31C99.161 110.55 98.1233 108.467 96.7177 107.217Z" fill="#869EA6"/>
<mask id="mask4_174_190" style="mask-type:luminance" maskUnits="userSpaceOnUse" x="58" y="87" width="42" height="28">
<path d="M97.3282 114.67C96.9738 114.67 96.5831 114.578 96.171 114.385C96.0662 114.337 95.9602 114.282 95.8541 114.219L94.2069 113.287L92.4052 112.265L90.4626 111.164L88.6864 110.159L86.7385 109.055L84.9757 108.056L83.0264 106.95L81.2489 105.943L79.2956 104.837L77.5167 103.83L75.5688 102.725L71.8366 100.611L66.8545 97.7889L58.0422 92.7947C59.7701 93.2311 61.3462 93.4499 62.7263 93.4499C64.5212 93.4499 65.9859 93.0807 67.0277 92.3396L67.029 92.341L75.4708 87.4368L96.7174 107.217C98.123 108.467 99.1607 110.549 99.1621 112.31C99.1621 113.232 98.8775 113.914 98.4049 114.302C98.1337 114.525 97.7994 114.65 97.4235 114.667C97.3913 114.67 97.3604 114.67 97.3282 114.67Z" fill="white"/>
</mask>
<g mask="url(#mask4_174_190)">
<mask id="mask5_174_190" style="mask-type:luminance" maskUnits="userSpaceOnUse" x="58" y="87" width="42" height="28">
<path d="M58.0422 114.67H99.162V87.4365H58.0422V114.67Z" fill="white"/>
</mask>
<g mask="url(#mask5_174_190)">
<path d="M96.8814 114.758V114.624H96.3444V114.49H96.0759V114.355H95.8074V114.221H95.5389V114.087H95.2704V113.953H95.1361V113.818H94.8676V113.684H94.5991V113.55H94.3306V113.416H94.1964V113.281H93.9278V113.147H93.6593V113.013H93.3908V112.879H93.1223V112.744H92.9881V112.61H92.7196V112.476H92.4511V112.342H92.1826V112.207H92.0483V112.073H91.7798V111.939H91.5113V111.805H91.2428V111.67H91.1086V111.536H90.8401V111.402H90.5716V111.268H90.3031V111.133H90.1688V110.999H89.9003V110.865H89.6318V110.731H89.3633V110.596H89.0948V110.462H88.9606V110.328H88.692V110.194H88.4235V110.059H88.155V109.925H88.0208V109.791H87.7523V109.657H87.4838V109.522H87.2153V109.388H87.081V109.254H86.8125V109.12H86.544V108.985H86.2755V108.851H86.1413V108.717H85.8728V108.582H85.6043V108.448H85.3358V108.314H85.0673V108.18H84.933V108.045H84.6645V107.911H84.396V107.777H84.1275V107.643H83.9932V107.508H83.7247V107.374H83.4562V107.24H83.1877V107.106H83.0535V106.971H82.785V106.837H82.5165V106.703H82.248V106.569H82.1137V106.434H81.8452V106.3H81.5767V106.166H81.3082V106.032H81.0397V105.897H80.9055V105.763H80.637V105.629H80.3685V105.495H80.1V105.36H79.9657V105.226H79.6972V105.092H79.4287V104.958H79.1602V104.823H79.0259V104.689H78.7574V104.555H78.4889V104.421H78.2204V104.286H78.0862V104.152H77.8177V104.018H77.5492V103.884H77.2807V103.749H77.0122V103.615H76.8779V103.481H76.6094V103.347H76.3409V103.212H76.0724V103.078H75.9382V102.944H75.6697V102.81H75.4012V102.675H75.1327V102.541H74.9984V102.407H74.7299V102.273H74.4614V102.138H74.1929V102.004H74.0586V101.87H73.7901V101.736H73.5216V101.601H73.2531V101.467H72.9846V101.333H72.8504V101.199H72.5819V101.064H72.3134V100.93H72.0449V100.796H71.9106V100.662H71.6421V100.527H71.3736V100.393H71.1051V100.259H70.9709V100.125H70.7024V99.9904H70.4339V99.8562H70.1654V99.7219H70.0311V99.5877H69.7626V99.4534H69.4941V99.3192H69.2256V99.1849H68.9571V99.0506H68.8228V98.9164H68.5543V98.7821H68.2858V98.6479H68.0173V98.5136H67.8831V98.3794H67.6146V98.2451H67.3461V98.1109H67.0776V97.9766H66.9433V97.8424H66.6748V97.7081H66.4063V97.5739H66.1378V97.4396H66.0036V97.3054H65.7351V97.1711H65.4666V97.0369H65.1981V96.9026H64.9296V96.7684H64.7953V96.6341H64.5268V96.4999H64.2583V96.3656H63.9898V96.2314H63.8555V96.0971H63.587V95.9629H63.3185V95.8286H63.05V95.6944H62.9158V95.5601H62.6473V95.4259H62.3788V95.2916H62.1103V95.1574H61.976V95.0231H61.7075V94.8889H61.439V94.7546H61.1705V94.6204H60.902V94.4861H60.7678V94.3519H60.4993V94.2176H60.2308V94.0833H59.9623V93.9491H59.828V93.8148H59.5595V93.6806H59.291V93.5463H59.0225V93.4121H58.8882V93.2778H58.6197V93.1436H58.3512V93.0093H58.0827V92.8751H57.9485V92.7408H58.4855V92.8751H59.1567V93.0093H59.828V93.1436H60.4993V93.2778H61.8418V93.4121H63.4528V93.2778H64.5268V93.1436H65.1981V93.0093H65.6008V92.8751H66.0036V92.7408H66.2721V92.6066H66.5406V92.4723H66.8091V92.3381H66.9433V92.2038H67.2118V92.0696H67.4803V91.9353H67.6146V91.8011H67.8831V91.6668H68.1516V91.5326H68.4201V91.3983H68.5543V91.2641H68.8228V91.1298H69.0913V90.9956H69.2256V90.8613H69.4941V90.7271H69.7626V90.5928H70.0311V90.4586H70.1654V90.3243H70.4339V90.1901H70.7024V90.0558H70.8366V89.9216H71.1051V89.7873H71.3736V89.6531H71.6421V89.5188H71.7764V89.3846H72.0449V89.2503H72.3134V89.1161H72.4476V88.9818H72.7161V88.8475H72.9846V88.7133H73.2531V88.579H73.3874V88.4448H73.6559V88.3105H73.9244V88.1763H74.1929V88.042H74.3272V87.9078H74.5957V87.7735H74.8642V87.6393H74.9984V87.505H75.2669V87.3708H75.6697V87.505H75.8039V87.6393H75.9382V87.7735H76.0724V87.9078H76.2067V88.042H76.3409V88.1763H76.4752V88.3105H76.6094V88.4448H76.7437V88.579H76.8779V88.7133H77.0122V88.8475H77.1464V88.9818H77.2807V89.1161H77.5492V89.2503H77.6834V89.3846H77.8177V89.5188H77.9519V89.6531H78.0862V89.7873H78.2204V89.9216H78.3547V90.0558H78.4889V90.1901H78.6232V90.3243H78.7574V90.4586H78.8917V90.5928H79.0259V90.7271H79.1602V90.8613H79.2945V90.9956H79.563V91.1298H79.6972V91.2641H79.8315V91.3983H79.9657V91.5326H80.1V91.6668H80.2342V91.8011H80.3685V91.9353H80.5027V92.0696H80.637V92.2038H80.7712V92.3381H80.9055V92.4723H81.0397V92.6066H81.174V92.7408H81.4425V92.8751H81.5767V93.0093H81.711V93.1436H81.8452V93.2778H81.9795V93.4121H82.1137V93.5463H82.248V93.6806H82.3822V93.8148H82.5165V93.9491H82.6507V94.0833H82.785V94.2176H82.9192V94.3519H83.0535V94.4861H83.1877V94.6204H83.4562V94.7546H83.5905V94.8889H83.7247V95.0231H83.859V95.1574H83.9932V95.2916H84.1275V95.4259H84.2618V95.5601H84.396V95.6944H84.5303V95.8286H84.6645V95.9629H84.7988V96.0971H84.933V96.2314H85.0673V96.3656H85.3358V96.4999H85.47V96.6341H85.6043V96.7684H85.7385V96.9026H85.8728V97.0369H86.007V97.1711H86.1413V97.3054H86.2755V97.4396H86.4098V97.5739H86.544V97.7081H86.6783V97.8424H86.8125V97.9766H86.9468V98.1109H87.081V98.2451H87.3495V98.3794H87.4838V98.5136H87.618V98.6479H87.7523V98.7821H87.8865V98.9164H88.0208V99.0506H88.155V99.1849H88.2893V99.3192H88.4235V99.4534H88.5578V99.5877H88.692V99.7219H88.8263V99.8562H88.9606V99.9904H89.2291V100.125H89.3633V100.259H89.4976V100.393H89.6318V100.527H89.7661V100.662H89.9003V100.796H90.0346V100.93H90.1688V101.064H90.3031V101.199H90.4373V101.333H90.5716V101.467H90.7058V101.601H90.8401V101.736H90.9743V101.87H91.2428V102.004H91.3771V102.138H91.5113V102.273H91.6456V102.407H91.7798V102.541H91.9141V102.675H92.0483V102.81H92.1826V102.944H92.3168V103.078H92.4511V103.212H92.5853V103.347H92.7196V103.481H92.8538V103.615H93.1223V103.749H93.2566V103.884H93.3908V104.018H93.5251V104.152H93.6593V104.286H93.7936V104.421H93.9278V104.555H94.0621V104.689H94.1964V104.823H94.3306V104.958H94.4649V105.092H94.5991V105.226H94.7334V105.36H94.8676V105.495H95.1361V105.629H95.2704V105.763H95.4046V105.897H95.5389V106.032H95.6731V106.166H95.8074V106.3H95.9416V106.434H96.0759V106.569H96.2101V106.703H96.3444V106.837H96.4786V106.971H96.6129V107.106H96.7471V107.24H97.0156V107.374H97.1499V107.643H97.2841V107.777H97.4184V107.911H97.5526V108.045H97.6869V108.18H97.8211V108.448H97.9554V108.717H98.0896V108.851H98.2239V109.12H98.3581V109.388H98.4924V109.522H98.6266V109.925H98.7609V110.328H98.8951V110.596H99.0294V111.133H99.1637V113.281H99.0294V113.684H98.8951V113.953H98.7609V114.087H98.6266V114.355H98.3581V114.49H98.0896V114.624H97.6869V114.758" fill="url(#paint4_linear_174_190)"/>
</g>
</g>
<path d="M97.5082 111.355C97.5082 110.301 96.7658 109.016 95.8542 108.49C95.3696 108.209 94.9359 108.207 94.6352 108.417L94.6312 108.411L66.0947 124.863L68.5475 128.83L96.9591 112.448L97.0746 112.38L97.1283 112.35L97.1242 112.342C97.3605 112.147 97.5082 111.814 97.5082 111.355Z" fill="#B2C6CC"/>
<path d="M65.5026 125.469L43.8586 105.319C38.7383 107.479 33.6381 109.696 28.5862 112.044L64.6394 132.471C66.4625 133.524 67.9473 132.667 67.9473 130.561C67.9473 128.801 66.9096 126.721 65.5026 125.469Z" fill="#547078"/>
<path d="M64.6396 130.561C63.728 130.036 62.9856 128.75 62.9856 127.696C62.9856 126.645 63.7293 126.215 64.6396 126.741C65.5511 127.269 66.2936 128.554 66.2936 129.605C66.2936 130.659 65.5511 131.087 64.6396 130.561Z" fill="#544B4D"/>
<path d="M69.7423 135.919C68.4763 137.213 66.237 137.033 63.4379 135.418L39.6405 121.678C34.8195 118.896 31.2484 110.03 36.5003 108.238L55.3855 101.819C57.0166 101.266 58.727 101.462 60.3299 102.386C63.0109 103.935 65.1818 107.39 66.2813 111.865L70.3397 128.369C71.2204 131.946 71.0083 134.627 69.7423 135.919ZM72.9818 128.884L68.9234 112.381C66.5082 102.56 59.6721 96.257 53.6536 98.3016L34.7483 104.727C31.1531 106.217 18.3059 119.38 18.3059 119.38L22.8594 128.112L35.6612 136.179L53.6603 146.389L58.4813 144.558C58.4813 144.558 75.397 138.705 72.9818 128.884Z" fill="#869EA6"/>
<path d="M43.1486 123.703L28.8737 131.902L27.0264 130.739L41.2181 122.588L43.1486 123.703Z" fill="#94AFB8"/>
<path d="M46.8433 125.837L32.4072 134.129L30.5586 132.963L44.9101 124.722L46.8433 125.837Z" fill="#94AFB8"/>
<path d="M50.5377 127.969L35.9553 136.344L35.6627 136.181L34.0906 135.191L48.6045 126.854L50.5377 127.969Z" fill="#94AFB8"/>
<path d="M54.1691 130.064L39.6672 138.455L37.7219 137.346L52.2412 128.953L54.1691 130.064Z" fill="#94AFB8"/>
<path d="M57.842 132.187L43.3859 140.563L41.4446 139.458L55.9142 131.074L57.842 132.187Z" fill="#94AFB8"/>
<path d="M61.6201 134.364L47.129 142.686L45.1797 141.58L59.6842 133.25L61.6201 134.364Z" fill="#94AFB8"/>
<path d="M65.4355 136.36L50.8437 144.793L48.8984 143.685L63.3264 135.351L63.4392 135.415C64.1427 135.821 64.8072 136.136 65.4355 136.36Z" fill="#94AFB8"/>
<path d="M70.4726 131.895C70.4726 128.198 67.8748 123.699 64.6729 121.849C63.086 120.934 61.6482 120.84 60.6011 121.431L60.5917 121.436L60.5581 121.455L47.2954 129.055L55.3156 143.354L68.5662 135.756C68.7018 135.693 68.8307 135.62 68.9542 135.535H68.9555C69.898 134.888 70.4726 133.635 70.4726 131.895Z" fill="#869EA6"/>
<path d="M65.6584 112.524C65.6584 108.934 63.1372 104.569 60.0279 102.774C58.4303 101.853 56.9898 101.788 55.9655 102.43L42.7632 109.991L50.433 123.929L63.9628 116.195C65.0073 115.617 65.6584 114.347 65.6584 112.524Z" fill="#869EA6"/>
<path d="M44.0049 117.984C44.0049 114.878 41.8247 111.1 39.1343 109.547C37.8455 108.801 36.6748 108.71 35.8035 109.152L35.8008 109.148L35.7444 109.18L35.6437 109.236L22.2578 116.906L29.3782 128.692L42.2167 121.306C43.3081 120.903 44.0049 119.739 44.0049 117.984Z" fill="#869EA6"/>
<path d="M38.6633 121.089C38.6633 117.983 36.483 114.206 33.7913 112.652C32.575 111.95 31.4634 111.826 30.6109 112.186L30.6082 112.183L30.5411 112.22L30.2256 112.395L27.7017 113.804C28.5823 113.3 29.7973 113.375 31.1372 114.15C33.8289 115.703 36.0091 119.48 36.0091 122.585C36.0091 124.004 35.55 125.031 34.8009 125.587L37.2295 124.246L37.2416 124.239L37.251 124.232H37.2496C38.1236 123.721 38.6633 122.635 38.6633 121.089Z" fill="#3A565E"/>
<path d="M56.4179 143.554C55.1519 144.845 52.9139 144.667 50.1135 143.049L26.3161 129.312C21.496 126.529 17.9236 117.663 23.1751 115.869L42.0611 109.453C43.6922 108.898 45.4026 109.093 47.0055 110.019C49.6879 111.57 51.8574 115.021 52.9569 119.497L57.0167 136.004C57.896 139.581 57.6839 142.261 56.4179 143.554ZM59.6587 136.518L55.599 120.013C53.1851 110.194 46.349 103.891 40.3292 105.937L21.4237 112.362C13.9349 115.467 18.8058 128.189 26.3161 132.525C39.4579 140.112 50.1135 146.263 50.1135 146.263C57.7993 150.701 62.0739 146.338 59.6587 136.518Z" fill="#547078"/>
<mask id="mask6_174_190" style="mask-type:luminance" maskUnits="userSpaceOnUse" x="17" y="105" width="44" height="43">
<path d="M55.4539 148C53.9557 148 52.154 147.441 50.1134 146.263C50.1134 146.263 39.4578 140.111 26.316 132.525C21.446 129.714 17.686 123.376 17.686 118.42C17.686 115.734 18.7909 113.453 21.4236 112.362L40.3291 105.936C41.0957 105.676 41.873 105.551 42.6544 105.551C48.015 105.551 53.4925 111.442 55.5989 120.013L59.6586 136.517C60.1164 138.378 60.3339 140.042 60.3326 141.487C60.3326 145.648 58.5296 148 55.4539 148ZM20.5791 119.796C20.5818 123.131 23.1856 127.504 26.316 129.312L50.1134 143.049C51.6787 143.952 53.0669 144.407 54.2094 144.407C55.1115 144.407 55.8593 144.123 56.4178 143.554C57.1696 142.786 57.5496 141.529 57.5496 139.886C57.5509 138.762 57.3737 137.456 57.0166 136.003L53.6012 122.118L52.9568 119.497C51.8573 115.021 49.6878 111.57 47.0054 110.019C46.1019 109.498 45.1649 109.208 44.2265 109.153C44.1177 109.146 44.0103 109.144 43.9016 109.144C43.284 109.144 42.6678 109.247 42.061 109.452L33.34 112.415L29.8441 113.603L25.3722 115.122L23.175 115.868C21.3343 116.498 20.5777 117.996 20.5791 119.796Z" fill="white"/>
</mask>
<g mask="url(#mask6_174_190)">
<path d="M55.4539 148C53.9557 148 52.154 147.441 50.1134 146.263C50.1134 146.263 39.4578 140.111 26.316 132.525C21.446 129.714 17.686 123.376 17.686 118.42C17.686 115.734 18.7909 113.453 21.4236 112.362L40.3291 105.936C41.0957 105.676 41.873 105.551 42.6544 105.551C48.015 105.551 53.4925 111.442 55.5989 120.013L59.6586 136.517C60.1164 138.378 60.3339 140.042 60.3326 141.487C60.3326 145.648 58.5296 148 55.4539 148ZM20.5791 119.796C20.5818 123.131 23.1856 127.504 26.316 129.312L50.1134 143.049C51.6787 143.952 53.0669 144.407 54.2094 144.407C55.1115 144.407 55.8593 144.123 56.4178 143.554C57.1696 142.786 57.5496 141.529 57.5496 139.886C57.5509 138.762 57.3737 137.456 57.0166 136.003L53.6012 122.118L52.9568 119.497C51.8573 115.021 49.6878 111.57 47.0054 110.019C46.1019 109.498 45.1649 109.208 44.2265 109.153C44.1177 109.146 44.0103 109.144 43.9016 109.144C43.284 109.144 42.6678 109.247 42.061 109.452L33.34 112.415L29.8441 113.603L25.3722 115.122L23.175 115.868C21.3343 116.498 20.5777 117.996 20.5791 119.796Z" fill="url(#paint5_linear_174_190)"/>
</g>
<path d="M30.6805 125.617C30.6805 128.723 28.5003 129.982 25.8099 128.431C23.12 126.877 20.939 123.099 20.939 119.991C20.939 116.888 23.12 115.627 25.8112 117.182C28.5003 118.734 30.6805 122.51 30.6805 125.617Z" fill="#B2C6CC"/>
<path d="M25.81 125.435C24.5556 124.709 23.5339 122.941 23.5339 121.49C23.5339 120.04 24.5556 119.45 25.8114 120.174C27.0666 120.9 28.0883 122.67 28.0883 124.12C28.0883 125.571 27.0666 126.159 25.81 125.435Z" fill="#3A565E"/>
<path d="M57.1481 139.529C57.1481 143.226 54.5517 144.726 51.3485 142.877C48.1466 141.027 45.5515 136.53 45.5515 132.832C45.5515 129.134 48.1466 127.636 51.3485 129.484C54.5517 131.334 57.1481 135.83 57.1481 139.529Z" fill="#B2C6CC"/>
<path d="M51.3487 139.122C49.9445 138.31 48.802 136.331 48.802 134.711C48.802 133.089 49.9445 132.428 51.3487 133.239C52.7544 134.051 53.8955 136.03 53.8955 137.651C53.8968 139.274 52.7544 139.932 51.3487 139.122Z" fill="#3A565E"/>
<path d="M52.334 120.159C52.334 123.748 49.8128 125.203 46.7035 123.409C43.5942 121.614 41.073 117.247 41.073 113.657C41.073 110.066 43.5942 108.611 46.7035 110.406C49.8128 112.202 52.334 116.568 52.334 120.159Z" fill="#B2C6CC"/>
<path d="M46.7034 119.763C45.3394 118.975 44.2305 117.055 44.2305 115.478C44.2305 113.906 45.3394 113.264 46.7034 114.051C48.0674 114.839 49.1763 116.761 49.1763 118.336C49.1763 119.911 48.0674 120.551 46.7034 119.763Z" fill="#3A565E"/>
<path d="M71.2204 139.722V139.726L71.0365 139.831L57.8316 147.399V147.395C60.2279 145.986 61.0442 142.148 59.6587 136.518L55.599 120.013C53.1865 110.194 46.349 103.893 40.3292 105.937L21.4241 112.362C21.1824 112.461 20.9558 112.57 20.7393 112.689L33.8314 105.19L34.0019 105.091C34.2355 104.958 34.4826 104.838 34.747 104.727L53.6563 98.3043C59.6721 96.2583 66.5082 102.563 68.9247 112.381L72.9818 128.884C74.3539 134.464 73.5658 138.282 71.2204 139.722Z" fill="#D1E1E6"/>
<path d="M48.8689 99.929L35.8009 107.475H35.7969L26.4221 110.665L39.4982 103.115L48.8689 99.929Z" fill="#B2C6CC"/>
<path d="M59.5593 98.773L46.2953 106.431C45.479 106.036 44.6427 105.769 43.8022 105.641L57.0461 97.9943C57.8919 98.1165 58.7323 98.3769 59.5593 98.773Z" fill="#B2C6CC"/>
<path d="M63.3546 101.593L50.0637 109.266C49.5898 108.761 49.093 108.305 48.5869 107.896L61.867 100.228C62.3759 100.633 62.8726 101.09 63.3546 101.593Z" fill="#B2C6CC"/>
<path d="M65.9849 105.091L52.6886 112.77C52.3503 112.201 51.9972 111.66 51.6267 111.153L64.9203 103.478C65.2935 103.984 65.6466 104.521 65.9849 105.091Z" fill="#B2C6CC"/>
<path d="M67.8388 108.92L54.5332 116.6C54.2982 115.983 54.0445 115.389 53.7747 114.815L67.0736 107.134C67.3475 107.706 67.6039 108.305 67.8388 108.92Z" fill="#B2C6CC"/>
<path d="M69.0993 113.092L55.7855 120.777L55.5989 120.013C55.5036 119.616 55.3976 119.222 55.2861 118.838L68.5945 111.154C68.7126 111.555 68.8227 111.966 68.9247 112.381L69.0993 113.092Z" fill="#B2C6CC"/>
<path d="M70.153 117.381L56.8446 125.066L56.364 123.118V123.115L69.6737 115.433L70.153 117.381Z" fill="#B2C6CC"/>
<path d="M71.2111 121.672L57.9739 129.312L57.8208 129.047L57.4194 127.41L70.7291 119.72L71.2111 121.672Z" fill="#B2C6CC"/>
<path d="M72.2634 125.963L58.9511 133.649L58.4731 131.698L71.7868 124.012L72.2634 125.963Z" fill="#B2C6CC"/>
<path d="M73.2866 130.275L59.9743 137.958C59.8843 137.492 59.781 137.013 59.6588 136.518L59.5312 135.99V135.987L72.8409 128.303L72.9819 128.884C73.0973 129.361 73.1994 129.824 73.2866 130.275Z" fill="#B2C6CC"/>
<path d="M73.6048 134.988L60.2764 142.682C60.3435 141.998 60.3502 141.25 60.2952 140.444L73.6142 132.754C73.672 133.557 73.6693 134.305 73.6048 134.988Z" fill="#B2C6CC"/>
<path d="M104.836 67.7285C104.836 63.846 99.4603 54.2832 93.9117 50.9511C93.9117 50.9511 90.1326 53.1018 89.0357 53.7717L85.8795 51.9513L85.8781 44.8239C85.0095 44.2627 84.1235 43.7204 83.2253 43.2021C74.2506 38.0214 66.5553 36.6306 63.289 39.0887L63.2877 39.086L28.2749 59.358C31.9588 57.7751 39.0472 59.3539 47.1896 64.0554C59.1232 70.9465 68.7973 81.9269 68.7973 88.5818C68.7973 90.2814 68.165 91.5313 67.0279 92.3395L67.0292 92.3408L101.815 72.1279C102.45 71.8984 102.997 71.5856 103.442 71.1841L103.456 71.1748H103.454C104.343 70.3693 104.836 69.2214 104.836 67.7285Z" fill="#D1E1E6"/>
<mask id="mask7_174_190" style="mask-type:luminance" maskUnits="userSpaceOnUse" x="28" y="37" width="77" height="48">
<path d="M67.6723 84.0844C65.97 80.2824 62.4472 75.895 57.8854 71.8084V71.8071L74.8225 62.0027L76.9934 64.0474L80.5658 61.9302V58.6773L89.033 53.7744L86.8676 52.5219L89.0357 53.7718C90.1326 53.1018 93.9117 50.9511 93.9117 50.9511C99.4214 54.2604 104.761 63.7117 104.834 67.6466C104.813 66.4975 104.335 64.8743 103.542 63.0767C91.5623 70.039 79.6422 77.1006 67.6723 84.0844ZM49.8531 65.6839C48.9805 65.12 48.0904 64.5763 47.1896 64.0554C47.1748 64.0474 47.1587 64.0379 47.1439 64.0299C47.1319 64.0232 47.1211 64.0165 47.109 64.0098C44.4576 62.4833 41.9202 61.2898 39.5762 60.4293C51.2856 53.1515 63.1104 46.0523 75.2025 39.431C73.3511 38.7745 71.6367 38.3463 70.0794 38.114C57.6464 45.0548 45.1745 51.9258 32.7079 58.8035C32.3561 58.778 32.0151 58.7646 31.6849 58.7632C31.6741 58.7632 31.6621 58.7632 31.6513 58.7632C31.65 58.7632 31.65 58.7632 31.6486 58.7632C30.3424 58.7632 29.212 58.9592 28.2924 59.3512C28.2856 59.3539 28.2803 59.3553 28.2749 59.358L58.5244 41.8435L60.8658 43.2142L68.7624 37.9502C72.5913 38.2362 77.6633 39.9909 83.2253 43.2022C84.1235 43.7204 85.0095 44.2627 85.8781 44.8239V44.8253L49.8531 65.6812V65.6839Z" fill="white"/>
</mask>
<g mask="url(#mask7_174_190)">
<mask id="mask8_174_190" style="mask-type:luminance" maskUnits="userSpaceOnUse" x="28" y="37" width="77" height="52">
<path d="M28.2749 88.5818H104.836V37.9501H28.2749V88.5818Z" fill="white"/>
</mask>
<g mask="url(#mask8_174_190)">
<path d="M68.6884 88.4449H68.8227V88.7134H68.6884V88.4449ZM67.6144 84.1488V84.0146H67.4802V83.7461H67.3459V83.4776H67.2117V83.2091H67.0774V82.9406H66.9432V82.6721H66.8089V82.5378H66.6747V82.2693H66.5404V82.0008H66.4062V81.7323H66.2719V81.5981H66.1377V81.3296H66.0034V81.0611H65.8692V80.9268H65.7349V80.7925H65.6007V80.524H65.4664V80.3898H65.3322V80.1213H65.1979V79.987H65.0636V79.8528H64.9294V79.5843H64.7951V79.45H64.6609V79.1815H64.5266V79.0473H64.3924V78.913H64.2581V78.6445H64.1239V78.5103H63.9896V78.376H63.8554V78.1075H63.7211V77.9733H63.5869V77.839H63.4526V77.7048H63.3184V77.5705H63.1841V77.302H63.0499V77.1678H62.9156V77.0335H62.7814V76.8993H62.6471V76.765H62.5129V76.6308H62.3786V76.4965H62.2444V76.228H62.1101V76.0938H61.9759V75.9595H61.8416V75.8253H61.7074V75.691H61.5731V75.5567H61.4389V75.4225H61.3046V75.154H61.1704V75.0197H61.0361V74.8855H60.9019V74.7512H60.7676V74.617H60.6334V74.4827H60.4991V74.3485H60.3649V74.2142H60.2306V74.08H60.0963V73.9457H59.9621V73.8115H59.8278V73.6772H59.6936V73.543H59.5593V73.4087H59.4251V73.2745H59.2908V73.1402H59.1566V73.006H59.0223V72.8717H58.8881V72.7375H58.7538V72.6032H58.6196V72.469H58.3511V72.3347H58.2168V72.2005H58.0826V72.0662H57.9483V71.932H57.8141V71.6635H58.0826V71.5292H58.3511V71.395H58.4853V71.2607H58.7538V71.1265H59.0223V70.9922H59.2908V70.858H59.4251V70.7237H59.6936V70.5894H59.9621V70.4552H60.0963V70.3209H60.3649V70.1867H60.6334V70.0524H60.9019V69.9182H61.0361V69.7839H61.3046V69.6497H61.5731V69.5154H61.8416V69.3812H61.9759V69.2469H62.2444V69.1127H62.5129V68.9784H62.6471V68.8442H62.9156V68.7099H63.1841V68.5757H63.4526V68.4414H63.5869V68.3072H63.8554V68.1729H64.1239V68.0387H64.3924V67.9044H64.5266V67.7702H64.7951V67.6359H65.0636V67.5017H65.1979V67.3674H65.4664V67.2332H65.7349V67.0989H66.0034V66.9647H66.1377V66.8304H66.4062V66.6962H66.6747V66.5619H66.9432V66.4277H67.0774V66.2934H67.3459V66.1592H67.6144V66.0249H67.7487V65.8907H68.0172V65.7564H68.2857V65.6221H68.5542V65.4879H68.6884V65.3536H68.9569V65.2194H69.2254V65.0851H69.4939V64.9509H69.6282V64.8166H69.8967V64.6824H70.1652V64.5481H70.2995V64.4139H70.568V64.2796H70.8365V64.1454H71.105V64.0111H71.2392V63.8769H71.5077V63.7426H71.7762V63.6084H72.0447V63.4741H72.179V63.3399H72.4475V63.2056H72.716V63.0714H72.8502V62.9371H73.1187V62.8029H73.3872V62.6686H73.6557V62.5344H73.79V62.4001H74.0585V62.2659H74.327V62.1316H74.5955V61.9974H74.9982V62.1316H75.1325V62.2659H75.2668V62.4001H75.401V62.5344H75.5353V62.6686H75.8038V62.8029H75.938V62.9371H76.0723V63.0714H76.2065V63.2056H76.3408V63.3399H76.475V63.4741H76.6093V63.6084H76.7435V63.7426H76.8778V63.8769H77.1463V63.7426H77.4148V63.6084H77.6833V63.4741H77.9518V63.3399H78.086V63.2056H78.3545V63.0714H78.623V62.9371H78.7573V62.8029H79.0258V62.6686H79.2943V62.5344H79.4285V62.4001H79.697V62.2659H79.9655V62.1316H80.0998V61.9974H80.3683V61.8631H80.5026V58.5068H80.7711V58.3726H81.0396V58.2383H81.3081V58.1041H81.4423V57.9698H81.7108V57.8356H81.9793V57.7013H82.2478V57.5671H82.3821V57.4328H82.6506V57.2986H82.9191V57.1643H83.0533V57.0301H83.3218V56.8958H83.5903V56.7616H83.8588V56.6273H83.9931V56.4931H84.2616V56.3588H84.5301V56.2246H84.7986V56.0903H84.9328V55.9561H85.2014V55.8218H85.4699V55.6875H85.6041V55.5533H85.8726V55.419H86.1411V55.2848H86.4096V55.1505H86.5439V55.0163H86.8124V54.882H87.0809V54.7478H87.3494V54.6135H87.4836V54.4793H87.7521V54.345H88.0206V54.2108H88.1549V54.0765H88.4234V53.9423H88.6919V53.808H88.8261V53.6738H88.5576V53.5395H88.2891V53.4053H88.1549V53.271H87.8864V53.1368H87.6179V53.0025H87.3494V52.8683H87.2151V52.734H86.9466V52.5998H86.8124V52.4655H87.0809V52.5998H87.3494V52.734H87.4836V52.8683H87.7521V53.0025H88.0206V53.1368H88.2891V53.271H88.4234V53.4053H88.6919V53.5395H88.9604V53.6738H89.0946V53.5395H89.3631V53.4053H89.6316V53.271H89.7659V53.1368H90.0344V53.0025H90.3029V52.8683H90.5714V52.734H90.7057V52.5998H90.9742V52.4655H91.2427V52.3313H91.3769V52.197H91.6454V52.0628H91.9139V51.9285H92.1824V51.7943H92.3167V51.66H92.5852V51.5258H92.8537V51.3915H93.1222V51.2573H93.2564V51.123H93.5249V50.9888H93.7934V50.8545H94.0619V50.9888H94.3304V51.123H94.4647V51.2573H94.7332V51.3915H94.8674V51.5258H95.0017V51.66H95.1359V51.7943H95.4044V51.9285H95.5387V52.0628H95.673V52.197H95.8072V52.3313H96.0757V52.4655H96.21V52.5998H96.3442V52.734H96.4785V52.8683H96.6127V53.0025H96.747V53.1368H96.8812V53.271H97.0155V53.4053H97.1497V53.5395H97.284V53.6738H97.4182V53.808H97.5525V53.9423H97.6867V54.0765H97.821V54.2108H97.9552V54.345H98.0895V54.4793H98.2237V54.7478H98.358V54.882H98.4922V55.0163H98.6265V55.1505H98.7607V55.2848H98.895V55.5533H99.0292V55.6875H99.1635V55.8218H99.2977V55.9561H99.432V56.2246H99.5662V56.3588H99.7005V56.4931H99.8347V56.6273H99.969V56.8958H100.103V57.0301H100.238V57.2986H100.372V57.4328H100.506V57.7013H100.64V57.8356H100.775V58.1041H100.909V58.2383H101.043V58.5068H101.177V58.6411H101.312V58.9096H101.446V59.0438H101.58V59.3123H101.714V59.5808H101.849V59.7151H101.983V59.9836H102.117V60.2521H102.251V60.5206H102.386V60.6548H102.52V60.9234H102.654V61.1919H102.788V61.4604H102.923V61.7289H103.057V61.9974H103.191V62.2659H103.325V62.5344H103.46V62.9371H103.594V63.0714H103.728V63.4741H103.862V63.7426H103.997V64.1454H104.131V64.5481H104.265V64.9509H104.399V65.3536H104.534V65.7564H104.668V66.2934H104.802V67.0989H104.936V67.7702H104.802V67.2332H104.668V66.4277H104.534V65.8907H104.399V65.4879H104.265V65.0851H104.131V64.6824H103.997V64.2796H103.862V63.8769H103.728V63.6084H103.594V63.3399H103.46V63.2056H103.325V63.3399H103.191V63.4741H102.923V63.6084H102.654V63.7426H102.52V63.8769H102.251V64.0111H101.983V64.1454H101.714V64.2796H101.58V64.4139H101.312V64.5481H101.043V64.6824H100.909V64.8166H100.64V64.9509H100.372V65.0851H100.103V65.2194H99.969V65.3536H99.7005V65.4879H99.432V65.6221H99.2977V65.7564H99.0292V65.8907H98.7607V66.0249H98.4922V66.1592H98.358V66.2934H98.0895V66.4277H97.821V66.5619H97.6867V66.6962H97.4182V66.8304H97.1497V66.9647H97.0155V67.0989H96.747V67.2332H96.4785V67.3674H96.21V67.5017H96.0757V67.6359H95.8072V67.7702H95.5387V67.9044H95.4044V68.0387H95.1359V68.1729H94.8674V68.3072H94.5989V68.4414H94.4647V68.5757H94.1962V68.7099H93.9277V68.8442H93.7934V68.9784H93.5249V69.1127H93.2564V69.2469H93.1222V69.3812H92.8537V69.5154H92.5852V69.6497H92.3167V69.7839H92.1824V69.9182H91.9139V70.0524H91.6454V70.1867H91.5112V70.3209H91.2427V70.4552H90.9742V70.5894H90.7057V70.7237H90.5714V70.858H90.3029V70.9922H90.0344V71.1265H89.9001V71.2607H89.6316V71.395H89.3631V71.5292H89.2289V71.6635H88.9604V71.7977H88.6919V71.932H88.4234V72.0662H88.2891V72.2005H88.0206V72.3347H87.7521V72.469H87.6179V72.6032H87.3494V72.7375H87.0809V72.8717H86.8124V73.006H86.6781V73.1402H86.4096V73.2745H86.1411V73.4087H86.0069V73.543H85.7384V73.6772H85.4699V73.8115H85.3356V73.9457H85.0671V74.08H84.7986V74.2142H84.5301V74.3485H84.3958V74.4827H84.1273V74.617H83.8588V74.7512H83.7246V74.8855H83.4561V75.0197H83.1876V75.154H82.9191V75.2882H82.7848V75.4225H82.5163V75.5567H82.2478V75.691H82.1136V75.8253H81.8451V75.9595H81.5766V76.0938H81.4423V76.228H81.1738V76.3623H80.9053V76.4965H80.6368V76.6308H80.5026V76.765H80.2341V76.8993H79.9655V77.0335H79.8313V77.1678H79.5628V77.302H79.2943V77.4363H79.0258V77.5705H78.8915V77.7048H78.623V77.839H78.3545V77.9733H78.2203V78.1075H77.9518V78.2418H77.6833V78.376H77.549V78.5103H77.2805V78.6445H77.012V78.7788H76.7435V78.913H76.6093V79.0473H76.3408V79.1815H76.0723V79.3158H75.938V79.45H75.6695V79.5843H75.401V79.7185H75.1325V79.8528H74.9982V79.987H74.7297V80.1213H74.4612V80.2555H74.327V80.3898H74.0585V80.524H73.79V80.6583H73.6557V80.7925H73.3872V80.9268H73.1187V81.0611H72.8502V81.1953H72.716V81.3296H72.4475V81.4638H72.179V81.5981H72.0447V81.7323H71.7762V81.8666H71.5077V82.0008H71.3735V82.1351H71.105V82.2693H70.8365V82.4036H70.568V82.5378H70.4337V82.6721H70.1652V82.8063H69.8967V82.9406H69.7624V83.0748H69.4939V83.2091H69.2254V83.3433H68.9569V83.4776H68.8227V83.6118H68.5542V83.7461H68.2857V83.8803H68.1514V84.0146H67.8829V84.1488H67.6144ZM49.6247 65.7564V65.6221H49.4905V65.4879H49.222V65.3536H49.0877V65.2194H48.8192V65.0851H48.5507V64.9509H48.4165V64.8166H48.148V64.6824H47.8795V64.5481H47.7452V64.4139H47.4767V64.2796H47.3425V64.1454H47.074V64.0111H46.8055V63.8769H46.537V63.7426H46.4027V63.6084H46.1342V63.4741H45.8657V63.3399H45.5972V63.2056H45.3287V63.0714H45.0602V62.9371H44.7917V62.8029H44.5232V62.6686H44.2547V62.5344H43.9862V62.4001H43.7177V62.2659H43.4492V62.1316H43.1807V61.9974H42.9122V61.8631H42.6437V61.7289H42.2409V61.5946H41.9724V61.4604H41.7039V61.3261H41.3012V61.1919H41.0327V61.0576H40.7642V60.9234H40.4957V60.7891H40.0929V60.6548H39.6901V60.5206H39.5559V60.2521H39.8244V60.1178H39.9586V59.9836H40.2272V59.8493H40.4957V59.7151H40.6299V59.5808H40.8984V59.4466H41.0327V59.3123H41.3012V59.1781H41.5697V59.0438H41.7039V58.9096H41.9724V58.7753H42.2409V58.6411H42.3752V58.5068H42.6437V58.3726H42.7779V58.2383H43.0464V58.1041H43.3149V57.9698H43.4492V57.8356H43.7177V57.7013H43.9862V57.5671H44.1204V57.4328H44.3889V57.2986H44.5232V57.1643H44.7917V57.0301H45.0602V56.8958H45.1945V56.7616H45.463V56.6273H45.7315V56.4931H45.8657V56.3588H46.1342V56.2246H46.2685V56.0903H46.537V55.9561H46.8055V55.8218H46.9397V55.6875H47.2082V55.5533H47.4767V55.419H47.611V55.2848H47.8795V55.1505H48.148V55.0163H48.2822V54.882H48.5507V54.7478H48.685V54.6135H48.9535V54.4793H49.222V54.345H49.3562V54.2108H49.6247V54.0765H49.8932V53.9423H50.0275V53.808H50.296V53.6738H50.5645V53.5395H50.6988V53.4053H50.9673V53.271H51.2358V53.1368H51.37V53.0025H51.6385V52.8683H51.907V52.734H52.0413V52.5998H52.3098V52.4655H52.5783V52.3313H52.7125V52.197H52.981V52.0628H53.2495V51.9285H53.3838V51.7943H53.6523V51.66H53.9208V51.5258H54.055V51.3915H54.3235V51.2573H54.592V51.123H54.7263V50.9888H54.9948V50.8545H55.2633V50.7202H55.3976V50.586H55.6661V50.4517H55.9346V50.3175H56.0688V50.1832H56.3373V50.049H56.6058V49.9147H56.7401V49.7805H57.0086V49.6462H57.2771V49.512H57.4113V49.3777H57.6798V49.2435H57.9483V49.1092H58.2168V48.975H58.3511V48.8407H58.6196V48.7065H58.8881V48.5722H59.0223V48.438H59.2908V48.3037H59.5593V48.1695H59.8278V48.0352H59.9621V47.901H60.2306V47.7667H60.4991V47.6325H60.7676V47.4982H60.9019V47.364H61.1704V47.2297H61.4389V47.0955H61.5731V46.9612H61.8416V46.827H62.1101V46.6927H62.3786V46.5585H62.5129V46.4242H62.7814V46.29H63.0499V46.1557H63.1841V46.0215H63.4526V45.8872H63.7211V45.7529H63.9896V45.6187H64.1239V45.4844H64.3924V45.3502H64.6609V45.2159H64.7951V45.0817H65.0636V44.9474H65.3322V44.8132H65.6007V44.6789H65.7349V44.5447H66.0034V44.4104H66.2719V44.2762H66.5404V44.1419H66.6747V44.0077H66.9432V43.8734H67.2117V43.7392H67.4802V43.6049H67.6144V43.4707H67.8829V43.3364H68.1514V43.2022H68.4199V43.0679H68.5542V42.9337H68.8227V42.7994H69.0912V42.6652H69.3597V42.5309H69.6282V42.3967H69.7624V42.2624H70.0309V42.1282H70.2995V41.9939H70.568V41.8597H70.7022V41.7254H70.9707V41.5912H71.2392V41.4569H71.5077V41.3227H71.7762V41.1884H71.9105V41.0542H72.179V40.9199H72.4475V40.7856H72.716V40.6514H72.8502V40.5171H73.1187V40.3829H73.3872V40.2486H73.6557V40.1144H73.9242V39.9801H74.1927V39.8459H74.327V39.7116H74.5955V39.5774H74.864V39.4431H74.7297V39.3089H74.1927V39.1746H73.79V39.0404H73.3872V38.9061H72.8502V38.7719H72.4475V38.6376H71.9105V38.5034H71.3735V38.3691H70.7022V38.2349H69.8967V38.3691H69.6282V38.5034H69.4939V38.6376H69.2254V38.7719H68.9569V38.9061H68.6884V39.0404H68.5542V39.1746H68.2857V39.3089H68.0172V39.4431H67.7487V39.5774H67.4802V39.7116H67.3459V39.8459H67.0774V39.9801H66.8089V40.1144H66.5404V40.2486H66.2719V40.3829H66.1377V40.5171H65.8692V40.6514H65.6007V40.7856H65.3322V40.9199H65.0636V41.0542H64.7951V41.1884H64.6609V41.3227H64.3924V41.4569H64.1239V41.5912H63.8554V41.7254H63.5869V41.8597H63.4526V41.9939H63.1841V42.1282H62.9156V42.2624H62.6471V42.3967H62.3786V42.5309H62.2444V42.6652H61.9759V42.7994H61.7074V42.9337H61.4389V43.0679H61.1704V43.2022H61.0361V43.3364H60.7676V43.4707H60.4991V43.6049H60.2306V43.7392H59.9621V43.8734H59.8278V44.0077H59.5593V44.1419H59.2908V44.2762H59.0223V44.4104H58.7538V44.5447H58.6196V44.6789H58.3511V44.8132H58.0826V44.9474H57.8141V45.0817H57.5456V45.2159H57.2771V45.3502H57.1428V45.4844H56.8743V45.6187H56.6058V45.7529H56.3373V45.8872H56.0688V46.0215H55.9346V46.1557H55.6661V46.29H55.3976V46.4242H55.1291V46.5585H54.8605V46.6927H54.7263V46.827H54.4578V46.9612H54.1893V47.0955H53.9208V47.2297H53.6523V47.364H53.518V47.4982H53.2495V47.6325H52.981V47.7667H52.7125V47.901H52.444V48.0352H52.3098V48.1695H52.0413V48.3037H51.7728V48.438H51.5043V48.5722H51.2358V48.7065H50.9673V48.8407H50.833V48.975H50.5645V49.1092H50.296V49.2435H50.0275V49.3777H49.759V49.512H49.6247V49.6462H49.3562V49.7805H49.0877V49.9147H48.8192V50.049H48.5507V50.1832H48.4165V50.3175H48.148V50.4517H47.8795V50.586H47.611V50.7202H47.3425V50.8545H47.2082V50.9888H46.9397V51.123H46.6712V51.2573H46.4027V51.3915H46.1342V51.5258H46V51.66H45.7315V51.7943H45.463V51.9285H45.1945V52.0628H44.9259V52.197H44.6574V52.3313H44.5232V52.4655H44.2547V52.5998H43.9862V52.734H43.7177V52.8683H43.4492V53.0025H43.3149V53.1368H43.0464V53.271H42.7779V53.4053H42.5094V53.5395H42.2409V53.6738H42.1067V53.808H41.8382V53.9423H41.5697V54.0765H41.3012V54.2108H41.0327V54.345H40.8984V54.4793H40.6299V54.6135H40.3614V54.7478H40.0929V54.882H39.8244V55.0163H39.6901V55.1505H39.4216V55.2848H39.1531V55.419H38.8846V55.5533H38.6161V55.6875H38.3476V55.8218H38.2134V55.9561H37.9449V56.0903H37.6764V56.2246H37.4079V56.3588H37.1394V56.4931H37.0051V56.6273H36.7366V56.7616H36.4681V56.8958H36.1996V57.0301H35.9311V57.1643H35.7969V57.2986H35.5284V57.4328H35.2599V57.5671H34.9913V57.7013H34.7228V57.8356H34.5886V57.9698H34.3201V58.1041H34.0516V58.2383H33.7831V58.3726H33.5146V58.5068H33.2461V58.6411H33.1118V58.7753H32.8433V58.9096H32.0378V58.7753H31.0981V58.9096H29.8898V59.0438H29.3528V59.1781H28.8158V59.3123H28.413V59.4466H28.1445V59.3123H28.2788V59.1781H28.5473V59.0438H28.8158V58.9096H28.95V58.7753H29.2185V58.6411H29.487V58.5068H29.6213V58.3726H29.8898V58.2383H30.1583V58.1041H30.4268V57.9698H30.5611V57.8356H30.8296V57.7013H31.0981V57.5671H31.3666V57.4328H31.5008V57.2986H31.7693V57.1643H32.0378V57.0301H32.1721V56.8958H32.4406V56.7616H32.7091V56.6273H32.9776V56.4931H33.1118V56.3588H33.3803V56.2246H33.6488V56.0903H33.9173V55.9561H34.0516V55.8218H34.3201V55.6875H34.5886V55.5533H34.7228V55.419H34.9913V55.2848H35.2599V55.1505H35.5284V55.0163H35.6626V54.882H35.9311V54.7478H36.1996V54.6135H36.4681V54.4793H36.6024V54.345H36.8709V54.2108H37.1394V54.0765H37.2736V53.9423H37.5421V53.808H37.8106V53.6738H38.0791V53.5395H38.2134V53.4053H38.4819V53.271H38.7504V53.1368H39.0189V53.0025H39.1531V52.8683H39.4216V52.734H39.6901V52.5998H39.8244V52.4655H40.0929V52.3313H40.3614V52.197H40.6299V52.0628H40.7642V51.9285H41.0327V51.7943H41.3012V51.66H41.5697V51.5258H41.7039V51.3915H41.9724V51.2573H42.2409V51.123H42.3752V50.9888H42.6437V50.8545H42.9122V50.7202H43.1807V50.586H43.3149V50.4517H43.5834V50.3175H43.8519V50.1832H44.1204V50.049H44.2547V49.9147H44.5232V49.7805H44.7917V49.6462H44.9259V49.512H45.1945V49.3777H45.463V49.2435H45.7315V49.1092H45.8657V48.975H46.1342V48.8407H46.4027V48.7065H46.6712V48.5722H46.8055V48.438H47.074V48.3037H47.3425V48.1695H47.4767V48.0352H47.7452V47.901H48.0137V47.7667H48.2822V47.6325H48.4165V47.4982H48.685V47.364H48.9535V47.2297H49.222V47.0955H49.3562V46.9612H49.6247V46.827H49.8932V46.6927H50.0275V46.5585H50.296V46.4242H50.5645V46.29H50.833V46.1557H50.9673V46.0215H51.2358V45.8872H51.5043V45.7529H51.7728V45.6187H51.907V45.4844H52.1755V45.3502H52.444V45.2159H52.5783V45.0817H52.8468V44.9474H53.1153V44.8132H53.3838V44.6789H53.518V44.5447H53.7865V44.4104H54.055V44.2762H54.3235V44.1419H54.4578V44.0077H54.7263V43.8734H54.9948V43.7392H55.1291V43.6049H55.3976V43.4707H55.6661V43.3364H55.9346V43.2022H56.0688V43.0679H56.3373V42.9337H56.6058V42.7994H56.7401V42.6652H57.0086V42.5309H57.2771V42.3967H57.5456V42.2624H57.6798V42.1282H57.9483V41.9939H58.2168V41.8597H58.4853V41.7254H58.6196V41.8597H58.8881V41.9939H59.0223V42.1282H59.2908V42.2624H59.5593V42.3967H59.8278V42.5309H59.9621V42.6652H60.2306V42.7994H60.4991V42.9337H60.6334V43.0679H61.0361V42.9337H61.1704V42.7994H61.4389V42.6652H61.5731V42.5309H61.8416V42.3967H61.9759V42.2624H62.2444V42.1282H62.3786V41.9939H62.6471V41.8597H62.7814V41.7254H63.0499V41.5912H63.1841V41.4569H63.4526V41.3227H63.5869V41.1884H63.8554V41.0542H63.9896V40.9199H64.2581V40.7856H64.3924V40.6514H64.6609V40.5171H64.7951V40.3829H65.0636V40.2486H65.1979V40.1144H65.4664V39.9801H65.6007V39.8459H65.8692V39.7116H66.0034V39.5774H66.2719V39.4431H66.4062V39.3089H66.6747V39.1746H66.8089V39.0404H67.0774V38.9061H67.2117V38.7719H67.4802V38.6376H67.6144V38.5034H67.8829V38.3691H68.0172V38.2349H68.2857V38.1006H68.4199V37.9664H68.6884V37.8321H69.0912V37.9664H70.1652V38.1006H70.8365V38.2349H71.5077V38.3691H72.179V38.5034H72.716V38.6376H73.1187V38.7719H73.5215V38.9061H74.0585V39.0404H74.4612V39.1746H74.864V39.3089H75.2668V39.4431H75.6695V39.5774H75.938V39.7116H76.3408V39.8459H76.6093V39.9801H76.8778V40.1144H77.2805V40.2486H77.549V40.3829H77.9518V40.5171H78.2203V40.6514H78.4888V40.7856H78.8915V40.9199H79.16V41.0542H79.4285V41.1884H79.697V41.3227H79.9655V41.4569H80.2341V41.5912H80.5026V41.7254H80.7711V41.8597H81.0396V41.9939H81.3081V42.1282H81.5766V42.2624H81.8451V42.3967H82.1136V42.5309H82.3821V42.6652H82.6506V42.7994H82.7848V42.9337H83.0533V43.0679H83.3218V43.2022H83.5903V43.3364H83.7246V43.4707H83.9931V43.6049H84.1273V43.7392H84.3958V43.8734H84.6643V44.0077H84.7986V44.1419H85.0671V44.2762H85.3356V44.4104H85.4699V44.5447H85.7384V44.6789H85.8726V44.8132H86.0069V44.9474H85.7384V45.0817H85.4699V45.2159H85.3356V45.3502H85.0671V45.4844H84.7986V45.6187H84.5301V45.7529H84.3958V45.8872H84.1273V46.0215H83.8588V46.1557H83.5903V46.29H83.4561V46.4242H83.1876V46.5585H82.9191V46.6927H82.6506V46.827H82.5163V46.9612H82.2478V47.0955H81.9793V47.2297H81.8451V47.364H81.5766V47.4982H81.3081V47.6325H81.0396V47.7667H80.9053V47.901H80.6368V48.0352H80.3683V48.1695H80.0998V48.3037H79.9655V48.438H79.697V48.5722H79.4285V48.7065H79.2943V48.8407H79.0258V48.975H78.7573V49.1092H78.4888V49.2435H78.3545V49.3777H78.086V49.512H77.8175V49.6462H77.6833V49.7805H77.4148V49.9147H77.1463V50.049H76.8778V50.1832H76.7435V50.3175H76.475V50.4517H76.2065V50.586H75.938V50.7202H75.8038V50.8545H75.5353V50.9888H75.2668V51.123H75.1325V51.2573H74.864V51.3915H74.5955V51.5258H74.327V51.66H74.1927V51.7943H73.9242V51.9285H73.6557V52.0628H73.3872V52.197H73.253V52.3313H72.9845V52.4655H72.716V52.5998H72.5817V52.734H72.3132V52.8683H72.0447V53.0025H71.7762V53.1368H71.642V53.271H71.3735V53.4053H71.105V53.5395H70.8365V53.6738H70.7022V53.808H70.4337V53.9423H70.1652V54.0765H69.8967V54.2108H69.7624V54.345H69.4939V54.4793H69.2254V54.6135H69.0912V54.7478H68.8227V54.882H68.5542V55.0163H68.2857V55.1505H68.1514V55.2848H67.8829V55.419H67.6144V55.5533H67.3459V55.6875H67.2117V55.8218H66.9432V55.9561H66.6747V56.0903H66.5404V56.2246H66.2719V56.3588H66.0034V56.4931H65.7349V56.6273H65.6007V56.7616H65.3322V56.8958H65.0636V57.0301H64.7951V57.1643H64.6609V57.2986H64.3924V57.4328H64.1239V57.5671H63.9896V57.7013H63.7211V57.8356H63.4526V57.9698H63.1841V58.1041H63.0499V58.2383H62.7814V58.3726H62.5129V58.5068H62.2444V58.6411H62.1101V58.7753H61.8416V58.9096H61.5731V59.0438H61.4389V59.1781H61.1704V59.3123H60.9019V59.4466H60.6334V59.5808H60.4991V59.7151H60.2306V59.8493H59.9621V59.9836H59.6936V60.1178H59.5593V60.2521H59.2908V60.3863H59.0223V60.5206H58.8881V60.6548H58.6196V60.7891H58.3511V60.9234H58.0826V61.0576H57.9483V61.1919H57.6798V61.3261H57.4113V61.4604H57.1428V61.5946H57.0086V61.7289H56.7401V61.8631H56.4716V61.9974H56.3373V62.1316H56.0688V62.2659H55.8003V62.4001H55.5318V62.5344H55.3976V62.6686H55.1291V62.8029H54.8605V62.9371H54.592V63.0714H54.4578V63.2056H54.1893V63.3399H53.9208V63.4741H53.7865V63.6084H53.518V63.7426H53.2495V63.8769H52.981V64.0111H52.8468V64.1454H52.5783V64.2796H52.3098V64.4139H52.0413V64.5481H51.907V64.6824H51.6385V64.8166H51.37V64.9509H51.2358V65.0851H50.9673V65.2194H50.6988V65.3536H50.4303V65.4879H50.296V65.6221H50.0275V65.7564" fill="url(#paint6_linear_174_190)"/>
</g>
</g>
<path d="M32.6821 58.8172C34.6771 58.9595 37.0023 59.4925 39.5692 60.4336C51.2813 53.1531 63.1075 46.0539 75.2022 39.4313C73.3509 38.7748 71.6365 38.3466 70.0792 38.1143C57.6381 45.0605 45.1581 51.9355 32.6821 58.8172Z" fill="white"/>
<path d="M103.542 63.0767C91.5596 70.0417 79.634 77.106 67.6615 84.0911C68.3878 85.7155 68.7973 87.2393 68.7973 88.5818C68.7973 90.2814 68.1649 91.5313 67.0278 92.3395L67.0292 92.3408L101.815 72.1279C102.45 71.8984 102.996 71.5856 103.442 71.1841L103.456 71.1748H103.454C104.343 70.3693 104.836 69.2214 104.836 67.7285C104.836 66.5766 104.354 64.9186 103.542 63.0767Z" fill="#AAC7D4"/>
<path d="M27.2048 59.9783H27.2075L27.2195 59.9689L27.2048 59.9783Z" fill="#544B4D"/>
<path d="M68.7971 88.5817C68.7971 81.9269 59.1229 70.9465 47.1893 64.0554C39.0469 59.3539 31.9585 57.7751 28.2746 59.3579C27.8839 59.5257 27.5309 59.7298 27.2194 59.9687L27.2073 59.9781C26.1615 60.789 25.5789 62.0053 25.5789 63.6298C25.5789 70.2873 35.2543 81.2677 47.1893 88.1588C56.0781 93.2899 63.7089 94.7009 67.0276 92.3394C68.1647 91.5312 68.7971 90.2813 68.7971 88.5817Z" fill="#B2C6CC"/>
<mask id="mask9_174_190" style="mask-type:luminance" maskUnits="userSpaceOnUse" x="28" y="58" width="41" height="36">
<path d="M62.7264 93.4497C58.7982 93.4497 53.2898 91.6803 47.1895 88.1589C47.7265 88.469 48.2581 88.763 48.7857 89.0463C50.7068 85.9853 51.2519 82.1175 49.9322 77.8228C48.7065 73.8356 46.4806 70.1504 43.4949 67.2264C42.8491 66.5927 42.1483 65.9335 41.4019 65.2811C39.905 63.3371 38.1463 61.6805 36.2601 60.5447C36.1822 60.4977 36.103 60.4507 36.0238 60.4051C34.398 59.464 32.8622 59.0156 31.4995 59.0156C30.7853 59.0156 30.1181 59.1377 29.5126 59.3781C29.4481 59.2653 29.4025 59.1418 29.3743 59.0129C28.9904 59.1042 28.6225 59.2102 28.2922 59.3512C29.2119 58.9592 30.3436 58.7632 31.6512 58.7632C35.5794 58.7632 41.0877 60.5326 47.1895 64.0554C48.0903 64.5763 48.9804 65.12 49.853 65.6838V72.8099L49.9564 72.8676L57.8853 77.4456V71.8084C64.4032 77.647 68.7972 84.0964 68.7972 88.5818C68.7972 90.2814 68.1649 91.5313 67.0278 92.3394C65.986 93.0805 64.5213 93.4497 62.7264 93.4497Z" fill="white"/>
</mask>
<g mask="url(#mask9_174_190)">
<path d="M62.7264 93.4497C58.7982 93.4497 53.2898 91.6803 47.1895 88.1589C47.7265 88.469 48.2581 88.763 48.7857 89.0463C50.7068 85.9853 51.2519 82.1175 49.9322 77.8228C48.7065 73.8356 46.4806 70.1504 43.4949 67.2264C42.8491 66.5927 42.1483 65.9335 41.4019 65.2811C39.905 63.3371 38.1463 61.6805 36.2601 60.5447C36.1822 60.4977 36.103 60.4507 36.0238 60.4051C34.398 59.464 32.8622 59.0156 31.4995 59.0156C30.7853 59.0156 30.1181 59.1377 29.5126 59.3781C29.4481 59.2653 29.4025 59.1418 29.3743 59.0129C28.9904 59.1042 28.6225 59.2102 28.2922 59.3512C29.2119 58.9592 30.3436 58.7632 31.6512 58.7632C35.5794 58.7632 41.0877 60.5326 47.1895 64.0554C48.0903 64.5763 48.9804 65.12 49.853 65.6838V72.8099L49.9564 72.8676L57.8853 77.4456V71.8084C64.4032 77.647 68.7972 84.0964 68.7972 88.5818C68.7972 90.2814 68.1649 91.5313 67.0278 92.3394C65.986 93.0805 64.5213 93.4497 62.7264 93.4497Z" fill="url(#paint7_linear_174_190)"/>
</g>
<path d="M49.9766 89.6625C57.6504 93.5383 64.0622 94.4498 67.0278 92.3394C68.1649 91.5312 68.7973 90.2813 68.7973 88.5817C68.7973 87.5158 68.5247 86.329 68.0589 85.0764C62.0176 86.5451 55.991 88.0796 49.9766 89.6625Z" fill="#869EA6"/>
<path d="M48.7855 89.0464C50.7067 85.9855 51.2517 82.1177 49.9321 77.823C48.7063 73.8357 46.4804 70.1505 43.4947 67.2265C40.1518 63.9494 35.3322 59.9622 30.4495 59.9071C29.8239 59.8991 29.4762 59.4869 29.3741 59.013C28.9835 59.1057 28.6102 59.2144 28.2746 59.3581C27.8839 59.5259 27.5309 59.7299 27.2194 59.9689L27.2073 59.9783C26.1615 60.7892 25.5789 62.0055 25.5789 63.6299C25.5789 70.2874 35.2543 81.2679 47.1893 88.159C47.7263 88.4691 48.2579 88.7631 48.7855 89.0464Z" fill="#869EA6"/>
<path d="M85.9346 51.981L85.8795 52.0723L55.4152 69.7075L49.9565 72.8678L57.8854 77.4458V71.8072L74.8226 62.0029L76.9934 64.0475L80.5659 61.9304V58.6775L89.0331 53.7746L85.9346 51.981Z" fill="#BFD5DB"/>
<path d="M85.8794 51.9513V44.8239L49.853 65.6812V72.81L49.9564 72.8677L55.4151 69.7074L85.8794 52.0722L85.9344 51.9808L85.8794 51.9513Z" fill="#869EA6"/>
<mask id="mask10_174_190" style="mask-type:luminance" maskUnits="userSpaceOnUse" x="49" y="44" width="37" height="29">
<path d="M49.9564 72.8677L49.853 72.81V65.6812L85.8794 44.8239V51.9513L85.9344 51.9808L85.8794 52.0722L55.4151 69.7074L49.9564 72.8677Z" fill="white"/>
</mask>
<g mask="url(#mask10_174_190)">
<path d="M49.9564 72.8677L49.853 72.81V65.6812L85.8794 44.8239V51.9513L85.9344 51.9808L85.8794 52.0722L55.4151 69.7074L49.9564 72.8677Z" fill="url(#paint8_linear_174_190)"/>
</g>
<path d="M69.8267 50.8881C61.6857 46.1879 54.5959 44.6078 50.9107 46.1879C50.5227 46.3611 45.1138 49.5858 45.1138 49.5858L45.2024 49.5442C46.0817 49.1643 47.1678 48.9683 48.411 48.9562C52.3472 48.8971 57.9254 50.6679 64.1184 54.239C65.0246 54.7612 65.9147 55.3089 66.7913 55.8728L72.5373 52.5447C71.6486 51.9728 70.7464 51.4184 69.8267 50.8881Z" fill="#B2C6CC"/>
<path d="M80.5658 58.6772V61.9301L76.9934 64.0473L76.9585 64.0137C82.2762 69.2804 85.7278 74.7941 85.7278 78.7693C85.7278 79.3251 85.6607 79.8285 85.5278 80.2823C85.2606 81.2315 84.7222 81.9779 83.9543 82.5256L88.9834 79.5748L89.6627 79.1734C90.8025 78.3638 91.4362 77.1113 91.4362 75.4117C91.4362 70.9371 87.0596 64.5051 80.5658 58.6772Z" fill="#96AAB5"/>
<path d="M72.5373 52.5475V56.1535L66.79 59.4802V55.8756L72.5373 52.5475Z" fill="#B2C6CC"/>
<path d="M87.7172 14.7622L87.7145 14.7649C55.7949 -2.93746 16.2659 17.3855 52.0829 38.0696C52.1956 38.1582 52.3232 38.2361 52.4722 38.2992L52.4708 38.3005L60.8656 43.2141L96.1589 19.6838L87.7172 14.7622Z" fill="#D1E1E6"/>
<mask id="mask11_174_190" style="mask-type:luminance" maskUnits="userSpaceOnUse" x="37" y="8" width="60" height="36">
<path d="M60.8655 43.2141L54.7772 39.6511L52.4708 38.3005L52.4721 38.2992C52.3231 38.2361 52.1956 38.1582 52.0828 38.0696C51.2639 37.597 50.4839 37.1245 49.7428 36.6519C48.0445 35.5698 46.5463 34.4905 45.24 33.4205C40.1049 29.2184 37.8978 25.152 37.8965 21.5473C37.8911 13.6627 48.4406 7.99998 61.9664 7.99998C70.0269 7.99998 79.1465 10.0124 87.7145 14.7649L87.7172 14.7622L96.1589 19.6838L74.2155 34.3146L69.5758 37.4077L60.8655 43.2141Z" fill="white"/>
</mask>
<g mask="url(#mask11_174_190)">
<path d="M60.8655 43.2141L54.7772 39.6511L52.4708 38.3005L52.4721 38.2992C52.3231 38.2361 52.1956 38.1582 52.0828 38.0696C51.2639 37.597 50.4839 37.1245 49.7428 36.6519C48.0445 35.5698 46.5463 34.4905 45.24 33.4205C40.1049 29.2184 37.8978 25.152 37.8965 21.5473C37.8911 13.6627 48.4406 7.99998 61.9664 7.99998C70.0269 7.99998 79.1465 10.0124 87.7145 14.7649L87.7172 14.7622L96.1589 19.6838L74.2155 34.3146L69.5758 37.4077L60.8655 43.2141Z" fill="url(#paint9_linear_174_190)"/>
</g>
<path d="M46.6754 12.5366C39.8379 16.246 38.6632 22.6994 43.2774 28.4561C47.1748 33.3174 60.5099 40.2098 61.2295 40.7039L67.5353 35.8655C66.3727 35.5647 53.4322 29.3972 49.3577 24.8206C45.1798 20.1272 45.9464 16.5507 46.6754 12.5366Z" fill="white"/>
<path d="M96.7323 20.813C96.7323 24.0565 88.5295 31.4202 78.411 37.2615C68.2925 43.1014 60.0911 45.2105 60.0911 41.9697C60.0911 38.7248 68.2925 31.3624 78.411 25.5212C88.5295 19.6799 96.7323 17.5722 96.7323 20.813Z" fill="#869EA6"/>
<path d="M63.4541 40.7039C65.3323 38.1195 71.0044 32.8998 79.7549 27.8479C85.8351 24.3373 90.7098 22.5075 93.368 22.0792C91.4911 24.6662 85.8177 29.8832 77.0685 34.9337C70.9869 38.4458 66.1123 40.2769 63.4541 40.7039Z" fill="white"/>
<path d="M86.1693 92.9921V95.3603L83.5648 96.8384L82.2344 97.6077V95.3603L86.1693 92.9921Z" fill="#3A565E"/>
<path d="M77.7666 84.384L86.1693 92.9922L82.2344 95.3604L73.6987 86.9575L77.7666 84.384Z" fill="#D1E1E6"/>
<path d="M85.6362 98.5836V100.877L81.7161 103.657V101.277L85.6362 98.5836Z" fill="#3A565E"/>
<path d="M85.6362 98.5838L81.716 101.277L72.6487 94.8422L75.429 93.156L82.2342 97.6078L83.5647 96.8385L85.6362 98.5838Z" fill="#547078"/>
<path d="M68.2708 86.2177L68.5661 83.5555L73.6986 86.9574L82.2343 95.3602V97.6076L75.4291 93.1558L73.0475 91.6025L72.6487 94.842L81.7161 101.277V103.657L71.7613 99.1018L67.2505 95.3602L67.6049 92.2241L67.7969 90.4936L68.0788 87.9482L68.2708 86.2177Z" fill="#B2C6CC"/>
<path d="M77.7664 84.3837L73.6986 86.9573L68.5662 83.5554L72.6487 80.8327L77.7664 84.3837Z" fill="white"/>
<path d="M75.429 93.1559L72.6487 94.842L73.0474 91.6026L75.429 93.1559Z" fill="#3A565E"/>
<path d="M68.2712 86.2176L68.0792 87.9482C67.5462 88.3039 66.3769 89.0732 65.2827 89.7686C64.351 90.3593 63.4636 90.907 63.124 91.0843C62.25 91.5582 61.3626 90.2264 62.4285 89.6491C62.6353 89.531 63.4636 89.0584 64.4396 88.4811C65.86 87.638 67.6053 86.6029 68.2712 86.2176Z" fill="#869EA6"/>
<path d="M67.7969 90.4937L67.6049 92.2242C67.472 92.3115 67.28 92.431 67.0719 92.5639C66.3765 93.0525 65.371 93.7023 64.795 94.0433C63.8177 94.6045 63.3599 93.1707 64.011 92.8297C64.3359 92.6525 65.3857 92.0014 66.3335 91.4107C66.9243 91.0401 67.4868 90.6857 67.7969 90.4937Z" fill="#869EA6"/>
<path d="M67.0869 92.5785L67.2507 92.8295L64.3804 94.9158L61.2295 89.4867L64.0112 87.7709L64.4394 88.4663V88.4811C63.4634 89.0584 62.6351 89.531 62.4284 89.6491C61.3624 90.2264 62.2498 91.5581 63.1238 91.0842C63.4634 90.907 64.3508 90.3593 65.2825 89.7686L66.3337 91.4105C65.3859 92.0012 64.3361 92.6523 64.0112 92.8295C63.3601 93.1705 63.8179 94.6043 64.7952 94.0431C65.3712 93.7021 66.3767 93.0524 67.0721 92.5637L67.0869 92.5785Z" fill="#3A565E"/>
<path d="M61.2295 89.4867L64.3804 94.9158L60.3717 97.5928L55.2983 100.967C54.8835 98.3325 53.3302 95.5361 51.3191 93.7022L61.2295 89.4867Z" fill="#B2C6CC"/>
<path d="M64.0112 87.7709L61.2295 89.4867L51.3191 93.7021L56.2891 90.7742L64.0112 87.7709Z" fill="white"/>
<path d="M60.3716 97.5927C60.5192 98.2733 60.6078 98.9527 60.6078 99.6038C60.6078 101.528 59.8842 102.845 58.7149 103.376L53.863 105.935C54.8243 105.315 55.4163 104.072 55.4163 102.341C55.4163 101.897 55.372 101.424 55.2982 100.966L60.3716 97.5927Z" fill="#547078"/>
<path d="M56.2891 90.7742L51.3191 93.7021H51.3044C50.8157 93.2591 50.2988 92.8738 49.7659 92.5637C49.2772 92.2831 48.8046 92.0911 48.3616 91.9717L48.4059 91.7797L51.5554 89.8277L51.2158 89.3094C52.2065 88.8517 53.5235 88.998 54.9587 89.8277C55.4165 90.0935 55.8609 90.4036 56.2891 90.7742Z" fill="#D1E1E6"/>
<path d="M55.2985 100.967C55.3723 101.424 55.4166 101.897 55.4166 102.341C55.4166 104.072 54.8246 105.315 53.8633 105.935C52.843 106.586 51.3784 106.527 49.766 105.596C46.6594 103.806 44.1301 99.4267 44.1301 95.818C44.1301 94.9897 44.2644 94.2795 44.5154 93.7022C45.1518 92.1194 46.5869 91.4535 48.3617 91.9717C48.8048 92.0912 49.2773 92.2832 49.766 92.5638C50.299 92.8739 50.8159 93.2592 51.3045 93.7022H51.3193C53.3304 95.5361 54.8837 98.3326 55.2985 100.967Z" fill="#869EA6"/>
<path d="M51.2159 89.3095L51.5555 89.8278L48.406 91.7798L47.8435 91.0843L40.167 81.8398L44.7074 79.281L45.7868 80.9376L51.2159 89.3095Z" fill="white"/>
<path d="M47.8433 91.0842L48.4045 91.7797L48.3615 91.9717C46.5854 91.4535 45.1515 92.1193 44.5152 93.7021H44.5004L37.9329 87.1198C40.152 85.0644 40.1668 81.8397 40.1668 81.8397L47.8433 91.0842Z" fill="#B2C6CC"/>
<path d="M46.1717 77.964C46.1717 79.0742 46.0388 80.065 45.7864 80.9377L44.7071 79.2796L40.1667 81.8398C40.1667 81.8398 40.1519 85.0645 37.9327 87.1199L36.0693 88.053C37.7703 86.9427 38.8201 84.7249 38.8201 81.6183C38.8201 75.1541 34.2798 67.2856 28.6869 64.0448C26.1133 62.5667 23.7618 62.3143 21.9873 63.1131L28.6734 59.7998H28.6869C30.5368 58.617 33.14 58.7351 36.0237 60.4052C41.63 63.6313 46.1717 71.4998 46.1717 77.964Z" fill="#D1E1E6"/>
<path d="M33.2382 59.2532C30.7854 60.4816 28.3259 61.6979 25.853 62.8793C26.7525 63.0968 27.703 63.4794 28.6871 64.0446C28.9408 64.1923 29.1905 64.3588 29.4402 64.5239C31.9762 63.3667 34.5122 62.2081 37.0509 61.0575C36.714 60.8226 36.3716 60.6051 36.0239 60.4051C35.0573 59.8452 34.1242 59.4747 33.2382 59.2532Z" fill="white"/>
<path d="M37.9491 76.3771C38.5062 78.1466 38.8204 79.9294 38.8204 81.6183C38.8204 84.7249 37.7705 86.9427 36.0696 88.053L37.933 87.1199C40.1522 85.0645 40.1669 81.8398 40.1669 81.8398L44.7073 79.2796L45.7867 80.9377C46.0391 80.065 46.172 79.0742 46.172 77.964C46.172 76.2778 45.8323 74.4989 45.2752 72.7295C42.8372 73.9512 40.3938 75.1662 37.9491 76.3771Z" fill="#AAC7D4"/>
<path d="M28.6871 64.045C34.28 67.2858 38.8204 75.1543 38.8204 81.6185C38.8204 84.7251 37.7705 86.9429 36.0695 88.0532L36.0239 88.0679C34.1752 89.2507 31.5721 89.1325 28.6871 87.4598C23.0814 84.2364 18.541 76.3666 18.541 69.9037C18.541 66.4118 19.872 64.0302 21.9875 63.1133C23.7621 62.3145 26.1135 62.5669 28.6871 64.045Z" fill="#869EA6"/>
<mask id="mask12_174_190" style="mask-type:luminance" maskUnits="userSpaceOnUse" x="18" y="62" width="21" height="27">
<path d="M33.214 88.8518C31.8514 88.8518 30.3142 88.4034 28.6871 87.4596C23.0814 84.2362 18.541 76.3664 18.541 69.9036C18.541 66.4117 19.872 64.0301 21.9875 63.1131C22.642 62.8191 23.3746 62.6674 24.168 62.6674C25.5268 62.6674 27.0626 63.1118 28.6871 64.0448C34.28 67.2857 38.8204 75.1541 38.8204 81.6183C38.8204 84.7249 37.7705 86.9428 36.0695 88.053L36.0239 88.0678C35.993 88.0866 35.9621 88.1067 35.9313 88.1255C35.1445 88.6035 34.2276 88.8518 33.214 88.8518Z" fill="white"/>
</mask>
<g mask="url(#mask12_174_190)">
<path d="M33.214 88.8518C31.8514 88.8518 30.3142 88.4034 28.6871 87.4596C23.0814 84.2362 18.541 76.3664 18.541 69.9036C18.541 66.4117 19.872 64.0301 21.9875 63.1131C22.642 62.8191 23.3746 62.6674 24.168 62.6674C25.5268 62.6674 27.0626 63.1118 28.6871 64.0448C34.28 67.2857 38.8204 75.1541 38.8204 81.6183C38.8204 84.7249 37.7705 86.9428 36.0695 88.053L36.0239 88.0678C35.993 88.0866 35.9621 88.1067 35.9313 88.1255C35.1445 88.6035 34.2276 88.8518 33.214 88.8518Z" fill="url(#paint10_linear_174_190)"/>
</g>
<path d="M53.1839 101.395C53.1839 102.489 52.8281 103.288 52.2508 103.701H52.236C50.7432 104.752 48.716 103.435 47.74 102.518C47.9024 102.636 48.0648 102.755 48.2273 102.845C49.6034 103.643 50.7123 102.991 50.7123 101.409C50.7123 99.8265 49.6034 97.8879 48.2273 97.0905C46.8526 96.3051 45.7275 96.9415 45.7275 98.5404C45.7275 98.8948 45.7866 99.2493 45.8913 99.6184C45.2993 97.6369 45.4913 95.5224 46.7935 94.7384C47.4742 94.3236 48.4206 94.3679 49.4705 94.9747C51.5111 96.1574 53.1839 99.0277 53.1839 101.395Z" fill="#B2C6CC"/>
<path d="M50.712 101.41C50.712 102.991 49.6031 103.644 48.2271 102.845C48.0646 102.755 47.9022 102.637 47.7397 102.519L47.6807 102.459C46.8671 101.795 46.2012 100.744 45.9059 99.6925L45.8911 99.6187C45.7864 99.2495 45.7273 98.8951 45.7273 98.5406C45.7273 96.9417 46.8523 96.3053 48.2271 97.0907C49.6031 97.8882 50.712 99.8268 50.712 101.41Z" fill="#D1E1E6"/>
<path d="M71.5105 91.765C71.5105 92.1946 71.3628 92.49 71.1413 92.6524C70.5627 93.0525 69.78 92.5638 69.4108 92.1946L69.5866 92.3262C70.1196 92.6376 70.5492 92.3866 70.5492 91.7798C70.5492 91.1582 70.1196 90.4185 69.5866 90.1083C69.055 89.7969 68.6254 90.0493 68.6254 90.6561L68.6402 90.8628C68.4777 90.1527 68.5811 89.4733 69.0403 89.1914C69.3061 89.0276 69.6618 89.0585 70.0753 89.28C70.8594 89.7378 71.5105 90.8481 71.5105 91.765Z" fill="#869EA6"/>
<path d="M69.5867 90.1083C70.1197 90.4184 70.5493 91.1581 70.5493 91.7797C70.5493 92.3865 70.1197 92.6376 69.5867 92.3261L69.4109 92.1945L69.38 92.1798C69.0699 91.9126 68.8188 91.5273 68.7007 91.1138L68.6403 90.8628L68.6255 90.656C68.6255 90.0492 69.0551 89.7968 69.5867 90.1083Z" fill="#D1E1E6"/>
<path d="M28.1405 68.3799C31.823 70.4943 34.8114 75.6724 34.8114 79.9322C34.8114 81.8829 34.1751 83.3046 33.1252 84.0591C30.4335 85.9373 26.7644 83.5704 25.0048 81.899C25.3011 82.1352 25.5964 82.3581 25.9065 82.5353C28.3768 83.9543 30.3744 82.8011 30.3744 79.9469C30.3744 77.0914 28.3768 73.6304 25.9065 72.1953C23.4369 70.7762 21.4256 71.9295 21.4256 74.785C21.4256 75.2871 21.485 75.8201 21.6176 76.353C20.6705 72.9055 21.0696 69.3263 23.3477 67.9503C24.5607 67.2105 26.2623 67.2857 28.1405 68.3799Z" fill="#B2C6CC"/>
<path d="M21.6324 76.4403L21.6178 76.353C21.4851 75.82 21.4258 75.287 21.4258 74.7849C21.4258 71.9294 23.437 70.7762 25.9067 72.1952C28.3769 73.6304 30.3746 77.0914 30.3746 79.9469C30.3746 82.8011 28.3769 83.9543 25.9067 82.5353C25.5966 82.358 25.3012 82.1352 25.0049 81.8989L24.9311 81.8398C23.363 80.539 22.1055 78.4527 21.6324 76.4403Z" fill="#D1E1E6"/>
<path d="M21.707 75.0252L21.7092 74.9728C21.6955 74.6519 21.7243 74.3391 21.7835 74.0492C22.1202 72.4086 23.4119 71.9817 24.6647 73.0906C25.9149 74.2062 26.6546 76.4308 26.3176 78.0713C25.982 79.7119 24.6977 80.1401 23.4454 79.0325C23.2881 78.8943 23.1439 78.7319 23.0017 78.56L22.9667 78.517C22.2188 77.5853 21.7427 76.2375 21.707 75.0252Z" fill="white"/>
</g>
<defs>
<filter id="filter0_d_174_190" x="0.585791" y="0.9" width="147.828" height="174.2" filterUnits="userSpaceOnUse" color-interpolation-filters="sRGB">
<feFlood flood-opacity="0" result="BackgroundImageFix"/>
<feColorMatrix in="SourceAlpha" type="matrix" values="0 0 0 0 0 0 0 0 0 0 0 0 0 0 0 0 0 0 127 0" result="hardAlpha"/>
<feOffset dy="10"/>
<feGaussianBlur stdDeviation="8.55"/>
<feComposite in2="hardAlpha" operator="out"/>
<feColorMatrix type="matrix" values="0 0 0 0 0.705882 0 0 0 0 0.929412 0 0 0 0 1 0 0 0 0.33 0"/>
<feBlend mode="normal" in2="BackgroundImageFix" result="effect1_dropShadow_174_190"/>
<feBlend mode="normal" in="SourceGraphic" in2="effect1_dropShadow_174_190" result="shape"/>
</filter>
<linearGradient id="paint0_linear_174_190" x1="67.1326" y1="48.2513" x2="91.3169" y2="48.2513" gradientUnits="userSpaceOnUse">
<stop stop-color="#B2B6CB"/>
<stop offset="1" stop-color="#B2C6CC"/>
</linearGradient>
<linearGradient id="paint1_linear_174_190" x1="50.029" y1="31.2351" x2="40.6313" y2="51.8207" gradientUnits="userSpaceOnUse">
<stop stop-color="#A0A8BC"/>
<stop offset="1" stop-color="#A0B6BD"/>
</linearGradient>
<linearGradient id="paint2_linear_174_190" x1="53.5074" y1="36.056" x2="48.3615" y2="47.6909" gradientUnits="userSpaceOnUse">
<stop stop-color="#8692A5"/>
<stop offset="1" stop-color="#869EA6"/>
</linearGradient>
<linearGradient id="paint3_linear_174_190" x1="79.1871" y1="137.166" x2="91.4939" y2="78.0953" gradientUnits="userSpaceOnUse">
<stop stop-color="#A09BB9"/>
<stop offset="1" stop-color="#547078"/>
</linearGradient>
<linearGradient id="paint4_linear_174_190" x1="66.5137" y1="91.2063" x2="92.0215" y2="115.819" gradientUnits="userSpaceOnUse">
<stop stop-color="#8692A5"/>
<stop offset="1" stop-color="#869EA6"/>
</linearGradient>
<linearGradient id="paint5_linear_174_190" x1="26.9711" y1="160.414" x2="50.2409" y2="102.015" gradientUnits="userSpaceOnUse">
<stop stop-color="#A09BB9"/>
<stop offset="1" stop-color="#547078"/>
</linearGradient>
<linearGradient id="paint6_linear_174_190" x1="47.6512" y1="31.5881" x2="73.8303" y2="73.6531" gradientUnits="userSpaceOnUse">
<stop stop-color="#D1CFE5"/>
<stop offset="1" stop-color="#D1E1E6"/>
</linearGradient>
<linearGradient id="paint7_linear_174_190" x1="46.0107" y1="64.3292" x2="48.92" y2="93.4175" gradientUnits="userSpaceOnUse">
<stop stop-color="#B2B6CB"/>
<stop offset="1" stop-color="#B2C6CC"/>
</linearGradient>
<linearGradient id="paint8_linear_174_190" x1="71.6192" y1="68.6696" x2="66.2492" y2="54.5733" gradientUnits="userSpaceOnUse">
<stop stop-color="#BCBBD1"/>
<stop offset="1" stop-color="#869EA6"/>
</linearGradient>
<linearGradient id="paint9_linear_174_190" x1="37.8965" y1="25.6084" x2="96.1582" y2="25.6084" gradientUnits="userSpaceOnUse">
<stop stop-color="#D1CFE5"/>
<stop offset="1" stop-color="#D1E1E6"/>
</linearGradient>
<linearGradient id="paint10_linear_174_190" x1="33.5564" y1="99.8698" x2="27.5147" y2="69.9975" gradientUnits="userSpaceOnUse">
<stop stop-color="#BCBBD1"/>
<stop offset="1" stop-color="#869EA6"/>
</linearGradient>
</defs>
</svg>
