<svg width="84" height="84" viewBox="0 0 84 84" fill="none" xmlns="http://www.w3.org/2000/svg">
<rect x="0.5" y="0.5" width="83" height="83" rx="19.5" stroke="url(#paint0_linear_146_17312)"/>
<path d="M25.584 48H23.136L21.392 45.072H15.888L16.848 43.424H20.416L17.824 39.072L12.544 48H10.224L16.912 36.864C17.152 36.464 17.456 36.208 17.904 36.208C18.352 36.208 18.64 36.464 18.88 36.864L25.584 48ZM36.9053 48H30.6013C27.3533 48 24.9533 45.44 24.9533 42.064C24.9533 38.64 27.3533 36.368 30.6013 36.368H36.9053V38.4H30.6013C28.5213 38.4 26.9853 39.952 26.9853 42.16C26.9853 44.352 28.5052 45.968 30.6013 45.968H36.9053V48ZM50.1709 48H43.8669C40.6189 48 38.2189 45.44 38.2189 42.064C38.2189 38.64 40.6189 36.368 43.8669 36.368H50.1709V38.4H43.8669C41.7869 38.4 40.2509 39.952 40.2509 42.16C40.2509 44.352 41.7709 45.968 43.8669 45.968H50.1709V48ZM62.2205 48H51.8205V36.368H62.2045V38.4H53.8365V45.968H62.2205V48ZM61.7725 42.944H55.3245V41.232H61.7725V42.944ZM73.8171 48H63.9611V36.368H65.9931V45.968H73.8171V48Z" fill="white"/>
<defs>
<linearGradient id="paint0_linear_146_17312" x1="42" y1="0" x2="42" y2="84" gradientUnits="userSpaceOnUse">
<stop stop-color="#B0EFF2"/>
<stop offset="1" stop-color="#B4EEFE"/>
</linearGradient>
</defs>
</svg>
