<svg width="84" height="84" viewBox="0 0 84 84" fill="none" xmlns="http://www.w3.org/2000/svg">
<rect x="0.5" y="0.5" width="83" height="83" rx="19.5" stroke="url(#paint0_linear_146_17184)"/>
<path d="M14.8095 61.4885C14.8095 61.574 14.7402 61.6433 14.6548 61.6433C14.5693 61.6433 14.5 61.574 14.5 61.4885C14.5 61.403 14.5693 61.3337 14.6548 61.3337C14.7402 61.3337 14.8095 61.403 14.8095 61.4885Z" fill="white" stroke="url(#paint1_linear_146_17184)"/>
<path d="M16.6191 61.3335H17.6013C17.6423 61.3335 17.6817 61.3498 17.7107 61.3788C17.7397 61.4078 17.756 61.4472 17.756 61.4883C17.756 61.5293 17.7397 61.5687 17.7107 61.5977L18.0642 61.9512L17.7107 61.5977C17.6817 61.6267 17.6423 61.643 17.6013 61.643H16.6191C16.5781 61.643 16.5387 61.6267 16.5097 61.5977C16.4807 61.5687 16.4644 61.5293 16.4644 61.4883C16.4644 61.4472 16.4807 61.4078 16.5097 61.3788C16.5387 61.3498 16.5781 61.3335 16.6191 61.3335Z" fill="white" stroke="url(#paint2_linear_146_17184)"/>
<path d="M65.3989 61.3335H66.381C66.4221 61.3335 66.4615 61.3498 66.4905 61.3788C66.5195 61.4078 66.5358 61.4472 66.5358 61.4883C66.5358 61.5293 66.5195 61.5687 66.4905 61.5977C66.4615 61.6267 66.4221 61.643 66.381 61.643H65.3989C65.3579 61.643 65.3185 61.6267 65.2895 61.5977C65.2604 61.5687 65.2441 61.5293 65.2441 61.4883C65.2441 61.4472 65.2604 61.4078 65.2895 61.3788C65.3185 61.3498 65.3579 61.3335 65.3989 61.3335Z" fill="white" stroke="url(#paint3_linear_146_17184)"/>
<path d="M68.5 61.4885C68.5 61.574 68.4307 61.6433 68.3452 61.6433C68.2597 61.6433 68.1904 61.574 68.1904 61.4885C68.1904 61.403 68.2597 61.3337 68.3452 61.3337C68.4307 61.3337 68.5 61.403 68.5 61.4885Z" fill="white" stroke="url(#paint4_linear_146_17184)"/>
<path d="M52.6811 63.4526H49.9613C49.7967 63.4658 49.6431 63.5405 49.5311 63.6619C49.4191 63.7832 49.3569 63.9423 49.3569 64.1074C49.3569 64.2725 49.4191 64.4316 49.5311 64.5529C49.6431 64.6743 49.7967 64.749 49.9613 64.7622H52.6811C52.8457 64.749 52.9993 64.6743 53.1113 64.5529C53.2233 64.4316 53.2855 64.2725 53.2855 64.1074C53.2855 63.9423 53.2233 63.7832 53.1113 63.6619C52.9993 63.5405 52.8457 63.4658 52.6811 63.4526Z" fill="white"/>
<path d="M33.0385 63.4526H30.3188C30.1542 63.4658 30.0006 63.5405 29.8886 63.6619C29.7765 63.7832 29.7144 63.9423 29.7144 64.1074C29.7144 64.2725 29.7765 64.4316 29.8886 64.5529C30.0006 64.6743 30.1542 64.749 30.3188 64.7622H33.0385C33.2031 64.749 33.3567 64.6743 33.4687 64.5529C33.5808 64.4316 33.6429 64.2725 33.6429 64.1074C33.6429 63.9423 33.5808 63.7832 33.4687 63.6619C33.3567 63.5405 33.2031 63.4658 33.0385 63.4526Z" fill="white"/>
<path d="M48.0479 63.4526H34.9526C34.779 63.4526 34.6124 63.5216 34.4896 63.6444C34.3668 63.7672 34.2979 63.9337 34.2979 64.1074C34.2979 64.2811 34.3668 64.4476 34.4896 64.5704C34.6124 64.6932 34.779 64.7622 34.9526 64.7622H40.1711V65.4169H37.5717C37.398 65.4169 37.2315 65.4859 37.1087 65.6087C36.9859 65.7315 36.9169 65.898 36.9169 66.0717C36.9169 66.2453 36.9859 66.4119 37.1087 66.5347C37.2315 66.6575 37.398 66.7264 37.5717 66.7264H45.7562C45.9298 66.7264 46.0964 66.6575 46.2192 66.5347C46.342 66.4119 46.4109 66.2453 46.4109 66.0717C46.4109 65.898 46.342 65.7315 46.2192 65.6087C46.0964 65.4859 45.9298 65.4169 45.7562 65.4169H42.8294V64.7622H48.0479C48.2215 64.7622 48.388 64.6932 48.5108 64.5704C48.6336 64.4476 48.7026 64.2811 48.7026 64.1074C48.7026 63.9337 48.6336 63.7672 48.5108 63.6444C48.388 63.5216 48.2215 63.4526 48.0479 63.4526Z" fill="white"/>
<mask id="path-9-inside-1_146_17184" fill="white">
<path d="M17.2736 40.5358C17.4679 40.5358 17.6578 40.4782 17.8193 40.3703C17.9808 40.2624 18.1067 40.109 18.181 39.9295C18.2554 39.7501 18.2748 39.5526 18.2369 39.3621C18.199 39.1716 18.1055 38.9966 17.9681 38.8592C17.8308 38.7218 17.6558 38.6283 17.4653 38.5904C17.2747 38.5525 17.0773 38.572 16.8978 38.6463C16.7183 38.7206 16.5649 38.8465 16.457 39.008C16.3491 39.1695 16.2915 39.3594 16.2915 39.5537C16.2918 39.8141 16.3954 40.0637 16.5795 40.2478C16.7636 40.432 17.0133 40.5355 17.2736 40.5358ZM17.2736 39.0626C17.3708 39.0626 17.4657 39.0914 17.5465 39.1454C17.6272 39.1993 17.6902 39.276 17.7273 39.3658C17.7645 39.4555 17.7742 39.5542 17.7553 39.6495C17.7363 39.7447 17.6896 39.8322 17.6209 39.9009C17.5522 39.9696 17.4647 40.0164 17.3695 40.0353C17.2742 40.0543 17.1755 40.0445 17.0857 40.0074C16.996 39.9702 16.9193 39.9073 16.8653 39.8265C16.8114 39.7457 16.7826 39.6508 16.7826 39.5537C16.7827 39.4235 16.8345 39.2986 16.9265 39.2066C17.0186 39.1145 17.1434 39.0627 17.2736 39.0626Z"/>
</mask>
<path d="M17.2736 40.5358C17.4679 40.5358 17.6578 40.4782 17.8193 40.3703C17.9808 40.2624 18.1067 40.109 18.181 39.9295C18.2554 39.7501 18.2748 39.5526 18.2369 39.3621C18.199 39.1716 18.1055 38.9966 17.9681 38.8592C17.8308 38.7218 17.6558 38.6283 17.4653 38.5904C17.2747 38.5525 17.0773 38.572 16.8978 38.6463C16.7183 38.7206 16.5649 38.8465 16.457 39.008C16.3491 39.1695 16.2915 39.3594 16.2915 39.5537C16.2918 39.8141 16.3954 40.0637 16.5795 40.2478C16.7636 40.432 17.0133 40.5355 17.2736 40.5358ZM17.2736 39.0626C17.3708 39.0626 17.4657 39.0914 17.5465 39.1454C17.6272 39.1993 17.6902 39.276 17.7273 39.3658C17.7645 39.4555 17.7742 39.5542 17.7553 39.6495C17.7363 39.7447 17.6896 39.8322 17.6209 39.9009C17.5522 39.9696 17.4647 40.0164 17.3695 40.0353C17.2742 40.0543 17.1755 40.0445 17.0857 40.0074C16.996 39.9702 16.9193 39.9073 16.8653 39.8265C16.8114 39.7457 16.7826 39.6508 16.7826 39.5537C16.7827 39.4235 16.8345 39.2986 16.9265 39.2066C17.0186 39.1145 17.1434 39.0627 17.2736 39.0626Z" fill="white"/>
<path d="M17.2736 40.5358L17.2725 41.5358H17.2736V40.5358ZM16.2915 39.5537H15.2915L15.2915 39.5548L16.2915 39.5537ZM17.2736 39.0626V38.0626L17.2727 38.0626L17.2736 39.0626ZM16.7826 39.5537L15.7826 39.5527V39.5537H16.7826ZM17.2736 41.5358C17.6657 41.5358 18.0489 41.4196 18.3749 41.2018L17.2637 39.5388C17.2667 39.5369 17.2701 39.5358 17.2736 39.5358V41.5358ZM18.3749 41.2018C18.7008 40.984 18.9549 40.6744 19.1049 40.3122L17.2571 39.5468C17.2585 39.5436 17.2608 39.5408 17.2637 39.5388L18.3749 41.2018ZM19.1049 40.3122C19.2549 39.95 19.2942 39.5515 19.2177 39.167L17.2561 39.5572C17.2554 39.5537 17.2558 39.5501 17.2571 39.5468L19.1049 40.3122ZM19.2177 39.167C19.1412 38.7825 18.9524 38.4293 18.6752 38.1521L17.261 39.5663C17.2585 39.5638 17.2568 39.5606 17.2561 39.5572L19.2177 39.167ZM18.6752 38.1521C18.398 37.8749 18.0448 37.6861 17.6603 37.6096L17.2702 39.5712C17.2667 39.5705 17.2635 39.5688 17.261 39.5663L18.6752 38.1521ZM17.6603 37.6096C17.2758 37.5331 16.8773 37.5724 16.5151 37.7224L17.2805 39.5702C17.2772 39.5715 17.2736 39.5719 17.2702 39.5712L17.6603 37.6096ZM16.5151 37.7224C16.1529 37.8724 15.8434 38.1265 15.6256 38.4525L17.2885 39.5636C17.2865 39.5665 17.2837 39.5688 17.2805 39.5702L16.5151 37.7224ZM15.6256 38.4525C15.4078 38.7784 15.2915 39.1616 15.2915 39.5537H17.2915C17.2915 39.5572 17.2905 39.5607 17.2885 39.5636L15.6256 38.4525ZM15.2915 39.5548C15.2921 40.08 15.501 40.5836 15.8724 40.9549L17.2866 39.5407C17.2897 39.5439 17.2915 39.5481 17.2915 39.5525L15.2915 39.5548ZM15.8724 40.9549C16.2438 41.3263 16.7473 41.5352 17.2725 41.5358L17.2748 39.5358C17.2792 39.5358 17.2835 39.5376 17.2866 39.5407L15.8724 40.9549ZM17.2736 40.0626C17.173 40.0626 17.0746 40.0328 16.9909 39.9768L18.102 38.3139C17.8568 38.1501 17.5685 38.0626 17.2736 38.0626V40.0626ZM16.9909 39.9768C16.9072 39.9209 16.842 39.8414 16.8035 39.7484L18.6512 38.9831C18.5384 38.7106 18.3472 38.4777 18.102 38.3139L16.9909 39.9768ZM16.8035 39.7484C16.7649 39.6554 16.7549 39.5531 16.7745 39.4544L18.7361 39.8446C18.7936 39.5553 18.7641 39.2555 18.6512 38.9831L16.8035 39.7484ZM16.7745 39.4544C16.7941 39.3557 16.8426 39.265 16.9138 39.1938L18.328 40.608C18.5365 40.3995 18.6785 40.1338 18.7361 39.8446L16.7745 39.4544ZM16.9138 39.1938C16.985 39.1226 17.0756 39.0742 17.1744 39.0545L17.5645 41.0161C17.8538 40.9586 18.1195 40.8166 18.328 40.608L16.9138 39.1938ZM17.1744 39.0545C17.2731 39.0349 17.3754 39.045 17.4684 39.0835L16.703 40.9312C16.9755 41.0441 17.2753 41.0736 17.5645 41.0161L17.1744 39.0545ZM17.4684 39.0835C17.5614 39.122 17.6409 39.1872 17.6968 39.2709L16.0339 40.3821C16.1977 40.6273 16.4306 40.8184 16.703 40.9312L17.4684 39.0835ZM17.6968 39.2709C17.7527 39.3546 17.7826 39.453 17.7826 39.5537H15.7826C15.7826 39.8486 15.87 40.1369 16.0339 40.3821L17.6968 39.2709ZM17.7826 39.5547C17.7824 39.6893 17.7289 39.8185 17.6337 39.9137L16.2194 38.4995C15.9401 38.7788 15.783 39.1576 15.7826 39.5527L17.7826 39.5547ZM17.6337 39.9137C17.5384 40.0089 17.4093 40.0625 17.2746 40.0626L17.2727 38.0626C16.8776 38.063 16.4988 38.2201 16.2194 38.4995L17.6337 39.9137Z" fill="url(#paint5_linear_146_17184)" mask="url(#path-9-inside-1_146_17184)"/>
<mask id="path-11-inside-2_146_17184" fill="white">
<path d="M65.8257 39.5537C65.6962 39.5537 65.5696 39.5921 65.4619 39.6641C65.3542 39.736 65.2703 39.8383 65.2207 39.9579C65.1712 40.0775 65.1582 40.2092 65.1835 40.3362C65.2087 40.4632 65.2711 40.5799 65.3627 40.6715C65.4542 40.763 65.5709 40.8254 65.6979 40.8507C65.8249 40.8759 65.9566 40.863 66.0762 40.8134C66.1959 40.7638 66.2981 40.6799 66.3701 40.5722C66.442 40.4646 66.4804 40.338 66.4804 40.2085C66.4802 40.0349 66.4112 39.8685 66.2884 39.7457C66.1657 39.623 65.9993 39.5539 65.8257 39.5537ZM65.8257 40.5359C65.7609 40.5359 65.6976 40.5167 65.6438 40.4807C65.5899 40.4447 65.548 40.3936 65.5232 40.3338C65.4984 40.2739 65.4919 40.2081 65.5046 40.1446C65.5172 40.0811 65.5484 40.0228 65.5942 39.977C65.64 39.9312 65.6983 39.9 65.7618 39.8874C65.8253 39.8747 65.8911 39.8812 65.9509 39.906C66.0108 39.9308 66.0619 39.9728 66.0979 40.0266C66.1338 40.0804 66.153 40.1437 66.153 40.2085C66.153 40.2953 66.1184 40.3785 66.0571 40.4399C65.9957 40.5012 65.9125 40.5358 65.8257 40.5359Z"/>
</mask>
<path d="M65.8257 39.5537C65.6962 39.5537 65.5696 39.5921 65.4619 39.6641C65.3542 39.736 65.2703 39.8383 65.2207 39.9579C65.1712 40.0775 65.1582 40.2092 65.1835 40.3362C65.2087 40.4632 65.2711 40.5799 65.3627 40.6715C65.4542 40.763 65.5709 40.8254 65.6979 40.8507C65.8249 40.8759 65.9566 40.863 66.0762 40.8134C66.1959 40.7638 66.2981 40.6799 66.3701 40.5722C66.442 40.4646 66.4804 40.338 66.4804 40.2085C66.4802 40.0349 66.4112 39.8685 66.2884 39.7457C66.1657 39.623 65.9993 39.5539 65.8257 39.5537ZM65.8257 40.5359C65.7609 40.5359 65.6976 40.5167 65.6438 40.4807C65.5899 40.4447 65.548 40.3936 65.5232 40.3338C65.4984 40.2739 65.4919 40.2081 65.5046 40.1446C65.5172 40.0811 65.5484 40.0228 65.5942 39.977C65.64 39.9312 65.6983 39.9 65.7618 39.8874C65.8253 39.8747 65.8911 39.8812 65.9509 39.906C66.0108 39.9308 66.0619 39.9728 66.0979 40.0266C66.1338 40.0804 66.153 40.1437 66.153 40.2085C66.153 40.2953 66.1184 40.3785 66.0571 40.4399C65.9957 40.5012 65.9125 40.5358 65.8257 40.5359Z" fill="white"/>
<path d="M65.8257 39.5537L65.8268 38.5537H65.8257V39.5537ZM66.4804 40.2085H67.4804L67.4804 40.2073L66.4804 40.2085ZM65.8257 40.5359V41.5359L65.8267 41.5359L65.8257 40.5359ZM66.153 40.2085L67.153 40.2095V40.2085H66.153ZM65.8257 38.5537C65.4984 38.5537 65.1784 38.6508 64.9063 38.8326L66.0175 40.4955C65.9607 40.5335 65.8939 40.5537 65.8257 40.5537V38.5537ZM64.9063 38.8326C64.6342 39.0144 64.4221 39.2729 64.2969 39.5752L66.1446 40.3406C66.1185 40.4037 66.0742 40.4576 66.0175 40.4955L64.9063 38.8326ZM64.2969 39.5752C64.1716 39.8776 64.1388 40.2103 64.2027 40.5313L66.1643 40.1411C66.1776 40.2081 66.1707 40.2775 66.1446 40.3406L64.2969 39.5752ZM64.2027 40.5313C64.2665 40.8523 64.4242 41.1472 64.6556 41.3786L66.0698 39.9644C66.1181 40.0126 66.1509 40.0741 66.1643 40.1411L64.2027 40.5313ZM64.6556 41.3786C64.887 41.61 65.1818 41.7676 65.5028 41.8314L65.893 39.8699C65.96 39.8832 66.0215 39.9161 66.0698 39.9644L64.6556 41.3786ZM65.5028 41.8314C65.8238 41.8953 66.1566 41.8625 66.4589 41.7373L65.6935 39.8895C65.7566 39.8634 65.826 39.8565 65.893 39.8699L65.5028 41.8314ZM66.4589 41.7373C66.7613 41.612 67.0197 41.3999 67.2015 41.1278L65.5386 40.0167C65.5765 39.9599 65.6305 39.9156 65.6935 39.8895L66.4589 41.7373ZM67.2015 41.1278C67.3834 40.8557 67.4804 40.5357 67.4804 40.2085H65.4804C65.4804 40.1402 65.5007 40.0735 65.5386 40.0167L67.2015 41.1278ZM67.4804 40.2073C67.4799 39.7689 67.3056 39.3486 66.9955 39.0386L65.5813 40.4528C65.5168 40.3883 65.4805 40.3008 65.4804 40.2096L67.4804 40.2073ZM66.9955 39.0386C66.6855 38.7286 66.2652 38.5542 65.8268 38.5537L65.8245 40.5537C65.7333 40.5536 65.6458 40.5173 65.5813 40.4528L66.9955 39.0386ZM65.8257 39.5359C65.9587 39.5359 66.0888 39.5753 66.1993 39.6492L65.0882 41.3121C65.3065 41.458 65.5631 41.5359 65.8257 41.5359V39.5359ZM66.1993 39.6492C66.3099 39.7231 66.3962 39.8281 66.4471 39.9511L64.5993 40.7164C64.6998 40.959 64.8699 41.1663 65.0882 41.3121L66.1993 39.6492ZM66.4471 39.9511C66.498 40.074 66.5113 40.2092 66.4854 40.3397L64.5238 39.9495C64.4726 40.207 64.4988 40.4739 64.5993 40.7164L66.4471 39.9511ZM66.4854 40.3397C66.4594 40.4702 66.3953 40.59 66.3013 40.6841L64.8871 39.2699C64.7014 39.4555 64.575 39.692 64.5238 39.9495L66.4854 40.3397ZM66.3013 40.6841C66.2072 40.7781 66.0874 40.8422 65.9569 40.8682L65.5667 38.9066C65.3092 38.9578 65.0727 39.0843 64.8871 39.2699L66.3013 40.6841ZM65.9569 40.8682C65.8264 40.8941 65.6912 40.8808 65.5683 40.8299L66.3336 38.9821C66.0911 38.8817 65.8242 38.8554 65.5667 38.9066L65.9569 40.8682ZM65.5683 40.8299C65.4454 40.779 65.3403 40.6928 65.2664 40.5822L66.9293 39.471C66.7835 39.2527 66.5762 39.0826 66.3336 38.9821L65.5683 40.8299ZM65.2664 40.5822C65.1925 40.4715 65.153 40.3415 65.153 40.2085H67.153C67.153 39.946 67.0752 39.6893 66.9293 39.471L65.2664 40.5822ZM65.153 40.2075C65.1532 40.0294 65.224 39.8587 65.3499 39.7328L66.7642 41.147C67.0128 40.8983 67.1527 40.5611 67.153 40.2095L65.153 40.2075ZM65.3499 39.7328C65.4759 39.6069 65.6466 39.536 65.8247 39.5359L65.8267 41.5359C66.1783 41.5355 66.5155 41.3956 66.7642 41.147L65.3499 39.7328Z" fill="url(#paint6_linear_146_17184)" mask="url(#path-11-inside-2_146_17184)"/>
<mask id="path-13-inside-3_146_17184" fill="white">
<path d="M45.4941 29.2324C45.3646 29.2324 45.238 29.2708 45.1304 29.3428C45.0227 29.4147 44.9388 29.517 44.8892 29.6366C44.8396 29.7563 44.8267 29.8879 44.8519 30.0149C44.8772 30.1419 44.9396 30.2586 45.0311 30.3502C45.1227 30.4417 45.2394 30.5041 45.3664 30.5294C45.4934 30.5546 45.625 30.5417 45.7447 30.4921C45.8643 30.4425 45.9666 30.3586 46.0385 30.251C46.1105 30.1433 46.1489 30.0167 46.1489 29.8872C46.1487 29.7136 46.0796 29.5472 45.9569 29.4244C45.8341 29.3017 45.6677 29.2326 45.4941 29.2324ZM45.4941 30.2146C45.4294 30.2146 45.3661 30.1954 45.3122 30.1594C45.2584 30.1234 45.2164 30.0723 45.1917 30.0125C45.1669 29.9526 45.1604 29.8868 45.173 29.8233C45.1857 29.7598 45.2168 29.7015 45.2626 29.6557C45.3084 29.6099 45.3667 29.5787 45.4303 29.5661C45.4938 29.5535 45.5596 29.5599 45.6194 29.5847C45.6792 29.6095 45.7304 29.6515 45.7663 29.7053C45.8023 29.7591 45.8215 29.8224 45.8215 29.8872C45.8214 29.974 45.7869 30.0572 45.7255 30.1186C45.6641 30.18 45.5809 30.2145 45.4941 30.2146Z"/>
</mask>
<path d="M45.4941 29.2324C45.3646 29.2324 45.238 29.2708 45.1304 29.3428C45.0227 29.4147 44.9388 29.517 44.8892 29.6366C44.8396 29.7563 44.8267 29.8879 44.8519 30.0149C44.8772 30.1419 44.9396 30.2586 45.0311 30.3502C45.1227 30.4417 45.2394 30.5041 45.3664 30.5294C45.4934 30.5546 45.625 30.5417 45.7447 30.4921C45.8643 30.4425 45.9666 30.3586 46.0385 30.251C46.1105 30.1433 46.1489 30.0167 46.1489 29.8872C46.1487 29.7136 46.0796 29.5472 45.9569 29.4244C45.8341 29.3017 45.6677 29.2326 45.4941 29.2324ZM45.4941 30.2146C45.4294 30.2146 45.3661 30.1954 45.3122 30.1594C45.2584 30.1234 45.2164 30.0723 45.1917 30.0125C45.1669 29.9526 45.1604 29.8868 45.173 29.8233C45.1857 29.7598 45.2168 29.7015 45.2626 29.6557C45.3084 29.6099 45.3667 29.5787 45.4303 29.5661C45.4938 29.5535 45.5596 29.5599 45.6194 29.5847C45.6792 29.6095 45.7304 29.6515 45.7663 29.7053C45.8023 29.7591 45.8215 29.8224 45.8215 29.8872C45.8214 29.974 45.7869 30.0572 45.7255 30.1186C45.6641 30.18 45.5809 30.2145 45.4941 30.2146Z" fill="white"/>
<path d="M45.4941 29.2324L45.4953 28.2324H45.4941V29.2324ZM46.1489 29.8872H47.1489L47.1489 29.886L46.1489 29.8872ZM45.4941 30.2146V31.2146L45.4951 31.2146L45.4941 30.2146ZM45.8215 29.8872L46.8215 29.8882V29.8872H45.8215ZM45.4941 28.2324C45.1668 28.2324 44.8469 28.3295 44.5748 28.5113L45.6859 30.1742C45.6291 30.2122 45.5624 30.2324 45.4941 30.2324V28.2324ZM44.5748 28.5113C44.3027 28.6931 44.0906 28.9516 43.9653 29.2539L45.8131 30.0193C45.7869 30.0824 45.7427 30.1363 45.6859 30.1742L44.5748 28.5113ZM43.9653 29.2539C43.8401 29.5563 43.8073 29.889 43.8712 30.21L45.8327 29.8198C45.846 29.8868 45.8392 29.9562 45.8131 30.0193L43.9653 29.2539ZM43.8712 30.21C43.935 30.531 44.0926 30.8259 44.324 31.0573L45.7382 29.6431C45.7865 29.6913 45.8194 29.7529 45.8327 29.8198L43.8712 30.21ZM44.324 31.0573C44.5554 31.2887 44.8503 31.4463 45.1713 31.5101L45.5615 29.5486C45.6284 29.5619 45.69 29.5948 45.7382 29.6431L44.324 31.0573ZM45.1713 31.5101C45.4923 31.574 45.825 31.5412 46.1274 31.416L45.362 29.5682C45.4251 29.5421 45.4945 29.5353 45.5615 29.5486L45.1713 31.5101ZM46.1274 31.416C46.4297 31.2907 46.6882 31.0786 46.87 30.8065L45.2071 29.6954C45.245 29.6386 45.2989 29.5944 45.362 29.5682L46.1274 31.416ZM46.87 30.8065C47.0518 30.5344 47.1489 30.2145 47.1489 29.8872H45.1489C45.1489 29.8189 45.1691 29.7522 45.2071 29.6954L46.87 30.8065ZM47.1489 29.886C47.1484 29.4476 46.974 29.0273 46.664 28.7173L45.2498 30.1315C45.1853 30.067 45.149 29.9795 45.1489 29.8883L47.1489 29.886ZM46.664 28.7173C46.354 28.4073 45.9337 28.2329 45.4953 28.2324L45.493 30.2324C45.4018 30.2323 45.3143 30.196 45.2498 30.1315L46.664 28.7173ZM45.4941 29.2146C45.6272 29.2146 45.7572 29.254 45.8678 29.3279L44.7567 30.9909C44.975 31.1367 45.2316 31.2146 45.4941 31.2146V29.2146ZM45.8678 29.3279C45.9784 29.4018 46.0646 29.5069 46.1155 29.6298L44.2678 30.3952C44.3682 30.6377 44.5384 30.845 44.7567 30.9909L45.8678 29.3279ZM46.1155 29.6298C46.1664 29.7527 46.1798 29.8879 46.1538 30.0184L44.1922 29.6282C44.141 29.8857 44.1673 30.1526 44.2678 30.3952L46.1155 29.6298ZM46.1538 30.0184C46.1279 30.1489 46.0638 30.2687 45.9697 30.3628L44.5555 28.9486C44.3699 29.1342 44.2435 29.3707 44.1922 29.6282L46.1538 30.0184ZM45.9697 30.3628C45.8757 30.4569 45.7558 30.5209 45.6253 30.5469L45.2352 28.5853C44.9777 28.6365 44.7412 28.7629 44.5555 28.9486L45.9697 30.3628ZM45.6253 30.5469C45.4949 30.5728 45.3596 30.5595 45.2367 30.5086L46.0021 28.6608C45.7595 28.5604 45.4926 28.5341 45.2352 28.5853L45.6253 30.5469ZM45.2367 30.5086C45.1138 30.4577 45.0088 30.3715 44.9349 30.2609L46.5978 29.1497C46.4519 28.9315 46.2446 28.7613 46.0021 28.6608L45.2367 30.5086ZM44.9349 30.2609C44.8609 30.1502 44.8215 30.0202 44.8215 29.8872H46.8215C46.8215 29.6247 46.7437 29.368 46.5978 29.1497L44.9349 30.2609ZM44.8215 29.8862C44.8217 29.7081 44.8925 29.5374 45.0184 29.4115L46.4326 30.8257C46.6813 30.577 46.8211 30.2398 46.8215 29.8882L44.8215 29.8862ZM45.0184 29.4115C45.1443 29.2856 45.3151 29.2147 45.4931 29.2146L45.4951 31.2146C45.8468 31.2142 46.184 31.0744 46.4326 30.8257L45.0184 29.4115Z" fill="url(#paint7_linear_146_17184)" mask="url(#path-13-inside-3_146_17184)"/>
<mask id="path-15-inside-4_146_17184" fill="white">
<path d="M49.7143 20.5657C49.5848 20.5657 49.4582 20.6041 49.3506 20.676C49.2429 20.748 49.159 20.8502 49.1094 20.9699C49.0599 21.0895 49.0469 21.2212 49.0722 21.3482C49.0974 21.4752 49.1598 21.5919 49.2513 21.6834C49.3429 21.775 49.4596 21.8374 49.5866 21.8626C49.7136 21.8879 49.8453 21.8749 49.9649 21.8254C50.0845 21.7758 50.1868 21.6919 50.2587 21.5842C50.3307 21.4765 50.3691 21.3499 50.3691 21.2204C50.3689 21.0468 50.2998 20.8804 50.1771 20.7577C50.0544 20.6349 49.8879 20.5659 49.7143 20.5657ZM49.7143 21.5478C49.6496 21.5478 49.5863 21.5286 49.5324 21.4926C49.4786 21.4567 49.4367 21.4055 49.4119 21.3457C49.3871 21.2859 49.3806 21.2201 49.3932 21.1566C49.4059 21.0931 49.4371 21.0347 49.4828 20.9889C49.5286 20.9432 49.587 20.912 49.6505 20.8993C49.714 20.8867 49.7798 20.8932 49.8396 20.918C49.8994 20.9428 49.9506 20.9847 49.9865 21.0386C50.0225 21.0924 50.0417 21.1557 50.0417 21.2204C50.0416 21.3072 50.0071 21.3905 49.9457 21.4518C49.8844 21.5132 49.8011 21.5477 49.7143 21.5478Z"/>
</mask>
<path d="M49.7143 20.5657C49.5848 20.5657 49.4582 20.6041 49.3506 20.676C49.2429 20.748 49.159 20.8502 49.1094 20.9699C49.0599 21.0895 49.0469 21.2212 49.0722 21.3482C49.0974 21.4752 49.1598 21.5919 49.2513 21.6834C49.3429 21.775 49.4596 21.8374 49.5866 21.8626C49.7136 21.8879 49.8453 21.8749 49.9649 21.8254C50.0845 21.7758 50.1868 21.6919 50.2587 21.5842C50.3307 21.4765 50.3691 21.3499 50.3691 21.2204C50.3689 21.0468 50.2998 20.8804 50.1771 20.7577C50.0544 20.6349 49.8879 20.5659 49.7143 20.5657ZM49.7143 21.5478C49.6496 21.5478 49.5863 21.5286 49.5324 21.4926C49.4786 21.4567 49.4367 21.4055 49.4119 21.3457C49.3871 21.2859 49.3806 21.2201 49.3932 21.1566C49.4059 21.0931 49.4371 21.0347 49.4828 20.9889C49.5286 20.9432 49.587 20.912 49.6505 20.8993C49.714 20.8867 49.7798 20.8932 49.8396 20.918C49.8994 20.9428 49.9506 20.9847 49.9865 21.0386C50.0225 21.0924 50.0417 21.1557 50.0417 21.2204C50.0416 21.3072 50.0071 21.3905 49.9457 21.4518C49.8844 21.5132 49.8011 21.5477 49.7143 21.5478Z" fill="white"/>
<path d="M49.7143 20.5657L49.7155 19.5657H49.7143V20.5657ZM50.3691 21.2204H51.3691L51.3691 21.2193L50.3691 21.2204ZM49.7143 21.5478V22.5478L49.7153 22.5478L49.7143 21.5478ZM50.0417 21.2204L51.0417 21.2214V21.2204H50.0417ZM49.7143 19.5657C49.3871 19.5657 49.0671 19.6627 48.795 19.8446L49.9061 21.5075C49.8494 21.5454 49.7826 21.5657 49.7143 21.5657V19.5657ZM48.795 19.8446C48.5229 20.0264 48.3108 20.2848 48.1855 20.5872L50.0333 21.3526C50.0072 21.4156 49.9629 21.4696 49.9061 21.5075L48.795 19.8446ZM48.1855 20.5872C48.0603 20.8896 48.0275 21.2223 48.0914 21.5433L50.0529 21.1531C50.0663 21.22 50.0594 21.2895 50.0333 21.3526L48.1855 20.5872ZM48.0914 21.5433C48.1552 21.8643 48.3128 22.1591 48.5442 22.3905L49.9585 20.9763C50.0067 21.0246 50.0396 21.0861 50.0529 21.1531L48.0914 21.5433ZM48.5442 22.3905C48.7757 22.622 49.0705 22.7796 49.3915 22.8434L49.7817 20.8818C49.8487 20.8952 49.9102 20.928 49.9585 20.9763L48.5442 22.3905ZM49.3915 22.8434C49.7125 22.9073 50.0452 22.8745 50.3476 22.7492L49.5822 20.9015C49.6453 20.8753 49.7147 20.8685 49.7817 20.8818L49.3915 22.8434ZM50.3476 22.7492C50.65 22.624 50.9084 22.4119 51.0902 22.1398L49.4273 21.0286C49.4652 20.9719 49.5191 20.9276 49.5822 20.9015L50.3476 22.7492ZM51.0902 22.1398C51.272 21.8677 51.3691 21.5477 51.3691 21.2204H49.3691C49.3691 21.1521 49.3893 21.0854 49.4273 21.0286L51.0902 22.1398ZM51.3691 21.2193C51.3686 20.7809 51.1942 20.3606 50.8842 20.0506L49.47 21.4648C49.4055 21.4003 49.3692 21.3128 49.3691 21.2216L51.3691 21.2193ZM50.8842 20.0506C50.5742 19.7406 50.1539 19.5662 49.7155 19.5657L49.7132 21.5657C49.622 21.5656 49.5345 21.5293 49.47 21.4648L50.8842 20.0506ZM49.7143 20.5478C49.8474 20.5478 49.9774 20.5873 50.088 20.6612L48.9769 22.3241C49.1952 22.47 49.4518 22.5478 49.7143 22.5478V20.5478ZM50.088 20.6612C50.1986 20.7351 50.2848 20.8401 50.3358 20.963L48.488 21.7284C48.5885 21.9709 48.7586 22.1783 48.9769 22.3241L50.088 20.6612ZM50.3358 20.963C50.3867 21.0859 50.4 21.2212 50.374 21.3517L48.4125 20.9615C48.3612 21.219 48.3875 21.4859 48.488 21.7284L50.3358 20.963ZM50.374 21.3517C50.3481 21.4821 50.284 21.602 50.1899 21.696L48.7757 20.2818C48.5901 20.4675 48.4637 20.704 48.4125 20.9615L50.374 21.3517ZM50.1899 21.696C50.0959 21.7901 49.976 21.8542 49.8456 21.8801L49.4554 19.9186C49.1979 19.9698 48.9614 20.0962 48.7757 20.2818L50.1899 21.696ZM49.8456 21.8801C49.7151 21.9061 49.5798 21.8928 49.4569 21.8419L50.2223 19.9941C49.9798 19.8936 49.7129 19.8673 49.4554 19.9186L49.8456 21.8801ZM49.4569 21.8419C49.334 21.7909 49.229 21.7047 49.1551 21.5941L50.818 20.483C50.6722 20.2647 50.4649 20.0946 50.2223 19.9941L49.4569 21.8419ZM49.1551 21.5941C49.0812 21.4835 49.0417 21.3535 49.0417 21.2204H51.0417C51.0417 20.9579 50.9639 20.7013 50.818 20.483L49.1551 21.5941ZM49.0417 21.2194C49.0419 21.0414 49.1127 20.8706 49.2386 20.7447L50.6528 22.1589C50.9015 21.9103 51.0414 21.5731 51.0417 21.2214L49.0417 21.2194ZM49.2386 20.7447C49.3645 20.6188 49.5353 20.548 49.7133 20.5478L49.7153 22.5478C50.067 22.5475 50.4042 22.4076 50.6528 22.1589L49.2386 20.7447Z" fill="url(#paint8_linear_146_17184)" mask="url(#path-15-inside-4_146_17184)"/>
<mask id="path-17-inside-5_146_17184" fill="white">
<path d="M19.665 26.1311C19.665 26.0016 19.6266 25.875 19.5546 25.7673C19.4827 25.6596 19.3804 25.5757 19.2608 25.5262C19.1412 25.4766 19.0095 25.4636 18.8825 25.4889C18.7555 25.5142 18.6388 25.5765 18.5472 25.6681C18.4557 25.7597 18.3933 25.8763 18.3681 26.0033C18.3428 26.1304 18.3558 26.262 18.4053 26.3816C18.4549 26.5013 18.5388 26.6035 18.6465 26.6755C18.7541 26.7474 18.8807 26.7858 19.0102 26.7858C19.1838 26.7856 19.3502 26.7166 19.473 26.5938C19.5957 26.4711 19.6648 26.3047 19.665 26.1311ZM18.6829 26.1311C18.6829 26.0663 18.7021 26.003 18.738 25.9492C18.774 25.8954 18.8251 25.8534 18.8849 25.8286C18.9448 25.8038 19.0106 25.7974 19.0741 25.81C19.1376 25.8226 19.1959 25.8538 19.2417 25.8996C19.2875 25.9454 19.3187 26.0037 19.3313 26.0672C19.344 26.1307 19.3375 26.1965 19.3127 26.2564C19.2879 26.3162 19.246 26.3673 19.1921 26.4033C19.1383 26.4393 19.075 26.4585 19.0102 26.4585C18.9234 26.4584 18.8402 26.4239 18.7788 26.3625C18.7175 26.3011 18.6829 26.2179 18.6829 26.1311Z"/>
</mask>
<path d="M19.665 26.1311C19.665 26.0016 19.6266 25.875 19.5546 25.7673C19.4827 25.6596 19.3804 25.5757 19.2608 25.5262C19.1412 25.4766 19.0095 25.4636 18.8825 25.4889C18.7555 25.5142 18.6388 25.5765 18.5472 25.6681C18.4557 25.7597 18.3933 25.8763 18.3681 26.0033C18.3428 26.1304 18.3558 26.262 18.4053 26.3816C18.4549 26.5013 18.5388 26.6035 18.6465 26.6755C18.7541 26.7474 18.8807 26.7858 19.0102 26.7858C19.1838 26.7856 19.3502 26.7166 19.473 26.5938C19.5957 26.4711 19.6648 26.3047 19.665 26.1311ZM18.6829 26.1311C18.6829 26.0663 18.7021 26.003 18.738 25.9492C18.774 25.8954 18.8251 25.8534 18.8849 25.8286C18.9448 25.8038 19.0106 25.7974 19.0741 25.81C19.1376 25.8226 19.1959 25.8538 19.2417 25.8996C19.2875 25.9454 19.3187 26.0037 19.3313 26.0672C19.344 26.1307 19.3375 26.1965 19.3127 26.2564C19.2879 26.3162 19.246 26.3673 19.1921 26.4033C19.1383 26.4393 19.075 26.4585 19.0102 26.4585C18.9234 26.4584 18.8402 26.4239 18.7788 26.3625C18.7175 26.3011 18.6829 26.2179 18.6829 26.1311Z" fill="white"/>
<path d="M19.665 26.1311L20.665 26.1322V26.1311H19.665ZM19.0102 26.7858V27.7858L19.0114 27.7858L19.0102 26.7858ZM18.6829 26.1311H17.6828L17.6829 26.1321L18.6829 26.1311ZM19.0102 26.4585L19.0092 27.4585H19.0102V26.4585ZM20.665 26.1311C20.665 25.8038 20.5679 25.4839 20.3861 25.2117L18.7232 26.3229C18.6852 26.2661 18.665 26.1994 18.665 26.1311H20.665ZM20.3861 25.2117C20.2043 24.9396 19.9458 24.7275 19.6435 24.6023L18.8781 26.45C18.815 26.4239 18.7611 26.3797 18.7232 26.3229L20.3861 25.2117ZM19.6435 24.6023C19.3411 24.477 19.0084 24.4443 18.6874 24.5081L19.0776 26.4697C19.0106 26.483 18.9412 26.4762 18.8781 26.45L19.6435 24.6023ZM18.6874 24.5081C18.3664 24.572 18.0716 24.7296 17.8401 24.961L19.2544 26.3752C19.2061 26.4235 19.1446 26.4564 19.0776 26.4697L18.6874 24.5081ZM17.8401 24.961C17.6087 25.1924 17.4511 25.4873 17.3873 25.8083L19.3488 26.1984C19.3355 26.2654 19.3026 26.3269 19.2544 26.3752L17.8401 24.961ZM17.3873 25.8083C17.3234 26.1292 17.3562 26.462 17.4814 26.7643L19.3292 25.999C19.3553 26.062 19.3622 26.1315 19.3488 26.1984L17.3873 25.8083ZM17.4814 26.7643C17.6067 27.0667 17.8188 27.3251 18.0909 27.507L19.202 25.844C19.2588 25.882 19.3031 25.9359 19.3292 25.999L17.4814 26.7643ZM18.0909 27.507C18.363 27.6888 18.6829 27.7858 19.0102 27.7858V25.7858C19.0785 25.7858 19.1453 25.8061 19.202 25.844L18.0909 27.507ZM19.0114 27.7858C19.4498 27.7853 19.8701 27.611 20.1801 27.301L18.7659 25.8867C18.8304 25.8222 18.9179 25.7859 19.0091 25.7858L19.0114 27.7858ZM20.1801 27.301C20.4901 26.991 20.6645 26.5706 20.665 26.1322L18.665 26.1299C18.6651 26.0387 18.7014 25.9512 18.7659 25.8867L20.1801 27.301ZM19.6829 26.1311C19.6829 26.2641 19.6434 26.3942 19.5695 26.5048L17.9066 25.3936C17.7607 25.6119 17.6829 25.8686 17.6829 26.1311H19.6829ZM19.5695 26.5048C19.4956 26.6154 19.3905 26.7016 19.2676 26.7525L18.5023 24.9047C18.2597 25.0052 18.0524 25.1753 17.9066 25.3936L19.5695 26.5048ZM19.2676 26.7525C19.1447 26.8034 19.0095 26.8167 18.879 26.7908L19.2692 24.8292C19.0117 24.778 18.7448 24.8043 18.5023 24.9047L19.2676 26.7525ZM18.879 26.7908C18.7485 26.7648 18.6287 26.7008 18.5346 26.6067L19.9488 25.1925C19.7632 25.0068 19.5267 24.8804 19.2692 24.8292L18.879 26.7908ZM18.5346 26.6067C18.4406 26.5126 18.3765 26.3928 18.3505 26.2623L20.3121 25.8721C20.2609 25.6146 20.1345 25.3781 19.9488 25.1925L18.5346 26.6067ZM18.3505 26.2623C18.3246 26.1318 18.3379 25.9966 18.3888 25.8737L20.2366 26.639C20.337 26.3965 20.3633 26.1296 20.3121 25.8721L18.3505 26.2623ZM18.3888 25.8737C18.4397 25.7508 18.5259 25.6457 18.6365 25.5718L19.7477 27.2348C19.966 27.0889 20.1361 26.8816 20.2366 26.639L18.3888 25.8737ZM18.6365 25.5718C18.7471 25.4979 18.8772 25.4585 19.0102 25.4585V27.4585C19.2728 27.4585 19.5294 27.3806 19.7477 27.2348L18.6365 25.5718ZM19.0112 25.4585C19.1893 25.4586 19.36 25.5295 19.4859 25.6554L18.0717 27.0696C18.3204 27.3183 18.6576 27.4581 19.0092 27.4585L19.0112 25.4585ZM19.4859 25.6554C19.6119 25.7813 19.6827 25.952 19.6828 26.1301L17.6829 26.1321C17.6832 26.4837 17.8231 26.8209 18.0717 27.0696L19.4859 25.6554Z" fill="url(#paint9_linear_146_17184)" mask="url(#path-17-inside-5_146_17184)"/>
<path d="M31.8145 29.8918L32.3013 29.2515L31.9939 29.0776L31.6816 29.7943H31.6711L31.3539 29.0825L31.0409 29.262L31.5228 29.8869V29.8971L30.7695 29.7995V30.1478L31.5277 30.0506V30.0611L31.0409 30.6857L31.333 30.8704L31.6662 30.1478H31.676L31.9835 30.8651L32.3063 30.6808L31.8145 30.066V30.0559L32.5878 30.1478V29.7995L31.8145 29.902V29.8918Z" fill="white"/>
<path d="M35.2059 19.082L34.9257 19.4418L35.094 19.5482L35.2858 19.1321H35.2914L35.4685 19.5452L35.6544 19.4392L35.3713 19.0849V19.079L35.8165 19.1321V18.9317L35.3713 18.9907V18.9848L35.6515 18.6161L35.4747 18.5156L35.2946 18.9288H35.2888L35.1058 18.5186L34.9257 18.622L35.2033 18.9818V18.9877L34.7695 18.9317V19.1321L35.2059 19.0761V19.082Z" fill="white"/>
<path d="M64.844 32.5848V32.243L64.0854 32.3435V32.3337L64.5627 31.7055L64.2612 31.5349L63.9548 32.2381H63.9446L63.6333 31.5398L63.3265 31.7156L63.799 32.3288V32.3386L63.0601 32.243V32.5848L63.8039 32.4896V32.4994L63.3265 33.1122L63.613 33.2933L63.9397 32.5848H63.9496L64.2511 33.2884L64.5676 33.1073L64.0854 32.5043V32.4945L64.844 32.5848Z" fill="white"/>
<path d="M63.1753 18.9626L63.5871 18.4211L63.3268 18.2734L63.0627 18.8801H63.0538L62.7854 18.2777L62.5205 18.4296L62.9281 18.9583V18.9672L62.291 18.8847V19.1793L62.9324 19.0971V19.1056L62.5205 19.6344L62.7677 19.7905L63.0496 19.1793H63.0581L63.318 19.7859L63.5914 19.6301L63.1753 19.1099V19.1014L63.8294 19.1793V18.8847L63.1753 18.9714V18.9626Z" fill="white"/>
<mask id="path-23-inside-6_146_17184" fill="white">
<path d="M63.3428 60.8336H34.1011L42.9732 50.6847C43.0149 50.6355 43.0491 50.5803 43.0747 50.5211L53.672 54.1779C53.7545 54.2068 53.8422 54.2185 53.9294 54.2123C54.0167 54.2061 54.1018 54.1822 54.1794 54.1419C54.2582 54.1014 54.3281 54.0454 54.3849 53.9774C54.4417 53.9093 54.4843 53.8306 54.5101 53.7458L62.4196 27.6502C62.4288 27.6259 62.4354 27.6006 62.4392 27.5749C62.4483 27.5286 62.4527 27.4814 62.4523 27.4342C62.4503 27.3095 62.4128 27.188 62.3443 27.0839C62.3301 27.0624 62.3148 27.0416 62.2985 27.0217C62.2128 26.9174 62.0966 26.8426 61.9662 26.808C61.8358 26.7733 61.6978 26.7805 61.5717 26.8285L20.9863 41.1187C20.8603 41.164 20.7509 41.2464 20.6726 41.3551C20.5943 41.4637 20.5507 41.5935 20.5476 41.7273C20.5444 41.8612 20.5817 41.9929 20.6548 42.1051C20.7278 42.2174 20.8331 42.3049 20.9568 42.3562L32.0059 46.8708V60.8335H19.6571C19.5639 60.8213 19.4692 60.8291 19.3792 60.8564C19.2893 60.8837 19.2062 60.9299 19.1356 60.9918C19.0649 61.0538 19.0083 61.1302 18.9695 61.2158C18.9307 61.3014 18.9106 61.3943 18.9106 61.4883C18.9106 61.5823 18.9307 61.6752 18.9695 61.7608C19.0083 61.8464 19.0649 61.9228 19.1356 61.9848C19.2062 62.0468 19.2893 62.0929 19.3792 62.1202C19.4692 62.1475 19.5639 62.1553 19.6571 62.1431H63.3428C63.436 62.1553 63.5307 62.1475 63.6207 62.1202C63.7106 62.0929 63.7937 62.0468 63.8643 61.9848C63.935 61.9228 63.9916 61.8464 64.0304 61.7608C64.0692 61.6752 64.0893 61.5823 64.0893 61.4883C64.0893 61.3943 64.0692 61.3014 64.0304 61.2158C63.9916 61.1302 63.935 61.0538 63.8643 60.9918C63.7937 60.9299 63.7106 60.8837 63.6207 60.8564C63.5307 60.8291 63.436 60.8213 63.3428 60.8336ZM34.9261 57.8904L38.9038 49.0839L41.7651 50.0693L34.9261 57.8904ZM54.8211 48.2032H54.8178L54.4348 49.4669L53.4559 52.7047L39.8303 48.0068L42.6491 45.4827L43.7785 44.4711L46.2142 42.2874L55.6493 45.463H55.6526L54.8211 48.2032ZM57.3386 39.9008H57.3354L56.9523 41.1645L56.6184 42.2678L56.0357 44.1961H56.0324L47.3502 41.2725L50.2083 38.7124L51.3214 37.7139L53.9863 35.3273L58.2717 36.8169L57.3386 39.9008ZM58.6547 35.5532L55.1092 34.3222L60.4913 29.5032L58.6547 35.5532ZM56.8574 29.8862L51.819 33.1764L49.6517 32.4234L56.8574 29.8862ZM40.544 35.6318L42.5508 34.9246L47.6875 33.1175C47.7323 33.1454 47.7794 33.1695 47.8282 33.1895L50.4211 34.0898L46.9017 36.388L45.494 37.308L42.3348 39.3705L35.9967 37.2327L40.544 35.6318ZM23.0586 41.7898L27.7729 40.13L29.6586 39.4654L33.9898 37.9398C34.0214 37.9597 34.0555 37.9751 34.0913 37.9856L40.9303 40.2871L40.2068 40.7618L37.83 42.3136L36.4354 43.2237L32.6378 45.7053L23.0586 41.7898ZM33.3154 46.838L54.9062 32.7344L38.1181 47.7711C38.1181 47.7715 38.118 47.7719 38.1179 47.7723C38.1177 47.7727 38.1175 47.7731 38.1172 47.7734C38.1169 47.7737 38.1165 47.7739 38.1161 47.7741C38.1157 47.7743 38.1153 47.7743 38.1148 47.7743C38.0771 47.8092 38.0441 47.8488 38.0166 47.8922C38.0078 47.9046 38.0001 47.9177 37.9937 47.9315C37.9805 47.9504 37.9685 47.9701 37.9577 47.9904L33.3154 58.2734V46.838Z"/>
</mask>
<path d="M63.3428 60.8336H34.1011L42.9732 50.6847C43.0149 50.6355 43.0491 50.5803 43.0747 50.5211L53.672 54.1779C53.7545 54.2068 53.8422 54.2185 53.9294 54.2123C54.0167 54.2061 54.1018 54.1822 54.1794 54.1419C54.2582 54.1014 54.3281 54.0454 54.3849 53.9774C54.4417 53.9093 54.4843 53.8306 54.5101 53.7458L62.4196 27.6502C62.4288 27.6259 62.4354 27.6006 62.4392 27.5749C62.4483 27.5286 62.4527 27.4814 62.4523 27.4342C62.4503 27.3095 62.4128 27.188 62.3443 27.0839C62.3301 27.0624 62.3148 27.0416 62.2985 27.0217C62.2128 26.9174 62.0966 26.8426 61.9662 26.808C61.8358 26.7733 61.6978 26.7805 61.5717 26.8285L20.9863 41.1187C20.8603 41.164 20.7509 41.2464 20.6726 41.3551C20.5943 41.4637 20.5507 41.5935 20.5476 41.7273C20.5444 41.8612 20.5817 41.9929 20.6548 42.1051C20.7278 42.2174 20.8331 42.3049 20.9568 42.3562L32.0059 46.8708V60.8335H19.6571C19.5639 60.8213 19.4692 60.8291 19.3792 60.8564C19.2893 60.8837 19.2062 60.9299 19.1356 60.9918C19.0649 61.0538 19.0083 61.1302 18.9695 61.2158C18.9307 61.3014 18.9106 61.3943 18.9106 61.4883C18.9106 61.5823 18.9307 61.6752 18.9695 61.7608C19.0083 61.8464 19.0649 61.9228 19.1356 61.9848C19.2062 62.0468 19.2893 62.0929 19.3792 62.1202C19.4692 62.1475 19.5639 62.1553 19.6571 62.1431H63.3428C63.436 62.1553 63.5307 62.1475 63.6207 62.1202C63.7106 62.0929 63.7937 62.0468 63.8643 61.9848C63.935 61.9228 63.9916 61.8464 64.0304 61.7608C64.0692 61.6752 64.0893 61.5823 64.0893 61.4883C64.0893 61.3943 64.0692 61.3014 64.0304 61.2158C63.9916 61.1302 63.935 61.0538 63.8643 60.9918C63.7937 60.9299 63.7106 60.8837 63.6207 60.8564C63.5307 60.8291 63.436 60.8213 63.3428 60.8336ZM34.9261 57.8904L38.9038 49.0839L41.7651 50.0693L34.9261 57.8904ZM54.8211 48.2032H54.8178L54.4348 49.4669L53.4559 52.7047L39.8303 48.0068L42.6491 45.4827L43.7785 44.4711L46.2142 42.2874L55.6493 45.463H55.6526L54.8211 48.2032ZM57.3386 39.9008H57.3354L56.9523 41.1645L56.6184 42.2678L56.0357 44.1961H56.0324L47.3502 41.2725L50.2083 38.7124L51.3214 37.7139L53.9863 35.3273L58.2717 36.8169L57.3386 39.9008ZM58.6547 35.5532L55.1092 34.3222L60.4913 29.5032L58.6547 35.5532ZM56.8574 29.8862L51.819 33.1764L49.6517 32.4234L56.8574 29.8862ZM40.544 35.6318L42.5508 34.9246L47.6875 33.1175C47.7323 33.1454 47.7794 33.1695 47.8282 33.1895L50.4211 34.0898L46.9017 36.388L45.494 37.308L42.3348 39.3705L35.9967 37.2327L40.544 35.6318ZM23.0586 41.7898L27.7729 40.13L29.6586 39.4654L33.9898 37.9398C34.0214 37.9597 34.0555 37.9751 34.0913 37.9856L40.9303 40.2871L40.2068 40.7618L37.83 42.3136L36.4354 43.2237L32.6378 45.7053L23.0586 41.7898ZM33.3154 46.838L54.9062 32.7344L38.1181 47.7711C38.1181 47.7715 38.118 47.7719 38.1179 47.7723C38.1177 47.7727 38.1175 47.7731 38.1172 47.7734C38.1169 47.7737 38.1165 47.7739 38.1161 47.7741C38.1157 47.7743 38.1153 47.7743 38.1148 47.7743C38.0771 47.8092 38.0441 47.8488 38.0166 47.8922C38.0078 47.9046 38.0001 47.9177 37.9937 47.9315C37.9805 47.9504 37.9685 47.9701 37.9577 47.9904L33.3154 58.2734V46.838Z" fill="white" stroke="url(#paint10_linear_146_17184)" stroke-width="2" mask="url(#path-23-inside-6_146_17184)"/>
<path d="M37.8301 42.3135L36.4355 43.2237C36.4355 43.2237 27.8417 40.2019 27.7729 40.1299L29.6587 39.4653L37.8301 42.3135Z" fill="white"/>
<path d="M46.9017 36.388L45.4939 37.3079L40.6389 35.6743C40.6058 35.6634 40.574 35.6492 40.5439 35.6317L42.5508 34.9246L46.9017 36.388Z" fill="white"/>
<path d="M57.3356 39.901L56.9525 41.1647L50.2085 38.7126L51.3216 37.7141L57.3356 39.901Z" fill="white"/>
<path d="M54.8177 48.2033L54.4346 49.467L42.6489 45.4828L43.7784 44.4712L54.8177 48.2033Z" fill="white"/>
<defs>
<linearGradient id="paint0_linear_146_17184" x1="42" y1="0" x2="42" y2="84" gradientUnits="userSpaceOnUse">
<stop stop-color="#C0DD6D"/>
<stop offset="1" stop-color="#B7E472"/>
</linearGradient>
<linearGradient id="paint1_linear_146_17184" x1="14.6548" y1="60.8337" x2="14.6548" y2="62.1433" gradientUnits="userSpaceOnUse">
<stop stop-color="#C0DD6D"/>
<stop offset="1" stop-color="#B7E472"/>
</linearGradient>
<linearGradient id="paint2_linear_146_17184" x1="17.1102" y1="60.8335" x2="17.1102" y2="62.143" gradientUnits="userSpaceOnUse">
<stop stop-color="#C0DD6D"/>
<stop offset="1" stop-color="#B7E472"/>
</linearGradient>
<linearGradient id="paint3_linear_146_17184" x1="65.89" y1="60.8335" x2="65.89" y2="62.143" gradientUnits="userSpaceOnUse">
<stop stop-color="#C0DD6D"/>
<stop offset="1" stop-color="#B7E472"/>
</linearGradient>
<linearGradient id="paint4_linear_146_17184" x1="68.3452" y1="60.8337" x2="68.3452" y2="62.1433" gradientUnits="userSpaceOnUse">
<stop stop-color="#C0DD6D"/>
<stop offset="1" stop-color="#B7E472"/>
</linearGradient>
<linearGradient id="paint5_linear_146_17184" x1="17.2736" y1="38.5715" x2="17.2736" y2="40.5358" gradientUnits="userSpaceOnUse">
<stop stop-color="#C0DD6D"/>
<stop offset="1" stop-color="#B7E472"/>
</linearGradient>
<linearGradient id="paint6_linear_146_17184" x1="65.8257" y1="39.5537" x2="65.8257" y2="40.8632" gradientUnits="userSpaceOnUse">
<stop stop-color="#C0DD6D"/>
<stop offset="1" stop-color="#B7E472"/>
</linearGradient>
<linearGradient id="paint7_linear_146_17184" x1="45.4941" y1="29.2324" x2="45.4941" y2="30.5419" gradientUnits="userSpaceOnUse">
<stop stop-color="#C0DD6D"/>
<stop offset="1" stop-color="#B7E472"/>
</linearGradient>
<linearGradient id="paint8_linear_146_17184" x1="49.7143" y1="20.5657" x2="49.7143" y2="21.8752" gradientUnits="userSpaceOnUse">
<stop stop-color="#C0DD6D"/>
<stop offset="1" stop-color="#B7E472"/>
</linearGradient>
<linearGradient id="paint9_linear_146_17184" x1="19.0102" y1="25.4763" x2="19.0102" y2="26.7858" gradientUnits="userSpaceOnUse">
<stop stop-color="#C0DD6D"/>
<stop offset="1" stop-color="#B7E472"/>
</linearGradient>
<linearGradient id="paint10_linear_146_17184" x1="41.5" y1="26.7864" x2="41.5" y2="62.1487" gradientUnits="userSpaceOnUse">
<stop stop-color="#C0DD6D"/>
<stop offset="1" stop-color="#B7E472"/>
</linearGradient>
</defs>
</svg>
