<svg width="117" height="136" viewBox="0 0 117 136" fill="none" xmlns="http://www.w3.org/2000/svg">
<g filter="url(#filter0_d_144_7824)">
<path d="M95.9014 56.5798L98.712 54.6572V56.2835L95.9014 58.28V56.5798Z" fill="#3A565E"/>
<path d="M99.0823 52.3435L97.222 53.4098L96.2812 53.9487V52.3435L99.0823 50.6634V52.3435Z" fill="#3A565E"/>
<path d="M83.2533 46.9331L81.2674 48.1586L74.1885 51.1697L77.7385 49.0782L83.2533 46.9331Z" fill="#D1E1E6"/>
<path d="M81.2674 48.1587L83.518 52.0367L77.0308 56.3577L74.1885 51.1698L81.2674 48.1587Z" fill="#869EA6"/>
<path d="M83.8136 51.4131C84.2365 51.1695 84.9547 50.6948 85.4514 50.3563L85.5684 50.5356L83.5182 52.0364L81.2676 48.1584L83.2535 46.9329L83.5709 47.4191V47.4296C82.8738 47.842 82.2821 48.1795 82.1345 48.2649C81.3731 48.6868 81.9964 49.6381 82.6302 49.2996C82.8738 49.173 83.4971 48.7827 84.1626 48.3493L84.923 49.5326C84.247 49.944 83.4866 50.4091 83.2535 50.5356C82.7894 50.7898 83.1164 51.8043 83.8136 51.4131Z" fill="#3A565E"/>
<path d="M85.9586 48.8776L85.8215 50.1136C85.7265 50.1769 85.599 50.2613 85.4513 50.3562C84.9546 50.6947 84.2363 51.1694 83.8134 51.413C83.1163 51.8042 82.7893 50.7897 83.2534 50.5356C83.4865 50.409 84.2469 49.9439 84.9229 49.5325C85.3458 49.2678 85.7361 49.0252 85.9586 48.8776Z" fill="#869EA6"/>
<path d="M86.2977 45.8235L86.1596 47.0596C85.7799 47.3137 84.9341 47.8526 84.1631 48.3493C83.4976 48.7828 82.8743 49.1731 82.6307 49.2996C81.9969 49.6382 81.3736 48.6869 82.135 48.2649C82.2826 48.1796 82.8743 47.8421 83.5715 47.4297V47.4192C84.586 46.8275 85.8221 46.0987 86.2977 45.8235Z" fill="#869EA6"/>
<path d="M93.0806 44.503L99.0826 50.6632L96.2815 52.3433L90.1855 46.3422L93.0806 44.503Z" fill="#B2C6CC"/>
<path d="M93.0804 44.503L90.1854 46.3423L86.5088 43.9219L89.4249 41.9676L93.0804 44.503Z" fill="#D1E1E6"/>
<path d="M89.7096 49.6592L91.4223 50.7792L89.4248 51.9836L89.7096 49.6592Z" fill="#3A565E"/>
<path d="M98.7121 54.6572L95.9015 56.5798L89.4248 51.9837L91.4223 50.7792L96.2812 53.9485L97.2219 53.4096L98.7121 54.6572Z" fill="#547078"/>
<path d="M96.2807 52.3432V53.9485L91.4217 50.7792L89.709 49.6592L89.4242 51.9836L95.9009 56.5798V58.28L88.8009 55.0158L85.5684 52.3432L85.8215 50.1137L85.9586 48.8776L86.1591 47.0595L86.2972 45.8234L86.5081 43.9218L90.1847 46.3422L96.2807 52.3432Z" fill="#869EA6"/>
<path d="M87.5863 48.0119C88.1569 48.3389 88.6105 49.131 88.6105 49.7859C88.6105 50.0822 88.5165 50.3037 88.3573 50.4198C87.9459 50.7055 87.3859 50.3565 87.1212 50.0928L87.2488 50.1877C87.6285 50.3987 87.9344 50.2299 87.9344 49.7859C87.9344 49.3534 87.6285 48.8145 87.2488 48.592C86.8681 48.3811 86.5612 48.5604 86.5612 48.9938L86.5718 49.1626C86.4452 48.6553 86.519 48.1481 86.8566 47.9476C87.0369 47.8316 87.3006 47.8422 87.5863 48.0119Z" fill="#B2C6CC"/>
<path d="M87.2491 48.5919C87.6288 48.8144 87.9347 49.3533 87.9347 49.7858C87.9347 50.2297 87.6288 50.3985 87.2491 50.1875L87.1215 50.0926L87.1004 50.0821C86.8789 49.8912 86.6881 49.6064 86.6037 49.3111L86.5721 49.1624L86.5615 48.9937C86.5615 48.5602 86.8684 48.3809 87.2491 48.5919Z" fill="#D1E1E6"/>
<path d="M71.706 49.2997L72.1184 49.7859L69.3288 51.1697L64.6377 46.469C66.2123 44.9999 66.2324 42.6965 66.2324 42.6965L71.706 49.2997Z" fill="#B2C6CC"/>
<path d="M70.2369 42.0518L74.3575 48.4019L72.1184 49.7856L71.706 49.2995L66.2324 42.6962L69.466 40.8685L70.2369 42.0518Z" fill="white"/>
<path d="M63.3166 47.1134C61.9961 47.9793 60.1157 47.916 58.0232 46.7116C54.0302 44.3977 50.7861 38.7879 50.7861 34.1706C50.7861 31.6774 51.7374 29.9868 53.2381 29.3203C54.5164 28.7507 56.185 28.93 58.0232 29.9868C62.0278 32.3007 65.2719 37.9105 65.2719 42.5278C65.2719 44.7362 64.5325 46.3098 63.3166 47.1134Z" fill="#869EA6"/>
<path d="M66.2329 42.6962C66.2329 42.6962 66.2127 44.9995 64.6381 46.4686L63.3167 47.113C64.5327 46.3094 65.272 44.7358 65.272 42.5274C65.272 37.9101 62.0279 32.3003 58.0234 29.9864C56.1851 28.9297 54.5165 28.7504 53.2383 29.32V29.3104L58.0234 26.9542C59.3438 26.1085 61.2042 26.1823 63.2755 27.3762C67.2685 29.6901 70.5126 35.2999 70.5126 39.9181C70.5126 40.7102 70.4167 41.4284 70.2374 42.0518L69.4664 40.8684L66.2329 42.6962Z" fill="#B2C6CC"/>
<mask id="mask0_144_7824" style="mask-type:luminance" maskUnits="userSpaceOnUse" x="54" y="26" width="17" height="15">
<path d="M68.8832 40.6938L67.3345 39.8011L66.6681 39.4146L66.6288 39.3935V34.3025L66.6278 34.3035V34.3025C66.0074 33.9017 65.3745 33.5143 64.7329 33.1441C62.512 31.862 60.4014 30.905 58.4931 30.274C58.3378 30.1733 58.1815 30.0775 58.0232 29.9864C58.0127 29.9796 58.0031 29.9739 57.9925 29.9681C57.9868 29.9652 57.981 29.9614 57.9762 29.9585C56.9051 29.3515 55.8934 29.0418 54.9834 29.0054L58.2975 26.796C58.8144 26.5284 59.4022 26.3884 60.0456 26.3884C61.017 26.3884 62.1121 26.7058 63.2753 27.3761C67.2175 29.6603 70.43 35.1589 70.5105 39.7416C69.8585 40.1175 69.2073 40.4963 68.8832 40.6938Z" fill="white"/>
</mask>
<g mask="url(#mask0_144_7824)">
<path d="M68.8832 40.6938L67.3345 39.8011L66.6681 39.4146L66.6288 39.3935V34.3025L66.6278 34.3035V34.3025C66.0074 33.9017 65.3745 33.5143 64.7329 33.1441C62.512 31.862 60.4014 30.905 58.4931 30.274C58.3378 30.1733 58.1815 30.0775 58.0232 29.9864C58.0127 29.9796 58.0031 29.9739 57.9925 29.9681C57.9868 29.9652 57.981 29.9614 57.9762 29.9585C56.9051 29.3515 55.8934 29.0418 54.9834 29.0054L58.2975 26.796C58.8144 26.5284 59.4022 26.3884 60.0456 26.3884C61.017 26.3884 62.1121 26.7058 63.2753 27.3761C67.2175 29.6603 70.43 35.1589 70.5105 39.7416C69.8585 40.1175 69.2073 40.4963 68.8832 40.6938Z" fill="url(#paint0_linear_144_7824)"/>
</g>
<path d="M34.578 45.3672L31.4922 42.709L38.992 22.3891L42.0779 25.0492L34.578 45.3672Z" fill="#A0B6BD"/>
<mask id="mask1_144_7824" style="mask-type:luminance" maskUnits="userSpaceOnUse" x="32" y="26" width="9" height="15">
<path d="M32.1982 40.7969L37.6009 26.1577C38.5339 26.922 39.6041 27.693 40.8172 28.4659L37.3707 37.8021L32.1982 40.7969Z" fill="white"/>
</mask>
<g mask="url(#mask1_144_7824)">
<path d="M32.1982 40.7969L37.6009 26.1577C38.5339 26.922 39.6041 27.693 40.8172 28.4659L37.3707 37.8021L32.1982 40.7969Z" fill="url(#paint1_linear_144_7824)"/>
</g>
<path d="M40.2197 41.9707L37.1338 39.3116L44.6337 18.9907L47.7195 21.6498L40.2197 41.9707Z" fill="#869EA6"/>
<mask id="mask2_144_7824" style="mask-type:luminance" maskUnits="userSpaceOnUse" x="37" y="28" width="8" height="10">
<path d="M37.7783 37.5662L41.0761 28.6298C41.5278 28.9127 41.9986 29.1956 42.4886 29.4785C42.5692 29.5418 42.6603 29.5974 42.7667 29.6424L42.7658 29.6434L44.4132 30.6081L42.9508 34.5704L37.7783 37.5662Z" fill="white"/>
</mask>
<g mask="url(#mask2_144_7824)">
<path d="M37.7783 37.5662L41.0761 28.6298C41.5278 28.9127 41.9986 29.1956 42.4886 29.4785C42.5692 29.5418 42.6603 29.5974 42.7667 29.6424L42.7658 29.6434L44.4132 30.6081L42.9508 34.5704L37.7783 37.5662Z" fill="url(#paint2_linear_144_7824)"/>
</g>
<path d="M32.0931 79.2761L30.3057 77.6248L31.4324 55.9931L33.2208 57.6453L32.0931 79.2761Z" fill="#231F20"/>
<path d="M54.78 90.0591L32.5911 69.4007C31.9908 73.4896 31.17 77.5565 30.4297 81.6137L51.7191 93.6772L53.9985 96.3181L55.8252 95.2288C56.2577 94.9833 56.5243 94.452 56.5243 93.6964C56.5243 92.4392 55.783 90.9529 54.78 90.0591Z" fill="#547078"/>
<path d="M34.5587 58.3808L33.7686 73.5503L35.7085 72.3037L36.3471 60.034L34.5587 58.3808Z" fill="#3A565E"/>
<path d="M52.8004 91.2522L33.7684 73.5502L34.5586 58.3807L31.4324 55.993L30.6672 70.6657L30.3057 77.6247L52.1838 96.254C53.4861 97.0068 54.5467 96.394 54.5467 94.8894C54.5467 93.6322 53.8044 92.1459 52.8004 91.2522Z" fill="#869EA6"/>
<path d="M52.1843 94.8894C51.5323 94.5135 51.0029 93.5968 51.0029 92.845C51.0029 92.0922 51.5332 91.7854 52.1843 92.1622C52.8355 92.5381 53.3658 93.4558 53.3658 94.2067C53.3658 94.9604 52.8355 95.2663 52.1843 94.8894Z" fill="#B5B5B5"/>
<path d="M88.9136 79.8562C88.0093 80.7797 86.4098 80.6512 84.4104 79.4966L67.4113 69.6838C63.9697 67.6949 61.418 61.3621 65.1693 60.0819L78.6587 55.4982C79.8238 55.1022 81.0446 55.2422 82.1914 55.9038C84.1055 57.0105 85.6551 59.4768 86.4415 62.673L89.3403 74.4622C89.9684 77.0187 89.8169 78.9337 88.9136 79.8562ZM91.2275 74.8314L88.3296 63.0422C86.6054 56.0275 81.7216 51.5253 77.4217 52.9867L63.917 57.5753C61.3508 58.6406 52.1729 68.043 52.1729 68.043L55.4256 74.279L64.57 80.0422L77.4255 87.335L80.87 86.026C80.87 86.026 92.9526 81.846 91.2275 74.8314Z" fill="#94AFB8"/>
<path d="M69.1163 70.6677L68.5381 70.334V70.3331L69.1163 70.6677Z" fill="#DFDFDF"/>
<path d="M60.4131 76.5891L59.0342 75.7932L59.2643 75.6609L60.6557 76.4501L60.4131 76.5891ZM69.548 71.3428L68.4922 70.3599L68.5382 70.334L69.1165 70.6677L69.9181 71.1308L69.548 71.3428Z" fill="#8199A1"/>
<path d="M63.0527 78.1138L61.6709 77.3159L61.926 77.1692L63.3212 77.9594L63.0527 78.1138ZM71.5671 73.2241L70.5104 72.2403L71.1759 71.8577L72.5577 72.6545L71.5671 73.2241Z" fill="#8199A1"/>
<path d="M74.7149 73.9006L73.8145 73.3809L73.8154 73.3799L74.7159 73.9006H74.7149Z" fill="#DFDFDF"/>
<path d="M65.6905 79.6365L64.3105 78.8396L64.5906 78.6785L65.9829 79.4687L65.6905 79.6365ZM73.2162 74.7583L72.5286 74.1187L73.8146 73.3804L74.715 73.9001L73.2162 74.7583Z" fill="#8199A1"/>
<path d="M68.3174 81.1528L66.9395 80.3579L67.2425 80.1824L68.6339 80.9706L68.3174 81.1528Z" fill="#8199A1"/>
<path d="M70.9484 82.6729L69.5742 81.8788L69.9022 81.689L71.2898 82.4753L70.9484 82.6729Z" fill="#8199A1"/>
<path d="M73.6035 84.2051L72.2227 83.4082L72.5765 83.2049L73.7531 83.8704C73.8289 83.9155 73.9046 83.9548 73.9794 83.9893L73.6035 84.2051Z" fill="#8199A1"/>
<path d="M76.3667 85.6416C75.9064 85.4805 75.4135 85.2504 74.8938 84.9493L74.8516 84.9253L75.4164 84.5992C75.5343 84.6798 75.6542 84.7546 75.776 84.8246C76.1826 85.0595 76.5757 85.2187 76.9468 85.3069L76.3667 85.6416Z" fill="#8199A1"/>
<path d="M89.435 76.9802C89.435 74.3393 87.5804 71.1279 85.2924 69.8074C84.1589 69.1525 83.1319 69.0863 82.3839 69.5053L82.3763 69.5092L82.3532 69.5236L72.8799 74.9521L78.6086 85.1648L88.0733 79.7401C88.1692 79.694 88.2632 79.6413 88.3514 79.5799C89.0246 79.1177 89.435 78.223 89.435 76.9802Z" fill="#869EA6"/>
<path d="M85.9954 63.1458C85.9954 60.5807 84.1945 57.4622 81.9745 56.1791C80.8334 55.5203 79.8045 55.4772 79.0718 55.9355L69.6426 61.3353L75.121 71.292L84.7861 65.7666H84.7842C85.5322 65.3533 85.9954 64.4471 85.9954 63.1458Z" fill="#869EA6"/>
<path d="M70.5299 67.0449C70.5309 64.8249 68.9726 62.1274 67.0509 61.0189C66.1294 60.4867 65.2951 60.4215 64.6718 60.736L64.6699 60.7331L64.6296 60.7562L64.5586 60.7974L54.9971 66.2758L60.0814 74.6943L69.2526 69.4163C70.0323 69.1306 70.5299 68.2992 70.5299 67.0449Z" fill="#869EA6"/>
<path d="M66.7135 69.2627C66.7135 67.0427 65.1562 64.3453 63.2345 63.2358C62.3648 62.7333 61.5717 62.647 60.9618 62.903L60.9599 62.9001L60.912 62.927L60.6876 63.0526L58.8848 64.0576V64.0595C59.5138 63.6989 60.3797 63.7536 61.3377 64.305C63.2585 65.4145 64.8168 68.1139 64.8168 70.3319C64.8168 71.3445 64.4907 72.0791 63.9537 72.4761L65.6903 71.5162L65.6971 71.5124L65.7038 71.5095H65.7028C66.328 71.1422 66.7135 70.3655 66.7135 69.2627Z" fill="#3A565E"/>
<path d="M79.396 85.3076C78.4927 86.2321 76.8922 86.1045 74.8938 84.949L57.8947 75.1352C54.4521 73.1483 51.9003 66.8155 55.6517 65.5343L69.1411 60.9497C70.3072 60.5536 71.5279 60.6955 72.6738 61.3562C74.5888 62.4619 76.1385 64.9283 76.9238 68.1264L79.8227 79.9146C80.4518 82.4692 80.3003 84.3851 79.396 85.3076ZM81.7109 80.2828L78.812 68.4936C77.0869 61.4799 72.2039 56.9777 67.905 58.4392L54.4003 63.0277C49.0513 65.2476 52.5304 74.3345 57.8947 77.4309C67.2827 82.8518 74.8938 87.2447 74.8938 87.2447C80.3837 90.4149 83.435 87.2974 81.7109 80.2828Z" fill="#547078"/>
<mask id="mask3_144_7824" style="mask-type:luminance" maskUnits="userSpaceOnUse" x="53" y="58" width="30" height="31">
<path d="M78.707 88.4856C77.6378 88.4846 76.3509 88.0867 74.8942 87.2447C74.8942 87.2447 67.2831 82.8518 57.8951 77.431C55.8948 76.2764 54.1562 74.2885 53.04 72.1347L56.5987 74.1504C57.0072 74.5398 57.4435 74.8744 57.8951 75.1352L74.8942 84.949C76.0104 85.5944 77.002 85.9185 77.8171 85.9185C78.4625 85.9185 78.9975 85.7162 79.3965 85.3077C79.9335 84.7601 80.2048 83.8625 80.2048 82.6888C80.2058 81.8852 80.0792 80.9522 79.8232 79.9146L77.3846 69.9982L76.9243 68.1264C76.139 64.9283 74.5893 62.4619 72.6743 61.3563C72.028 60.9832 71.3577 60.7761 70.6874 60.7368C70.6097 60.733 70.532 60.7301 70.4544 60.7301C70.0132 60.7301 69.5741 60.803 69.1416 60.9497L61.261 63.628L61.2016 63.5733L70.3978 58.2301C73.9487 58.7844 77.4162 62.8167 78.8115 68.4946L81.7113 80.2828C82.0383 81.6119 82.1937 82.8 82.1927 83.8328C82.1927 84.4648 82.1352 85.0382 82.022 85.5484C81.7602 86.7317 81.2069 87.5813 80.4053 88.0522V88.0541L80.459 88.0234C79.968 88.3274 79.3802 88.4856 78.707 88.4856Z" fill="white"/>
</mask>
<g mask="url(#mask3_144_7824)">
<path d="M78.707 88.4856C77.6378 88.4846 76.3509 88.0867 74.8942 87.2447C74.8942 87.2447 67.2831 82.8518 57.8951 77.431C55.8948 76.2764 54.1562 74.2885 53.04 72.1347L56.5987 74.1504C57.0072 74.5398 57.4435 74.8744 57.8951 75.1352L74.8942 84.949C76.0104 85.5944 77.002 85.9185 77.8171 85.9185C78.4625 85.9185 78.9975 85.7162 79.3965 85.3077C79.9335 84.7601 80.2048 83.8625 80.2048 82.6888C80.2058 81.8852 80.0792 80.9522 79.8232 79.9146L77.3846 69.9982L76.9243 68.1264C76.139 64.9283 74.5893 62.4619 72.6743 61.3563C72.028 60.9832 71.3577 60.7761 70.6874 60.7368C70.6097 60.733 70.532 60.7301 70.4544 60.7301C70.0132 60.7301 69.5741 60.803 69.1416 60.9497L61.261 63.628L61.2016 63.5733L70.3978 58.2301C73.9487 58.7844 77.4162 62.8167 78.8115 68.4946L81.7113 80.2828C82.0383 81.6119 82.1937 82.8 82.1927 83.8328C82.1927 84.4648 82.1352 85.0382 82.022 85.5484C81.7602 86.7317 81.2069 87.5813 80.4053 88.0522V88.0541L80.459 88.0234C79.968 88.3274 79.3802 88.4856 78.707 88.4856Z" fill="url(#paint3_linear_144_7824)"/>
</g>
<path d="M61.0137 72.4974C61.0137 74.7155 59.4564 75.615 57.5337 74.5055C55.613 73.396 54.0547 70.6985 54.0547 68.4805C54.0556 66.2605 55.613 65.362 57.5337 66.4705C59.4564 67.58 61.0137 70.2785 61.0137 72.4974Z" fill="#B5B5B5"/>
<path d="M57.5336 72.367C56.637 71.8492 55.9072 70.5843 55.9072 69.5487C55.9072 68.514 56.637 68.0911 57.5336 68.6099C58.4311 69.1268 59.1609 70.3916 59.1609 71.4282C59.1609 72.4629 58.4311 72.8848 57.5336 72.367Z" fill="#231F20"/>
<path d="M79.9171 82.4337C79.9171 85.0746 78.0615 86.1457 75.7754 84.8243C73.4874 83.5048 71.6328 80.2924 71.6328 77.6505C71.6338 75.0086 73.4874 73.9394 75.7754 75.2589C78.0615 76.5794 79.9171 79.7928 79.9171 82.4337Z" fill="#B2C6CC"/>
<path d="M75.7761 82.1435C74.7721 81.5634 73.9561 80.1509 73.9561 78.9915C73.9561 77.8331 74.7721 77.3622 75.7761 77.9405C76.7792 78.5206 77.5952 79.9351 77.5952 81.0916C77.5952 82.2509 76.7792 82.7227 75.7761 82.1435Z" fill="#231F20"/>
<path d="M76.4791 68.5973C76.4791 71.1625 74.6782 72.202 72.4573 70.9199C70.2364 69.6368 68.4355 66.5184 68.4355 63.9542C68.4355 61.39 70.2364 60.3486 72.4573 61.6326C74.6792 62.9147 76.4791 66.0331 76.4791 68.5973Z" fill="#B2C6CC"/>
<path d="M72.4568 68.3164C71.4825 67.7535 70.6895 66.3812 70.6895 65.2564C70.6895 64.1316 71.4834 63.6742 72.4568 64.237C73.4311 64.798 74.2231 66.1712 74.2231 67.2951C74.2231 68.4199 73.4311 68.8793 72.4568 68.3164Z" fill="#3A565E"/>
<path d="M89.9682 82.5722V82.5741L89.8378 82.6508L80.4047 88.0544V88.0525C82.1174 87.0466 82.7004 84.3069 81.7108 80.2832L78.8109 68.495C77.0877 61.4813 72.2039 56.9791 67.9049 58.4405L54.4012 63.0281C54.2286 63.1 54.0655 63.1777 53.9121 63.264L63.2627 57.9064L63.3845 57.8354C63.5523 57.7414 63.7288 57.6542 63.9167 57.5765L77.4224 52.987C81.7204 51.5275 86.6033 56.0278 88.3303 63.0424L91.2273 74.8307C92.2073 78.817 91.6454 81.5452 89.9682 82.5722Z" fill="#D1E1E6"/>
<path d="M74.0041 54.1492L64.6698 59.5394H64.6679L57.9707 61.8159L67.3098 56.4229L74.0041 54.1492Z" fill="#B2C6CC"/>
<path d="M81.6399 53.3212L72.1656 58.792C71.5825 58.5101 70.9861 58.3192 70.3867 58.2272L79.8447 52.766C80.4479 52.8543 81.0501 53.0393 81.6399 53.3212Z" fill="#B2C6CC"/>
<path d="M84.352 55.338L74.8585 60.8174C74.5191 60.4568 74.1643 60.1298 73.8027 59.8392L83.2886 54.3628C83.652 54.6504 84.0078 54.9765 84.352 55.338Z" fill="#B2C6CC"/>
<path d="M86.2285 57.8354L76.7312 63.3196C76.4905 62.913 76.2383 62.5285 75.9746 62.165L85.47 56.6828C85.7356 57.0453 85.9888 57.4288 86.2285 57.8354Z" fill="#B2C6CC"/>
<path d="M87.5536 60.5694L78.0487 66.0564C77.8808 65.6162 77.7006 65.1914 77.5078 64.78L87.0071 59.2959C87.2036 59.7044 87.3858 60.1302 87.5536 60.5694Z" fill="#B2C6CC"/>
<path d="M88.4534 63.5494L78.9455 69.0383L78.8113 68.4946C78.7432 68.2108 78.6674 67.9298 78.5859 67.6536L88.0929 62.1646C88.1782 62.4514 88.2559 62.7458 88.3307 63.0421L88.4534 63.5494Z" fill="#B2C6CC"/>
<path d="M89.2067 66.615L79.6998 72.104L79.3574 70.7116V70.7107L88.8653 65.2217L89.2067 66.615Z" fill="#B2C6CC"/>
<path d="M89.9625 69.678L80.5083 75.1362L80.398 74.9454L80.1113 73.7774L89.6182 68.2856L89.9625 69.678Z" fill="#B2C6CC"/>
<path d="M90.7154 72.7437L81.2066 78.2327L80.8643 76.8393L90.3731 71.3504L90.7154 72.7437Z" fill="#B2C6CC"/>
<path d="M91.4454 75.8231L81.9366 81.312C81.8723 80.9793 81.7985 80.6379 81.7112 80.2831L81.6191 79.9081V79.9052L91.1261 74.4163L91.2277 74.8305C91.3102 75.17 91.383 75.5008 91.4454 75.8231Z" fill="#B2C6CC"/>
<path d="M91.6727 79.1906L82.1523 84.6873C82.2012 84.1972 82.2051 83.6622 82.1667 83.0897L91.6804 77.595C91.7216 78.1694 91.7187 78.7016 91.6727 79.1906Z" fill="#B2C6CC"/>
<path d="M78.095 81.3131C78.094 80.0569 77.3528 78.5705 76.3497 77.6758L45.1842 48.6622L42.668 63.9429L73.2878 81.2939L75.5682 83.9348L77.3949 82.8455C77.8265 82.6 78.095 82.0697 78.095 81.3131Z" fill="#547078"/>
<path d="M74.3702 78.8694L43.2057 49.8548L40.6885 65.1364L73.7536 83.8702C75.0559 84.623 76.1164 84.0112 76.1164 82.5066C76.1155 81.2495 75.3742 79.7622 74.3702 78.8694Z" fill="#869EA6"/>
<mask id="mask4_144_7824" style="mask-type:luminance" maskUnits="userSpaceOnUse" x="46" y="64" width="31" height="21">
<path d="M74.8065 84.1924C74.5534 84.1924 74.2743 84.1272 73.9799 83.9891C73.9051 83.9546 73.8294 83.9152 73.7536 83.8702L72.577 83.2047L71.2901 82.4749L69.9025 81.6886L68.6338 80.9703L67.2424 80.1821L65.9833 79.4687L64.591 78.6785L63.3213 77.9593L61.9261 77.1691L60.6555 76.4499L59.2641 75.6607L56.5982 74.1504L53.0396 72.1347L46.7451 68.5674C47.9793 68.8791 49.1051 69.0354 50.0909 69.0354C51.373 69.0354 52.4192 68.7717 53.1633 68.2424L53.1643 68.2433L59.1941 64.7403L74.3702 78.8693C75.3742 79.7621 76.1155 81.2494 76.1164 82.5066C76.1164 83.1654 75.9131 83.6525 75.5756 83.9296C75.3819 84.0888 75.1431 84.178 74.8746 84.1905C74.8516 84.1924 74.8295 84.1924 74.8065 84.1924Z" fill="white"/>
</mask>
<g mask="url(#mask4_144_7824)">
<mask id="mask5_144_7824" style="mask-type:luminance" maskUnits="userSpaceOnUse" x="46" y="64" width="31" height="21">
<path d="M46.7451 84.1924H76.1163V64.7401H46.7451V84.1924Z" fill="white"/>
</mask>
<g mask="url(#mask5_144_7824)">
<path d="M74.4879 84.2556V84.1597H74.1043V84.0638H73.9126V83.9679H73.7208V83.872H73.529V83.7761H73.3372V83.6803H73.2413V83.5844H73.0495V83.4885H72.8577V83.3926H72.6659V83.2967H72.57V83.2008H72.3783V83.1049H72.1865V83.009H71.9947V82.9131H71.8029V82.8172H71.707V82.7213H71.5152V82.6254H71.3234V82.5295H71.1316V82.4336H71.0357V82.3377H70.844V82.2418H70.6522V82.146H70.4604V82.0501H70.3645V81.9542H70.1727V81.8583H69.9809V81.7624H69.7891V81.6665H69.6932V81.5706H69.5014V81.4747H69.3097V81.3788H69.1179V81.2829H68.9261V81.187H68.8302V81.0911H68.6384V80.9952H68.4466V80.8993H68.2548V80.8034H68.1589V80.7075H67.9671V80.6117H67.7754V80.5158H67.5836V80.4199H67.4877V80.324H67.2959V80.2281H67.1041V80.1322H66.9123V80.0363H66.8164V79.9404H66.6246V79.8445H66.4328V79.7486H66.241V79.6527H66.0493V79.5568H65.9534V79.4609H65.7616V79.365H65.5698V79.2691H65.378V79.1732H65.2821V79.0773H65.0903V78.9815H64.8985V78.8856H64.7067V78.7897H64.6109V78.6938H64.4191V78.5979H64.2273V78.502H64.0355V78.4061H63.9396V78.3102H63.7478V78.2143H63.556V78.1184H63.3642V78.0225H63.1724V77.9266H63.0766V77.8307H62.8848V77.7348H62.693V77.6389H62.5012V77.543H62.4053V77.4472H62.2135V77.3513H62.0217V77.2554H61.8299V77.1595H61.734V77.0636H61.5423V76.9677H61.3505V76.8718H61.1587V76.7759H61.0628V76.68H60.871V76.5841H60.6792V76.4882H60.4874V76.3923H60.2956V76.2964H60.1997V76.2005H60.008V76.1046H59.8162V76.0087H59.6244V75.9129H59.5285V75.817H59.3367V75.7211H59.1449V75.6252H58.9531V75.5293H58.8572V75.4334H58.6654V75.3375H58.4736V75.2416H58.2819V75.1457H58.186V75.0498H57.9942V74.9539H57.8024V74.858H57.6106V74.7621H57.4188V74.6662H57.3229V74.5703H57.1311V74.4744H56.9393V74.3786H56.7476V74.2827H56.6517V74.1868H56.4599V74.0909H56.2681V73.995H56.0763V73.8991H55.9804V73.8032H55.7886V73.7073H55.5968V73.6114H55.405V73.5155H55.3092V73.4196H55.1174V73.3237H54.9256V73.2278H54.7338V73.1319H54.542V73.036H54.4461V72.9401H54.2543V72.8443H54.0625V72.7484H53.8707V72.6525H53.7749V72.5566H53.5831V72.4607H53.3913V72.3648H53.1995V72.2689H53.1036V72.173H52.9118V72.0771H52.72V71.9812H52.5282V71.8853H52.4323V71.7894H52.2406V71.6935H52.0488V71.5976H51.857V71.5017H51.6652V71.4058H51.5693V71.3099H51.3775V71.2141H51.1857V71.1182H50.9939V71.0223H50.898V70.9264H50.7063V70.8305H50.5145V70.7346H50.3227V70.6387H50.2268V70.5428H50.035V70.4469H49.8432V70.351H49.6514V70.2551H49.5555V70.1592H49.3637V70.0633H49.172V69.9674H48.9802V69.8715H48.7884V69.7756H48.6925V69.6798H48.5007V69.5839H48.3089V69.488H48.1171V69.3921H48.0212V69.2962H47.8294V69.2003H47.6376V69.1044H47.4459V69.0085H47.35V68.9126H47.1582V68.8167H46.9664V68.7208H46.7746V68.6249H46.6787V68.529H47.0623V68.6249H47.5418V68.7208H48.0212V68.8167H48.5007V68.9126H49.4596V69.0085H50.6104V68.9126H51.3775V68.8167H51.857V68.7208H52.1447V68.6249H52.4323V68.529H52.6241V68.4331H52.8159V68.3372H53.0077V68.2413H53.1036V68.1455H53.2954V68.0496H53.4872V67.9537H53.5831V67.8578H53.7749V67.7619H53.9666V67.666H54.1584V67.5701H54.2543V67.4742H54.4461V67.3783H54.6379V67.2824H54.7338V67.1865H54.9256V67.0906H55.1174V66.9947H55.3092V66.8988H55.405V66.8029H55.5968V66.707H55.7886V66.6112H55.8845V66.5153H56.0763V66.4194H56.2681V66.3235H56.4599V66.2276H56.5558V66.1317H56.7476V66.0358H56.9393V65.9399H57.0352V65.844H57.227V65.7481H57.4188V65.6522H57.6106V65.5563H57.7065V65.4604H57.8983V65.3645H58.0901V65.2686H58.2819V65.1727H58.3778V65.0769H58.5695V64.981H58.7613V64.8851H58.8572V64.7892H59.049V64.6933H59.3367V64.7892H59.4326V64.8851H59.5285V64.981H59.6244V65.0769H59.7203V65.1727H59.8162V65.2686H59.9121V65.3645H60.008V65.4604H60.1038V65.5563H60.1997V65.6522H60.2956V65.7481H60.3915V65.844H60.4874V65.9399H60.6792V66.0358H60.7751V66.1317H60.871V66.2276H60.9669V66.3235H61.0628V66.4194H61.1587V66.5153H61.2546V66.6112H61.3505V66.707H61.4464V66.8029H61.5423V66.8988H61.6381V66.9947H61.734V67.0906H61.8299V67.1865H61.9258V67.2824H62.1176V67.3783H62.2135V67.4742H62.3094V67.5701H62.4053V67.666H62.5012V67.7619H62.5971V67.8578H62.693V67.9537H62.7889V68.0496H62.8848V68.1455H62.9807V68.2413H63.0766V68.3372H63.1724V68.4331H63.2683V68.529H63.4601V68.6249H63.556V68.7208H63.6519V68.8167H63.7478V68.9126H63.8437V69.0085H63.9396V69.1044H64.0355V69.2003H64.1314V69.2962H64.2273V69.3921H64.3232V69.488H64.4191V69.5839H64.515V69.6798H64.6109V69.7756H64.7067V69.8715H64.8985V69.9674H64.9944V70.0633H65.0903V70.1592H65.1862V70.2551H65.2821V70.351H65.378V70.4469H65.4739V70.5428H65.5698V70.6387H65.6657V70.7346H65.7616V70.8305H65.8575V70.9264H65.9534V71.0223H66.0493V71.1182H66.241V71.2141H66.3369V71.3099H66.4328V71.4058H66.5287V71.5017H66.6246V71.5976H66.7205V71.6935H66.8164V71.7894H66.9123V71.8853H67.0082V71.9812H67.1041V72.0771H67.2V72.173H67.2959V72.2689H67.3918V72.3648H67.4877V72.4607H67.6795V72.5566H67.7754V72.6525H67.8712V72.7484H67.9671V72.8443H68.063V72.9401H68.1589V73.036H68.2548V73.1319H68.3507V73.2278H68.4466V73.3237H68.5425V73.4196H68.6384V73.5155H68.7343V73.6114H68.8302V73.7073H69.022V73.8032H69.1179V73.8991H69.2138V73.995H69.3097V74.0909H69.4055V74.1868H69.5014V74.2827H69.5973V74.3786H69.6932V74.4744H69.7891V74.5703H69.885V74.6662H69.9809V74.7621H70.0768V74.858H70.1727V74.9539H70.2686V75.0498H70.4604V75.1457H70.5563V75.2416H70.6522V75.3375H70.7481V75.4334H70.844V75.5293H70.9398V75.6252H71.0357V75.7211H71.1316V75.817H71.2275V75.9129H71.3234V76.0087H71.4193V76.1046H71.5152V76.2005H71.6111V76.2964H71.8029V76.3923H71.8988V76.4882H71.9947V76.5841H72.0906V76.68H72.1865V76.7759H72.2824V76.8718H72.3783V76.9677H72.4741V77.0636H72.57V77.1595H72.6659V77.2554H72.7618V77.3513H72.8577V77.4472H72.9536V77.543H73.0495V77.6389H73.2413V77.7348H73.3372V77.8307H73.4331V77.9266H73.529V78.0225H73.6249V78.1184H73.7208V78.2143H73.8167V78.3102H73.9126V78.4061H74.0084V78.502H74.1043V78.5979H74.2002V78.6938H74.2961V78.7897H74.392V78.8856H74.5838V78.9815H74.6797V79.1732H74.7756V79.2691H74.8715V79.365H74.9674V79.4609H75.0633V79.5568H75.1592V79.7486H75.2551V79.9404H75.351V80.0363H75.4469V80.2281H75.5427V80.4199H75.6386V80.5158H75.7345V80.8034H75.8304V81.0911H75.9263V81.2829H76.0222V81.6665H76.1181V83.2008H76.0222V83.4885H75.9263V83.6803H75.8304V83.7761H75.7345V83.9679H75.5427V84.0638H75.351V84.1597H75.0633V84.2556" fill="url(#paint4_linear_144_7824)"/>
</g>
</g>
<path d="M74.9353 81.8251C74.9353 81.0723 74.405 80.1546 73.7538 79.7787C73.4077 79.5783 73.0979 79.5764 72.8831 79.727L72.8803 79.7222L52.4971 91.474L54.249 94.3076L74.543 82.6057L74.6255 82.5577L74.6639 82.5357L74.661 82.5299C74.8298 82.3909 74.9353 82.1531 74.9353 81.8251Z" fill="#B2C6CC"/>
<path d="M52.074 91.9062L36.614 77.5135C32.9566 79.0564 29.3136 80.6396 25.7051 82.3168L51.4574 96.908C52.7596 97.6598 53.8202 97.048 53.8202 95.5434C53.8202 94.2862 53.0789 92.8009 52.074 91.9062Z" fill="#547078"/>
<path d="M51.4578 95.5436C50.8067 95.1687 50.2764 94.25 50.2764 93.4972C50.2764 92.7464 50.8076 92.4395 51.4578 92.8154C52.1089 93.1923 52.6392 94.11 52.6392 94.8608C52.6392 95.6136 52.1089 95.9195 51.4578 95.5436Z" fill="#544B4D"/>
<path d="M55.1026 99.3706C54.1983 100.295 52.5988 100.167 50.5994 99.0129L33.6013 89.1982C30.1577 87.2113 27.6069 80.8784 31.3583 79.5982L44.8477 75.0136C46.0128 74.6185 47.2345 74.7585 48.3795 75.4182C50.2945 76.5249 51.8451 78.9932 52.6304 82.1893L55.5293 93.9775C56.1584 96.5331 56.0069 98.4481 55.1026 99.3706ZM57.4165 94.3458L54.5176 82.5575C52.7925 75.5429 47.9096 71.0407 43.6107 72.5011L30.1069 77.0906C27.5389 78.1551 18.3623 87.5574 18.3623 87.5574L21.6148 93.7944L30.759 99.5566L43.6155 106.849L47.059 105.541C47.059 105.541 59.1416 101.36 57.4165 94.3458Z" fill="#869EA6"/>
<path d="M36.1067 90.6455L25.9103 96.5017L24.5908 95.6713L34.7278 89.8486L36.1067 90.6455Z" fill="#94AFB8"/>
<path d="M38.7462 92.1692L28.4347 98.0925L27.1143 97.2592L37.3653 91.3732L38.7462 92.1692Z" fill="#94AFB8"/>
<path d="M41.3847 93.6917L30.9687 99.6746L30.7596 99.5576L29.6367 98.8508L40.0038 92.8958L41.3847 93.6917Z" fill="#94AFB8"/>
<path d="M43.9784 95.1885L33.62 101.182L32.2305 100.39L42.6014 94.3945L43.9784 95.1885Z" fill="#94AFB8"/>
<path d="M46.6021 96.7047L36.2763 102.688L34.8896 101.898L45.2251 95.9097L46.6021 96.7047Z" fill="#94AFB8"/>
<path d="M49.3008 98.2601L38.95 104.205L37.5576 103.414L47.918 97.4642L49.3008 98.2601Z" fill="#94AFB8"/>
<path d="M52.0261 99.6861L41.6034 105.709L40.2139 104.918L50.5196 98.965L50.6001 99.0111C51.1026 99.3007 51.5773 99.526 52.0261 99.6861Z" fill="#94AFB8"/>
<path d="M55.6235 96.4969C55.6235 93.8559 53.7679 90.6425 51.4808 89.3211C50.3474 88.6671 49.3204 88.6 48.5724 89.0219L48.5657 89.0258L48.5417 89.0392L39.0684 94.4677L44.7971 104.681L54.2618 99.2548C54.3586 99.2097 54.4507 99.157 54.5389 99.0965H54.5399C55.213 98.6343 55.6235 97.7396 55.6235 96.4969Z" fill="#869EA6"/>
<path d="M52.1848 82.66C52.1848 80.0958 50.3839 76.9773 48.163 75.6952C47.0219 75.0374 45.9929 74.9913 45.2612 75.4497L35.8311 80.8504L41.3095 90.8062L50.9737 85.2817C51.7197 84.8694 52.1848 83.9622 52.1848 82.66Z" fill="#869EA6"/>
<path d="M36.7182 86.5602C36.7182 84.3413 35.1609 81.6428 33.2392 80.5333C32.3186 80.0011 31.4824 79.9359 30.8601 80.2514L30.8582 80.2485L30.8179 80.2715L30.746 80.3118L21.1846 85.7902L26.2706 94.2087L35.4409 88.9327C36.2205 88.645 36.7182 87.8136 36.7182 86.5602Z" fill="#869EA6"/>
<path d="M32.903 88.7783C32.903 86.5593 31.3457 83.8618 29.423 82.7514C28.5542 82.2498 27.7602 82.1616 27.1513 82.4186L27.1493 82.4167L27.1014 82.4426L26.876 82.5682L25.0732 83.5741C25.7023 83.2145 26.5701 83.2682 27.5272 83.8215C29.4498 84.931 31.0071 87.6285 31.0071 89.8465C31.0071 90.8601 30.6792 91.5937 30.1441 91.9907L31.8788 91.0327L31.8875 91.028L31.8942 91.0232H31.8932C32.5175 90.6578 32.903 89.882 32.903 88.7783Z" fill="#3A565E"/>
<path d="M45.5847 104.824C44.6804 105.747 43.0819 105.619 41.0816 104.464L24.0834 94.6519C20.6405 92.664 18.0888 86.3312 21.8399 85.0491L35.3298 80.4663C36.495 80.0703 37.7166 80.2093 38.8616 80.871C40.7776 81.9785 42.3272 84.444 43.1126 87.6411L46.0124 99.4312C46.6405 101.987 46.489 103.901 45.5847 104.824ZM47.8996 99.7985L44.9998 88.0093C43.2756 80.9956 38.3927 76.4934 34.0928 77.9548L20.5889 82.5443C15.2397 84.7623 18.7189 93.8492 24.0834 96.9466C33.4705 102.366 41.0816 106.759 41.0816 106.759C46.5715 109.93 49.6247 106.813 47.8996 99.7985Z" fill="#547078"/>
<mask id="mask6_144_7824" style="mask-type:luminance" maskUnits="userSpaceOnUse" x="17" y="77" width="32" height="31">
<path d="M44.896 108C43.8258 108 42.5389 107.601 41.0813 106.759C41.0813 106.759 33.4702 102.365 24.0832 96.9463C20.6046 94.9383 17.9189 90.4111 17.9189 86.8717C17.9189 84.9529 18.7081 83.3236 20.5886 82.544L34.0926 77.9545C34.6401 77.7685 35.1954 77.6793 35.7535 77.6793C39.5825 77.6793 43.495 81.8871 44.9995 88.009L47.8994 99.7982C48.2264 101.127 48.3817 102.315 48.3808 103.348C48.3808 106.32 47.0929 108 44.896 108ZM19.9855 87.8546C19.9874 90.2366 21.8472 93.3599 24.0832 94.6516L41.0813 104.463C42.1994 105.109 43.191 105.434 44.007 105.434C44.6515 105.434 45.1856 105.231 45.5845 104.824C46.1215 104.275 46.3929 103.378 46.3929 102.204C46.3938 101.402 46.2673 100.468 46.0122 99.4309L43.5726 89.5126L43.1124 87.6408C42.327 84.4437 40.7773 81.9782 38.8614 80.8707C38.216 80.4986 37.5467 80.2915 36.8764 80.2522C36.7987 80.2474 36.722 80.2454 36.6443 80.2454C36.2032 80.2454 35.7631 80.3193 35.3296 80.466L29.1003 82.5824L26.6033 83.431L23.4091 84.5156L21.8397 85.0488C20.5249 85.4985 19.9844 86.5687 19.9855 87.8546Z" fill="white"/>
</mask>
<g mask="url(#mask6_144_7824)">
<path d="M44.896 108C43.8258 108 42.5389 107.601 41.0813 106.759C41.0813 106.759 33.4702 102.365 24.0832 96.9463C20.6046 94.9383 17.9189 90.4111 17.9189 86.8717C17.9189 84.9529 18.7081 83.3236 20.5886 82.544L34.0926 77.9545C34.6401 77.7685 35.1954 77.6793 35.7535 77.6793C39.5825 77.6793 43.495 81.8871 44.9995 88.009L47.8994 99.7982C48.2264 101.127 48.3817 102.315 48.3808 103.348C48.3808 106.32 47.0929 108 44.896 108ZM19.9855 87.8546C19.9874 90.2366 21.8472 93.3599 24.0832 94.6516L41.0813 104.463C42.1994 105.109 43.191 105.434 44.007 105.434C44.6515 105.434 45.1856 105.231 45.5845 104.824C46.1215 104.275 46.3929 103.378 46.3929 102.204C46.3938 101.402 46.2673 100.468 46.0122 99.4309L43.5726 89.5126L43.1124 87.6408C42.327 84.4437 40.7773 81.9782 38.8614 80.8707C38.216 80.4986 37.5467 80.2915 36.8764 80.2522C36.7987 80.2474 36.722 80.2454 36.6443 80.2454C36.2032 80.2454 35.7631 80.3193 35.3296 80.466L29.1003 82.5824L26.6033 83.431L23.4091 84.5156L21.8397 85.0488C20.5249 85.4985 19.9844 86.5687 19.9855 87.8546Z" fill="url(#paint5_linear_144_7824)"/>
</g>
<path d="M27.2004 92.0118C27.2004 94.2308 25.6431 95.1303 23.7214 94.0217C21.8001 92.9123 20.2422 90.2138 20.2422 87.9939C20.2422 85.7768 21.8001 84.8764 23.7224 85.9868C25.6431 87.0953 27.2004 89.7928 27.2004 92.0118Z" fill="#B2C6CC"/>
<path d="M23.7215 91.8822C22.8255 91.3634 22.0957 90.1004 22.0957 89.0638C22.0957 88.0282 22.8255 87.6072 23.7224 88.1241C24.6191 88.6429 25.3488 89.9067 25.3488 90.9424C25.3488 91.979 24.6191 92.399 23.7215 91.8822Z" fill="#3A565E"/>
<path d="M46.1066 101.949C46.1066 104.59 44.252 105.661 41.9639 104.341C39.6769 103.019 37.8232 99.8067 37.8232 97.1658C37.8232 94.5239 39.6769 93.4537 41.9639 94.7742C44.252 96.0956 46.1066 99.3071 46.1066 101.949Z" fill="#B2C6CC"/>
<path d="M41.9636 101.659C40.9606 101.079 40.1445 99.6653 40.1445 98.5078C40.1445 97.3494 40.9606 96.8776 41.9636 97.4568C42.9676 98.037 43.7827 99.4504 43.7827 100.608C43.7837 101.767 42.9676 102.237 41.9636 101.659Z" fill="#3A565E"/>
<path d="M42.6676 88.1135C42.6676 90.6768 40.8667 91.7162 38.6458 90.4351C36.4249 89.153 34.624 86.0336 34.624 83.4694C34.624 80.9042 36.4249 79.8647 38.6458 81.1468C40.8667 82.4299 42.6676 85.5484 42.6676 88.1135Z" fill="#B2C6CC"/>
<path d="M38.6463 87.8306C37.672 87.2677 36.8799 85.8965 36.8799 84.7697C36.8799 83.6468 37.672 83.1884 38.6463 83.7503C39.6205 84.3132 40.4126 85.6864 40.4126 86.8113C40.4126 87.9361 39.6205 88.3935 38.6463 87.8306Z" fill="#3A565E"/>
<path d="M56.1576 102.087V102.09L56.0262 102.165L46.5941 107.571V107.568C48.3058 106.562 48.8888 103.82 47.8992 99.7984L44.9994 88.0092C43.2762 80.9955 38.3923 76.4952 34.0924 77.9547L20.5888 82.5442C20.4162 82.6152 20.2543 82.6928 20.0996 82.7782L29.4512 77.4215L29.573 77.3506C29.7398 77.2557 29.9163 77.1703 30.1052 77.0907L43.6118 72.5032C47.9088 71.0417 52.7917 75.5449 54.5178 82.5576L57.4157 94.3458C58.3958 98.3312 57.8329 101.058 56.1576 102.087Z" fill="#D1E1E6"/>
<path d="M40.1926 73.6637L30.8583 79.0538H30.8554L24.1592 81.3323L33.4992 75.9392L40.1926 73.6637Z" fill="#B2C6CC"/>
<path d="M47.8283 72.8378L38.354 78.3076C37.771 78.0257 37.1735 77.8349 36.5732 77.7438L46.0332 72.2816C46.6373 72.3689 47.2376 72.5549 47.8283 72.8378Z" fill="#B2C6CC"/>
<path d="M50.5395 74.8527L41.046 80.333C40.7075 79.9724 40.3527 79.6464 39.9912 79.3549L49.477 73.8774C49.8405 74.167 50.1953 74.4931 50.5395 74.8527Z" fill="#B2C6CC"/>
<path d="M52.4179 77.3506L42.9206 82.8357C42.679 82.4291 42.4268 82.0426 42.1621 81.6811L51.6575 76.1989C51.9241 76.5604 52.1763 76.944 52.4179 77.3506Z" fill="#B2C6CC"/>
<path d="M53.7421 80.0855L44.2381 85.5715C44.0703 85.1304 43.889 84.7066 43.6963 84.2961L53.1955 78.8101C53.3911 79.2186 53.5743 79.6463 53.7421 80.0855Z" fill="#B2C6CC"/>
<path d="M54.6429 83.066L45.1331 88.5549L44.9998 88.0093C44.9317 87.7254 44.856 87.4445 44.7764 87.1702L54.2823 81.6812C54.3667 81.968 54.4453 82.2614 54.5182 82.5577L54.6429 83.066Z" fill="#B2C6CC"/>
<path d="M55.3952 86.1294L45.8892 91.6184L45.5459 90.227V90.2251L55.0528 84.738L55.3952 86.1294Z" fill="#B2C6CC"/>
<path d="M56.151 89.1945L46.6958 94.6519L46.5865 94.462L46.2998 93.293L55.8067 87.8002L56.151 89.1945Z" fill="#B2C6CC"/>
<path d="M56.9029 92.2593L47.3941 97.7493L47.0527 96.3559L56.5625 90.866L56.9029 92.2593Z" fill="#B2C6CC"/>
<path d="M57.6339 95.3391L48.125 100.827C48.0608 100.494 47.987 100.152 47.8997 99.7982L47.8086 99.4213V99.4194L57.3155 93.9304L57.4162 94.3457C57.4987 94.6861 57.5715 95.0169 57.6339 95.3391Z" fill="#B2C6CC"/>
<path d="M57.8612 98.7062L48.3408 104.202C48.3888 103.713 48.3936 103.179 48.3542 102.603L57.8679 97.1106C57.9091 97.684 57.9072 98.2181 57.8612 98.7062Z" fill="#B2C6CC"/>
<path d="M80.1687 50.6632C80.1687 47.8899 76.3292 41.0594 72.3659 38.6793C72.3659 38.6793 69.6665 40.2156 68.883 40.6941L66.6285 39.3937L66.6276 34.3028C66.0072 33.9019 65.3743 33.5145 64.7327 33.1443C58.3222 29.4438 52.8256 28.4504 50.4925 30.2062L50.4915 30.2043L25.4824 44.6842C28.1137 43.5536 33.1769 44.6813 38.9929 48.0395C47.5169 52.9618 54.427 60.8049 54.427 65.5584C54.427 66.7724 53.9754 67.6652 53.1631 68.2424L53.1641 68.2434L78.0111 53.8056C78.4647 53.6417 78.855 53.4182 79.1734 53.1315L79.183 53.1248H79.182C79.8168 52.5494 80.1687 51.7295 80.1687 50.6632Z" fill="#D1E1E6"/>
<mask id="mask7_144_7824" style="mask-type:luminance" maskUnits="userSpaceOnUse" x="25" y="29" width="56" height="34">
<path d="M53.6234 62.3459C52.4075 59.6302 49.8912 56.4964 46.6328 53.5774V53.5764L58.7307 46.5733L60.2813 48.0338L62.8331 46.5215V44.198L68.8811 40.696L67.3343 39.8013L68.883 40.694C69.6665 40.2155 72.3659 38.6793 72.3659 38.6793C76.3013 41.0431 80.115 47.794 80.1678 50.6047C80.1524 49.7838 79.8111 48.6245 79.2443 47.3404C70.6877 52.3135 62.1733 57.3575 53.6234 62.3459ZM40.8954 49.2027C40.2721 48.7999 39.6363 48.4116 38.9929 48.0395C38.9824 48.0338 38.9708 48.027 38.9603 48.0213C38.9517 48.0165 38.944 48.0117 38.9354 48.0069C37.0415 46.9166 35.2291 46.0641 33.5548 45.4494C41.9186 40.251 50.365 35.1801 59.0021 30.4507C57.6797 29.9817 56.4552 29.6758 55.3428 29.51C46.4621 34.4677 37.5535 39.3755 28.6488 44.2881C28.3976 44.2699 28.154 44.2603 27.9181 44.2594C27.9105 44.2594 27.9018 44.2594 27.8942 44.2594C27.8932 44.2594 27.8932 44.2594 27.8922 44.2594C26.9592 44.2594 26.1518 44.3994 25.4949 44.6794C25.4901 44.6813 25.4863 44.6823 25.4824 44.6842L47.0892 32.1739L48.7616 33.153L54.4021 29.3929C57.137 29.5972 60.7598 30.8505 64.7327 33.1443C65.3743 33.5145 66.0072 33.9019 66.6276 34.3027V34.3037L40.8954 49.2008V49.2027Z" fill="white"/>
</mask>
<g mask="url(#mask7_144_7824)">
<mask id="mask8_144_7824" style="mask-type:luminance" maskUnits="userSpaceOnUse" x="25" y="29" width="56" height="37">
<path d="M25.4824 65.5583H80.1688V29.3928H25.4824V65.5583Z" fill="white"/>
</mask>
<g mask="url(#mask8_144_7824)">
<path d="M54.3496 65.4606H54.4455V65.6523H54.3496V65.4606ZM53.5824 62.392V62.2961H53.4865V62.1043H53.3906V61.9125H53.2947V61.7207H53.1989V61.5289H53.103V61.3371H53.0071V61.2412H52.9112V61.0494H52.8153V60.8577H52.7194V60.6659H52.6235V60.57H52.5276V60.3782H52.4317V60.1864H52.3358V60.0905H52.2399V59.9946H52.144V59.8028H52.0481V59.7069H51.9522V59.5151H51.8563V59.4192H51.7604V59.3234H51.6646V59.1316H51.5687V59.0357H51.4728V58.8439H51.3769V58.748H51.281V58.6521H51.1851V58.4603H51.0892V58.3644H50.9933V58.2685H50.8974V58.0767H50.8015V57.9808H50.7056V57.8849H50.6097V57.7891H50.5138V57.6932H50.4179V57.5014H50.322V57.4055H50.2261V57.3096H50.1303V57.2137H50.0344V57.1178H49.9385V57.0219H49.8426V56.926H49.7467V56.7342H49.6508V56.6383H49.5549V56.5424H49.459V56.4465H49.3631V56.3506H49.2672V56.2547H49.1713V56.1589H49.0754V55.9671H48.9795V55.8712H48.8836V55.7753H48.7877V55.6794H48.6918V55.5835H48.5959V55.4876H48.5001V55.3917H48.4042V55.2958H48.3083V55.1999H48.2124V55.104H48.1165V55.0081H48.0206V54.9122H47.9247V54.8163H47.8288V54.7204H47.7329V54.6246H47.637V54.5287H47.5411V54.4328H47.4452V54.3369H47.3493V54.241H47.2534V54.1451H47.1575V54.0492H46.9658V53.9533H46.8699V53.8574H46.774V53.7615H46.6781V53.6656H46.5822V53.4738H46.774V53.3779H46.9658V53.282H47.0616V53.1861H47.2534V53.0903H47.4452V52.9944H47.637V52.8985H47.7329V52.8026H47.9247V52.7067H48.1165V52.6108H48.2124V52.5149H48.4042V52.419H48.5959V52.3231H48.7877V52.2272H48.8836V52.1313H49.0754V52.0354H49.2672V51.9395H49.459V51.8436H49.5549V51.7477H49.7467V51.6518H49.9385V51.556H50.0344V51.4601H50.2261V51.3642H50.4179V51.2683H50.6097V51.1724H50.7056V51.0765H50.8974V50.9806H51.0892V50.8847H51.281V50.7888H51.3769V50.6929H51.5687V50.597H51.7604V50.5011H51.8563V50.4052H52.0481V50.3093H52.2399V50.2134H52.4317V50.1175H52.5276V50.0217H52.7194V49.9258H52.9112V49.8299H53.103V49.734H53.1989V49.6381H53.3906V49.5422H53.5824V49.4463H53.6783V49.3504H53.8701V49.2545H54.0619V49.1586H54.2537V49.0627H54.3496V48.9668H54.5414V48.8709H54.7332V48.775H54.9249V48.6791H55.0208V48.5832H55.2126V48.4873H55.4044V48.3915H55.5003V48.2956H55.6921V48.1997H55.8839V48.1038H56.0757V48.0079H56.1716V47.912H56.3633V47.8161H56.5551V47.7202H56.7469V47.6243H56.8428V47.5284H57.0346V47.4325H57.2264V47.3366H57.3223V47.2407H57.5141V47.1448H57.7059V47.0489H57.8976V46.953H57.9935V46.8572H58.1853V46.7613H58.3771V46.6654H58.5689V46.5695H58.8566V46.6654H58.9525V46.7613H59.0484V46.8572H59.1443V46.953H59.2402V47.0489H59.4319V47.1448H59.5278V47.2407H59.6237V47.3366H59.7196V47.4325H59.8155V47.5284H59.9114V47.6243H60.0073V47.7202H60.1032V47.8161H60.1991V47.912H60.3909V47.8161H60.5827V47.7202H60.7745V47.6243H60.9663V47.5284H61.0621V47.4325H61.2539V47.3366H61.4457V47.2407H61.5416V47.1448H61.7334V47.0489H61.9252V46.953H62.0211V46.8572H62.2129V46.7613H62.4047V46.6654H62.5006V46.5695H62.6923V46.4736H62.7882V44.0762H62.98V43.9803H63.1718V43.8844H63.3636V43.7886H63.4595V43.6927H63.6513V43.5968H63.8431V43.5009H64.0349V43.405H64.1307V43.3091H64.3225V43.2132H64.5143V43.1173H64.6102V43.0214H64.802V42.9255H64.9938V42.8296H65.1856V42.7337H65.2815V42.6378H65.4733V42.5419H65.665V42.446H65.8568V42.3501H65.9527V42.2543H66.1445V42.1584H66.3363V42.0625H66.4322V41.9666H66.624V41.8707H66.8158V41.7748H67.0076V41.6789H67.1035V41.583H67.2952V41.4871H67.487V41.3912H67.6788V41.2953H67.7747V41.1994H67.9665V41.1035H68.1583V41.0076H68.2542V40.9117H68.446V40.8158H68.6378V40.7199H68.7337V40.6241H68.5419V40.5282H68.3501V40.4323H68.2542V40.3364H68.0624V40.2405H67.8706V40.1446H67.6788V40.0487H67.5829V39.9528H67.3911V39.8569H67.2952V39.761H67.487V39.8569H67.6788V39.9528H67.7747V40.0487H67.9665V40.1446H68.1583V40.2405H68.3501V40.3364H68.446V40.4323H68.6378V40.5282H68.8295V40.6241H68.9254V40.5282H69.1172V40.4323H69.309V40.3364H69.4049V40.2405H69.5967V40.1446H69.7885V40.0487H69.9803V39.9528H70.0762V39.8569H70.268V39.761H70.4597V39.6651H70.5556V39.5692H70.7474V39.4733H70.9392V39.3774H71.131V39.2815H71.2269V39.1856H71.4187V39.0898H71.6105V38.9939H71.8022V38.898H71.8981V38.8021H72.0899V38.7062H72.2817V38.6103H72.4735V38.7062H72.6653V38.8021H72.7612V38.898H72.953V38.9939H73.0489V39.0898H73.1448V39.1856H73.2407V39.2815H73.4324V39.3774H73.5283V39.4733H73.6242V39.5692H73.7201V39.6651H73.9119V39.761H74.0078V39.8569H74.1037V39.9528H74.1996V40.0487H74.2955V40.1446H74.3914V40.2405H74.4873V40.3364H74.5832V40.4323H74.6791V40.5282H74.775V40.6241H74.8709V40.7199H74.9667V40.8158H75.0626V40.9117H75.1585V41.0076H75.2544V41.1035H75.3503V41.1994H75.4462V41.3912H75.5421V41.4871H75.638V41.583H75.7339V41.6789H75.8298V41.7748H75.9257V41.9666H76.0216V42.0625H76.1175V42.1584H76.2134V42.2543H76.3093V42.446H76.4052V42.5419H76.501V42.6378H76.5969V42.7337H76.6928V42.9255H76.7887V43.0214H76.8846V43.2132H76.9805V43.3091H77.0764V43.5009H77.1723V43.5968H77.2682V43.7886H77.3641V43.8844H77.46V44.0762H77.5559V44.1721H77.6518V44.3639H77.7477V44.4598H77.8436V44.6516H77.9395V44.8434H78.0353V44.9393H78.1312V45.1311H78.2271V45.3229H78.323V45.5146H78.4189V45.6105H78.5148V45.8023H78.6107V45.9941H78.7066V46.1859H78.8025V46.3777H78.8984V46.5695H78.9943V46.7613H79.0902V46.953H79.1861V47.2407H79.282V47.3366H79.3779V47.6243H79.4738V47.8161H79.5696V48.1038H79.6655V48.3915H79.7614V48.6791H79.8573V48.9668H79.9532V49.2545H80.0491V49.6381H80.145V50.2134H80.2409V50.6929H80.145V50.3093H80.0491V49.734H79.9532V49.3504H79.8573V49.0627H79.7614V48.775H79.6655V48.4873H79.5696V48.1997H79.4738V47.912H79.3779V47.7202H79.282V47.5284H79.1861V47.4325H79.0902V47.5284H78.9943V47.6243H78.8025V47.7202H78.6107V47.8161H78.5148V47.912H78.323V48.0079H78.1312V48.1038H77.9395V48.1997H77.8436V48.2956H77.6518V48.3915H77.46V48.4873H77.3641V48.5832H77.1723V48.6791H76.9805V48.775H76.7887V48.8709H76.6928V48.9668H76.501V49.0627H76.3093V49.1586H76.2134V49.2545H76.0216V49.3504H75.8298V49.4463H75.638V49.5422H75.5421V49.6381H75.3503V49.734H75.1585V49.8299H75.0626V49.9258H74.8709V50.0217H74.6791V50.1175H74.5832V50.2134H74.3914V50.3093H74.1996V50.4052H74.0078V50.5011H73.9119V50.597H73.7201V50.6929H73.5283V50.7888H73.4324V50.8847H73.2407V50.9806H73.0489V51.0765H72.8571V51.1724H72.7612V51.2683H72.5694V51.3642H72.3776V51.4601H72.2817V51.556H72.0899V51.6518H71.8981V51.7477H71.8022V51.8436H71.6105V51.9395H71.4187V52.0354H71.2269V52.1313H71.131V52.2272H70.9392V52.3231H70.7474V52.419H70.6515V52.5149H70.4597V52.6108H70.268V52.7067H70.0762V52.8026H69.9803V52.8985H69.7885V52.9944H69.5967V53.0903H69.5008V53.1861H69.309V53.282H69.1172V53.3779H69.0213V53.4738H68.8295V53.5697H68.6378V53.6656H68.446V53.7615H68.3501V53.8574H68.1583V53.9533H67.9665V54.0492H67.8706V54.1451H67.6788V54.241H67.487V54.3369H67.2952V54.4328H67.1993V54.5287H67.0076V54.6246H66.8158V54.7204H66.7199V54.8163H66.5281V54.9122H66.3363V55.0081H66.2404V55.104H66.0486V55.1999H65.8568V55.2958H65.665V55.3917H65.5692V55.4876H65.3774V55.5835H65.1856V55.6794H65.0897V55.7753H64.8979V55.8712H64.7061V55.9671H64.5143V56.063H64.4184V56.1589H64.2266V56.2547H64.0349V56.3506H63.939V56.4465H63.7472V56.5424H63.5554V56.6383H63.4595V56.7342H63.2677V56.8301H63.0759V56.926H62.8841V57.0219H62.7882V57.1178H62.5964V57.2137H62.4047V57.3096H62.3088V57.4055H62.117V57.5014H61.9252V57.5973H61.7334V57.6932H61.6375V57.7891H61.4457V57.8849H61.2539V57.9808H61.158V58.0767H60.9663V58.1726H60.7745V58.2685H60.6786V58.3644H60.4868V58.4603H60.295V58.5562H60.1032V58.6521H60.0073V58.748H59.8155V58.8439H59.6237V58.9398H59.5278V59.0357H59.3361V59.1316H59.1443V59.2275H58.9525V59.3234H58.8566V59.4192H58.6648V59.5151H58.473V59.611H58.3771V59.7069H58.1853V59.8028H57.9935V59.8987H57.8976V59.9946H57.7059V60.0905H57.5141V60.1864H57.3223V60.2823H57.2264V60.3782H57.0346V60.4741H56.8428V60.57H56.7469V60.6659H56.5551V60.7618H56.3633V60.8577H56.2675V60.9535H56.0757V61.0494H55.8839V61.1453H55.6921V61.2412H55.5962V61.3371H55.4044V61.433H55.2126V61.5289H55.1167V61.6248H54.9249V61.7207H54.7332V61.8166H54.5414V61.9125H54.4455V62.0084H54.2537V62.1043H54.0619V62.2002H53.966V62.2961H53.7742V62.392H53.5824ZM40.7327 49.2545V49.1586H40.6368V49.0627H40.445V48.9668H40.3491V48.8709H40.1573V48.775H39.9655V48.6791H39.8696V48.5832H39.6778V48.4873H39.486V48.3915H39.3901V48.2956H39.1984V48.1997H39.1025V48.1038H38.9107V48.0079H38.7189V47.912H38.5271V47.8161H38.4312V47.7202H38.2394V47.6243H38.0476V47.5284H37.8558V47.4325H37.6641V47.3366H37.4723V47.2407H37.2805V47.1448H37.0887V47.0489H36.8969V46.953H36.7051V46.8572H36.5133V46.7613H36.3215V46.6654H36.1298V46.5695H35.938V46.4736H35.7462V46.3777H35.4585V46.2818H35.2667V46.1859H35.0749V46.09H34.7872V45.9941H34.5955V45.8982H34.4037V45.8023H34.2119V45.7064H33.9242V45.6105H33.6365V45.5146H33.5406V45.3229H33.7324V45.227H33.8283V45.1311H34.0201V45.0352H34.2119V44.9393H34.3078V44.8434H34.4996V44.7475H34.5955V44.6516H34.7872V44.5557H34.979V44.4598H35.0749V44.3639H35.2667V44.268H35.4585V44.1721H35.5544V44.0762H35.7462V43.9803H35.8421V43.8844H36.0339V43.7886H36.2256V43.6927H36.3215V43.5968H36.5133V43.5009H36.7051V43.405H36.801V43.3091H36.9928V43.2132H37.0887V43.1173H37.2805V43.0214H37.4723V42.9255H37.5682V42.8296H37.7599V42.7337H37.9517V42.6378H38.0476V42.5419H38.2394V42.446H38.3353V42.3501H38.5271V42.2543H38.7189V42.1584H38.8148V42.0625H39.0066V41.9666H39.1984V41.8707H39.2943V41.7748H39.486V41.6789H39.6778V41.583H39.7737V41.4871H39.9655V41.3912H40.0614V41.2953H40.2532V41.1994H40.445V41.1035H40.5409V41.0076H40.7327V40.9117H40.9244V40.8158H41.0203V40.7199H41.2121V40.6241H41.4039V40.5282H41.4998V40.4323H41.6916V40.3364H41.8834V40.2405H41.9793V40.1446H42.1711V40.0487H42.3629V39.9528H42.4587V39.8569H42.6505V39.761H42.8423V39.6651H42.9382V39.5692H43.13V39.4733H43.3218V39.3774H43.4177V39.2815H43.6095V39.1856H43.8013V39.0898H43.8972V38.9939H44.0889V38.898H44.2807V38.8021H44.3766V38.7062H44.5684V38.6103H44.7602V38.5144H44.8561V38.4185H45.0479V38.3226H45.2397V38.2267H45.3356V38.1308H45.5273V38.0349H45.7191V37.939H45.815V37.8431H46.0068V37.7472H46.1986V37.6513H46.2945V37.5555H46.4863V37.4596H46.6781V37.3637H46.8699V37.2678H46.9658V37.1719H47.1575V37.076H47.3493V36.9801H47.4452V36.8842H47.637V36.7883H47.8288V36.6924H48.0206V36.5965H48.1165V36.5006H48.3083V36.4047H48.5001V36.3088H48.6918V36.2129H48.7877V36.117H48.9795V36.0212H49.1713V35.9253H49.2672V35.8294H49.459V35.7335H49.6508V35.6376H49.8426V35.5417H49.9385V35.4458H50.1303V35.3499H50.322V35.254H50.4179V35.1581H50.6097V35.0622H50.8015V34.9663H50.9933V34.8704H51.0892V34.7745H51.281V34.6786H51.4728V34.5827H51.5687V34.4869H51.7604V34.391H51.9522V34.2951H52.144V34.1992H52.2399V34.1033H52.4317V34.0074H52.6235V33.9115H52.8153V33.8156H52.9112V33.7197H53.103V33.6238H53.2947V33.5279H53.4865V33.432H53.5824V33.3361H53.7742V33.2402H53.966V33.1443H54.1578V33.0484H54.2537V32.9525H54.4455V32.8567H54.6373V32.7608H54.829V32.6649H55.0208V32.569H55.1167V32.4731H55.3085V32.3772H55.5003V32.2813H55.6921V32.1854H55.788V32.0895H55.9798V31.9936H56.1716V31.8977H56.3633V31.8018H56.5551V31.7059H56.651V31.61H56.8428V31.5141H57.0346V31.4182H57.2264V31.3224H57.3223V31.2265H57.5141V31.1306H57.7059V31.0347H57.8976V30.9388H58.0894V30.8429H58.2812V30.747H58.3771V30.6511H58.5689V30.5552H58.7607V30.4593H58.6648V30.3634H58.2812V30.2675H57.9935V30.1716H57.7059V30.0757H57.3223V29.9798H57.0346V29.8839H56.651V29.7881H56.2675V29.6922H55.788V29.5963H55.2126V29.6922H55.0208V29.7881H54.9249V29.8839H54.7332V29.9798H54.5414V30.0757H54.3496V30.1716H54.2537V30.2675H54.0619V30.3634H53.8701V30.4593H53.6783V30.5552H53.4865V30.6511H53.3906V30.747H53.1989V30.8429H53.0071V30.9388H52.8153V31.0347H52.6235V31.1306H52.5276V31.2265H52.3358V31.3224H52.144V31.4182H51.9522V31.5141H51.7604V31.61H51.5687V31.7059H51.4728V31.8018H51.281V31.8977H51.0892V31.9936H50.8974V32.0895H50.7056V32.1854H50.6097V32.2813H50.4179V32.3772H50.2261V32.4731H50.0344V32.569H49.8426V32.6649H49.7467V32.7608H49.5549V32.8567H49.3631V32.9525H49.1713V33.0484H48.9795V33.1443H48.8836V33.2402H48.6918V33.3361H48.5001V33.432H48.3083V33.5279H48.1165V33.6238H48.0206V33.7197H47.8288V33.8156H47.637V33.9115H47.4452V34.0074H47.2534V34.1033H47.1575V34.1992H46.9658V34.2951H46.774V34.391H46.5822V34.4869H46.3904V34.5827H46.1986V34.6786H46.1027V34.7745H45.9109V34.8704H45.7191V34.9663H45.5273V35.0622H45.3356V35.1581H45.2397V35.254H45.0479V35.3499H44.8561V35.4458H44.6643V35.5417H44.4725V35.6376H44.3766V35.7335H44.1848V35.8294H43.993V35.9253H43.8013V36.0212H43.6095V36.117H43.5136V36.2129H43.3218V36.3088H43.13V36.4047H42.9382V36.5006H42.7464V36.5965H42.6505V36.6924H42.4587V36.7883H42.267V36.8842H42.0752V36.9801H41.8834V37.076H41.6916V37.1719H41.5957V37.2678H41.4039V37.3637H41.2121V37.4596H41.0203V37.5555H40.8286V37.6513H40.7327V37.7472H40.5409V37.8431H40.3491V37.939H40.1573V38.0349H39.9655V38.1308H39.8696V38.2267H39.6778V38.3226H39.486V38.4185H39.2943V38.5144H39.1025V38.6103H39.0066V38.7062H38.8148V38.8021H38.623V38.898H38.4312V38.9939H38.2394V39.0898H38.1435V39.1856H37.9517V39.2815H37.7599V39.3774H37.5682V39.4733H37.3764V39.5692H37.1846V39.6651H37.0887V39.761H36.8969V39.8569H36.7051V39.9528H36.5133V40.0487H36.3215V40.1446H36.2256V40.2405H36.0339V40.3364H35.8421V40.4323H35.6503V40.5282H35.4585V40.6241H35.3626V40.7199H35.1708V40.8158H34.979V40.9117H34.7872V41.0076H34.5955V41.1035H34.4996V41.1994H34.3078V41.2953H34.116V41.3912H33.9242V41.4871H33.7324V41.583H33.6365V41.6789H33.4447V41.7748H33.2529V41.8707H33.0612V41.9666H32.8694V42.0625H32.6776V42.1584H32.5817V42.2543H32.3899V42.3501H32.1981V42.446H32.0063V42.5419H31.8145V42.6378H31.7186V42.7337H31.5269V42.8296H31.3351V42.9255H31.1433V43.0214H30.9515V43.1173H30.8556V43.2132H30.6638V43.3091H30.472V43.405H30.2802V43.5009H30.0884V43.5968H29.9926V43.6927H29.8008V43.7886H29.609V43.8844H29.4172V43.9803H29.2254V44.0762H29.0336V44.1721H28.9377V44.268H28.7459V44.3639H28.1706V44.268H27.4993V44.3639H26.6363V44.4598H26.2527V44.5557H25.8691V44.6516H25.5814V44.7475H25.3896V44.6516H25.4855V44.5557H25.6773V44.4598H25.8691V44.3639H25.965V44.268H26.1568V44.1721H26.3486V44.0762H26.4445V43.9803H26.6363V43.8844H26.8281V43.7886H27.0198V43.6927H27.1157V43.5968H27.3075V43.5009H27.4993V43.405H27.6911V43.3091H27.787V43.2132H27.9788V43.1173H28.1706V43.0214H28.2665V42.9255H28.4583V42.8296H28.65V42.7337H28.8418V42.6378H28.9377V42.5419H29.1295V42.446H29.3213V42.3501H29.5131V42.2543H29.609V42.1584H29.8008V42.0625H29.9926V41.9666H30.0884V41.8707H30.2802V41.7748H30.472V41.6789H30.6638V41.583H30.7597V41.4871H30.9515V41.3912H31.1433V41.2953H31.3351V41.1994H31.431V41.1035H31.6227V41.0076H31.8145V40.9117H31.9104V40.8158H32.1022V40.7199H32.294V40.6241H32.4858V40.5282H32.5817V40.4323H32.7735V40.3364H32.9653V40.2405H33.157V40.1446H33.2529V40.0487H33.4447V39.9528H33.6365V39.8569H33.7324V39.761H33.9242V39.6651H34.116V39.5692H34.3078V39.4733H34.4037V39.3774H34.5955V39.2815H34.7872V39.1856H34.979V39.0898H35.0749V38.9939H35.2667V38.898H35.4585V38.8021H35.5544V38.7062H35.7462V38.6103H35.938V38.5144H36.1298V38.4185H36.2256V38.3226H36.4174V38.2267H36.6092V38.1308H36.801V38.0349H36.8969V37.939H37.0887V37.8431H37.2805V37.7472H37.3764V37.6513H37.5682V37.5555H37.7599V37.4596H37.9517V37.3637H38.0476V37.2678H38.2394V37.1719H38.4312V37.076H38.623V36.9801H38.7189V36.8842H38.9107V36.7883H39.1025V36.6924H39.1984V36.5965H39.3901V36.5006H39.5819V36.4047H39.7737V36.3088H39.8696V36.2129H40.0614V36.117H40.2532V36.0212H40.445V35.9253H40.5409V35.8294H40.7327V35.7335H40.9244V35.6376H41.0203V35.5417H41.2121V35.4458H41.4039V35.3499H41.5957V35.254H41.6916V35.1581H41.8834V35.0622H42.0752V34.9663H42.267V34.8704H42.3629V34.7745H42.5546V34.6786H42.7464V34.5827H42.8423V34.4869H43.0341V34.391H43.2259V34.2951H43.4177V34.1992H43.5136V34.1033H43.7054V34.0074H43.8972V33.9115H44.0889V33.8156H44.1848V33.7197H44.3766V33.6238H44.5684V33.5279H44.6643V33.432H44.8561V33.3361H45.0479V33.2402H45.2397V33.1443H45.3356V33.0484H45.5273V32.9525H45.7191V32.8567H45.815V32.7608H46.0068V32.6649H46.1986V32.569H46.3904V32.4731H46.4863V32.3772H46.6781V32.2813H46.8699V32.1854H47.0616V32.0895H47.1575V32.1854H47.3493V32.2813H47.4452V32.3772H47.637V32.4731H47.8288V32.569H48.0206V32.6649H48.1165V32.7608H48.3083V32.8567H48.5001V32.9525H48.5959V33.0484H48.8836V32.9525H48.9795V32.8567H49.1713V32.7608H49.2672V32.6649H49.459V32.569H49.5549V32.4731H49.7467V32.3772H49.8426V32.2813H50.0344V32.1854H50.1303V32.0895H50.322V31.9936H50.4179V31.8977H50.6097V31.8018H50.7056V31.7059H50.8974V31.61H50.9933V31.5141H51.1851V31.4182H51.281V31.3224H51.4728V31.2265H51.5687V31.1306H51.7604V31.0347H51.8563V30.9388H52.0481V30.8429H52.144V30.747H52.3358V30.6511H52.4317V30.5552H52.6235V30.4593H52.7194V30.3634H52.9112V30.2675H53.0071V30.1716H53.1989V30.0757H53.2947V29.9798H53.4865V29.8839H53.5824V29.7881H53.7742V29.6922H53.8701V29.5963H54.0619V29.5004H54.1578V29.4045H54.3496V29.3086H54.6373V29.4045H55.4044V29.5004H55.8839V29.5963H56.3633V29.6922H56.8428V29.7881H57.2264V29.8839H57.5141V29.9798H57.8018V30.0757H58.1853V30.1716H58.473V30.2675H58.7607V30.3634H59.0484V30.4593H59.3361V30.5552H59.5278V30.6511H59.8155V30.747H60.0073V30.8429H60.1991V30.9388H60.4868V31.0347H60.6786V31.1306H60.9663V31.2265H61.158V31.3224H61.3498V31.4182H61.6375V31.5141H61.8293V31.61H62.0211V31.7059H62.2129V31.8018H62.4047V31.8977H62.5964V31.9936H62.7882V32.0895H62.98V32.1854H63.1718V32.2813H63.3636V32.3772H63.5554V32.4731H63.7472V32.569H63.939V32.6649H64.1307V32.7608H64.3225V32.8567H64.4184V32.9525H64.6102V33.0484H64.802V33.1443H64.9938V33.2402H65.0897V33.3361H65.2815V33.432H65.3774V33.5279H65.5692V33.6238H65.7609V33.7197H65.8568V33.8156H66.0486V33.9115H66.2404V34.0074H66.3363V34.1033H66.5281V34.1992H66.624V34.2951H66.7199V34.391H66.5281V34.4869H66.3363V34.5827H66.2404V34.6786H66.0486V34.7745H65.8568V34.8704H65.665V34.9663H65.5692V35.0622H65.3774V35.1581H65.1856V35.254H64.9938V35.3499H64.8979V35.4458H64.7061V35.5417H64.5143V35.6376H64.3225V35.7335H64.2266V35.8294H64.0349V35.9253H63.8431V36.0212H63.7472V36.117H63.5554V36.2129H63.3636V36.3088H63.1718V36.4047H63.0759V36.5006H62.8841V36.5965H62.6923V36.6924H62.5006V36.7883H62.4047V36.8842H62.2129V36.9801H62.0211V37.076H61.9252V37.1719H61.7334V37.2678H61.5416V37.3637H61.3498V37.4596H61.2539V37.5555H61.0621V37.6513H60.8704V37.7472H60.7745V37.8431H60.5827V37.939H60.3909V38.0349H60.1991V38.1308H60.1032V38.2267H59.9114V38.3226H59.7196V38.4185H59.5278V38.5144H59.4319V38.6103H59.2402V38.7062H59.0484V38.8021H58.9525V38.898H58.7607V38.9939H58.5689V39.0898H58.3771V39.1856H58.2812V39.2815H58.0894V39.3774H57.8976V39.4733H57.7059V39.5692H57.61V39.6651H57.4182V39.761H57.2264V39.8569H57.1305V39.9528H56.9387V40.0487H56.7469V40.1446H56.5551V40.2405H56.4592V40.3364H56.2675V40.4323H56.0757V40.5282H55.8839V40.6241H55.788V40.7199H55.5962V40.8158H55.4044V40.9117H55.2126V41.0076H55.1167V41.1035H54.9249V41.1994H54.7332V41.2953H54.6373V41.3912H54.4455V41.4871H54.2537V41.583H54.0619V41.6789H53.966V41.7748H53.7742V41.8707H53.5824V41.9666H53.3906V42.0625H53.2947V42.1584H53.103V42.2543H52.9112V42.3501H52.8153V42.446H52.6235V42.5419H52.4317V42.6378H52.2399V42.7337H52.144V42.8296H51.9522V42.9255H51.7604V43.0214H51.5687V43.1173H51.4728V43.2132H51.281V43.3091H51.0892V43.405H50.9933V43.5009H50.8015V43.5968H50.6097V43.6927H50.4179V43.7886H50.322V43.8844H50.1303V43.9803H49.9385V44.0762H49.7467V44.1721H49.6508V44.268H49.459V44.3639H49.2672V44.4598H49.1713V44.5557H48.9795V44.6516H48.7877V44.7475H48.5959V44.8434H48.5001V44.9393H48.3083V45.0352H48.1165V45.1311H47.9247V45.227H47.8288V45.3229H47.637V45.4187H47.4452V45.5146H47.3493V45.6105H47.1575V45.7064H46.9658V45.8023H46.774V45.8982H46.6781V45.9941H46.4863V46.09H46.2945V46.1859H46.1027V46.2818H46.0068V46.3777H45.815V46.4736H45.6232V46.5695H45.5273V46.6654H45.3356V46.7613H45.1438V46.8572H44.952V46.953H44.8561V47.0489H44.6643V47.1448H44.4725V47.2407H44.2807V47.3366H44.1848V47.4325H43.993V47.5284H43.8013V47.6243H43.7054V47.7202H43.5136V47.8161H43.3218V47.912H43.13V48.0079H43.0341V48.1038H42.8423V48.1997H42.6505V48.2956H42.4587V48.3915H42.3629V48.4873H42.1711V48.5832H41.9793V48.6791H41.8834V48.775H41.6916V48.8709H41.4998V48.9668H41.308V49.0627H41.2121V49.1586H41.0203V49.2545" fill="url(#paint6_linear_144_7824)"/>
</g>
</g>
<path d="M28.6309 44.2981C30.0558 44.3997 31.7167 44.7804 33.5502 45.4526C41.916 40.2523 50.3633 35.1814 59.0023 30.451C57.68 29.9821 56.4554 29.6762 55.343 29.5103C46.4566 34.4718 37.5423 39.3826 28.6309 44.2981Z" fill="white"/>
<path d="M79.2443 47.3405C70.6858 52.3154 62.1675 57.3614 53.6157 62.3507C54.1345 63.5111 54.427 64.5994 54.427 65.5584C54.427 66.7724 53.9753 67.6652 53.1631 68.2424L53.164 68.2434L78.0111 53.8056C78.4647 53.6417 78.855 53.4182 79.1733 53.1315L79.1829 53.1248H79.1819C79.8168 52.5494 80.1687 51.7295 80.1687 50.6632C80.1687 49.8404 79.8244 48.6561 79.2443 47.3405Z" fill="#AAC7D4"/>
<path d="M24.7178 45.1272H24.7197L24.7282 45.1205L24.7178 45.1272Z" fill="#544B4D"/>
<path d="M54.4268 65.5583C54.4268 60.8048 47.5167 52.9617 38.9927 48.0394C33.1767 44.6812 28.1135 43.5535 25.4822 44.6841C25.2031 44.804 24.9509 44.9497 24.7285 45.1204L24.7198 45.1271C23.9728 45.7063 23.5566 46.5751 23.5566 47.7354C23.5566 52.4908 30.4677 60.334 38.9927 65.2562C45.3418 68.9213 50.7924 69.9291 53.1629 68.2423C53.9751 67.6651 54.4268 66.7723 54.4268 65.5583Z" fill="#B2C6CC"/>
<mask id="mask9_144_7824" style="mask-type:luminance" maskUnits="userSpaceOnUse" x="25" y="44" width="30" height="26">
<path d="M50.0909 69.0354C47.2851 69.0354 43.3505 67.7715 38.9931 65.2562C39.3767 65.4777 39.7564 65.6877 40.1333 65.8901C41.5056 63.7037 41.8949 60.941 40.9522 57.8733C40.0767 55.0253 38.4868 52.393 36.3541 50.3045C35.8929 49.8518 35.3923 49.381 34.8592 48.915C33.7899 47.5264 32.5337 46.3431 31.1864 45.5318C31.1308 45.4983 31.0742 45.4647 31.0176 45.4321C29.8564 44.7599 28.7593 44.4396 27.786 44.4396C27.2759 44.4396 26.7993 44.5269 26.3668 44.6985C26.3208 44.618 26.2882 44.5297 26.268 44.4377C25.9938 44.5029 25.731 44.5786 25.4951 44.6793C26.152 44.3993 26.9604 44.2593 27.8944 44.2593C30.7002 44.2593 34.6348 45.5232 38.9931 48.0395C39.6366 48.4115 40.2724 48.7999 40.8957 49.2026V54.2927L40.9695 54.3339L46.633 57.6039V53.5773C51.2886 57.7477 54.4272 62.3545 54.4272 65.5583C54.4272 66.7723 53.9756 67.6651 53.1634 68.2424C52.4192 68.7717 51.373 69.0354 50.0909 69.0354Z" fill="white"/>
</mask>
<g mask="url(#mask9_144_7824)">
<path d="M50.0909 69.0354C47.2851 69.0354 43.3505 67.7715 38.9931 65.2562C39.3767 65.4777 39.7564 65.6877 40.1333 65.8901C41.5056 63.7037 41.8949 60.941 40.9522 57.8733C40.0767 55.0253 38.4868 52.393 36.3541 50.3045C35.8929 49.8518 35.3923 49.381 34.8592 48.915C33.7899 47.5264 32.5337 46.3431 31.1864 45.5318C31.1308 45.4983 31.0742 45.4647 31.0176 45.4321C29.8564 44.7599 28.7593 44.4396 27.786 44.4396C27.2759 44.4396 26.7993 44.5269 26.3668 44.6985C26.3208 44.618 26.2882 44.5297 26.268 44.4377C25.9938 44.5029 25.731 44.5786 25.4951 44.6793C26.152 44.3993 26.9604 44.2593 27.8944 44.2593C30.7002 44.2593 34.6348 45.5232 38.9931 48.0395C39.6366 48.4115 40.2724 48.7999 40.8957 49.2026V54.2927L40.9695 54.3339L46.633 57.6039V53.5773C51.2886 57.7477 54.4272 62.3545 54.4272 65.5583C54.4272 66.7723 53.9756 67.6651 53.1634 68.2424C52.4192 68.7717 51.373 69.0354 50.0909 69.0354Z" fill="url(#paint7_linear_144_7824)"/>
</g>
<path d="M40.9834 66.3303C46.4647 69.0987 51.0446 69.7498 53.1629 68.2424C53.9751 67.6651 54.4268 66.7723 54.4268 65.5583C54.4268 64.7969 54.2321 63.9492 53.8993 63.0545C49.5841 64.1036 45.2794 65.1997 40.9834 66.3303Z" fill="#869EA6"/>
<path d="M40.1328 65.8904C41.5051 63.704 41.8944 60.9413 40.9518 57.8736C40.0763 55.0256 38.4863 52.3933 36.3537 50.3048C33.9659 47.964 30.5233 45.1159 27.0357 45.0766C26.5888 45.0709 26.3404 44.7765 26.2676 44.438C25.9885 44.5041 25.7219 44.5818 25.4822 44.6844C25.2031 44.8043 24.9509 44.95 24.7285 45.1207L24.7198 45.1275C23.9728 45.7066 23.5566 46.5754 23.5566 47.7358C23.5566 52.4911 30.4677 60.3343 38.9927 65.2565C39.3762 65.4781 39.756 65.688 40.1328 65.8904Z" fill="#869EA6"/>
<path d="M66.6683 39.4151L66.629 39.4803L44.8688 52.0769L40.9697 54.3343L46.6332 57.6042V53.5767L58.7312 46.5736L60.2818 48.034L62.8335 46.5218V44.1983L68.8815 40.6962L66.6683 39.4151Z" fill="#BFD5DB"/>
<path d="M66.6286 39.3937V34.3027L40.8955 49.2008V54.2928L40.9693 54.334L44.8684 52.0766L66.6286 39.48L66.6679 39.4148L66.6286 39.3937Z" fill="#869EA6"/>
<mask id="mask10_144_7824" style="mask-type:luminance" maskUnits="userSpaceOnUse" x="40" y="34" width="27" height="21">
<path d="M40.9693 54.334L40.8955 54.2928V49.2008L66.6286 34.3027V39.3937L66.6679 39.4148L66.6286 39.48L44.8684 52.0766L40.9693 54.334Z" fill="white"/>
</mask>
<g mask="url(#mask10_144_7824)">
<path d="M40.9693 54.334L40.8955 54.2928V49.2008L66.6286 34.3027V39.3937L66.6679 39.4148L66.6286 39.48L44.8684 52.0766L40.9693 54.334Z" fill="url(#paint8_linear_144_7824)"/>
</g>
<path d="M55.1629 38.6341C49.3479 35.2768 44.2837 34.1481 41.6514 35.2768C41.3743 35.4005 37.5107 37.7039 37.5107 37.7039L37.574 37.6742C38.2021 37.4028 38.9779 37.2628 39.8659 37.2542C42.6775 37.212 46.6619 38.4768 51.0855 41.0276C51.7327 41.4006 52.3685 41.7918 52.9947 42.1946L57.099 39.8174C56.4642 39.4089 55.8197 39.0128 55.1629 38.6341Z" fill="#B2C6CC"/>
<path d="M62.8335 44.1981V46.5216L60.2818 48.0339L60.2568 48.0099C64.0552 51.7718 66.5206 55.7101 66.5206 58.5496C66.5206 58.9466 66.4727 59.3062 66.3777 59.6303C66.1869 60.3083 65.8024 60.8414 65.2539 61.2327L68.8461 59.1249L69.3313 58.8382C70.1454 58.26 70.598 57.3653 70.598 56.1513C70.598 52.9551 67.4719 48.3608 62.8335 44.1981Z" fill="#96AAB5"/>
<path d="M57.0984 39.8195V42.3952L52.9932 44.7715V42.1967L57.0984 39.8195Z" fill="#B2C6CC"/>
<path d="M67.9415 12.8303L67.9396 12.8322C45.1399 0.187668 16.9049 14.7041 42.4884 29.4784C42.569 29.5417 42.6601 29.5973 42.7665 29.6424L42.7655 29.6434L48.7618 33.1531L73.9713 16.3457L67.9415 12.8303Z" fill="#D1E1E6"/>
<mask id="mask11_144_7824" style="mask-type:luminance" maskUnits="userSpaceOnUse" x="32" y="8" width="42" height="26">
<path d="M48.7619 33.1531L44.4132 30.6081L42.7657 29.6434L42.7667 29.6424C42.6602 29.5973 42.5691 29.5417 42.4886 29.4784C41.9036 29.1409 41.3465 28.8033 40.8171 28.4658C39.6041 27.6929 38.5339 26.9219 37.6009 26.1576C33.9329 23.1562 32.3564 20.2515 32.3555 17.6768C32.3516 12.0449 39.887 8.00012 49.5483 8.00012C55.3057 8.00012 61.8198 9.43759 67.9397 12.8322L67.9417 12.8303L73.9715 16.3457L58.2976 26.7963L54.9835 29.0057L48.7619 33.1531Z" fill="white"/>
</mask>
<g mask="url(#mask11_144_7824)">
<path d="M48.7619 33.1531L44.4132 30.6081L42.7657 29.6434L42.7667 29.6424C42.6602 29.5973 42.5691 29.5417 42.4886 29.4784C41.9036 29.1409 41.3465 28.8033 40.8171 28.4658C39.6041 27.6929 38.5339 26.9219 37.6009 26.1576C33.9329 23.1562 32.3564 20.2515 32.3555 17.6768C32.3516 12.0449 39.887 8.00012 49.5483 8.00012C55.3057 8.00012 61.8198 9.43759 67.9397 12.8322L67.9417 12.8303L73.9715 16.3457L58.2976 26.7963L54.9835 29.0057L48.7619 33.1531Z" fill="url(#paint9_linear_144_7824)"/>
</g>
<path d="M38.6258 11.2402C33.7419 13.8897 32.9028 18.4993 36.1987 22.6113C38.9825 26.0836 48.5076 31.0067 49.0216 31.3596L53.5258 27.9036C52.6953 27.6888 43.4521 23.2835 40.5417 20.0144C37.5575 16.662 38.1051 14.1074 38.6258 11.2402Z" fill="white"/>
<path d="M74.3803 17.1524C74.3803 19.4692 68.5212 24.729 61.2937 28.9013C54.0662 33.0727 48.208 34.5792 48.208 32.2643C48.208 29.9465 54.0662 24.6877 61.2937 20.5154C68.5212 16.343 74.3803 14.8375 74.3803 17.1524Z" fill="#869EA6"/>
<path d="M50.6104 31.3596C51.9519 29.5137 56.0034 25.7853 62.2538 22.1768C66.5968 19.6692 70.0787 18.3622 71.9774 18.0563C70.6368 19.9042 66.5843 23.6306 60.3349 27.2381C55.991 29.7467 52.509 31.0547 50.6104 31.3596Z" fill="white"/>
<path d="M66.836 68.7086V70.4001L64.9757 71.4559L64.0254 72.0054V70.4001L66.836 68.7086Z" fill="#3A565E"/>
<path d="M60.8333 62.5599L66.8353 68.7086L64.0247 70.4001L57.9277 64.3981L60.8333 62.5599Z" fill="#D1E1E6"/>
<path d="M66.4554 72.7028V74.3407L63.6553 76.3267V74.6265L66.4554 72.7028Z" fill="#3A565E"/>
<path d="M66.4545 72.7026L63.6544 74.6262L57.1777 70.03L59.1637 68.8256L64.0246 72.0054L64.9749 71.456L66.4545 72.7026Z" fill="#547078"/>
<path d="M54.0511 63.87L54.262 61.9685L57.928 64.3984L64.025 70.4004V72.0057L59.1641 68.8258L57.463 67.7164L57.1782 70.0303L63.6548 74.6265V76.3267L56.5443 73.073L53.3223 70.4004L53.5754 68.1603L53.7125 66.9243L53.9139 65.1061L54.0511 63.87Z" fill="#B2C6CC"/>
<path d="M60.8333 62.5599L57.9277 64.3982L54.2617 61.9683L57.1779 60.0235L60.8333 62.5599Z" fill="white"/>
<path d="M59.1637 68.8259L57.1777 70.0303L57.4625 67.7164L59.1637 68.8259Z" fill="#3A565E"/>
<path d="M54.0511 63.8696L53.9139 65.1057C53.5332 65.3598 52.698 65.9093 51.9165 66.406C51.251 66.8279 50.6171 67.2192 50.3745 67.3458C49.7502 67.6843 49.1164 66.733 49.8778 66.3207C50.0254 66.2363 50.6171 65.8987 51.3143 65.4864C52.3288 64.8842 53.5754 64.1448 54.0511 63.8696Z" fill="#869EA6"/>
<path d="M53.7122 66.9238L53.575 68.1599C53.4801 68.2222 53.343 68.3076 53.1943 68.4025C52.6976 68.7516 51.9794 69.2157 51.568 69.4593C50.8699 69.8601 50.5429 68.836 51.008 68.5924C51.24 68.4658 51.9899 68.0007 52.6669 67.5788C53.0889 67.3141 53.4907 67.061 53.7122 66.9238Z" fill="#869EA6"/>
<path d="M53.2053 68.4133L53.3223 68.5926L51.2721 70.0828L49.0215 66.2048L51.0084 64.9793L51.3143 65.476V65.4866C50.6172 65.8989 50.0255 66.2365 49.8778 66.3209C49.1164 66.7332 49.7503 67.6845 50.3746 67.346C50.6172 67.2194 51.251 66.8281 51.9165 66.4062L52.6674 67.579C51.9904 68.0009 51.2405 68.466 51.0084 68.5926C50.5433 68.8361 50.8703 69.8603 51.5684 69.4595C51.9798 69.2159 52.6981 68.7518 53.1948 68.4027L53.2053 68.4133Z" fill="#3A565E"/>
<path d="M49.0213 66.2047L51.2719 70.0826L48.4085 71.9947L44.7847 74.4045C44.4884 72.5231 43.3789 70.5256 41.9424 69.2157L49.0213 66.2047Z" fill="#B2C6CC"/>
<path d="M51.0082 64.9792L49.0213 66.2048L41.9424 69.2158L45.4924 67.1244L51.0082 64.9792Z" fill="white"/>
<path d="M48.4087 71.9948C48.5142 72.4809 48.5775 72.9662 48.5775 73.4313C48.5775 74.8054 48.0606 75.7461 47.2254 76.1259L43.7598 77.9536C44.4464 77.5106 44.8693 76.6226 44.8693 75.3865C44.8693 75.0691 44.8376 74.7316 44.7849 74.4046L48.4087 71.9948Z" fill="#547078"/>
<path d="M45.4926 67.1244L41.9426 69.2158H41.9321C41.583 68.8994 41.2138 68.6242 40.8331 68.4026C40.4841 68.2022 40.1465 68.0651 39.8301 67.9798L39.8617 67.8426L42.1114 66.4483L41.8688 66.0782C42.5765 65.7512 43.5172 65.8557 44.5423 66.4483C44.8693 66.6382 45.1867 66.8597 45.4926 67.1244Z" fill="#D1E1E6"/>
<path d="M44.785 74.405C44.8378 74.732 44.8694 75.0695 44.8694 75.3869C44.8694 76.623 44.4465 77.511 43.7599 77.954C43.0311 78.4191 41.9849 78.3769 40.8332 77.7114C38.6143 76.4331 36.8076 73.3051 36.8076 70.7274C36.8076 70.1358 36.9035 69.6285 37.0828 69.2162C37.5374 68.0856 38.5625 67.6099 39.8302 67.9801C40.1466 68.0654 40.4842 68.2026 40.8332 68.403C41.2139 68.6245 41.5831 68.8997 41.9322 69.2162H41.9427C43.3792 70.5261 44.4887 72.5235 44.785 74.405Z" fill="#869EA6"/>
<path d="M41.8686 66.0783L42.1112 66.4485L39.8616 67.8428L39.4598 67.346L33.9766 60.7428L37.2197 58.915L37.9907 60.0984L41.8686 66.0783Z" fill="white"/>
<path d="M39.4597 67.3459L39.8606 67.8426L39.8299 67.9798C38.5612 67.6096 37.5371 68.0852 37.0825 69.2158H37.072L32.3809 64.5141C33.966 63.046 33.9765 60.7427 33.9765 60.7427L39.4597 67.3459Z" fill="#B2C6CC"/>
<path d="M38.2658 57.9745C38.2658 58.7675 38.1709 59.4752 37.9906 60.0985L37.2196 58.9142L33.9765 60.7429C33.9765 60.7429 33.9659 63.0463 32.3808 64.5144L31.0498 65.1809C32.2648 64.3879 33.0147 62.8037 33.0147 60.5847C33.0147 55.9674 29.7715 50.3471 25.7766 48.0322C23.9383 46.9764 22.2587 46.7961 20.9912 47.3667L25.767 45H25.7766C27.098 44.1552 28.9574 44.2396 31.0172 45.4325C35.0217 47.7368 38.2658 53.3572 38.2658 57.9745Z" fill="#D1E1E6"/>
<path d="M29.028 44.6095C27.2761 45.4869 25.5193 46.3557 23.7529 47.1996C24.3954 47.3549 25.0744 47.6282 25.7773 48.0319C25.9585 48.1374 26.1369 48.2563 26.3152 48.3743C28.1266 47.5477 29.9381 46.7201 31.7514 45.8983C31.5107 45.7305 31.2662 45.5751 31.0178 45.4322C30.3274 45.0324 29.6609 44.7677 29.028 44.6095Z" fill="white"/>
<path d="M32.3923 56.841C32.7903 58.1049 33.0147 59.3784 33.0147 60.5847C33.0147 62.8037 32.2648 64.3879 31.0498 65.1809L32.3808 64.5144C33.9659 63.0463 33.9765 60.7429 33.9765 60.7429L37.2196 58.9142L37.9906 60.0985C38.1709 59.4752 38.2658 58.7675 38.2658 57.9745C38.2658 56.77 38.0232 55.4995 37.6252 54.2356C35.8838 55.1082 34.1385 55.9761 32.3923 56.841Z" fill="#AAC7D4"/>
<path d="M25.7774 48.0321C29.7724 50.347 33.0155 55.9673 33.0155 60.5846C33.0155 62.8036 32.2656 64.3878 31.0506 65.1808L31.018 65.1914C29.6976 66.0362 27.8382 65.9518 25.7774 64.757C21.7734 62.4546 18.5303 56.8333 18.5303 52.2169C18.5303 49.7227 19.481 48.0216 20.9921 47.3666C22.2596 46.7961 23.9392 46.9764 25.7774 48.0321Z" fill="#869EA6"/>
<mask id="mask12_144_7824" style="mask-type:luminance" maskUnits="userSpaceOnUse" x="18" y="47" width="16" height="19">
<path d="M29.011 65.7512C28.0377 65.7512 26.9397 65.4309 25.7774 64.7568C21.7734 62.4544 18.5303 56.8331 18.5303 52.2168C18.5303 49.7226 19.481 48.0214 20.9921 47.3665C21.4595 47.1565 21.9828 47.0481 22.5496 47.0481C23.5201 47.0481 24.6171 47.3655 25.7774 48.032C29.7724 50.3468 33.0155 55.9672 33.0155 60.5845C33.0155 62.8034 32.2656 64.3876 31.0506 65.1807L31.018 65.1912C30.996 65.2046 30.9739 65.219 30.9519 65.2324C30.3899 65.5738 29.735 65.7512 29.011 65.7512Z" fill="white"/>
</mask>
<g mask="url(#mask12_144_7824)">
<path d="M29.011 65.7512C28.0377 65.7512 26.9397 65.4309 25.7774 64.7568C21.7734 62.4544 18.5303 56.8331 18.5303 52.2168C18.5303 49.7226 19.481 48.0214 20.9921 47.3665C21.4595 47.1565 21.9828 47.0481 22.5496 47.0481C23.5201 47.0481 24.6171 47.3655 25.7774 48.032C29.7724 50.3468 33.0155 55.9672 33.0155 60.5845C33.0155 62.8034 32.2656 64.3876 31.0506 65.1807L31.018 65.1912C30.996 65.2046 30.9739 65.219 30.9519 65.2324C30.3899 65.5738 29.735 65.7512 29.011 65.7512Z" fill="url(#paint10_linear_144_7824)"/>
</g>
<path d="M43.2751 74.7104C43.2751 75.492 43.021 76.0625 42.6086 76.3579H42.5981C41.5317 77.1087 40.0837 76.168 39.3866 75.5131C39.5026 75.5974 39.6187 75.6818 39.7347 75.7461C40.7176 76.3166 41.5097 75.8506 41.5097 74.721C41.5097 73.5904 40.7176 72.2057 39.7347 71.6361C38.7527 71.0751 37.9491 71.5296 37.9491 72.6717C37.9491 72.9249 37.9913 73.178 38.0661 73.4417C37.6432 72.0264 37.7804 70.516 38.7105 69.956C39.1967 69.6597 39.8728 69.6913 40.6227 70.1248C42.0803 70.9696 43.2751 73.0198 43.2751 74.7104Z" fill="#B2C6CC"/>
<path d="M41.5088 74.7214C41.5088 75.8511 40.7167 76.3171 39.7338 75.7465C39.6178 75.6823 39.5017 75.5979 39.3857 75.5135L39.3435 75.4713C38.7624 74.9966 38.2868 74.2458 38.0758 73.4949L38.0652 73.4422C37.9904 73.1785 37.9482 72.9253 37.9482 72.6722C37.9482 71.5301 38.7518 71.0755 39.7338 71.6365C40.7167 72.2061 41.5088 73.5908 41.5088 74.7214Z" fill="#D1E1E6"/>
<path d="M56.3654 67.8323C56.3654 68.1391 56.2599 68.3501 56.1017 68.4662C55.6883 68.7519 55.1293 68.4029 54.8656 68.1391L54.9912 68.2331C55.3719 68.4556 55.6788 68.2763 55.6788 67.8428C55.6788 67.3989 55.3719 66.8705 54.9912 66.649C54.6115 66.4265 54.3046 66.6068 54.3046 67.0402L54.3151 67.1879C54.1991 66.6806 54.273 66.1954 54.6009 65.994C54.7908 65.877 55.0449 65.8991 55.3402 66.0573C55.9003 66.3843 56.3654 67.1773 56.3654 67.8323Z" fill="#869EA6"/>
<path d="M54.9913 66.6487C55.372 66.8702 55.6788 67.3986 55.6788 67.8426C55.6788 68.276 55.372 68.4553 54.9913 68.2328L54.8657 68.1388L54.8436 68.1283C54.6221 67.9375 54.4428 67.6623 54.3584 67.3669L54.3152 67.1876L54.3047 67.0399C54.3047 66.6065 54.6115 66.4262 54.9913 66.6487Z" fill="#D1E1E6"/>
<path d="M25.3869 51.1286C28.0172 52.6389 30.1518 56.3375 30.1518 59.3802C30.1518 60.7736 29.6973 61.7891 28.9474 62.328C27.0247 63.6696 24.404 61.979 23.1471 60.7851C23.3587 60.9539 23.5697 61.113 23.7912 61.2396C25.5556 62.2532 26.9825 61.4295 26.9825 59.3908C26.9825 57.3511 25.5556 54.879 23.7912 53.8539C22.0271 52.8403 20.5905 53.664 20.5905 55.7037C20.5905 56.0623 20.6329 56.443 20.7277 56.8237C20.0511 54.3611 20.3362 51.8046 21.9635 50.8217C22.8299 50.2933 24.0453 50.347 25.3869 51.1286Z" fill="#B2C6CC"/>
<path d="M20.7384 56.8858L20.7279 56.8235C20.6332 56.4428 20.5908 56.0621 20.5908 55.7035C20.5908 53.6638 22.0274 52.8401 23.7915 53.8537C25.5559 54.8788 26.9828 57.3509 26.9828 59.3906C26.9828 61.4293 25.5559 62.253 23.7915 61.2394C23.57 61.1128 23.359 60.9536 23.1473 60.7849L23.0946 60.7427C21.9746 59.8135 21.0763 58.3233 20.7384 56.8858Z" fill="#D1E1E6"/>
<path d="M20.7909 55.8749L20.7924 55.8375C20.7827 55.6083 20.8033 55.3849 20.8456 55.1778C21.0861 54.006 22.0087 53.701 22.9035 54.4931C23.7965 55.29 24.3249 56.8789 24.0842 58.0508C23.8445 59.2226 22.9271 59.5285 22.0326 58.7374C21.9202 58.6386 21.8173 58.5226 21.7157 58.3998L21.6907 58.3691C21.1565 57.7036 20.8164 56.7409 20.7909 55.8749Z" fill="white"/>
</g>
<defs>
<filter id="filter0_d_144_7824" x="0.818945" y="0.900244" width="115.364" height="134.2" filterUnits="userSpaceOnUse" color-interpolation-filters="sRGB">
<feFlood flood-opacity="0" result="BackgroundImageFix"/>
<feColorMatrix in="SourceAlpha" type="matrix" values="0 0 0 0 0 0 0 0 0 0 0 0 0 0 0 0 0 0 127 0" result="hardAlpha"/>
<feOffset dy="10"/>
<feGaussianBlur stdDeviation="8.55"/>
<feComposite in2="hardAlpha" operator="out"/>
<feColorMatrix type="matrix" values="0 0 0 0 0.705882 0 0 0 0 0.929412 0 0 0 0 1 0 0 0 0.33 0"/>
<feBlend mode="normal" in2="BackgroundImageFix" result="effect1_dropShadow_144_7824"/>
<feBlend mode="normal" in="SourceGraphic" in2="effect1_dropShadow_144_7824" result="shape"/>
</filter>
<linearGradient id="paint0_linear_144_7824" x1="53.2381" y1="36.7507" x2="70.5126" y2="36.7507" gradientUnits="userSpaceOnUse">
<stop stop-color="#B2B6CB"/>
<stop offset="1" stop-color="#B2C6CC"/>
</linearGradient>
<linearGradient id="paint1_linear_144_7824" x1="41.0214" y1="24.5966" x2="34.3088" y2="39.3006" gradientUnits="userSpaceOnUse">
<stop stop-color="#A0A8BC"/>
<stop offset="1" stop-color="#A0B6BD"/>
</linearGradient>
<linearGradient id="paint2_linear_144_7824" x1="43.5061" y1="28.0401" x2="39.8304" y2="36.3507" gradientUnits="userSpaceOnUse">
<stop stop-color="#8692A5"/>
<stop offset="1" stop-color="#869EA6"/>
</linearGradient>
<linearGradient id="paint3_linear_144_7824" x1="61.8488" y1="100.261" x2="70.6395" y2="58.068" gradientUnits="userSpaceOnUse">
<stop stop-color="#A09BB9"/>
<stop offset="1" stop-color="#547078"/>
</linearGradient>
<linearGradient id="paint4_linear_144_7824" x1="52.7967" y1="67.433" x2="71.0166" y2="85.0137" gradientUnits="userSpaceOnUse">
<stop stop-color="#8692A5"/>
<stop offset="1" stop-color="#869EA6"/>
</linearGradient>
<linearGradient id="paint5_linear_144_7824" x1="24.5512" y1="116.867" x2="41.1724" y2="75.1534" gradientUnits="userSpaceOnUse">
<stop stop-color="#A09BB9"/>
<stop offset="1" stop-color="#547078"/>
</linearGradient>
<linearGradient id="paint6_linear_144_7824" x1="39.323" y1="24.8486" x2="58.0223" y2="54.895" gradientUnits="userSpaceOnUse">
<stop stop-color="#D1CFE5"/>
<stop offset="1" stop-color="#D1E1E6"/>
</linearGradient>
<linearGradient id="paint7_linear_144_7824" x1="38.1512" y1="48.2351" x2="40.2292" y2="69.0124" gradientUnits="userSpaceOnUse">
<stop stop-color="#B2B6CB"/>
<stop offset="1" stop-color="#B2C6CC"/>
</linearGradient>
<linearGradient id="paint8_linear_144_7824" x1="56.4428" y1="51.3354" x2="52.607" y2="41.2665" gradientUnits="userSpaceOnUse">
<stop stop-color="#BCBBD1"/>
<stop offset="1" stop-color="#869EA6"/>
</linearGradient>
<linearGradient id="paint9_linear_144_7824" x1="32.3555" y1="20.5776" x2="73.971" y2="20.5776" gradientUnits="userSpaceOnUse">
<stop stop-color="#D1CFE5"/>
<stop offset="1" stop-color="#D1E1E6"/>
</linearGradient>
<linearGradient id="paint10_linear_144_7824" x1="29.2555" y1="73.6212" x2="24.9401" y2="52.2839" gradientUnits="userSpaceOnUse">
<stop stop-color="#BCBBD1"/>
<stop offset="1" stop-color="#869EA6"/>
</linearGradient>
</defs>
</svg>
