<svg width="101" height="100" viewBox="0 0 101 100" fill="none" xmlns="http://www.w3.org/2000/svg">
<g clip-path="url(#clip0_146_10840)">
<path d="M1.69048 79.4644C2.34796 79.4644 2.88095 78.9315 2.88095 78.274C2.88095 77.6165 2.34796 77.0835 1.69048 77.0835C1.03299 77.0835 0.5 77.6165 0.5 78.274C0.5 78.9315 1.03299 79.4644 1.69048 79.4644Z" fill="#3A576A"/>
<path d="M7.04748 77.0835H5.26177C4.94603 77.0835 4.64323 77.2089 4.41997 77.4322C4.19671 77.6554 4.07129 77.9582 4.07129 78.274C4.07129 78.5897 4.19671 78.8925 4.41997 79.1158C4.64323 79.339 4.94603 79.4644 5.26177 79.4644H7.04748C7.36321 79.4644 7.66602 79.339 7.88927 79.1158C8.11253 78.8925 8.23796 78.5897 8.23796 78.274C8.23796 77.9582 8.11253 77.6554 7.88927 77.4322C7.66602 77.2089 7.36321 77.0835 7.04748 77.0835Z" fill="#3A576A"/>
<path d="M70.8301 81.8452H65.885C65.5858 81.8692 65.3065 82.005 65.1029 82.2256C64.8992 82.4462 64.7861 82.7355 64.7861 83.0357C64.7861 83.3359 64.8992 83.6251 65.1029 83.8458C65.3065 84.0664 65.5858 84.2022 65.885 84.2262H70.8301C71.1294 84.2022 71.4087 84.0664 71.6123 83.8458C71.8159 83.6251 71.929 83.3359 71.929 83.0357C71.929 82.7355 71.8159 82.4462 71.6123 82.2256C71.4087 82.005 71.1294 81.8692 70.8301 81.8452Z" fill="#B4EDFF"/>
<path d="M35.1153 81.8452H30.1702C29.8709 81.8692 29.5917 82.005 29.388 82.2256C29.1844 82.4462 29.0713 82.7355 29.0713 83.0357C29.0713 83.3359 29.1844 83.6251 29.388 83.8458C29.5917 84.0664 29.8709 84.2022 30.1702 84.2262H35.1153C35.4145 84.2022 35.6938 84.0664 35.8975 83.8458C36.1011 83.6251 36.2142 83.3359 36.2142 83.0357C36.2142 82.7355 36.1011 82.4462 35.8975 82.2256C35.6938 82.005 35.4145 81.8692 35.1153 81.8452Z" fill="#B4EDFF"/>
<path d="M62.4043 81.8452H38.5948C38.279 81.8452 37.9762 81.9706 37.753 82.1939C37.5297 82.4172 37.4043 82.72 37.4043 83.0357C37.4043 83.3514 37.5297 83.6542 37.753 83.8775C37.9762 84.1007 38.279 84.2262 38.5948 84.2262H48.0829V85.4166H43.3567C43.0409 85.4166 42.7381 85.5421 42.5149 85.7653C42.2916 85.9886 42.1662 86.2914 42.1662 86.6071C42.1662 86.9229 42.2916 87.2257 42.5149 87.4489C42.7381 87.6722 43.0409 87.7976 43.3567 87.7976H58.2376C58.5534 87.7976 58.8562 87.6722 59.0794 87.4489C59.3027 87.2257 59.4281 86.9229 59.4281 86.6071C59.4281 86.2914 59.3027 85.9886 59.0794 85.7653C58.8562 85.5421 58.5534 85.4166 58.2376 85.4166H52.9162V84.2262H62.4043C62.72 84.2262 63.0228 84.1007 63.2461 83.8775C63.4693 83.6542 63.5948 83.3514 63.5948 83.0357C63.5948 82.72 63.4693 82.4172 63.2461 82.1939C63.0228 81.9706 62.72 81.8452 62.4043 81.8452Z" fill="#B4EDFF"/>
<path d="M95.7379 77.0835H93.9522C93.6365 77.0835 93.3337 77.2089 93.1104 77.4322C92.8871 77.6554 92.7617 77.9582 92.7617 78.274C92.7617 78.5897 92.8871 78.8925 93.1104 79.1158C93.3337 79.339 93.6365 79.4644 93.9522 79.4644H95.7379C96.0536 79.4644 96.3564 79.339 96.5797 79.1158C96.803 78.8925 96.9284 78.5897 96.9284 78.274C96.9284 77.9582 96.803 77.6554 96.5797 77.4322C96.3564 77.2089 96.0536 77.0835 95.7379 77.0835Z" fill="#3A576A"/>
<path d="M99.3096 79.4644C99.9671 79.4644 100.5 78.9315 100.5 78.274C100.5 77.6165 99.9671 77.0835 99.3096 77.0835C98.6521 77.0835 98.1191 77.6165 98.1191 78.274C98.1191 78.9315 98.6521 79.4644 99.3096 79.4644Z" fill="#3A576A"/>
<path d="M88.5951 61.0118C88.5952 61.1681 88.5644 61.3229 88.5046 61.4674C88.4448 61.6118 88.3571 61.7431 88.2466 61.8537C88.136 61.9642 88.0047 62.0519 87.8603 62.1117C87.7158 62.1715 87.561 62.2023 87.4047 62.2022H77.8809V59.8213H87.4047C87.7201 59.8222 88.0224 59.9479 88.2454 60.171C88.4685 60.394 88.5942 60.6963 88.5951 61.0118Z" fill="#B4EDFF"/>
<path d="M88.5951 56.25C88.5952 56.4064 88.5644 56.5612 88.5046 56.7057C88.4448 56.8501 88.3571 56.9814 88.2466 57.0919C88.136 57.2025 88.0047 57.2902 87.8603 57.35C87.7158 57.4098 87.561 57.4406 87.4047 57.4405H77.8809V55.0596H87.4047C87.7201 55.0605 88.0224 55.1862 88.2454 55.4093C88.4685 55.6323 88.5942 55.9346 88.5951 56.25Z" fill="#B4EDFF"/>
<path d="M90.2145 77.0832H56.1252C56.409 76.8185 56.65 76.5112 56.8395 76.1724C57.5352 76.6502 58.3707 76.8816 59.213 76.8299C60.0554 76.7781 60.8563 76.4461 61.4883 75.8867C62.0617 75.3808 62.4633 74.7088 62.6371 73.9641C63.2391 74.2064 63.8988 74.2679 64.5352 74.141C65.1717 74.0142 65.7573 73.7045 66.2204 73.2498C66.8979 72.6524 67.3304 71.8256 67.4347 70.9284L69.9407 70.357C70.1671 70.7664 70.4978 71.1088 70.8992 71.3492C71.3006 71.5896 71.7585 71.7196 72.2264 71.726H75.2026C75.8235 71.7125 76.421 71.4864 76.8954 71.0857C77.3699 70.6849 77.6926 70.1336 77.8097 69.5236L87.1133 71.857C87.2082 71.8831 87.3065 71.8951 87.4049 71.8927C87.6949 71.8934 87.9752 71.788 88.1928 71.5963C88.4104 71.4046 88.5503 71.1399 88.5862 70.8521C88.6221 70.5644 88.5514 70.2734 88.3875 70.0342C88.2237 69.7949 87.9779 69.6239 87.6966 69.5534L77.8811 67.0831V50.1784L87.6966 47.7141C88.0029 47.6367 88.2659 47.4409 88.4277 47.1696C88.5896 46.8984 88.6371 46.5739 88.5597 46.2677C88.4823 45.9614 88.2865 45.6984 88.0152 45.5366C87.744 45.3747 87.4195 45.3272 87.1133 45.4046L77.3335 47.8629C77.0955 47.5164 76.7777 47.2323 76.4068 47.0344C76.0359 46.8365 75.6229 46.7307 75.2026 46.726H72.2264C71.7341 46.7342 71.2537 46.8787 70.8386 47.1435C70.4235 47.4083 70.09 47.783 69.8752 48.226C65.7085 47.5355 60.8216 45.1367 60.7502 45.101C57.8692 43.732 56.0299 43.0415 55.9526 43.0117C55.8847 42.9883 55.815 42.9704 55.7442 42.9582C49.6847 41.8808 47.4466 43.2915 46.9407 43.7082L40.4228 48.5117H32.5954C32.5111 47.8671 32.2 47.2735 31.718 46.8372C31.2359 46.401 30.6143 46.1505 29.9645 46.1308H26.9883C26.4177 46.1448 25.8664 46.3398 25.4139 46.6875C24.9613 47.0352 24.631 47.5176 24.4704 48.0653L13.8871 45.4046C13.5808 45.3272 13.2564 45.3747 12.9851 45.5366C12.7139 45.6984 12.518 45.9614 12.4407 46.2677C12.3633 46.5739 12.4108 46.8984 12.5726 47.1696C12.7345 47.4409 12.9975 47.6367 13.3037 47.7141L24.3097 50.482V66.7855L13.3037 69.5534C13.0225 69.6239 12.7767 69.7949 12.6128 70.0342C12.4489 70.2734 12.3783 70.5644 12.4141 70.8521C12.45 71.1399 12.59 71.4046 12.8076 71.5963C13.0252 71.788 13.3054 71.8934 13.5954 71.8927C13.6939 71.8951 13.7921 71.8831 13.8871 71.857L24.4704 69.2022C24.6312 69.7492 24.9619 70.2308 25.4145 70.5775C25.8671 70.9242 26.4183 71.118 26.9883 71.1308H29.9645C30.6214 71.11 31.249 70.854 31.733 70.4093C32.217 69.9647 32.5251 69.361 32.6014 68.7082H33.1133L43.7918 77.0832H10.7859C10.6165 77.0609 10.4442 77.075 10.2807 77.1247C10.1172 77.1743 9.96611 77.2583 9.83764 77.371C9.70917 77.4837 9.60623 77.6225 9.53571 77.7781C9.46519 77.9338 9.42871 78.1027 9.42871 78.2736C9.42871 78.4445 9.46519 78.6134 9.53571 78.7691C9.60623 78.9248 9.70917 79.0636 9.83764 79.1763C9.96611 79.289 10.1172 79.3729 10.2807 79.4226C10.4442 79.4722 10.6165 79.4864 10.7859 79.4641H90.2145C90.3839 79.4864 90.5561 79.4722 90.7197 79.4226C90.8832 79.3729 91.0342 79.289 91.1627 79.1763C91.2912 79.0636 91.3941 78.9248 91.4646 78.7691C91.5352 78.6134 91.5716 78.4445 91.5716 78.2736C91.5716 78.1027 91.5352 77.9338 91.4646 77.7781C91.3941 77.6225 91.2912 77.4837 91.1627 77.371C91.0342 77.2583 90.8832 77.1743 90.7197 77.1247C90.5561 77.075 90.3839 77.0609 90.2145 77.0832ZM71.9287 49.5534C71.9287 49.2974 72.0835 49.107 72.2264 49.107H75.2026C75.3454 49.107 75.5002 49.2974 75.5002 49.5534V68.9046C75.5002 69.1605 75.3454 69.3451 75.2026 69.3451H72.2264C72.0835 69.3451 71.9287 69.1605 71.9287 68.9046V49.5534ZM30.2621 68.2677C30.2621 68.5653 30.0835 68.7498 29.9645 68.7498H26.9883C26.8692 68.7498 26.6907 68.5653 26.6907 68.2677V48.9998C26.6907 48.7022 26.8692 48.5117 26.9883 48.5117H29.9645C30.0835 48.5117 30.2621 48.7022 30.2621 48.9998V68.2677ZM39.5478 52.107C39.5895 52.0831 39.6311 52.0593 39.6668 52.0355L48.3871 45.601C48.4038 45.5902 48.418 45.576 48.4287 45.5593C48.4466 45.5474 50.0776 44.3867 55.2204 45.2796C55.6311 45.4403 60.3573 47.5593 61.2204 47.9403C61.2323 49.0058 60.9883 51.5117 58.5478 52.1189C58.2654 52.1884 58.0182 52.359 57.853 52.5984C57.6878 52.8378 57.616 53.1294 57.6512 53.4181C57.6864 53.7068 57.8261 53.9727 58.0439 54.1654C58.2618 54.3581 58.5427 54.4644 58.8335 54.4641C58.9296 54.466 59.0256 54.456 59.1192 54.4343C62.2383 53.6605 63.3216 51.0117 63.5537 48.8867C65.4925 49.6423 67.4999 50.2084 69.5478 50.5772V68.0058L66.8395 68.6248L52.0537 51.8034L50.3692 50.0593C50.1617 49.8459 49.8823 49.7173 49.5852 49.6986C49.2881 49.6799 48.9947 49.7724 48.7621 49.9581C46.7204 51.6129 44.1133 53.4998 43.4823 53.6784C42.6371 53.8927 40.1847 54.1903 39.0359 53.0058C39.018 52.9879 38.8811 52.7974 38.893 52.7022C38.9049 52.6189 39.0537 52.3927 39.5478 52.107ZM54.4823 75.3689C54.2103 75.61 53.8544 75.7346 53.4914 75.7157C53.1283 75.6967 52.7873 75.5358 52.5418 75.2677L51.2561 73.857C51.1748 73.7719 51.0828 73.6979 50.9823 73.6367L45.4764 68.1843C45.3655 68.0741 45.2339 67.9868 45.0892 67.9275C44.9445 67.8682 44.7895 67.838 44.6332 67.8386C44.4768 67.8393 44.3221 67.8708 44.1779 67.9313C44.0337 67.9918 43.9029 68.0802 43.7929 68.1914C43.6829 68.3025 43.5959 68.4343 43.5369 68.5791C43.4779 68.7239 43.4481 68.879 43.4491 69.0353C43.4501 69.1917 43.482 69.3464 43.5428 69.4904C43.6037 69.6345 43.6923 69.7651 43.8037 69.8748L49.3157 75.3391C49.3395 75.3629 49.3633 75.3748 49.3871 75.3986C49.4552 75.6366 49.455 75.8889 49.3866 76.1268C49.3182 76.3646 49.1843 76.5785 49.0002 76.7439C48.8282 76.9266 48.5996 77.0461 48.3514 77.0832H48.2145C47.7341 77.0242 47.2822 76.8232 46.9168 76.5058L34.2621 66.5832C34.0539 66.4177 33.7959 66.3275 33.5299 66.3272H32.643V50.8927H37.268C36.8652 51.3061 36.6064 51.8384 36.5299 52.4105C36.4946 52.8287 36.5503 53.2495 36.6931 53.6441C36.836 54.0386 37.0625 54.3976 37.3573 54.6962C39.6668 57.0831 43.893 56.0296 44.0657 55.9879C45.1787 55.7141 47.7561 53.7855 49.4049 52.4939L65.0418 70.1843C65.0733 70.3027 65.0873 70.425 65.0835 70.5474C65.0746 70.7241 65.0305 70.8973 64.9539 71.0567C64.8772 71.2162 64.7695 71.3587 64.6371 71.476C64.2978 71.7796 63.8692 72.1605 62.5359 71.232L62.2145 70.9701C62.1734 70.8865 62.1191 70.8101 62.0537 70.7439L56.9645 65.2796C56.749 65.0483 56.4504 64.9121 56.1345 64.9009C55.8186 64.8898 55.5112 65.0046 55.2799 65.2201C55.0487 65.4355 54.9125 65.7341 54.9013 66.05C54.8901 66.3659 55.0049 66.6733 55.2204 66.9046L59.7502 71.7617C59.7988 71.9292 59.8842 72.0838 60.0002 72.2141C60.1202 72.3444 60.213 72.4973 60.2733 72.6639C60.3336 72.8305 60.3602 73.0074 60.3514 73.1843C60.3424 73.3602 60.2983 73.5324 60.2216 73.6909C60.1449 73.8494 60.0373 73.9908 59.9049 74.107C59.6343 74.3502 59.2785 74.4766 58.9151 74.4588C58.5517 74.441 58.21 74.2803 57.9645 74.0117L57.143 73.107C57.0947 73.0107 57.0348 72.9207 56.9645 72.8391L51.4466 66.9581C51.2308 66.729 50.933 66.5948 50.6184 66.5848C50.3038 66.5748 49.998 66.6899 49.7681 66.9049C49.5382 67.1198 49.4028 67.4171 49.3917 67.7317C49.3805 68.0463 49.4944 68.3524 49.7085 68.5832L54.8811 74.101C54.9303 74.3288 54.9193 74.5654 54.8494 74.7877C54.7795 75.01 54.653 75.2102 54.4823 75.3689Z" fill="#3A576A"/>
<path d="M24.3091 55.0596V57.4405H13.5948C13.279 57.4405 12.9762 57.3151 12.753 57.0918C12.5297 56.8686 12.4043 56.5658 12.4043 56.25C12.4043 55.9343 12.5297 55.6315 12.753 55.4083C12.9762 55.185 13.279 55.0596 13.5948 55.0596H24.3091Z" fill="#B4EDFF"/>
<path d="M24.3091 59.8213V62.2022H13.5948C13.279 62.2022 12.9762 62.0768 12.753 61.8536C12.5297 61.6303 12.4043 61.3275 12.4043 61.0118C12.4043 60.696 12.5297 60.3932 12.753 60.17C12.9762 59.9467 13.279 59.8213 13.5948 59.8213H24.3091Z" fill="#B4EDFF"/>
<path d="M4.07185 24.7023C4.42503 24.7023 4.77028 24.5976 5.06394 24.4013C5.3576 24.2051 5.58648 23.9262 5.72163 23.5999C5.85679 23.2736 5.89215 22.9146 5.82325 22.5682C5.75435 22.2218 5.58427 21.9036 5.33454 21.6539C5.0848 21.4041 4.76662 21.2341 4.42022 21.1652C4.07383 21.0963 3.71478 21.1316 3.38848 21.2668C3.06219 21.4019 2.7833 21.6308 2.58708 21.9245C2.39086 22.2181 2.28613 22.5634 2.28613 22.9166C2.28667 23.39 2.47499 23.8439 2.80975 24.1787C3.14452 24.5134 3.59841 24.7017 4.07185 24.7023ZM4.07185 22.0237C4.24844 22.0237 4.42106 22.0761 4.56789 22.1742C4.71472 22.2723 4.82916 22.4117 4.89674 22.5749C4.96432 22.738 4.982 22.9176 4.94755 23.0908C4.9131 23.264 4.82806 23.4231 4.70319 23.5479C4.57832 23.6728 4.41923 23.7578 4.24603 23.7923C4.07284 23.8267 3.89331 23.809 3.73017 23.7415C3.56702 23.6739 3.42757 23.5594 3.32946 23.4126C3.23136 23.2658 3.17899 23.0932 3.17899 22.9166C3.17922 22.6798 3.27337 22.4529 3.44076 22.2855C3.60815 22.1181 3.83512 22.024 4.07185 22.0237Z" fill="#3A576A"/>
<path d="M94.7295 46.7261C94.4941 46.7261 94.2639 46.7959 94.0681 46.9267C93.8724 47.0575 93.7198 47.2434 93.6297 47.461C93.5396 47.6785 93.516 47.9179 93.5619 48.1488C93.6079 48.3797 93.7213 48.5919 93.8877 48.7583C94.0542 48.9248 94.2664 49.0382 94.4973 49.0842C94.7282 49.1301 94.9676 49.1065 95.1851 49.0164C95.4026 48.9263 95.5886 48.7737 95.7194 48.5779C95.8502 48.3822 95.92 48.152 95.92 47.9166C95.9196 47.6009 95.7941 47.2983 95.5709 47.0752C95.3478 46.852 95.0452 46.7264 94.7295 46.7261ZM94.7295 48.5118C94.6118 48.5118 94.4967 48.4769 94.3988 48.4115C94.301 48.3461 94.2247 48.2531 94.1796 48.1443C94.1346 48.0356 94.1228 47.9159 94.1457 47.8004C94.1687 47.685 94.2254 47.5789 94.3086 47.4957C94.3919 47.4124 94.4979 47.3557 94.6134 47.3328C94.7289 47.3098 94.8486 47.3216 94.9573 47.3666C95.0661 47.4117 95.1591 47.488 95.2245 47.5859C95.2899 47.6837 95.3248 47.7988 95.3248 47.9166C95.3246 48.0744 95.2619 48.2257 95.1503 48.3373C95.0387 48.4489 94.8874 48.5116 94.7295 48.5118Z" fill="#3A576A"/>
<path d="M61.2149 39.5532C60.9794 39.5532 60.7493 39.623 60.5535 39.7539C60.3577 39.8847 60.2051 40.0706 60.115 40.2881C60.0249 40.5057 60.0014 40.745 60.0473 40.9759C60.0932 41.2069 60.2066 41.419 60.3731 41.5855C60.5396 41.752 60.7517 41.8654 60.9826 41.9113C61.2136 41.9572 61.4529 41.9337 61.6705 41.8436C61.888 41.7534 62.0739 41.6009 62.2047 41.4051C62.3355 41.2093 62.4054 40.9792 62.4054 40.7437C62.405 40.4281 62.2795 40.1255 62.0563 39.9023C61.8331 39.6791 61.5305 39.5536 61.2149 39.5532ZM61.2149 41.3389C61.0972 41.3389 60.9821 41.304 60.8842 41.2386C60.7863 41.1732 60.71 41.0803 60.665 40.9715C60.6199 40.8627 60.6081 40.743 60.6311 40.6276C60.6541 40.5121 60.7107 40.406 60.794 40.3228C60.8772 40.2396 60.9833 40.1829 61.0988 40.1599C61.2142 40.1369 61.3339 40.1487 61.4427 40.1938C61.5514 40.2388 61.6444 40.3151 61.7098 40.413C61.7752 40.5109 61.8101 40.626 61.8101 40.7437C61.81 40.9015 61.7472 41.0528 61.6356 41.1644C61.524 41.276 61.3727 41.3388 61.2149 41.3389Z" fill="#3A576A"/>
<path d="M80.8575 12.2021C80.622 12.2021 80.3918 12.272 80.1961 12.4028C80.0003 12.5336 79.8477 12.7195 79.7576 12.937C79.6675 13.1546 79.6439 13.3939 79.6899 13.6249C79.7358 13.8558 79.8492 14.0679 80.0157 14.2344C80.1822 14.4009 80.3943 14.5143 80.6252 14.5602C80.8561 14.6062 81.0955 14.5826 81.313 14.4925C81.5306 14.4024 81.7165 14.2498 81.8473 14.054C81.9781 13.8582 82.0479 13.6281 82.0479 13.3926C82.0476 13.077 81.922 12.7744 81.6989 12.5512C81.4757 12.3281 81.1731 12.2025 80.8575 12.2021ZM80.8575 13.9879C80.7397 13.9879 80.6247 13.953 80.5268 13.8875C80.4289 13.8221 80.3526 13.7292 80.3075 13.6204C80.2625 13.5116 80.2507 13.392 80.2737 13.2765C80.2966 13.161 80.3533 13.055 80.4366 12.9717C80.5198 12.8885 80.6259 12.8318 80.7413 12.8088C80.8568 12.7859 80.9765 12.7976 81.0853 12.8427C81.194 12.8877 81.287 12.964 81.3524 13.0619C81.4178 13.1598 81.4527 13.2749 81.4527 13.3926C81.4525 13.5504 81.3898 13.7018 81.2782 13.8133C81.1666 13.9249 81.0153 13.9877 80.8575 13.9879Z" fill="#3A576A"/>
<path d="M27.881 31.5137C27.881 31.2783 27.8111 31.0481 27.6803 30.8523C27.5495 30.6566 27.3636 30.504 27.1461 30.4139C26.9285 30.3238 26.6892 30.3002 26.4582 30.3461C26.2273 30.3921 26.0152 30.5054 25.8487 30.6719C25.6822 30.8384 25.5688 31.0505 25.5229 31.2815C25.4769 31.5124 25.5005 31.7518 25.5906 31.9693C25.6807 32.1868 25.8333 32.3728 26.0291 32.5036C26.2249 32.6344 26.455 32.7042 26.6905 32.7042C27.0061 32.7038 27.3087 32.5783 27.5319 32.3551C27.7551 32.1319 27.8806 31.8293 27.881 31.5137ZM26.0952 31.5137C26.0952 31.396 26.1301 31.2809 26.1956 31.183C26.261 31.0851 26.3539 31.0088 26.4627 30.9638C26.5715 30.9187 26.6911 30.907 26.8066 30.9299C26.9221 30.9529 27.0281 31.0096 27.1114 31.0928C27.1946 31.1761 27.2513 31.2821 27.2743 31.3976C27.2972 31.5131 27.2855 31.6327 27.2404 31.7415C27.1954 31.8503 27.1191 31.9432 27.0212 32.0086C26.9233 32.074 26.8082 32.109 26.6905 32.109C26.5327 32.1088 26.3813 32.046 26.2698 31.9344C26.1582 31.8228 26.0954 31.6715 26.0952 31.5137Z" fill="#3A576A"/>
<path d="M6.98067 46.7328L7.86579 45.5691L7.30686 45.2524L6.73841 46.556H6.71996L6.14258 45.2614L5.57413 45.5876L6.44972 46.7239V46.7423L5.08008 46.5655V47.1989L6.45865 47.0221V47.0405L5.57413 48.1762L6.10448 48.512L6.71044 47.1989H6.72889L7.28782 48.5024L7.87472 48.1673L6.98067 47.0495V47.031L8.38663 47.1989V46.5655L6.98067 46.7512V46.7328Z" fill="#B4EDFF"/>
<path d="M51.9692 17.0898L51.4597 17.744L51.7657 17.9374L52.1145 17.1809H52.1252L52.4466 17.9321L52.7847 17.7386L52.2698 17.0952V17.0845L53.0794 17.1809V16.816L52.2698 16.9237V16.913L52.7794 16.2422L52.4579 16.0601L52.1305 16.8107H52.1198L51.7871 16.0654L51.4597 16.2529L51.9645 16.9077V16.9184L51.1758 16.816V17.1809L51.9692 17.0791V17.0898Z" fill="#B4EDFF"/>
<path d="M98.5505 24.6062V23.9854L97.1713 24.1675V24.1496L98.0398 23.008L97.4915 22.6973L96.9344 23.9758H96.9154L96.3499 22.7062L95.7915 23.0258L96.6511 24.1407V24.1586L95.3076 23.9854V24.6062L96.66 24.433V24.4514L95.7915 25.5651L96.3124 25.8943L96.907 24.6062H96.9243L97.4725 25.8854L98.0487 25.5562L97.1713 24.4604V24.4419L98.5505 24.6062Z" fill="#B4EDFF"/>
<path d="M79.4886 27.8676L80.2374 26.8831L79.7648 26.6152L79.2838 27.7182H79.2678L78.7797 26.623L78.2987 26.8986L79.0398 27.8599V27.8759L77.8809 27.7259V28.2617L79.0475 28.1123V28.1277L78.2987 29.089L78.7475 29.373L79.26 28.2617H79.2755L79.7487 29.3652L80.2451 29.0813L79.4886 28.1355V28.12L80.6785 28.2617V27.7259L79.4886 27.8837V27.8676Z" fill="#B4EDFF"/>
</g>
<defs>
<clipPath id="clip0_146_10840">
<rect width="100" height="100" fill="white" transform="translate(0.5)"/>
</clipPath>
</defs>
</svg>
