<svg width="101" height="100" viewBox="0 0 101 100" fill="none" xmlns="http://www.w3.org/2000/svg">
<g clip-path="url(#clip0_146_11021)">
<path d="M69.5482 35.8631V32.2917C69.5482 31.0288 69.0465 29.8175 68.1535 28.9245C67.2605 28.0315 66.0493 27.5298 64.7863 27.5298C63.5234 27.5298 62.3122 28.0315 61.4191 28.9245C60.5261 29.8175 60.0244 31.0288 60.0244 32.2917V35.8631C60.0244 37.1261 60.5261 38.3373 61.4191 39.2303C62.3122 40.1233 63.5234 40.625 64.7863 40.625C66.0493 40.625 67.2605 40.1233 68.1535 39.2303C69.0465 38.3373 69.5482 37.1261 69.5482 35.8631ZM62.4054 35.8631V32.2917C62.4054 31.6602 62.6562 31.0546 63.1027 30.6081C63.5492 30.1616 64.1549 29.9107 64.7863 29.9107C65.4178 29.9107 66.0234 30.1616 66.4699 30.6081C66.9164 31.0546 67.1673 31.6602 67.1673 32.2917V35.8631C67.1673 36.4946 66.9164 37.1002 66.4699 37.5467C66.0234 37.9932 65.4178 38.2441 64.7863 38.2441C64.1549 38.2441 63.5492 37.9932 63.1027 37.5467C62.6562 37.1002 62.4054 36.4946 62.4054 35.8631Z" fill="#B4EDFF"/>
<path d="M36.215 27.5298C34.9525 27.5312 33.7422 28.0334 32.8494 28.9261C31.9567 29.8188 31.4546 31.0292 31.4531 32.2917V35.8631C31.4531 37.1261 31.9548 38.3373 32.8479 39.2303C33.7409 40.1233 34.9521 40.625 36.215 40.625C37.478 40.625 38.6892 40.1233 39.5822 39.2303C40.4752 38.3373 40.9769 37.1261 40.9769 35.8631V32.2917C40.9755 31.0292 40.4733 29.8188 39.5806 28.9261C38.6879 28.0334 37.4775 27.5312 36.215 27.5298ZM38.596 35.8631C38.596 36.4946 38.3451 37.1002 37.8986 37.5467C37.4521 37.9932 36.8465 38.2441 36.215 38.2441C35.5836 38.2441 34.978 37.9932 34.5314 37.5467C34.0849 37.1002 33.8341 36.4946 33.8341 35.8631V32.2917C33.8341 31.6602 34.0849 31.0546 34.5314 30.6081C34.978 30.1616 35.5836 29.9107 36.215 29.9107C36.8465 29.9107 37.4521 30.1616 37.8986 30.6081C38.3451 31.0546 38.596 31.6602 38.596 32.2917V35.8631Z" fill="#B4EDFF"/>
<path d="M50.5002 44.1966C51.7627 44.1951 52.973 43.6929 53.8658 42.8002C54.7585 41.9075 55.2606 40.6971 55.2621 39.4347V35.8632C55.2621 34.6003 54.7604 33.3891 53.8674 32.496C52.9743 31.603 51.7631 31.1013 50.5002 31.1013C49.2373 31.1013 48.026 31.603 47.133 32.496C46.24 33.3891 45.7383 34.6003 45.7383 35.8632V39.4347C45.7397 40.6971 46.2419 41.9075 47.1346 42.8002C48.0273 43.6929 49.2377 44.1951 50.5002 44.1966ZM48.1192 35.8632C48.1192 35.2318 48.3701 34.6262 48.8166 34.1796C49.2631 33.7331 49.8687 33.4823 50.5002 33.4823C51.1317 33.4823 51.7373 33.7331 52.1838 34.1796C52.6303 34.6262 52.8811 35.2318 52.8811 35.8632V39.4347C52.8811 40.0661 52.6303 40.6717 52.1838 41.1182C51.7373 41.5648 51.1317 41.8156 50.5002 41.8156C49.8687 41.8156 49.2631 41.5648 48.8166 41.1182C48.3701 40.6717 48.1192 40.0661 48.1192 39.4347V35.8632Z" fill="#B4EDFF"/>
<path d="M79.0715 44.1966C80.334 44.1951 81.5443 43.6929 82.4371 42.8002C83.3298 41.9075 83.8319 40.6971 83.8334 39.4347V35.8632C83.8334 34.6003 83.3317 33.3891 82.4387 32.496C81.5456 31.603 80.3344 31.1013 79.0715 31.1013C77.8085 31.1013 76.5973 31.603 75.7043 32.496C74.8113 33.3891 74.3096 34.6003 74.3096 35.8632V39.4347C74.311 40.6971 74.8132 41.9075 75.7059 42.8002C76.5986 43.6929 77.809 44.1951 79.0715 44.1966ZM76.6905 35.8632C76.6905 35.2318 76.9414 34.6262 77.3879 34.1796C77.8344 33.7331 78.44 33.4823 79.0715 33.4823C79.7029 33.4823 80.3085 33.7331 80.7551 34.1796C81.2016 34.6262 81.4524 35.2318 81.4524 35.8632V39.4347C81.4524 40.0661 81.2016 40.6717 80.7551 41.1182C80.3085 41.5648 79.7029 41.8156 79.0715 41.8156C78.44 41.8156 77.8344 41.5648 77.3879 41.1182C76.9414 40.6717 76.6905 40.0661 76.6905 39.4347V35.8632Z" fill="#B4EDFF"/>
<path d="M21.9289 44.1966C23.1914 44.1951 24.4018 43.6929 25.2945 42.8002C26.1872 41.9075 26.6894 40.6971 26.6908 39.4347V35.8632C26.6908 34.6003 26.1891 33.3891 25.2961 32.496C24.403 31.603 23.1918 31.1013 21.9289 31.1013C20.666 31.1013 19.4548 31.603 18.5617 32.496C17.6687 33.3891 17.167 34.6003 17.167 35.8632V39.4347C17.1684 40.6971 17.6706 41.9075 18.5633 42.8002C19.456 43.6929 20.6664 44.1951 21.9289 44.1966ZM19.5479 35.8632C19.5479 35.2318 19.7988 34.6262 20.2453 34.1796C20.6918 33.7331 21.2974 33.4823 21.9289 33.4823C22.5604 33.4823 23.166 33.7331 23.6125 34.1796C24.059 34.6262 24.3098 35.2318 24.3098 35.8632V39.4347C24.3098 40.0661 24.059 40.6717 23.6125 41.1182C23.166 41.5648 22.5604 41.8156 21.9289 41.8156C21.2974 41.8156 20.6918 41.5648 20.2453 41.1182C19.7988 40.6717 19.5479 40.0661 19.5479 39.4347V35.8632Z" fill="#B4EDFF"/>
<path d="M23.1851 21.2797C23.5383 21.2797 23.8836 21.175 24.1772 20.9787C24.4709 20.7825 24.6998 20.5036 24.8349 20.1773C24.9701 19.851 25.0054 19.492 24.9365 19.1456C24.8676 18.7992 24.6976 18.481 24.4478 18.2313C24.1981 17.9815 23.8799 17.8115 23.5335 17.7426C23.1871 17.6737 22.8281 17.709 22.5018 17.8442C22.1755 17.9793 21.8966 18.2082 21.7004 18.5019C21.5041 18.7955 21.3994 19.1408 21.3994 19.494C21.4 19.9674 21.5883 20.4213 21.923 20.7561C22.2578 21.0908 22.7117 21.2791 23.1851 21.2797ZM23.1851 18.6011C23.3617 18.6011 23.5343 18.6535 23.6812 18.7516C23.828 18.8497 23.9424 18.9891 24.01 19.1523C24.0776 19.3154 24.0953 19.495 24.0608 19.6682C24.0264 19.8414 23.9413 20.0004 23.8165 20.1253C23.6916 20.2502 23.5325 20.3352 23.3593 20.3697C23.1861 20.4041 23.0066 20.3864 22.8434 20.3189C22.6803 20.2513 22.5409 20.1368 22.4427 19.99C22.3446 19.8432 22.2923 19.6706 22.2923 19.494C22.2925 19.2572 22.3866 19.0303 22.554 18.8629C22.7214 18.6955 22.9484 18.6013 23.1851 18.6011Z" fill="#3A576A"/>
<path d="M95.209 30.6033C94.9736 30.6033 94.7434 30.6731 94.5476 30.8039C94.3519 30.9347 94.1993 31.1206 94.1092 31.3382C94.0191 31.5557 93.9955 31.7951 94.0414 32.026C94.0874 32.2569 94.2007 32.4691 94.3672 32.6355C94.5337 32.802 94.7459 32.9154 94.9768 32.9613C95.2077 33.0073 95.4471 32.9837 95.6646 32.8936C95.8821 32.8035 96.0681 32.6509 96.1989 32.4551C96.3297 32.2594 96.3995 32.0292 96.3995 31.7937C96.3991 31.4781 96.2736 31.1755 96.0504 30.9524C95.8273 30.7292 95.5246 30.6036 95.209 30.6033ZM95.209 32.389C95.0913 32.389 94.9762 32.3541 94.8783 32.2887C94.7805 32.2233 94.7042 32.1303 94.6591 32.0215C94.614 31.9128 94.6023 31.7931 94.6252 31.6776C94.6482 31.5622 94.7049 31.4561 94.7881 31.3729C94.8714 31.2896 94.9774 31.2329 95.0929 31.2099C95.2084 31.187 95.3281 31.1988 95.4368 31.2438C95.5456 31.2889 95.6386 31.3652 95.704 31.4631C95.7694 31.5609 95.8043 31.676 95.8043 31.7937C95.8041 31.9516 95.7413 32.1029 95.6298 32.2145C95.5182 32.3261 95.3668 32.3888 95.209 32.389Z" fill="#3A576A"/>
<path d="M5.79106 10.9604C5.55561 10.9604 5.32544 11.0303 5.12967 11.1611C4.9339 11.2919 4.78131 11.4778 4.69121 11.6954C4.6011 11.9129 4.57753 12.1522 4.62346 12.3832C4.6694 12.6141 4.78278 12.8262 4.94927 12.9927C5.11576 13.1592 5.32788 13.2726 5.55881 13.3185C5.78974 13.3645 6.02911 13.3409 6.24664 13.2508C6.46417 13.1607 6.6501 13.0081 6.78091 12.8123C6.91172 12.6165 6.98154 12.3864 6.98154 12.1509C6.98118 11.8353 6.85564 11.5327 6.63246 11.3095C6.40928 11.0864 6.10669 10.9608 5.79106 10.9604ZM5.79106 12.7462C5.67334 12.7462 5.55825 12.7113 5.46037 12.6458C5.36248 12.5804 5.28619 12.4875 5.24113 12.3787C5.19608 12.2699 5.18429 12.1503 5.20726 12.0348C5.23023 11.9193 5.28692 11.8133 5.37017 11.73C5.45341 11.6468 5.55947 11.5901 5.67494 11.5671C5.7904 11.5442 5.91008 11.5559 6.01885 11.601C6.12762 11.6461 6.22058 11.7223 6.28598 11.8202C6.35139 11.9181 6.3863 12.0332 6.3863 12.1509C6.38614 12.3087 6.32338 12.4601 6.21179 12.5716C6.10019 12.6832 5.94888 12.746 5.79106 12.7462Z" fill="#3A576A"/>
<path d="M70.0772 6.99414C69.8417 6.99414 69.6116 7.06396 69.4158 7.19477C69.22 7.32558 69.0674 7.51151 68.9773 7.72904C68.8872 7.94657 68.8637 8.18594 68.9096 8.41687C68.9555 8.6478 69.0689 8.85992 69.2354 9.02641C69.4019 9.1929 69.614 9.30628 69.8449 9.35222C70.0759 9.39815 70.3152 9.37458 70.5328 9.28447C70.7503 9.19437 70.9362 9.04178 71.067 8.84601C71.1979 8.65024 71.2677 8.42007 71.2677 8.18462C71.2673 7.86899 71.1418 7.5664 70.9186 7.34322C70.6954 7.12004 70.3928 6.9945 70.0772 6.99414ZM70.0772 8.77986C69.9595 8.77986 69.8444 8.74494 69.7465 8.67954C69.6486 8.61413 69.5723 8.52117 69.5273 8.4124C69.4822 8.30364 69.4704 8.18396 69.4934 8.06849C69.5164 7.95303 69.5731 7.84697 69.6563 7.76372C69.7395 7.68047 69.8456 7.62378 69.9611 7.60082C70.0765 7.57785 70.1962 7.58964 70.305 7.63469C70.4137 7.67974 70.5067 7.75603 70.5721 7.85392C70.6375 7.95181 70.6724 8.06689 70.6724 8.18462C70.6723 8.34244 70.6095 8.49375 70.4979 8.60534C70.3863 8.71693 70.235 8.7797 70.0772 8.77986Z" fill="#3A576A"/>
<path d="M52.8155 24.0557C52.8155 23.8203 52.7457 23.5901 52.6149 23.3943C52.4841 23.1985 52.2982 23.046 52.0806 22.9559C51.8631 22.8658 51.6237 22.8422 51.3928 22.8881C51.1619 22.934 50.9497 23.0474 50.7833 23.2139C50.6168 23.3804 50.5034 23.5925 50.4574 23.8235C50.4115 24.0544 50.4351 24.2938 50.5252 24.5113C50.6153 24.7288 50.7679 24.9147 50.9637 25.0456C51.1594 25.1764 51.3896 25.2462 51.625 25.2462C51.9407 25.2458 52.2433 25.1203 52.4664 24.8971C52.6896 24.6739 52.8152 24.3713 52.8155 24.0557ZM51.0298 24.0557C51.0298 23.938 51.0647 23.8229 51.1301 23.725C51.1955 23.6271 51.2885 23.5508 51.3973 23.5058C51.506 23.4607 51.6257 23.4489 51.7412 23.4719C51.8566 23.4949 51.9627 23.5516 52.0459 23.6348C52.1292 23.7181 52.1859 23.8241 52.2088 23.9396C52.2318 24.0551 52.22 24.1747 52.175 24.2835C52.1299 24.3923 52.0536 24.4852 51.9557 24.5506C51.8579 24.616 51.7428 24.6509 51.625 24.6509C51.4672 24.6508 51.3159 24.588 51.2043 24.4764C51.0927 24.3648 51.03 24.2135 51.0298 24.0557Z" fill="#3A576A"/>
<path d="M10.2043 32.3959L11.0894 31.2316L10.5305 30.9155L9.96264 32.2185H9.94359L9.36621 30.9245L8.79776 31.2506L9.67335 32.387V32.4054L8.30371 32.228V32.8614L9.68228 32.6846V32.7036L8.79776 33.8393L9.32812 34.1751L9.93407 32.8614H9.95252L10.5114 34.1655L11.0984 33.8304L10.2043 32.7126V32.6941L11.6103 32.8614V32.228L10.2043 32.4143V32.3959Z" fill="#B4EDFF"/>
<path d="M37.8696 9.21433L37.3601 9.8685L37.6661 10.062L38.0149 9.3054H38.0256L38.347 10.0566L38.6851 9.86314L38.1702 9.21969V9.20897L38.9797 9.3054V8.94112L38.1702 9.04826V9.03755L38.6797 8.36731L38.3583 8.18457L38.0309 8.93517H38.0202L37.6881 8.18993L37.3601 8.37802L37.8649 9.03219V9.0429L37.0762 8.94112V9.3054L37.8696 9.20362V9.21433Z" fill="#B4EDFF"/>
<path d="M73.4847 22.8816V22.2608L72.1055 22.4435V22.425L72.9734 21.2834L72.4251 20.9727L71.868 22.2512H71.8495L71.2835 20.9816L70.7257 21.3012L71.5847 22.4161V22.4346L70.2412 22.2608V22.8816L71.5936 22.7084V22.7268L70.7257 23.8411L71.2466 24.1703L71.8406 22.8816H71.8585L72.4067 24.1608L72.9823 23.8322L72.1055 22.7358V22.7173L73.4847 22.8816Z" fill="#B4EDFF"/>
<path d="M90.5794 11.309L91.3282 10.3245L90.855 10.0566L90.3747 11.1596H90.3586L89.8705 10.0644L89.3889 10.34L90.13 11.3019V11.3174L88.9717 11.1674V11.7031L90.1378 11.5537V11.5697L89.3889 12.5305L89.8383 12.8144L90.3508 11.7031H90.3663L90.8389 12.8066L91.336 12.5227L90.5794 11.5769V11.5614L91.7687 11.7031V11.1674L90.5794 11.3251V11.309Z" fill="#B4EDFF"/>
<path d="M1.69048 84.6727C2.34796 84.6727 2.88095 84.1397 2.88095 83.4822C2.88095 82.8247 2.34796 82.2917 1.69048 82.2917C1.03299 82.2917 0.5 82.8247 0.5 83.4822C0.5 84.1397 1.03299 84.6727 1.69048 84.6727Z" fill="#3A576A"/>
<path d="M7.04748 82.2917H5.26177C4.94603 82.2917 4.64323 82.4172 4.41997 82.6404C4.19671 82.8637 4.07129 83.1665 4.07129 83.4822C4.07129 83.798 4.19671 84.1008 4.41997 84.324C4.64323 84.5473 4.94603 84.6727 5.26177 84.6727H7.04748C7.36321 84.6727 7.66602 84.5473 7.88927 84.324C8.11253 84.1008 8.23796 83.798 8.23796 83.4822C8.23796 83.1665 8.11253 82.8637 7.88927 82.6404C7.66602 82.4172 7.36321 82.2917 7.04748 82.2917Z" fill="#3A576A"/>
<path d="M95.7379 82.2917H93.9522C93.6365 82.2917 93.3337 82.4172 93.1104 82.6404C92.8871 82.8637 92.7617 83.1665 92.7617 83.4822C92.7617 83.798 92.8871 84.1008 93.1104 84.324C93.3337 84.5473 93.6365 84.6727 93.9522 84.6727H95.7379C96.0536 84.6727 96.3564 84.5473 96.5797 84.324C96.803 84.1008 96.9284 83.798 96.9284 83.4822C96.9284 83.1665 96.803 82.8637 96.5797 82.6404C96.3564 82.4172 96.0536 82.2917 95.7379 82.2917Z" fill="#3A576A"/>
<path d="M99.3096 84.6727C99.9671 84.6727 100.5 84.1397 100.5 83.4822C100.5 82.8247 99.9671 82.2917 99.3096 82.2917C98.6521 82.2917 98.1191 82.8247 98.1191 83.4822C98.1191 84.1397 98.6521 84.6727 99.3096 84.6727Z" fill="#3A576A"/>
<path d="M70.8301 87.0535H65.885C65.5858 87.0774 65.3065 87.2133 65.1029 87.4339C64.8992 87.6545 64.7861 87.9437 64.7861 88.2439C64.7861 88.5442 64.8992 88.8334 65.1029 89.054C65.3065 89.2746 65.5858 89.4104 65.885 89.4344H70.8301C71.1294 89.4104 71.4087 89.2746 71.6123 89.054C71.8159 88.8334 71.929 88.5442 71.929 88.2439C71.929 87.9437 71.8159 87.6545 71.6123 87.4339C71.4087 87.2133 71.1294 87.0774 70.8301 87.0535Z" fill="#B4EDFF"/>
<path d="M35.1153 87.0535H30.1702C29.8709 87.0774 29.5917 87.2133 29.388 87.4339C29.1844 87.6545 29.0713 87.9437 29.0713 88.2439C29.0713 88.5442 29.1844 88.8334 29.388 89.054C29.5917 89.2746 29.8709 89.4104 30.1702 89.4344H35.1153C35.4145 89.4104 35.6938 89.2746 35.8975 89.054C36.1011 88.8334 36.2142 88.5442 36.2142 88.2439C36.2142 87.9437 36.1011 87.6545 35.8975 87.4339C35.6938 87.2133 35.4145 87.0774 35.1153 87.0535Z" fill="#B4EDFF"/>
<path d="M62.4043 87.0535H38.5948C38.279 87.0535 37.9762 87.1789 37.753 87.4021C37.5297 87.6254 37.4043 87.9282 37.4043 88.2439C37.4043 88.5597 37.5297 88.8625 37.753 89.0857C37.9762 89.309 38.279 89.4344 38.5948 89.4344H48.0829V90.6249H43.3567C43.0409 90.6249 42.7381 90.7503 42.5149 90.9736C42.2916 91.1968 42.1662 91.4996 42.1662 91.8154C42.1662 92.1311 42.2916 92.4339 42.5149 92.6572C42.7381 92.8804 43.0409 93.0058 43.3567 93.0058H58.2376C58.5534 93.0058 58.8562 92.8804 59.0794 92.6572C59.3027 92.4339 59.4281 92.1311 59.4281 91.8154C59.4281 91.4996 59.3027 91.1968 59.0794 90.9736C58.8562 90.7503 58.5534 90.6249 58.2376 90.6249H52.9162V89.4344H62.4043C62.72 89.4344 63.0228 89.309 63.2461 89.0857C63.4693 88.8625 63.5948 88.5597 63.5948 88.2439C63.5948 87.9282 63.4693 87.6254 63.2461 87.4021C63.0228 87.1789 62.72 87.0535 62.4043 87.0535Z" fill="#B4EDFF"/>
<path d="M90.215 82.2916H84.6859C84.6884 82.2759 84.6948 82.2615 84.6971 82.2457L87.7531 64.7585C88.0166 64.5093 88.227 64.2094 88.3717 63.8768C88.5164 63.5442 88.5924 63.1859 88.5952 62.8232V48.4282C88.611 47.3156 88.2755 46.2264 87.6364 45.3155C86.9973 44.4047 86.0872 43.7186 85.0356 43.355C84.5038 44.1616 83.815 44.8528 83.0103 45.3875C84.8969 45.391 86.2142 46.6397 86.2142 48.4282V62.8232C86.2142 63.022 85.9462 63.244 85.5876 63.244H83.8333V57.2916C83.8333 56.9759 83.7078 56.6731 83.4846 56.4498C83.2613 56.2266 82.9585 56.1012 82.6428 56.1012C82.327 56.1012 82.0242 56.2266 81.801 56.4498C81.5777 56.6731 81.4523 56.9759 81.4523 57.2916V63.244H76.6904V57.2916C76.6904 56.9759 76.565 56.6731 76.3417 56.4498C76.1185 56.2266 75.8157 56.1012 75.4999 56.1012C75.1842 56.1012 74.8814 56.2266 74.6581 56.4498C74.4349 56.6731 74.3094 56.9759 74.3094 57.2916V63.244H72.5551C72.1965 63.244 71.9285 63.022 71.9285 62.8232V48.4282C71.9285 46.6397 73.2458 45.391 75.1324 45.3875C74.3277 44.8528 73.6389 44.1616 73.1071 43.355C72.0555 43.7186 71.1454 44.4047 70.5063 45.3155C69.8673 46.2264 69.5317 47.3156 69.5475 48.4282V62.8232C69.5503 63.1859 69.6263 63.5443 69.771 63.8769C69.9157 64.2095 70.1262 64.5094 70.3897 64.7586L73.4422 82.2201C73.4455 82.2448 73.4549 82.2672 73.4589 82.2917H56.1144C56.117 82.2759 56.1234 82.2616 56.1256 82.2457L59.1817 64.7585C59.4452 64.5093 59.6556 64.2094 59.8003 63.8768C59.945 63.5443 60.021 63.1859 60.0237 62.8232V48.4282C60.0395 47.3156 59.704 46.2264 59.0649 45.3155C58.4258 44.4047 57.5157 43.7186 56.4641 43.355C55.9323 44.1616 55.2435 44.8528 54.4388 45.3875C56.3255 45.391 57.6428 46.6397 57.6428 48.4282V62.8232C57.6428 63.022 57.3748 63.244 57.0162 63.244H55.2618V57.2916C55.2618 56.9759 55.1364 56.6731 54.9132 56.4498C54.6899 56.2266 54.3871 56.1012 54.0714 56.1012C53.7556 56.1012 53.4528 56.2266 53.2296 56.4498C53.0063 56.6731 52.8809 56.9759 52.8809 57.2916V63.244H48.119V57.2916C48.119 56.9759 47.9935 56.6731 47.7703 56.4498C47.547 56.2266 47.2442 56.1012 46.9285 56.1012C46.6128 56.1012 46.31 56.2266 46.0867 56.4498C45.8634 56.6731 45.738 56.9759 45.738 57.2916V63.244H43.9837C43.625 63.244 43.3571 63.022 43.3571 62.8232V48.4282C43.3571 46.6397 44.6743 45.391 46.561 45.3875C45.7563 44.8528 45.0675 44.1616 44.5357 43.355C43.4841 43.7186 42.574 44.4047 41.9349 45.3155C41.2958 46.2264 40.9603 47.3156 40.9761 48.4282V62.8232C40.9788 63.1859 41.0549 63.5443 41.1996 63.8769C41.3443 64.2095 41.5548 64.5094 41.8183 64.7586L44.8708 82.2201C44.8741 82.2448 44.8835 82.2672 44.8875 82.2916H27.543C27.5456 82.2759 27.5519 82.2615 27.5542 82.2457L30.6102 64.7585C30.8738 64.5093 31.0842 64.2094 31.2289 63.8768C31.3736 63.5442 31.4496 63.1859 31.4523 62.8232V48.4282C31.4681 47.3156 31.1326 46.2264 30.4935 45.3155C29.8544 44.4047 28.9443 43.7186 27.8927 43.355C27.3609 44.1616 26.6721 44.8528 25.8674 45.3875C27.7541 45.391 29.0714 46.6397 29.0714 48.4282V62.8232C29.0714 63.022 28.8034 63.244 28.4447 63.244H26.6904V57.2916C26.6904 56.9759 26.565 56.6731 26.3417 56.4498C26.1185 56.2266 25.8157 56.1012 25.4999 56.1012C25.1842 56.1012 24.8814 56.2266 24.6581 56.4498C24.4349 56.6731 24.3094 56.9759 24.3094 57.2916V63.244H19.5475V57.2916C19.5475 56.9759 19.4221 56.6731 19.1989 56.4498C18.9756 56.2266 18.6728 56.1012 18.3571 56.1012C18.0413 56.1012 17.7385 56.2266 17.5153 56.4498C17.292 56.6731 17.1666 56.9759 17.1666 57.2916V63.244H15.4123C15.0536 63.244 14.7856 63.022 14.7856 62.8232V48.4282C14.7856 46.6397 16.1029 45.391 17.9896 45.3875C17.1849 44.8528 16.4961 44.1616 15.9643 43.355C14.9127 43.7186 14.0026 44.4047 13.3635 45.3155C12.7244 46.2264 12.3889 47.3156 12.4047 48.4282V62.8232C12.4074 63.1859 12.4834 63.5443 12.6281 63.8769C12.7729 64.2095 12.9833 64.5094 13.2469 64.7586L16.2993 82.2201C16.3027 82.2448 16.3121 82.2672 16.3161 82.2916H10.7849C10.6155 82.2695 10.4434 82.2838 10.28 82.3335C10.1165 82.3832 9.96562 82.4672 9.83726 82.5798C9.7089 82.6925 9.60606 82.8313 9.53561 82.9869C9.46515 83.1425 9.42871 83.3113 9.42871 83.4821C9.42871 83.6529 9.46515 83.8217 9.53561 83.9773C9.60606 84.1329 9.7089 84.2717 9.83726 84.3844C9.96562 84.497 10.1165 84.581 10.28 84.6307C10.4434 84.6804 10.6155 84.6947 10.7849 84.6726H90.215C90.3844 84.6947 90.5565 84.6804 90.7199 84.6307C90.8833 84.581 91.0342 84.497 91.1626 84.3844C91.291 84.2717 91.3938 84.1329 91.4642 83.9773C91.5347 83.8217 91.5711 83.6529 91.5711 83.4821C91.5711 83.3113 91.5347 83.1425 91.4642 82.9869C91.3938 82.8313 91.291 82.6925 91.1626 82.5798C91.0342 82.4672 90.8833 82.3832 90.7199 82.3335C90.5565 82.2838 90.3844 82.2695 90.215 82.2916ZM23.119 82.2916V71.0519C23.119 70.7361 22.9935 70.4333 22.7703 70.2101C22.547 69.9868 22.2442 69.8614 21.9285 69.8614C21.6128 69.8614 21.31 69.9868 21.0867 70.2101C20.8634 70.4333 20.738 70.7361 20.738 71.0519V82.2916H19.1842C19.0573 82.2967 18.9329 82.255 18.8346 82.1744C18.7364 82.0938 18.6711 81.98 18.6512 81.8545L15.815 65.625H28.042L25.2058 81.8545C25.2029 81.8696 25.2006 81.8847 25.1988 81.8993C25.1712 82.016 25.1033 82.1193 25.0071 82.1911C24.9109 82.2628 24.7926 82.2984 24.6728 82.2916L23.119 82.2916ZM51.6904 82.2916V71.0519C51.6904 70.7361 51.565 70.4333 51.3417 70.2101C51.1185 69.9868 50.8157 69.8614 50.4999 69.8614C50.1842 69.8614 49.8814 69.9868 49.6581 70.2101C49.4349 70.4333 49.3094 70.7361 49.3094 71.0519V82.2916H47.7557C47.6287 82.2967 47.5043 82.255 47.406 82.1744C47.3078 82.0938 47.2425 81.98 47.2226 81.8545L44.3865 65.625H56.6134L53.7772 81.8545C53.7743 81.8696 53.772 81.8847 53.7702 81.8993C53.7426 82.016 53.6747 82.1193 53.5785 82.1911C53.4824 82.2628 53.364 82.2984 53.2442 82.2916L51.6904 82.2916ZM80.2618 82.2916V71.0519C80.2618 70.7361 80.1364 70.4333 79.9132 70.2101C79.6899 69.9868 79.3871 69.8614 79.0714 69.8614C78.7556 69.8614 78.4528 69.9868 78.2296 70.2101C78.0063 70.4333 77.8809 70.7361 77.8809 71.0519V82.2916H76.3271C76.2001 82.2967 76.0757 82.255 75.9775 82.1744C75.8792 82.0938 75.814 81.98 75.7941 81.8545L72.9579 65.625H85.1848L82.3487 81.8545C82.3457 81.8696 82.3434 81.8847 82.3417 81.8993C82.314 82.016 82.2462 82.1193 82.15 82.1911C82.0538 82.2628 81.9354 82.2984 81.8156 82.2916L80.2618 82.2916Z" fill="#3A576A"/>
</g>
<defs>
<clipPath id="clip0_146_11021">
<rect width="100" height="100" fill="white" transform="translate(0.5)"/>
</clipPath>
</defs>
</svg>
