<svg width="101" height="100" viewBox="0 0 101 100" fill="none" xmlns="http://www.w3.org/2000/svg">
<g clip-path="url(#clip0_146_10811)">
<path d="M70.8301 92.4595H65.885C65.5858 92.4835 65.3065 92.6193 65.1029 92.8399C64.8992 93.0605 64.7861 93.3497 64.7861 93.6499C64.7861 93.9502 64.8992 94.2394 65.1029 94.46C65.3065 94.6806 65.5858 94.8164 65.885 94.8404H70.8301C71.1294 94.8164 71.4087 94.6806 71.6123 94.46C71.8159 94.2394 71.929 93.9502 71.929 93.6499C71.929 93.3497 71.8159 93.0605 71.6123 92.8399C71.4087 92.6193 71.1294 92.4835 70.8301 92.4595Z" fill="#B4EDFF"/>
<path d="M35.1153 92.4595H30.1702C29.8709 92.4835 29.5917 92.6193 29.388 92.8399C29.1844 93.0605 29.0713 93.3497 29.0713 93.6499C29.0713 93.9502 29.1844 94.2394 29.388 94.46C29.5917 94.6806 29.8709 94.8164 30.1702 94.8404H35.1153C35.4145 94.8164 35.6938 94.6806 35.8975 94.46C36.1011 94.2394 36.2142 93.9502 36.2142 93.6499C36.2142 93.3497 36.1011 93.0605 35.8975 92.8399C35.6938 92.6193 35.4145 92.4835 35.1153 92.4595Z" fill="#B4EDFF"/>
<path d="M62.4043 92.4595H38.5948C38.279 92.4595 37.9762 92.5849 37.753 92.8082C37.5297 93.0314 37.4043 93.3342 37.4043 93.6499C37.4043 93.9657 37.5297 94.2685 37.753 94.4917C37.9762 94.715 38.279 94.8404 38.5948 94.8404H48.0829V96.0309H43.3567C43.0409 96.0309 42.7381 96.1563 42.5149 96.3796C42.2916 96.6028 42.1662 96.9056 42.1662 97.2214C42.1662 97.5371 42.2916 97.8399 42.5149 98.0632C42.7381 98.2864 43.0409 98.4119 43.3567 98.4119H58.2376C58.5534 98.4119 58.8562 98.2864 59.0794 98.0632C59.3027 97.8399 59.4281 97.5371 59.4281 97.2214C59.4281 96.9056 59.3027 96.6028 59.0794 96.3796C58.8562 96.1563 58.5534 96.0309 58.2376 96.0309H52.9162V94.8404H62.4043C62.72 94.8404 63.0228 94.715 63.2461 94.4917C63.4693 94.2685 63.5948 93.9657 63.5948 93.6499C63.5948 93.3342 63.4693 93.0314 63.2461 92.8082C63.0228 92.5849 62.72 92.4595 62.4043 92.4595Z" fill="#B4EDFF"/>
<path d="M36.3961 10.3165C36.7492 10.3165 37.0945 10.2118 37.3882 10.0156C37.6818 9.81938 37.9107 9.54049 38.0458 9.2142C38.181 8.8879 38.2164 8.52885 38.1475 8.18246C38.0786 7.83606 37.9085 7.51788 37.6588 7.26814C37.409 7.0184 37.0908 6.84833 36.7444 6.77943C36.398 6.71053 36.039 6.74589 35.7127 6.88105C35.3864 7.0162 35.1075 7.24508 34.9113 7.53874C34.7151 7.8324 34.6104 8.17765 34.6104 8.53083C34.6109 9.00427 34.7992 9.45816 35.134 9.79292C35.4687 10.1277 35.9226 10.316 36.3961 10.3165ZM36.3961 7.63798C36.5727 7.63798 36.7453 7.69034 36.8921 7.78845C37.0389 7.88656 37.1534 8.026 37.221 8.18915C37.2885 8.3523 37.3062 8.53182 37.2718 8.70502C37.2373 8.87822 37.1523 9.03731 37.0274 9.16218C36.9025 9.28705 36.7435 9.37208 36.5703 9.40653C36.3971 9.44098 36.2175 9.4233 36.0544 9.35572C35.8912 9.28815 35.7518 9.17371 35.6537 9.02688C35.5556 8.88005 35.5032 8.70742 35.5032 8.53083C35.5034 8.2941 35.5976 8.06714 35.765 7.89974C35.9324 7.73235 36.1593 7.63821 36.3961 7.63798Z" fill="#3A576A"/>
<path d="M95.3243 19.2451C95.0888 19.2451 94.8586 19.3149 94.6629 19.4457C94.4671 19.5766 94.3145 19.7625 94.2244 19.98C94.1343 20.1975 94.1107 20.4369 94.1567 20.6678C94.2026 20.8988 94.316 21.1109 94.4825 21.2774C94.649 21.4439 94.8611 21.5573 95.092 21.6032C95.3229 21.6491 95.5623 21.6256 95.7798 21.5355C95.9974 21.4453 96.1833 21.2928 96.3141 21.097C96.4449 20.9012 96.5147 20.671 96.5147 20.4356C96.5144 20.12 96.3888 19.8174 96.1657 19.5942C95.9425 19.371 95.6399 19.2455 95.3243 19.2451ZM95.3243 21.0308C95.2065 21.0308 95.0915 20.9959 94.9936 20.9305C94.8957 20.8651 94.8194 20.7721 94.7743 20.6634C94.7293 20.5546 94.7175 20.4349 94.7405 20.3195C94.7634 20.204 94.8201 20.0979 94.9034 20.0147C94.9866 19.9315 95.0927 19.8748 95.2081 19.8518C95.3236 19.8288 95.4433 19.8406 95.5521 19.8857C95.6608 19.9307 95.7538 20.007 95.8192 20.1049C95.8846 20.2028 95.9195 20.3179 95.9195 20.4356C95.9193 20.5934 95.8566 20.7447 95.745 20.8563C95.6334 20.9679 95.4821 21.0307 95.3243 21.0308Z" fill="#3A576A"/>
<path d="M97.1104 3.17383C96.8749 3.17383 96.6448 3.24365 96.449 3.37446C96.2532 3.50527 96.1006 3.6912 96.0105 3.90873C95.9204 4.12626 95.8969 4.36562 95.9428 4.59655C95.9887 4.82748 96.1021 5.03961 96.2686 5.2061C96.4351 5.37259 96.6472 5.48597 96.8782 5.53191C97.1091 5.57784 97.3484 5.55427 97.566 5.46416C97.7835 5.37406 97.9694 5.22147 98.1002 5.0257C98.2311 4.82992 98.3009 4.59976 98.3009 4.3643C98.3005 4.04868 98.175 3.74609 97.9518 3.52291C97.7286 3.29973 97.426 3.17419 97.1104 3.17383ZM97.1104 4.95954C96.9927 4.95954 96.8776 4.92463 96.7797 4.85923C96.6818 4.79382 96.6055 4.70086 96.5605 4.59209C96.5154 4.48333 96.5036 4.36364 96.5266 4.24818C96.5496 4.13271 96.6063 4.02665 96.6895 3.94341C96.7728 3.86016 96.8788 3.80347 96.9943 3.7805C97.1097 3.75754 97.2294 3.76932 97.3382 3.81438C97.447 3.85943 97.5399 3.93572 97.6053 4.03361C97.6707 4.13149 97.7056 4.24658 97.7056 4.3643C97.7055 4.52212 97.6427 4.67343 97.5311 4.78503C97.4195 4.89662 97.2682 4.95939 97.1104 4.95954Z" fill="#3A576A"/>
<path d="M75.086 9.72119C74.8505 9.72119 74.6204 9.79101 74.4246 9.92182C74.2288 10.0526 74.0762 10.2386 73.9861 10.4561C73.896 10.6736 73.8724 10.913 73.9184 11.1439C73.9643 11.3748 74.0777 11.587 74.2442 11.7535C74.4107 11.92 74.6228 12.0333 74.8537 12.0793C75.0847 12.1252 75.324 12.1016 75.5416 12.0115C75.7591 11.9214 75.945 11.7688 76.0758 11.5731C76.2066 11.3773 76.2765 11.1471 76.2765 10.9117C76.2761 10.596 76.1506 10.2935 75.9274 10.0703C75.7042 9.84709 75.4016 9.72155 75.086 9.72119ZM75.086 11.5069C74.9683 11.5069 74.8532 11.472 74.7553 11.4066C74.6574 11.3412 74.5811 11.2482 74.5361 11.1395C74.491 11.0307 74.4792 10.911 74.5022 10.7955C74.5251 10.6801 74.5818 10.574 74.6651 10.4908C74.7483 10.4075 74.8544 10.3508 74.9699 10.3279C75.0853 10.3049 75.205 10.3167 75.3138 10.3617C75.4225 10.4068 75.5155 10.4831 75.5809 10.581C75.6463 10.6789 75.6812 10.7939 75.6812 10.9117C75.6811 11.0695 75.6183 11.2208 75.5067 11.3324C75.3951 11.444 75.2438 11.5067 75.086 11.5069Z" fill="#3A576A"/>
<path d="M9.60947 30.5547C9.60947 30.3193 9.53965 30.0891 9.40884 29.8933C9.27803 29.6976 9.0921 29.545 8.87457 29.4549C8.65704 29.3648 8.41767 29.3412 8.18674 29.3871C7.95581 29.4331 7.74369 29.5465 7.5772 29.7129C7.41071 29.8794 7.29733 30.0916 7.25139 30.3225C7.20546 30.5534 7.22903 30.7928 7.31914 31.0103C7.40924 31.2278 7.56183 31.4138 7.7576 31.5446C7.95337 31.6754 8.18354 31.7452 8.41899 31.7452C8.73462 31.7449 9.03721 31.6193 9.26039 31.3961C9.48357 31.173 9.60911 30.8704 9.60947 30.5547ZM7.82375 30.5547C7.82375 30.437 7.85866 30.3219 7.92407 30.224C7.98948 30.1262 8.08244 30.0499 8.1912 30.0048C8.29997 29.9598 8.41965 29.948 8.53512 29.9709C8.65058 29.9939 8.75664 30.0506 8.83989 30.1338C8.92314 30.2171 8.97983 30.3231 9.00279 30.4386C9.02576 30.5541 9.01397 30.6738 8.96892 30.7825C8.92387 30.8913 8.84758 30.9843 8.74969 31.0497C8.6518 31.1151 8.53672 31.15 8.41899 31.15C8.26117 31.1498 8.10986 31.0871 7.99827 30.9755C7.88667 30.8639 7.82391 30.7126 7.82375 30.5547Z" fill="#3A576A"/>
<path d="M3.40938 16.871L4.2945 15.7067L3.73557 15.3906L3.16712 16.6942H3.14867L2.57129 15.3996L2.00284 15.7257L2.87843 16.8621V16.8805L1.50879 16.7031V17.3365L2.88736 17.1597V17.1787L2.00284 18.3144L2.53319 18.6501L3.13915 17.3365H3.1576L3.71653 18.6406L4.30343 18.3055L3.40938 17.1876V17.1692L4.81534 17.3365V16.7031L3.40938 16.8894V16.871Z" fill="#B4EDFF"/>
<path d="M12.4532 2.61765L11.9437 3.27182L12.2497 3.46527L12.5985 2.70872H12.6086L12.9306 3.45991L13.2687 3.26646L12.7538 2.62301V2.6123L13.5633 2.70872V2.34444L12.7538 2.45158V2.44087L13.2633 1.77063L12.9419 1.58789L12.6145 2.33849H12.6038L12.2711 1.59325L11.9437 1.78134L12.4479 2.43551V2.44622L11.6592 2.34444V2.70872L12.4532 2.60694V2.61765Z" fill="#B4EDFF"/>
<path d="M94.7288 33.3601V32.7393L93.3496 32.9214V32.9036L94.2175 31.7619L93.6693 31.4512L93.1121 32.7297H93.0937L92.5276 31.4601L91.9699 31.7797L92.8288 32.8946V32.9125L91.4854 32.7393V33.3601L92.8377 33.1869V33.2053L91.9699 34.319L92.4907 34.6482L93.0848 33.3601H93.1026L93.6508 34.6393L94.2264 34.3101L93.3496 33.2143V33.1958L94.7288 33.3601Z" fill="#B4EDFF"/>
<path d="M64.0404 4.71234L64.7892 3.72782L64.316 3.45996L63.8356 4.56294H63.8195L63.3314 3.4677L62.8499 3.74329L63.591 4.7052V4.72068L62.4326 4.57068V5.10639L63.5987 4.95698V4.97306L62.8499 5.93377L63.2993 6.2177L63.8118 5.10639H63.8273L64.3005 6.20996L64.7969 5.92603L64.0404 4.98079V4.96472L65.2296 5.10639V4.57068L64.0404 4.72841V4.71234Z" fill="#B4EDFF"/>
<path d="M13.4739 18.3777C13.5377 18.6358 13.6861 18.8652 13.8954 19.0292C14.1047 19.1933 14.363 19.2825 14.6289 19.2827C14.7251 19.2827 14.8209 19.2712 14.9143 19.2484C15.066 19.2113 15.209 19.1446 15.3349 19.0521C15.4609 18.9597 15.5674 18.8434 15.6484 18.7098C15.7293 18.5761 15.7832 18.4279 15.8068 18.2735C15.8305 18.119 15.8235 17.9615 15.7862 17.8097L15.7694 17.7423L19.8959 21.8648C20.119 22.0877 20.4214 22.2129 20.7368 22.2129C21.0521 22.2129 21.3545 22.0877 21.5776 21.8649C21.8007 21.642 21.9262 21.3397 21.9266 21.0244C21.9269 20.709 21.802 20.4065 21.5794 20.1831L17.4528 16.0606L17.5202 16.0769C17.672 16.1145 17.8298 16.1219 17.9845 16.0985C18.1391 16.0751 18.2877 16.0215 18.4216 15.9406C18.5555 15.8598 18.6722 15.7533 18.7649 15.6273C18.8576 15.5013 18.9246 15.3583 18.962 15.2064C18.9993 15.0545 19.0064 14.8967 18.9827 14.7421C18.959 14.5874 18.9051 14.439 18.824 14.3052C18.7429 14.1715 18.6362 14.055 18.51 13.9625C18.3839 13.8701 18.2407 13.8034 18.0887 13.7663L13.879 12.7328C13.6802 12.6838 13.4722 12.687 13.275 12.7419C13.0777 12.7969 12.898 12.9018 12.7532 13.0465C12.6084 13.1912 12.5034 13.3708 12.4482 13.568C12.3931 13.7651 12.3898 13.9732 12.4386 14.172L13.4739 18.3777Z" fill="#3A576A"/>
<path d="M80.2621 22.2135C80.4185 22.2137 80.5733 22.183 80.7178 22.1232C80.8622 22.0633 80.9934 21.9755 81.1038 21.8648L85.2304 17.7423L85.2135 17.8097C85.1762 17.9615 85.1692 18.119 85.1929 18.2735C85.2165 18.4279 85.2704 18.5761 85.3514 18.7097C85.4323 18.8434 85.5388 18.9597 85.6648 19.0521C85.7907 19.1446 85.9337 19.2113 86.0854 19.2484C86.1788 19.2712 86.2747 19.2827 86.3708 19.2827C86.6368 19.2825 86.895 19.1932 87.1043 19.0292C87.3136 18.8652 87.462 18.6358 87.5258 18.3777L88.5611 14.172C88.6099 13.9732 88.6066 13.7651 88.5515 13.568C88.4964 13.3708 88.3913 13.1912 88.2465 13.0465C88.1017 12.9018 87.922 12.7969 87.7248 12.7419C87.5275 12.687 87.3195 12.6838 87.1207 12.7328L82.911 13.7663C82.759 13.8034 82.6159 13.8701 82.4897 13.9625C82.3635 14.055 82.2568 14.1715 82.1757 14.3052C82.0946 14.439 82.0407 14.5874 82.017 14.7421C81.9933 14.8967 82.0004 15.0545 82.0378 15.2064C82.0751 15.3583 82.1421 15.5013 82.2348 15.6273C82.3275 15.7533 82.4442 15.8598 82.5781 15.9406C82.712 16.0215 82.8606 16.0751 83.0153 16.0985C83.1699 16.1219 83.3277 16.1145 83.4795 16.0769L83.547 16.0606L79.4204 20.1831C79.2541 20.3495 79.1409 20.5615 79.095 20.7923C79.0492 21.023 79.0729 21.2622 79.163 21.4795C79.253 21.6968 79.4056 21.8826 79.6012 22.0132C79.7968 22.1439 80.0268 22.2136 80.2621 22.2135Z" fill="#3A576A"/>
<path d="M76.2685 61.6173C76.4214 61.2639 77.1718 59.1921 77.2328 58.9881C77.938 58.9826 78.6259 58.7697 79.211 58.376C79.7017 58.0457 80.1227 57.6223 80.4502 57.1297C81.5802 55.4586 81.3948 52.9323 81.439 51.0146C81.4675 49.3932 81.3473 47.7725 81.0798 46.1731C80.9951 45.5403 80.7808 44.9318 80.4502 44.3856C80.1225 43.8933 79.7015 43.4701 79.211 43.1399C78.6258 42.7465 77.9379 42.5336 77.2328 42.5278C77.2154 42.4662 77.2008 42.4046 77.1805 42.3436C77.0695 42.0395 76.4708 40.3864 76.2661 39.9004C76.8086 39.4445 77.2023 38.8368 77.3967 38.1553C77.5591 37.5876 77.6083 36.9935 77.5415 36.4068C77.447 35.7755 77.2213 35.1709 76.8788 34.6322C75.5741 32.3861 73.945 30.3449 72.0442 28.5746C71.4876 27.9891 70.8681 27.4668 70.1969 27.0173C69.5701 26.643 68.8535 26.4457 68.1234 26.4466C67.3934 26.4474 66.6772 26.6462 66.0512 27.022C65.9203 27.107 65.7949 27.2002 65.6757 27.301C65.3461 27.0993 63.4412 25.992 63.2476 25.8978C63.2512 25.3405 63.2162 24.7837 63.143 24.2312C62.9283 23.5794 62.5621 22.9879 62.0744 22.505C61.5868 22.0222 60.9916 21.662 60.3377 21.4538C57.3772 20.3837 54.3737 20.1174 51.2848 19.8698C50.644 19.8302 50.0032 19.9477 49.4182 20.2122C48.8877 20.4178 48.4088 20.7375 48.0154 21.1486C47.6221 21.5597 47.3239 22.0523 47.1419 22.5914C46.9391 23.3846 46.9557 24.2179 47.1898 25.0024C47.424 25.7869 47.8669 26.493 48.4713 27.0452C48.8222 27.3949 49.2342 27.6774 49.6868 27.8788C50.8924 28.3973 52.2799 28.1857 53.5512 28.3624C54.7897 28.5059 56.0103 28.7755 57.1941 29.1669C58.2583 29.6041 59.4518 29.6052 60.5167 29.1698C61.1343 28.8987 61.689 28.5026 62.1461 28.0067C62.328 28.0945 64.0801 29.114 64.3823 29.2977C64.3387 29.4424 64.3009 29.5872 64.2724 29.732C64.1087 30.4612 64.1312 31.22 64.3379 31.9382C64.5447 32.6564 64.929 33.3111 65.4554 33.8417C65.4554 33.8417 65.6111 33.9834 65.8454 34.1956C67.2523 35.4714 68.482 36.9298 69.5017 38.532C69.82 39.1037 70.2488 39.6064 70.7631 40.0108C71.1519 40.3061 71.5928 40.5256 72.0629 40.6578C72.7147 40.8447 73.3972 40.8998 74.0706 40.82C74.2589 41.2658 74.8077 42.7812 74.91 43.0591C74.9286 43.1161 74.942 43.173 74.9582 43.23C74.3861 43.6001 73.8951 44.0824 73.5149 44.6478C73.2408 45.0505 73.0452 45.5013 72.9383 45.9766C72.8097 46.439 72.7753 46.9225 72.8372 47.3984C73.2047 49.6222 73.2049 51.8913 72.8377 54.1152C72.7755 54.5917 72.8099 55.0758 72.9389 55.5387C73.0453 56.0142 73.2407 56.4653 73.5149 56.8681C73.895 57.4335 74.386 57.9156 74.9582 58.2853C74.9019 58.4731 74.2136 60.3716 74.0735 60.6971C73.3995 60.6166 72.7161 60.6714 72.0635 60.8581C71.1222 61.1201 70.3084 61.7156 69.7738 62.5334C68.6073 64.4588 67.1509 66.1928 65.456 67.6743C65.107 68.0013 64.818 68.3869 64.602 68.8136C64.1729 69.742 64.0574 70.7848 64.273 71.7846C64.3021 71.9299 64.3399 72.0758 64.3841 72.2211C63.9702 72.4723 62.3205 73.4255 62.3205 73.4255C62.2612 73.454 62.2054 73.4808 62.1467 73.5093C61.0707 72.3583 59.2449 71.5893 57.6893 72.1682C57.6893 72.1682 57.4917 72.2403 57.1953 72.349C55.1776 73.0884 53.1763 73.1105 51.0761 73.3227C50.6002 73.3574 50.1322 73.4636 49.6879 73.6377C48.9719 73.9682 48.3509 74.474 47.8823 75.1082C47.4137 75.7424 47.1126 76.4846 47.007 77.2661C46.8847 78.1138 47.0576 78.9777 47.4969 79.7129C47.9362 80.4481 48.615 81.0098 49.4194 81.3037C50.0043 81.5685 50.6451 81.686 51.2859 81.6461L53.5855 81.5264C55.6324 81.2418 57.6602 80.8332 59.6576 80.3027C60.0657 80.158 60.3377 80.0621 60.3377 80.0621C60.9251 79.8786 61.4665 79.5716 61.9255 79.1616C62.3844 78.7517 62.7504 78.2483 62.9988 77.6852C63.2793 77.0348 63.3657 76.3172 63.2476 75.6187C63.3069 75.5903 63.3627 75.563 63.422 75.5345C63.422 75.5345 65.2252 74.4917 65.678 74.2173C66.0098 74.4974 66.3884 74.7168 66.7964 74.8654C67.3573 75.0471 67.9502 75.1084 68.5364 75.0452C69.1226 74.982 69.6888 74.7957 70.1981 74.4986C70.4739 74.3269 70.7338 74.1308 70.9747 73.9127C73.272 71.8675 75.2607 69.5001 76.8788 66.8843C77.2065 66.3658 77.422 65.7843 77.5113 65.1774C77.6006 64.5705 77.5618 63.9516 77.3973 63.3606C77.2031 62.68 76.81 62.0729 76.2685 61.6173ZM58.4276 27.1446C58.4276 27.1446 58.2091 27.0656 57.8818 26.9475C55.6979 26.2576 53.4238 25.8946 51.1336 25.8705C50.901 25.856 50.6735 25.7959 50.464 25.6937C50.2555 25.6099 50.0655 25.4858 49.9048 25.3287C49.8722 25.2967 49.8455 25.2578 49.8146 25.2234C50.1501 25.2049 50.4343 25.1816 50.6442 25.1944C50.9075 25.2084 51.0574 25.2159 51.0574 25.2159C51.3692 25.2172 51.6691 25.0959 51.8924 24.8783C52.1157 24.6606 52.2446 24.364 52.2513 24.0523C52.2581 23.7406 52.1422 23.4386 51.9286 23.2115C51.715 22.9844 51.4207 22.8502 51.1092 22.8378C51.1092 22.8378 50.9447 22.8298 50.6575 22.8158C50.4279 22.803 50.1169 22.8262 49.7507 22.8454C49.7827 22.8071 49.8089 22.7652 49.8443 22.7292C50.0207 22.5502 50.2293 22.4062 50.4593 22.3048C50.7046 22.2158 50.9655 22.1778 51.226 22.1932C53.2515 22.2563 55.2655 22.5228 57.2377 22.9884C57.8167 23.132 58.3927 23.2837 58.9699 23.4337C59.3466 23.5674 59.5977 23.6569 59.5977 23.6569C59.8617 23.749 60.1027 23.897 60.3041 24.0908C60.5056 24.2846 60.6628 24.5197 60.7649 24.7799C60.2401 24.5852 59.9163 24.4649 59.9163 24.4649C59.7708 24.4068 59.6149 24.3796 59.4584 24.385C59.3019 24.3904 59.1483 24.4283 59.0072 24.4963C58.8662 24.5644 58.7408 24.661 58.6391 24.7801C58.5374 24.8991 58.4616 25.0381 58.4166 25.188C58.3226 25.4823 58.3421 25.801 58.4713 26.0816C58.6005 26.3621 58.83 26.5842 59.1147 26.704C59.1147 26.704 59.4094 26.8133 59.8872 26.99C59.6699 27.1206 59.4267 27.2021 59.1745 27.2289C58.9224 27.2556 58.6675 27.2268 58.4276 27.1446ZM59.5989 77.859C59.5989 77.859 59.3472 77.9486 58.9706 78.0829C58.5828 78.1828 58.0666 78.3165 57.5499 78.4496C55.4751 78.9424 53.3579 79.235 51.2272 79.3233C50.9665 79.3387 50.7054 79.3007 50.4599 79.2117C50.23 79.1099 50.0214 78.9658 49.8449 78.7868C49.81 78.7507 49.7833 78.7095 49.7519 78.6711C49.9216 78.6798 50.6523 78.7007 50.6523 78.7007C50.8108 78.6958 50.9667 78.6596 51.111 78.5941C51.2553 78.5285 51.3852 78.435 51.4932 78.319C51.6011 78.2029 51.685 78.0666 51.7399 77.9179C51.7949 77.7692 51.8198 77.6111 51.8132 77.4527C51.806 77.1476 51.6788 76.8576 51.459 76.6458C51.2392 76.434 50.9447 76.3174 50.6395 76.3215C50.6395 76.3215 49.9699 76.3018 49.8141 76.2936C49.8449 76.2593 49.8716 76.2198 49.9048 76.1878C50.0656 76.0305 50.2558 75.9062 50.4645 75.8222C50.6741 75.7197 50.9019 75.6596 51.1348 75.6455C53.4152 75.5208 55.6765 75.1598 57.8823 74.5684C58.2102 74.4498 58.4282 74.3719 58.4282 74.3719C58.6687 74.2894 58.9245 74.2607 59.1774 74.2877C59.4302 74.3147 59.6741 74.3968 59.8919 74.5283C59.1821 74.7875 58.7217 74.9561 58.7217 74.9561C58.4384 75.0688 58.2069 75.2827 58.0722 75.5563C57.9376 75.83 57.9093 76.1439 57.9928 76.4372C58.0334 76.5903 58.1057 76.7332 58.2049 76.8567C58.3041 76.9801 58.428 77.0815 58.5687 77.1541C58.7095 77.2268 58.8639 77.2692 59.022 77.2786C59.1801 77.2879 59.3384 77.2641 59.4867 77.2086C59.4867 77.2086 59.9889 77.0243 60.7632 76.7412C60.6608 77.0002 60.5037 77.2341 60.3028 77.427C60.1019 77.6199 59.8618 77.7672 59.5989 77.859ZM71.7565 37.7682C70.5423 35.8328 69.0869 34.0596 67.4254 32.4913C67.1679 32.2565 66.9958 32.1007 66.9958 32.1007C66.6322 31.7427 66.4217 31.2575 66.4087 30.7474C66.6784 30.948 67.3579 31.552 67.3579 31.552C67.5946 31.7486 67.8977 31.8469 68.2048 31.8267C68.5118 31.8065 68.7994 31.6692 69.0082 31.4433C69.1168 31.3295 69.2011 31.1949 69.2562 31.0476C69.3112 30.9003 69.3357 30.7433 69.3282 30.5862C69.3208 30.4292 69.2815 30.2752 69.2128 30.1338C69.1441 29.9923 69.0474 29.8663 68.9286 29.7633C68.9286 29.7633 68.1863 29.1065 67.8933 28.8873C68.168 28.8346 68.4514 28.8486 68.7196 28.9282C68.9877 29.0078 69.2329 29.1507 69.4343 29.3448C71.5263 31.2683 73.3618 33.4533 74.8955 35.8459C75.1671 36.2782 75.2571 36.8002 75.146 37.2986C75.1338 37.3456 75.1106 37.3892 75.0937 37.4352C75.0117 37.2864 74.631 36.6626 74.631 36.6626C74.5524 36.5264 74.4471 36.4076 74.3212 36.3133C74.1954 36.2191 74.0517 36.1514 73.8989 36.1143C73.7461 36.0772 73.5874 36.0716 73.4324 36.0977C73.2773 36.1238 73.1292 36.1811 72.997 36.2662C72.7353 36.4279 72.5458 36.684 72.4676 36.9815C72.3894 37.279 72.4284 37.5952 72.5767 37.8648C72.5767 37.8648 72.9278 38.4355 73.0028 38.5727C72.9563 38.5634 72.9092 38.5599 72.8633 38.5477C72.6364 38.4974 72.4218 38.4026 72.2318 38.2688C72.0418 38.135 71.8803 37.9649 71.7565 37.7682ZM75.3518 48.9016C75.3047 48.2889 75.2334 47.6745 75.1379 47.0584C75.1063 46.8282 75.1208 46.5941 75.1805 46.3696C75.2402 46.145 75.3438 45.9346 75.4855 45.7505C75.5128 45.7127 75.5459 45.6801 75.5756 45.6435C75.6401 45.9714 75.7674 46.8712 75.7674 46.8712C75.8286 47.1742 76.0021 47.4429 76.253 47.6235C76.504 47.804 76.8139 47.8831 77.1207 47.8449C77.2762 47.8284 77.4267 47.78 77.5627 47.7028C77.6988 47.6256 77.8174 47.5211 77.9113 47.396C78.0052 47.2709 78.0722 47.1277 78.1083 46.9755C78.1444 46.8233 78.1487 46.6653 78.121 46.5114C78.121 46.5114 77.9798 45.5278 77.9083 45.1686C77.9513 45.1942 77.9978 45.2128 78.0379 45.2418C78.4431 45.552 78.7096 46.0094 78.7797 46.5149C79.2145 49.3265 79.2145 52.1883 78.7797 54.9999C78.7097 55.5059 78.4432 55.9639 78.0379 56.2747C77.9989 56.3025 77.9537 56.3212 77.9123 56.3456C77.9397 56.1782 78.0519 55.4562 78.0519 55.4562C78.0792 55.3014 78.0749 55.1427 78.039 54.9897C78.0032 54.8366 77.9366 54.6925 77.8433 54.5659C77.75 54.4394 77.6319 54.3332 77.4963 54.2537C77.3607 54.1742 77.2103 54.1231 77.0544 54.1036C76.7498 54.0596 76.44 54.1343 76.1888 54.3121C75.9377 54.4899 75.7644 54.7573 75.7047 55.0592C75.7047 55.0592 75.6029 55.7219 75.5785 55.8753C75.5483 55.8381 75.5139 55.8044 75.4855 55.7661C75.344 55.5819 75.2405 55.3716 75.1808 55.1472C75.1211 54.9228 75.1065 54.6888 75.1379 54.4587C75.4225 52.6207 75.4943 50.756 75.3518 48.9016ZM74.8961 65.6706C73.3642 68.0643 71.5285 70.2494 69.4348 72.1711C69.2332 72.3656 68.9876 72.5086 68.719 72.5881C68.4504 72.6677 68.1666 72.6813 67.8916 72.628C68.0282 72.5269 68.5903 72.0595 68.5903 72.0595C68.8239 71.8531 68.9673 71.5633 68.9895 71.2523C69.0117 70.9414 68.911 70.6341 68.7091 70.3966C68.5071 70.1591 68.2201 70.0103 67.9096 69.9822C67.5991 69.9542 67.29 70.049 67.0487 70.2465C67.0487 70.2465 66.5342 70.6749 66.4092 70.7679C66.4224 70.258 66.6329 69.7731 66.9964 69.4152C68.8136 67.7322 70.413 65.8282 71.7571 63.7477C71.8808 63.551 72.0424 63.3809 72.2324 63.2472C72.4224 63.1135 72.637 63.0189 72.8639 62.9688C72.9086 62.9571 72.9551 62.9531 73.0005 62.9443C72.8412 63.2379 72.3593 64.0081 72.3593 64.0081C72.2114 64.2796 72.1715 64.597 72.2477 64.8967C72.3239 65.1964 72.5106 65.4562 72.7703 65.6241C72.9002 65.7113 73.0467 65.7709 73.2006 65.799C73.3545 65.8271 73.5125 65.8232 73.6649 65.7875C73.8172 65.7519 73.9605 65.6852 74.086 65.5917C74.2114 65.4981 74.3162 65.3798 74.3938 65.2439C74.3938 65.2439 74.9193 64.4005 75.0931 64.0784C75.1106 64.1249 75.1338 64.1692 75.1466 64.2174C75.2576 64.7159 75.1676 65.238 74.8961 65.6706Z" fill="#3A576A"/>
<path d="M44.7051 76.8737C44.9266 75.8072 44.7784 74.697 44.2848 73.726C44.057 73.2958 43.766 72.9022 43.4216 72.5582C43.0921 72.2077 42.6852 71.9392 42.2334 71.774C41.0414 71.3513 39.8968 70.805 38.8184 70.1441C37.6395 69.414 36.552 68.1206 35.1586 67.7655C34.6782 67.6332 34.1778 67.5887 33.6815 67.6341C33.0131 67.6639 32.3588 67.8359 31.7621 68.1387C31.4389 67.7789 31.1053 67.401 30.7583 67.0337C30.538 66.7395 30.3202 66.4485 30.1049 66.1606C30.5105 65.629 30.7993 65.0177 30.9524 64.3667C31.0577 63.8854 31.0958 63.3919 31.0658 62.9001C31.0266 62.423 30.8757 61.9618 30.6252 61.5539C30.6252 61.5539 30.2601 60.7959 29.8945 60.0384C29.2568 58.7547 28.7761 57.3989 28.4627 56.0002C28.1849 54.679 27.8902 53.7512 26.7701 52.888C26.2374 52.4806 25.6238 52.1916 24.9704 52.0405C24.9454 51.5563 24.9053 51.0552 24.9158 50.5495C24.9402 50.1886 24.9564 49.8299 24.9715 49.4765C25.6244 49.3252 26.2374 49.0363 26.7695 48.6289C27.9687 47.7041 28.2593 46.3974 28.6639 45.0198C29.178 43.2833 29.834 41.5921 30.6252 39.9631C31.0532 39.0908 31.1687 38.0981 30.9524 37.1508C30.7991 36.4996 30.5103 35.888 30.1049 35.3558C30.2252 35.1948 30.3455 35.0332 30.4705 34.8664L31.0408 34.1735C31.2843 33.9061 31.5255 33.6405 31.7633 33.3795C32.3596 33.6813 33.0133 33.8529 33.6809 33.8828C34.1774 33.9281 34.678 33.8834 35.1586 33.7509C35.6126 33.6051 36.0385 33.3834 36.4183 33.0952C36.4183 33.0952 37.0931 32.5895 37.768 32.0843C39.1551 31.1248 40.6543 30.3385 42.2323 29.7429C42.6842 29.5773 43.0912 29.3087 43.421 28.9582C43.7654 28.6142 44.0564 28.2206 44.2842 27.7903C44.778 26.8194 44.9262 25.7092 44.7045 24.6427C44.6227 24.2668 44.4841 23.9056 44.2935 23.5714C44.2868 23.5565 44.279 23.5422 44.2703 23.5284C43.9114 22.9174 43.3832 22.4233 42.7496 22.1059C42.2258 21.8295 41.6455 21.6772 41.0534 21.6607C40.4144 21.6577 39.7802 21.7709 39.1817 21.9949C39.1817 21.9949 38.9114 22.0955 38.5056 22.2461C36.566 22.9788 34.7367 23.9757 33.0695 25.2083C32.1458 25.8977 31.2215 26.5865 31.2215 26.5865C30.7125 26.9769 30.3 27.4791 30.0159 28.0543C29.7417 28.5678 29.5742 29.1316 29.5236 29.7115C29.492 30.4278 29.6642 31.1382 30.0201 31.7606C29.7602 32.0465 29.4968 32.336 29.2301 32.629L28.6075 33.3858C28.4744 33.5631 28.3459 33.734 28.2169 33.9067C27.5443 33.6668 26.8173 33.6231 26.1208 33.7805C25.5466 33.9052 25.011 34.1666 24.5594 34.5426C23.8807 35.1046 23.3427 35.8175 22.9882 36.6242C21.8566 38.9593 20.9661 41.4036 20.3305 43.9193C19.9759 45.3243 19.9667 46.9083 20.9002 48.1093C21.3359 48.6766 21.9228 49.1096 22.5935 49.3584C22.5767 49.7439 22.5592 50.1362 22.5348 50.5303C22.5238 51.0825 22.5656 51.6307 22.5923 52.1585C21.9222 52.4078 21.3358 52.8407 20.9002 53.4077C20.5496 53.9104 20.3037 54.4785 20.1769 55.0781C20.0502 55.6778 20.0453 56.2968 20.1626 56.8983C20.4265 58.2741 20.8187 59.6222 21.3339 60.9249C21.8093 62.2783 22.3618 63.6033 22.9888 64.8934C23.3442 65.6994 23.8821 66.4118 24.56 66.9743C25.0113 67.3503 25.5468 67.6117 26.1208 67.7364C26.8177 67.894 27.5451 67.85 28.218 67.6097C28.4505 67.919 28.6854 68.2321 28.9226 68.5491C29.2998 68.9525 29.6649 69.3664 30.0189 69.7581C29.6636 70.3803 29.4919 71.0903 29.5236 71.806C29.5749 72.3857 29.7425 72.9492 30.0165 73.4627C30.3007 74.0378 30.7132 74.54 31.2221 74.9305C33.7809 76.7074 36.2421 78.4286 39.1828 79.5214C39.7813 79.7457 40.4155 79.8591 41.0546 79.8562C41.6467 79.8393 42.227 79.6866 42.7508 79.4098C43.247 79.1623 43.6807 78.8055 44.0192 78.3662C44.3577 77.9269 44.5922 77.4166 44.7051 76.8737ZM32.6718 28.403C34.7885 26.86 37.0432 25.5157 39.4073 24.3875C39.7827 24.2492 40.0333 24.1573 40.0333 24.1573C40.2931 24.0579 40.5713 24.0156 40.8489 24.0332C41.1265 24.0509 41.3971 24.1281 41.6423 24.2596C41.4836 24.3189 40.7965 24.5695 40.7965 24.5695C40.6483 24.6189 40.5119 24.6986 40.396 24.8033C40.28 24.9081 40.187 25.0357 40.1228 25.1782C40.0586 25.3206 40.0246 25.4748 40.0229 25.6311C40.0212 25.7873 40.0518 25.9423 40.1129 26.0861C40.229 26.373 40.4488 26.6057 40.7286 26.7379C41.0084 26.8702 41.3277 26.8923 41.6231 26.7999C41.6231 26.7999 42.2532 26.5702 42.3997 26.5151C42.3179 26.7562 42.1844 26.9765 42.0084 27.1605C41.8325 27.3446 41.6185 27.4879 41.3813 27.5805C41.3813 27.5805 41.1627 27.6596 40.8355 27.7788C39.2715 28.3659 37.7975 29.1693 36.4566 30.1655C35.7126 30.7218 34.968 31.2787 34.968 31.2787C34.599 31.5538 34.1445 31.6895 33.6851 31.6618C33.6391 31.6583 33.5932 31.6449 33.5467 31.6379C33.7908 31.4164 34.4884 30.8259 34.4884 30.8259C34.7261 30.6332 34.8791 30.3553 34.9146 30.0513C34.9501 29.7474 34.8653 29.4417 34.6784 29.1994C34.5841 29.0725 34.4654 28.9657 34.3293 28.8854C34.1931 28.805 34.0423 28.7527 33.8856 28.7314C33.7289 28.7102 33.5696 28.7205 33.4169 28.7617C33.2643 28.803 33.1214 28.8743 32.9968 28.9715C32.9968 28.9715 32.2394 29.6121 31.9679 29.8574C31.9685 29.808 31.9615 29.7592 31.9656 29.7104C31.9818 29.4543 32.0533 29.2049 32.1752 28.9792C32.2971 28.7535 32.4666 28.5569 32.6718 28.403ZM22.4418 45.0784C22.4492 45.0178 22.4619 44.9579 22.4796 44.8994C23.1805 42.2734 24.1133 39.7148 25.2668 37.2537C25.3162 37.1485 25.3499 37.0909 25.3499 37.0909C25.4924 36.8495 25.6846 36.6412 25.9137 36.4796C26.1428 36.3181 26.4036 36.2071 26.6788 36.1539C26.3893 36.63 26.2108 36.9236 26.2108 36.9236C26.1289 37.0592 26.0761 37.2105 26.0559 37.3677C26.0357 37.525 26.0485 37.6847 26.0934 37.8367C26.1384 37.9887 26.2145 38.1296 26.317 38.2506C26.4195 38.3715 26.5461 38.4697 26.6887 38.539C26.9602 38.6772 27.2736 38.7092 27.5675 38.6287C27.8614 38.5482 28.1147 38.3609 28.2779 38.1036C28.2779 38.1036 28.4418 37.8339 28.7075 37.3967C28.7964 37.6331 28.8313 37.8864 28.8098 38.138C28.7883 38.3896 28.7108 38.6333 28.5831 38.8511C27.9153 39.9789 27.381 41.1806 26.9909 42.4318C26.5868 43.5291 26.2725 44.6574 26.051 45.8056C26.0089 46.0544 25.9118 46.2906 25.7668 46.4971C25.6218 46.7036 25.4325 46.875 25.2128 46.999C25.3261 46.2526 25.3999 45.7684 25.3999 45.7684C25.4542 45.4616 25.386 45.1457 25.21 44.8886C25.034 44.6314 24.7642 44.4535 24.4586 44.393C24.1529 44.3326 23.8357 44.3943 23.575 44.5651C23.3144 44.7358 23.131 45.0019 23.0643 45.3063C23.0643 45.3063 22.983 45.8347 22.858 46.6485C22.6812 46.4313 22.5527 46.1789 22.481 45.9082C22.4092 45.6376 22.3958 45.3547 22.4418 45.0784ZM25.3476 64.4283C25.0556 63.9183 24.8045 63.3859 24.5966 62.8362C24.206 61.9538 23.8543 61.0534 23.5364 60.1419C23.1712 59.2002 22.857 58.2395 22.5952 57.264C22.479 56.8523 22.4212 56.4263 22.4238 55.9985C22.433 55.7785 22.4802 55.5618 22.5633 55.3579C22.6022 55.2649 22.8702 54.9458 22.8586 54.8679C22.9428 55.4184 22.9946 55.7584 22.9946 55.7584C23.0186 55.915 23.0751 56.0649 23.1604 56.1984C23.2457 56.3319 23.3579 56.4461 23.4899 56.5337C23.6219 56.6213 23.7707 56.6804 23.9269 56.7071C24.083 56.7339 24.243 56.7278 24.3967 56.6891C24.6937 56.6205 24.9545 56.4438 25.1284 56.1934C25.3022 55.9431 25.3767 55.6369 25.3372 55.3347C25.3372 55.3347 25.2895 55.0231 25.2128 54.518C25.4328 54.6419 25.6223 54.8134 25.7674 55.0199C25.9125 55.2265 26.0096 55.4629 26.0516 55.7119C26.0574 55.7648 26.0683 55.8169 26.0841 55.8677C26.4585 57.1581 26.7596 58.4719 27.2304 59.7321C27.6077 60.7406 28.1152 61.698 28.5831 62.6659C28.7108 62.8836 28.7883 63.1271 28.8099 63.3786C28.8315 63.6301 28.7967 63.8833 28.708 64.1196C28.3151 63.4745 28.0599 63.0559 28.0599 63.0559C27.9122 62.7895 27.6665 62.5912 27.375 62.5031C27.0835 62.415 26.7691 62.444 26.4986 62.5839C26.3562 62.6539 26.2294 62.7517 26.1255 62.8716C26.0217 62.9914 25.943 63.1309 25.894 63.2818C25.8451 63.4326 25.8269 63.5918 25.8406 63.7498C25.8543 63.9078 25.8995 64.0614 25.9737 64.2016C25.9737 64.2016 26.2509 64.6579 26.6788 65.3624C26.6003 65.2328 25.9033 65.0462 25.7249 64.8829C25.5808 64.7476 25.4541 64.5949 25.3476 64.4283ZM40.0345 77.3596C40.0345 77.3596 39.7839 77.2672 39.4084 77.1289C36.8803 76.1988 34.8546 74.6287 32.6724 73.1145C32.4672 72.9605 32.2977 72.7638 32.1757 72.538C32.0537 72.3122 31.982 72.0627 31.9656 71.8066C31.9615 71.7566 31.9685 71.7078 31.9685 71.6584C32.3818 72.0327 32.6364 72.2641 32.6364 72.2641C32.7606 72.3628 32.9032 72.4358 33.0559 72.4788C33.2086 72.5218 33.3684 72.5339 33.5258 72.5144C33.6832 72.4949 33.8352 72.4442 33.9729 72.3653C34.1105 72.2864 34.231 72.1808 34.3274 72.0548C34.5169 71.8164 34.6053 71.5131 34.5735 71.2101C34.5418 70.9072 34.3924 70.6288 34.1576 70.4348C34.1576 70.4348 33.9245 70.2226 33.5467 69.879C33.5932 69.8721 33.6391 69.8587 33.6856 69.8552C34.1451 69.8273 34.5996 69.963 34.9685 70.2383C36.8334 71.5511 38.7948 72.7211 40.836 73.7382C41.1633 73.8568 41.3818 73.9359 41.3818 73.9359C41.6189 74.0285 41.8329 74.1717 42.0089 74.3557C42.1848 74.5396 42.3184 74.7598 42.4003 75.0008C41.6905 74.741 41.2307 74.5724 41.2307 74.5724C40.9437 74.4739 40.6298 74.4904 40.3547 74.6183C40.0647 74.7393 39.8334 74.969 39.7102 75.2582C39.5871 75.5474 39.5818 75.8732 39.6955 76.1663C39.7582 76.3109 39.8503 76.441 39.9658 76.5483C40.0814 76.6556 40.218 76.7377 40.3669 76.7894C40.3669 76.7894 40.8691 76.9725 41.6434 77.2556C41.3984 77.3873 41.1279 77.4647 40.8503 77.4827C40.5727 77.5006 40.2944 77.4587 40.0345 77.3596Z" fill="#3A576A"/>
<path d="M43.4181 17.8324C43.518 18.132 43.7327 18.3796 44.0151 18.5208C44.2975 18.6621 44.6244 18.6853 44.924 18.5855C45.2235 18.4857 45.4712 18.2709 45.6124 17.9885C45.7536 17.7061 45.7769 17.3792 45.6771 17.0796L44.4866 13.5117C44.3867 13.2124 44.172 12.965 43.8897 12.8239C43.6075 12.6828 43.2807 12.6595 42.9813 12.7592C42.682 12.8589 42.4344 13.0734 42.2931 13.3555C42.1517 13.6377 42.1282 13.9644 42.2277 14.2638L43.4181 17.8324Z" fill="#B4EDFF"/>
<path d="M39.5394 19.4862C39.6498 19.5969 39.7809 19.6848 39.9252 19.7448C40.0696 19.8048 40.2244 19.8358 40.3807 19.836C40.5371 19.8361 40.6919 19.8055 40.8364 19.7458C40.9809 19.686 41.1122 19.5984 41.2228 19.4879C41.3334 19.3775 41.4211 19.2463 41.481 19.1018C41.5409 18.9574 41.5717 18.8026 41.5717 18.6463C41.5717 18.4899 41.5409 18.3351 41.481 18.1907C41.4212 18.0463 41.3334 17.9151 41.2228 17.8046L38.8419 15.4259C38.7315 15.3152 38.6004 15.2273 38.456 15.1673C38.3117 15.1073 38.1569 15.0763 38.0005 15.0762C37.8442 15.076 37.6894 15.1067 37.5449 15.1664C37.4004 15.2261 37.2691 15.3137 37.1585 15.4242C37.0479 15.5347 36.9601 15.6659 36.9003 15.8103C36.8404 15.9547 36.8096 16.1095 36.8096 16.2659C36.8096 16.4222 36.8404 16.577 36.9002 16.7215C36.9601 16.8659 37.0478 16.9971 37.1584 17.1076L39.5394 19.4862Z" fill="#3A576A"/>
<path d="M48.2717 17.966C48.4123 18.0217 48.5622 18.0504 48.7135 18.0508C48.9514 18.0508 49.1839 17.9796 49.381 17.8464C49.5781 17.7132 49.7309 17.5241 49.8197 17.3033L51.0101 14.3295C51.1269 14.0363 51.1225 13.7088 50.998 13.4189C50.8734 13.129 50.6389 12.9003 50.3459 12.7832C50.0528 12.6662 49.7253 12.6702 49.4353 12.7944C49.1452 12.9187 48.9163 13.153 48.7989 13.4459L47.6085 16.4192C47.4913 16.7122 47.4954 17.0398 47.6197 17.3299C47.7441 17.62 47.9786 17.8488 48.2717 17.966Z" fill="#3A576A"/>
<path d="M45.3738 83.8159C45.3539 83.6609 45.3036 83.5113 45.2259 83.3757C45.1482 83.2401 45.0445 83.1211 44.9208 83.0256C44.797 82.93 44.6557 82.8598 44.5049 82.8189C44.354 82.7779 44.1966 82.7671 44.0415 82.7871C43.8865 82.807 43.7369 82.8572 43.6013 82.935C43.4657 83.0127 43.3467 83.1164 43.2511 83.2401C43.0582 83.49 42.9724 83.8063 43.0126 84.1194L43.4928 87.85C43.5298 88.1366 43.6699 88.3999 43.8868 88.5908C44.1037 88.7818 44.3827 88.8873 44.6716 88.8876C44.723 88.8878 44.7742 88.8845 44.8251 88.8778C44.9801 88.858 45.1297 88.8079 45.2653 88.7303C45.4009 88.6527 45.5199 88.5491 45.6155 88.4255C45.711 88.3019 45.7813 88.1606 45.8222 88.0098C45.8631 87.859 45.8739 87.7016 45.854 87.5466L45.3738 83.8159Z" fill="#B4EDFF"/>
<path d="M49.4994 82.9396C49.3232 82.6782 49.0505 82.4973 48.7411 82.4367C48.4317 82.3762 48.1109 82.4408 47.8492 82.6165C47.5874 82.7922 47.406 83.0646 47.3449 83.3739C47.2837 83.6831 47.3478 84.004 47.523 84.2661L49.4005 87.058C49.5764 87.3201 49.8492 87.5016 50.159 87.5626C50.4687 87.6235 50.7899 87.5589 51.052 87.383C51.3141 87.2071 51.4956 86.9343 51.5565 86.6246C51.6174 86.3149 51.5529 85.9936 51.377 85.7316L49.4994 82.9396Z" fill="#3A576A"/>
<path d="M40.6372 82.7516C40.3721 82.5805 40.05 82.5214 39.7414 82.5873C39.4329 82.6533 39.163 82.8388 38.991 83.1033L37.2494 85.7918C37.1646 85.923 37.1063 86.0696 37.0781 86.2233C37.0499 86.3771 37.0523 86.5348 37.085 86.6876C37.1178 86.8405 37.1803 86.9853 37.2691 87.114C37.3578 87.2426 37.4711 87.3525 37.6023 87.4374C37.7335 87.5223 37.8801 87.5805 38.0339 87.6087C38.1876 87.6369 38.3453 87.6346 38.4982 87.6018C38.651 87.569 38.7958 87.5065 38.9245 87.4177C39.0531 87.329 39.163 87.2158 39.2479 87.0846L40.9894 84.3961C41.0744 84.265 41.1327 84.1185 41.161 83.9649C41.1893 83.8113 41.187 83.6536 41.1543 83.5008C41.1216 83.3481 41.059 83.2033 40.9703 83.0748C40.8816 82.9462 40.7684 82.8364 40.6372 82.7516Z" fill="#3A576A"/>
<path d="M1.69048 90.0787C2.34796 90.0787 2.88095 89.5457 2.88095 88.8882C2.88095 88.2307 2.34796 87.6978 1.69048 87.6978C1.03299 87.6978 0.5 88.2307 0.5 88.8882C0.5 89.5457 1.03299 90.0787 1.69048 90.0787Z" fill="#3A576A"/>
<path d="M7.04748 87.6973H5.26177C4.94603 87.6973 4.64323 87.8227 4.41997 88.0459C4.19671 88.2692 4.07129 88.572 4.07129 88.8877C4.07129 89.2035 4.19671 89.5063 4.41997 89.7295C4.64323 89.9528 4.94603 90.0782 5.26177 90.0782H7.04748C7.36321 90.0782 7.66602 89.9528 7.88927 89.7295C8.11253 89.5063 8.23796 89.2035 8.23796 88.8877C8.23796 88.572 8.11253 88.2692 7.88927 88.0459C7.66602 87.8227 7.36321 87.6973 7.04748 87.6973Z" fill="#3A576A"/>
<path d="M95.7379 87.6973H93.9522C93.6365 87.6973 93.3337 87.8227 93.1104 88.0459C92.8871 88.2692 92.7617 88.572 92.7617 88.8877C92.7617 89.2035 92.8871 89.5063 93.1104 89.7295C93.3337 89.9528 93.6365 90.0782 93.9522 90.0782H95.7379C96.0536 90.0782 96.3564 89.9528 96.5797 89.7295C96.803 89.5063 96.9284 89.2035 96.9284 88.8877C96.9284 88.572 96.803 88.2692 96.5797 88.0459C96.3564 87.8227 96.0536 87.6973 95.7379 87.6973Z" fill="#3A576A"/>
<path d="M99.3096 90.0787C99.9671 90.0787 100.5 89.5457 100.5 88.8882C100.5 88.2307 99.9671 87.6978 99.3096 87.6978C98.6521 87.6978 98.1191 88.2307 98.1191 88.8882C98.1191 89.5457 98.6521 90.0787 99.3096 90.0787Z" fill="#3A576A"/>
<path d="M90.215 87.6974H88.5881C88.5968 87.5791 88.5877 87.4601 88.5609 87.3445L87.5256 83.1383C87.4497 82.8323 87.2555 82.5689 86.9857 82.4058C86.7158 82.2428 86.3923 82.1935 86.0861 82.2687C85.7799 82.3439 85.5161 82.5375 85.3524 82.807C85.1888 83.0765 85.1388 83.3999 85.2133 83.7062L85.2301 83.7737L81.1036 79.6512C80.9932 79.5406 80.862 79.4529 80.7177 79.3931C80.5734 79.3332 80.4187 79.3023 80.2625 79.3022C80.1062 79.3022 79.9515 79.3329 79.8071 79.3926C79.6627 79.4523 79.5315 79.5398 79.421 79.6503C79.3105 79.7607 79.2227 79.8918 79.1629 80.0361C79.103 80.1804 79.0722 80.3351 79.0721 80.4914C79.072 80.6476 79.1027 80.8023 79.1624 80.9467C79.2221 81.0911 79.3097 81.2223 79.4201 81.3328L83.5467 85.456L83.4793 85.4396C83.1863 85.3665 82.8765 85.4077 82.613 85.555C82.3494 85.7023 82.1519 85.9445 82.0607 86.2323C81.9694 86.5201 81.9914 86.8319 82.122 87.1041C82.2526 87.3763 82.482 87.5885 82.7636 87.6974H18.2362C18.5178 87.5885 18.7473 87.3763 18.8779 87.1041C19.0085 86.8319 19.0304 86.5201 18.9392 86.2323C18.848 85.9445 18.6504 85.7023 18.3869 85.555C18.1233 85.4077 17.8135 85.3665 17.5206 85.4396L17.4531 85.456L21.5798 81.3328C21.6902 81.2223 21.7777 81.0911 21.8375 80.9467C21.8972 80.8023 21.9279 80.6476 21.9278 80.4914C21.9277 80.3351 21.8968 80.1804 21.837 80.0361C21.7771 79.8918 21.6894 79.7607 21.5789 79.6503C21.4683 79.5398 21.3371 79.4523 21.1927 79.3926C21.0483 79.3329 20.8936 79.3022 20.7374 79.3022C20.5811 79.3023 20.4264 79.3332 20.2821 79.3931C20.1378 79.4529 20.0067 79.5406 19.8963 79.6512L15.7698 83.7737L15.7866 83.7062C15.8611 83.3999 15.811 83.0765 15.6474 82.807C15.4838 82.5375 15.2199 82.3439 14.9137 82.2687C14.6076 82.1935 14.284 82.2428 14.0142 82.4058C13.7443 82.5689 13.5501 82.8323 13.4743 83.1383L12.439 87.3445C12.4122 87.4601 12.403 87.5791 12.4118 87.6974H10.7849C10.6155 87.6753 10.4434 87.6896 10.28 87.7393C10.1165 87.789 9.96562 87.873 9.83726 87.9856C9.7089 88.0983 9.60606 88.2371 9.53561 88.3927C9.46515 88.5483 9.42871 88.7171 9.42871 88.8879C9.42871 89.0587 9.46515 89.2275 9.53561 89.3831C9.60606 89.5387 9.7089 89.6775 9.83726 89.7902C9.96562 89.9029 10.1165 89.9868 10.28 90.0365C10.4434 90.0862 10.6155 90.1005 10.7849 90.0784H90.215C90.3844 90.1005 90.5565 90.0862 90.7199 90.0365C90.8833 89.9868 91.0342 89.9029 91.1626 89.7902C91.291 89.6775 91.3938 89.5387 91.4642 89.3831C91.5347 89.2275 91.5711 89.0587 91.5711 88.8879C91.5711 88.7171 91.5347 88.5483 91.4642 88.3927C91.3938 88.2371 91.291 88.0983 91.1626 87.9856C91.0342 87.873 90.8833 87.789 90.7199 87.7393C90.5565 87.6896 90.3844 87.6753 90.215 87.6974Z" fill="#3A576A"/>
</g>
<defs>
<clipPath id="clip0_146_10811">
<rect width="100" height="100" fill="white" transform="translate(0.5)"/>
</clipPath>
</defs>
</svg>
