<svg width="101" height="100" viewBox="0 0 101 100" fill="none" xmlns="http://www.w3.org/2000/svg">
<g clip-path="url(#clip0_146_8676)">
<path d="M44.5474 79.0179V62.3512C44.5468 61.7199 44.2957 61.1147 43.8493 60.6684C43.403 60.222 42.7977 59.9709 42.1665 59.9702H32.6427C32.0114 59.9709 31.4062 60.222 30.9598 60.6684C30.5135 61.1147 30.2624 61.7199 30.2617 62.3512V79.0179C30.2624 79.6491 30.5135 80.2543 30.9598 80.7007C31.4062 81.1471 32.0114 81.3981 32.6427 81.3988H42.1665C42.7977 81.3981 43.403 81.1471 43.8493 80.7007C44.2957 80.2543 44.5468 79.6491 44.5474 79.0179ZM32.6427 62.3512H42.1665L42.1679 79.0179H32.6427V62.3512Z" fill="#FDB549"/>
<path d="M61.3595 54.9345L54.5689 61.9233C54.349 62.1498 54.228 62.4544 54.2325 62.7701C54.2371 63.0858 54.3669 63.3867 54.5933 63.6067C54.8224 63.8216 55.1259 63.9391 55.4399 63.9346C55.754 63.93 56.054 63.8037 56.2767 63.5823L63.0673 56.5935C63.2866 56.3669 63.4071 56.0626 63.4022 55.7472C63.3973 55.4319 63.2676 55.1314 63.0414 54.9117C62.8152 54.692 62.511 54.571 62.1957 54.5752C61.8804 54.5795 61.5796 54.7087 61.3595 54.9345Z" fill="#466B83"/>
<path d="M55.339 54.3788L52.6226 57.1742C52.4027 57.4007 52.2817 57.7053 52.2863 58.021C52.2908 58.3367 52.4206 58.6376 52.647 58.8576C52.8774 59.0698 53.1804 59.1854 53.4936 59.1809C53.8067 59.1764 54.1062 59.0519 54.3304 58.8332L57.0468 56.0378C57.2661 55.8112 57.3865 55.5069 57.3817 55.1915C57.3768 54.8762 57.247 54.5757 57.0208 54.356C56.7946 54.1362 56.4905 54.0152 56.1752 54.0195C55.8598 54.0238 55.5591 54.153 55.339 54.3788Z" fill="#FDB549"/>
<path d="M60.7955 64.3956C61.0244 64.6107 61.328 64.7285 61.6421 64.7239C61.9562 64.7193 62.2563 64.5929 62.4789 64.3712L65.0441 61.731C65.2634 61.5044 65.3838 61.2 65.379 60.8847C65.3741 60.5694 65.2444 60.2689 65.0182 60.0491C64.792 59.8294 64.4878 59.7084 64.1725 59.7127C63.8572 59.7169 63.5564 59.8462 63.3363 60.072L60.771 62.7122C60.5511 62.9387 60.4301 63.2433 60.4347 63.5589C60.4393 63.8746 60.569 64.1756 60.7955 64.3956Z" fill="#FDB549"/>
<path d="M46.9287 76.6369H78.4763C79.4232 76.6359 80.331 76.2593 81.0005 75.5897C81.6701 74.9202 82.0467 74.0124 82.0477 73.0655V45.6845C82.0467 44.7376 81.6701 43.8298 81.0005 43.1603C80.331 42.4907 79.4232 42.1141 78.4763 42.1131H39.1906C38.2437 42.1141 37.3359 42.4907 36.6663 43.1603C35.9968 43.8298 35.6202 44.7376 35.6191 45.6845V57.5893H38.0001V45.6845C38.0005 45.3689 38.126 45.0663 38.3492 44.8431C38.5724 44.62 38.8749 44.4944 39.1906 44.4941H78.4763C78.7919 44.4945 79.0945 44.62 79.3176 44.8432C79.5408 45.0664 79.6663 45.3689 79.6668 45.6845V73.0655C79.6663 73.3811 79.5408 73.6837 79.3176 73.9068C79.0945 74.13 78.7919 74.2555 78.4763 74.256H46.9287V76.6369Z" fill="#FDB549"/>
<path d="M80.857 79.0178H46.9284C46.9284 79.8543 46.7068 80.6758 46.2861 81.3988H80.857C81.1727 81.3988 81.4755 81.2734 81.6988 81.0501C81.922 80.8268 82.0474 80.524 82.0474 80.2083C82.0474 79.8926 81.922 79.5898 81.6988 79.3665C81.4755 79.1432 81.1727 79.0178 80.857 79.0178Z" fill="#466B83"/>
<path d="M85.0231 34.9702H21.9279C20.981 34.9713 20.0732 35.3479 19.4036 36.0174C18.7341 36.687 18.3575 37.5948 18.3564 38.5417V52.8274H20.7374V38.5417C20.7378 38.2261 20.8633 37.9235 21.0865 37.7003C21.3097 37.4771 21.6123 37.3516 21.9279 37.3512H85.0231C85.3387 37.3516 85.6413 37.4772 85.8645 37.7003C86.0876 37.9235 86.2132 38.2261 86.2136 38.5417V74.256C86.2132 74.5716 86.0876 74.8741 85.8645 75.0973C85.6413 75.3205 85.3387 75.446 85.0231 75.4464H83.9274C83.5113 76.3903 82.8583 77.2105 82.0316 77.8274H85.0231C85.97 77.8264 86.8778 77.4497 87.5474 76.7802C88.2169 76.1106 88.5935 75.2028 88.5945 74.256V38.5417C88.5935 37.5948 88.2169 36.687 87.5474 36.0174C86.8778 35.3479 85.97 34.9713 85.0231 34.9702Z" fill="#466B83"/>
<path d="M23.1842 24.5536C23.5373 24.5536 23.8826 24.4488 24.1762 24.2526C24.4699 24.0564 24.6988 23.7775 24.8339 23.4512C24.9691 23.1249 25.0045 22.7659 24.9356 22.4195C24.8667 22.0731 24.6966 21.7549 24.4468 21.5052C24.1971 21.2554 23.8789 21.0854 23.5325 21.0165C23.1861 20.9476 22.8271 20.9829 22.5008 21.1181C22.1745 21.2532 21.8956 21.4821 21.6994 21.7758C21.5032 22.0694 21.3984 22.4147 21.3984 22.7679C21.399 23.2413 21.5873 23.6952 21.9221 24.03C22.2568 24.3647 22.7107 24.553 23.1842 24.5536ZM23.1842 21.875C23.3607 21.875 23.5334 21.9274 23.6802 22.0255C23.827 22.1236 23.9415 22.263 24.009 22.4262C24.0766 22.5893 24.0943 22.7689 24.0599 22.9421C24.0254 23.1152 23.9404 23.2743 23.8155 23.3992C23.6906 23.5241 23.5315 23.6091 23.3583 23.6436C23.1851 23.678 23.0056 23.6603 22.8425 23.5928C22.6793 23.5252 22.5399 23.4107 22.4418 23.2639C22.3437 23.1171 22.2913 22.9445 22.2913 22.7679C22.2915 22.5311 22.3857 22.3042 22.5531 22.1368C22.7205 21.9694 22.9474 21.8752 23.1842 21.875Z" fill="#466B83"/>
<path d="M95.208 33.8772C94.9726 33.8772 94.7424 33.947 94.5467 34.0778C94.3509 34.2086 94.1983 34.3945 94.1082 34.6121C94.0181 34.8296 93.9945 35.069 94.0405 35.2999C94.0864 35.5308 94.1998 35.7429 94.3663 35.9094C94.5328 36.0759 94.7449 36.1893 94.9758 36.2352C95.2067 36.2812 95.4461 36.2576 95.6636 36.1675C95.8812 36.0774 96.0671 35.9248 96.1979 35.729C96.3287 35.5333 96.3985 35.3031 96.3985 35.0676C96.3982 34.752 96.2726 34.4494 96.0495 34.2262C95.8263 34.0031 95.5237 33.8775 95.208 33.8772ZM95.208 35.6629C95.0903 35.6629 94.9752 35.628 94.8774 35.5626C94.7795 35.4972 94.7032 35.4042 94.6581 35.2954C94.6131 35.1867 94.6013 35.067 94.6243 34.9515C94.6472 34.8361 94.7039 34.73 94.7872 34.6467C94.8704 34.5635 94.9765 34.5068 95.0919 34.4838C95.2074 34.4609 95.3271 34.4727 95.4358 34.5177C95.5446 34.5628 95.6376 34.6391 95.703 34.7369C95.7684 34.8348 95.8033 34.9499 95.8033 35.0676C95.8031 35.2255 95.7404 35.3768 95.6288 35.4884C95.5172 35.6 95.3659 35.6627 95.208 35.6629Z" fill="#466B83"/>
<path d="M5.79106 14.2343C5.55561 14.2343 5.32544 14.3041 5.12967 14.4349C4.9339 14.5658 4.78131 14.7517 4.69121 14.9692C4.6011 15.1867 4.57753 15.4261 4.62346 15.657C4.6694 15.888 4.78278 16.1001 4.94927 16.2666C5.11576 16.4331 5.32788 16.5465 5.55881 16.5924C5.78974 16.6383 6.02911 16.6148 6.24664 16.5246C6.46417 16.4345 6.6501 16.282 6.78091 16.0862C6.91172 15.8904 6.98154 15.6602 6.98154 15.4248C6.98118 15.1092 6.85564 14.8066 6.63246 14.5834C6.40928 14.3602 6.10669 14.2347 5.79106 14.2343ZM5.79106 16.02C5.67334 16.02 5.55825 15.9851 5.46037 15.9197C5.36248 15.8543 5.28619 15.7613 5.24113 15.6526C5.19608 15.5438 5.18429 15.4241 5.20726 15.3087C5.23023 15.1932 5.28692 15.0871 5.37017 15.0039C5.45341 14.9206 5.55947 14.864 5.67494 14.841C5.7904 14.818 5.91008 14.8298 6.01885 14.8749C6.12762 14.9199 6.22058 14.9962 6.28598 15.0941C6.35139 15.192 6.3863 15.3071 6.3863 15.4248C6.38614 15.5826 6.32338 15.7339 6.21179 15.8455C6.10019 15.9571 5.94888 16.0199 5.79106 16.02Z" fill="#466B83"/>
<path d="M70.0772 10.2679C69.8417 10.2679 69.6116 10.3377 69.4158 10.4685C69.22 10.5993 69.0674 10.7852 68.9773 11.0028C68.8872 11.2203 68.8637 11.4596 68.9096 11.6906C68.9555 11.9215 69.0689 12.1336 69.2354 12.3001C69.4019 12.4666 69.614 12.58 69.8449 12.6259C70.0759 12.6719 70.3152 12.6483 70.5328 12.5582C70.7503 12.4681 70.9362 12.3155 71.067 12.1197C71.1979 11.9239 71.2677 11.6938 71.2677 11.4583C71.2673 11.1427 71.1418 10.8401 70.9186 10.6169C70.6954 10.3938 70.3928 10.2682 70.0772 10.2679ZM70.0772 12.0536C69.9595 12.0536 69.8444 12.0187 69.7465 11.9533C69.6486 11.8878 69.5723 11.7949 69.5273 11.6861C69.4822 11.5774 69.4704 11.4577 69.4934 11.3422C69.5164 11.2267 69.5731 11.1207 69.6563 11.0374C69.7395 10.9542 69.8456 10.8975 69.9611 10.8745C70.0765 10.8516 70.1962 10.8633 70.305 10.9084C70.4137 10.9535 70.5067 11.0297 70.5721 11.1276C70.6375 11.2255 70.6724 11.3406 70.6724 11.4583C70.6723 11.6161 70.6095 11.7675 70.4979 11.8791C70.3863 11.9906 70.235 12.0534 70.0772 12.0536Z" fill="#466B83"/>
<path d="M52.8145 27.3295C52.8145 27.0941 52.7447 26.8639 52.6139 26.6682C52.4831 26.4724 52.2972 26.3198 52.0796 26.2297C51.8621 26.1396 51.6227 26.116 51.3918 26.1619C51.1609 26.2079 50.9488 26.3213 50.7823 26.4878C50.6158 26.6542 50.5024 26.8664 50.4565 27.0973C50.4105 27.3282 50.4341 27.5676 50.5242 27.7851C50.6143 28.0027 50.7669 28.1886 50.9627 28.3194C51.1585 28.4502 51.3886 28.52 51.6241 28.52C51.9397 28.5197 52.2423 28.3941 52.4655 28.1709C52.6886 27.9478 52.8142 27.6452 52.8145 27.3295ZM51.0288 27.3295C51.0288 27.2118 51.0637 27.0967 51.1291 26.9988C51.1946 26.901 51.2875 26.8247 51.3963 26.7796C51.505 26.7346 51.6247 26.7228 51.7402 26.7457C51.8557 26.7687 51.9617 26.8254 52.045 26.9086C52.1282 26.9919 52.1849 27.098 52.2079 27.2134C52.2308 27.3289 52.2191 27.4486 52.174 27.5573C52.1289 27.6661 52.0527 27.7591 51.9548 27.8245C51.8569 27.8899 51.7418 27.9248 51.6241 27.9248C51.4663 27.9246 51.3149 27.8619 51.2033 27.7503C51.0918 27.6387 51.029 27.4874 51.0288 27.3295Z" fill="#466B83"/>
<path d="M10.2043 35.6696L11.0894 34.5053L10.5305 34.1893L9.96264 35.4922H9.94359L9.36621 34.1982L8.79776 34.5244L9.67335 35.6607V35.6792L8.30371 35.5018V36.1351L9.68228 35.9583V35.9774L8.79776 37.1131L9.32812 37.4488L9.93407 36.1351H9.95252L10.5114 37.4393L11.0984 37.1042L10.2043 35.9863V35.9678L11.6103 36.1351V35.5018L10.2043 35.6881V35.6696Z" fill="#FDB549"/>
<path d="M37.8696 12.4881L37.3601 13.1423L37.6661 13.3357L38.0149 12.5792H38.0256L38.347 13.3304L38.6851 13.1369L38.1702 12.4935V12.4827L38.9797 12.5792V12.2149L38.1702 12.322V12.3113L38.6797 11.6411L38.3583 11.4583L38.0309 12.2089H38.0202L37.6881 11.4637L37.3601 11.6518L37.8649 12.306V12.3167L37.0762 12.2149V12.5792L37.8696 12.4774V12.4881Z" fill="#FDB549"/>
<path d="M73.4847 26.1554V25.5345L72.1055 25.7173V25.6988L72.9734 24.5571L72.4251 24.2464L71.868 25.525H71.8495L71.2835 24.2554L70.7257 24.575L71.5847 25.6899V25.7083L70.2412 25.5345V26.1554L71.5936 25.9821V26.0006L70.7257 27.1149L71.2466 27.444L71.8406 26.1554H71.8585L72.4067 27.4345L72.9823 27.106L72.1055 26.0095V25.9911L73.4847 26.1554Z" fill="#FDB549"/>
<path d="M90.5794 14.5827L91.3282 13.5982L90.855 13.3304L90.3747 14.4333H90.3586L89.8705 13.3381L89.3889 13.6137L90.13 14.5756V14.5911L88.9717 14.4411V14.9768L90.1378 14.8274V14.8434L89.3889 15.8042L89.8383 16.0881L90.3508 14.9768H90.3663L90.8389 16.0804L91.336 15.7964L90.5794 14.8506V14.8351L91.7687 14.9768V14.4411L90.5794 14.5988V14.5827Z" fill="#FDB549"/>
<path d="M1.69048 81.3988C2.34796 81.3988 2.88095 80.8658 2.88095 80.2084C2.88095 79.5509 2.34796 79.0179 1.69048 79.0179C1.03299 79.0179 0.5 79.5509 0.5 80.2084C0.5 80.8658 1.03299 81.3988 1.69048 81.3988Z" fill="#466B83"/>
<path d="M7.04748 79.0179H5.26177C4.94603 79.0179 4.64323 79.1433 4.41997 79.3666C4.19671 79.5898 4.07129 79.8926 4.07129 80.2084C4.07129 80.5241 4.19671 80.8269 4.41997 81.0502C4.64323 81.2734 4.94603 81.3988 5.26177 81.3988H7.04748C7.36321 81.3988 7.66602 81.2734 7.88927 81.0502C8.11253 80.8269 8.23796 80.5241 8.23796 80.2084C8.23796 79.8926 8.11253 79.5898 7.88927 79.3666C7.66602 79.1433 7.36321 79.0179 7.04748 79.0179Z" fill="#466B83"/>
<path d="M95.7379 79.0179H93.9522C93.6365 79.0179 93.3337 79.1433 93.1104 79.3666C92.8871 79.5898 92.7617 79.8926 92.7617 80.2084C92.7617 80.5241 92.8871 80.8269 93.1104 81.0502C93.3337 81.2734 93.6365 81.3988 93.9522 81.3988H95.7379C96.0536 81.3988 96.3564 81.2734 96.5797 81.0502C96.803 80.8269 96.9284 80.5241 96.9284 80.2084C96.9284 79.8926 96.803 79.5898 96.5797 79.3666C96.3564 79.1433 96.0536 79.0179 95.7379 79.0179Z" fill="#466B83"/>
<path d="M99.3096 81.3988C99.9671 81.3988 100.5 80.8658 100.5 80.2084C100.5 79.5509 99.9671 79.0179 99.3096 79.0179C98.6521 79.0179 98.1191 79.5509 98.1191 80.2084C98.1191 80.8658 98.6521 81.3988 99.3096 81.3988Z" fill="#466B83"/>
<path d="M70.8301 83.7798H65.885C65.5858 83.8038 65.3065 83.9396 65.1029 84.1602C64.8992 84.3808 64.7861 84.67 64.7861 84.9703C64.7861 85.2705 64.8992 85.5597 65.1029 85.7803C65.3065 86.0009 65.5858 86.1368 65.885 86.1607H70.8301C71.1294 86.1368 71.4087 86.0009 71.6123 85.7803C71.8159 85.5597 71.929 85.2705 71.929 84.9703C71.929 84.67 71.8159 84.3808 71.6123 84.1602C71.4087 83.9396 71.1294 83.8038 70.8301 83.7798Z" fill="#FDB549"/>
<path d="M35.1153 83.7798H30.1702C29.8709 83.8038 29.5917 83.9396 29.388 84.1602C29.1844 84.3808 29.0713 84.67 29.0713 84.9703C29.0713 85.2705 29.1844 85.5597 29.388 85.7803C29.5917 86.0009 29.8709 86.1368 30.1702 86.1607H35.1153C35.4145 86.1368 35.6938 86.0009 35.8975 85.7803C36.1011 85.5597 36.2142 85.2705 36.2142 84.9703C36.2142 84.67 36.1011 84.3808 35.8975 84.1602C35.6938 83.9396 35.4145 83.8038 35.1153 83.7798Z" fill="#FDB549"/>
<path d="M62.4043 83.7798H38.5948C38.279 83.7798 37.9762 83.9052 37.753 84.1285C37.5297 84.3517 37.4043 84.6545 37.4043 84.9703C37.4043 85.286 37.5297 85.5888 37.753 85.8121C37.9762 86.0353 38.279 86.1607 38.5948 86.1607H48.0829V87.3512H43.3567C43.0409 87.3512 42.7381 87.4766 42.5149 87.6999C42.2916 87.9232 42.1662 88.226 42.1662 88.5417C42.1662 88.8574 42.2916 89.1602 42.5149 89.3835C42.7381 89.6067 43.0409 89.7322 43.3567 89.7322H58.2376C58.5534 89.7322 58.8562 89.6067 59.0794 89.3835C59.3027 89.1602 59.4281 88.8574 59.4281 88.5417C59.4281 88.226 59.3027 87.9232 59.0794 87.6999C58.8562 87.4766 58.5534 87.3512 58.2376 87.3512H52.9162V86.1607H62.4043C62.72 86.1607 63.0228 86.0353 63.2461 85.8121C63.4694 85.5888 63.5948 85.286 63.5948 84.9703C63.5948 84.6545 63.4694 84.3517 63.2461 84.1285C63.0228 83.9052 62.72 83.7798 62.4043 83.7798Z" fill="#FDB549"/>
<path d="M90.215 79.0179H15.9761C15.6605 79.0175 15.3579 78.892 15.1347 78.6688C14.9115 78.4456 14.786 78.143 14.7856 77.8274V58.7798C14.786 58.4641 14.9115 58.1616 15.1347 57.9384C15.3579 57.7152 15.6605 57.5897 15.9761 57.5893H33.238V55.2083H15.9761C15.0292 55.2094 14.1214 55.586 13.4519 56.2555C12.7823 56.9251 12.4057 57.8329 12.4047 58.7798V77.8274C12.4055 78.2332 12.476 78.6359 12.613 79.0179H10.7849C10.6155 78.9957 10.4434 79.01 10.28 79.0597C10.1165 79.1094 9.96562 79.1934 9.83726 79.3061C9.7089 79.4188 9.60606 79.5575 9.53561 79.7131C9.46515 79.8687 9.42871 80.0375 9.42871 80.2083C9.42871 80.3791 9.46515 80.548 9.53561 80.7036C9.60606 80.8592 9.7089 80.9979 9.83726 81.1106C9.96562 81.2233 10.1165 81.3073 10.28 81.357C10.4434 81.4067 10.6155 81.4209 10.7849 81.3988H90.215C90.3843 81.4209 90.5565 81.4067 90.7199 81.357C90.8833 81.3073 91.0342 81.2233 91.1626 81.1106C91.2909 80.9979 91.3938 80.8592 91.4642 80.7036C91.5347 80.548 91.5711 80.3791 91.5711 80.2083C91.5711 80.0375 91.5347 79.8687 91.4642 79.7131C91.3938 79.5575 91.2909 79.4188 91.1626 79.3061C91.0342 79.1934 90.8833 79.1094 90.7199 79.0597C90.5565 79.01 90.3843 78.9957 90.215 79.0179Z" fill="#466B83"/>
</g>
<defs>
<clipPath id="clip0_146_8676">
<rect width="100" height="100" fill="white" transform="translate(0.5)"/>
</clipPath>
</defs>
</svg>
