<svg width="84" height="84" viewBox="0 0 84 84" fill="none" xmlns="http://www.w3.org/2000/svg">
<rect x="0.5" y="0.5" width="83" height="83" rx="19.5" stroke="url(#paint0_linear_146_17232)"/>
<g clip-path="url(#clip0_146_17232)">
<mask id="path-2-inside-1_146_17232" fill="white">
<path d="M30.1457 18.5195C30.34 18.5195 30.5299 18.4619 30.6914 18.3539C30.8529 18.246 30.9788 18.0926 31.0531 17.9132C31.1274 17.7337 31.1469 17.5362 31.109 17.3457C31.0711 17.1552 30.9776 16.9802 30.8402 16.8428C30.7028 16.7055 30.5278 16.6119 30.3373 16.574C30.1468 16.5362 29.9493 16.5556 29.7699 16.6299C29.5904 16.7043 29.437 16.8302 29.3291 16.9917C29.2212 17.1532 29.1636 17.3431 29.1636 17.5373C29.1639 17.7977 29.2674 18.0473 29.4516 18.2315C29.6357 18.4156 29.8853 18.5192 30.1457 18.5195ZM30.1457 17.0462C30.2428 17.0462 30.3378 17.075 30.4185 17.129C30.4993 17.183 30.5622 17.2597 30.5994 17.3494C30.6366 17.4391 30.6463 17.5379 30.6274 17.6331C30.6084 17.7284 30.5616 17.8159 30.493 17.8846C30.4243 17.9532 30.3368 18 30.2415 18.019C30.1463 18.0379 30.0475 18.0282 29.9578 17.991C29.8681 17.9538 29.7914 17.8909 29.7374 17.8101C29.6834 17.7294 29.6546 17.6344 29.6546 17.5373C29.6548 17.4071 29.7066 17.2823 29.7986 17.1902C29.8907 17.0982 30.0155 17.0464 30.1457 17.0462Z"/>
</mask>
<path d="M30.1457 18.5195C30.34 18.5195 30.5299 18.4619 30.6914 18.3539C30.8529 18.246 30.9788 18.0926 31.0531 17.9132C31.1274 17.7337 31.1469 17.5362 31.109 17.3457C31.0711 17.1552 30.9776 16.9802 30.8402 16.8428C30.7028 16.7055 30.5278 16.6119 30.3373 16.574C30.1468 16.5362 29.9493 16.5556 29.7699 16.6299C29.5904 16.7043 29.437 16.8302 29.3291 16.9917C29.2212 17.1532 29.1636 17.3431 29.1636 17.5373C29.1639 17.7977 29.2674 18.0473 29.4516 18.2315C29.6357 18.4156 29.8853 18.5192 30.1457 18.5195ZM30.1457 17.0462C30.2428 17.0462 30.3378 17.075 30.4185 17.129C30.4993 17.183 30.5622 17.2597 30.5994 17.3494C30.6366 17.4391 30.6463 17.5379 30.6274 17.6331C30.6084 17.7284 30.5616 17.8159 30.493 17.8846C30.4243 17.9532 30.3368 18 30.2415 18.019C30.1463 18.0379 30.0475 18.0282 29.9578 17.991C29.8681 17.9538 29.7914 17.8909 29.7374 17.8101C29.6834 17.7294 29.6546 17.6344 29.6546 17.5373C29.6548 17.4071 29.7066 17.2823 29.7986 17.1902C29.8907 17.0982 30.0155 17.0464 30.1457 17.0462Z" fill="white"/>
<path d="M30.1457 18.5195L30.1446 19.5195H30.1457V18.5195ZM29.1636 17.5373H28.1636L28.1636 17.5385L29.1636 17.5373ZM30.1457 17.0462V16.0462L30.1447 16.0462L30.1457 17.0462ZM29.6546 17.5373L28.6546 17.5363V17.5373H29.6546ZM30.1457 19.5195C30.5377 19.5195 30.921 19.4032 31.2469 19.1854L30.1358 17.5225C30.1387 17.5205 30.1422 17.5195 30.1457 17.5195V19.5195ZM31.2469 19.1854C31.5729 18.9676 31.827 18.658 31.977 18.2959L30.1292 17.5305C30.1306 17.5272 30.1329 17.5244 30.1358 17.5225L31.2469 19.1854ZM31.977 18.2959C32.127 17.9337 32.1663 17.5351 32.0898 17.1506L30.1282 17.5408C30.1275 17.5373 30.1279 17.5338 30.1292 17.5305L31.977 18.2959ZM32.0898 17.1506C32.0133 16.7661 31.8245 16.4129 31.5473 16.1357L30.1331 17.5499C30.1306 17.5474 30.1289 17.5443 30.1282 17.5408L32.0898 17.1506ZM31.5473 16.1357C31.2701 15.8585 30.9169 15.6697 30.5324 15.5933L30.1422 17.5548C30.1388 17.5541 30.1356 17.5524 30.1331 17.5499L31.5473 16.1357ZM30.5324 15.5933C30.1479 15.5168 29.7494 15.556 29.3872 15.7061L30.1526 17.5538C30.1493 17.5552 30.1457 17.5555 30.1422 17.5548L30.5324 15.5933ZM29.3872 15.7061C29.025 15.8561 28.7154 16.1101 28.4976 16.4361L30.1606 17.5472C30.1586 17.5502 30.1558 17.5525 30.1526 17.5538L29.3872 15.7061ZM28.4976 16.4361C28.2798 16.7621 28.1636 17.1453 28.1636 17.5373H30.1636C30.1636 17.5409 30.1625 17.5443 30.1606 17.5472L28.4976 16.4361ZM28.1636 17.5385C28.1642 18.0637 28.3731 18.5672 28.7445 18.9386L30.1587 17.5244C30.1618 17.5275 30.1636 17.5317 30.1636 17.5362L28.1636 17.5385ZM28.7445 18.9386C29.1158 19.31 29.6194 19.5189 30.1446 19.5195L30.1469 17.5195C30.1513 17.5195 30.1555 17.5212 30.1587 17.5244L28.7445 18.9386ZM30.1457 18.0462C30.0451 18.0462 29.9467 18.0164 29.863 17.9605L30.9741 16.2975C30.7289 16.1337 30.4406 16.0462 30.1457 16.0462V18.0462ZM29.863 17.9605C29.7793 17.9046 29.714 17.8251 29.6755 17.7321L31.5233 16.9667C31.4104 16.6943 31.2193 16.4614 30.9741 16.2975L29.863 17.9605ZM29.6755 17.7321C29.637 17.6391 29.6269 17.5368 29.6466 17.438L31.6081 17.8282C31.6657 17.539 31.6361 17.2392 31.5233 16.9667L29.6755 17.7321ZM29.6466 17.438C29.6662 17.3393 29.7147 17.2486 29.7859 17.1775L31.2001 18.5917C31.4086 18.3831 31.5506 18.1175 31.6081 17.8282L29.6466 17.438ZM29.7859 17.1775C29.857 17.1063 29.9477 17.0578 30.0464 17.0382L30.4366 18.9997C30.7259 18.9422 30.9915 18.8002 31.2001 18.5917L29.7859 17.1775ZM30.0464 17.0382C30.1452 17.0185 30.2475 17.0286 30.3405 17.0671L29.5751 18.9149C29.8476 19.0277 30.1474 19.0573 30.4366 18.9997L30.0464 17.0382ZM30.3405 17.0671C30.4335 17.1056 30.513 17.1709 30.5689 17.2546L28.9059 18.3657C29.0698 18.6109 29.3027 18.802 29.5751 18.9149L30.3405 17.0671ZM30.5689 17.2546C30.6248 17.3383 30.6546 17.4367 30.6546 17.5373H28.6546C28.6546 17.8322 28.7421 18.1205 28.9059 18.3657L30.5689 17.2546ZM30.6546 17.5383C30.6545 17.673 30.601 17.8021 30.5057 17.8973L29.0915 16.4831C28.8122 16.7625 28.655 17.1413 28.6546 17.5363L30.6546 17.5383ZM30.5057 17.8973C30.4105 17.9926 30.2814 18.0461 30.1467 18.0462L30.1447 16.0462C29.7497 16.0466 29.3709 16.2038 29.0915 16.4831L30.5057 17.8973Z" fill="url(#paint1_linear_146_17232)" mask="url(#path-2-inside-1_146_17232)"/>
<mask id="path-4-inside-2_146_17232" fill="white">
<path d="M65.8261 37.5076C65.6966 37.5076 65.5701 37.546 65.4624 37.6179C65.3547 37.6899 65.2708 37.7921 65.2212 37.9118C65.1717 38.0314 65.1587 38.1631 65.184 38.2901C65.2092 38.4171 65.2716 38.5337 65.3632 38.6253C65.4547 38.7169 65.5714 38.7792 65.6984 38.8045C65.8254 38.8298 65.9571 38.8168 66.0767 38.7673C66.1964 38.7177 66.2986 38.6338 66.3706 38.5261C66.4425 38.4184 66.4809 38.2918 66.4809 38.1623C66.4807 37.9887 66.4117 37.8223 66.2889 37.6996C66.1662 37.5768 65.9997 37.5078 65.8261 37.5076ZM65.8261 38.4897C65.7614 38.4897 65.6981 38.4705 65.6443 38.4345C65.5904 38.3986 65.5485 38.3474 65.5237 38.2876C65.4989 38.2278 65.4924 38.162 65.5051 38.0985C65.5177 38.035 65.5489 37.9766 65.5947 37.9308C65.6404 37.8851 65.6988 37.8539 65.7623 37.8412C65.8258 37.8286 65.8916 37.8351 65.9514 37.8599C66.0113 37.8846 66.0624 37.9266 66.0984 37.9804C66.1343 38.0343 66.1535 38.0976 66.1535 38.1623C66.1534 38.2491 66.1189 38.3324 66.0575 38.3937C65.9962 38.4551 65.9129 38.4896 65.8261 38.4897Z"/>
</mask>
<path d="M65.8261 37.5076C65.6966 37.5076 65.5701 37.546 65.4624 37.6179C65.3547 37.6899 65.2708 37.7921 65.2212 37.9118C65.1717 38.0314 65.1587 38.1631 65.184 38.2901C65.2092 38.4171 65.2716 38.5337 65.3632 38.6253C65.4547 38.7169 65.5714 38.7792 65.6984 38.8045C65.8254 38.8298 65.9571 38.8168 66.0767 38.7673C66.1964 38.7177 66.2986 38.6338 66.3706 38.5261C66.4425 38.4184 66.4809 38.2918 66.4809 38.1623C66.4807 37.9887 66.4117 37.8223 66.2889 37.6996C66.1662 37.5768 65.9997 37.5078 65.8261 37.5076ZM65.8261 38.4897C65.7614 38.4897 65.6981 38.4705 65.6443 38.4345C65.5904 38.3986 65.5485 38.3474 65.5237 38.2876C65.4989 38.2278 65.4924 38.162 65.5051 38.0985C65.5177 38.035 65.5489 37.9766 65.5947 37.9308C65.6404 37.8851 65.6988 37.8539 65.7623 37.8412C65.8258 37.8286 65.8916 37.8351 65.9514 37.8599C66.0113 37.8846 66.0624 37.9266 66.0984 37.9804C66.1343 38.0343 66.1535 38.0976 66.1535 38.1623C66.1534 38.2491 66.1189 38.3324 66.0575 38.3937C65.9962 38.4551 65.9129 38.4896 65.8261 38.4897Z" fill="white"/>
<path d="M65.8261 37.5076L65.8273 36.5076H65.8261V37.5076ZM66.4809 38.1623H67.4809L67.4809 38.1612L66.4809 38.1623ZM65.8261 38.4897V39.4897L65.8271 39.4897L65.8261 38.4897ZM66.1535 38.1623L67.1535 38.1633V38.1623H66.1535ZM65.8261 36.5076C65.4989 36.5076 65.1789 36.6046 64.9068 36.7864L66.018 38.4494C65.9612 38.4873 65.8944 38.5076 65.8261 38.5076V36.5076ZM64.9068 36.7864C64.6347 36.9683 64.4226 37.2267 64.2973 37.5291L66.1451 38.2944C66.119 38.3575 66.0747 38.4114 66.018 38.4494L64.9068 36.7864ZM64.2973 37.5291C64.1721 37.8314 64.1393 38.1642 64.2032 38.4852L66.1648 38.095C66.1781 38.162 66.1712 38.2314 66.1451 38.2944L64.2973 37.5291ZM64.2032 38.4852C64.267 38.8062 64.4246 39.101 64.6561 39.3324L66.0703 37.9182C66.1185 37.9665 66.1514 38.028 66.1648 38.095L64.2032 38.4852ZM64.6561 39.3324C64.8875 39.5638 65.1823 39.7214 65.5033 39.7853L65.8935 37.8237C65.9605 37.837 66.022 37.8699 66.0703 37.9182L64.6561 39.3324ZM65.5033 39.7853C65.8243 39.8491 66.157 39.8164 66.4594 39.6911L65.694 37.8434C65.7571 37.8172 65.8265 37.8104 65.8935 37.8237L65.5033 39.7853ZM66.4594 39.6911C66.7618 39.5659 67.0202 39.3538 67.202 39.0817L65.5391 37.9705C65.577 37.9138 65.6309 37.8695 65.694 37.8434L66.4594 39.6911ZM67.202 39.0817C67.3839 38.8095 67.4809 38.4896 67.4809 38.1623H65.4809C65.4809 38.0941 65.5012 38.0273 65.5391 37.9705L67.202 39.0817ZM67.4809 38.1612C67.4804 37.7228 67.306 37.3025 66.996 36.9925L65.5818 38.4067C65.5173 38.3421 65.481 38.2547 65.4809 38.1635L67.4809 38.1612ZM66.996 36.9925C66.686 36.6824 66.2657 36.5081 65.8273 36.5076L65.825 38.5076C65.7338 38.5075 65.6463 38.4712 65.5818 38.4067L66.996 36.9925ZM65.8261 37.4897C65.9592 37.4897 66.0892 37.5292 66.1998 37.6031L65.0887 39.266C65.307 39.4118 65.5636 39.4897 65.8261 39.4897V37.4897ZM66.1998 37.6031C66.3104 37.677 66.3966 37.782 66.4476 37.9049L64.5998 38.6703C64.7003 38.9129 64.8704 39.1202 65.0887 39.266L66.1998 37.6031ZM66.4476 37.9049C66.4985 38.0279 66.5118 38.1631 66.4858 38.2936L64.5243 37.9034C64.4731 38.1608 64.4993 38.4277 64.5998 38.6703L66.4476 37.9049ZM66.4858 38.2936C66.4599 38.424 66.3958 38.5439 66.3018 38.6379L64.8876 37.2237C64.7019 37.4094 64.5755 37.6459 64.5243 37.9034L66.4858 38.2936ZM66.3018 38.6379C66.2077 38.732 66.0878 38.7961 65.9574 38.822L65.5672 36.8605C65.3097 36.9117 65.0732 37.0381 64.8876 37.2237L66.3018 38.6379ZM65.9574 38.822C65.8269 38.848 65.6917 38.8347 65.5687 38.7837L66.3341 36.936C66.0915 36.8355 65.8247 36.8092 65.5672 36.8605L65.9574 38.822ZM65.5687 38.7837C65.4459 38.7328 65.3408 38.6466 65.2669 38.536L66.9298 37.4249C66.784 37.2066 66.5767 37.0365 66.3341 36.936L65.5687 38.7837ZM65.2669 38.536C65.193 38.4254 65.1535 38.2953 65.1535 38.1623H67.1535C67.1535 37.8998 67.0757 37.6432 66.9298 37.4249L65.2669 38.536ZM65.1535 38.1613C65.1537 37.9833 65.2245 37.8125 65.3504 37.6866L66.7647 39.1008C67.0133 38.8522 67.1532 38.515 67.1535 38.1633L65.1535 38.1613ZM65.3504 37.6866C65.4764 37.5607 65.6471 37.4899 65.8251 37.4897L65.8271 39.4897C66.1788 39.4894 66.516 39.3495 66.7647 39.1008L65.3504 37.6866Z" fill="url(#paint2_linear_146_17232)" mask="url(#path-4-inside-2_146_17232)"/>
<mask id="path-6-inside-3_146_17232" fill="white">
<path d="M45.2011 19.9109C45.0716 19.9109 44.9451 19.9493 44.8374 20.0212C44.7297 20.0932 44.6458 20.1954 44.5962 20.3151C44.5467 20.4347 44.5337 20.5664 44.559 20.6934C44.5842 20.8204 44.6466 20.9371 44.7382 21.0286C44.8297 21.1202 44.9464 21.1826 45.0734 21.2078C45.2004 21.2331 45.3321 21.2201 45.4517 21.1706C45.5714 21.121 45.6736 21.0371 45.7456 20.9294C45.8175 20.8217 45.8559 20.6952 45.8559 20.5657C45.8557 20.3921 45.7867 20.2256 45.6639 20.1029C45.5412 19.9801 45.3747 19.9111 45.2011 19.9109ZM45.2011 20.893C45.1364 20.893 45.0731 20.8738 45.0193 20.8379C44.9654 20.8019 44.9235 20.7508 44.8987 20.6909C44.8739 20.6311 44.8674 20.5653 44.8801 20.5018C44.8927 20.4383 44.9239 20.3799 44.9697 20.3342C45.0154 20.2884 45.0738 20.2572 45.1373 20.2446C45.2008 20.2319 45.2666 20.2384 45.3264 20.2632C45.3863 20.288 45.4374 20.3299 45.4734 20.3838C45.5093 20.4376 45.5285 20.5009 45.5285 20.5657C45.5284 20.6525 45.4939 20.7357 45.4325 20.797C45.3712 20.8584 45.2879 20.8929 45.2011 20.893Z"/>
</mask>
<path d="M45.2011 19.9109C45.0716 19.9109 44.9451 19.9493 44.8374 20.0212C44.7297 20.0932 44.6458 20.1954 44.5962 20.3151C44.5467 20.4347 44.5337 20.5664 44.559 20.6934C44.5842 20.8204 44.6466 20.9371 44.7382 21.0286C44.8297 21.1202 44.9464 21.1826 45.0734 21.2078C45.2004 21.2331 45.3321 21.2201 45.4517 21.1706C45.5714 21.121 45.6736 21.0371 45.7456 20.9294C45.8175 20.8217 45.8559 20.6952 45.8559 20.5657C45.8557 20.3921 45.7867 20.2256 45.6639 20.1029C45.5412 19.9801 45.3747 19.9111 45.2011 19.9109ZM45.2011 20.893C45.1364 20.893 45.0731 20.8738 45.0193 20.8379C44.9654 20.8019 44.9235 20.7508 44.8987 20.6909C44.8739 20.6311 44.8674 20.5653 44.8801 20.5018C44.8927 20.4383 44.9239 20.3799 44.9697 20.3342C45.0154 20.2884 45.0738 20.2572 45.1373 20.2446C45.2008 20.2319 45.2666 20.2384 45.3264 20.2632C45.3863 20.288 45.4374 20.3299 45.4734 20.3838C45.5093 20.4376 45.5285 20.5009 45.5285 20.5657C45.5284 20.6525 45.4939 20.7357 45.4325 20.797C45.3712 20.8584 45.2879 20.8929 45.2011 20.893Z" fill="white"/>
<path d="M45.2011 19.9109L45.2023 18.9109H45.2011V19.9109ZM45.8559 20.5657H46.8559L46.8559 20.5645L45.8559 20.5657ZM45.2011 20.893V21.893L45.2021 21.893L45.2011 20.893ZM45.5285 20.5657L46.5285 20.5666V20.5657H45.5285ZM45.2011 18.9109C44.8739 18.9109 44.5539 19.0079 44.2818 19.1898L45.393 20.8527C45.3362 20.8906 45.2694 20.9109 45.2011 20.9109V18.9109ZM44.2818 19.1898C44.0097 19.3716 43.7976 19.63 43.6723 19.9324L45.5201 20.6978C45.494 20.7609 45.4497 20.8148 45.393 20.8527L44.2818 19.1898ZM43.6723 19.9324C43.5471 20.2348 43.5143 20.5675 43.5782 20.8885L45.5398 20.4983C45.5531 20.5653 45.5462 20.6347 45.5201 20.6978L43.6723 19.9324ZM43.5782 20.8885C43.642 21.2095 43.7996 21.5043 44.0311 21.7357L45.4453 20.3215C45.4936 20.3698 45.5264 20.4313 45.5398 20.4983L43.5782 20.8885ZM44.0311 21.7357C44.2625 21.9672 44.5573 22.1248 44.8783 22.1886L45.2685 20.227C45.3355 20.2404 45.397 20.2732 45.4453 20.3215L44.0311 21.7357ZM44.8783 22.1886C45.1993 22.2525 45.532 22.2197 45.8344 22.0945L45.069 20.2467C45.1321 20.2206 45.2015 20.2137 45.2685 20.227L44.8783 22.1886ZM45.8344 22.0945C46.1368 21.9692 46.3952 21.7571 46.577 21.485L44.9141 20.3738C44.952 20.3171 45.006 20.2728 45.069 20.2467L45.8344 22.0945ZM46.577 21.485C46.7589 21.2129 46.8559 20.8929 46.8559 20.5657H44.8559C44.8559 20.4974 44.8762 20.4306 44.9141 20.3738L46.577 21.485ZM46.8559 20.5645C46.8554 20.1261 46.681 19.7058 46.371 19.3958L44.9568 20.81C44.8923 20.7455 44.856 20.658 44.8559 20.5668L46.8559 20.5645ZM46.371 19.3958C46.061 19.0858 45.6407 18.9114 45.2023 18.9109L45.2 20.9109C45.1088 20.9108 45.0213 20.8745 44.9568 20.81L46.371 19.3958ZM45.2011 19.893C45.3342 19.893 45.4642 19.9325 45.5748 20.0064L44.4637 21.6693C44.682 21.8152 44.9386 21.893 45.2011 21.893V19.893ZM45.5748 20.0064C45.6855 20.0803 45.7717 20.1853 45.8226 20.3083L43.9748 21.0736C44.0753 21.3162 44.2454 21.5235 44.4637 21.6693L45.5748 20.0064ZM45.8226 20.3083C45.8735 20.4311 45.8868 20.5664 45.8608 20.6969L43.8993 20.3067C43.8481 20.5642 43.8743 20.8311 43.9748 21.0736L45.8226 20.3083ZM45.8608 20.6969C45.8349 20.8274 45.7708 20.9472 45.6768 21.0413L44.2625 19.6271C44.0769 19.8127 43.9505 20.0492 43.8993 20.3067L45.8608 20.6969ZM45.6768 21.0413C45.5827 21.1353 45.4628 21.1994 45.3324 21.2253L44.9422 19.2638C44.6847 19.315 44.4482 19.4414 44.2625 19.6271L45.6768 21.0413ZM45.3324 21.2253C45.2019 21.2513 45.0667 21.238 44.9437 21.1871L45.7091 19.3393C45.4666 19.2388 45.1997 19.2126 44.9422 19.2638L45.3324 21.2253ZM44.9437 21.1871C44.8208 21.1362 44.7158 21.0499 44.6419 20.9393L46.3048 19.8282C46.159 19.6099 45.9517 19.4398 45.7091 19.3393L44.9437 21.1871ZM44.6419 20.9393C44.568 20.8287 44.5285 20.6987 44.5285 20.5657H46.5285C46.5285 20.3031 46.4507 20.0465 46.3048 19.8282L44.6419 20.9393ZM44.5285 20.5647C44.5287 20.3866 44.5995 20.2159 44.7254 20.0899L46.1397 21.5042C46.3883 21.2555 46.5282 20.9183 46.5285 20.5666L44.5285 20.5647ZM44.7254 20.0899C44.8514 19.964 45.0221 19.8932 45.2002 19.893L45.2021 21.893C45.5538 21.8927 45.891 21.7528 46.1397 21.5042L44.7254 20.0899Z" fill="url(#paint3_linear_146_17232)" mask="url(#path-6-inside-3_146_17232)"/>
<mask id="path-8-inside-4_146_17232" fill="white">
<path d="M61.7978 15.9004C61.6683 15.9004 61.5417 15.9388 61.4341 16.0107C61.3264 16.0827 61.2425 16.1849 61.1929 16.3046C61.1433 16.4242 61.1304 16.5559 61.1556 16.6829C61.1809 16.8099 61.2433 16.9266 61.3348 17.0181C61.4264 17.1097 61.5431 17.1721 61.6701 17.1973C61.7971 17.2226 61.9288 17.2096 62.0484 17.1601C62.168 17.1105 62.2703 17.0266 62.3422 16.9189C62.4142 16.8112 62.4526 16.6847 62.4526 16.5552C62.4524 16.3816 62.3833 16.2151 62.2606 16.0924C62.1378 15.9696 61.9714 15.9006 61.7978 15.9004ZM61.7978 16.8825C61.7331 16.8825 61.6698 16.8633 61.6159 16.8274C61.5621 16.7914 61.5201 16.7403 61.4954 16.6804C61.4706 16.6206 61.4641 16.5548 61.4767 16.4913C61.4894 16.4278 61.5205 16.3694 61.5663 16.3237C61.6121 16.2779 61.6705 16.2467 61.734 16.2341C61.7975 16.2214 61.8633 16.2279 61.9231 16.2527C61.9829 16.2775 62.0341 16.3194 62.07 16.3733C62.106 16.4271 62.1252 16.4904 62.1252 16.5552C62.1251 16.642 62.0906 16.7252 62.0292 16.7866C61.9678 16.8479 61.8846 16.8824 61.7978 16.8825Z"/>
</mask>
<path d="M61.7978 15.9004C61.6683 15.9004 61.5417 15.9388 61.4341 16.0107C61.3264 16.0827 61.2425 16.1849 61.1929 16.3046C61.1433 16.4242 61.1304 16.5559 61.1556 16.6829C61.1809 16.8099 61.2433 16.9266 61.3348 17.0181C61.4264 17.1097 61.5431 17.1721 61.6701 17.1973C61.7971 17.2226 61.9288 17.2096 62.0484 17.1601C62.168 17.1105 62.2703 17.0266 62.3422 16.9189C62.4142 16.8112 62.4526 16.6847 62.4526 16.5552C62.4524 16.3816 62.3833 16.2151 62.2606 16.0924C62.1378 15.9696 61.9714 15.9006 61.7978 15.9004ZM61.7978 16.8825C61.7331 16.8825 61.6698 16.8633 61.6159 16.8274C61.5621 16.7914 61.5201 16.7403 61.4954 16.6804C61.4706 16.6206 61.4641 16.5548 61.4767 16.4913C61.4894 16.4278 61.5205 16.3694 61.5663 16.3237C61.6121 16.2779 61.6705 16.2467 61.734 16.2341C61.7975 16.2214 61.8633 16.2279 61.9231 16.2527C61.9829 16.2775 62.0341 16.3194 62.07 16.3733C62.106 16.4271 62.1252 16.4904 62.1252 16.5552C62.1251 16.642 62.0906 16.7252 62.0292 16.7866C61.9678 16.8479 61.8846 16.8824 61.7978 16.8825Z" fill="white"/>
<path d="M61.7978 15.9004L61.799 14.9004H61.7978V15.9004ZM62.4526 16.5552H63.4526L63.4526 16.554L62.4526 16.5552ZM61.7978 16.8825V17.8825L61.7988 17.8825L61.7978 16.8825ZM62.1252 16.5552L63.1252 16.5562V16.5552H62.1252ZM61.7978 14.9004C61.4705 14.9004 61.1506 14.9974 60.8785 15.1793L61.9896 16.8422C61.9329 16.8801 61.8661 16.9004 61.7978 16.9004V14.9004ZM60.8785 15.1793C60.6064 15.3611 60.3943 15.6195 60.269 15.9219L62.1168 16.6873C62.0907 16.7504 62.0464 16.8043 61.9896 16.8422L60.8785 15.1793ZM60.269 15.9219C60.1438 16.2243 60.111 16.557 60.1749 16.878L62.1364 16.4878C62.1498 16.5547 62.1429 16.6242 62.1168 16.6873L60.269 15.9219ZM60.1749 16.878C60.2387 17.199 60.3963 17.4938 60.6277 17.7252L62.0419 16.311C62.0902 16.3593 62.1231 16.4208 62.1364 16.4878L60.1749 16.878ZM60.6277 17.7252C60.8592 17.9567 61.154 18.1143 61.475 18.1781L61.8652 16.2165C61.9321 16.2299 61.9937 16.2628 62.0419 16.311L60.6277 17.7252ZM61.475 18.1781C61.796 18.242 62.1287 18.2092 62.4311 18.084L61.6657 16.2362C61.7288 16.2101 61.7982 16.2032 61.8652 16.2165L61.475 18.1781ZM62.4311 18.084C62.7335 17.9587 62.9919 17.7466 63.1737 17.4745L61.5108 16.3633C61.5487 16.3066 61.6026 16.2623 61.6657 16.2362L62.4311 18.084ZM63.1737 17.4745C63.3555 17.2024 63.4526 16.8824 63.4526 16.5552H61.4526C61.4526 16.4869 61.4728 16.4201 61.5108 16.3633L63.1737 17.4745ZM63.4526 16.554C63.4521 16.1156 63.2777 15.6953 62.9677 15.3853L61.5535 16.7995C61.489 16.735 61.4527 16.6475 61.4526 16.5563L63.4526 16.554ZM62.9677 15.3853C62.6577 15.0753 62.2374 14.9009 61.799 14.9004L61.7967 16.9004C61.7055 16.9003 61.618 16.864 61.5535 16.7995L62.9677 15.3853ZM61.7978 15.8825C61.9309 15.8825 62.0609 15.922 62.1715 15.9959L61.0604 17.6588C61.2787 17.8047 61.5353 17.8825 61.7978 17.8825V15.8825ZM62.1715 15.9959C62.2821 16.0698 62.3683 16.1749 62.4192 16.2978L60.5715 17.0631C60.6719 17.3056 60.8421 17.513 61.0604 17.6588L62.1715 15.9959ZM62.4192 16.2978C62.4701 16.4206 62.4835 16.5559 62.4575 16.6864L60.496 16.2962C60.4447 16.5537 60.471 16.8206 60.5715 17.0631L62.4192 16.2978ZM62.4575 16.6864C62.4316 16.8169 62.3675 16.9367 62.2734 17.0308L60.8592 15.6166C60.6736 15.8022 60.5472 16.0387 60.496 16.2962L62.4575 16.6864ZM62.2734 17.0308C62.1794 17.1248 62.0595 17.1889 61.9291 17.2148L61.5389 15.2533C61.2814 15.3045 61.0449 15.4309 60.8592 15.6166L62.2734 17.0308ZM61.9291 17.2148C61.7986 17.2408 61.6633 17.2275 61.5404 17.1766L62.3058 15.3288C62.0632 15.2283 61.7964 15.2021 61.5389 15.2533L61.9291 17.2148ZM61.5404 17.1766C61.4175 17.1257 61.3125 17.0394 61.2386 16.9288L62.9015 15.8177C62.7557 15.5994 62.5484 15.4293 62.3058 15.3288L61.5404 17.1766ZM61.2386 16.9288C61.1647 16.8182 61.1252 16.6882 61.1252 16.5552H63.1252C63.1252 16.2926 63.0474 16.036 62.9015 15.8177L61.2386 16.9288ZM61.1252 16.5542C61.1254 16.3761 61.1962 16.2054 61.3221 16.0794L62.7363 17.4937C62.985 17.245 63.1249 16.9078 63.1252 16.5562L61.1252 16.5542ZM61.3221 16.0794C61.448 15.9535 61.6188 15.8827 61.7968 15.8825L61.7988 17.8825C62.1505 17.8822 62.4877 17.7423 62.7363 17.4937L61.3221 16.0794Z" fill="url(#paint4_linear_146_17232)" mask="url(#path-8-inside-4_146_17232)"/>
<mask id="path-10-inside-5_146_17232" fill="white">
<path d="M18.4287 32.8423C18.4287 32.7128 18.3903 32.5862 18.3183 32.4785C18.2464 32.3708 18.1441 32.2869 18.0245 32.2373C17.9048 32.1878 17.7732 32.1748 17.6462 32.2001C17.5192 32.2253 17.4025 32.2877 17.3109 32.3793C17.2193 32.4708 17.157 32.5875 17.1317 32.7145C17.1065 32.8415 17.1194 32.9732 17.169 33.0928C17.2185 33.2125 17.3025 33.3147 17.4101 33.3867C17.5178 33.4586 17.6444 33.497 17.7739 33.497C17.9475 33.4968 18.1139 33.4278 18.2367 33.305C18.3594 33.1823 18.4285 33.0159 18.4287 32.8423ZM17.4465 32.8423C17.4465 32.7775 17.4657 32.7142 17.5017 32.6604C17.5377 32.6065 17.5888 32.5646 17.6486 32.5398C17.7084 32.515 17.7743 32.5085 17.8378 32.5212C17.9013 32.5338 17.9596 32.565 18.0054 32.6108C18.0512 32.6566 18.0824 32.7149 18.095 32.7784C18.1076 32.8419 18.1011 32.9077 18.0764 32.9675C18.0516 33.0274 18.0096 33.0785 17.9558 33.1145C17.9019 33.1504 17.8387 33.1696 17.7739 33.1696C17.6871 33.1696 17.6039 33.135 17.5425 33.0737C17.4811 33.0123 17.4466 32.9291 17.4465 32.8423Z"/>
</mask>
<path d="M18.4287 32.8423C18.4287 32.7128 18.3903 32.5862 18.3183 32.4785C18.2464 32.3708 18.1441 32.2869 18.0245 32.2373C17.9048 32.1878 17.7732 32.1748 17.6462 32.2001C17.5192 32.2253 17.4025 32.2877 17.3109 32.3793C17.2193 32.4708 17.157 32.5875 17.1317 32.7145C17.1065 32.8415 17.1194 32.9732 17.169 33.0928C17.2185 33.2125 17.3025 33.3147 17.4101 33.3867C17.5178 33.4586 17.6444 33.497 17.7739 33.497C17.9475 33.4968 18.1139 33.4278 18.2367 33.305C18.3594 33.1823 18.4285 33.0159 18.4287 32.8423ZM17.4465 32.8423C17.4465 32.7775 17.4657 32.7142 17.5017 32.6604C17.5377 32.6065 17.5888 32.5646 17.6486 32.5398C17.7084 32.515 17.7743 32.5085 17.8378 32.5212C17.9013 32.5338 17.9596 32.565 18.0054 32.6108C18.0512 32.6566 18.0824 32.7149 18.095 32.7784C18.1076 32.8419 18.1011 32.9077 18.0764 32.9675C18.0516 33.0274 18.0096 33.0785 17.9558 33.1145C17.9019 33.1504 17.8387 33.1696 17.7739 33.1696C17.6871 33.1696 17.6039 33.135 17.5425 33.0737C17.4811 33.0123 17.4466 32.9291 17.4465 32.8423Z" fill="white"/>
<path d="M18.4287 32.8423L19.4287 32.8434V32.8423H18.4287ZM17.7739 33.497V34.497L17.775 34.497L17.7739 33.497ZM17.4465 32.8423H16.4465L16.4465 32.8433L17.4465 32.8423ZM17.7739 33.1696L17.7729 34.1696H17.7739V33.1696ZM19.4287 32.8423C19.4287 32.515 19.3316 32.1951 19.1498 31.9229L17.4868 33.0341C17.4489 32.9773 17.4287 32.9105 17.4287 32.8423H19.4287ZM19.1498 31.9229C18.968 31.6508 18.7095 31.4387 18.4072 31.3135L17.6418 33.1612C17.5787 33.1351 17.5248 33.0908 17.4868 33.0341L19.1498 31.9229ZM18.4072 31.3135C18.1048 31.1882 17.7721 31.1554 17.4511 31.2193L17.8413 33.1809C17.7743 33.1942 17.7049 33.1874 17.6418 33.1612L18.4072 31.3135ZM17.4511 31.2193C17.1301 31.2831 16.8352 31.4407 16.6038 31.6722L18.018 33.0864C17.9697 33.1347 17.9082 33.1675 17.8413 33.1809L17.4511 31.2193ZM16.6038 31.6722C16.3724 31.9036 16.2148 32.1984 16.1509 32.5194L18.1125 32.9096C18.0992 32.9766 18.0663 33.0381 18.018 33.0864L16.6038 31.6722ZM16.1509 32.5194C16.0871 32.8404 16.1199 33.1731 16.2451 33.4755L18.0929 32.7101C18.119 32.7732 18.1258 32.8426 18.1125 32.9096L16.1509 32.5194ZM16.2451 33.4755C16.3703 33.7779 16.5824 34.0363 16.8546 34.2181L17.9657 32.5552C18.0225 32.5931 18.0667 32.6471 18.0929 32.7101L16.2451 33.4755ZM16.8546 34.2181C17.1267 34.4 17.4466 34.497 17.7739 34.497V32.497C17.8422 32.497 17.9089 32.5173 17.9657 32.5552L16.8546 34.2181ZM17.775 34.497C18.2135 34.4965 18.6338 34.3221 18.9438 34.0121L17.5296 32.5979C17.5941 32.5334 17.6815 32.4971 17.7728 32.497L17.775 34.497ZM18.9438 34.0121C19.2538 33.7021 19.4282 33.2818 19.4287 32.8434L17.4287 32.8411C17.4288 32.7499 17.4651 32.6624 17.5296 32.5979L18.9438 34.0121ZM18.4465 32.8423C18.4465 32.9753 18.4071 33.1053 18.3332 33.2159L16.6702 32.1048C16.5244 32.3231 16.4465 32.5797 16.4465 32.8423H18.4465ZM18.3332 33.2159C18.2593 33.3266 18.1542 33.4128 18.0313 33.4637L17.2659 31.6159C17.0234 31.7164 16.8161 31.8865 16.6702 32.1048L18.3332 33.2159ZM18.0313 33.4637C17.9084 33.5146 17.7732 33.5279 17.6427 33.502L18.0329 31.5404C17.7754 31.4892 17.5085 31.5155 17.2659 31.6159L18.0313 33.4637ZM17.6427 33.502C17.5122 33.476 17.3924 33.4119 17.2983 33.3179L18.7125 31.9037C18.5269 31.718 18.2903 31.5916 18.0329 31.5404L17.6427 33.502ZM17.2983 33.3179C17.2042 33.2238 17.1402 33.104 17.1142 32.9735L19.0758 32.5833C19.0246 32.3258 18.8981 32.0893 18.7125 31.9037L17.2983 33.3179ZM17.1142 32.9735C17.0883 32.843 17.1016 32.7078 17.1525 32.5849L19.0002 33.3502C19.1007 33.1077 19.127 32.8408 19.0758 32.5833L17.1142 32.9735ZM17.1525 32.5849C17.2034 32.462 17.2896 32.3569 17.4002 32.283L18.5114 33.9459C18.7296 33.8001 18.8998 33.5928 19.0002 33.3502L17.1525 32.5849ZM17.4002 32.283C17.5108 32.2091 17.6409 32.1696 17.7739 32.1696V34.1696C18.0364 34.1696 18.2931 34.0918 18.5114 33.9459L17.4002 32.283ZM17.7749 32.1696C17.953 32.1698 18.1237 32.2406 18.2496 32.3666L16.8354 33.7808C17.0841 34.0294 17.4212 34.1693 17.7729 34.1696L17.7749 32.1696ZM18.2496 32.3666C18.3755 32.4925 18.4463 32.6632 18.4465 32.8413L16.4465 32.8433C16.4469 33.1949 16.5867 33.5321 16.8354 33.7808L18.2496 32.3666Z" fill="url(#paint5_linear_146_17232)" mask="url(#path-10-inside-5_146_17232)"/>
<path d="M17.9101 17.4551L18.3969 16.815L18.0895 16.6409L17.7768 17.3578H17.7667L17.4491 16.6458L17.1365 16.8252L17.618 17.4502V17.4603L16.8647 17.3631V17.7114L17.623 17.6142V17.6243L17.1365 18.249L17.4282 18.4336L17.7614 17.7114H17.7716L18.079 18.4284L18.4018 18.2441L17.9101 17.6292V17.6191L18.6833 17.7114V17.3631L17.9101 17.4655V17.4551Z" fill="white"/>
<path d="M37.6931 27.5725L37.4128 27.9323L37.5811 28.0387L37.773 27.6226H37.7785L37.9556 28.0357L38.1416 27.9293L37.8584 27.5754V27.5695L38.3036 27.6226V27.4222L37.8584 27.4811V27.4752L38.1386 27.1066L37.9615 27.0061L37.7818 27.4189H37.7759L37.5929 27.009L37.4128 27.1122L37.6901 27.4723V27.4782L37.2563 27.4222V27.6226L37.6931 27.5666V27.5725Z" fill="white"/>
<path d="M68.2645 24.8495V24.5077L67.506 24.6082V24.598L67.9836 23.9701L67.6821 23.7996L67.3757 24.5028H67.3652L67.0539 23.8045L66.7471 23.9803L67.2195 24.5931V24.6033L66.481 24.5077V24.8495L67.2244 24.7539V24.764L66.7471 25.3769L67.0336 25.5579L67.3603 24.8495H67.3701L67.6716 25.5527L67.9882 25.372L67.506 24.7689V24.7591L68.2645 24.8495Z" fill="white"/>
<path d="M47.8838 27.4528L48.2956 26.911L48.0357 26.7637L47.7711 27.3703H47.7623L47.4939 26.7679L47.229 26.9198L47.6366 27.4486V27.4571L46.9995 27.3749V27.6695L47.6409 27.5874V27.5959L47.229 28.1246L47.4762 28.2808L47.7581 27.6695H47.7666L48.0268 28.2762L48.2999 28.1203L47.8838 27.6001V27.5916L48.5379 27.6695V27.3749L47.8838 27.4613V27.4528Z" fill="white"/>
<path d="M14.8095 63.8615C14.8095 63.947 14.7402 64.0163 14.6548 64.0163C14.5693 64.0163 14.5 63.947 14.5 63.8615C14.5 63.7761 14.5693 63.7068 14.6548 63.7068C14.7402 63.7068 14.8095 63.7761 14.8095 63.8615Z" fill="white" stroke="url(#paint6_linear_146_17232)"/>
<path d="M16.6191 63.7068H17.6013C17.6423 63.7068 17.6817 63.7231 17.7107 63.7521C17.7397 63.7811 17.756 63.8205 17.756 63.8615C17.756 63.9026 17.7397 63.942 17.7107 63.971L18.0642 64.3245L17.7107 63.971C17.6817 64 17.6423 64.0163 17.6013 64.0163H16.6191C16.5781 64.0163 16.5387 64 16.5097 63.971C16.4807 63.942 16.4644 63.9026 16.4644 63.8615C16.4644 63.8205 16.4807 63.7811 16.5097 63.7521C16.5387 63.7231 16.5781 63.7068 16.6191 63.7068Z" fill="white" stroke="url(#paint7_linear_146_17232)"/>
<path d="M65.3989 63.7068H66.381C66.4221 63.7068 66.4615 63.7231 66.4905 63.7521C66.5195 63.7811 66.5358 63.8205 66.5358 63.8615C66.5358 63.9026 66.5195 63.942 66.4905 63.971C66.4615 64 66.4221 64.0163 66.381 64.0163H65.3989C65.3579 64.0163 65.3185 64 65.2895 63.971C65.2604 63.942 65.2441 63.9026 65.2441 63.8615C65.2441 63.8205 65.2604 63.7811 65.2895 63.7521C65.3185 63.7231 65.3579 63.7068 65.3989 63.7068Z" fill="white" stroke="url(#paint8_linear_146_17232)"/>
<path d="M68.5 63.8615C68.5 63.947 68.4307 64.0163 68.3452 64.0163C68.2597 64.0163 68.1904 63.947 68.1904 63.8615C68.1904 63.7761 68.2597 63.7068 68.3452 63.7068C68.4307 63.7068 68.5 63.7761 68.5 63.8615Z" fill="white" stroke="url(#paint9_linear_146_17232)"/>
<path d="M52.6811 65.8259H49.9613C49.7967 65.8391 49.6431 65.9138 49.5311 66.0352C49.4191 66.1565 49.3569 66.3156 49.3569 66.4807C49.3569 66.6458 49.4191 66.8049 49.5311 66.9262C49.6431 67.0476 49.7967 67.1223 49.9613 67.1355H52.6811C52.8457 67.1223 52.9993 67.0476 53.1113 66.9262C53.2233 66.8049 53.2855 66.6458 53.2855 66.4807C53.2855 66.3156 53.2233 66.1565 53.1113 66.0352C52.9993 65.9138 52.8457 65.8391 52.6811 65.8259Z" fill="white"/>
<path d="M33.0385 65.8259H30.3188C30.1542 65.8391 30.0006 65.9138 29.8886 66.0352C29.7765 66.1565 29.7144 66.3156 29.7144 66.4807C29.7144 66.6458 29.7765 66.8049 29.8886 66.9262C30.0006 67.0476 30.1542 67.1223 30.3188 67.1355H33.0385C33.2031 67.1223 33.3567 67.0476 33.4687 66.9262C33.5808 66.8049 33.6429 66.6458 33.6429 66.4807C33.6429 66.3156 33.5808 66.1565 33.4687 66.0352C33.3567 65.9138 33.2031 65.8391 33.0385 65.8259Z" fill="white"/>
<path d="M48.0479 65.8259H34.9526C34.779 65.8259 34.6124 65.8949 34.4896 66.0177C34.3668 66.1405 34.2979 66.307 34.2979 66.4807C34.2979 66.6543 34.3668 66.8209 34.4896 66.9437C34.6124 67.0665 34.779 67.1355 34.9526 67.1355H40.1711V67.7902H37.5717C37.398 67.7902 37.2315 67.8592 37.1087 67.982C36.9859 68.1048 36.9169 68.2713 36.9169 68.445C36.9169 68.6186 36.9859 68.7852 37.1087 68.908C37.2315 69.0308 37.398 69.0997 37.5717 69.0997H45.7562C45.9298 69.0997 46.0964 69.0308 46.2192 68.908C46.342 68.7852 46.4109 68.6186 46.4109 68.445C46.4109 68.2713 46.342 68.1048 46.2192 67.982C46.0964 67.8592 45.9298 67.7902 45.7562 67.7902H42.8294V67.1355H48.0479C48.2215 67.1355 48.388 67.0665 48.5108 66.9437C48.6336 66.8209 48.7026 66.6543 48.7026 66.4807C48.7026 66.307 48.6336 66.1405 48.5108 66.0177C48.388 65.8949 48.2215 65.8259 48.0479 65.8259Z" fill="white"/>
<path d="M24.6624 26.695H25.0347H26.4399C28.0909 26.69 29.6794 27.326 30.8708 28.469C32.0624 29.6122 32.7638 31.1732 32.8271 32.8233L32.3275 32.8424M24.6624 26.695L41.1631 33.7523C40.0098 33.8145 38.9009 34.218 37.9774 34.9116L37.6778 34.5113C37.6777 34.5114 37.6776 34.5115 37.6775 34.5115C37.652 34.5305 37.6213 34.5413 37.5895 34.5423L37.5895 34.5422L37.5799 34.5427C35.8648 34.6337 34.1811 34.0572 32.8818 32.9341L32.8808 32.9333C32.8647 32.9195 32.8516 32.9025 32.8424 32.8834C32.8332 32.8643 32.8279 32.8435 32.8271 32.8223L32.3275 32.8424M24.6624 26.695L24.5557 27.0516M24.6624 26.695L24.5557 27.0516M32.3275 32.8424C32.3311 32.9322 32.3532 33.0202 32.3923 33.1011C32.4314 33.1819 32.4867 33.2539 32.5548 33.3124M32.3275 32.8424C32.2691 31.3218 31.6228 29.8833 30.5247 28.8298C29.4266 27.7763 27.9624 27.1902 26.4407 27.195L32.5548 33.3124M32.5548 33.3124C33.9519 34.52 35.7623 35.1398 37.6064 35.042L32.5548 33.3124ZM24.5557 27.0516C24.4451 27.4212 24.2183 27.7453 23.9091 27.9759C23.5999 28.2064 23.2247 28.3312 22.8391 28.3319C22.507 28.3319 22.1815 28.2396 21.8988 28.0652C21.6161 27.8909 21.3874 27.6413 21.2383 27.3444C21.0892 27.0475 21.0257 26.715 21.0547 26.3841C21.0837 26.0532 21.2042 25.7369 21.4027 25.4705C21.6011 25.2041 21.8698 24.9981 22.1786 24.8756C22.4874 24.7531 22.8241 24.7189 23.1512 24.7768C23.4784 24.8347 23.7829 24.9824 24.0309 25.2034C24.2789 25.4245 24.4606 25.7101 24.5556 26.0284L24.6621 26.3854H25.0347L26.4407 26.3854L26.4422 26.3854C28.1248 26.3803 29.7472 27.0105 30.9852 28.1499C32.2232 29.2894 32.9854 30.8541 33.1196 32.5313L33.137 32.7494L33.3091 32.8846C34.4653 33.793 35.9008 34.2725 37.371 34.2412L37.5236 34.2379L37.6484 34.15C38.6774 33.4245 39.8912 33.006 41.1486 32.9431C41.1493 32.9431 41.1501 32.943 41.1508 32.943L41.158 32.9427L41.158 32.9428L41.1661 32.9423C41.389 32.9297 41.6124 32.9298 41.8353 32.9425L41.8352 32.9426L41.8485 32.9431L41.8543 32.9432C43.1109 33.0066 44.3237 33.425 45.352 34.15L45.4769 34.238L45.6296 34.2412C47.0964 34.2722 48.5287 33.795 49.6839 32.8905L49.8567 32.7552L49.874 32.5363C50.0069 30.8582 50.7687 29.2921 52.0069 28.1516C53.245 27.0111 54.8683 26.3803 56.5517 26.3854H56.5532H57.9658H58.3385L58.445 26.0283C58.5679 25.6159 58.8352 25.2615 59.198 25.03C59.5608 24.7984 59.9947 24.7052 60.4206 24.7673C60.8465 24.8294 61.2357 25.0428 61.5172 25.3683C61.7987 25.6939 61.9536 26.1098 61.9536 26.5402C61.9536 26.9706 61.7987 27.3866 61.5172 27.7121C61.2357 28.0376 60.8465 28.251 60.4206 28.3131C59.9947 28.3752 59.5608 28.282 59.198 28.0505C58.8352 27.8189 58.5679 27.4645 58.445 27.0521L58.3385 26.695H57.9658H56.554C54.9156 26.69 53.3381 27.3163 52.1493 28.4439C50.9604 29.5716 50.2515 31.1141 50.1701 32.7508L50.1686 32.7805M24.5557 27.0516L50.1686 32.7805M50.1686 32.7805L50.1707 32.8101M50.1686 32.7805L50.1707 32.8101M50.1707 32.8101C50.1723 32.8333 50.1685 32.8566 50.1595 32.8781C50.1506 32.8995 50.1367 32.9186 50.1191 32.9338L50.4457 33.3124L50.1197 32.9333M50.1707 32.8101L50.1197 32.9333M50.1197 32.9333C48.9056 33.9773 47.3575 34.5517 45.7562 34.5521L50.1197 32.9333ZM41.8392 33.2525L41.8247 33.2519L45.7561 34.5521C45.6431 34.5521 45.5266 34.5489 45.414 34.5424L45.4107 34.5422C45.4037 34.5419 45.3967 34.541 45.3898 34.5397L45.3872 34.5392C45.3634 34.5347 45.3409 34.5249 45.3215 34.5104L45.0231 34.9116L45.3229 34.5115C44.3135 33.7551 43.1016 33.3169 41.8419 33.2527L41.8392 33.2525ZM23.1287 27.9939L23.0311 27.5035L23.1287 27.9939C23.4162 27.9367 23.6803 27.7955 23.8876 27.5882C24.0948 27.381 24.236 27.1169 24.2932 26.8294C24.3504 26.5419 24.321 26.2438 24.2088 25.973C24.0967 25.7022 23.9067 25.4707 23.663 25.3079C23.4192 25.145 23.1327 25.0581 22.8395 25.0581C22.4464 25.0581 22.0694 25.2142 21.7915 25.4922C21.5135 25.7701 21.3574 26.1471 21.3574 26.5402C21.3574 26.8333 21.4443 27.1199 21.6072 27.3636C21.77 27.6074 22.0015 27.7973 22.2723 27.9095C22.5432 28.0217 22.8412 28.0511 23.1287 27.9939ZM60.9844 25.3079C60.7406 25.145 60.4541 25.0581 60.1609 25.0581C59.7679 25.0581 59.3909 25.2142 59.1129 25.4922C58.835 25.7701 58.6788 26.1471 58.6788 26.5402C58.6788 26.8333 58.7657 27.1199 58.9286 27.3636C59.0914 27.6074 59.3229 27.7973 59.5938 27.9095C59.8646 28.0217 60.1626 28.0511 60.4501 27.9939C60.7376 27.9367 61.0017 27.7955 61.209 27.5882C61.4163 27.381 61.5574 27.1169 61.6146 26.8294C61.6718 26.5419 61.6424 26.2438 61.5303 25.973C61.4181 25.7022 61.2281 25.4707 60.9844 25.3079Z" fill="white" stroke="url(#paint10_linear_146_17232)"/>
<path d="M55.0646 39.4807H54.6919H47.893V39.6351V39.6354H47.393C47.394 40.5686 47.1718 41.486 46.7481 42.312L55.0646 39.4807ZM55.0646 39.4807L55.1711 39.1234C55.2939 38.711 55.5612 38.3567 55.9239 38.1252C56.2865 37.8936 56.7205 37.8004 57.1463 37.8625C57.572 37.9247 57.9612 38.138 58.2426 38.4635C58.524 38.7891 58.6788 39.205 58.6787 39.6353V39.6355C58.6788 40.0658 58.524 40.4818 58.2426 40.8073C57.9612 41.1328 57.572 41.3462 57.1463 41.4083C56.7205 41.4704 56.2865 41.3772 55.9239 41.1457C55.5612 40.9142 55.2939 40.5598 55.1711 40.1474L55.0646 39.7902H54.6919H48.673H48.2166L48.175 40.2446C48.1168 40.8807 47.9666 41.5044 47.7293 42.0964C47.6055 42.1204 47.483 42.1496 47.3619 42.1841L55.0646 39.4807ZM58.3407 39.3463L57.8503 39.4438L58.3407 39.3463C58.2835 39.0588 58.1424 38.7947 57.9351 38.5874C57.7278 38.3801 57.4637 38.2389 57.1762 38.1818C56.8887 38.1246 56.5907 38.1539 56.3199 38.2661C56.049 38.3783 55.8176 38.5682 55.6547 38.812C55.4918 39.0557 55.4049 39.3423 55.4049 39.6354C55.4049 40.0285 55.5611 40.4055 55.839 40.6835C56.117 40.9614 56.494 41.1176 56.887 41.1176C57.1802 41.1176 57.4667 41.0306 57.7105 40.8678C57.9542 40.7049 58.1442 40.4734 58.2564 40.2026C58.3685 39.9318 58.3979 39.6338 58.3407 39.3463Z" fill="white" stroke="url(#paint11_linear_146_17232)"/>
<path d="M58.4446 53.2425L58.3381 52.8854H57.9654H56.561C56.4464 52.8846 56.3319 52.881 56.2175 52.8745L56.2306 52.5652C56.3388 52.5715 56.4472 52.575 56.5556 52.5759L56.5556 52.5759H56.5594H57.9654H58.3381L58.4446 52.2187C58.5675 51.8063 58.8348 51.4519 59.1976 51.2204C59.5604 50.9888 59.9944 50.8956 60.4202 50.9577C60.8461 51.0199 61.2353 51.2332 61.5168 51.5588C61.7983 51.8843 61.9532 52.3003 61.9532 52.7306C61.9532 53.161 61.7983 53.577 61.5168 53.9025C61.2353 54.2281 60.8461 54.4414 60.4202 54.5035C59.9944 54.5657 59.5604 54.4724 59.1976 54.2409C58.8348 54.0094 58.5675 53.655 58.4446 53.2425ZM60.984 51.4983C60.7403 51.3354 60.4537 51.2485 60.1606 51.2485C59.7675 51.2485 59.3905 51.4046 59.1125 51.6826C58.8346 51.9606 58.6784 52.3375 58.6784 52.7306C58.6784 53.0238 58.7653 53.3103 58.9282 53.5541C59.0911 53.7978 59.3225 53.9878 59.5934 54.1C59.8642 54.2121 60.1622 54.2415 60.4497 54.1843C60.7372 54.1271 61.0013 53.986 61.2086 53.7787C61.4159 53.5714 61.557 53.3073 61.6142 53.0198C61.6714 52.7323 61.6421 52.4343 61.5299 52.1634C61.4177 51.8926 61.2277 51.6611 60.984 51.4983Z" fill="white" stroke="url(#paint12_linear_146_17232)"/>
<path d="M45.568 41.7379C45.9439 41.0142 46.1199 40.2034 46.078 39.3891C46.036 38.5747 45.7775 37.7863 45.3293 37.1052C44.881 36.424 44.2591 35.8748 43.5278 35.5141C42.7965 35.1534 41.9822 34.9943 41.1689 35.0533C40.3556 35.1122 39.5727 35.3871 38.9011 35.8494C38.2294 36.3118 37.6933 36.945 37.3479 37.6837C37.0026 38.4224 36.8605 39.2398 36.9364 40.0517C37.0123 40.8636 37.3034 41.6406 37.7797 42.3024V42.2446C37.7797 41.5648 37.9577 40.8968 38.2959 40.307C38.2019 39.8584 38.2031 39.395 38.2995 38.9469C38.3959 38.4987 38.5853 38.0758 38.8556 37.7056C39.1258 37.3353 39.4707 37.0259 39.8681 36.7974C40.2655 36.5689 40.7064 36.4264 41.1624 36.3791C41.6183 36.3319 42.0791 36.3809 42.5149 36.523C42.9507 36.6651 43.3518 36.8972 43.6923 37.2042C44.0327 37.5111 44.3049 37.8862 44.4911 38.305C44.6774 38.7238 44.7737 39.1771 44.7737 39.6355C44.7737 39.6997 44.7677 39.7624 44.764 39.8257C45.1998 40.3788 45.4776 41.0396 45.568 41.7379Z" fill="white"/>
<path d="M32.5548 45.9585L32.8804 46.3379C33.8044 45.5449 34.9271 45.0189 36.1278 44.8164L37.0045 44.6685L36.4227 43.9961C35.5114 42.9431 34.9528 41.6311 34.8253 40.2444L34.7836 39.7902H34.3274H28.3085H27.9358L27.8293 40.1473C27.7064 40.5597 27.4391 40.9141 27.0763 41.1457C26.7135 41.3772 26.2795 41.4704 25.8537 41.4083C25.4278 41.3462 25.0386 41.1328 24.7571 40.8073C24.4756 40.4818 24.3207 40.0658 24.3207 39.6354C24.3207 39.2051 24.4756 38.7891 24.7571 38.4635C25.0386 38.138 25.4278 37.9247 25.8537 37.8625C26.2795 37.8004 26.7135 37.8936 27.0763 38.1252C27.4391 38.3567 27.7064 38.7111 27.8293 39.1235L27.9358 39.4807H28.3085H35.1074V39.6354V39.6356C35.1077 40.584 35.3195 41.5204 35.7273 42.3766C36.1004 43.16 36.6291 43.8582 37.2801 44.4293V45.0284C35.8453 45.0192 34.4483 45.495 33.3168 46.3802L33.1438 46.5156L33.1264 46.7346C32.9936 48.4127 32.2318 49.9788 30.9936 51.1193C29.7554 52.2598 28.1322 52.8906 26.4488 52.8854H26.4473H25.0347H24.6624L24.5557 53.2421C24.4451 53.6116 24.2183 53.9357 23.9091 54.1663C23.5999 54.3969 23.2245 54.5218 22.8388 54.5223C22.5068 54.5223 22.1814 54.43 21.8988 54.2557C21.6161 54.0813 21.3874 53.8317 21.2383 53.5349C21.0892 53.238 21.0257 52.9055 21.0547 52.5746C21.0837 52.2436 21.2042 51.9273 21.4027 51.6609C21.6011 51.3945 21.8698 51.1886 22.1786 51.0661C22.4874 50.9436 22.8241 50.9093 23.1512 50.9672C23.4784 51.0251 23.7829 51.1728 24.0309 51.3939C24.2789 51.6149 24.4606 51.9005 24.5556 52.2189L24.6621 52.5759H25.0347H26.4466C28.085 52.5808 29.6624 51.9545 30.8512 50.827C32.0401 49.6993 32.749 48.1568 32.8304 46.5201L32.8319 46.4904L32.8298 46.4608C32.8282 46.4376 32.832 46.4143 32.841 46.3928C32.8499 46.3714 32.8638 46.3523 32.8814 46.3371L32.5548 45.9585ZM32.5548 45.9585C33.4042 45.2296 34.4097 44.7105 35.4903 44.4394L32.5548 45.9585ZM25.2899 40.8678C25.5336 41.0306 25.8202 41.1176 26.1133 41.1176C26.5064 41.1176 26.8834 40.9614 27.1614 40.6835C27.4393 40.4055 27.5955 40.0285 27.5955 39.6354C27.5955 39.3423 27.5085 39.0557 27.3457 38.812C27.1828 38.5682 26.9513 38.3783 26.6805 38.2661C26.4097 38.1539 26.1117 38.1246 25.8242 38.1818C25.5367 38.2389 25.2726 38.3801 25.0653 38.5874C24.858 38.7947 24.7169 39.0588 24.6597 39.3463C24.6025 39.6338 24.6318 39.9318 24.744 40.2026C24.8562 40.4734 25.0462 40.7049 25.2899 40.8678ZM23.663 51.4983C23.4192 51.3354 23.1327 51.2485 22.8395 51.2485C22.4464 51.2485 22.0694 51.4047 21.7915 51.6826C21.5135 51.9606 21.3574 52.3376 21.3574 52.7307C21.3574 53.0238 21.4443 53.3104 21.6072 53.5541C21.77 53.7978 22.0015 53.9878 22.2723 54.1C22.5432 54.2122 22.8412 54.2415 23.1287 54.1843C23.4162 54.1271 23.6803 53.986 23.8876 53.7787C24.0948 53.5714 24.236 53.3073 24.2932 53.0198C24.3504 52.7323 24.321 52.4343 24.2088 52.1635C24.0967 51.8926 23.9067 51.6612 23.663 51.4983Z" fill="white" stroke="url(#paint13_linear_146_17232)"/>
<mask id="path-28-inside-6_146_17232" fill="white">
<path d="M63.3431 63.2069H52.406C52.9255 62.7429 53.3456 62.1785 53.6407 61.5476C53.9359 60.9167 54.1001 60.2325 54.1235 59.5363L54.593 48.4751C54.6058 48.1262 54.5484 47.7784 54.4242 47.4521C54.2999 47.1259 54.1115 46.828 53.8699 46.576C53.526 46.2191 53.0865 45.9691 52.604 45.8558C52.1216 45.7426 51.6167 45.7709 51.1499 45.9374C51.04 45.3446 50.7263 44.8088 50.2631 44.4227C49.7999 44.0367 49.2164 43.8247 48.6134 43.8234H48.5666C47.94 43.8229 47.3349 44.0518 46.8655 44.4668C46.3961 44.0518 45.791 43.8229 45.1645 43.8234H45.1176C44.8379 43.8231 44.56 43.8686 44.2949 43.9582V42.2447C44.2958 41.9023 44.2291 41.5631 44.0987 41.2466C43.9683 40.93 43.7767 40.6423 43.5349 40.3999C43.2931 40.1575 43.0059 39.9652 42.6897 39.834C42.3734 39.7028 42.0344 39.6353 41.6921 39.6353C41.3497 39.6353 41.0107 39.7028 40.6945 39.834C40.3783 39.9652 40.091 40.1575 39.8492 40.3999C39.6075 40.6423 39.4159 40.93 39.2854 41.2466C39.155 41.5631 39.0883 41.9023 39.0892 42.2447V51.2371L38.2816 50.2411C38.063 49.971 37.7926 49.7473 37.4863 49.5833C37.18 49.4192 36.844 49.3179 36.498 49.2855C36.1521 49.2531 35.8031 49.2902 35.4717 49.3946C35.1402 49.4989 34.833 49.6685 34.568 49.8933C34.0487 50.3387 33.7228 50.9686 33.6593 51.6498C33.5959 52.331 33.7997 53.0103 34.2278 53.544L39.16 59.627L39.2436 60.1573C39.4262 61.3343 40.0106 62.4119 40.8975 63.2069H19.6565C19.5634 63.1948 19.4687 63.2026 19.3788 63.2299C19.289 63.2573 19.2059 63.3035 19.1353 63.3654C19.0647 63.4274 19.0082 63.5037 18.9694 63.5893C18.9307 63.6749 18.9106 63.7677 18.9106 63.8617C18.9106 63.9556 18.9307 64.0485 18.9694 64.1341C19.0082 64.2196 19.0647 64.296 19.1353 64.3579C19.2059 64.4199 19.289 64.4661 19.3788 64.4934C19.4687 64.5208 19.5634 64.5286 19.6565 64.5164H63.3431C63.4362 64.5286 63.5309 64.5208 63.6208 64.4934C63.7107 64.4661 63.7937 64.4199 63.8643 64.3579C63.9349 64.296 63.9914 64.2196 64.0302 64.1341C64.0689 64.0485 64.089 63.9556 64.089 63.8617C64.089 63.7677 64.0689 63.6749 64.0302 63.5893C63.9914 63.5037 63.9349 63.4274 63.8643 63.3654C63.7937 63.3035 63.7107 63.2573 63.6208 63.2299C63.5309 63.2026 63.4362 63.1948 63.3431 63.2069ZM44.3286 63.2069C43.4126 63.2052 42.5274 62.8764 41.8323 62.2799C41.1372 61.6834 40.6779 60.8584 40.5371 59.9533L40.3987 59.0755L35.2449 52.7193C35.0291 52.4528 34.9261 52.1125 34.9578 51.7711C34.9896 51.4297 35.1536 51.1143 35.4148 50.8922C35.5468 50.7802 35.6998 50.6957 35.8649 50.6437C36.03 50.5917 36.2039 50.5732 36.3762 50.5894C36.5486 50.6056 36.7159 50.6561 36.8685 50.7379C37.021 50.8197 37.1557 50.9312 37.2645 51.0658L40.3987 54.9314V42.2447C40.3979 42.0743 40.4308 41.9055 40.4954 41.7478C40.56 41.5902 40.6552 41.4469 40.7753 41.3261C40.8955 41.2054 41.0384 41.1096 41.1957 41.0442C41.353 40.9788 41.5217 40.9451 41.6921 40.9451C41.8624 40.9451 42.0311 40.9788 42.1885 41.0442C42.3458 41.1096 42.4886 41.2054 42.6088 41.3261C42.729 41.4469 42.8241 41.5902 42.8888 41.7478C42.9534 41.9055 42.9862 42.0743 42.9854 42.2447V50.6614L43.8477 50.6026V46.409C43.8473 46.2419 43.8798 46.0762 43.9434 45.9216C44.007 45.767 44.1004 45.6264 44.2184 45.5079C44.3363 45.3894 44.4764 45.2953 44.6307 45.231C44.785 45.1666 44.9505 45.1333 45.1176 45.1329H45.1645C45.3316 45.1333 45.4971 45.1666 45.6514 45.231C45.8057 45.2953 45.9458 45.3894 46.0637 45.5079C46.1817 45.6264 46.2751 45.767 46.3387 45.9216C46.4023 46.0762 46.4348 46.2419 46.4344 46.409V50.4263L47.2967 50.3675V46.409C47.2963 46.2419 47.3288 46.0762 47.3924 45.9216C47.456 45.767 47.5494 45.6264 47.6673 45.5079C47.7853 45.3894 47.9254 45.2953 48.0797 45.231C48.234 45.1666 48.3994 45.1333 48.5666 45.1329H48.6134C48.7806 45.1333 48.9461 45.1666 49.1004 45.231C49.2547 45.2953 49.3948 45.3894 49.5127 45.5079C49.6306 45.6264 49.7241 45.767 49.7877 45.9216C49.8513 46.0762 49.8838 46.2419 49.8834 46.409V50.1912L50.7456 50.1324V48.3733C50.7448 48.2041 50.7779 48.0364 50.8428 47.8801C50.9077 47.7238 51.0032 47.5821 51.1237 47.4632C51.2442 47.3444 51.3872 47.2508 51.5443 47.188C51.7015 47.1252 51.8696 47.0944 52.0388 47.0975C52.208 47.1005 52.3749 47.1374 52.5296 47.2059C52.6844 47.2744 52.8239 47.3731 52.94 47.4963C53.056 47.6194 53.1463 47.7645 53.2055 47.9231C53.2647 48.0816 53.2916 48.2504 53.2847 48.4195L52.8148 59.4891C52.7813 60.485 52.3627 61.429 51.6471 62.1224C50.9316 62.8158 49.975 63.2046 48.9786 63.2069H44.3286Z"/>
</mask>
<path d="M63.3431 63.2069H52.406C52.9255 62.7429 53.3456 62.1785 53.6407 61.5476C53.9359 60.9167 54.1001 60.2325 54.1235 59.5363L54.593 48.4751C54.6058 48.1262 54.5484 47.7784 54.4242 47.4521C54.2999 47.1259 54.1115 46.828 53.8699 46.576C53.526 46.2191 53.0865 45.9691 52.604 45.8558C52.1216 45.7426 51.6167 45.7709 51.1499 45.9374C51.04 45.3446 50.7263 44.8088 50.2631 44.4227C49.7999 44.0367 49.2164 43.8247 48.6134 43.8234H48.5666C47.94 43.8229 47.3349 44.0518 46.8655 44.4668C46.3961 44.0518 45.791 43.8229 45.1645 43.8234H45.1176C44.8379 43.8231 44.56 43.8686 44.2949 43.9582V42.2447C44.2958 41.9023 44.2291 41.5631 44.0987 41.2466C43.9683 40.93 43.7767 40.6423 43.5349 40.3999C43.2931 40.1575 43.0059 39.9652 42.6897 39.834C42.3734 39.7028 42.0344 39.6353 41.6921 39.6353C41.3497 39.6353 41.0107 39.7028 40.6945 39.834C40.3783 39.9652 40.091 40.1575 39.8492 40.3999C39.6075 40.6423 39.4159 40.93 39.2854 41.2466C39.155 41.5631 39.0883 41.9023 39.0892 42.2447V51.2371L38.2816 50.2411C38.063 49.971 37.7926 49.7473 37.4863 49.5833C37.18 49.4192 36.844 49.3179 36.498 49.2855C36.1521 49.2531 35.8031 49.2902 35.4717 49.3946C35.1402 49.4989 34.833 49.6685 34.568 49.8933C34.0487 50.3387 33.7228 50.9686 33.6593 51.6498C33.5959 52.331 33.7997 53.0103 34.2278 53.544L39.16 59.627L39.2436 60.1573C39.4262 61.3343 40.0106 62.4119 40.8975 63.2069H19.6565C19.5634 63.1948 19.4687 63.2026 19.3788 63.2299C19.289 63.2573 19.2059 63.3035 19.1353 63.3654C19.0647 63.4274 19.0082 63.5037 18.9694 63.5893C18.9307 63.6749 18.9106 63.7677 18.9106 63.8617C18.9106 63.9556 18.9307 64.0485 18.9694 64.1341C19.0082 64.2196 19.0647 64.296 19.1353 64.3579C19.2059 64.4199 19.289 64.4661 19.3788 64.4934C19.4687 64.5208 19.5634 64.5286 19.6565 64.5164H63.3431C63.4362 64.5286 63.5309 64.5208 63.6208 64.4934C63.7107 64.4661 63.7937 64.4199 63.8643 64.3579C63.9349 64.296 63.9914 64.2196 64.0302 64.1341C64.0689 64.0485 64.089 63.9556 64.089 63.8617C64.089 63.7677 64.0689 63.6749 64.0302 63.5893C63.9914 63.5037 63.9349 63.4274 63.8643 63.3654C63.7937 63.3035 63.7107 63.2573 63.6208 63.2299C63.5309 63.2026 63.4362 63.1948 63.3431 63.2069ZM44.3286 63.2069C43.4126 63.2052 42.5274 62.8764 41.8323 62.2799C41.1372 61.6834 40.6779 60.8584 40.5371 59.9533L40.3987 59.0755L35.2449 52.7193C35.0291 52.4528 34.9261 52.1125 34.9578 51.7711C34.9896 51.4297 35.1536 51.1143 35.4148 50.8922C35.5468 50.7802 35.6998 50.6957 35.8649 50.6437C36.03 50.5917 36.2039 50.5732 36.3762 50.5894C36.5486 50.6056 36.7159 50.6561 36.8685 50.7379C37.021 50.8197 37.1557 50.9312 37.2645 51.0658L40.3987 54.9314V42.2447C40.3979 42.0743 40.4308 41.9055 40.4954 41.7478C40.56 41.5902 40.6552 41.4469 40.7753 41.3261C40.8955 41.2054 41.0384 41.1096 41.1957 41.0442C41.353 40.9788 41.5217 40.9451 41.6921 40.9451C41.8624 40.9451 42.0311 40.9788 42.1885 41.0442C42.3458 41.1096 42.4886 41.2054 42.6088 41.3261C42.729 41.4469 42.8241 41.5902 42.8888 41.7478C42.9534 41.9055 42.9862 42.0743 42.9854 42.2447V50.6614L43.8477 50.6026V46.409C43.8473 46.2419 43.8798 46.0762 43.9434 45.9216C44.007 45.767 44.1004 45.6264 44.2184 45.5079C44.3363 45.3894 44.4764 45.2953 44.6307 45.231C44.785 45.1666 44.9505 45.1333 45.1176 45.1329H45.1645C45.3316 45.1333 45.4971 45.1666 45.6514 45.231C45.8057 45.2953 45.9458 45.3894 46.0637 45.5079C46.1817 45.6264 46.2751 45.767 46.3387 45.9216C46.4023 46.0762 46.4348 46.2419 46.4344 46.409V50.4263L47.2967 50.3675V46.409C47.2963 46.2419 47.3288 46.0762 47.3924 45.9216C47.456 45.767 47.5494 45.6264 47.6673 45.5079C47.7853 45.3894 47.9254 45.2953 48.0797 45.231C48.234 45.1666 48.3994 45.1333 48.5666 45.1329H48.6134C48.7806 45.1333 48.9461 45.1666 49.1004 45.231C49.2547 45.2953 49.3948 45.3894 49.5127 45.5079C49.6306 45.6264 49.7241 45.767 49.7877 45.9216C49.8513 46.0762 49.8838 46.2419 49.8834 46.409V50.1912L50.7456 50.1324V48.3733C50.7448 48.2041 50.7779 48.0364 50.8428 47.8801C50.9077 47.7238 51.0032 47.5821 51.1237 47.4632C51.2442 47.3444 51.3872 47.2508 51.5443 47.188C51.7015 47.1252 51.8696 47.0944 52.0388 47.0975C52.208 47.1005 52.3749 47.1374 52.5296 47.2059C52.6844 47.2744 52.8239 47.3731 52.94 47.4963C53.056 47.6194 53.1463 47.7645 53.2055 47.9231C53.2647 48.0816 53.2916 48.2504 53.2847 48.4195L52.8148 59.4891C52.7813 60.485 52.3627 61.429 51.6471 62.1224C50.9316 62.8158 49.975 63.2046 48.9786 63.2069H44.3286Z" fill="white" stroke="url(#paint14_linear_146_17232)" stroke-width="2" mask="url(#path-28-inside-6_146_17232)"/>
</g>
<defs>
<linearGradient id="paint0_linear_146_17232" x1="42" y1="0" x2="42" y2="84" gradientUnits="userSpaceOnUse">
<stop stop-color="#92FD97"/>
<stop offset="1" stop-color="#95FCA2"/>
</linearGradient>
<linearGradient id="paint1_linear_146_17232" x1="30.1457" y1="16.5552" x2="30.1457" y2="18.5195" gradientUnits="userSpaceOnUse">
<stop stop-color="#92FD97"/>
<stop offset="1" stop-color="#95FCA2"/>
</linearGradient>
<linearGradient id="paint2_linear_146_17232" x1="65.8261" y1="37.5076" x2="65.8261" y2="38.8171" gradientUnits="userSpaceOnUse">
<stop stop-color="#92FD97"/>
<stop offset="1" stop-color="#95FCA2"/>
</linearGradient>
<linearGradient id="paint3_linear_146_17232" x1="45.2011" y1="19.9109" x2="45.2011" y2="21.2204" gradientUnits="userSpaceOnUse">
<stop stop-color="#92FD97"/>
<stop offset="1" stop-color="#95FCA2"/>
</linearGradient>
<linearGradient id="paint4_linear_146_17232" x1="61.7978" y1="15.9004" x2="61.7978" y2="17.2099" gradientUnits="userSpaceOnUse">
<stop stop-color="#92FD97"/>
<stop offset="1" stop-color="#95FCA2"/>
</linearGradient>
<linearGradient id="paint5_linear_146_17232" x1="17.7739" y1="32.1875" x2="17.7739" y2="33.497" gradientUnits="userSpaceOnUse">
<stop stop-color="#92FD97"/>
<stop offset="1" stop-color="#95FCA2"/>
</linearGradient>
<linearGradient id="paint6_linear_146_17232" x1="14.6548" y1="63.2068" x2="14.6548" y2="64.5163" gradientUnits="userSpaceOnUse">
<stop stop-color="#92FD97"/>
<stop offset="1" stop-color="#95FCA2"/>
</linearGradient>
<linearGradient id="paint7_linear_146_17232" x1="17.1102" y1="63.2068" x2="17.1102" y2="64.5163" gradientUnits="userSpaceOnUse">
<stop stop-color="#92FD97"/>
<stop offset="1" stop-color="#95FCA2"/>
</linearGradient>
<linearGradient id="paint8_linear_146_17232" x1="65.89" y1="63.2068" x2="65.89" y2="64.5163" gradientUnits="userSpaceOnUse">
<stop stop-color="#92FD97"/>
<stop offset="1" stop-color="#95FCA2"/>
</linearGradient>
<linearGradient id="paint9_linear_146_17232" x1="68.3452" y1="63.2068" x2="68.3452" y2="64.5163" gradientUnits="userSpaceOnUse">
<stop stop-color="#92FD97"/>
<stop offset="1" stop-color="#95FCA2"/>
</linearGradient>
<linearGradient id="paint10_linear_146_17232" x1="41.5007" y1="24.2485" x2="41.5007" y2="35.0521" gradientUnits="userSpaceOnUse">
<stop stop-color="#92FD97"/>
<stop offset="1" stop-color="#95FCA2"/>
</linearGradient>
<linearGradient id="paint11_linear_146_17232" x1="52.8381" y1="37.3438" x2="52.8381" y2="42.9067" gradientUnits="userSpaceOnUse">
<stop stop-color="#92FD97"/>
<stop offset="1" stop-color="#95FCA2"/>
</linearGradient>
<linearGradient id="paint12_linear_146_17232" x1="59.0755" y1="50.439" x2="59.0755" y2="55.0223" gradientUnits="userSpaceOnUse">
<stop stop-color="#92FD97"/>
<stop offset="1" stop-color="#95FCA2"/>
</linearGradient>
<linearGradient id="paint13_linear_146_17232" x1="29.164" y1="37.3438" x2="29.164" y2="55.0223" gradientUnits="userSpaceOnUse">
<stop stop-color="#92FD97"/>
<stop offset="1" stop-color="#95FCA2"/>
</linearGradient>
<linearGradient id="paint14_linear_146_17232" x1="41.4998" y1="39.6353" x2="41.4998" y2="64.522" gradientUnits="userSpaceOnUse">
<stop stop-color="#92FD97"/>
<stop offset="1" stop-color="#95FCA2"/>
</linearGradient>
<clipPath id="clip0_146_17232">
<rect width="55" height="55" fill="white" transform="translate(14 15)"/>
</clipPath>
</defs>
</svg>
