<svg width="123" height="136" viewBox="0 0 123 136" fill="none" xmlns="http://www.w3.org/2000/svg">
<g filter="url(#filter0_d_144_6931)">
<path d="M70.1572 60.1308L31.2275 56.4312C31.2275 56.4312 34.6608 77.0008 36.2876 89.736C38.8146 109.515 67.981 113.138 69.5293 101.049C70.1477 94.664 68.9514 78.6895 70.1572 60.1308Z" fill="#B2C6CC"/>
<mask id="mask0_144_6931" style="mask-type:luminance" maskUnits="userSpaceOnUse" x="33" y="71" width="37" height="37">
<path d="M58.6603 108C49.5618 108 37.8481 101.946 36.2879 89.736C35.5898 84.2669 34.5576 77.3529 33.6074 71.2428C34.1093 72.0859 34.6123 72.9064 35.1177 73.7044C35.8681 78.5623 36.6518 83.8637 37.1965 88.1306C37.7352 92.3487 39.7009 95.7022 42.3611 98.1984C41.9069 95.5405 41.3658 88.8524 40.8913 81.8278C54.6741 99.0474 67.7922 101.071 69.3703 101.071C69.4737 101.071 69.5272 101.062 69.5296 101.049C68.9362 105.675 64.3019 108.001 58.6603 108Z" fill="white"/>
</mask>
<g mask="url(#mask0_144_6931)">
<path d="M58.6603 108C49.5618 108 37.8481 101.946 36.2879 89.736C35.5898 84.2669 34.5576 77.3529 33.6074 71.2428C34.1093 72.0859 34.6123 72.9064 35.1177 73.7044C35.8681 78.5623 36.6518 83.8637 37.1965 88.1306C37.7352 92.3487 39.7009 95.7022 42.3611 98.1984C41.9069 95.5405 41.3658 88.8524 40.8913 81.8278C54.6741 99.0474 67.7922 101.071 69.3703 101.071C69.4737 101.071 69.5272 101.062 69.5296 101.049C68.9362 105.675 64.3019 108.001 58.6603 108Z" fill="url(#paint0_linear_144_6931)"/>
</g>
<path d="M39.7388 60.4577L32.8926 59.8073C32.8926 59.8073 35.8133 77.3004 37.1963 88.1304C37.735 92.3485 39.7008 95.7021 42.361 98.1982C41.2634 91.7694 39.6496 61.754 39.7388 60.4577Z" fill="#D1E1E6"/>
<path d="M69.5293 101.049C70.1477 94.664 68.9514 78.6895 70.1572 60.1308L31.2275 56.4312C31.2275 56.4312 32.3442 63.1264 33.6071 71.2416C50.5865 99.7729 69.496 101.307 69.5293 101.049Z" fill="#869EA6"/>
<path d="M69.6271 19.1555C81.3478 24.3416 81.9614 35.52 78.3974 40.4219L78.3855 40.4243C78.6103 38.7178 77.9907 36.6141 76.4697 33.7922C74.7561 30.7026 73.6513 31.1711 72.5834 31.6409C71.9543 31.9168 71.3383 32.1927 70.6165 31.7408C67.9943 30.1009 67.0917 26.6653 64.0901 25.2525C62.4241 24.4748 60.5392 24.6246 58.621 24.7744C56.5221 24.9386 54.385 25.1027 52.4502 24.0514C48.5461 21.9204 50.7853 17.5251 44.5575 18.6299C43.7179 18.4051 42.7666 18.26 41.751 18.2065C43.775 14.9421 48.8802 13.5793 53.4004 14.6984C55.893 15.3227 57.3283 15.1241 58.734 14.9243C60.1337 14.7269 61.5048 14.5283 63.8665 15.1443C67.7695 16.1504 67.6161 18.2707 69.6271 19.1555Z" fill="#B2C6CC"/>
<path d="M41.7514 18.2066C42.767 18.2601 43.7183 18.4052 44.5579 18.6299C50.7857 17.5252 48.5465 21.9204 52.4506 24.0515C54.3854 25.1028 56.5225 24.9387 58.6214 24.7745C60.5396 24.6247 62.4245 24.4749 64.0905 25.2526C67.0921 26.6654 67.9947 30.101 70.6168 31.7409C71.3387 32.1928 71.9547 31.9169 72.5838 31.641C73.6517 31.1712 74.7565 30.7027 76.4701 33.7923C77.9911 36.6142 78.6107 38.7179 78.3859 40.4244C78.0422 43.0406 75.7292 44.7614 71.5361 46.8271C66.2406 49.4314 64.5424 52.2142 59.6334 52.7992C56.2775 53.1881 53.4531 52.0465 50.2149 51.6766C46.0587 51.1903 44.3439 51.9418 40.5229 50.516C37.2978 49.3113 35.0883 46.2087 32.5505 43.64C30.0259 41.0701 27.8508 41.4103 27.173 34.9969C25.7697 21.5375 35.0895 17.8391 41.7514 18.2066Z" fill="#D1E1E6"/>
<path d="M54.2815 38.02C54.0115 38.02 53.7666 37.8345 53.7023 37.5586C53.2778 35.7177 52.4894 34.8282 51.6545 33.8864C50.5783 32.671 49.464 31.414 49.2868 28.2935C49.1965 26.7226 49.6591 25.0458 50.0289 23.6985C50.1526 23.2549 50.2655 22.8446 50.344 22.4879C50.413 22.168 50.7293 21.9658 51.0516 22.0348C51.3727 22.105 51.576 22.4224 51.5047 22.7423C51.4226 23.1169 51.3049 23.5474 51.1765 24.0148C50.828 25.2777 50.3952 26.8487 50.4737 28.2258C50.6283 30.9336 51.5166 31.9372 52.5452 33.0979C53.3991 34.0623 54.3683 35.1564 54.8618 37.2911C54.9355 37.6109 54.7358 37.9308 54.4159 38.0046L54.2815 38.02Z" fill="#A5BFC7"/>
<path d="M58.8936 42.1726C58.5749 42.1726 58.3097 41.9193 58.299 41.5971C58.2003 38.5004 59.9092 37.1685 61.4159 35.9924C62.7169 34.978 63.9441 34.0207 64.1499 31.9621C64.182 31.6351 64.4686 31.4068 64.8004 31.4294C65.1262 31.4615 65.3652 31.7528 65.3319 32.0798C65.0774 34.645 63.522 35.8591 62.1484 36.9306C60.6774 38.077 59.4085 39.0664 59.4882 41.559C59.4989 41.8872 59.2408 42.1619 58.9126 42.1714L58.8936 42.1726Z" fill="#A5BFC7"/>
<path d="M72.6561 41.9966C71.5668 41.9966 70.5714 41.5934 69.5951 41.1986C68.1764 40.6254 66.8337 40.0832 65.1141 40.6671C64.8014 40.7729 64.466 40.6076 64.359 40.296C64.2532 39.9856 64.4196 39.6479 64.73 39.5421C66.8742 38.8131 68.5557 39.4957 70.041 40.0962C71.6013 40.7289 72.8321 41.2248 74.428 40.2841C74.7086 40.1177 75.0749 40.2104 75.2414 40.4946C75.4091 40.7777 75.3151 41.1415 75.0309 41.3092C74.1818 41.8099 73.3969 41.9966 72.6561 41.9966Z" fill="#A5BFC7"/>
<path d="M48.1863 38.3813C47.8819 38.3813 47.6238 38.1494 47.5953 37.8403C47.3979 35.6533 48.0793 33.7529 48.6798 32.0774C48.9997 31.1867 49.3006 30.3471 49.4635 29.5159C49.5266 29.1936 49.8346 28.9843 50.1616 29.0473C50.4839 29.1103 50.6944 29.4219 50.6302 29.7442C50.4506 30.6634 50.1343 31.5446 49.8001 32.4781C49.2138 34.1157 48.6073 35.8079 48.7797 37.7332C48.8095 38.0603 48.5693 38.3492 48.241 38.379L48.1863 38.3813Z" fill="#A5BFC7"/>
<path d="M52.2422 49.467C50.4417 49.467 48.7709 49.0116 47.4259 47.5572C47.2023 47.3158 47.2178 46.9388 47.458 46.7164C47.7006 46.4928 48.0764 46.5083 48.2988 46.7497C50.3395 48.9545 53.4718 48.3171 56.7849 47.6428C59.2002 47.1517 61.6963 46.6427 63.8583 47.2789C64.1734 47.3717 64.353 47.7023 64.2602 48.0174C64.1687 48.3326 63.8405 48.5133 63.5217 48.4193C61.6452 47.8664 59.2941 48.3456 57.0216 48.8082C55.4138 49.1352 53.7798 49.467 52.2422 49.467Z" fill="#A5BFC7"/>
<path d="M44.6485 32.1978C44.4285 32.1978 44.2168 32.0741 44.1145 31.8636C42.8421 29.2616 43.3879 26.7167 43.9159 24.2551C44.3334 22.3024 44.7282 20.4592 44.1431 18.7741C44.036 18.4637 44.2002 18.1247 44.5105 18.0177C44.8197 17.9083 45.1575 18.0736 45.2669 18.3828C45.9614 20.3831 45.5118 22.4772 45.0778 24.5036C44.57 26.8713 44.0919 29.1082 45.1824 31.3415C45.3263 31.6364 45.205 31.9932 44.9089 32.1371L44.6485 32.1978Z" fill="#A5BFC7"/>
<path d="M61.8066 37.0342L61.558 36.9795C61.2583 36.8415 61.1299 36.4871 61.2667 36.1898C62.4939 33.5451 61.4248 30.2379 61.1989 29.6017C61.0883 29.2925 61.25 28.9524 61.558 28.8418C61.8684 28.7347 62.2085 28.8929 62.3179 29.2021C62.5724 29.9156 63.7676 33.6259 62.3477 36.6905C62.2466 36.9069 62.0313 37.0342 61.8066 37.0342Z" fill="#A5BFC7"/>
<path d="M40.0294 29.4719C39.8511 29.4719 39.6739 29.3923 39.5561 29.2388C39.3575 28.9784 39.4075 28.605 39.6679 28.4064C41.5397 26.9722 43.1368 25.0897 44.1619 23.1061C44.3129 22.8136 44.6733 22.703 44.9622 22.8517C45.2548 23.0015 45.369 23.3606 45.2179 23.652C44.1144 25.789 42.3995 27.8118 40.391 29.3494C40.2827 29.4326 40.1555 29.4719 40.0294 29.4719Z" fill="#A5BFC7"/>
<path d="M53.8351 43.5188L53.7221 43.5081C52.6744 43.3047 51.6838 43.0384 50.7253 42.7803C47.9069 42.0204 45.2407 41.3033 41.6315 42.3677C41.3128 42.464 40.9858 42.2808 40.893 41.9657C40.7991 41.6506 40.9798 41.32 41.2938 41.2272C45.2289 40.0689 48.1816 40.8633 51.0357 41.6316C51.9728 41.8849 52.942 42.1453 53.9469 42.3403C54.2703 42.4033 54.4796 42.7149 54.419 43.0372C54.3631 43.3214 54.1146 43.5188 53.8351 43.5188Z" fill="#A5BFC7"/>
<path d="M58.1856 33.834L58.1309 33.8328C57.8026 33.8019 57.5624 33.5117 57.5933 33.1847C57.8562 30.3258 56.6919 27.4278 54.398 25.2325C54.1613 25.0054 54.153 24.6296 54.379 24.3917C54.6073 24.1551 54.9819 24.1444 55.2197 24.3728C57.7777 26.8201 59.0739 30.0725 58.7778 33.2941C58.7481 33.6033 58.4888 33.834 58.1856 33.834Z" fill="#A5BFC7"/>
<path d="M32.0513 28.5691C31.7528 28.5691 31.4959 28.3455 31.4614 28.0411C31.0321 24.2166 34.5462 19.0282 38.4242 17.7605C38.737 17.6546 39.0711 17.827 39.1746 18.141C39.2769 18.4526 39.1068 18.788 38.7941 18.8902C35.1373 20.0866 32.3082 24.9302 32.6435 27.9079C32.6792 28.235 32.4449 28.5287 32.1191 28.5655L32.0513 28.5691Z" fill="#A5BFC7"/>
<path d="M36.2416 24.2539C36.0132 24.2539 35.7932 24.1195 35.6957 23.8959C35.5589 23.5796 35.3865 23.299 35.2164 23.0231C34.8573 22.438 34.4518 21.7744 34.3816 20.8468C34.3567 20.5198 34.6028 20.2356 34.9311 20.2106C35.2581 20.1856 35.5423 20.4318 35.5684 20.7588C35.616 21.3986 35.9002 21.8636 36.2308 22.4011C36.4235 22.7163 36.6221 23.0409 36.7874 23.4226C36.9182 23.7223 36.7803 24.0731 36.4794 24.2039L36.2416 24.2539Z" fill="#A5BFC7"/>
<path d="M41.4613 45.6711C36.9708 45.6711 34.2547 40.5112 33.8242 36.9115L33.7802 36.5095C33.6446 35.161 33.4615 34.5034 32.792 34.4118C32.4674 34.3666 32.2378 34.0669 32.283 33.7411C32.327 33.4164 32.6303 33.1893 32.9525 33.2333C34.6674 33.4676 34.8529 35.2965 34.9635 36.3894L35.0039 36.7688C35.394 40.0141 37.7629 44.671 41.7419 44.4748C42.0666 44.4665 42.3508 44.7055 42.371 45.0325C42.39 45.3607 42.1391 45.6414 41.8121 45.6616C41.6932 45.6688 41.5766 45.6711 41.4613 45.6711Z" fill="#A5BFC7"/>
<path d="M37.9007 39.2258C36.3 39.2258 34.8515 38.2876 33.9311 37.2661C33.7099 37.0223 33.7301 36.6465 33.9739 36.4265C34.2177 36.2065 34.5947 36.2255 34.8135 36.4693C35.6674 37.4171 37.1979 38.3625 38.7105 37.9201C39.0221 37.8261 39.3563 38.0069 39.449 38.3209C39.5418 38.636 39.361 38.9666 39.047 39.0594C38.6594 39.1747 38.2753 39.2258 37.9007 39.2258Z" fill="#A5BFC7"/>
<path d="M53.127 22.1477C51.7392 22.1477 50.3859 21.8017 49.1634 20.8052C48.9077 20.5982 48.8697 20.2224 49.0766 19.9679C49.2847 19.7135 49.6605 19.6766 49.9126 19.8823C52.1423 21.6982 55.0452 20.8408 57.8529 20.0119C59.4369 19.5445 60.9341 19.1034 62.3421 19.0986H62.3445C62.6715 19.0986 62.9379 19.3626 62.9391 19.6909C62.9403 20.0191 62.6739 20.2866 62.3469 20.2878C61.1077 20.2914 59.6902 20.71 58.1894 21.1524C56.565 21.6328 54.8192 22.1477 53.127 22.1477Z" fill="#D1E1E6"/>
<path d="M71.6509 26.291L71.3642 26.2173C68.8455 24.8283 65.6787 25.0721 62.6129 25.3087L62.3239 25.3301C62.0183 25.3432 61.7103 25.1113 61.6853 24.7831C61.6604 24.4561 61.9053 24.1706 62.2336 24.1445L62.5225 24.1231C65.7596 23.8722 69.1095 23.6153 71.9374 25.1756C72.2252 25.3349 72.3299 25.6964 72.1705 25.9842C72.0623 26.1804 71.8602 26.291 71.6509 26.291Z" fill="#D1E1E6"/>
<path d="M69.3683 25.4453C69.165 25.4453 68.9664 25.3395 68.8546 25.1516C68.6893 24.8686 68.7845 24.5035 69.0675 24.3382C69.8559 23.8744 70.6111 23.1704 71.1355 22.4069C71.3234 22.1346 71.6956 22.068 71.962 22.2547C72.2331 22.4403 72.3021 22.8112 72.1154 23.0812C71.4851 23.9957 70.617 24.8067 69.6692 25.3633L69.3683 25.4453Z" fill="#D1E1E6"/>
<path d="M58.5681 21.0203L58.2636 20.9358C57.9818 20.7682 57.8878 20.4031 58.0567 20.1201C58.4444 19.4696 58.7964 18.8012 59.1044 18.1341C59.2412 17.8344 59.5979 17.706 59.8928 17.8428C60.1913 17.9795 60.3209 18.3327 60.1842 18.6312C59.8607 19.3364 59.4873 20.0428 59.0782 20.7289C58.9676 20.9168 58.7702 21.0203 58.5681 21.0203Z" fill="#D1E1E6"/>
<path d="M56.17 18.7595C55.8941 18.7595 55.6467 18.5657 55.5885 18.2838C55.3566 17.1434 54.1519 15.8924 52.5215 15.098C52.2254 14.9541 52.1029 14.5973 52.2468 14.3024C52.3919 14.0063 52.7498 13.885 53.0412 14.0288C54.5943 14.7864 56.3852 16.2384 56.7539 18.046C56.8193 18.3683 56.6112 18.6822 56.2901 18.7476L56.17 18.7595Z" fill="#D1E1E6"/>
<path d="M63.9775 22.3821C63.6516 22.3821 63.3876 22.1205 63.3829 21.7946C63.3781 21.4664 63.6397 21.1976 63.9691 21.1929C66.8827 21.1513 69.4906 21.0276 71.8916 19.924C72.1853 19.7884 72.5433 19.9168 72.68 20.2153C72.8168 20.5138 72.6872 20.8671 72.3887 21.0038C69.7772 22.2061 67.0373 22.3381 63.9858 22.3821H63.9775Z" fill="#D1E1E6"/>
<path d="M77.3488 31.5281C77.1062 31.5281 76.8766 31.3782 76.7898 31.1368C76.2 29.5136 75.0429 28.171 73.6967 27.5443C73.3994 27.4063 73.271 27.0519 73.4089 26.7546C73.5481 26.4561 73.9025 26.33 74.1986 26.4656C75.8492 27.2338 77.2013 28.7881 77.9077 30.7313C78.0195 31.0393 77.8601 31.3806 77.5521 31.4924L77.3488 31.5281Z" fill="#D1E1E6"/>
<path d="M73.7891 30.7062C74.9283 30.7062 75.9154 31.5684 76.9892 33.5044C77.9977 35.375 78.6208 36.9519 78.8824 38.3171C79.8254 36.0113 79.9848 33.0668 79.2427 30.3138C78.0107 25.7366 74.5109 21.9668 69.3855 19.699C68.4757 19.2994 67.9477 18.6775 67.4352 18.0757C66.686 17.1957 65.9118 16.2848 63.7177 15.7199C61.7983 15.2193 60.3119 15.3025 58.8337 15.5118C57.3044 15.7271 55.4599 15.8269 53.2551 15.274C52.2717 15.0314 51.2466 14.9077 50.2096 14.9077C47.1367 14.9077 44.4265 15.9602 42.8675 17.7059C43.468 17.7785 44.0424 17.8843 44.5823 18.0222C45.228 17.9128 45.7941 17.8605 46.3078 17.8605C48.9455 17.8605 49.6531 19.2994 50.3369 20.692C50.8423 21.7194 51.3631 22.7814 52.7355 23.5294C53.7166 24.0622 54.8166 24.3012 56.3043 24.3012C57.0546 24.3012 57.8359 24.2393 58.5899 24.1811C59.351 24.1204 60.1394 24.0598 60.9053 24.0598C62.2943 24.0598 63.3859 24.2679 64.342 24.7138C66.1033 25.5427 67.1688 26.9769 68.201 28.3635C69.0358 29.4849 69.8231 30.5433 70.9314 31.2366C71.3714 31.5125 71.8019 31.3341 72.3311 31.101C72.7533 30.9155 73.2337 30.7062 73.7891 30.7062ZM78.3949 41.0166C78.245 41.0166 78.0964 40.9607 77.9846 40.8573C77.8443 40.7265 77.7705 40.5362 77.7955 40.3471C78.0012 38.7904 77.4126 36.7973 75.9451 34.074C74.7357 31.8954 74.0234 31.8954 73.7891 31.8954C73.4835 31.8954 73.1552 32.0381 72.8092 32.1904C72.098 32.5031 71.13 32.7635 70.3 32.2451C69.0025 31.4328 68.1095 30.2341 67.2473 29.0735C66.2602 27.7451 65.3255 26.4917 63.8366 25.7913C63.0446 25.4214 62.1135 25.249 60.9053 25.249C60.1846 25.249 59.4556 25.3061 58.6815 25.3667C57.9049 25.4274 57.101 25.4904 56.3043 25.4904C54.6299 25.4904 53.317 25.199 52.167 24.5747C50.4617 23.6436 49.8017 22.2986 49.2689 21.2164C48.6279 19.9119 48.2046 19.0497 46.3078 19.0497C45.8369 19.0497 45.2827 19.1056 44.6596 19.215L44.4027 19.2043C43.5905 18.9866 42.6879 18.8511 41.7199 18.8012C41.5106 18.7893 41.3215 18.6679 41.224 18.4824C41.1265 18.2957 41.1348 18.0722 41.2454 17.8926C42.8425 15.318 46.2781 13.7185 50.2096 13.7185C51.3429 13.7185 52.4643 13.854 53.5429 14.1204C54.6311 14.3939 55.605 14.526 56.5183 14.526C57.3103 14.526 57.9703 14.4332 58.6684 14.3333C60.1727 14.1216 61.9173 14.0217 64.0162 14.5688C66.573 15.2276 67.5529 16.3799 68.3413 17.3051C68.8242 17.8724 69.2047 18.3207 69.8659 18.612C75.3279 21.0285 79.0644 25.0742 80.3915 30.0046C81.4428 33.9147 80.8636 38.0412 78.8777 40.7716C78.7897 40.8929 78.6589 40.9762 78.5126 41.0059L78.3949 41.0166Z" fill="#B2C6CC"/>
<path d="M40.8594 18.7775C36.8102 18.7775 33.1463 20.2652 30.8071 22.86C28.2491 25.6999 27.2253 29.7622 27.764 34.9352C28.2444 39.4791 29.4384 40.3794 31.089 41.6256C31.661 42.0573 32.3091 42.5461 32.9739 43.2227C33.5601 43.8149 34.1286 44.4369 34.697 45.0577C36.589 47.1269 38.3776 49.0807 40.731 49.9583C43.0809 50.836 44.5792 50.855 46.4772 50.8788C47.5463 50.8931 48.7605 50.9074 50.2838 51.0857C51.4207 51.2154 52.5077 51.4389 53.5601 51.6541C55.1405 51.9776 56.633 52.2844 58.2325 52.2844C58.6832 52.2844 59.1315 52.2583 59.5656 52.2095C62.4934 51.8599 64.2237 50.6897 66.4142 49.208C67.7473 48.3066 69.2564 47.2862 71.2732 46.2933C75.7482 44.0897 77.5154 42.4771 77.796 40.3472C78.0018 38.7906 77.4131 36.7975 75.9456 34.0742C74.7362 31.8956 74.0239 31.8956 73.7896 31.8956C73.484 31.8956 73.1558 32.0383 72.8097 32.1905C72.0986 32.5033 71.1306 32.7637 70.3005 32.2452C69.0031 31.433 68.11 30.2343 67.2478 29.0736C66.2608 27.7453 65.326 26.4918 63.8372 25.7914C63.0452 25.4216 62.114 25.2491 60.9058 25.2491C60.1863 25.2491 59.4562 25.3062 58.6832 25.3669C57.9055 25.4275 57.1015 25.4906 56.3048 25.4906C54.6304 25.4906 53.3163 25.1992 52.1675 24.5749C50.4622 23.6437 49.8022 22.2988 49.2695 21.2166C48.6285 19.912 48.2063 19.0498 46.3084 19.0498C45.8374 19.0498 45.2833 19.1057 44.6601 19.2152L44.4033 19.2044C43.5922 18.9868 42.6884 18.8513 41.7204 18.8013C41.4362 18.7847 41.1496 18.7775 40.8594 18.7775ZM58.2325 53.4736C56.5117 53.4736 54.8896 53.1407 53.3223 52.8196C52.2948 52.6091 51.2328 52.3915 50.1483 52.2666C48.6832 52.0954 47.5023 52.0811 46.4618 52.068C44.5281 52.0442 42.8597 52.0228 40.3148 51.0726C37.6938 50.0951 35.7245 47.9415 33.8182 45.8604C33.2604 45.2503 32.7027 44.6403 32.1271 44.0575C31.523 43.4415 30.9379 43.0015 30.3731 42.5746C28.6249 41.2558 27.1159 40.1177 26.5819 35.0589C26.0063 29.5362 27.1301 25.1647 29.9235 22.0645C32.4875 19.2199 36.4737 17.5883 40.8594 17.5883C41.1734 17.5883 41.4814 17.5966 41.7846 17.6133C42.7836 17.6656 43.7242 17.8023 44.5828 18.0224C45.2286 17.9129 45.7946 17.8606 46.3084 17.8606C48.9472 17.8606 49.6548 19.2995 50.3385 20.6933C50.8428 21.7196 51.3637 22.7815 52.736 23.5295C53.7171 24.0623 54.8171 24.3014 56.3048 24.3014C57.0552 24.3014 57.8365 24.2395 58.5904 24.1812C59.3527 24.1206 60.14 24.0599 60.9058 24.0599C62.2948 24.0599 63.3865 24.268 64.3426 24.714C66.1038 25.5429 67.1693 26.977 68.2016 28.3636C69.0364 29.4851 69.8236 30.5435 70.932 31.2368C71.372 31.5127 71.8025 31.3343 72.3316 31.1012C72.755 30.9157 73.2343 30.7064 73.7896 30.7064C74.9289 30.7064 75.9159 31.5685 76.9897 33.5046C78.5857 36.4645 79.2147 38.6859 78.9757 40.503C78.5868 43.4606 75.9409 45.3205 71.7989 47.3612C69.8545 48.3173 68.3811 49.3138 67.0813 50.1926C64.848 51.7029 62.9203 53.0063 59.7047 53.3904C59.2243 53.4451 58.7296 53.4736 58.2325 53.4736Z" fill="#D1E1E6"/>
<path d="M102.055 71.6552C101.913 72.3331 101.782 72.999 101.64 73.6305C97.4881 92.7635 93.2784 104.371 75.6199 98.983C57.9472 93.609 47.8283 81.5981 47.8283 81.5981C44.7364 78.304 42.6422 72.9883 41.7158 66.7212C70.9939 82.9181 95.8589 74.2964 102.055 71.6552Z" fill="#D1E1E6"/>
<path d="M96.1754 73.7185C95.6616 82.0286 93.043 90.0022 89.4682 97.6393C89.2007 98.2137 88.9093 98.7797 88.6299 99.3481C95.8995 96.393 98.7833 86.7926 101.64 73.6305C101.782 72.999 101.913 72.3331 102.055 71.6552C100.812 72.1856 98.8071 72.9562 96.1754 73.7185Z" fill="#B2C6CC"/>
<mask id="mask1_144_6931" style="mask-type:luminance" maskUnits="userSpaceOnUse" x="43" y="70" width="59" height="31">
<path d="M83.3704 100.305C81.1169 100.305 78.5553 99.8797 75.6192 98.983C73.5441 98.3527 71.5724 97.6297 69.7101 96.846C59.1345 92.3948 52.0492 85.9672 49.2166 83.0894C47.2282 80.9702 45.1662 77.0042 43.7617 72.7005C44.1054 72.7492 44.4503 72.773 44.7927 72.773C45.5693 72.773 46.3399 72.647 47.0867 72.3842C48.1237 72.0179 49.0287 71.4162 49.7874 70.6325C60.0169 74.9053 69.4996 76.3169 77.56 76.3169C85.14 76.3169 91.4618 75.0694 95.9724 73.7803C94.5882 83.5389 91.7008 92.5994 87.8525 99.1483L88.3686 99.4516C86.8916 100.013 85.2386 100.304 83.3704 100.305ZM51.1883 71.8871C50.0407 72.7885 48.5316 73.6911 47.0071 74.2488C47.9227 77.1683 49.2142 79.6359 50.8612 81.3912C50.8612 81.3912 55.6383 87.0554 64.2647 91.6968C63.9995 91.4447 63.7308 91.2021 63.4727 90.9369C58.7623 86.0885 54.9997 79.7073 53.7629 72.9669C52.9114 72.6327 52.0516 72.2676 51.1883 71.8871ZM89.2701 99.0663C89.2712 99.0651 89.2701 99.0663 89.2712 99.0651C96.0711 95.8138 98.8681 86.3977 101.639 73.6304C98.8693 86.3989 96.0711 95.815 89.2701 99.0663Z" fill="white"/>
</mask>
<g mask="url(#mask1_144_6931)">
<path d="M83.3704 100.305C81.1169 100.305 78.5553 99.8797 75.6192 98.983C73.5441 98.3527 71.5724 97.6297 69.7101 96.846C59.1345 92.3948 52.0492 85.9672 49.2166 83.0894C47.2282 80.9702 45.1662 77.0042 43.7617 72.7005C44.1054 72.7492 44.4503 72.773 44.7927 72.773C45.5693 72.773 46.3399 72.647 47.0867 72.3842C48.1237 72.0179 49.0287 71.4162 49.7874 70.6325C60.0169 74.9053 69.4996 76.3169 77.56 76.3169C85.14 76.3169 91.4618 75.0694 95.9724 73.7803C94.5882 83.5389 91.7008 92.5994 87.8525 99.1483L88.3686 99.4516C86.8916 100.013 85.2386 100.304 83.3704 100.305ZM51.1883 71.8871C50.0407 72.7885 48.5316 73.6911 47.0071 74.2488C47.9227 77.1683 49.2142 79.6359 50.8612 81.3912C50.8612 81.3912 55.6383 87.0554 64.2647 91.6968C63.9995 91.4447 63.7308 91.2021 63.4727 90.9369C58.7623 86.0885 54.9997 79.7073 53.7629 72.9669C52.9114 72.6327 52.0516 72.2676 51.1883 71.8871ZM89.2701 99.0663C89.2712 99.0651 89.2701 99.0663 89.2712 99.0651C96.0711 95.8138 98.8681 86.3977 101.639 73.6304C98.8693 86.3989 96.0711 95.815 89.2701 99.0663Z" fill="url(#paint1_linear_144_6931)"/>
</g>
<mask id="mask2_144_6931" style="mask-type:luminance" maskUnits="userSpaceOnUse" x="89" y="71" width="14" height="29">
<path d="M89.2715 99.0652C93.0567 92.3438 95.8775 83.206 97.2058 73.4129C99.2584 72.7791 100.857 72.1619 101.934 71.7064C101.975 71.6898 102.015 71.6719 102.054 71.6553C101.913 72.3331 101.782 72.9991 101.639 73.6305C98.8683 86.3978 96.0713 95.8139 89.2715 99.0652Z" fill="white"/>
</mask>
<g mask="url(#mask2_144_6931)">
<path d="M89.2715 99.0652C93.0567 92.3438 95.8775 83.206 97.2058 73.4129C99.2584 72.7791 100.857 72.1619 101.934 71.7064C101.975 71.6898 102.015 71.6719 102.054 71.6553C101.913 72.3331 101.782 72.9991 101.639 73.6305C98.8683 86.3978 96.0713 95.8139 89.2715 99.0652Z" fill="url(#paint2_linear_144_6931)"/>
</g>
<path d="M63.4735 90.9371C58.7631 86.0887 55.0004 79.7075 53.7636 72.9671C52.9122 72.6329 52.0524 72.2678 51.189 71.8873C50.0415 72.7887 48.5324 73.6913 47.0078 74.249C47.9235 77.1685 49.215 79.6361 50.862 81.3914C50.862 81.3914 55.639 87.0556 64.2655 91.697C64.0003 91.4449 63.7315 91.2023 63.4735 90.9371Z" fill="white"/>
<path d="M81.3266 12.791C99.4988 19.4505 104.458 34.1491 104.718 48.4314C83.3019 59.5861 48.3989 55.7687 41.2637 54.8412C42.6301 34.0896 54.7968 10.6743 81.3266 12.8029V12.791Z" fill="#D1E1E6"/>
<path d="M82.7711 22.3666C89.1048 28.4434 93.1861 36.9807 94.9461 45.5251C95.3957 47.7061 95.693 49.8787 95.8285 52.0383C98.9573 51.0596 101.951 49.8728 104.718 48.4315C104.457 34.1492 99.4984 19.4507 81.3262 12.7912V12.8031C76.46 12.413 72.0802 12.8886 68.1582 14.0434C73.5322 15.8509 78.6505 18.4125 82.7711 22.3666Z" fill="#B2C6CC"/>
<mask id="mask3_144_6931" style="mask-type:luminance" maskUnits="userSpaceOnUse" x="42" y="12" width="63" height="45">
<path d="M63.3854 56.2217C58.6774 56.2217 54.3522 56.0231 50.7323 55.7686C48.845 51.9929 45.7365 49.4099 42.5625 48.8046C44.4878 37.2872 49.6192 27.1338 56.8317 20.9048C59.9189 18.2374 63.5888 16.2229 67.5916 14.9076C71.1782 15.5522 74.4581 16.6736 77.4204 18.2636C79.3314 19.4373 81.1307 20.7918 82.7718 22.3663C89.1055 28.4431 93.1868 36.9804 94.9468 45.5248C95.3963 47.7058 95.6936 49.8785 95.8292 52.038C96.0111 51.981 96.1931 51.9239 96.375 51.8656C96.375 51.8668 96.375 51.868 96.3762 51.8692C85.8482 55.2679 73.7029 56.2217 63.3854 56.2217ZM97.5167 51.4898C97.5155 51.4887 97.5155 51.4875 97.5155 51.4851C100.01 50.6289 102.405 49.6299 104.653 48.4657C102.405 49.6311 100.012 50.6324 97.5167 51.4898ZM81.3269 12.8028C81.3174 12.8016 81.3079 12.8004 81.2972 12.8004C81.3067 12.8004 81.3174 12.8016 81.3269 12.8028Z" fill="white"/>
</mask>
<g mask="url(#mask3_144_6931)">
<path d="M63.3854 56.2217C58.6774 56.2217 54.3522 56.0231 50.7323 55.7686C48.845 51.9929 45.7365 49.4099 42.5625 48.8046C44.4878 37.2872 49.6192 27.1338 56.8317 20.9048C59.9189 18.2374 63.5888 16.2229 67.5916 14.9076C71.1782 15.5522 74.4581 16.6736 77.4204 18.2636C79.3314 19.4373 81.1307 20.7918 82.7718 22.3663C89.1055 28.4431 93.1868 36.9804 94.9468 45.5248C95.3963 47.7058 95.6936 49.8785 95.8292 52.038C96.0111 51.981 96.1931 51.9239 96.375 51.8656C96.375 51.8668 96.375 51.868 96.3762 51.8692C85.8482 55.2679 73.7029 56.2217 63.3854 56.2217ZM97.5167 51.4898C97.5155 51.4887 97.5155 51.4875 97.5155 51.4851C100.01 50.6289 102.405 49.6299 104.653 48.4657C102.405 49.6311 100.012 50.6324 97.5167 51.4898ZM81.3269 12.8028C81.3174 12.8016 81.3079 12.8004 81.2972 12.8004C81.3067 12.8004 81.3174 12.8016 81.3269 12.8028Z" fill="url(#paint3_linear_144_6931)"/>
</g>
<mask id="mask4_144_6931" style="mask-type:luminance" maskUnits="userSpaceOnUse" x="70" y="12" width="35" height="41">
<path d="M95.8291 52.0383C95.6935 49.8787 95.3962 47.7061 94.9467 45.5251C93.1867 36.9807 89.1054 28.4434 82.7717 22.3666C81.1306 20.7921 79.3313 19.4376 77.4203 18.2639C83.5268 21.5437 88.2884 26.8178 91.6384 34.0351C94.1202 39.3805 95.6495 45.4882 96.375 51.8659C96.193 51.9242 96.011 51.9812 95.8291 52.0383ZM97.5154 51.4854C96.7686 45.0684 95.2179 38.9202 92.7182 33.5344C87.9078 23.1764 80.2815 16.6846 70.0234 14.2039C72.9834 13.4607 76.0884 13.0813 79.2457 13.0813C80.3005 13.0813 81.3613 13.1229 82.4232 13.2085L81.2971 12.8007C81.3078 12.8007 81.3173 12.8019 81.3268 12.8031V12.7912C99.499 19.4507 104.458 34.1492 104.718 48.4315C104.697 48.4422 104.676 48.4541 104.653 48.466C102.405 49.6302 100.01 50.6291 97.5154 51.4854Z" fill="white"/>
</mask>
<g mask="url(#mask4_144_6931)">
<path d="M95.8291 52.0383C95.6935 49.8787 95.3962 47.7061 94.9467 45.5251C93.1867 36.9807 89.1054 28.4434 82.7717 22.3666C81.1306 20.7921 79.3313 19.4376 77.4203 18.2639C83.5268 21.5437 88.2884 26.8178 91.6384 34.0351C94.1202 39.3805 95.6495 45.4882 96.375 51.8659C96.193 51.9242 96.011 51.9812 95.8291 52.0383ZM97.5154 51.4854C96.7686 45.0684 95.2179 38.9202 92.7182 33.5344C87.9078 23.1764 80.2815 16.6846 70.0234 14.2039C72.9834 13.4607 76.0884 13.0813 79.2457 13.0813C80.3005 13.0813 81.3613 13.1229 82.4232 13.2085L81.2971 12.8007C81.3078 12.8007 81.3173 12.8019 81.3268 12.8031V12.7912C99.499 19.4507 104.458 34.1492 104.718 48.4315C104.697 48.4422 104.676 48.4541 104.653 48.466C102.405 49.6302 100.01 50.6291 97.5154 51.4854Z" fill="url(#paint4_linear_144_6931)"/>
</g>
<path d="M45.9727 47.153C47.8528 47.593 52.0756 49.799 54.2816 53.9612C56.4531 52.326 62.279 46.5144 63.9106 44.5272C67.4033 40.2735 70.5083 35.3954 72.0364 30.0618C73.3231 25.5702 73.6537 19.2531 69.5188 16.4169C56.4222 20.8538 48.181 33.9541 45.9727 47.153Z" fill="white"/>
<path d="M92.718 33.5343C87.6972 22.7221 79.6059 16.1209 68.6569 13.9007L67.2988 14.8556C78.4286 16.7678 86.6186 23.2204 91.6382 34.035C100.742 53.6414 97.0301 83.5319 87.853 99.1485L88.8769 99.7502C98.2073 83.8744 101.977 53.4784 92.718 33.5343Z" fill="#869EA6"/>
<path d="M81.5299 12.9278C77.9564 11.628 73.9357 10.2604 69.28 9.48148C68.2525 9.31023 67.2013 9.13424 66.1239 8.94634C40.1208 4.41192 23.579 16.8795 18.7151 31.2474C13.9548 45.3097 18.6497 67.0721 47.5533 82.125L48.1015 81.0702C19.8675 66.3657 15.232 45.2455 19.8413 31.628C24.5434 17.7405 40.6214 5.7034 65.9193 10.1177C66.9991 10.3068 68.0527 10.4828 69.0838 10.6552C72.0282 11.1476 74.717 11.8825 77.181 12.6793L81.9212 13.0705L81.5299 12.9278Z" fill="#D1E1E6"/>
<path d="M104.718 48.4312C83.3018 59.5859 48.3987 55.7686 41.2635 54.841C40.99 58.9783 41.1434 63.0227 41.7154 66.7212C70.9936 82.9181 95.8586 74.2964 102.054 71.6551C103.029 71.2389 103.541 70.9785 103.541 70.9785C105.801 60.133 105.897 47.801 105.897 47.801C105.504 48.015 105.112 48.2279 104.718 48.4312Z" fill="#3A565E"/>
<mask id="mask5_144_6931" style="mask-type:luminance" maskUnits="userSpaceOnUse" x="49" y="47" width="57" height="30">
<path d="M77.5607 76.3169C69.5003 76.3169 60.0176 74.9053 49.7881 70.6325C52.4923 67.8379 53.3224 62.7255 51.5481 57.6952C51.3115 57.0233 51.0379 56.3799 50.7323 55.7687C54.3522 56.0232 58.6774 56.2218 63.3854 56.2218C76.576 56.2218 92.7527 54.6627 104.718 48.4313C105.112 48.228 105.505 48.0151 105.897 47.801C105.897 47.801 105.802 60.133 103.541 70.9786C103.541 70.9786 103.03 71.239 102.055 71.6552C100.978 72.1143 99.3373 72.7552 97.2063 73.4129C96.8115 73.5354 96.4012 73.6578 95.9731 73.7803C91.4625 75.0694 85.1407 76.3169 77.5607 76.3169Z" fill="white"/>
</mask>
<g mask="url(#mask5_144_6931)">
<path d="M77.5607 76.3169C69.5003 76.3169 60.0176 74.9053 49.7881 70.6325C52.4923 67.8379 53.3224 62.7255 51.5481 57.6952C51.3115 57.0233 51.0379 56.3799 50.7323 55.7687C54.3522 56.0232 58.6774 56.2218 63.3854 56.2218C76.576 56.2218 92.7527 54.6627 104.718 48.4313C105.112 48.228 105.505 48.0151 105.897 47.801C105.897 47.801 105.802 60.133 103.541 70.9786C103.541 70.9786 103.03 71.239 102.055 71.6552C100.978 72.1143 99.3373 72.7552 97.2063 73.4129C96.8115 73.5354 96.4012 73.6578 95.9731 73.7803C91.4625 75.0694 85.1407 76.3169 77.5607 76.3169Z" fill="url(#paint5_linear_144_6931)"/>
</g>
<path d="M72.359 68.8739C72.2924 65.3206 72.3102 61.7637 72.4208 58.2116C67.4428 58.4875 62.1187 58.5017 56.0586 58.3626C55.8909 62.3072 55.8219 66.2517 55.898 70.1916C57.3738 70.6149 58.8877 70.8991 60.0626 71.219C64.2105 72.3511 68.4572 73.2216 72.7538 73.5332C72.5683 71.9611 72.3887 70.3961 72.359 68.8739Z" fill="#547078"/>
<path d="M78.6686 57.7059C77.282 57.8593 75.8728 57.9794 74.4434 58.0817C74.3126 62.0548 74.2852 66.0315 74.4077 70.0034C74.4446 71.1938 74.5813 72.4116 74.7288 73.6364L74.9714 73.6471C76.3735 73.6828 77.7624 73.6555 79.1407 73.5782C78.8411 68.3052 78.6936 63.0097 78.6686 57.7059Z" fill="#547078"/>
<path d="M47.6085 82.452C44.5309 79.1734 42.0918 73.3285 41.1286 66.8081C40.5459 63.0454 40.3925 59.0045 40.6708 54.8007C41.6114 40.522 47.3624 27.5133 56.0542 20.0059C62.9599 14.0385 72.8993 11.8432 80.3127 12.4438L82.4236 13.2084C72.8529 12.4414 63.4879 15.1539 56.832 20.9049C48.3756 28.2102 42.778 40.9097 41.8576 54.8792C41.5852 58.9962 41.7351 62.9491 42.3035 66.6309C43.2335 72.9182 46.3064 79.988 49.2187 83.0918L47.6085 82.452Z" fill="#869EA6"/>
<path d="M38.8569 49.0581C43.5935 47.3873 49.2767 51.2534 51.548 57.6953C53.8206 64.1372 51.8227 70.7111 47.0873 72.3843C42.3496 74.0563 36.6652 70.189 34.3938 63.7507C32.1177 57.3088 34.1191 50.7278 38.8569 49.0581Z" fill="#547078"/>
<path d="M35.5884 49.0308C40.3238 47.3612 46.0093 51.2309 48.2783 57.6704C50.5545 64.1111 48.5554 70.6874 43.8176 72.3594C39.0822 74.0314 33.3955 70.1641 31.1253 63.7258C28.8504 57.2839 30.853 50.704 35.5884 49.0308Z" fill="#869EA6"/>
<mask id="mask6_144_6931" style="mask-type:luminance" maskUnits="userSpaceOnUse" x="30" y="48" width="20" height="25">
<path d="M41.5256 72.7493C37.3753 72.7493 33.0382 69.1507 31.126 63.7256C30.4898 61.9263 30.1889 60.1164 30.1865 58.4063C30.183 53.9908 32.1761 50.2365 35.5891 49.0307C36.3335 48.769 37.1029 48.643 37.8783 48.643C42.0298 48.643 46.3668 52.2439 48.279 57.6702C48.9188 59.4813 49.2209 61.3044 49.2185 63.0252C49.2138 67.4228 47.223 71.1581 43.8184 72.3592C43.5734 72.446 43.3272 72.5174 43.0787 72.5745C42.8694 72.622 42.6577 72.6601 42.4448 72.6886C42.1404 72.7291 41.8336 72.7493 41.5256 72.7493Z" fill="white"/>
</mask>
<g mask="url(#mask6_144_6931)">
<path d="M41.5256 72.7493C37.3753 72.7493 33.0382 69.1507 31.126 63.7256C30.4898 61.9263 30.1889 60.1164 30.1865 58.4063C30.183 53.9908 32.1761 50.2365 35.5891 49.0307C36.3335 48.769 37.1029 48.643 37.8783 48.643C42.0298 48.643 46.3668 52.2439 48.279 57.6702C48.9188 59.4813 49.2209 61.3044 49.2185 63.0252C49.2138 67.4228 47.223 71.1581 43.8184 72.3592C43.5734 72.446 43.3272 72.5174 43.0787 72.5745C42.8694 72.622 42.6577 72.6601 42.4448 72.6886C42.1404 72.7291 41.8336 72.7493 41.5256 72.7493Z" fill="url(#paint6_linear_144_6931)"/>
</g>
<path d="M34.0955 52.6009C37.7249 51.3189 42.0834 54.2848 43.8255 59.2259C45.5689 64.1635 44.036 69.2057 40.4054 70.4924C36.7736 71.7708 32.4128 68.8061 30.6706 63.8686C28.9272 58.9286 30.4613 53.884 34.0955 52.6009Z" fill="#D1E1E6"/>
<path d="M33.6754 55.0994C35.5793 54.8152 37.4368 56.6846 37.8233 59.2758C38.211 61.8647 36.979 64.1956 35.0751 64.4822C33.17 64.7652 31.3113 62.8958 30.9248 60.3069C30.5371 57.7156 31.7703 55.3848 33.6754 55.0994Z" fill="white"/>
</g>
<defs>
<filter id="filter0_d_144_6931" x="0.00253868" y="0.9" width="122.995" height="134.2" filterUnits="userSpaceOnUse" color-interpolation-filters="sRGB">
<feFlood flood-opacity="0" result="BackgroundImageFix"/>
<feColorMatrix in="SourceAlpha" type="matrix" values="0 0 0 0 0 0 0 0 0 0 0 0 0 0 0 0 0 0 127 0" result="hardAlpha"/>
<feOffset dy="10"/>
<feGaussianBlur stdDeviation="8.55"/>
<feComposite in2="hardAlpha" operator="out"/>
<feColorMatrix type="matrix" values="0 0 0 0 0.705882 0 0 0 0 0.929412 0 0 0 0 1 0 0 0 0.33 0"/>
<feBlend mode="normal" in2="BackgroundImageFix" result="effect1_dropShadow_144_6931"/>
<feBlend mode="normal" in="SourceGraphic" in2="effect1_dropShadow_144_6931" result="shape"/>
</filter>
<linearGradient id="paint0_linear_144_6931" x1="41.6916" y1="109.518" x2="47.3403" y2="89.5993" gradientUnits="userSpaceOnUse">
<stop stop-color="#B2B6CB"/>
<stop offset="1" stop-color="#B2C6CC"/>
</linearGradient>
<linearGradient id="paint1_linear_144_6931" x1="71.9113" y1="70.8941" x2="72.3073" y2="95.6687" gradientUnits="userSpaceOnUse">
<stop stop-color="#D1CFE5"/>
<stop offset="1" stop-color="#D1E1E6"/>
</linearGradient>
<linearGradient id="paint2_linear_144_6931" x1="71.9115" y1="70.8942" x2="72.3076" y2="95.6688" gradientUnits="userSpaceOnUse">
<stop stop-color="#B2B6CB"/>
<stop offset="1" stop-color="#B2C6CC"/>
</linearGradient>
<linearGradient id="paint3_linear_144_6931" x1="50.2031" y1="20.5504" x2="106.886" y2="76.0458" gradientUnits="userSpaceOnUse">
<stop stop-color="#D1CFE5"/>
<stop offset="1" stop-color="#D1E1E6"/>
</linearGradient>
<linearGradient id="paint4_linear_144_6931" x1="50.203" y1="20.5507" x2="106.886" y2="76.0461" gradientUnits="userSpaceOnUse">
<stop stop-color="#B2B6CB"/>
<stop offset="1" stop-color="#B2C6CC"/>
</linearGradient>
<linearGradient id="paint5_linear_144_6931" x1="128.721" y1="62.0584" x2="66.364" y2="62.0584" gradientUnits="userSpaceOnUse">
<stop stop-color="#9189AB"/>
<stop offset="1" stop-color="#3A565E"/>
</linearGradient>
<linearGradient id="paint6_linear_144_6931" x1="55.4796" y1="54.8768" x2="37.3442" y2="61.566" gradientUnits="userSpaceOnUse">
<stop stop-color="#BCBBD1"/>
<stop offset="1" stop-color="#869EA6"/>
</linearGradient>
</defs>
</svg>
