<svg width="130" height="130" viewBox="0 0 130 130" fill="none" xmlns="http://www.w3.org/2000/svg">
<g clip-path="url(#clip0_30_4446)">
<path d="M89.7618 43.6219V38.9791C89.7618 37.3372 89.1095 35.7627 87.9486 34.6017C86.7877 33.4408 85.2131 32.7886 83.5713 32.7886C81.9295 32.7886 80.3549 33.4408 79.1939 34.6017C78.033 35.7627 77.3808 37.3372 77.3808 38.9791V43.6219C77.3808 45.2637 78.033 46.8383 79.1939 47.9992C80.3549 49.1602 81.9295 49.8124 83.5713 49.8124C85.2131 49.8124 86.7877 49.1602 87.9486 47.9992C89.1095 46.8383 89.7618 45.2637 89.7618 43.6219ZM80.476 43.6219V38.9791C80.476 38.1581 80.8021 37.3709 81.3826 36.7904C81.9631 36.2099 82.7504 35.8838 83.5713 35.8838C84.3922 35.8838 85.1795 36.2099 85.7599 36.7904C86.3404 37.3709 86.6665 38.1581 86.6665 38.9791V43.6219C86.6665 44.4428 86.3404 45.2301 85.7599 45.8106C85.1795 46.391 84.3922 46.7171 83.5713 46.7171C82.7504 46.7171 81.9631 46.391 81.3826 45.8106C80.8021 45.2301 80.476 44.4428 80.476 43.6219Z" fill="#B4EDFF"/>
<path d="M46.4284 32.7886C44.7872 32.7905 43.2137 33.4433 42.0532 34.6038C40.8926 35.7643 40.2398 37.3378 40.2379 38.9791V43.6219C40.2379 45.2637 40.8901 46.8383 42.0511 47.9992C43.212 49.1602 44.7866 49.8124 46.4284 49.8124C48.0702 49.8124 49.6448 49.1602 50.8057 47.9992C51.9667 46.8383 52.6189 45.2637 52.6189 43.6219V38.9791C52.617 37.3378 51.9642 35.7643 50.8037 34.6038C49.6431 33.4433 48.0696 32.7905 46.4284 32.7886ZM49.5236 43.6219C49.5236 44.4428 49.1975 45.2301 48.6171 45.8106C48.0366 46.391 47.2493 46.7171 46.4284 46.7171C45.6075 46.7171 44.8202 46.391 44.2397 45.8106C43.6593 45.2301 43.3332 44.4428 43.3332 43.6219V38.9791C43.3332 38.1581 43.6593 37.3709 44.2397 36.7904C44.8202 36.2099 45.6075 35.8838 46.4284 35.8838C47.2493 35.8838 48.0366 36.2099 48.6171 36.7904C49.1975 37.3709 49.5236 38.1581 49.5236 38.9791V43.6219Z" fill="#B4EDFF"/>
<path d="M64.9998 54.4555C66.6411 54.4536 68.2146 53.8008 69.3751 52.6402C70.5356 51.4797 71.1884 49.9062 71.1903 48.265V43.6221C71.1903 41.9803 70.5381 40.4057 69.3772 39.2448C68.2162 38.0839 66.6416 37.4316 64.9998 37.4316C63.358 37.4316 61.7834 38.0839 60.6225 39.2448C59.4616 40.4057 58.8094 41.9803 58.8094 43.6221V48.265C58.8112 49.9062 59.464 51.4797 60.6246 52.6402C61.7851 53.8008 63.3586 54.4536 64.9998 54.4555ZM61.9046 43.6221C61.9046 42.8012 62.2307 42.0139 62.8112 41.4335C63.3916 40.853 64.1789 40.5269 64.9998 40.5269C65.8207 40.5269 66.608 40.853 67.1885 41.4335C67.769 42.0139 68.0951 42.8012 68.0951 43.6221V48.265C68.0951 49.0859 67.769 49.8732 67.1885 50.4536C66.608 51.0341 65.8207 51.3602 64.9998 51.3602C64.1789 51.3602 63.3916 51.0341 62.8112 50.4536C62.2307 49.8732 61.9046 49.0859 61.9046 48.265V43.6221Z" fill="#B4EDFF"/>
<path d="M102.143 54.4555C103.784 54.4536 105.357 53.8008 106.518 52.6402C107.678 51.4797 108.331 49.9062 108.333 48.265V43.6221C108.333 41.9803 107.681 40.4057 106.52 39.2448C105.359 38.0839 103.785 37.4316 102.143 37.4316C100.501 37.4316 98.9263 38.0839 97.7654 39.2448C96.6044 40.4057 95.9522 41.9803 95.9522 43.6221V48.265C95.9541 49.9062 96.6069 51.4797 97.7674 52.6402C98.928 53.8008 100.501 54.4536 102.143 54.4555ZM99.0474 43.6221C99.0474 42.8012 99.3735 42.0139 99.954 41.4335C100.534 40.853 101.322 40.5269 102.143 40.5269C102.964 40.5269 103.751 40.853 104.331 41.4335C104.912 42.0139 105.238 42.8012 105.238 43.6221V48.265C105.238 49.0859 104.912 49.8732 104.331 50.4536C103.751 51.0341 102.964 51.3602 102.143 51.3602C101.322 51.3602 100.534 51.0341 99.954 50.4536C99.3735 49.8732 99.0474 49.0859 99.0474 48.265V43.6221Z" fill="#B4EDFF"/>
<path d="M27.857 54.4555C29.4982 54.4536 31.0717 53.8008 32.2322 52.6402C33.3928 51.4797 34.0456 49.9062 34.0475 48.265V43.6221C34.0475 41.9803 33.3952 40.4057 32.2343 39.2448C31.0734 38.0839 29.4988 37.4316 27.857 37.4316C26.2152 37.4316 24.6406 38.0839 23.4797 39.2448C22.3187 40.4057 21.6665 41.9803 21.6665 43.6221V48.265C21.6684 49.9062 22.3212 51.4797 23.4817 52.6402C24.6423 53.8008 26.2157 54.4536 27.857 54.4555ZM24.7617 43.6221C24.7617 42.8012 25.0878 42.0139 25.6683 41.4335C26.2488 40.853 27.0361 40.5269 27.857 40.5269C28.6779 40.5269 29.4652 40.853 30.0456 41.4335C30.6261 42.0139 30.9522 42.8012 30.9522 43.6221V48.265C30.9522 49.0859 30.6261 49.8732 30.0456 50.4536C29.4652 51.0341 28.6779 51.3602 27.857 51.3602C27.0361 51.3602 26.2488 51.0341 25.6683 50.4536C25.0878 49.8732 24.7617 49.0859 24.7617 48.265V43.6221Z" fill="#B4EDFF"/>
<path d="M27.4904 22.6639C27.9495 22.6639 28.3983 22.5277 28.7801 22.2726C29.1618 22.0175 29.4594 21.655 29.6351 21.2308C29.8108 20.8066 29.8568 20.3399 29.7672 19.8895C29.6776 19.4392 29.4565 19.0256 29.1319 18.7009C28.8072 18.3763 28.3936 18.1552 27.9433 18.0656C27.4929 17.976 27.0262 18.022 26.602 18.1977C26.1778 18.3734 25.8153 18.671 25.5602 19.0527C25.3051 19.4345 25.1689 19.8833 25.1689 20.3424C25.1696 20.9579 25.4145 21.5479 25.8497 21.9831C26.2849 22.4183 26.8749 22.6631 27.4904 22.6639ZM27.4904 19.1817C27.7199 19.1817 27.9444 19.2498 28.1352 19.3773C28.3261 19.5049 28.4749 19.6861 28.5627 19.8982C28.6506 20.1103 28.6736 20.3437 28.6288 20.5689C28.584 20.794 28.4735 21.0008 28.3111 21.1632C28.1488 21.3255 27.942 21.436 27.7168 21.4808C27.4917 21.5256 27.2583 21.5026 27.0462 21.4148C26.8341 21.3269 26.6528 21.1782 26.5253 20.9873C26.3977 20.7964 26.3297 20.572 26.3297 20.3424C26.33 20.0347 26.4524 19.7396 26.67 19.522C26.8876 19.3044 27.1826 19.182 27.4904 19.1817Z" fill="#5A859D"/>
<path d="M121.121 36.7842C120.815 36.7842 120.516 36.8749 120.262 37.045C120.007 37.2151 119.809 37.4568 119.692 37.7396C119.574 38.0223 119.544 38.3335 119.603 38.6337C119.663 38.9339 119.811 39.2097 120.027 39.4261C120.243 39.6426 120.519 39.79 120.819 39.8497C121.12 39.9094 121.431 39.8787 121.714 39.7616C121.996 39.6445 122.238 39.4461 122.408 39.1916C122.578 38.9371 122.669 38.6379 122.669 38.3318C122.668 37.9215 122.505 37.5281 122.215 37.238C121.925 36.9479 121.532 36.7846 121.121 36.7842ZM121.121 39.1056C120.968 39.1056 120.819 39.0602 120.691 38.9752C120.564 38.8902 120.465 38.7693 120.406 38.6279C120.348 38.4865 120.333 38.3309 120.362 38.1808C120.392 38.0307 120.466 37.8929 120.574 37.7846C120.682 37.6764 120.82 37.6027 120.97 37.5729C121.12 37.543 121.276 37.5583 121.417 37.6169C121.559 37.6755 121.68 37.7746 121.765 37.9019C121.85 38.0291 121.895 38.1788 121.895 38.3318C121.895 38.537 121.813 38.7337 121.668 38.8787C121.523 39.0238 121.327 39.1054 121.121 39.1056Z" fill="#5A859D"/>
<path d="M9.87867 7.24854C9.57258 7.24854 9.27337 7.3393 9.01886 7.50936C8.76436 7.67941 8.566 7.92112 8.44886 8.20391C8.33173 8.4867 8.30108 8.79787 8.36079 9.09808C8.42051 9.39829 8.5679 9.67405 8.78434 9.89049C9.00078 10.1069 9.27654 10.2543 9.57675 10.314C9.87696 10.3738 10.1881 10.3431 10.4709 10.226C10.7537 10.1088 10.9954 9.91047 11.1655 9.65597C11.3355 9.40146 11.4263 9.10224 11.4263 8.79615C11.4258 8.38584 11.2626 7.99247 10.9725 7.70234C10.6824 7.41221 10.289 7.249 9.87867 7.24854ZM9.87867 9.56996C9.72563 9.56996 9.57602 9.52458 9.44877 9.43955C9.32152 9.35453 9.22234 9.23367 9.16377 9.09228C9.1052 8.95088 9.08988 8.7953 9.11973 8.64519C9.14959 8.49509 9.22329 8.35721 9.33151 8.24899C9.43973 8.14077 9.57761 8.06707 9.72771 8.03721C9.87782 8.00736 10.0334 8.02268 10.1748 8.08125C10.3162 8.13982 10.437 8.239 10.5221 8.36625C10.6071 8.4935 10.6525 8.64311 10.6525 8.79615C10.6523 9.00132 10.5707 9.19802 10.4256 9.3431C10.2805 9.48817 10.0838 9.56976 9.87867 9.56996Z" fill="#5A859D"/>
<path d="M87.4505 11.0923C87.1444 11.0923 86.8451 11.1831 86.5906 11.3531C86.3361 11.5232 86.1378 11.7649 86.0206 12.0477C85.9035 12.3304 85.8729 12.6416 85.9326 12.9418C85.9923 13.242 86.1397 13.5178 86.3561 13.7342C86.5726 13.9507 86.8483 14.0981 87.1485 14.1578C87.4487 14.2175 87.7599 14.1869 88.0427 14.0697C88.3255 13.9526 88.5672 13.7542 88.7373 13.4997C88.9073 13.2452 88.9981 12.946 88.9981 12.6399C88.9976 12.2296 88.8344 11.8362 88.5443 11.5461C88.2541 11.256 87.8608 11.0928 87.4505 11.0923ZM87.4505 13.4137C87.2974 13.4137 87.1478 13.3683 87.0205 13.2833C86.8933 13.1983 86.7941 13.0774 86.7355 12.936C86.677 12.7946 86.6617 12.639 86.6915 12.4889C86.7214 12.3388 86.7951 12.201 86.9033 12.0927C87.0115 11.9845 87.1494 11.9108 87.2995 11.881C87.4496 11.8511 87.6052 11.8664 87.7466 11.925C87.888 11.9836 88.0088 12.0827 88.0938 12.21C88.1789 12.3373 88.2243 12.4869 88.2243 12.6399C88.2241 12.8451 88.1425 13.0418 87.9974 13.1868C87.8523 13.3319 87.6556 13.4135 87.4505 13.4137Z" fill="#5A859D"/>
<path d="M70.0098 28.2722C70.0098 27.9661 69.919 27.6669 69.749 27.4124C69.5789 27.1579 69.3372 26.9596 69.0544 26.8424C68.7716 26.7253 68.4605 26.6946 68.1602 26.7543C67.86 26.8141 67.5843 26.9615 67.3678 27.1779C67.1514 27.3943 67.004 27.6701 66.9443 27.9703C66.8846 28.2705 66.9152 28.5817 67.0324 28.8645C67.1495 29.1473 67.3479 29.389 67.6024 29.559C67.8569 29.7291 68.1561 29.8198 68.4622 29.8198C68.8725 29.8194 69.2659 29.6562 69.556 29.366C69.8461 29.0759 70.0093 28.6825 70.0098 28.2722ZM67.6884 28.2722C67.6884 28.1192 67.7337 27.9696 67.8188 27.8423C67.9038 27.7151 68.0247 27.6159 68.166 27.5573C68.3074 27.4988 68.463 27.4834 68.6131 27.5133C68.7632 27.5431 68.9011 27.6168 69.0093 27.7251C69.1176 27.8333 69.1913 27.9712 69.2211 28.1213C69.251 28.2714 69.2356 28.427 69.1771 28.5684C69.1185 28.7097 69.0193 28.8306 68.8921 28.9156C68.7648 29.0007 68.6152 29.046 68.4622 29.046C68.257 29.0458 68.0603 28.9642 67.9152 28.8192C67.7702 28.6741 67.6886 28.4774 67.6884 28.2722Z" fill="#5A859D"/>
<path d="M10.6153 36.1144L11.766 34.6008L11.0394 34.1899L10.3011 35.8838H10.2764L9.52578 34.2015L8.78679 34.6256L9.92507 36.1028V36.1268L8.14453 35.8962V36.7195L9.93667 36.4897V36.5145L8.78679 37.9909L9.47626 38.4273L10.264 36.7195H10.288L11.0146 38.4149L11.7776 37.9793L10.6153 36.5261V36.5021L12.443 36.7195V35.8962L10.6153 36.1384V36.1144Z" fill="#B4EDFF"/>
<path d="M51.5803 15.9783L50.9179 16.8288L51.3157 17.0802L51.7691 16.0967H51.7831L52.2009 17.0733L52.6404 16.8218L51.9711 15.9853V15.9714L53.0235 16.0967V15.6232L51.9711 15.7624V15.7485L52.6335 14.8772L52.2156 14.6396L51.79 15.6154H51.7761L51.3443 14.6466L50.9179 14.8911L51.5741 15.7416V15.7555L50.5488 15.6232V16.0967L51.5803 15.9644V15.9783Z" fill="#B4EDFF"/>
<path d="M95.8801 25.7463V24.9392L94.0871 25.1767V25.1527L95.2154 23.6686L94.5027 23.2646L93.7784 24.9268H93.7544L93.0185 23.2763L92.2935 23.6918L93.4101 25.1411V25.1651L91.6636 24.9392V25.7463L93.4217 25.5211V25.5451L92.2935 26.9936L92.9705 27.4216L93.7428 25.7463H93.766L94.4787 27.4092L95.227 26.982L94.0871 25.5567V25.5327L95.8801 25.7463Z" fill="#B4EDFF"/>
<path d="M115.103 10.7018L116.076 9.42194L115.461 9.07373L114.837 10.5076H114.816L114.181 9.08379L113.555 9.44206L114.519 10.6925V10.7127L113.013 10.5177V11.2141L114.529 11.0199V11.0408L113.555 12.2897L114.139 12.6588L114.806 11.2141H114.826L115.44 12.6487L116.086 12.2796L115.103 11.05V11.0299L116.649 11.2141V10.5177L115.103 10.7227V10.7018Z" fill="#B4EDFF"/>
<path d="M1.54762 110.074C2.40235 110.074 3.09524 109.381 3.09524 108.527C3.09524 107.672 2.40235 106.979 1.54762 106.979C0.692893 106.979 0 107.672 0 108.527C0 109.381 0.692893 110.074 1.54762 110.074Z" fill="#5A859D"/>
<path d="M8.5119 106.979H6.19047C5.78002 106.979 5.38637 107.142 5.09614 107.432C4.8059 107.723 4.64285 108.116 4.64285 108.527C4.64285 108.937 4.8059 109.331 5.09614 109.621C5.38637 109.911 5.78002 110.074 6.19047 110.074H8.5119C8.92235 110.074 9.316 109.911 9.60623 109.621C9.89647 109.331 10.0595 108.937 10.0595 108.527C10.0595 108.116 9.89647 107.723 9.60623 107.432C9.316 107.142 8.92235 106.979 8.5119 106.979Z" fill="#5A859D"/>
<path d="M123.81 106.979H121.488C121.078 106.979 120.684 107.142 120.394 107.432C120.104 107.723 119.94 108.116 119.94 108.527C119.94 108.937 120.104 109.331 120.394 109.621C120.684 109.911 121.078 110.074 121.488 110.074H123.81C124.22 110.074 124.614 109.911 124.904 109.621C125.194 109.331 125.357 108.937 125.357 108.527C125.357 108.116 125.194 107.723 124.904 107.432C124.614 107.142 124.22 106.979 123.81 106.979Z" fill="#5A859D"/>
<path d="M128.452 110.074C129.307 110.074 130 109.381 130 108.527C130 107.672 129.307 106.979 128.452 106.979C127.598 106.979 126.905 107.672 126.905 108.527C126.905 109.381 127.598 110.074 128.452 110.074Z" fill="#5A859D"/>
<path d="M95.4285 113.169H88.9999C88.6108 113.201 88.2478 113.377 87.983 113.664C87.7183 113.951 87.5713 114.327 87.5713 114.717C87.5713 115.107 87.7183 115.483 87.983 115.77C88.2478 116.057 88.6108 116.233 88.9999 116.265H95.4285C95.8175 116.233 96.1806 116.057 96.4453 115.77C96.71 115.483 96.8571 115.107 96.8571 114.717C96.8571 114.327 96.71 113.951 96.4453 113.664C96.1806 113.377 95.8175 113.201 95.4285 113.169Z" fill="#B4EDFF"/>
<path d="M41.0002 113.169H34.5716C34.1826 113.201 33.8195 113.377 33.5548 113.664C33.2901 113.951 33.1431 114.327 33.1431 114.717C33.1431 115.107 33.2901 115.483 33.5548 115.77C33.8195 116.057 34.1826 116.233 34.5716 116.265H41.0002C41.3893 116.233 41.7523 116.057 42.0171 115.77C42.2818 115.483 42.4288 115.107 42.4288 114.717C42.4288 114.327 42.2818 113.951 42.0171 113.664C41.7523 113.377 41.3893 113.201 41.0002 113.169Z" fill="#B4EDFF"/>
<path d="M80.4762 113.169H49.5238C49.1134 113.169 48.7197 113.332 48.4295 113.623C48.1392 113.913 47.9762 114.307 47.9762 114.717C47.9762 115.128 48.1392 115.521 48.4295 115.811C48.7197 116.102 49.1134 116.265 49.5238 116.265H61.8583V117.812H55.7143C55.3038 117.812 54.9102 117.975 54.62 118.266C54.3297 118.556 54.1667 118.949 54.1667 119.36C54.1667 119.77 54.3297 120.164 54.62 120.454C54.9102 120.744 55.3038 120.908 55.7143 120.908H75.0595C75.47 120.908 75.8636 120.744 76.1539 120.454C76.4441 120.164 76.6071 119.77 76.6071 119.36C76.6071 118.949 76.4441 118.556 76.1539 118.266C75.8636 117.975 75.47 117.812 75.0595 117.812H68.1417V116.265H80.4762C80.8867 116.265 81.2803 116.102 81.5705 115.811C81.8608 115.521 82.0238 115.128 82.0238 114.717C82.0238 114.307 81.8608 113.913 81.5705 113.623C81.2803 113.332 80.8867 113.169 80.4762 113.169Z" fill="#B4EDFF"/>
<path d="M116.63 106.979H109.442C109.445 106.959 109.453 106.94 109.456 106.919L113.429 84.1859C113.772 83.8619 114.045 83.4721 114.233 83.0397C114.421 82.6074 114.52 82.1415 114.524 81.67V62.9565C114.544 61.5101 114.108 60.0941 113.277 58.91C112.447 57.7259 111.263 56.8341 109.896 56.3613C109.205 57.4099 108.31 58.3086 107.263 59.0036C109.716 59.0082 111.429 60.6315 111.429 62.9565V81.67C111.429 81.9284 111.08 82.2171 110.614 82.2171H108.333V74.479C108.333 74.0685 108.17 73.6749 107.88 73.3846C107.59 73.0944 107.196 72.9314 106.786 72.9314C106.375 72.9314 105.982 73.0944 105.691 73.3846C105.401 73.6749 105.238 74.0685 105.238 74.479V82.2171H99.0476V74.479C99.0476 74.0685 98.8846 73.6749 98.5943 73.3846C98.3041 73.0944 97.9105 72.9314 97.5 72.9314C97.0895 72.9314 96.6959 73.0944 96.4057 73.3846C96.1154 73.6749 95.9524 74.0685 95.9524 74.479V82.2171H93.6718C93.2055 82.2171 92.8571 81.9284 92.8571 81.67V62.9565C92.8571 60.6315 94.5696 59.0082 97.0223 59.0036C95.9761 58.3086 95.0807 57.4099 94.3894 56.3613C93.0223 56.8341 91.8392 57.7259 91.0083 58.91C90.1775 60.0941 89.7414 61.5101 89.7619 62.9565V81.67C89.7654 82.1415 89.8643 82.6074 90.0524 83.0398C90.2405 83.4722 90.5141 83.8621 90.8567 84.1861L94.8249 106.886C94.8293 106.918 94.8415 106.947 94.8467 106.979H72.2989C72.3022 106.959 72.3105 106.94 72.3134 106.919L76.2863 84.186C76.6288 83.862 76.9024 83.4721 77.0905 83.0397C77.2786 82.6074 77.3774 82.1415 77.381 81.67V62.9565C77.4015 61.5101 76.9653 60.0941 76.1345 58.91C75.3037 57.7259 74.1206 56.8341 72.7535 56.3613C72.0621 57.4099 71.1667 58.3086 70.1206 59.0036C72.5733 59.0082 74.2857 60.6315 74.2857 62.9565V81.67C74.2857 81.9284 73.9373 82.2171 73.4711 82.2171H71.1905V74.479C71.1905 74.0685 71.0274 73.6749 70.7372 73.3846C70.447 73.0944 70.0533 72.9314 69.6429 72.9314C69.2324 72.9314 68.8388 73.0944 68.5485 73.3846C68.2583 73.6749 68.0952 74.0685 68.0952 74.479V82.2171H61.9048V74.479C61.9048 74.0685 61.7417 73.6749 61.4515 73.3846C61.1612 73.0944 60.7676 72.9314 60.3571 72.9314C59.9467 72.9314 59.553 73.0944 59.2628 73.3846C58.9726 73.6749 58.8095 74.0685 58.8095 74.479V82.2171H56.5289C56.0626 82.2171 55.7143 81.9284 55.7143 81.67V62.9565C55.7143 60.6315 57.4267 59.0082 59.8794 59.0036C58.8333 58.3086 57.9379 57.4099 57.2465 56.3613C55.8794 56.8341 54.6963 57.7259 53.8655 58.91C53.0347 60.0941 52.5985 61.5101 52.619 62.9565V81.67C52.6226 82.1415 52.7214 82.6074 52.9095 83.0398C53.0977 83.4722 53.3713 83.8621 53.7139 84.1861L57.6821 106.886C57.6864 106.918 57.6987 106.947 57.7039 106.979H35.156C35.1593 106.959 35.1676 106.94 35.1705 106.919L39.1434 84.1859C39.486 83.8619 39.7595 83.4721 39.9476 83.0397C40.1358 82.6074 40.2346 82.1415 40.2381 81.67V62.9565C40.2586 61.5101 39.8225 60.0941 38.9916 58.91C38.1608 57.7259 36.9777 56.8341 35.6106 56.3613C34.9193 57.4099 34.0238 58.3086 32.9777 59.0036C35.4304 59.0082 37.1429 60.6315 37.1429 62.9565V81.67C37.1429 81.9284 36.7945 82.2171 36.3282 82.2171H34.0476V74.479C34.0476 74.0685 33.8846 73.6749 33.5943 73.3846C33.3041 73.0944 32.9104 72.9314 32.5 72.9314C32.0895 72.9314 31.6959 73.0944 31.4057 73.3846C31.1154 73.6749 30.9524 74.0685 30.9524 74.479V82.2171H24.7619V74.479C24.7619 74.0685 24.5988 73.6749 24.3086 73.3846C24.0184 73.0944 23.6247 72.9314 23.2143 72.9314C22.8038 72.9314 22.4102 73.0944 22.1199 73.3846C21.8297 73.6749 21.6667 74.0685 21.6667 74.479V82.2171H19.386C18.9198 82.2171 18.5714 81.9284 18.5714 81.67V62.9565C18.5714 60.6315 20.2839 59.0082 22.7366 59.0036C21.6904 58.3086 20.795 57.4099 20.1036 56.3613C18.7366 56.8341 17.5534 57.7259 16.7226 58.91C15.8918 60.0941 15.4556 61.5101 15.4762 62.9565V81.67C15.4797 82.1415 15.5785 82.6074 15.7667 83.0398C15.9548 83.4722 16.2284 83.8621 16.571 84.1861L20.5392 106.886C20.5436 106.918 20.5558 106.947 20.561 106.979H13.3704C13.1502 106.95 12.9265 106.969 12.714 107.033C12.5016 107.098 12.3054 107.207 12.1385 107.354C11.9717 107.5 11.838 107.681 11.7464 107.883C11.6548 108.085 11.6074 108.305 11.6074 108.527C11.6074 108.749 11.6548 108.968 11.7464 109.17C11.838 109.373 11.9717 109.553 12.1385 109.7C12.3054 109.846 12.5016 109.955 12.714 110.02C12.9265 110.084 13.1502 110.103 13.3704 110.074H116.63C116.85 110.103 117.074 110.084 117.286 110.02C117.498 109.955 117.695 109.846 117.861 109.7C118.028 109.553 118.162 109.373 118.254 109.17C118.345 108.968 118.393 108.749 118.393 108.527C118.393 108.305 118.345 108.085 118.254 107.883C118.162 107.681 118.028 107.5 117.861 107.354C117.695 107.207 117.498 107.098 117.286 107.033C117.074 106.969 116.85 106.95 116.63 106.979ZM29.4048 106.979V92.3673C29.4048 91.9568 29.2417 91.5632 28.9515 91.2729C28.6612 90.9827 28.2676 90.8197 27.8571 90.8197C27.4467 90.8197 27.053 90.9827 26.7628 91.2729C26.4726 91.5632 26.3095 91.9568 26.3095 92.3673V106.979H24.2896C24.1246 106.986 23.9628 106.931 23.8351 106.827C23.7074 106.722 23.6225 106.574 23.5967 106.411L19.9096 85.3123H35.8046L32.1176 106.411C32.1138 106.43 32.1108 106.45 32.1086 106.469C32.0726 106.621 31.9844 106.755 31.8593 106.848C31.7343 106.942 31.5804 106.988 31.4247 106.979L29.4048 106.979ZM66.5476 106.979V92.3673C66.5476 91.9568 66.3846 91.5632 66.0943 91.2729C65.8041 90.9827 65.4104 90.8197 65 90.8197C64.5895 90.8197 64.1959 90.9827 63.9057 91.2729C63.6154 91.5632 63.4524 91.9568 63.4524 92.3673V106.979H61.4325C61.2674 106.986 61.1057 106.931 60.978 106.827C60.8502 106.722 60.7654 106.574 60.7395 106.411L57.0525 85.3123H72.9475L69.2605 106.411C69.2567 106.43 69.2537 106.45 69.2514 106.469C69.2155 106.621 69.1273 106.755 69.0022 106.848C68.8772 106.942 68.7233 106.988 68.5675 106.979L66.5476 106.979ZM103.69 106.979V92.3673C103.69 91.9568 103.527 91.5632 103.237 91.2729C102.947 90.9827 102.553 90.8197 102.143 90.8197C101.732 90.8197 101.339 90.9827 101.049 91.2729C100.758 91.5632 100.595 91.9568 100.595 92.3673V106.979H98.5753C98.4103 106.986 98.2485 106.931 98.1208 106.827C97.9931 106.722 97.9082 106.574 97.8824 106.411L94.1953 85.3123H110.09L106.403 106.411C106.4 106.43 106.397 106.45 106.394 106.469C106.358 106.621 106.27 106.755 106.145 106.848C106.02 106.942 105.866 106.988 105.71 106.979L103.69 106.979Z" fill="#5A859D"/>
</g>
<defs>
<clipPath id="clip0_30_4446">
<rect width="130" height="130" fill="white"/>
</clipPath>
</defs>
</svg>
