<svg width="140" height="140" viewBox="0 0 140 140" fill="none" xmlns="http://www.w3.org/2000/svg">
<g clip-path="url(#clip0_2036_367)">
<path d="M69.9999 35C84.7289 35 96.6666 30.8964 96.6666 25.8334C96.6666 20.7703 84.7289 16.6667 69.9999 16.6667C55.2709 16.6667 43.3333 20.7703 43.3333 25.8334C43.3333 30.8964 55.2709 35 69.9999 35ZM52.762 22.3255C58.3593 20.6925 64.17 19.9086 69.9999 20C75.8299 19.9086 81.6405 20.6925 87.2378 22.3255C92.0377 23.8766 93.2681 25.4992 93.3341 25.8178C93.2681 26.1674 92.0377 27.7901 87.2378 29.3413C81.6405 30.9742 75.8299 31.7581 69.9999 31.6667C64.17 31.7581 58.3593 30.9742 52.762 29.3412C47.9622 27.7901 46.7316 26.1674 46.6658 25.8488C46.7316 25.4992 47.9622 23.8766 52.762 22.3255Z" fill="#466B83"/>
<path d="M78.5008 102.771C78.7261 103.151 79.093 103.426 79.5209 103.536C79.9488 103.646 80.4027 103.581 80.7829 103.356C81.1631 103.131 81.4385 102.765 81.5486 102.337C81.6588 101.909 81.5946 101.455 81.3703 101.075C80.1781 99.2544 78.5644 97.7485 76.6662 96.6848C74.7679 95.6211 72.6411 95.031 70.4662 94.9646C68.1387 94.8907 65.831 95.4118 63.7611 96.4787C61.6913 97.5455 59.9278 99.1227 58.6375 101.061C58.4115 101.439 58.344 101.89 58.4497 102.318C58.5555 102.745 58.8259 103.113 59.2019 103.341C59.578 103.57 60.0292 103.64 60.4571 103.538C60.885 103.435 61.2548 103.167 61.4858 102.792C62.4646 101.353 63.7922 100.186 65.3445 99.4002C66.8967 98.614 68.623 98.2342 70.362 98.2963C71.9766 98.3418 73.5571 98.7715 74.9725 99.5497C76.3879 100.328 77.5975 101.432 78.5008 102.771Z" fill="#466B83"/>
<path d="M62.0515 78.7394C62.0515 77.2983 61.6242 75.8896 60.8236 74.6914C60.0229 73.4932 58.885 72.5593 57.5536 72.0078C56.2222 71.4563 54.7572 71.3119 53.3438 71.593C51.9304 71.8742 50.6321 72.5681 49.613 73.5871C48.594 74.606 47.9 75.9043 47.6188 77.3177C47.3376 78.7311 47.4819 80.1961 48.0333 81.5275C48.5847 82.8589 49.5186 83.997 50.7167 84.7976C51.9149 85.5983 53.3236 86.0257 54.7647 86.0258C56.6972 86.0257 58.5505 85.2581 59.917 83.8916C61.2835 82.5252 62.0513 80.6719 62.0515 78.7394ZM54.7647 82.6925C54.1073 82.6942 53.4598 82.5314 52.8813 82.2189C52.3028 81.9065 51.8116 81.4544 51.4524 80.9037C51.0932 80.353 50.8775 79.7212 50.8248 79.0658C50.7721 78.4105 50.8841 77.7523 51.1506 77.1513C51.4602 77.7398 51.9582 78.2075 52.565 78.4795C53.1717 78.7515 53.8522 78.8122 54.4975 78.6517C55.1429 78.4912 55.7157 78.119 56.1244 77.5945C56.5331 77.0699 56.7541 76.4235 56.752 75.7585C56.7483 75.6107 56.7333 75.4633 56.7072 75.3178C57.468 75.7449 58.0655 76.4125 58.4059 77.2158C58.7464 78.0191 58.8105 78.9127 58.5883 79.7564C58.366 80.6002 57.87 81.3462 57.178 81.8776C56.486 82.409 55.6372 82.6956 54.7647 82.6925Z" fill="#466B83"/>
<path d="M53.5017 63.2421C53.3804 63.0598 53.2244 62.9033 53.0426 62.7814C52.8607 62.6594 52.6566 62.5746 52.442 62.5317C52.2273 62.4887 52.0063 62.4885 51.7915 62.5311C51.5768 62.5737 51.3725 62.6583 51.1905 62.7799L43.2421 68.0789C43.0587 68.1998 42.901 68.3557 42.7781 68.5377C42.6552 68.7197 42.5695 68.9242 42.5259 69.1394C42.4823 69.3546 42.4816 69.5763 42.5239 69.7918C42.5663 70.0073 42.6508 70.2123 42.7726 70.395C42.8944 70.5777 43.0511 70.7346 43.2338 70.8565C43.4164 70.9785 43.6213 71.0631 43.8368 71.1056C44.0522 71.1481 44.2739 71.1476 44.4892 71.1042C44.7044 71.0607 44.909 70.9751 45.0911 70.8524L53.0395 65.5534C53.4072 65.3081 53.6624 64.9269 53.7491 64.4934C53.8358 64.06 53.7468 63.6099 53.5017 63.2421Z" fill="#466B83"/>
<path d="M85.235 86.0258C86.6761 86.0258 88.0848 85.5983 89.2829 84.7977C90.4811 83.997 91.415 82.859 91.9664 81.5276C92.5178 80.1962 92.6621 78.7311 92.3809 77.3178C92.0997 75.9044 91.4057 74.6061 90.3867 73.5871C89.3677 72.5682 88.0694 71.8742 86.656 71.5931C85.2426 71.312 83.7775 71.4563 82.4462 72.0078C81.1148 72.5593 79.9768 73.4932 79.1762 74.6914C78.3756 75.8896 77.9482 77.2984 77.9482 78.7395C77.9482 79.6963 78.1367 80.6439 78.5029 81.5279C78.8691 82.412 79.4059 83.2152 80.0825 83.8918C80.7591 84.5684 81.5624 85.1051 82.4465 85.4713C83.3306 85.8374 84.2781 86.0259 85.235 86.0258ZM83.2925 75.3178C83.2664 75.4633 83.2514 75.6107 83.2477 75.7585C83.2456 76.4235 83.4666 77.0699 83.8753 77.5944C84.284 78.1189 84.8568 78.4912 85.5022 78.6517C86.1475 78.8121 86.828 78.7515 87.4347 78.4795C88.0415 78.2075 88.5395 77.7398 88.8491 77.1513C89.1612 77.8512 89.2633 78.6267 89.1428 79.3836C89.0224 80.1405 88.6847 80.846 88.1708 81.4145C87.6569 81.9831 86.9888 82.39 86.2479 82.5859C85.507 82.7819 84.7251 82.7583 83.9974 82.5182C83.2696 82.278 82.6272 81.8316 82.1484 81.2332C81.6696 80.6348 81.375 79.9102 81.3003 79.1475C81.2257 78.3848 81.3742 77.6168 81.7278 76.9369C82.0815 76.257 82.6251 75.6945 83.2925 75.3178Z" fill="#466B83"/>
<path d="M86.9604 65.5534L94.9088 70.8524C95.0909 70.9752 95.2954 71.0609 95.5107 71.1044C95.726 71.148 95.9478 71.1485 96.1633 71.106C96.3788 71.0636 96.5838 70.9789 96.7665 70.8569C96.9492 70.735 97.1059 70.5781 97.2278 70.3953C97.3496 70.2126 97.4341 70.0075 97.4765 69.792C97.5188 69.5765 97.5181 69.3547 97.4744 69.1394C97.4307 68.9242 97.3449 68.7196 97.222 68.5377C97.099 68.3557 96.9412 68.1998 96.7578 68.0789L88.8094 62.7799C88.4416 62.5354 87.9918 62.447 87.5589 62.5339C87.1259 62.6208 86.7451 62.876 86.5001 63.2434C86.2552 63.6109 86.1661 64.0605 86.2524 64.4936C86.3386 64.9267 86.5933 65.3079 86.9604 65.5534Z" fill="#466B83"/>
<path d="M29.1836 30.8171C29.678 30.8171 30.1614 30.6705 30.5725 30.3958C30.9836 30.121 31.3041 29.7306 31.4933 29.2738C31.6825 28.817 31.732 28.3143 31.6356 27.8294C31.5391 27.3444 31.301 26.8989 30.9514 26.5493C30.6017 26.1997 30.1563 25.9616 29.6713 25.8651C29.1864 25.7687 28.6837 25.8182 28.2269 26.0074C27.7701 26.1966 27.3796 26.517 27.1049 26.9282C26.8302 27.3393 26.6836 27.8226 26.6836 28.3171C26.6844 28.9799 26.948 29.6153 27.4167 30.084C27.8853 30.5527 28.5208 30.8163 29.1836 30.8171ZM29.1836 27.0671C29.4308 27.0671 29.6725 27.1404 29.8781 27.2777C30.0836 27.4151 30.2438 27.6103 30.3384 27.8387C30.4331 28.0671 30.4578 28.3185 30.4096 28.5609C30.3613 28.8034 30.2423 29.0261 30.0675 29.201C29.8927 29.3758 29.6699 29.4948 29.4275 29.5431C29.185 29.5913 28.9336 29.5665 28.7052 29.4719C28.4768 29.3773 28.2816 29.2171 28.1443 29.0115C28.0069 28.806 27.9336 28.5643 27.9336 28.3171C27.9339 27.9857 28.0657 27.6679 28.3001 27.4336C28.5344 27.1992 28.8522 27.0674 29.1836 27.0671Z" fill="#466B83"/>
<path d="M105.85 13.3171C106.345 13.3171 106.828 13.1705 107.239 12.8958C107.65 12.621 107.971 12.2306 108.16 11.7738C108.349 11.317 108.399 10.8143 108.302 10.3294C108.206 9.8444 107.968 9.39894 107.618 9.04931C107.268 8.69968 106.823 8.46158 106.338 8.36512C105.853 8.26865 105.35 8.31816 104.894 8.50738C104.437 8.6966 104.046 9.01703 103.772 9.42815C103.497 9.83928 103.35 10.3226 103.35 10.8171C103.351 11.4799 103.615 12.1153 104.083 12.584C104.552 13.0527 105.188 13.3163 105.85 13.3171ZM105.85 9.56708C106.098 9.56708 106.339 9.64039 106.545 9.77774C106.75 9.91509 106.911 10.1103 107.005 10.3387C107.1 10.5671 107.125 10.8185 107.076 11.0609C107.028 11.3034 106.909 11.5261 106.734 11.701C106.559 11.8758 106.337 11.9948 106.094 12.0431C105.852 12.0913 105.6 12.0665 105.372 11.9719C105.144 11.8773 104.948 11.7171 104.811 11.5115C104.674 11.306 104.6 11.0643 104.6 10.8171C104.601 10.4857 104.732 10.1679 104.967 9.93356C105.201 9.69921 105.519 9.5674 105.85 9.56708Z" fill="#466B83"/>
<path d="M73.3503 6.65039C73.8448 6.65039 74.3281 6.50377 74.7393 6.22907C75.1504 5.95436 75.4708 5.56392 75.66 5.1071C75.8493 4.65029 75.8988 4.14762 75.8023 3.66267C75.7058 3.17771 75.4677 2.73226 75.1181 2.38262C74.7685 2.03299 74.323 1.79489 73.8381 1.69843C73.3531 1.60197 72.8504 1.65147 72.3936 1.84069C71.9368 2.02991 71.5464 2.35034 71.2717 2.76147C70.997 3.17259 70.8503 3.65594 70.8503 4.15039C70.8511 4.8132 71.1147 5.44864 71.5834 5.91732C72.0521 6.386 72.6875 6.64963 73.3503 6.65039ZM73.3503 2.90039C73.5976 2.90039 73.8392 2.9737 74.0448 3.11105C74.2504 3.24841 74.4106 3.44363 74.5052 3.67204C74.5998 3.90045 74.6246 4.15178 74.5763 4.39425C74.5281 4.63673 74.409 4.85946 74.2342 5.03428C74.0594 5.20909 73.8367 5.32814 73.5942 5.37637C73.3517 5.4246 73.1004 5.39985 72.872 5.30524C72.6436 5.21063 72.4484 5.05042 72.311 4.84485C72.1737 4.63929 72.1003 4.39762 72.1003 4.15039C72.1007 3.81897 72.2325 3.50122 72.4668 3.26687C72.7012 3.03252 73.0189 2.90072 73.3503 2.90039Z" fill="#466B83"/>
<path d="M131.684 50.817C132.013 50.817 132.335 50.7193 132.609 50.5362C132.884 50.353 133.097 50.0927 133.223 49.7882C133.349 49.4836 133.382 49.1485 133.318 48.8252C133.254 48.5019 133.095 48.2049 132.862 47.9719C132.629 47.7388 132.332 47.58 132.009 47.5157C131.685 47.4514 131.35 47.4844 131.046 47.6106C130.741 47.7367 130.481 47.9503 130.298 48.2244C130.115 48.4985 130.017 48.8207 130.017 49.1504C130.017 49.5922 130.193 50.0159 130.506 50.3283C130.818 50.6408 131.242 50.8165 131.684 50.817ZM131.684 48.317C131.848 48.317 132.009 48.3659 132.146 48.4575C132.284 48.5491 132.39 48.6792 132.453 48.8315C132.516 48.9837 132.533 49.1513 132.501 49.3129C132.469 49.4746 132.389 49.6231 132.273 49.7396C132.156 49.8562 132.008 49.9355 131.846 49.9677C131.684 49.9998 131.517 49.9833 131.365 49.9203C131.212 49.8572 131.082 49.7504 130.991 49.6133C130.899 49.4763 130.85 49.3152 130.85 49.1504C130.85 48.9294 130.938 48.7176 131.094 48.5614C131.251 48.4051 131.463 48.3173 131.684 48.317Z" fill="#466B83"/>
<path d="M112.517 60.817C112.847 60.817 113.169 60.7193 113.443 60.5362C113.717 60.353 113.931 60.0927 114.057 59.7882C114.183 59.4836 114.216 59.1485 114.152 58.8252C114.087 58.5019 113.929 58.2049 113.696 57.9719C113.462 57.7388 113.165 57.58 112.842 57.5157C112.519 57.4514 112.184 57.4844 111.879 57.6106C111.575 57.7367 111.314 57.9503 111.131 58.2244C110.948 58.4985 110.85 58.8207 110.85 59.1504C110.851 59.5922 111.027 60.0159 111.339 60.3283C111.652 60.6408 112.075 60.8165 112.517 60.817ZM112.517 58.317C112.682 58.317 112.843 58.3659 112.98 58.4575C113.117 58.549 113.224 58.6792 113.287 58.8315C113.35 58.9837 113.366 59.1513 113.334 59.3129C113.302 59.4746 113.223 59.6231 113.106 59.7396C112.99 59.8562 112.841 59.9355 112.68 59.9677C112.518 59.9998 112.35 59.9833 112.198 59.9203C112.046 59.8572 111.916 59.7504 111.824 59.6133C111.733 59.4763 111.684 59.3152 111.684 59.1504C111.684 58.9294 111.772 58.7176 111.928 58.5614C112.084 58.4051 112.296 58.3173 112.517 58.317Z" fill="#466B83"/>
<path d="M15.8503 17.4837C16.1799 17.4837 16.5021 17.386 16.7762 17.2028C17.0503 17.0197 17.2639 16.7594 17.3901 16.4549C17.5162 16.1503 17.5492 15.8152 17.4849 15.4919C17.4206 15.1686 17.2619 14.8716 17.0288 14.6385C16.7957 14.4055 16.4987 14.2467 16.1754 14.1824C15.8521 14.1181 15.517 14.1511 15.2125 14.2773C14.9079 14.4034 14.6476 14.617 14.4645 14.8911C14.2813 15.1652 14.1836 15.4874 14.1836 15.8171C14.1841 16.2589 14.3599 16.6826 14.6723 16.995C14.9848 17.3075 15.4084 17.4832 15.8503 17.4837ZM15.8503 14.9837C16.0151 14.9837 16.1762 15.0326 16.3132 15.1242C16.4503 15.2157 16.5571 15.3459 16.6202 15.4982C16.6832 15.6504 16.6997 15.818 16.6676 15.9796C16.6354 16.1413 16.5561 16.2898 16.4395 16.4063C16.323 16.5229 16.1745 16.6022 16.0128 16.6344C15.8512 16.6665 15.6836 16.65 15.5314 16.587C15.3791 16.5239 15.2489 16.4171 15.1574 16.28C15.0658 16.143 15.0169 15.9819 15.0169 15.8171C15.0171 15.5961 15.105 15.3843 15.2612 15.228C15.4175 15.0718 15.6293 14.9839 15.8503 14.9837Z" fill="#466B83"/>
<path d="M1.68327 125.817C2.60374 125.817 3.34993 125.07 3.34993 124.15C3.34993 123.23 2.60374 122.483 1.68327 122.483C0.762794 122.483 0.0166016 123.23 0.0166016 124.15C0.0166016 125.07 0.762794 125.817 1.68327 125.817Z" fill="#466B83"/>
<path d="M9.18351 122.484H6.68351C6.24148 122.484 5.81756 122.659 5.505 122.972C5.19244 123.284 5.01685 123.708 5.01685 124.15C5.01685 124.592 5.19244 125.016 5.505 125.329C5.81756 125.641 6.24148 125.817 6.68351 125.817H9.18351C9.62554 125.817 10.0495 125.641 10.362 125.329C10.6746 125.016 10.8502 124.592 10.8502 124.15C10.8502 123.708 10.6746 123.284 10.362 122.972C10.0495 122.659 9.62554 122.484 9.18351 122.484Z" fill="#466B83"/>
<path d="M133.35 122.484H130.85C130.408 122.484 129.984 122.659 129.672 122.972C129.359 123.284 129.184 123.708 129.184 124.15C129.184 124.592 129.359 125.016 129.672 125.329C129.984 125.641 130.408 125.817 130.85 125.817H133.35C133.792 125.817 134.216 125.641 134.529 125.329C134.841 125.016 135.017 124.592 135.017 124.15C135.017 123.708 134.841 123.284 134.529 122.972C134.216 122.659 133.792 122.484 133.35 122.484Z" fill="#466B83"/>
<path d="M138.35 125.817C139.27 125.817 140.017 125.07 140.017 124.15C140.017 123.23 139.27 122.483 138.35 122.483C137.43 122.483 136.683 123.23 136.683 124.15C136.683 125.07 137.43 125.817 138.35 125.817Z" fill="#466B83"/>
<path d="M125.618 122.484H78.488C88.809 120.38 97.9811 114.519 104.226 106.036C110.47 97.5537 113.343 87.0545 112.285 76.5745C111.228 66.0944 106.317 56.3804 98.5041 49.3159C90.6912 42.2514 80.5333 38.34 70 38.34C59.4668 38.34 49.3089 42.2514 41.4959 49.3159C33.683 56.3804 28.7718 66.0944 27.7146 76.5745C26.6575 87.0545 29.5297 97.5537 35.7743 106.036C42.019 114.519 51.1911 120.38 61.5121 122.484H14.4159C14.1788 122.453 13.9378 122.473 13.7091 122.542C13.4803 122.612 13.269 122.729 13.0893 122.887C12.9096 123.045 12.7656 123.239 12.667 123.457C12.5684 123.675 12.5173 123.911 12.5173 124.15C12.5173 124.39 12.5684 124.626 12.667 124.844C12.7656 125.062 12.9096 125.256 13.0893 125.414C13.269 125.571 13.4803 125.689 13.7091 125.759C13.9378 125.828 14.1788 125.848 14.4159 125.817H125.618C125.855 125.848 126.096 125.828 126.325 125.759C126.554 125.689 126.765 125.571 126.945 125.414C127.124 125.256 127.268 125.062 127.367 124.844C127.466 124.626 127.517 124.39 127.517 124.15C127.517 123.911 127.466 123.675 127.367 123.457C127.268 123.239 127.124 123.045 126.945 122.887C126.765 122.729 126.554 122.612 126.325 122.542C126.096 122.473 125.855 122.453 125.618 122.484ZM30.8334 80.8338C30.8333 73.0873 33.1303 65.5148 37.434 59.0738C41.7376 52.6328 47.8546 47.6127 55.0113 44.6482C62.1681 41.6837 70.0432 40.908 77.6408 42.4192C85.2384 43.9304 92.2173 47.6607 97.6949 53.1382C103.173 58.6157 106.903 65.5946 108.414 73.1922C109.925 80.7898 109.15 88.6649 106.185 95.8217C103.221 102.979 98.2009 109.096 91.7599 113.399C85.319 117.703 77.7465 120 70 120C59.6161 119.988 49.6608 115.858 42.3182 108.515C34.9756 101.173 30.8453 91.2177 30.8334 80.8338Z" fill="#466B83"/>
<path d="M5.50336 47.4933L6.7417 45.8633L5.9592 45.42L5.1642 47.245H5.13753L4.33003 45.4333L3.53336 45.8891L4.76003 47.48V47.5066L2.84253 47.2583V48.145L4.77253 47.8975V47.9233L3.53336 49.5141L4.2767 49.9833L5.12503 48.145H5.15086L5.93336 49.9708L6.75503 49.5008L5.50336 47.9366V47.91L7.47086 48.145V47.2583L5.50336 47.5191V47.4933Z" fill="#FDB549"/>
<path d="M26.9182 53.9583L27.6316 53.0192L27.1807 52.7642L26.7232 53.815H26.7074L26.2424 52.7717L25.7841 53.0342L26.4899 53.9508V53.9658L25.3857 53.8225V54.3333L26.4974 54.1908V54.2058L25.7841 55.1217L26.2116 55.3925L26.7007 54.3333H26.7149L27.1657 55.385L27.6391 55.1142L26.9182 54.2133V54.1983L28.0516 54.3333V53.8225L26.9182 53.9733V53.9583Z" fill="#FDB549"/>
<path d="M110.252 33.9583L110.965 33.0192L110.514 32.7642L110.057 33.815H110.041L109.576 32.7717L109.118 33.0342L109.823 33.9508V33.9658L108.719 33.8225V34.3333L109.831 34.1908V34.2058L109.118 35.1217L109.545 35.3925L110.034 34.3333H110.048L110.499 35.385L110.973 35.1142L110.252 34.2133V34.1983L111.385 34.3333V33.8225L110.252 33.9733V33.9583Z" fill="#FDB549"/>
<path d="M131.683 24.745V23.875L129.753 24.1308V24.1058L130.968 22.5067L130.201 22.0725L129.421 23.8625H129.395L128.602 22.085L127.822 22.5325L129.024 24.0933V24.1183L127.143 23.875V24.745L129.037 24.5025V24.5275L127.822 26.0875L128.55 26.5483L129.382 24.745H129.407L130.175 26.5358L130.981 26.075L129.753 24.54V24.515L131.683 24.745Z" fill="#FDB549"/>
<path d="M47.2683 8.33582L46.22 9.68166L46.8492 10.0792L47.5667 8.52332H47.5883L48.25 10.0683L48.945 9.67082L47.8867 8.34666V8.32499L49.5517 8.52332V7.77332L47.8867 7.99416V7.97166L48.935 6.59332L48.2725 6.21832L47.6 7.76249H47.5775L46.8942 6.22916L46.22 6.61499L47.2575 7.96082V7.98332L45.635 7.77332V8.52332L47.2683 8.31416V8.33582Z" fill="#FDB549"/>
<path d="M98.4787 129.984H91.5556C91.1366 130.017 90.7456 130.207 90.4605 130.516C90.1754 130.825 90.0171 131.23 90.0171 131.65C90.0171 132.071 90.1754 132.476 90.4605 132.784C90.7456 133.093 91.1366 133.283 91.5556 133.317H98.4787C98.8977 133.283 99.2886 133.093 99.5737 132.784C99.8588 132.476 100.017 132.071 100.017 131.65C100.017 131.23 99.8588 130.825 99.5737 130.516C99.2886 130.207 98.8977 130.017 98.4787 129.984Z" fill="#FDB549"/>
<path d="M48.4787 129.984H41.5556C41.1366 130.017 40.7456 130.207 40.4605 130.516C40.1754 130.825 40.0171 131.23 40.0171 131.65C40.0171 132.071 40.1754 132.476 40.4605 132.784C40.7456 133.093 41.1366 133.283 41.5556 133.317H48.4787C48.8977 133.283 49.2886 133.093 49.5737 132.784C49.8588 132.476 50.0171 132.071 50.0171 131.65C50.0171 131.23 49.8588 130.825 49.5737 130.516C49.2886 130.207 48.8977 130.017 48.4787 129.984Z" fill="#FDB549"/>
<path d="M86.6836 129.984H53.3503C52.9082 129.984 52.4843 130.159 52.1718 130.472C51.8592 130.784 51.6836 131.208 51.6836 131.65C51.6836 132.092 51.8592 132.516 52.1718 132.829C52.4843 133.141 52.9082 133.317 53.3503 133.317H66.6336V134.984H60.0169C59.5749 134.984 59.151 135.159 58.8384 135.472C58.5259 135.784 58.3503 136.208 58.3503 136.65C58.3503 137.092 58.5259 137.516 58.8384 137.829C59.151 138.141 59.5749 138.317 60.0169 138.317H80.8503C81.2923 138.317 81.7162 138.141 82.0288 137.829C82.3413 137.516 82.5169 137.092 82.5169 136.65C82.5169 136.208 82.3413 135.784 82.0288 135.472C81.7162 135.159 81.2923 134.984 80.8503 134.984H73.4003V133.317H86.6836C87.1256 133.317 87.5495 133.141 87.8621 132.829C88.1747 132.516 88.3503 132.092 88.3503 131.65C88.3503 131.208 88.1747 130.784 87.8621 130.472C87.5495 130.159 87.1256 129.984 86.6836 129.984Z" fill="#FDB549"/>
</g>
<defs>
<clipPath id="clip0_2036_367">
<rect width="140" height="140" fill="white"/>
</clipPath>
</defs>
</svg>
