<svg width="140" height="140" viewBox="0 0 140 140" fill="none" xmlns="http://www.w3.org/2000/svg">
<g clip-path="url(#clip0_30_3797)">
<path d="M61.6666 110.625V87.2918C61.6657 86.4081 61.3142 85.5608 60.6893 84.9358C60.0644 84.3109 59.2171 83.9594 58.3333 83.9585H45C44.1162 83.9594 43.2689 84.3109 42.644 84.9358C42.0191 85.5608 41.6676 86.4081 41.6666 87.2918V110.625C41.6676 111.509 42.0191 112.356 42.644 112.981C43.2689 113.606 44.1162 113.958 45 113.958H58.3333C59.2171 113.958 60.0644 113.606 60.6893 112.981C61.3142 112.356 61.6657 111.509 61.6666 110.625ZM45 87.2918H58.3333L58.3353 110.625H45V87.2918Z" fill="#FDB549"/>
<path d="M86.4356 75.6144L74.5871 87.5616C74.2033 87.9488 73.9922 88.4695 74.0002 89.0092C74.0082 89.5488 74.2346 90.0633 74.6297 90.4394C75.0294 90.8067 75.559 91.0076 76.1069 90.9998C76.6548 90.992 77.1783 90.7761 77.567 90.3977L89.4154 78.4504C89.7981 78.063 90.0082 77.5427 89.9998 77.0037C89.9913 76.4647 89.7648 75.951 89.3702 75.5754C88.9755 75.1997 88.4448 74.9929 87.8946 75.0002C87.3444 75.0075 86.8197 75.2284 86.4356 75.6144Z" fill="#466B83"/>
<path d="M75.3919 74.6267L70.5943 79.5009C70.2058 79.8958 69.9921 80.4269 70.0002 80.9773C70.0083 81.5277 70.2375 82.0525 70.6374 82.4361C71.0444 82.806 71.5795 83.0077 72.1326 82.9998C72.6857 82.9919 73.2147 82.7749 73.6106 82.3936L78.4082 77.5194C78.7956 77.1243 79.0083 76.5936 78.9998 76.0438C78.9912 75.494 78.762 74.97 78.3624 74.5868C77.9629 74.2037 77.4257 73.9927 76.8688 74.0002C76.3119 74.0077 75.7807 74.233 75.3919 74.6267Z" fill="#FDB549"/>
<path d="M84.6569 91.4757C85.0736 91.8191 85.6261 92.0071 86.1979 91.9998C86.7697 91.9925 87.3158 91.7906 87.721 91.4367L92.3901 87.2221C92.7894 86.8603 93.0086 86.3745 92.9997 85.8711C92.9909 85.3677 92.7547 84.888 92.343 84.5373C91.9312 84.1865 91.3776 83.9933 90.8037 84.0002C90.2297 84.007 89.6823 84.2133 89.2816 84.5738L84.6124 88.7884C84.2121 89.15 83.9919 89.6362 84.0002 90.1401C84.0086 90.6441 84.2448 91.1245 84.6569 91.4757Z" fill="#FDB549"/>
<path d="M65 107.292H109.167C110.492 107.29 111.763 106.763 112.701 105.826C113.638 104.888 114.165 103.617 114.167 102.292V63.9585C114.165 62.6329 113.638 61.3619 112.701 60.4246C111.763 59.4872 110.492 58.9599 109.167 58.9585H54.1666C52.841 58.9599 51.5701 59.4872 50.6327 60.4246C49.6953 61.3619 49.1681 62.6329 49.1666 63.9585V80.6252H52.5V63.9585C52.5005 63.5166 52.6762 63.093 52.9887 62.7805C53.3011 62.4681 53.7248 62.2923 54.1666 62.2918H109.167C109.608 62.2924 110.032 62.4682 110.345 62.7806C110.657 63.0931 110.833 63.5166 110.833 63.9585V102.292C110.833 102.734 110.657 103.157 110.345 103.47C110.032 103.782 109.608 103.958 109.167 103.958H65V107.292Z" fill="#FDB549"/>
<path d="M112.5 110.625H65C65.0001 111.796 64.6898 112.946 64.1008 113.958H112.5C112.942 113.958 113.366 113.783 113.679 113.47C113.991 113.158 114.167 112.734 114.167 112.292C114.167 111.85 113.991 111.426 113.679 111.113C113.366 110.801 112.942 110.625 112.5 110.625Z" fill="#466B83"/>
<path d="M118.333 48.9585H30C28.6744 48.9599 27.4034 49.4872 26.4661 50.4246C25.5287 51.3619 25.0014 52.6329 25 53.9585V73.9585H28.3333V53.9585C28.3338 53.5166 28.5096 53.093 28.822 52.7805C29.1345 52.4681 29.5581 52.2923 30 52.2918H118.333C118.775 52.2924 119.199 52.4682 119.511 52.7806C119.824 53.0931 119.999 53.5166 120 53.9585V103.958C119.999 104.4 119.824 104.824 119.511 105.136C119.199 105.449 118.775 105.625 118.333 105.625H116.799C116.217 106.947 115.303 108.095 114.145 108.958H118.333C119.659 108.957 120.93 108.43 121.867 107.492C122.805 106.555 123.332 105.284 123.333 103.958V53.9585C123.332 52.6329 122.805 51.3619 121.867 50.4246C120.93 49.4872 119.659 48.9599 118.333 48.9585Z" fill="#466B83"/>
<path d="M27.7589 34.375C28.2534 34.375 28.7367 34.2284 29.1478 33.9537C29.559 33.679 29.8794 33.2885 30.0686 32.8317C30.2578 32.3749 30.3073 31.8722 30.2109 31.3873C30.1144 30.9023 29.8763 30.4569 29.5267 30.1072C29.177 29.7576 28.7316 29.5195 28.2466 29.423C27.7617 29.3266 27.259 29.3761 26.8022 29.5653C26.3454 29.7545 25.9549 30.075 25.6802 30.4861C25.4055 30.8972 25.2589 31.3805 25.2589 31.875C25.2597 32.5378 25.5233 33.1733 25.992 33.6419C26.4607 34.1106 27.0961 34.3742 27.7589 34.375ZM27.7589 30.625C28.0061 30.625 28.2478 30.6983 28.4534 30.8357C28.6589 30.973 28.8192 31.1682 28.9138 31.3966C29.0084 31.6251 29.0331 31.8764 28.9849 32.1189C28.9367 32.3613 28.8176 32.5841 28.6428 32.7589C28.468 32.9337 28.2453 33.0527 28.0028 33.101C27.7603 33.1492 27.509 33.1245 27.2806 33.0298C27.0522 32.9352 26.8569 32.775 26.7196 32.5695C26.5822 32.3639 26.5089 32.1222 26.5089 31.875C26.5092 31.5436 26.641 31.2258 26.8754 30.9915C27.1097 30.7571 27.4275 30.6253 27.7589 30.625Z" fill="#466B83"/>
<path d="M132.592 51.4282C132.262 51.4282 131.94 51.526 131.666 51.7091C131.392 51.8922 131.178 52.1525 131.052 52.4571C130.926 52.7616 130.893 53.0967 130.957 53.42C131.022 53.7433 131.18 54.0403 131.414 54.2734C131.647 54.5065 131.944 54.6652 132.267 54.7295C132.59 54.7938 132.925 54.7608 133.23 54.6347C133.534 54.5085 133.795 54.2949 133.978 54.0208C134.161 53.7468 134.259 53.4245 134.259 53.0949C134.258 52.653 134.082 52.2294 133.77 51.9169C133.458 51.6045 133.034 51.4287 132.592 51.4282ZM132.592 53.9282C132.427 53.9282 132.266 53.8793 132.129 53.7878C131.992 53.6962 131.885 53.5661 131.822 53.4138C131.759 53.2615 131.743 53.094 131.775 52.9323C131.807 52.7707 131.886 52.6222 132.003 52.5056C132.119 52.3891 132.268 52.3097 132.43 52.2776C132.591 52.2454 132.759 52.2619 132.911 52.325C133.063 52.3881 133.193 52.4949 133.285 52.6319C133.377 52.769 133.425 52.9301 133.425 53.0949C133.425 53.3158 133.337 53.5277 133.181 53.6839C133.025 53.8401 132.813 53.928 132.592 53.9282Z" fill="#466B83"/>
<path d="M7.408 14.9282C7.07836 14.9282 6.75613 15.026 6.48205 15.2091C6.20797 15.3922 5.99435 15.6525 5.8682 15.9571C5.74206 16.2616 5.70905 16.5967 5.77336 16.92C5.83767 17.2433 5.9964 17.5403 6.22949 17.7734C6.46258 18.0065 6.75955 18.1652 7.08285 18.2295C7.40615 18.2938 7.74126 18.2608 8.04581 18.1347C8.35035 18.0085 8.61065 17.7949 8.79378 17.5208C8.97692 17.2468 9.07467 16.9245 9.07467 16.5949C9.07416 16.153 8.89841 15.7294 8.58595 15.4169C8.2735 15.1045 7.84987 14.9287 7.408 14.9282ZM7.408 17.4282C7.24318 17.4282 7.08207 17.3793 6.94503 17.2878C6.80798 17.1962 6.70117 17.0661 6.6381 16.9138C6.57503 16.7615 6.55853 16.594 6.59068 16.4323C6.62283 16.2707 6.7022 16.1222 6.81874 16.0056C6.93529 15.8891 7.08377 15.8097 7.24542 15.7776C7.40708 15.7454 7.57463 15.7619 7.7269 15.825C7.87918 15.8881 8.00932 15.9949 8.10089 16.1319C8.19246 16.269 8.24133 16.4301 8.24133 16.5949C8.24111 16.8158 8.15324 17.0277 7.99701 17.1839C7.84078 17.3401 7.62895 17.428 7.408 17.4282Z" fill="#466B83"/>
<path d="M97.408 12.375C97.0784 12.375 96.7561 12.4727 96.4821 12.6559C96.208 12.839 95.9943 13.0993 95.8682 13.4039C95.7421 13.7084 95.709 14.0435 95.7734 14.3668C95.8377 14.6901 95.9964 14.9871 96.2295 15.2202C96.4626 15.4533 96.7595 15.612 97.0828 15.6763C97.4061 15.7406 97.7413 15.7076 98.0458 15.5815C98.3503 15.4553 98.6106 15.2417 98.7938 14.9676C98.9769 14.6935 99.0747 14.3713 99.0747 14.0417C99.0742 13.5998 98.8984 13.1762 98.586 12.8637C98.2735 12.5513 97.8499 12.3755 97.408 12.375ZM97.408 14.875C97.2432 14.875 97.0821 14.8261 96.945 14.7346C96.808 14.643 96.7012 14.5128 96.6381 14.3606C96.575 14.2083 96.5585 14.0407 96.5907 13.8791C96.6228 13.7174 96.7022 13.569 96.8187 13.4524C96.9353 13.3359 97.0838 13.2565 97.2454 13.2243C97.4071 13.1922 97.5746 13.2087 97.7269 13.2718C97.8792 13.3348 98.0093 13.4417 98.1009 13.5787C98.1925 13.7157 98.2413 13.8768 98.2413 14.0417C98.2411 14.2626 98.1532 14.4744 97.997 14.6307C97.8408 14.7869 97.6289 14.8748 97.408 14.875Z" fill="#466B83"/>
<path d="M69.2412 38.2614C69.2412 37.9318 69.1434 37.6095 68.9603 37.3354C68.7772 37.0614 68.5169 36.8477 68.2123 36.7216C67.9078 36.5954 67.5727 36.5624 67.2494 36.6268C66.926 36.6911 66.6291 36.8498 66.396 37.0829C66.1629 37.316 66.0042 37.6129 65.9399 37.9362C65.8756 38.2595 65.9086 38.5947 66.0347 38.8992C66.1609 39.2037 66.3745 39.464 66.6486 39.6472C66.9226 39.8303 67.2449 39.9281 67.5745 39.9281C68.0164 39.9276 68.44 39.7518 68.7525 39.4393C69.0649 39.1269 69.2407 38.7033 69.2412 38.2614ZM66.7412 38.2614C66.7412 38.0966 66.79 37.9355 66.8816 37.7984C66.9732 37.6614 67.1033 37.5546 67.2556 37.4915C67.4079 37.4284 67.5754 37.4119 67.7371 37.4441C67.8987 37.4762 68.0472 37.5556 68.1638 37.6721C68.2803 37.7887 68.3597 37.9372 68.3918 38.0988C68.424 38.2605 68.4075 38.428 68.3444 38.5803C68.2813 38.7326 68.1745 38.8627 68.0375 38.9543C67.9004 39.0459 67.7393 39.0947 67.5745 39.0947C67.3536 39.0945 67.1417 39.0066 66.9855 38.8504C66.8293 38.6942 66.7414 38.4823 66.7412 38.2614Z" fill="#466B83"/>
<path d="M13.5856 54.9377L14.8248 53.3077L14.0423 52.8652L13.2473 54.6894H13.2206L12.4123 52.8777L11.6165 53.3344L12.8423 54.9252V54.9511L10.9248 54.7027V55.5894L12.8548 55.3419V55.3686L11.6165 56.9586L12.359 57.4286L13.2073 55.5894H13.2331L14.0156 57.4152L14.8373 56.9461L13.5856 55.3811V55.3552L15.554 55.5894V54.7027L13.5856 54.9636V54.9377Z" fill="#FDB549"/>
<path d="M51.3174 15.4832L50.604 16.399L51.0324 16.6698L51.5207 15.6107H51.5357L51.9857 16.6623L52.459 16.3915L51.7382 15.4907V15.4757L52.8715 15.6107V15.1007L51.7382 15.2507V15.2357L52.4515 14.2973L52.0015 14.0415L51.5432 15.0923H51.5282L51.0632 14.049L50.604 14.3123L51.3107 15.2282V15.2432L50.2065 15.1007V15.6107L51.3174 15.4682V15.4832Z" fill="#FDB549"/>
<path d="M102.179 33.6173V32.7482L100.248 33.004V32.9782L101.463 31.3798L100.695 30.9448L99.9152 32.7348H99.8894L99.0969 30.9573L98.316 31.4048L99.5185 32.9657V32.9915L97.6377 32.7482V33.6173L99.531 33.3748V33.4007L98.316 34.9607L99.0452 35.4215L99.8769 33.6173H99.9019L100.669 35.4082L101.475 34.9482L100.248 33.4132V33.3873L102.179 33.6173Z" fill="#FDB549"/>
<path d="M130.111 20.4159L131.159 19.0376L130.497 18.6626L129.824 20.2068H129.802L129.118 18.6734L128.444 19.0593L129.482 20.4059V20.4276L127.86 20.2176V20.9676L129.492 20.7584V20.7809L128.444 22.1259L129.073 22.5234L129.791 20.9676H129.812L130.474 22.5126L131.17 22.1151L130.111 20.7909V20.7693L131.776 20.9676V20.2176L130.111 20.4384V20.4159Z" fill="#FDB549"/>
<path d="M1.66667 113.958C2.58714 113.958 3.33333 113.212 3.33333 112.292C3.33333 111.371 2.58714 110.625 1.66667 110.625C0.746192 110.625 0 111.371 0 112.292C0 113.212 0.746192 113.958 1.66667 113.958Z" fill="#466B83"/>
<path d="M9.16667 110.625H6.66667C6.22464 110.625 5.80072 110.801 5.48816 111.113C5.17559 111.426 5 111.85 5 112.292C5 112.734 5.17559 113.158 5.48816 113.47C5.80072 113.783 6.22464 113.958 6.66667 113.958H9.16667C9.60869 113.958 10.0326 113.783 10.3452 113.47C10.6577 113.158 10.8333 112.734 10.8333 112.292C10.8333 111.85 10.6577 111.426 10.3452 111.113C10.0326 110.801 9.60869 110.625 9.16667 110.625Z" fill="#466B83"/>
<path d="M133.333 110.625H130.833C130.391 110.625 129.967 110.801 129.655 111.113C129.342 111.426 129.167 111.85 129.167 112.292C129.167 112.734 129.342 113.158 129.655 113.47C129.967 113.783 130.391 113.958 130.833 113.958H133.333C133.775 113.958 134.199 113.783 134.512 113.47C134.824 113.158 135 112.734 135 112.292C135 111.85 134.824 111.426 134.512 111.113C134.199 110.801 133.775 110.625 133.333 110.625Z" fill="#466B83"/>
<path d="M138.333 113.958C139.254 113.958 140 113.212 140 112.292C140 111.371 139.254 110.625 138.333 110.625C137.413 110.625 136.667 111.371 136.667 112.292C136.667 113.212 137.413 113.958 138.333 113.958Z" fill="#466B83"/>
<path d="M101.462 117.292H94.5385C94.1195 117.325 93.7285 117.515 93.4434 117.824C93.1583 118.133 93 118.538 93 118.958C93 119.378 93.1583 119.783 93.4434 120.092C93.7285 120.401 94.1195 120.591 94.5385 120.625H101.462C101.881 120.591 102.272 120.401 102.557 120.092C102.842 119.783 103 119.378 103 118.958C103 118.538 102.842 118.133 102.557 117.824C102.272 117.515 101.881 117.325 101.462 117.292Z" fill="#FDB549"/>
<path d="M45.4616 117.292H38.5385C38.1195 117.325 37.7285 117.515 37.4434 117.824C37.1583 118.133 37 118.538 37 118.958C37 119.378 37.1583 119.783 37.4434 120.092C37.7285 120.401 38.1195 120.591 38.5385 120.625H45.4616C45.8806 120.591 46.2715 120.401 46.5566 120.092C46.8417 119.783 47 119.378 47 118.958C47 118.538 46.8417 118.133 46.5566 117.824C46.2715 117.515 45.8806 117.325 45.4616 117.292Z" fill="#FDB549"/>
<path d="M86.6666 117.292H53.3333C52.8913 117.292 52.4673 117.467 52.1548 117.78C51.8422 118.092 51.6666 118.516 51.6666 118.958C51.6666 119.4 51.8422 119.824 52.1548 120.137C52.4673 120.449 52.8913 120.625 53.3333 120.625H66.6166V122.292H60C59.5579 122.292 59.134 122.467 58.8214 122.78C58.5089 123.092 58.3333 123.516 58.3333 123.958C58.3333 124.4 58.5089 124.824 58.8214 125.137C59.134 125.449 59.5579 125.625 60 125.625H80.8333C81.2753 125.625 81.6992 125.449 82.0118 125.137C82.3244 124.824 82.5 124.4 82.5 123.958C82.5 123.516 82.3244 123.092 82.0118 122.78C81.6992 122.467 81.2753 122.292 80.8333 122.292H73.3833V120.625H86.6666C87.1087 120.625 87.5326 120.449 87.8451 120.137C88.1577 119.824 88.3333 119.4 88.3333 118.958C88.3333 118.516 88.1577 118.092 87.8451 117.78C87.5326 117.467 87.1087 117.292 86.6666 117.292Z" fill="#FDB549"/>
<path d="M125.601 110.625H21.6667C21.2249 110.624 20.8012 110.449 20.4888 110.136C20.1763 109.824 20.0006 109.4 20.0001 108.958V82.2915C20.0006 81.8496 20.1763 81.426 20.4888 81.1136C20.8012 80.8011 21.2249 80.6253 21.6667 80.6248H45.8334V77.2915H21.6667C20.3411 77.293 19.0702 77.8202 18.1328 78.7576C17.1954 79.6949 16.6682 80.9659 16.6667 82.2915V108.958C16.6679 109.526 16.7666 110.09 16.9584 110.625H14.399C14.1619 110.594 13.9209 110.614 13.6921 110.683C13.4633 110.753 13.252 110.871 13.0723 111.028C12.8926 111.186 12.7487 111.38 12.65 111.598C12.5514 111.816 12.5004 112.052 12.5004 112.292C12.5004 112.531 12.5514 112.767 12.65 112.985C12.7487 113.203 12.8926 113.397 13.0723 113.555C13.252 113.712 13.4633 113.83 13.6921 113.9C13.9209 113.969 14.1619 113.989 14.399 113.958H125.601C125.838 113.989 126.079 113.969 126.308 113.9C126.537 113.83 126.748 113.712 126.928 113.555C127.107 113.397 127.251 113.203 127.35 112.985C127.449 112.767 127.5 112.531 127.5 112.292C127.5 112.052 127.449 111.816 127.35 111.598C127.251 111.38 127.107 111.186 126.928 111.028C126.748 110.871 126.537 110.753 126.308 110.683C126.079 110.614 125.838 110.594 125.601 110.625Z" fill="#466B83"/>
</g>
<defs>
<clipPath id="clip0_30_3797">
<rect width="140" height="140" fill="white"/>
</clipPath>
</defs>
</svg>
