<svg width="130" height="130" viewBox="0 0 130 130" fill="none" xmlns="http://www.w3.org/2000/svg">
<path d="M93.4285 120.197H86.9999C86.6108 120.228 86.2478 120.405 85.983 120.692C85.7183 120.979 85.5713 121.355 85.5713 121.745C85.5713 122.135 85.7183 122.511 85.983 122.798C86.2478 123.085 86.6108 123.261 86.9999 123.293H93.4285C93.8175 123.261 94.1806 123.085 94.4453 122.798C94.71 122.511 94.8571 122.135 94.8571 121.745C94.8571 121.355 94.71 120.979 94.4453 120.692C94.1806 120.405 93.8175 120.228 93.4285 120.197Z" fill="#B4EDFF"/>
<path d="M43.0002 120.197H36.5716C36.1826 120.228 35.8195 120.405 35.5548 120.692C35.2901 120.979 35.1431 121.355 35.1431 121.745C35.1431 122.135 35.2901 122.511 35.5548 122.798C35.8195 123.085 36.1826 123.261 36.5716 123.293H43.0002C43.3893 123.261 43.7523 123.085 44.0171 122.798C44.2818 122.511 44.4288 122.135 44.4288 121.745C44.4288 121.355 44.2818 120.979 44.0171 120.692C43.7523 120.405 43.3893 120.228 43.0002 120.197Z" fill="#B4EDFF"/>
<path d="M80.4762 120.197H49.5238C49.1134 120.197 48.7197 120.36 48.4295 120.651C48.1392 120.941 47.9762 121.334 47.9762 121.745C47.9762 122.155 48.1392 122.549 48.4295 122.839C48.7197 123.129 49.1134 123.293 49.5238 123.293H61.8583V124.84H55.7143C55.3038 124.84 54.9102 125.003 54.62 125.293C54.3297 125.584 54.1667 125.977 54.1667 126.388C54.1667 126.798 54.3297 127.192 54.62 127.482C54.9102 127.772 55.3038 127.935 55.7143 127.935H75.0595C75.47 127.935 75.8636 127.772 76.1539 127.482C76.4441 127.192 76.6071 126.798 76.6071 126.388C76.6071 125.977 76.4441 125.584 76.1539 125.293C75.8636 125.003 75.47 124.84 75.0595 124.84H68.1417V123.293H80.4762C80.8867 123.293 81.2803 123.129 81.5705 122.839C81.8608 122.549 82.0238 122.155 82.0238 121.745C82.0238 121.334 81.8608 120.941 81.5705 120.651C81.2803 120.36 80.8867 120.197 80.4762 120.197Z" fill="#B4EDFF"/>
<path d="M42.6642 11.4114C43.1233 11.4114 43.5722 11.2753 43.9539 11.0202C44.3357 10.7651 44.6332 10.4025 44.8089 9.97836C44.9846 9.55417 45.0306 9.08741 44.941 8.6371C44.8515 8.18678 44.6304 7.77314 44.3057 7.44849C43.981 7.12383 43.5674 6.90273 43.1171 6.81316C42.6668 6.72359 42.2 6.76956 41.7758 6.94526C41.3516 7.12097 40.9891 7.41851 40.734 7.80027C40.4789 8.18202 40.3428 8.63085 40.3428 9.08998C40.3435 9.70545 40.5883 10.2955 41.0235 10.7307C41.4587 11.1659 42.0487 11.4107 42.6642 11.4114ZM42.6642 7.92927C42.8938 7.92927 43.1182 7.99734 43.3091 8.12489C43.4999 8.25243 43.6487 8.43371 43.7366 8.6458C43.8244 8.85789 43.8474 9.09127 43.8026 9.31643C43.7578 9.54158 43.6473 9.7484 43.485 9.91073C43.3226 10.0731 43.1158 10.1836 42.8906 10.2284C42.6655 10.2732 42.4321 10.2502 42.22 10.1623C42.0079 10.0745 41.8266 9.92572 41.6991 9.73484C41.5716 9.54396 41.5035 9.31955 41.5035 9.08998C41.5038 8.78224 41.6262 8.48718 41.8438 8.26957C42.0614 8.05196 42.3565 7.92957 42.6642 7.92927Z" fill="#5A859D"/>
<path d="M125.271 29.0186C124.965 29.0186 124.666 29.1093 124.411 29.2794C124.157 29.4494 123.959 29.6911 123.841 29.9739C123.724 30.2567 123.694 30.5679 123.753 30.8681C123.813 31.1683 123.96 31.4441 124.177 31.6605C124.393 31.8769 124.669 32.0243 124.969 32.0841C125.27 32.1438 125.581 32.1131 125.864 31.996C126.146 31.8789 126.388 31.6805 126.558 31.426C126.728 31.1715 126.819 30.8723 126.819 30.5662C126.818 30.1559 126.655 29.7625 126.365 29.4724C126.075 29.1822 125.682 29.019 125.271 29.0186ZM125.271 31.34C125.118 31.34 124.969 31.2946 124.841 31.2096C124.714 31.1245 124.615 31.0037 124.556 30.8623C124.498 30.7209 124.482 30.5653 124.512 30.4152C124.542 30.2651 124.616 30.1272 124.724 30.019C124.832 29.9108 124.97 29.8371 125.12 29.8072C125.27 29.7774 125.426 29.7927 125.567 29.8513C125.709 29.9098 125.83 30.009 125.915 30.1363C126 30.2635 126.045 30.4131 126.045 30.5662C126.045 30.7713 125.963 30.968 125.818 31.1131C125.673 31.2582 125.476 31.3398 125.271 31.34Z" fill="#5A859D"/>
<path d="M125.593 1.12549C125.287 1.12549 124.988 1.21625 124.733 1.38631C124.479 1.55636 124.28 1.79807 124.163 2.08086C124.046 2.36365 124.015 2.67482 124.075 2.97503C124.135 3.27524 124.282 3.551 124.499 3.76744C124.715 3.98388 124.991 4.13127 125.291 4.19099C125.591 4.2507 125.902 4.22006 126.185 4.10292C126.468 3.98579 126.71 3.78742 126.88 3.53292C127.05 3.27841 127.141 2.9792 127.141 2.67311C127.14 2.2628 126.977 1.86943 126.687 1.57929C126.397 1.28916 126.003 1.12596 125.593 1.12549ZM125.593 3.44692C125.44 3.44692 125.29 3.40153 125.163 3.31651C125.036 3.23148 124.937 3.11063 124.878 2.96923C124.82 2.82784 124.804 2.67225 124.834 2.52214C124.864 2.37204 124.938 2.23416 125.046 2.12594C125.154 2.01772 125.292 1.94402 125.442 1.91417C125.592 1.88431 125.748 1.89963 125.889 1.9582C126.031 2.01677 126.151 2.11595 126.236 2.2432C126.321 2.37045 126.367 2.52006 126.367 2.67311C126.367 2.87827 126.285 3.07497 126.14 3.22005C125.995 3.36512 125.798 3.44671 125.593 3.44692Z" fill="#5A859D"/>
<path d="M97.9622 9.6377C97.6561 9.6377 97.3569 9.72846 97.1024 9.89852C96.8479 10.0686 96.6495 10.3103 96.5324 10.5931C96.4152 10.8759 96.3846 11.187 96.4443 11.4872C96.504 11.7874 96.6514 12.0632 96.8678 12.2796C97.0843 12.4961 97.36 12.6435 97.6602 12.7032C97.9605 12.7629 98.2716 12.7323 98.5544 12.6151C98.8372 12.498 99.0789 12.2996 99.249 12.0451C99.419 11.7906 99.5098 11.4914 99.5098 11.1853C99.5093 10.775 99.3461 10.3816 99.056 10.0915C98.7659 9.80137 98.3725 9.63816 97.9622 9.6377ZM97.9622 11.9591C97.8091 11.9591 97.6595 11.9137 97.5323 11.8287C97.405 11.7437 97.3058 11.6228 97.2473 11.4814C97.1887 11.34 97.1734 11.1845 97.2032 11.0344C97.2331 10.8842 97.3068 10.7464 97.415 10.6381C97.5232 10.5299 97.6611 10.4562 97.8112 10.4264C97.9613 10.3965 98.1169 10.4118 98.2583 10.4704C98.3997 10.529 98.5205 10.6282 98.6056 10.7554C98.6906 10.8827 98.736 11.0323 98.736 11.1853C98.7358 11.3905 98.6542 11.5872 98.5091 11.7323C98.364 11.8773 98.1673 11.9589 97.9622 11.9591Z" fill="#5A859D"/>
<path d="M9.8428 43.721C9.8428 43.4149 9.75203 43.1157 9.58198 42.8611C9.41192 42.6066 9.17022 42.4083 8.88743 42.2911C8.60464 42.174 8.29346 42.1434 7.99325 42.2031C7.69304 42.2628 7.41728 42.4102 7.20085 42.6266C6.98441 42.8431 6.83701 43.1188 6.7773 43.419C6.71758 43.7192 6.74823 44.0304 6.86536 44.3132C6.9825 44.596 7.18086 44.8377 7.43537 45.0078C7.68987 45.1778 7.98909 45.2686 8.29518 45.2686C8.70549 45.2681 9.09886 45.1049 9.38899 44.8148C9.67913 44.5246 9.84233 44.1313 9.8428 43.721ZM7.52137 43.721C7.52137 43.5679 7.56675 43.4183 7.65178 43.2911C7.73681 43.1638 7.85766 43.0646 7.99905 43.0061C8.14045 42.9475 8.29604 42.9322 8.44614 42.962C8.59625 42.9919 8.73413 43.0656 8.84234 43.1738C8.95056 43.282 9.02426 43.4199 9.05412 43.57C9.08398 43.7201 9.06865 43.8757 9.01008 44.0171C8.95152 44.1585 8.85234 44.2793 8.72508 44.3644C8.59783 44.4494 8.44822 44.4948 8.29518 44.4948C8.09001 44.4946 7.89331 44.413 7.74824 44.2679C7.60317 44.1228 7.52157 43.9261 7.52137 43.721Z" fill="#5A859D"/>
<path d="M3.7823 25.9323L4.93295 24.4187L4.20634 24.0078L3.46736 25.7025H3.44337L2.69277 24.0194L1.95379 24.4435L3.09206 25.9207V25.9447L1.31152 25.7141V26.5374L3.10367 26.3076V26.3323L1.95379 27.8088L2.64325 28.2452L3.43099 26.5374H3.45498L4.18158 28.2328L4.94456 27.7972L3.7823 26.3439V26.32L5.61004 26.5374V25.7141L3.7823 25.9563V25.9323Z" fill="#B4EDFF"/>
<path d="M13.5391 1.40314L12.8767 2.25356L13.2745 2.50505L13.7279 1.52154H13.7411L14.1597 2.49808L14.5992 2.2466L13.9299 1.41011V1.39618L14.9823 1.52154V1.04796L13.9299 1.18725V1.17332L14.5923 0.302013L14.1744 0.0644531L13.7488 1.04023H13.7349L13.3023 0.0714175L12.8767 0.315941L13.5321 1.16636V1.18029L12.5068 1.04796V1.52154L13.5391 1.38922V1.40314Z" fill="#B4EDFF"/>
<path d="M121.498 47.3683V46.5612L119.705 46.798V46.7748L120.833 45.2906L120.12 44.8867L119.396 46.5489H119.372L118.636 44.8983L117.911 45.3139L119.028 46.7632V46.7864L117.281 46.5612V47.3683L119.039 47.1431V47.1671L117.911 48.6149L118.588 49.0428L119.36 47.3683H119.384L120.096 49.0312L120.845 48.6033L119.705 47.1787V47.1548L121.498 47.3683Z" fill="#B4EDFF"/>
<path d="M80.6028 4.12614L81.5762 2.84626L80.961 2.49805L80.3366 3.93192H80.3157L79.6811 2.50811L79.0551 2.86638L80.0185 4.11686V4.13698L78.5127 3.94198V4.6384L80.0286 4.44418V4.46507L79.0551 5.714L79.6394 6.08311L80.3056 4.6384H80.3257L80.9409 6.07305L81.5863 5.70394L80.6028 4.47513V4.45424L82.1488 4.6384V3.94198L80.6028 4.14703V4.12614Z" fill="#B4EDFF"/>
<path d="M14.8665 21.8911C14.9495 22.2267 15.1424 22.5249 15.4145 22.7381C15.6867 22.9513 16.0223 23.0673 16.368 23.0676C16.4931 23.0676 16.6176 23.0527 16.7391 23.0231C16.9363 22.9747 17.1222 22.888 17.2859 22.7679C17.4496 22.6477 17.5881 22.4965 17.6934 22.3228C17.7986 22.1491 17.8686 21.9564 17.8994 21.7556C17.9301 21.5548 17.921 21.35 17.8726 21.1528L17.8507 21.0651L23.2152 26.4243C23.5052 26.7141 23.8983 26.8768 24.3083 26.8769C24.7182 26.8769 25.1114 26.7141 25.4014 26.4244C25.6914 26.1347 25.8546 25.7417 25.855 25.3318C25.8554 24.9218 25.6931 24.5285 25.4037 24.2382L20.0391 18.8789L20.1267 18.9C20.3241 18.949 20.5292 18.9586 20.7303 18.9282C20.9314 18.8978 21.1245 18.828 21.2986 18.7229C21.4727 18.6178 21.6243 18.4794 21.7449 18.3156C21.8654 18.1518 21.9525 17.9659 22.001 17.7684C22.0496 17.5709 22.0588 17.3658 22.028 17.1648C21.9972 16.9638 21.9271 16.7708 21.8217 16.5969C21.7162 16.423 21.5775 16.2716 21.4135 16.1514C21.2495 16.0312 21.0634 15.9445 20.8658 15.8963L15.3932 14.5527C15.1348 14.4891 14.8643 14.4932 14.6079 14.5646C14.3516 14.636 14.1179 14.7724 13.9297 14.9605C13.7414 15.1486 13.6048 15.3821 13.5332 15.6384C13.4615 15.8948 13.4572 16.1652 13.5207 16.4237L14.8665 21.8911Z" fill="#5A859D"/>
<path d="M105.69 26.8777C105.894 26.8779 106.095 26.838 106.283 26.7602C106.47 26.6824 106.641 26.5683 106.785 26.4243L112.149 21.0651L112.127 21.1528C112.079 21.35 112.07 21.5548 112.1 21.7556C112.131 21.9563 112.201 22.1491 112.306 22.3228C112.412 22.4965 112.55 22.6477 112.714 22.7679C112.878 22.888 113.063 22.9747 113.261 23.023C113.382 23.0526 113.507 23.0676 113.632 23.0676C113.977 23.0673 114.313 22.9513 114.585 22.7381C114.857 22.5248 115.05 22.2267 115.133 21.891L116.479 16.4237C116.543 16.1652 116.538 15.8948 116.467 15.6384C116.395 15.3821 116.258 15.1486 116.07 14.9605C115.882 14.7724 115.648 14.636 115.392 14.5646C115.135 14.4932 114.865 14.4891 114.607 14.5527L109.134 15.8963C108.936 15.9445 108.75 16.0312 108.586 16.1514C108.422 16.2716 108.284 16.423 108.178 16.5969C108.073 16.7708 108.002 16.9638 107.972 17.1648C107.941 17.3658 107.95 17.5709 107.999 17.7684C108.047 17.9659 108.134 18.1518 108.255 18.3156C108.375 18.4794 108.527 18.6178 108.701 18.7229C108.875 18.828 109.068 18.8978 109.269 18.9282C109.471 18.9586 109.676 18.949 109.873 18.9L109.961 18.8789L104.596 24.2382C104.38 24.4545 104.233 24.7301 104.173 25.0301C104.114 25.3301 104.144 25.641 104.261 25.9235C104.379 26.206 104.577 26.4474 104.831 26.6173C105.086 26.7871 105.384 26.8778 105.69 26.8777Z" fill="#5A859D"/>
<path d="M92.3128 89.887C92.647 89.5143 94.426 87.2692 94.5853 87.0429C95.457 87.3266 96.393 87.3477 97.2765 87.1034C98.0177 86.8984 98.7113 86.5499 99.3181 86.0776C101.4 84.4828 102.213 81.2916 103.058 78.9454C103.761 76.9581 104.281 74.9104 104.61 72.8281C104.766 72.013 104.753 71.1744 104.57 70.3648C104.369 69.6228 104.025 68.9275 103.556 68.3182C102.997 67.5919 102.236 67.046 101.369 66.7482C101.373 66.6651 101.381 66.5831 101.381 66.4995C101.369 66.0789 101.312 63.7939 101.26 63.1104C102.117 62.7718 102.853 62.1848 103.373 61.4248C103.808 60.7918 104.113 60.0795 104.273 59.3287C104.416 58.5113 104.387 57.6729 104.187 56.8675C103.504 53.5605 102.337 50.3724 100.723 47.4063C100.278 46.4551 99.7291 45.5558 99.0868 44.725C98.4683 44.0051 97.666 43.4666 96.7656 43.1667C95.8651 42.8668 94.9001 42.8168 93.9735 43.0221C93.7771 43.073 93.584 43.1363 93.3955 43.2114C93.0723 42.8268 91.18 40.6765 90.9802 40.4806C91.2143 39.795 91.4006 39.094 91.538 38.3827C91.5419 37.4906 91.3343 36.6103 90.932 35.814C90.5297 35.0178 89.9444 34.3283 89.2239 33.8021C86.0149 31.2626 82.4214 29.6965 78.715 28.1181C77.9413 27.8052 77.1028 27.686 76.2726 27.771C75.5337 27.8058 74.8115 28.0026 74.1571 28.3474C73.5026 28.6922 72.932 29.1766 72.4855 29.7663C71.9085 30.6606 71.5855 31.6949 71.5509 32.7587C71.5163 33.8224 71.7714 34.8755 72.289 35.8055C72.5775 36.3812 72.969 36.8993 73.444 37.3341C74.7167 38.4703 76.5147 38.7813 78.0093 39.5231C79.4772 40.2105 80.871 41.0459 82.1692 42.0163C83.3011 42.994 84.7722 43.4872 86.2646 43.3893C87.1378 43.3095 87.985 43.0499 88.7529 42.6267C88.9411 42.81 90.681 44.7891 90.978 45.1402C90.8645 45.3006 90.7583 45.4635 90.6635 45.6303C90.1611 46.4619 89.8761 47.4067 89.835 48.3774C89.7939 49.3482 89.9979 50.3137 90.4282 51.1848C90.4282 51.1848 90.5618 51.4238 90.7633 51.782C91.9721 53.9347 92.8872 56.2397 93.4841 58.6354C93.6409 59.4714 93.9624 60.2679 94.4298 60.9785C94.7875 61.5029 95.2407 61.9552 95.7657 62.3119C96.4924 62.8109 97.3112 63.1602 98.1743 63.3393C98.2227 63.9666 98.2748 66.0612 98.2864 66.446C98.2858 66.5239 98.2789 66.5996 98.2754 66.6765C97.4176 66.8971 96.6134 67.2894 95.9115 67.8298C95.4077 68.2133 94.9807 68.6885 94.653 69.2305C94.3038 69.7476 94.0621 70.3295 93.9423 70.9418C93.4789 73.8351 92.544 76.6328 91.1747 79.2234C90.9017 79.7853 90.7446 80.3964 90.7128 81.0203C90.648 81.6504 90.7031 82.2871 90.8751 82.8967C91.1107 83.7504 91.5174 84.5473 92.0705 85.2389C91.9237 85.4471 90.2927 87.5043 89.9858 87.8478C89.1879 87.4708 88.3228 87.2567 87.4411 87.218C86.1726 87.1531 84.9238 87.5518 83.9276 88.3398C81.6959 90.2329 79.1857 91.7706 76.4853 92.8987C75.9202 93.158 75.405 93.5143 74.9629 93.9515C74.0511 94.9192 73.479 96.1574 73.3328 97.4789C73.3087 97.67 73.2952 97.8655 73.2898 98.0629C72.676 98.2019 70.2491 98.6974 70.2491 98.6974C70.1643 98.7081 70.0844 98.718 70.0003 98.729C69.1481 96.8665 67.2139 95.1658 65.0574 95.2385C65.0574 95.2385 64.784 95.2459 64.3737 95.2578C61.5814 95.3379 59.1047 94.5403 56.4278 93.9363C55.8268 93.783 55.206 93.721 54.5865 93.7527C53.5675 93.865 52.5933 94.2327 51.7542 94.8215C50.915 95.4103 50.238 96.2014 49.7857 97.1214C49.2855 98.116 49.1427 99.2525 49.3813 100.34C49.6199 101.428 50.2253 102.4 51.096 103.094C51.708 103.661 52.4496 104.07 53.2561 104.285L56.1407 105.085C58.7818 105.578 61.4503 105.91 64.1316 106.079C64.6944 106.069 65.0693 106.063 65.0693 106.063C65.8691 106.079 66.6632 105.923 67.398 105.607C68.1329 105.291 68.7916 104.821 69.3299 104.229C69.9438 103.543 70.3461 102.693 70.4884 101.784C70.5732 101.773 70.6533 101.762 70.7381 101.752C70.7381 101.752 73.3911 101.209 74.0624 101.057C74.356 101.539 74.7324 101.966 75.1742 102.317C75.7909 102.773 76.4967 103.092 77.2455 103.256C77.9943 103.42 78.7692 103.424 79.5195 103.267C79.9304 103.169 80.3317 103.034 80.7185 102.865C84.3938 101.29 87.8215 99.1907 90.8946 96.6325C91.5123 96.1282 92.0176 95.5001 92.3779 94.7886C92.7381 94.0771 92.9453 93.2981 92.9861 92.5016C93.0272 91.5825 92.7927 90.672 92.3128 89.887ZM84.5235 40.0314C84.5235 40.0314 84.2866 39.8438 83.9318 39.5634C81.5235 37.8127 78.8693 36.428 76.0556 35.4543C75.7748 35.3406 75.519 35.1728 75.3028 34.9604C75.0803 34.7711 74.8972 34.5398 74.7638 34.2798C74.7368 34.227 74.7199 34.168 74.696 34.1129C75.1172 34.2283 75.4773 34.3167 75.7308 34.419C76.0497 34.5448 76.2314 34.6159 76.2314 34.6159C76.6153 34.7459 77.035 34.72 77.4 34.5437C77.765 34.3674 78.0462 34.0548 78.183 33.6732C78.3198 33.2917 78.3014 32.8717 78.1316 32.5036C77.9619 32.1355 77.6543 31.8488 77.2753 31.7052C77.2753 31.7052 77.0759 31.6274 76.7275 31.4918C76.4497 31.3814 76.0567 31.2819 75.5973 31.1546C75.6525 31.1205 75.702 31.0797 75.7606 31.0499C76.0518 30.9018 76.3684 30.8103 76.6937 30.7801C77.0329 30.7714 77.3702 30.8321 77.685 30.9585C80.1563 31.8711 82.5296 33.0297 84.7693 34.4166C85.424 34.8323 86.0717 35.2568 86.7216 35.6795C87.1309 35.9996 87.4036 36.2135 87.4036 36.2135C87.6912 36.4358 87.9272 36.7176 88.0957 37.0396C88.2642 37.3616 88.3612 37.7162 88.3799 38.0791C87.813 37.6228 87.4634 37.3409 87.4634 37.3409C87.308 37.2094 87.127 37.1116 86.9318 37.0537C86.7366 36.9959 86.5315 36.9794 86.3296 37.0051C86.1277 37.0308 85.9333 37.0983 85.7588 37.2032C85.5844 37.3081 85.4337 37.4481 85.3163 37.6144C85.0791 37.9385 84.9719 38.3395 85.0155 38.7387C85.0592 39.1378 85.2507 39.5062 85.5522 39.7713C85.5522 39.7713 85.8706 40.0275 86.3868 40.4423C86.0651 40.5138 85.7316 40.514 85.4097 40.443C85.0878 40.3721 84.7854 40.2316 84.5235 40.0314ZM65.0664 103.042C65.0664 103.042 64.7192 103.049 64.1994 103.059C63.6802 103.022 62.9886 102.974 62.2967 102.926C59.5355 102.678 56.8045 102.166 54.1411 101.397C53.8133 101.309 53.5071 101.154 53.2411 100.943C52.9996 100.723 52.8017 100.459 52.6579 100.166C52.6298 100.107 52.6138 100.045 52.591 99.9848C52.7966 100.066 53.6889 100.392 53.6889 100.392C53.8863 100.452 54.0934 100.471 54.2984 100.45C54.5033 100.429 54.702 100.367 54.883 100.268C55.0639 100.17 55.2235 100.036 55.3525 99.8756C55.4815 99.7149 55.5773 99.5302 55.6345 99.3322C55.7514 98.9531 55.714 98.5431 55.5304 98.1913C55.3467 97.8396 55.0316 97.5746 54.6537 97.4538C54.6537 97.4538 53.8362 97.1535 53.6475 97.0792C53.6996 97.0496 53.7488 97.0119 53.8029 96.9862C54.066 96.8584 54.3517 96.7836 54.6437 96.766C54.9443 96.726 55.2499 96.7458 55.5429 96.8244C58.4059 97.6105 61.3427 98.0974 64.3061 98.2773C64.7593 98.2662 65.0601 98.26 65.0601 98.26C65.3907 98.2575 65.7179 98.3275 66.0185 98.465C66.3192 98.6025 66.586 98.8043 66.8003 99.0561C65.8184 99.0832 65.1813 99.1013 65.1813 99.1013C64.7854 99.1235 64.4119 99.2918 64.1331 99.5737C63.8543 99.8556 63.69 100.231 63.6722 100.627C63.6591 100.832 63.6893 101.038 63.7607 101.232C63.8321 101.425 63.9432 101.601 64.0868 101.748C64.2303 101.896 64.4032 102.012 64.5943 102.089C64.7854 102.165 64.9904 102.201 65.1962 102.194C65.1962 102.194 65.8913 102.174 66.9626 102.144C66.7295 102.421 66.4395 102.644 66.1123 102.799C65.7851 102.954 65.4284 103.037 65.0664 103.042ZM96.5789 58.6229C95.8794 55.7363 94.8158 52.9502 93.4137 50.3318C93.193 49.9362 93.045 49.6732 93.045 49.6732C92.7442 49.0819 92.6846 48.397 92.8789 47.7627C93.1288 48.1211 93.7177 49.1459 93.7177 49.1459C93.9284 49.4858 94.2616 49.732 94.6485 49.8336C95.0354 49.9352 95.4465 49.8845 95.7972 49.692C95.9779 49.5965 96.1374 49.4653 96.2659 49.3063C96.3944 49.1474 96.4894 48.964 96.5449 48.7672C96.6005 48.5705 96.6155 48.3645 96.5891 48.1618C96.5627 47.9591 96.4954 47.7639 96.3914 47.5879C96.3914 47.5879 95.7468 46.4721 95.4759 46.0812C95.8364 46.1294 96.18 46.2635 96.4778 46.4721C96.7756 46.6808 97.019 46.958 97.1873 47.2803C98.9739 50.5141 100.336 53.9646 101.241 57.5465C101.398 58.1915 101.294 58.8722 100.952 59.4408C100.917 59.4939 100.87 59.538 100.831 59.5877C100.791 59.3705 100.579 58.4445 100.579 58.4445C100.538 58.2442 100.457 58.0543 100.341 57.8862C100.224 57.7181 100.075 57.5754 99.902 57.4668C99.7289 57.3581 99.5355 57.2857 99.3336 57.254C99.1317 57.2223 98.9254 57.2319 98.7274 57.2823C98.3381 57.3739 97.9989 57.6115 97.7798 57.9461C97.5608 58.2807 97.4786 58.6866 97.5504 59.08C97.5504 59.08 97.748 59.9284 97.7839 60.1285C97.7305 60.0979 97.6738 60.0742 97.6222 60.0402C97.3632 59.8847 97.1377 59.6793 96.9586 59.4361C96.7795 59.1928 96.6504 58.9164 96.5789 58.6229ZM96.4232 73.8315C96.6177 73.0567 96.783 72.2698 96.9191 71.4708C96.9751 71.174 97.0894 70.8913 97.2555 70.6391C97.4216 70.3868 97.6362 70.1701 97.8867 70.0015C97.936 69.9661 97.9902 69.9396 98.0419 69.9067C97.9864 70.3375 97.7724 71.4994 97.7724 71.4994C97.723 71.8983 97.8261 72.3011 98.0611 72.6271C98.2961 72.9531 98.6456 73.1784 99.0396 73.2576C99.2382 73.3014 99.4437 73.3038 99.6432 73.2647C99.8428 73.2255 100.032 73.1456 100.199 73.0301C100.367 72.9145 100.508 72.7656 100.616 72.5928C100.723 72.4201 100.793 72.227 100.823 72.0258C100.823 72.0258 101.054 70.755 101.114 70.2826C101.156 70.3318 101.206 70.3739 101.243 70.4263C101.615 70.9757 101.755 71.6495 101.633 72.3016C101.01 75.9473 99.831 79.4757 98.1362 82.7631C97.8414 83.3581 97.3241 83.813 96.6963 84.0292C96.6368 84.0474 96.5732 84.0517 96.5122 84.0648C96.6149 83.8697 97.0508 83.0258 97.0508 83.0258C97.1484 82.8462 97.2084 82.6487 97.2273 82.4452C97.2461 82.2418 97.2234 82.0366 97.1605 81.8421C97.0976 81.6477 96.9959 81.4681 96.8614 81.3142C96.727 81.1603 96.5627 81.0353 96.3784 80.9469C96.021 80.7672 95.6083 80.7316 95.2253 80.8473C94.8424 80.963 94.5185 81.2213 94.3205 81.5689C94.3205 81.5689 93.9219 82.344 93.8285 82.5231C93.8066 82.4648 93.7782 82.4091 93.7589 82.3501C93.6604 82.0648 93.6194 81.7627 93.6383 81.4615C93.6572 81.1602 93.7357 80.8657 93.8691 80.595C94.9776 78.4461 95.8346 76.1767 96.4232 73.8315ZM88.9502 94.3189C86.075 96.6389 82.9111 98.5764 79.5377 100.083C79.2089 100.239 78.8472 100.315 78.4833 100.302C78.1193 100.289 77.7637 100.189 77.4466 100.01C77.6567 99.9418 78.5424 99.5972 78.5424 99.5972C78.9155 99.439 79.2117 99.1408 79.3673 98.7665C79.5228 98.3923 79.5253 97.9719 79.3742 97.5959C79.2231 97.2198 78.9305 96.9181 78.5593 96.7555C78.188 96.5929 77.7678 96.5825 77.389 96.7265C77.389 96.7265 76.5781 97.0426 76.3856 97.1058C76.612 96.4826 77.0714 95.9715 77.667 95.68C80.6013 94.3539 83.3579 92.6655 85.8725 90.6543C86.1061 90.4629 86.3754 90.3197 86.6648 90.2332C86.9541 90.1466 87.2578 90.1184 87.5581 90.1502C87.6181 90.1542 87.6771 90.1684 87.7366 90.1763C87.4193 90.4726 86.5077 91.2236 86.5077 91.2236C86.2134 91.4974 86.0334 91.8724 86.0038 92.2733C85.9743 92.6742 86.0974 93.0714 86.3484 93.3854C86.4726 93.5465 86.6286 93.6803 86.8068 93.7784C86.985 93.8765 87.1814 93.9368 87.384 93.9556C87.5865 93.9744 87.7907 93.9513 87.9839 93.8877C88.1771 93.824 88.3551 93.7213 88.5068 93.5858C88.5068 93.5858 89.5023 92.7624 89.8493 92.437C89.8516 92.5016 89.8621 92.5657 89.858 92.6304C89.7894 93.2907 89.4632 93.8974 88.9502 94.3189Z" fill="#5A859D"/>
<path d="M47.1094 95.6889C47.8222 94.4653 48.0969 93.0355 47.8886 91.6348C47.785 91.0105 47.5884 90.4053 47.3056 89.8392C47.0438 89.2713 46.6528 88.7726 46.1638 88.3827C44.8683 87.3702 43.6822 86.225 42.625 84.9656C41.4724 83.5796 40.6646 81.5367 39.0931 80.5246C38.5552 80.1635 37.9566 79.9024 37.3261 79.7539C36.4897 79.5151 35.612 79.4575 34.7516 79.5849C34.5014 79.0081 34.2458 78.4047 33.9693 77.8088C33.8189 77.3553 33.6703 76.9067 33.5235 76.463C34.2428 75.9748 34.8508 75.3401 35.3079 74.6006C35.636 74.0506 35.8864 73.4578 36.052 72.8391C36.2004 72.2347 36.2044 71.6039 36.0636 70.9976C36.0636 70.9976 35.9259 69.9126 35.7873 68.8281C35.5301 66.9825 35.4962 65.1128 35.6863 63.2591C35.8883 61.5156 35.9073 60.2503 34.882 58.7243C34.3932 58.0024 33.7558 57.3933 33.0125 56.9377C33.1812 56.3304 33.3383 55.6961 33.5596 55.0769C33.7384 54.6419 33.9063 54.2064 34.0706 53.7769C34.9378 53.8595 35.8127 53.7558 36.6366 53.4729C38.4963 52.8269 39.3932 51.3355 40.4598 49.8037C41.8093 47.8747 43.3151 46.0598 44.962 44.3775C45.8492 43.4785 46.4008 42.302 46.5245 41.045C46.6039 40.1789 46.4999 39.3058 46.2193 38.4826C46.4341 38.3337 46.649 38.184 46.8719 38.0298L47.8605 37.4106C48.271 37.1813 48.6779 36.9532 49.0786 36.7293C49.6894 37.3473 50.4246 37.8282 51.2355 38.1403C51.829 38.4007 52.4646 38.5519 53.1118 38.5866C53.7315 38.594 54.348 38.4962 54.935 38.2974C54.935 38.2974 55.9756 37.9519 57.0158 37.6073C59.1215 36.9959 61.294 36.6443 63.485 36.5603C64.1104 36.5425 64.7229 36.3789 65.274 36.0828C65.8405 35.8006 66.3615 35.4352 66.8196 34.9986C67.8286 34.005 68.4689 32.6973 68.6351 31.291C68.6891 30.7938 68.6671 30.2913 68.5698 29.8008C68.5677 29.7797 68.5641 29.7587 68.559 29.7381C68.3682 28.8369 67.9207 28.0101 67.2703 27.3576C66.7384 26.801 66.0857 26.374 65.3625 26.1096C64.5759 25.8425 63.7473 25.7208 62.917 25.7503C62.917 25.7503 62.5423 25.7629 61.98 25.7813C59.2865 25.8854 56.6203 26.3605 54.0566 27.1931C52.6337 27.6624 51.2102 28.1308 51.2102 28.1308C50.4217 28.4023 49.7062 28.8514 49.1189 29.4436C48.5691 29.9637 48.1303 30.5897 47.8289 31.284C47.4948 32.154 47.4142 33.1009 47.5965 34.0149C47.1582 34.2604 46.7142 34.5087 46.2645 34.7601L45.185 35.4366C44.9479 35.6003 44.7191 35.7581 44.4888 35.9177C43.7583 35.3448 42.8801 34.9913 41.9564 34.8983C41.1971 34.8154 40.4289 34.917 39.7172 35.1944C38.6488 35.6077 37.6917 36.2648 36.9221 37.1134C34.5646 39.526 32.4593 42.1727 30.6388 45.0125C29.6226 46.5987 28.9583 48.5478 29.6144 50.4133C29.9177 51.2924 30.4629 52.0681 31.1873 52.6513C31.0076 53.1195 30.8244 53.5961 30.6319 54.072C30.3907 54.7482 30.2163 55.4413 30.0318 56.1031C29.1028 56.1343 28.2014 56.4264 27.4307 56.9459C26.7912 57.4212 26.2539 58.0202 25.8505 58.7073C25.4471 59.3944 25.186 60.1556 25.0826 60.9456C24.841 62.7507 24.7689 64.5744 24.8672 66.3929C24.8956 68.2574 25.0308 70.1188 25.2721 71.9679C25.3781 73.1081 25.7477 74.2081 26.3517 75.1811C26.7532 75.8306 27.3056 76.3736 27.9619 76.7639C28.7563 77.2455 29.6712 77.4911 30.5999 77.4721C30.7591 77.9492 30.9196 78.4321 31.0814 78.9206C31.3803 79.5735 31.6598 80.2342 31.9348 80.8632C31.2404 81.4838 30.7361 82.2885 30.4802 83.1839C30.3045 83.9199 30.279 84.6837 30.4052 85.4297C30.5185 86.2559 30.8201 87.045 31.2867 87.7362C33.7092 90.9817 36.0343 94.1182 39.2097 96.6775C39.8551 97.2006 40.5903 97.6019 41.3794 97.8617C42.1164 98.0849 42.8949 98.1358 43.6547 98.0104C44.3686 97.9097 45.0503 97.6485 45.6487 97.2465C46.2471 96.8444 46.7465 96.3118 47.1094 95.6889ZM52.2497 30.9681C55.4954 29.938 58.8294 29.2099 62.2091 28.7931C62.729 28.7773 63.0758 28.7674 63.0758 28.7674C63.4371 28.7519 63.7975 28.8143 64.1325 28.9505C64.4676 29.0867 64.7693 29.2934 65.0174 29.5566C64.7973 29.5643 63.8469 29.59 63.8469 29.59C63.6438 29.59 63.4428 29.6319 63.2567 29.7133C63.0706 29.7947 62.9033 29.9137 62.7654 30.0629C62.6275 30.2121 62.522 30.3882 62.4555 30.5801C62.389 30.7721 62.363 30.9757 62.379 31.1782C62.4039 31.5798 62.579 31.9573 62.8695 32.2356C63.16 32.514 63.5446 32.6729 63.9468 32.6807C63.9468 32.6807 64.8184 32.6573 65.0217 32.6496C64.8215 32.9132 64.5661 33.1298 64.2733 33.2842C63.9805 33.4386 63.6576 33.5271 63.327 33.5435C63.327 33.5435 63.0249 33.5509 62.5723 33.563C60.4021 33.6423 58.2536 34.0254 56.1897 34.701C55.0431 35.0803 53.8956 35.46 53.8956 35.46C53.3272 35.6471 52.711 35.6271 52.1559 35.4036C52.1007 35.3803 52.0496 35.3449 51.9952 35.3171C52.3875 35.1447 53.4909 34.7041 53.4909 34.7041C53.8634 34.5645 54.1665 34.2848 54.3356 33.9247C54.5046 33.5647 54.5261 33.1528 54.3955 32.777C54.3316 32.5817 54.2292 32.4011 54.0945 32.2459C53.9597 32.0907 53.7953 31.964 53.6109 31.8733C53.4264 31.7825 53.2257 31.7296 53.0206 31.7175C52.8154 31.7054 52.6098 31.7345 52.4161 31.803C52.4161 31.803 51.2182 32.2807 50.7824 32.4712C50.8035 32.4106 50.815 32.3475 50.8402 32.2889C50.9656 31.9799 51.1566 31.7018 51.4 31.4738C51.6433 31.2458 51.9332 31.0733 52.2497 30.9681ZM32.7641 47.3118C32.7983 47.24 32.8386 47.1714 32.8845 47.1066C34.8311 44.1577 37.0356 41.3876 39.4721 38.8287C39.5764 38.7193 39.6417 38.6622 39.6417 38.6622C39.9168 38.4233 40.2396 38.2456 40.5887 38.1408C40.9377 38.0361 41.305 38.0067 41.6663 38.0546C41.1131 38.5222 40.7721 38.8106 40.7721 38.8106C40.6151 38.9441 40.4877 39.1089 40.398 39.2944C40.3083 39.4799 40.2582 39.6821 40.251 39.8881C40.2438 40.094 40.2796 40.2992 40.3561 40.4905C40.4326 40.6818 40.5482 40.8551 40.6955 40.9993C40.9733 41.2817 41.3465 41.4503 41.7421 41.4721C42.1376 41.494 42.5271 41.3675 42.8344 41.1174C42.8344 41.1174 43.1476 40.8525 43.6553 40.423C43.6675 40.7511 43.6062 41.0777 43.476 41.3791C43.3457 41.6805 43.1498 41.9489 42.9025 42.1649C41.6144 43.2802 40.4604 44.5415 39.4637 45.9235C38.5132 47.1099 37.6606 48.3714 36.9144 49.6958C36.76 49.9852 36.5429 50.2364 36.279 50.4312C36.0151 50.626 35.7111 50.7594 35.3891 50.8218C35.8365 49.9482 36.127 49.3816 36.127 49.3816C36.3204 49.0257 36.3665 48.6081 36.2555 48.2185C36.1444 47.829 35.8851 47.4984 35.5332 47.2979C35.1812 47.0973 34.7647 47.0427 34.3729 47.1458C33.9812 47.2489 33.6455 47.5015 33.4378 47.8493C33.4378 47.8493 33.1197 48.4672 32.6302 49.4191C32.5018 49.0784 32.4473 48.7143 32.4704 48.351C32.4935 47.9877 32.5936 47.6334 32.7641 47.3118ZM28.372 72.3666C28.2223 71.6174 28.1321 70.8575 28.1023 70.0941C27.9844 68.8452 27.9219 67.5901 27.9055 66.3352C27.8433 65.0236 27.8519 63.7097 27.9312 62.399C27.9575 61.8435 28.0619 61.2945 28.2413 60.7681C28.3434 60.5007 28.4909 60.2529 28.6774 60.0358C28.7637 59.9372 29.2256 59.6541 29.2434 59.5534C29.1204 60.2668 29.0441 60.7074 29.0441 60.7074C29.0092 60.9104 29.0171 61.1184 29.0672 61.3181C29.1173 61.5179 29.2087 61.7049 29.3353 61.8674C29.4619 62.0298 29.6211 62.164 29.8026 62.2613C29.984 62.3586 30.1839 62.417 30.3892 62.4327C30.7837 62.4705 31.1781 62.3602 31.4956 62.1231C31.8132 61.8861 32.0311 61.5393 32.107 61.1504C32.107 61.1504 32.1767 60.7466 32.2902 60.0922C32.5104 60.3356 32.6733 60.6251 32.7671 60.9396C32.8609 61.2542 32.8832 61.5857 32.8324 61.9099C32.8177 61.9775 32.8096 62.0463 32.8082 62.1154C32.738 63.8607 32.5678 65.6046 32.6289 67.3524C32.6784 68.7514 32.9095 70.1409 33.0876 71.5271C33.1553 71.8482 33.1504 72.1803 33.0734 72.4993C32.9964 72.8183 32.8492 73.1161 32.6425 73.371C32.4239 72.4136 32.2818 71.7923 32.2818 71.7923C32.2095 71.403 31.9883 71.0573 31.6652 70.8285C31.342 70.5997 30.9424 70.5059 30.5513 70.5669C30.3469 70.5945 30.1502 70.6628 29.9728 70.7678C29.7954 70.8728 29.6408 71.0124 29.5183 71.1782C29.3958 71.344 29.3078 71.5327 29.2595 71.7332C29.2113 71.9336 29.2038 72.1417 29.2374 72.3451C29.2374 72.3451 29.3912 73.022 29.6283 74.0669C29.585 73.8748 28.8025 73.3575 28.6498 73.0826C28.528 72.8563 28.4347 72.6158 28.372 72.3666ZM41.1506 94.3632C41.1506 94.3632 40.8798 94.1459 40.4738 93.8206C37.7402 91.632 35.8896 88.8613 33.8232 86.095C33.6336 85.8205 33.5058 85.5081 33.4484 85.1795C33.391 84.8508 33.4054 84.5136 33.4907 84.1911C33.5064 84.1278 33.5351 84.0705 33.5554 84.0096C33.9107 84.6414 34.1293 85.0317 34.1293 85.0317C34.2417 85.2046 34.3875 85.3533 34.558 85.4692C34.7286 85.5851 34.9206 85.6659 35.1227 85.7068C35.3249 85.7476 35.5331 85.7478 35.7353 85.7072C35.9375 85.6666 36.1296 85.5862 36.3004 85.4705C36.6323 85.2546 36.8663 84.9171 36.952 84.5305C37.0378 84.1439 36.9684 83.7391 36.7588 83.4031C36.7588 83.4031 36.5588 83.0455 36.2346 82.4662C36.2948 82.4768 36.3569 82.4792 36.4157 82.4941C36.9937 82.649 37.4981 83.0037 37.8395 83.4951C39.5977 85.8822 41.5339 88.1331 43.6314 90.2285C43.9861 90.5096 44.2229 90.6972 44.2229 90.6972C44.4771 90.909 44.6819 91.1739 44.823 91.4732C44.9641 91.7724 45.038 92.099 45.0397 92.4299C44.2717 91.817 43.7742 91.4196 43.7742 91.4196C43.461 91.18 43.0672 91.0709 42.6753 91.1152C42.2678 91.1449 41.888 91.3327 41.6169 91.6385C41.3459 91.9443 41.2051 92.3439 41.2245 92.7521C41.2422 92.9563 41.3021 93.1546 41.4004 93.3345C41.4987 93.5144 41.6332 93.6719 41.7955 93.7971C41.7955 93.7971 42.3393 94.2298 43.1772 94.898C42.8208 94.9594 42.4554 94.9434 42.1057 94.8511C41.756 94.7588 41.4303 94.5924 41.1506 94.3632Z" fill="#5A859D"/>
<path d="M69.9624 21.8256C69.9497 22.2358 70.1006 22.6343 70.3818 22.9334C70.6629 23.2325 71.0514 23.4076 71.4616 23.4202C71.8719 23.4329 72.2704 23.282 72.5695 23.0009C72.8685 22.7197 73.0437 22.3312 73.0563 21.921L73.2052 17.0336C73.2176 16.6235 73.0667 16.2253 72.7857 15.9265C72.5047 15.6277 72.1165 15.4526 71.7064 15.4399C71.2964 15.4271 70.8981 15.5777 70.599 15.8585C70.3 16.1393 70.1247 16.5274 70.1116 16.9374L69.9624 21.8256Z" fill="#B4EDFF"/>
<path d="M64.4876 22.1023C64.5726 22.2869 64.6931 22.453 64.8423 22.591C64.9915 22.729 65.1664 22.8363 65.3571 22.9067C65.5478 22.977 65.7504 23.0091 65.9535 23.0011C66.1566 22.9931 66.3561 22.9451 66.5407 22.86C66.7252 22.7748 66.8911 22.6541 67.029 22.5048C67.1669 22.3554 67.2739 22.1804 67.3441 21.9897C67.4143 21.7989 67.4462 21.5962 67.438 21.3931C67.4298 21.1901 67.3816 20.9906 67.2963 20.8061L65.4589 16.8354C65.3739 16.6508 65.2534 16.4848 65.1042 16.3467C64.955 16.2087 64.7801 16.1015 64.5894 16.0311C64.3987 15.9608 64.1961 15.9287 63.993 15.9367C63.7899 15.9447 63.5904 15.9926 63.4059 16.0778C63.2213 16.163 63.0554 16.2837 62.9175 16.433C62.7796 16.5823 62.6726 16.7574 62.6024 16.9481C62.5322 17.1388 62.5003 17.3415 62.5085 17.5446C62.5167 17.7477 62.5649 17.9472 62.6502 18.1316L64.4876 22.1023Z" fill="#5A859D"/>
<path d="M75.8245 24.1671C75.9712 24.2982 76.1411 24.4005 76.3255 24.4689C76.6157 24.5757 76.9313 24.5932 77.2316 24.5191C77.5319 24.4451 77.8032 24.2829 78.0106 24.0534L80.7978 20.9594C81.0718 20.6541 81.2135 20.2526 81.1916 19.843C81.1698 19.4333 80.9862 19.0491 80.6813 18.7748C80.3763 18.5004 79.9749 18.3583 79.5653 18.3797C79.1556 18.4011 78.7712 18.5843 78.4965 18.8889L75.7096 21.9822C75.4351 22.2872 75.293 22.6887 75.3146 23.0985C75.3361 23.5082 75.5196 23.8926 75.8245 24.1671Z" fill="#5A859D"/>
<path d="M50.8831 108.629C50.936 108.433 50.9497 108.228 50.9235 108.027C50.8972 107.825 50.8316 107.631 50.7302 107.455C50.6289 107.279 50.4939 107.124 50.3328 107C50.1718 106.876 49.9879 106.785 49.7917 106.732C49.5955 106.68 49.3908 106.666 49.1893 106.692C48.9878 106.718 48.7934 106.784 48.6173 106.885C48.2616 107.09 48.0017 107.428 47.8949 107.824L46.6231 112.545C46.5256 112.908 46.5635 113.294 46.7296 113.631C46.8956 113.968 47.1786 114.233 47.5257 114.377C47.5873 114.402 47.6505 114.424 47.715 114.441C47.9111 114.494 48.1157 114.508 48.3172 114.482C48.5186 114.456 48.713 114.39 48.8891 114.289C49.0652 114.188 49.2196 114.053 49.3435 113.892C49.4674 113.731 49.5584 113.547 49.6112 113.351L50.8831 108.629Z" fill="#B4EDFF"/>
<path d="M56.2758 109.62C56.1936 109.219 55.9555 108.866 55.6137 108.64C55.2718 108.414 54.8543 108.333 54.4526 108.414C54.0509 108.495 53.698 108.733 53.4712 109.074C53.2444 109.416 53.1624 109.833 53.2431 110.235L54.1159 114.521C54.1975 114.923 54.4354 115.276 54.7774 115.503C55.1194 115.73 55.5375 115.811 55.9397 115.73C56.3418 115.648 56.6951 115.41 56.9219 115.068C57.1486 114.726 57.2302 114.308 57.1487 113.906L56.2758 109.62Z" fill="#5A859D"/>
<path d="M45.7176 105.003C45.4839 104.666 45.126 104.435 44.7225 104.361C44.319 104.287 43.9027 104.377 43.5649 104.609L40.1395 106.977C39.9725 107.093 39.8298 107.24 39.7198 107.411C39.6097 107.582 39.5343 107.773 39.498 107.973C39.4616 108.172 39.465 108.378 39.5079 108.576C39.5508 108.775 39.6324 108.963 39.748 109.13C39.8637 109.297 40.0111 109.44 40.1818 109.55C40.3526 109.66 40.5434 109.735 40.7433 109.772C40.9431 109.808 41.1482 109.805 41.3468 109.762C41.5454 109.719 41.7336 109.637 41.9006 109.521L45.326 107.153C45.4931 107.038 45.6358 106.891 45.7459 106.72C45.856 106.55 45.9314 106.359 45.9678 106.159C46.0042 105.959 46.0008 105.754 45.9579 105.556C45.9149 105.358 45.8333 105.169 45.7176 105.003Z" fill="#5A859D"/>
<path d="M1.54762 117.102C2.40235 117.102 3.09524 116.409 3.09524 115.554C3.09524 114.7 2.40235 114.007 1.54762 114.007C0.692893 114.007 0 114.7 0 115.554C0 116.409 0.692893 117.102 1.54762 117.102Z" fill="#5A859D"/>
<path d="M8.51187 114.007H6.19044C5.77999 114.007 5.38634 114.17 5.09611 114.46C4.80587 114.75 4.64282 115.144 4.64282 115.554C4.64282 115.965 4.80587 116.359 5.09611 116.649C5.38634 116.939 5.77999 117.102 6.19044 117.102H8.51187C8.92232 117.102 9.31597 116.939 9.6062 116.649C9.89644 116.359 10.0595 115.965 10.0595 115.554C10.0595 115.144 9.89644 114.75 9.6062 114.46C9.31597 114.17 8.92232 114.007 8.51187 114.007Z" fill="#5A859D"/>
<path d="M123.809 114.007H121.488C121.078 114.007 120.684 114.17 120.394 114.46C120.103 114.75 119.94 115.144 119.94 115.554C119.94 115.965 120.103 116.359 120.394 116.649C120.684 116.939 121.078 117.102 121.488 117.102H123.809C124.22 117.102 124.614 116.939 124.904 116.649C125.194 116.359 125.357 115.965 125.357 115.554C125.357 115.144 125.194 114.75 124.904 114.46C124.614 114.17 124.22 114.007 123.809 114.007Z" fill="#5A859D"/>
<path d="M128.452 117.102C129.307 117.102 130 116.409 130 115.554C130 114.7 129.307 114.007 128.452 114.007C127.598 114.007 126.905 114.7 126.905 115.554C126.905 116.409 127.598 117.102 128.452 117.102Z" fill="#5A859D"/>
<path d="M116.63 114.007H114.515C114.526 113.853 114.514 113.698 114.479 113.548L113.133 108.08C113.035 107.682 112.782 107.339 112.431 107.127C112.081 106.916 111.66 106.851 111.262 106.949C110.864 107.047 110.521 107.299 110.308 107.649C110.096 107.999 110.03 108.42 110.127 108.818L110.149 108.906L104.785 103.546C104.641 103.403 104.471 103.289 104.283 103.211C104.096 103.133 103.894 103.093 103.691 103.093C103.488 103.093 103.287 103.133 103.099 103.21C102.912 103.288 102.741 103.402 102.597 103.545C102.454 103.689 102.34 103.859 102.262 104.047C102.184 104.234 102.144 104.436 102.144 104.639C102.144 104.842 102.184 105.043 102.261 105.231C102.339 105.418 102.453 105.589 102.596 105.733L107.961 111.093L107.873 111.071C107.492 110.976 107.09 111.03 106.747 111.221C106.404 111.413 106.148 111.728 106.029 112.102C105.91 112.476 105.939 112.881 106.109 113.235C106.278 113.589 106.577 113.865 106.943 114.007H23.0572C23.4233 113.865 23.7216 113.589 23.8913 113.235C24.0611 112.881 24.0896 112.476 23.971 112.102C23.8524 111.728 23.5957 111.413 23.253 111.221C22.9104 111.03 22.5077 110.976 22.1269 111.071L22.0392 111.093L27.4038 105.733C27.5473 105.589 27.6612 105.418 27.7388 105.231C27.8164 105.043 27.8563 104.842 27.8562 104.639C27.8561 104.436 27.816 104.234 27.7382 104.047C27.6603 103.859 27.5463 103.689 27.4026 103.545C27.2589 103.402 27.0883 103.288 26.9006 103.21C26.7129 103.133 26.5118 103.093 26.3087 103.093C26.1056 103.093 25.9045 103.133 25.7169 103.211C25.5293 103.289 25.3588 103.403 25.2153 103.546L19.8508 108.906L19.8726 108.818C19.9695 108.42 19.9045 107.999 19.6917 107.649C19.479 107.299 19.136 107.047 18.738 106.949C18.3399 106.851 17.9193 106.916 17.5685 107.127C17.2177 107.339 16.9653 107.682 16.8666 108.08L15.5208 113.548C15.4859 113.698 15.474 113.853 15.4854 114.007H13.3704C13.1502 113.978 12.9265 113.996 12.714 114.061C12.5016 114.125 12.3054 114.235 12.1385 114.381C11.9717 114.528 11.838 114.708 11.7464 114.91C11.6548 115.113 11.6074 115.332 11.6074 115.554C11.6074 115.776 11.6548 115.996 11.7464 116.198C11.838 116.4 11.9717 116.581 12.1385 116.727C12.3054 116.874 12.5016 116.983 12.714 117.047C12.9265 117.112 13.1502 117.131 13.3704 117.102H116.63C116.85 117.131 117.074 117.112 117.286 117.047C117.498 116.983 117.695 116.874 117.861 116.727C118.028 116.581 118.162 116.4 118.254 116.198C118.345 115.996 118.393 115.776 118.393 115.554C118.393 115.332 118.345 115.113 118.254 114.91C118.162 114.708 118.028 114.528 117.861 114.381C117.695 114.235 117.498 114.125 117.286 114.061C117.074 113.996 116.85 113.978 116.63 114.007Z" fill="#5A859D"/>
</svg>
