<svg width="159" height="176" viewBox="0 0 159 176" fill="none" xmlns="http://www.w3.org/2000/svg">
<g filter="url(#filter0_d_174_2943)">
<path d="M91.6212 80.9831L37.1196 75.8037C37.1196 75.8037 41.9261 104.601 44.2037 122.43C47.7416 150.121 88.5745 155.194 90.7421 138.268C91.6079 129.33 89.933 106.965 91.6212 80.9831Z" fill="#B2C6CC"/>
<mask id="mask0_174_2943" style="mask-type:luminance" maskUnits="userSpaceOnUse" x="40" y="96" width="51" height="52">
<path d="M75.5251 148C62.7871 148 46.388 139.524 44.2037 122.43C43.2264 114.773 41.7813 105.094 40.451 96.5397C41.1536 97.7201 41.8579 98.8689 42.5654 99.986C43.616 106.787 44.7132 114.209 45.4757 120.183C46.2299 126.088 48.9819 130.783 52.7063 134.278C52.0703 130.557 51.3127 121.193 50.6484 111.359C69.9444 135.466 88.3097 138.3 90.519 138.3C90.6639 138.3 90.7388 138.287 90.7421 138.268C89.9114 144.745 83.4233 148.001 75.5251 148Z" fill="white"/>
</mask>
<g mask="url(#mask0_174_2943)">
<path d="M75.5251 148C62.7871 148 46.388 139.524 44.2037 122.43C43.2264 114.773 41.7813 105.094 40.451 96.5397C41.1536 97.7201 41.8579 98.8689 42.5654 99.986C43.616 106.787 44.7132 114.209 45.4757 120.183C46.2299 126.088 48.9819 130.783 52.7063 134.278C52.0703 130.557 51.3127 121.193 50.6484 111.359C69.9444 135.466 88.3097 138.3 90.519 138.3C90.6639 138.3 90.7388 138.287 90.7421 138.268C89.9114 144.745 83.4233 148.001 75.5251 148Z" fill="url(#paint0_linear_174_2943)"/>
</g>
<path d="M49.0353 81.4409L39.4506 80.5302C39.4506 80.5302 43.5395 105.021 45.4758 120.183C46.23 126.088 48.982 130.783 52.7064 134.278C51.1697 125.277 48.9104 83.2556 49.0353 81.4409Z" fill="#D1E1E6"/>
<path d="M90.7421 138.268C91.6079 129.33 89.933 106.965 91.6212 80.983L37.1196 75.8036C37.1196 75.8036 38.683 85.1769 40.4511 96.538C64.2222 136.482 90.6955 138.63 90.7421 138.268Z" fill="#869EA6"/>
<path d="M90.8786 23.6177C107.288 30.8782 108.147 46.5281 103.157 53.3907L103.14 53.394C103.455 51.0049 102.588 48.0598 100.458 44.109C98.0592 39.7837 96.5125 40.4396 95.0174 41.0972C94.1367 41.4835 93.2743 41.8698 92.2637 41.2371C88.5927 38.9412 87.329 34.1314 83.1269 32.1535C80.7944 31.0647 78.1555 31.2745 75.4701 31.4842C72.5316 31.714 69.5397 31.9437 66.831 30.472C61.3652 27.4885 64.5002 21.3351 55.7812 22.8818C54.6058 22.5671 53.2739 22.364 51.8521 22.2891C54.6857 17.719 61.833 15.811 68.1612 17.3777C71.6508 18.2518 73.6603 17.9737 75.6282 17.694C77.5878 17.4176 79.5074 17.1396 82.8138 18.002C88.278 19.4105 88.0632 22.379 90.8786 23.6177Z" fill="#B2C6CC"/>
<path d="M51.8522 22.2893C53.274 22.3642 54.6059 22.5674 55.7813 22.882C64.5003 21.3354 61.3653 27.4887 66.8311 30.4722C69.5399 31.944 72.5317 31.7142 75.4702 31.4845C78.1557 31.2747 80.7945 31.0649 83.127 32.1537C87.3292 34.1316 88.5928 38.9415 92.2639 41.2373C93.2744 41.87 94.1369 41.4837 95.0176 41.0974C96.5126 40.4398 98.0593 39.7839 100.458 44.1093C102.588 48.06 103.455 51.0052 103.141 53.3943C102.659 57.057 99.4212 59.4661 93.5508 62.358C86.1371 66.0041 83.7597 69.8999 76.887 70.719C72.1887 71.2634 68.2346 69.6652 63.7012 69.1474C57.8824 68.4665 55.4817 69.5187 50.1324 67.5225C45.6172 65.8359 42.5239 61.4923 38.971 57.8961C35.4365 54.2983 32.3914 54.7745 31.4424 45.7958C29.4779 26.9526 42.5255 21.7749 51.8522 22.2893Z" fill="#D1E1E6"/>
<path d="M69.395 50.0281C69.0171 50.0281 68.6741 49.7684 68.5842 49.3821C67.9898 46.8049 66.886 45.5596 65.7173 44.241C64.2106 42.5395 62.6506 40.7797 62.4025 36.411C62.276 34.2117 62.9236 31.8642 63.4414 29.9779C63.6145 29.3569 63.7727 28.7825 63.8826 28.2831C63.9791 27.8352 64.422 27.5522 64.8732 27.6488C65.3227 27.747 65.6074 28.1915 65.5075 28.6393C65.3926 29.1637 65.2278 29.7665 65.048 30.4208C64.5602 32.1889 63.9542 34.3882 64.0641 36.3161C64.2805 40.1071 65.5242 41.5122 66.9643 43.1371C68.1597 44.4873 69.5165 46.0191 70.2075 49.0075C70.3107 49.4554 70.031 49.9032 69.5831 50.0065L69.395 50.0281Z" fill="#A5BFC7"/>
<path d="M75.8515 55.8418C75.4053 55.8418 75.034 55.4872 75.019 55.036C74.8808 50.7007 77.2733 48.836 79.3827 47.1895C81.2041 45.7693 82.9222 44.4291 83.2102 41.5471C83.2552 41.0893 83.6564 40.7697 84.1209 40.8013C84.5771 40.8462 84.9117 41.2541 84.8651 41.7119C84.5088 45.3031 82.3312 47.0029 80.4082 48.503C78.3488 50.1079 76.5724 51.4931 76.6839 54.9827C76.6989 55.4422 76.3376 55.8268 75.8781 55.8401L75.8515 55.8418Z" fill="#A5BFC7"/>
<path d="M95.119 55.5952C93.594 55.5952 92.2005 55.0308 90.8336 54.4781C88.8474 53.6756 86.9677 52.9164 84.5603 53.7339C84.1224 53.8821 83.6529 53.6506 83.5031 53.2144C83.3549 52.7799 83.588 52.3071 84.0225 52.1589C87.0243 51.1383 89.3785 52.094 91.4579 52.9347C93.6422 53.8205 95.3654 54.5147 97.5996 53.1978C97.9926 52.9647 98.5054 53.0946 98.7384 53.4925C98.9732 53.8887 98.8417 54.3982 98.4438 54.6329C97.255 55.3338 96.1562 55.5952 95.119 55.5952Z" fill="#A5BFC7"/>
<path d="M60.861 50.5339C60.4348 50.5339 60.0735 50.2093 60.0335 49.7764C59.7572 46.7147 60.7111 44.0542 61.5519 41.7084C61.9997 40.4614 62.421 39.286 62.6491 38.1223C62.7373 37.6711 63.1685 37.378 63.6263 37.4662C64.0775 37.5545 64.3722 37.9907 64.2823 38.4419C64.0309 39.7289 63.5881 40.9625 63.1202 42.2694C62.2994 44.562 61.4503 46.9311 61.6917 49.6266C61.7334 50.0844 61.3971 50.489 60.9375 50.5306L60.861 50.5339Z" fill="#A5BFC7"/>
<path d="M66.5397 66.054C64.0191 66.054 61.6799 65.4163 59.797 63.3801C59.484 63.0422 59.5056 62.5144 59.8419 62.2031C60.1816 61.8901 60.7077 61.9117 61.019 62.2497C63.8759 65.3364 68.2613 64.444 72.8996 63.5C76.281 62.8124 79.7756 62.0999 82.8023 62.9906C83.2435 63.1205 83.4949 63.5833 83.365 64.0245C83.2368 64.4657 82.7773 64.7187 82.3312 64.5872C79.704 63.813 76.4125 64.484 73.2309 65.1316C70.98 65.5894 68.6924 66.054 66.5397 66.054Z" fill="#A5BFC7"/>
<path d="M55.9077 41.8767C55.5997 41.8767 55.3033 41.7036 55.1602 41.4089C53.3787 37.7661 54.1429 34.2033 54.8821 30.757C55.4665 28.0232 56.0192 25.4427 55.2001 23.0835C55.0503 22.649 55.28 22.1745 55.7146 22.0246C56.1474 21.8715 56.6202 22.1029 56.7734 22.5358C57.7457 25.3361 57.1164 28.2679 56.5087 31.1049C55.7978 34.4197 55.1285 37.5513 56.6552 40.678C56.8567 41.0909 56.6868 41.5903 56.2723 41.7918L55.9077 41.8767Z" fill="#A5BFC7"/>
<path d="M79.9304 48.6477L79.5824 48.5711C79.1629 48.378 78.9831 47.8818 79.1745 47.4656C80.8927 43.7629 79.396 39.1329 79.0796 38.2422C78.9248 37.8093 79.1512 37.3331 79.5824 37.1783C80.017 37.0285 80.4931 37.25 80.6463 37.6828C81.0026 38.6817 82.6758 43.8761 80.6879 48.1665C80.5464 48.4695 80.2451 48.6477 79.9304 48.6477Z" fill="#A5BFC7"/>
<path d="M49.4415 38.0608C49.1917 38.0608 48.9437 37.9493 48.7788 37.7345C48.5008 37.3699 48.5707 36.8471 48.9353 36.5691C51.5558 34.5612 53.7918 31.9257 55.2269 29.1486C55.4384 28.7391 55.9428 28.5843 56.3474 28.7924C56.7569 29.0022 56.9168 29.505 56.7053 29.9129C55.1603 32.9047 52.7596 35.7366 49.9476 37.8893C49.7961 38.0058 49.6179 38.0608 49.4415 38.0608Z" fill="#A5BFC7"/>
<path d="M68.7691 57.7263L68.6109 57.7113C67.1442 57.4266 65.7573 57.0537 64.4154 56.6924C60.4696 55.6286 56.737 54.6247 51.684 56.1147C51.2378 56.2496 50.78 55.9932 50.6502 55.552C50.5186 55.1108 50.7717 54.6479 51.2112 54.5181C56.7203 52.8965 60.8542 54.0087 64.8499 55.0842C66.1619 55.4388 67.5187 55.8034 68.9256 56.0764C69.3784 56.1647 69.6714 56.6009 69.5865 57.052C69.5083 57.4499 69.1603 57.7263 68.7691 57.7263Z" fill="#A5BFC7"/>
<path d="M74.8608 44.1675L74.7842 44.1659C74.3247 44.1226 73.9884 43.7163 74.0317 43.2585C74.3996 39.2561 72.7697 35.1988 69.5581 32.1255C69.2268 31.8075 69.2152 31.2813 69.5315 30.9483C69.8512 30.617 70.3756 30.6021 70.7086 30.9218C74.2897 34.3481 76.1045 38.9015 75.6899 43.4116C75.6483 43.8445 75.2854 44.1675 74.8608 44.1675Z" fill="#A5BFC7"/>
<path d="M38.2717 36.7969C37.8538 36.7969 37.4942 36.4839 37.4459 36.0577C36.8449 30.7034 41.7646 23.4396 47.1938 21.6648C47.6317 21.5167 48.0995 21.758 48.2443 22.1975C48.3875 22.6337 48.1495 23.1033 47.7116 23.2465C42.5921 24.9213 38.6313 31.7024 39.1008 35.8713C39.1508 36.3291 38.8228 36.7403 38.3666 36.7919L38.2717 36.7969Z" fill="#A5BFC7"/>
<path d="M44.1388 30.7554C43.8192 30.7554 43.5111 30.5672 43.3746 30.2542C43.1832 29.8113 42.9417 29.4185 42.7037 29.0322C42.2009 28.2131 41.6331 27.284 41.5349 25.9854C41.4999 25.5276 41.8446 25.1297 42.3041 25.0948C42.7619 25.0598 43.1598 25.4044 43.1965 25.8623C43.2631 26.758 43.661 27.4089 44.1238 28.1615C44.3935 28.6027 44.6715 29.0572 44.903 29.5916C45.0861 30.0111 44.893 30.5022 44.4718 30.6854L44.1388 30.7554Z" fill="#A5BFC7"/>
<path d="M51.4459 60.7397C45.1593 60.7397 41.3567 53.5158 40.754 48.4762L40.6924 47.9135C40.5026 46.0255 40.2462 45.1049 39.3089 44.9767C38.8544 44.9134 38.5331 44.4938 38.5963 44.0376C38.6579 43.5831 39.0825 43.2651 39.5336 43.3267C41.9344 43.6547 42.1941 46.2153 42.349 47.7453L42.4056 48.2764C42.9516 52.8199 46.2681 59.3396 51.8388 59.0649C52.2933 59.0532 52.6912 59.3878 52.7195 59.8457C52.7461 60.3052 52.3948 60.6981 51.937 60.7264C51.7705 60.7364 51.6074 60.7397 51.4459 60.7397Z" fill="#A5BFC7"/>
<path d="M46.4614 51.7163C44.2204 51.7163 42.1926 50.4028 40.904 48.9726C40.5943 48.6313 40.6226 48.1052 40.9639 47.7972C41.3052 47.4892 41.833 47.5158 42.1393 47.8571C43.3347 49.184 45.4774 50.5076 47.5952 49.8883C48.0314 49.7567 48.4992 50.0098 48.6291 50.4494C48.7589 50.8906 48.5058 51.3534 48.0663 51.4832C47.5235 51.6447 46.9858 51.7163 46.4614 51.7163Z" fill="#A5BFC7"/>
<path d="M67.7784 27.8066C65.8355 27.8066 63.9408 27.3222 62.2293 25.9271C61.8714 25.6374 61.8181 25.1113 62.1078 24.755C62.3991 24.3987 62.9252 24.347 63.2782 24.6351C66.3998 27.1773 70.4638 25.9769 74.3946 24.8165C76.6122 24.1622 78.7083 23.5446 80.6795 23.5379H80.6829C81.1407 23.5379 81.5136 23.9075 81.5153 24.3671C81.517 24.8266 81.144 25.2012 80.6862 25.2028C78.9514 25.2078 76.9668 25.7939 74.8657 26.4132C72.5915 27.0858 70.1475 27.8066 67.7784 27.8066Z" fill="#D1E1E6"/>
<path d="M93.7122 33.6074L93.311 33.5042C89.7847 31.5596 85.3512 31.9009 81.0591 32.2322L80.6545 32.2622C80.2267 32.2805 79.7955 31.9558 79.7605 31.4963C79.7255 31.0385 80.0685 30.6389 80.528 30.6023L80.9326 30.5723C85.4644 30.2211 90.1544 29.8615 94.1134 32.0458C94.5163 32.2689 94.6628 32.775 94.4398 33.1779C94.2882 33.4526 94.0052 33.6074 93.7122 33.6074Z" fill="#D1E1E6"/>
<path d="M90.5158 32.4236C90.2311 32.4236 89.9531 32.2755 89.7966 32.0124C89.5652 31.6162 89.6984 31.1051 90.0946 30.8737C91.1985 30.2243 92.2556 29.2387 92.9899 28.1698C93.2529 27.7886 93.774 27.6954 94.1469 27.9568C94.5265 28.2165 94.6231 28.7359 94.3617 29.1138C93.4793 30.3941 92.264 31.5296 90.937 32.3087L90.5158 32.4236Z" fill="#D1E1E6"/>
<path d="M75.3952 26.2285L74.969 26.1103C74.5744 25.8756 74.4429 25.3645 74.6793 24.9682C75.2221 24.0575 75.7149 23.1218 76.1461 22.1878C76.3375 21.7683 76.837 21.5885 77.2499 21.78C77.6678 21.9715 77.8492 22.4659 77.6578 22.8838C77.2049 23.8711 76.6822 24.86 76.1095 25.8207C75.9546 26.0837 75.6783 26.2285 75.3952 26.2285Z" fill="#D1E1E6"/>
<path d="M72.0388 23.0635C71.6526 23.0635 71.3063 22.7921 71.2247 22.3975C70.9001 20.8009 69.2136 19.0494 66.931 17.9373C66.5164 17.7358 66.345 17.2364 66.5464 16.8235C66.7495 16.4089 67.2507 16.2391 67.6586 16.4405C69.8329 17.5011 72.3402 19.5339 72.8563 22.0645C72.9479 22.5157 72.6565 22.9552 72.207 23.0468L72.0388 23.0635Z" fill="#D1E1E6"/>
<path d="M82.9689 28.1348C82.5127 28.1348 82.1431 27.7685 82.1364 27.3123C82.1298 26.8528 82.496 26.4765 82.9572 26.4699C87.0362 26.4116 90.6873 26.2385 94.0487 24.6935C94.4599 24.5037 94.961 24.6834 95.1525 25.1013C95.3439 25.5192 95.1625 26.0137 94.7446 26.2052C91.0885 27.8884 87.2526 28.0732 82.9805 28.1348H82.9689Z" fill="#D1E1E6"/>
<path d="M101.689 40.9392C101.349 40.9392 101.028 40.7294 100.906 40.3915C100.081 38.1189 98.4606 36.2392 96.5759 35.3619C96.1597 35.1687 95.9799 34.6726 96.173 34.2564C96.3678 33.8385 96.864 33.662 97.2785 33.8518C99.5894 34.9273 101.482 37.1033 102.471 39.8237C102.628 40.2549 102.405 40.7327 101.973 40.8892L101.689 40.9392Z" fill="#D1E1E6"/>
<path d="M96.7059 39.7889C98.3008 39.7889 99.6827 40.9959 101.186 43.7063C102.598 46.3252 103.47 48.5328 103.837 50.4441C105.157 47.2159 105.38 43.0937 104.341 39.2395C102.616 32.8314 97.7164 27.5537 90.5408 24.3787C89.2672 23.8193 88.5279 22.9486 87.8104 22.1062C86.7615 20.8742 85.6777 19.5989 82.6059 18.808C79.9188 18.1071 77.8378 18.2237 75.7683 18.5167C73.6273 18.818 71.045 18.9579 67.9583 18.1837C66.5815 17.8441 65.1464 17.6709 63.6946 17.6709C59.3925 17.6709 55.5983 19.1444 53.4156 21.5884C54.2564 21.69 55.0605 21.8381 55.8164 22.0312C56.7204 21.8781 57.5129 21.8048 58.2321 21.8048C61.9248 21.8048 62.9154 23.8193 63.8727 25.7689C64.5803 27.2074 65.3095 28.6941 67.2308 29.7413C68.6043 30.4872 70.1443 30.8218 72.2271 30.8218C73.2776 30.8218 74.3715 30.7352 75.427 30.6537C76.4925 30.5687 77.5963 30.4838 78.6685 30.4838C80.6131 30.4838 82.1414 30.7752 83.48 31.3995C85.9457 32.5599 87.4375 34.5678 88.8826 36.509C90.0513 38.079 91.1535 39.5608 92.7051 40.5314C93.3211 40.9177 93.9238 40.6679 94.6647 40.3416C95.2557 40.0819 95.9284 39.7889 96.7059 39.7889ZM103.154 54.2234C102.944 54.2234 102.736 54.1452 102.58 54.0003C102.383 53.8172 102.28 53.5508 102.315 53.2861C102.603 51.1068 101.779 48.3164 99.7243 44.5038C98.0311 41.4537 97.0338 41.4538 96.7059 41.4538C96.278 41.4538 95.8185 41.6535 95.334 41.8666C94.3384 42.3045 92.9832 42.6691 91.8211 41.9432C90.0047 40.8061 88.7544 39.1279 87.5473 37.503C86.1655 35.6433 84.8569 33.8885 82.7724 32.9079C81.6636 32.3901 80.36 32.1487 78.6685 32.1487C77.6596 32.1487 76.639 32.2287 75.5552 32.3136C74.468 32.3985 73.3426 32.4867 72.2271 32.4867C69.8829 32.4867 68.0449 32.0788 66.435 31.2047C64.0475 29.9011 63.1235 28.0182 62.3776 26.5032C61.4803 24.6768 60.8876 23.4697 58.2321 23.4697C57.5728 23.4697 56.797 23.548 55.9246 23.7011L55.565 23.6861C54.4278 23.3814 53.1642 23.1917 51.809 23.1218C51.516 23.1051 51.2513 22.9353 51.1147 22.6756C50.9782 22.4142 50.9899 22.1012 51.1447 21.8498C53.3806 18.2453 58.1905 16.006 63.6946 16.006C65.2812 16.006 66.8512 16.1958 68.3613 16.5687C69.8846 16.9517 71.2482 17.1365 72.5268 17.1365C73.6356 17.1365 74.5596 17.0066 75.5369 16.8668C77.6429 16.5704 80.0853 16.4306 83.0238 17.1964C86.6033 18.1187 87.9752 19.7321 89.079 21.0273C89.755 21.8215 90.2877 22.4491 91.2134 22.857C98.8602 26.24 104.091 31.904 105.949 38.8066C107.421 44.2807 106.61 50.0578 103.83 53.8804C103.707 54.0502 103.524 54.1668 103.319 54.2084L103.154 54.2234Z" fill="#B2C6CC"/>
<path d="M50.6035 23.0885C44.9345 23.0885 39.805 25.1713 36.5302 28.8041C32.9491 32.7798 31.5156 38.467 32.2698 45.7093C32.9424 52.0708 34.614 53.3311 36.9248 55.0759C37.7256 55.6802 38.633 56.3645 39.5637 57.3118C40.3845 58.1409 41.1803 59.0117 41.9761 59.8807C44.6249 62.7776 47.1289 65.513 50.4237 66.7417C53.7135 67.9704 55.8112 67.997 58.4684 68.0303C59.9651 68.0503 61.6649 68.0703 63.7976 68.32C65.3893 68.5015 66.911 68.8145 68.3844 69.1158C70.597 69.5687 72.6865 69.9982 74.9257 69.9982C75.5567 69.9982 76.1844 69.9616 76.7921 69.8933C80.891 69.4039 83.3134 67.7656 86.3801 65.6912C88.2465 64.4292 90.3592 63.0007 93.1828 61.6106C99.4478 58.5255 101.922 56.268 102.315 53.2861C102.603 51.1068 101.779 48.3164 99.7241 44.5039C98.031 41.4538 97.0337 41.4538 96.7057 41.4538C96.2779 41.4538 95.8183 41.6536 95.3339 41.8667C94.3383 42.3046 92.983 42.6692 91.8209 41.9433C90.0046 40.8062 88.7542 39.128 87.5472 37.5031C86.1654 35.6434 84.8567 33.8886 82.7723 32.908C81.6635 32.3902 80.3599 32.1488 78.6684 32.1488C77.6611 32.1488 76.6389 32.2287 75.5567 32.3136C74.4679 32.3986 73.3424 32.4868 72.227 32.4868C69.8828 32.4868 68.0431 32.0789 66.4348 31.2048C64.0474 29.9012 63.1234 28.0183 62.3775 26.5032C61.4801 24.6769 60.8891 23.4698 58.232 23.4698C57.5727 23.4698 56.7968 23.548 55.9244 23.7012L55.5648 23.6862C54.4294 23.3815 53.1641 23.1918 51.8088 23.1218C51.4109 23.0985 51.0097 23.0885 50.6035 23.0885ZM74.9257 71.6631C72.5167 71.6631 70.2457 71.1969 68.0514 70.7474C66.613 70.4527 65.1262 70.1481 63.6079 69.9732C61.5567 69.7335 59.9035 69.7135 58.4467 69.6952C55.7396 69.6619 53.4038 69.6319 49.841 68.3017C46.1716 66.9332 43.4145 63.9181 40.7457 61.0045C39.9649 60.1504 39.1841 59.2964 38.3783 58.4806C37.5325 57.6182 36.7134 57.0022 35.9226 56.4045C33.4752 54.5581 31.3625 52.9648 30.6149 45.8824C29.8091 38.1507 31.3824 32.0306 35.2932 27.6903C38.8827 23.7079 44.4634 21.4236 50.6035 21.4236C51.043 21.4236 51.4742 21.4353 51.8987 21.4586C53.2972 21.5318 54.6142 21.7233 55.8162 22.0313C56.7202 21.8781 57.5127 21.8049 58.232 21.8049C61.9263 21.8049 62.9169 23.8194 63.8742 25.7706C64.5801 27.2074 65.3094 28.6942 67.2307 29.7414C68.6042 30.4872 70.1442 30.8219 72.227 30.8219C73.2775 30.8219 74.3713 30.7353 75.4269 30.6537C76.4941 30.5688 77.5962 30.4839 78.6684 30.4839C80.613 30.4839 82.1413 30.7753 83.4799 31.3996C85.9456 32.56 87.4373 34.5678 88.8825 36.5091C90.0512 38.0791 91.1533 39.5608 92.705 40.5315C93.321 40.9177 93.9237 40.668 94.6646 40.3417C95.2573 40.0819 95.9282 39.7889 96.7057 39.7889C98.3007 39.7889 99.6825 40.9959 101.186 43.7064C103.42 47.8503 104.301 50.9603 103.966 53.5042C103.422 57.6448 99.7175 60.2487 93.9187 63.1056C91.1966 64.4442 89.1338 65.8394 87.3141 67.0697C84.1875 69.1841 81.4887 71.0088 76.9868 71.5466C76.3142 71.6231 75.6217 71.6631 74.9257 71.6631Z" fill="#D1E1E6"/>
<path d="M136.277 97.1173C136.079 98.0663 135.895 98.9986 135.696 99.8827C129.883 126.669 123.99 142.92 99.268 135.376C74.5262 127.853 60.3597 111.037 60.3597 111.037C56.031 106.426 53.0992 98.9836 51.8022 90.2097C92.7916 112.885 127.603 100.815 136.277 97.1173Z" fill="#D1E1E6"/>
<path d="M128.045 100.006C127.326 111.64 123.66 122.803 118.656 133.495C118.281 134.299 117.873 135.092 117.482 135.887C127.659 131.75 131.697 118.31 135.696 99.8827C135.895 98.9987 136.079 98.0664 136.277 97.1174C134.537 97.8599 131.73 98.9387 128.045 100.006Z" fill="#B2C6CC"/>
<mask id="mask1_174_2943" style="mask-type:luminance" maskUnits="userSpaceOnUse" x="54" y="95" width="82" height="43">
<path d="M110.12 137.228C106.965 137.228 103.379 136.631 99.268 135.376C96.3627 134.494 93.6024 133.482 90.9952 132.384C76.1894 126.153 66.27 117.154 62.3043 113.125C59.5206 110.158 56.6337 104.606 54.6675 98.5806C55.1486 98.6489 55.6314 98.6822 56.1109 98.6822C57.1981 98.6822 58.2769 98.5057 59.3225 98.1378C60.7743 97.625 62.0412 96.7826 63.1034 95.6854C77.4247 101.667 90.7005 103.644 101.985 103.644C112.597 103.644 121.448 101.897 127.762 100.092C125.825 113.754 121.782 126.439 116.395 135.608L117.117 136.032C115.049 136.818 112.735 137.226 110.12 137.228ZM65.0647 97.4419C63.458 98.7039 61.3453 99.9675 59.2109 100.748C60.4929 104.836 62.301 108.29 64.6068 110.748C64.6068 110.748 71.2946 118.677 83.3717 125.175C83.0004 124.823 82.6242 124.483 82.2629 124.112C75.6683 117.324 70.4006 108.39 68.6691 98.9536C67.4771 98.4858 66.2734 97.9746 65.0647 97.4419ZM118.379 135.493C118.381 135.491 118.379 135.493 118.381 135.491C127.901 130.939 131.816 117.757 135.696 99.8826C131.818 117.758 127.901 130.941 118.379 135.493Z" fill="white"/>
</mask>
<g mask="url(#mask1_174_2943)">
<path d="M110.12 137.228C106.965 137.228 103.379 136.631 99.268 135.376C96.3627 134.494 93.6024 133.482 90.9952 132.384C76.1894 126.153 66.27 117.154 62.3043 113.125C59.5206 110.158 56.6337 104.606 54.6675 98.5806C55.1486 98.6489 55.6314 98.6822 56.1109 98.6822C57.1981 98.6822 58.2769 98.5057 59.3225 98.1378C60.7743 97.625 62.0412 96.7826 63.1034 95.6854C77.4247 101.667 90.7005 103.644 101.985 103.644C112.597 103.644 121.448 101.897 127.762 100.092C125.825 113.754 121.782 126.439 116.395 135.608L117.117 136.032C115.049 136.818 112.735 137.226 110.12 137.228ZM65.0647 97.4419C63.458 98.7039 61.3453 99.9675 59.2109 100.748C60.4929 104.836 62.301 108.29 64.6068 110.748C64.6068 110.748 71.2946 118.677 83.3717 125.175C83.0004 124.823 82.6242 124.483 82.2629 124.112C75.6683 117.324 70.4006 108.39 68.6691 98.9536C67.4771 98.4858 66.2734 97.9746 65.0647 97.4419ZM118.379 135.493C118.381 135.491 118.379 135.493 118.381 135.491C127.901 130.939 131.816 117.757 135.696 99.8826C131.818 117.758 127.901 130.941 118.379 135.493Z" fill="url(#paint1_linear_174_2943)"/>
</g>
<mask id="mask2_174_2943" style="mask-type:luminance" maskUnits="userSpaceOnUse" x="118" y="97" width="19" height="39">
<path d="M118.381 135.491C123.68 126.081 127.629 113.288 129.489 99.5781C132.362 98.6907 134.6 97.8266 136.108 97.1889C136.165 97.1656 136.222 97.1407 136.277 97.1174C136.078 98.0663 135.895 98.9987 135.696 99.8827C131.816 117.757 127.901 130.939 118.381 135.491Z" fill="white"/>
</mask>
<g mask="url(#mask2_174_2943)">
<path d="M118.381 135.491C123.68 126.081 127.629 113.288 129.489 99.5781C132.362 98.6907 134.6 97.8266 136.108 97.1889C136.165 97.1656 136.222 97.1407 136.277 97.1174C136.078 98.0663 135.895 98.9987 135.696 99.8827C131.816 117.757 127.901 130.939 118.381 135.491Z" fill="url(#paint2_linear_174_2943)"/>
</g>
<path d="M82.2629 124.112C75.6683 117.324 70.4006 108.39 68.6691 98.9539C67.477 98.4861 66.2733 97.9749 65.0646 97.4422C63.458 98.7042 61.3453 99.9678 59.2109 100.749C60.4929 104.836 62.3009 108.291 64.6068 110.748C64.6068 110.748 71.2946 118.678 83.3717 125.176C83.0004 124.823 82.6242 124.483 82.2629 124.112Z" fill="white"/>
<path d="M107.258 14.7075C132.699 24.0309 139.641 44.6088 140.006 64.604C110.023 80.2206 61.1588 74.8763 51.1696 73.5777C53.0825 44.5255 70.1159 11.7441 107.258 14.7242V14.7075Z" fill="#D1E1E6"/>
<path d="M109.281 28.1131C118.148 36.6207 123.862 48.5729 126.326 60.535C126.955 63.5884 127.371 66.6301 127.561 69.6536C131.941 68.2834 136.132 66.6218 140.006 64.604C139.641 44.6088 132.699 24.0309 107.258 14.7075V14.7242C100.445 14.1781 94.3133 14.844 88.8225 16.4606C96.3461 18.9912 103.512 22.5774 109.281 28.1131Z" fill="#B2C6CC"/>
<mask id="mask3_174_2943" style="mask-type:luminance" maskUnits="userSpaceOnUse" x="52" y="14" width="88" height="62">
<path d="M82.1398 75.5105C75.5485 75.5105 69.4933 75.2325 64.4254 74.8762C61.7832 69.5902 57.4312 65.974 52.9877 65.1266C55.6831 49.0022 62.8671 34.7875 72.9646 26.0669C77.2866 22.3325 82.4244 19.5122 88.0284 17.6708C93.0497 18.5732 97.6415 20.1432 101.789 22.3692C104.464 24.0124 106.983 25.9087 109.281 28.113C118.148 36.6205 123.862 48.5727 126.326 60.5349C126.955 63.5883 127.371 66.63 127.561 69.6534C127.816 69.5735 128.07 69.4936 128.325 69.412C128.325 69.4137 128.325 69.4154 128.327 69.417C113.588 74.1752 96.5843 75.5105 82.1398 75.5105ZM129.924 68.8859C129.922 68.8843 129.922 68.8826 129.922 68.8793C133.415 67.6805 136.768 66.2821 139.914 64.6521C136.768 66.2837 133.416 67.6855 129.924 68.8859ZM107.258 14.724C107.244 14.7224 107.231 14.7207 107.216 14.7207C107.229 14.7207 107.244 14.7224 107.258 14.724Z" fill="white"/>
</mask>
<g mask="url(#mask3_174_2943)">
<path d="M82.1398 75.5105C75.5485 75.5105 69.4933 75.2325 64.4254 74.8762C61.7832 69.5902 57.4312 65.974 52.9877 65.1266C55.6831 49.0022 62.8671 34.7875 72.9646 26.0669C77.2866 22.3325 82.4244 19.5122 88.0284 17.6708C93.0497 18.5732 97.6415 20.1432 101.789 22.3692C104.464 24.0124 106.983 25.9087 109.281 28.113C118.148 36.6205 123.862 48.5727 126.326 60.5349C126.955 63.5883 127.371 66.63 127.561 69.6534C127.816 69.5735 128.07 69.4936 128.325 69.412C128.325 69.4137 128.325 69.4154 128.327 69.417C113.588 74.1752 96.5843 75.5105 82.1398 75.5105ZM129.924 68.8859C129.922 68.8843 129.922 68.8826 129.922 68.8793C133.415 67.6805 136.768 66.2821 139.914 64.6521C136.768 66.2837 133.416 67.6855 129.924 68.8859ZM107.258 14.724C107.244 14.7224 107.231 14.7207 107.216 14.7207C107.229 14.7207 107.244 14.7224 107.258 14.724Z" fill="url(#paint3_linear_174_2943)"/>
</g>
<mask id="mask4_174_2943" style="mask-type:luminance" maskUnits="userSpaceOnUse" x="91" y="14" width="50" height="56">
<path d="M127.561 69.6536C127.371 66.6301 126.955 63.5884 126.326 60.535C123.862 48.5729 118.148 36.6207 109.281 28.1131C106.983 25.9088 104.464 24.0125 101.789 22.3693C110.338 26.961 117.004 34.3448 121.694 44.449C125.169 51.9326 127.31 60.4834 128.325 69.4122C128.07 69.4937 127.816 69.5737 127.561 69.6536ZM129.922 68.8794C128.876 59.8957 126.705 51.2882 123.206 43.748C116.471 29.2469 105.794 20.1583 91.4331 16.6854C95.577 15.6448 99.924 15.1137 104.344 15.1137C105.821 15.1137 107.306 15.172 108.793 15.2919L107.216 14.7209C107.231 14.7209 107.244 14.7225 107.258 14.7242V14.7075C132.699 24.0309 139.641 44.6088 140.006 64.604C139.976 64.619 139.946 64.6356 139.914 64.6523C136.768 66.2822 133.415 67.6807 129.922 68.8794Z" fill="white"/>
</mask>
<g mask="url(#mask4_174_2943)">
<path d="M127.561 69.6536C127.371 66.6301 126.955 63.5884 126.326 60.535C123.862 48.5729 118.148 36.6207 109.281 28.1131C106.983 25.9088 104.464 24.0125 101.789 22.3693C110.338 26.961 117.004 34.3448 121.694 44.449C125.169 51.9326 127.31 60.4834 128.325 69.4122C128.07 69.4937 127.816 69.5737 127.561 69.6536ZM129.922 68.8794C128.876 59.8957 126.705 51.2882 123.206 43.748C116.471 29.2469 105.794 20.1583 91.4331 16.6854C95.577 15.6448 99.924 15.1137 104.344 15.1137C105.821 15.1137 107.306 15.172 108.793 15.2919L107.216 14.7209C107.231 14.7209 107.244 14.7225 107.258 14.7242V14.7075C132.699 24.0309 139.641 44.6088 140.006 64.604C139.976 64.619 139.946 64.6356 139.914 64.6523C136.768 66.2822 133.415 67.6807 129.922 68.8794Z" fill="url(#paint4_linear_174_2943)"/>
</g>
<path d="M57.7625 62.8143C60.3946 63.4303 66.3066 66.5186 69.395 72.3457C72.4351 70.0565 80.5913 61.9202 82.8755 59.1382C87.7653 53.1829 92.1123 46.3536 94.2517 38.8866C96.0531 32.5983 96.5159 23.7544 90.7271 19.7837C72.3918 25.9954 60.8541 44.3357 57.7625 62.8143Z" fill="white"/>
<path d="M123.206 43.7479C116.176 28.6108 104.849 19.3691 89.5201 16.2608L87.6188 17.5976C103.2 20.2748 114.666 29.3084 121.694 44.4489C134.439 71.8978 129.242 113.745 116.395 135.608L117.828 136.45C130.891 114.224 136.168 71.6696 123.206 43.7479Z" fill="#869EA6"/>
<path d="M107.542 14.899C102.539 13.0793 96.9105 11.1647 90.3925 10.0742C88.9541 9.83448 87.4823 9.58808 85.974 9.32503C49.5697 2.97684 26.4111 20.4314 19.6018 40.5465C12.9372 60.2337 19.5102 90.7011 59.9751 111.775L60.7427 110.298C21.2151 89.7122 14.7253 60.1439 21.1784 41.0793C27.7613 21.6368 50.2705 4.78491 85.6876 10.965C87.1993 11.2297 88.6744 11.4761 90.1178 11.7175C94.2401 12.4067 98.0044 13.4356 101.454 14.5511L108.09 15.0989L107.542 14.899Z" fill="#D1E1E6"/>
<path d="M140.006 64.6039C110.023 80.2205 61.1589 74.8762 51.1696 73.5776C50.7867 79.3697 51.0015 85.032 51.8023 90.2098C92.7916 112.885 127.603 100.815 136.277 97.1174C137.642 96.5346 138.358 96.17 138.358 96.17C141.523 80.9863 141.656 63.7215 141.656 63.7215C141.106 64.0212 140.557 64.3192 140.006 64.6039Z" fill="#3A565E"/>
<mask id="mask5_174_2943" style="mask-type:luminance" maskUnits="userSpaceOnUse" x="63" y="63" width="79" height="41">
<path d="M101.985 103.644C90.7006 103.644 77.4248 101.667 63.1035 95.6854C66.8895 91.7729 68.0516 84.6156 65.5675 77.5732C65.2362 76.6325 64.8533 75.7318 64.4254 74.8761C69.4933 75.2323 75.5485 75.5104 82.1398 75.5104C100.607 75.5104 123.254 73.3277 140.006 64.6038C140.557 64.3191 141.107 64.021 141.656 63.7214C141.656 63.7214 141.523 80.9862 138.358 96.1699C138.358 96.1699 137.642 96.5345 136.277 97.1172C134.77 97.7599 132.472 98.6572 129.489 99.5779C128.936 99.7494 128.362 99.9209 127.763 100.092C121.448 101.897 112.597 103.644 101.985 103.644Z" fill="white"/>
</mask>
<g mask="url(#mask5_174_2943)">
<path d="M101.985 103.644C90.7006 103.644 77.4248 101.667 63.1035 95.6854C66.8895 91.7729 68.0516 84.6156 65.5675 77.5732C65.2362 76.6325 64.8533 75.7318 64.4254 74.8761C69.4933 75.2323 75.5485 75.5104 82.1398 75.5104C100.607 75.5104 123.254 73.3277 140.006 64.6038C140.557 64.3191 141.107 64.021 141.656 63.7214C141.656 63.7214 141.523 80.9862 138.358 96.1699C138.358 96.1699 137.642 96.5345 136.277 97.1172C134.77 97.7599 132.472 98.6572 129.489 99.5779C128.936 99.7494 128.362 99.9209 127.763 100.092C121.448 101.897 112.597 103.644 101.985 103.644Z" fill="url(#paint5_linear_174_2943)"/>
</g>
<path d="M94.7029 93.2233C94.6096 88.2487 94.6346 83.269 94.7894 78.296C87.8202 78.6823 80.3666 78.7023 71.8823 78.5075C71.6476 84.0299 71.551 89.5523 71.6576 95.068C73.7237 95.6607 75.8431 96.0586 77.488 96.5065C83.2951 98.0915 89.2404 99.3101 95.2556 99.7463C94.9959 97.5454 94.7445 95.3544 94.7029 93.2233Z" fill="#547078"/>
<path d="M103.537 77.5884C101.596 77.8031 99.6226 77.9713 97.6214 78.1144C97.4383 83.6768 97.4 89.2442 97.5715 94.8049C97.6231 96.4714 97.8145 98.1763 98.021 99.8911L98.3606 99.9061C100.324 99.956 102.268 99.9177 104.198 99.8095C103.778 92.4274 103.572 85.0137 103.537 77.5884Z" fill="#547078"/>
<path d="M60.0518 112.233C55.743 107.643 52.3284 99.46 50.9798 90.3315C50.164 85.0638 49.9493 79.4065 50.3389 73.5212C51.6558 53.5309 59.7071 35.3188 71.8757 24.8084C81.5437 16.454 95.4588 13.3807 105.838 14.2214L108.793 15.2919C95.3938 14.218 82.2829 18.0157 72.9646 26.067C61.1256 36.2944 53.289 54.0737 52.0004 73.631C51.6192 79.3948 51.8289 84.9289 52.6247 90.0834C53.9267 98.8856 58.2287 108.783 62.306 113.129L60.0518 112.233Z" fill="#869EA6"/>
<path d="M47.7998 65.4813C54.4311 63.1422 62.3875 68.5547 65.5675 77.5733C68.749 86.592 65.952 95.7955 59.3225 98.1379C52.6896 100.479 44.7315 95.0646 41.5515 86.0509C38.365 77.0323 41.167 67.8188 47.7998 65.4813Z" fill="#547078"/>
<path d="M43.2248 65.4433C49.8544 63.1058 57.8142 68.5233 60.9908 77.5387C64.1774 86.5557 61.3787 95.7625 54.7458 98.1033C48.1162 100.444 40.1548 95.0299 36.9765 86.0162C33.7916 76.9976 36.5953 67.7858 43.2248 65.4433Z" fill="#869EA6"/>
<mask id="mask6_174_2943" style="mask-type:luminance" maskUnits="userSpaceOnUse" x="35" y="64" width="28" height="35">
<path d="M51.5359 98.6489C45.7255 98.6489 39.6537 93.611 36.9765 86.0158C36.0858 83.4968 35.6646 80.9629 35.6613 78.5688C35.6563 72.3871 38.4466 67.1311 43.2248 65.4429C44.2671 65.0766 45.3442 64.9001 46.4297 64.9001C52.2418 64.9001 58.3137 69.9414 60.9908 77.5382C61.8865 80.0738 62.3094 82.6261 62.306 85.0352C62.2994 91.1919 59.5124 96.4213 54.7458 98.1028C54.4029 98.2244 54.0582 98.3243 53.7103 98.4042C53.4172 98.4708 53.1209 98.5241 52.8229 98.564C52.3967 98.6206 51.9671 98.6489 51.5359 98.6489Z" fill="white"/>
</mask>
<g mask="url(#mask6_174_2943)">
<path d="M51.5359 98.6489C45.7255 98.6489 39.6537 93.611 36.9765 86.0158C36.0858 83.4968 35.6646 80.9629 35.6613 78.5688C35.6563 72.3871 38.4466 67.1311 43.2248 65.4429C44.2671 65.0766 45.3442 64.9001 46.4297 64.9001C52.2418 64.9001 58.3137 69.9414 60.9908 77.5382C61.8865 80.0738 62.3094 82.6261 62.306 85.0352C62.2994 91.1919 59.5124 96.4213 54.7458 98.1028C54.4029 98.2244 54.0582 98.3243 53.7103 98.4042C53.4172 98.4708 53.1209 98.5241 52.8229 98.564C52.3967 98.6206 51.9671 98.6489 51.5359 98.6489Z" fill="url(#paint6_linear_174_2943)"/>
</g>
<path d="M41.1337 70.4411C46.2149 68.6464 52.3167 72.7986 54.7558 79.7162C57.1965 86.6288 55.0505 93.6879 49.9676 95.4893C44.883 97.279 38.7779 93.1285 36.3389 86.2159C33.8981 79.3 36.0458 72.2375 41.1337 70.4411Z" fill="#D1E1E6"/>
<path d="M40.546 73.9392C43.2115 73.5413 45.812 76.1584 46.3531 79.7862C46.8958 83.4107 45.171 86.6738 42.5056 87.0751C39.8384 87.4713 37.2362 84.8541 36.6951 81.2297C36.1523 77.6019 37.8788 74.3388 40.546 73.9392Z" fill="white"/>
</g>
<defs>
<filter id="filter0_d_174_2943" x="0.244116" y="0.9" width="158.512" height="174.2" filterUnits="userSpaceOnUse" color-interpolation-filters="sRGB">
<feFlood flood-opacity="0" result="BackgroundImageFix"/>
<feColorMatrix in="SourceAlpha" type="matrix" values="0 0 0 0 0 0 0 0 0 0 0 0 0 0 0 0 0 0 127 0" result="hardAlpha"/>
<feOffset dy="10"/>
<feGaussianBlur stdDeviation="8.55"/>
<feComposite in2="hardAlpha" operator="out"/>
<feColorMatrix type="matrix" values="0 0 0 0 0.705882 0 0 0 0 0.929412 0 0 0 0 1 0 0 0 0.33 0"/>
<feBlend mode="normal" in2="BackgroundImageFix" result="effect1_dropShadow_174_2943"/>
<feBlend mode="normal" in="SourceGraphic" in2="effect1_dropShadow_174_2943" result="shape"/>
</filter>
<linearGradient id="paint0_linear_174_2943" x1="51.7689" y1="150.126" x2="59.6771" y2="122.239" gradientUnits="userSpaceOnUse">
<stop stop-color="#B2B6CB"/>
<stop offset="1" stop-color="#B2C6CC"/>
</linearGradient>
<linearGradient id="paint1_linear_174_2943" x1="94.0769" y1="96.0517" x2="94.6313" y2="130.736" gradientUnits="userSpaceOnUse">
<stop stop-color="#D1CFE5"/>
<stop offset="1" stop-color="#D1E1E6"/>
</linearGradient>
<linearGradient id="paint2_linear_174_2943" x1="94.0768" y1="96.0518" x2="94.6312" y2="130.736" gradientUnits="userSpaceOnUse">
<stop stop-color="#B2B6CB"/>
<stop offset="1" stop-color="#B2C6CC"/>
</linearGradient>
<linearGradient id="paint3_linear_174_2943" x1="63.6845" y1="25.5707" x2="143.041" y2="103.264" gradientUnits="userSpaceOnUse">
<stop stop-color="#D1CFE5"/>
<stop offset="1" stop-color="#D1E1E6"/>
</linearGradient>
<linearGradient id="paint4_linear_174_2943" x1="63.6845" y1="25.5709" x2="143.041" y2="103.264" gradientUnits="userSpaceOnUse">
<stop stop-color="#B2B6CB"/>
<stop offset="1" stop-color="#B2C6CC"/>
</linearGradient>
<linearGradient id="paint5_linear_174_2943" x1="173.61" y1="83.6816" x2="86.3098" y2="83.6816" gradientUnits="userSpaceOnUse">
<stop stop-color="#9189AB"/>
<stop offset="1" stop-color="#3A565E"/>
</linearGradient>
<linearGradient id="paint6_linear_174_2943" x1="71.0716" y1="73.6274" x2="45.682" y2="82.9924" gradientUnits="userSpaceOnUse">
<stop stop-color="#BCBBD1"/>
<stop offset="1" stop-color="#869EA6"/>
</linearGradient>
</defs>
</svg>
