<svg width="140" height="140" viewBox="0 0 140 140" fill="none" xmlns="http://www.w3.org/2000/svg">
<g clip-path="url(#clip0_2036_2264)">
<path d="M61.6666 110.625V87.2917C61.6657 86.4079 61.3142 85.5606 60.6893 84.9357C60.0644 84.3108 59.2171 83.9593 58.3333 83.9583H45C44.1162 83.9593 43.2689 84.3108 42.644 84.9357C42.0191 85.5606 41.6676 86.4079 41.6666 87.2917V110.625C41.6676 111.509 42.0191 112.356 42.644 112.981C43.2689 113.606 44.1162 113.957 45 113.958H58.3333C59.2171 113.957 60.0644 113.606 60.6893 112.981C61.3142 112.356 61.6657 111.509 61.6666 110.625ZM45 87.2917H58.3333L58.3353 110.625H45V87.2917Z" fill="#FDB549"/>
<path d="M85.2035 76.9084L75.6966 86.6927C75.3887 87.0098 75.2194 87.4362 75.2258 87.8782C75.2322 88.3201 75.4138 88.7414 75.7308 89.0495C76.0515 89.3502 76.4765 89.5148 76.9161 89.5084C77.3557 89.502 77.7757 89.3252 78.0876 89.0153L87.5944 79.231C87.9015 78.9137 88.0701 78.4876 88.0633 78.0462C88.0565 77.6047 87.8748 77.184 87.5581 76.8764C87.2414 76.5688 86.8156 76.3994 86.3742 76.4054C85.9327 76.4114 85.5117 76.5923 85.2035 76.9084Z" fill="#466B83"/>
<path d="M76.7741 76.1304L72.9712 80.044C72.6633 80.3611 72.4939 80.7875 72.5003 81.2294C72.5067 81.6714 72.6884 82.0927 73.0054 82.4007C73.328 82.6977 73.7521 82.8597 74.1906 82.8533C74.629 82.8469 75.0483 82.6727 75.3621 82.3666L79.165 78.453C79.472 78.1357 79.6407 77.7096 79.6339 77.2682C79.6271 76.8267 79.4454 76.406 79.1287 76.0984C78.812 75.7908 78.3862 75.6214 77.9447 75.6274C77.5033 75.6333 77.0823 75.8143 76.7741 76.1304Z" fill="#FDB549"/>
<path d="M84.414 90.1538C84.7345 90.455 85.1596 90.6198 85.5993 90.6135C86.0391 90.6071 86.4592 90.43 86.7708 90.1197L90.3621 86.4234C90.6692 86.1061 90.8378 85.68 90.831 85.2386C90.8242 84.7971 90.6425 84.3764 90.3258 84.0688C90.0091 83.7612 89.5833 83.5918 89.1419 83.5977C88.7004 83.6037 88.2794 83.7847 87.9712 84.1008L84.3799 87.7971C84.072 88.1142 83.9026 88.5406 83.909 88.9825C83.9154 89.4245 84.0971 89.8458 84.414 90.1538Z" fill="#FDB549"/>
<path d="M65 107.292H109.167C110.492 107.29 111.763 106.763 112.701 105.826C113.638 104.888 114.165 103.617 114.167 102.292V63.9583C114.165 62.6327 113.638 61.3617 112.701 60.4244C111.763 59.487 110.492 58.9598 109.167 58.9583H54.1666C52.841 58.9598 51.5701 59.487 50.6327 60.4244C49.6953 61.3617 49.1681 62.6327 49.1666 63.9583V80.625H52.5V63.9583C52.5005 63.5164 52.6762 63.0928 52.9887 62.7804C53.3011 62.4679 53.7248 62.2922 54.1666 62.2916H109.167C109.608 62.2922 110.032 62.468 110.345 62.7804C110.657 63.0929 110.833 63.5165 110.833 63.9583V102.292C110.833 102.733 110.657 103.157 110.345 103.47C110.032 103.782 109.608 103.958 109.167 103.958H65V107.292Z" fill="#FDB549"/>
<path d="M112.5 110.625H65C65.0001 111.796 64.6898 112.946 64.1008 113.958H112.5C112.942 113.958 113.366 113.783 113.679 113.47C113.991 113.158 114.167 112.734 114.167 112.292C114.167 111.85 113.991 111.426 113.679 111.113C113.366 110.801 112.942 110.625 112.5 110.625Z" fill="#466B83"/>
<path d="M118.333 48.9583H30C28.6744 48.9598 27.4034 49.487 26.4661 50.4244C25.5287 51.3617 25.0014 52.6327 25 53.9583V73.9583H28.3333V53.9583C28.3338 53.5164 28.5096 53.0928 28.822 52.7804C29.1345 52.4679 29.5581 52.2922 30 52.2916H118.333C118.775 52.2922 119.199 52.468 119.511 52.7804C119.824 53.0929 119.999 53.5165 120 53.9583V103.958C119.999 104.4 119.824 104.824 119.511 105.136C119.199 105.449 118.775 105.624 118.333 105.625H116.799C116.217 106.946 115.303 108.095 114.145 108.958H118.333C119.659 108.957 120.93 108.43 121.867 107.492C122.805 106.555 123.332 105.284 123.333 103.958V53.9583C123.332 52.6327 122.805 51.3617 121.867 50.4244C120.93 49.487 119.659 48.9598 118.333 48.9583Z" fill="#466B83"/>
<path d="M31.7587 34.375C32.2531 34.375 32.7365 34.2284 33.1476 33.9537C33.5587 33.679 33.8791 33.2885 34.0684 32.8317C34.2576 32.3749 34.3071 31.8722 34.2106 31.3873C34.1142 30.9023 33.8761 30.4569 33.5264 30.1072C33.1768 29.7576 32.7313 29.5195 32.2464 29.423C31.7614 29.3266 31.2588 29.3761 30.802 29.5653C30.3451 29.7545 29.9547 30.075 29.68 30.4861C29.4053 30.8972 29.2587 31.3805 29.2587 31.875C29.2594 32.5378 29.5231 33.1733 29.9917 33.6419C30.4604 34.1106 31.0959 34.3742 31.7587 34.375ZM31.7587 30.625C32.0059 30.625 32.2476 30.6983 32.4531 30.8357C32.6587 30.973 32.8189 31.1682 32.9135 31.3966C33.0081 31.6251 33.0329 31.8764 32.9846 32.1189C32.9364 32.3613 32.8174 32.5841 32.6426 32.7589C32.4677 32.9337 32.245 33.0527 32.0025 33.101C31.7601 33.1492 31.5087 33.1245 31.2803 33.0298C31.0519 32.9352 30.8567 32.775 30.7193 32.5695C30.582 32.3639 30.5087 32.1222 30.5087 31.875C30.509 31.5436 30.6408 31.2258 30.8751 30.9915C31.1095 30.7571 31.4272 30.6253 31.7587 30.625Z" fill="#466B83"/>
<path d="M132.592 47.428C132.262 47.428 131.94 47.5258 131.666 47.7089C131.392 47.8921 131.178 48.1524 131.052 48.4569C130.926 48.7614 130.893 49.0966 130.957 49.4199C131.022 49.7432 131.18 50.0401 131.414 50.2732C131.647 50.5063 131.944 50.665 132.267 50.7293C132.59 50.7937 132.925 50.7607 133.23 50.6345C133.534 50.5084 133.795 50.2947 133.978 50.0207C134.161 49.7466 134.259 49.4243 134.259 49.0947C134.258 48.6528 134.082 48.2292 133.77 47.9168C133.458 47.6043 133.034 47.4285 132.592 47.428ZM132.592 49.928C132.427 49.928 132.266 49.8792 132.129 49.7876C131.992 49.696 131.885 49.5659 131.822 49.4136C131.759 49.2613 131.743 49.0938 131.775 48.9321C131.807 48.7705 131.886 48.622 132.003 48.5055C132.119 48.3889 132.268 48.3095 132.43 48.2774C132.591 48.2452 132.759 48.2617 132.911 48.3248C133.063 48.3879 133.193 48.4947 133.285 48.6317C133.377 48.7688 133.425 48.9299 133.425 49.0947C133.425 49.3157 133.337 49.5275 133.181 49.6837C133.025 49.84 132.813 49.9278 132.592 49.928Z" fill="#466B83"/>
<path d="M7.408 19.928C7.07836 19.928 6.75613 20.0258 6.48205 20.2089C6.20797 20.3921 5.99435 20.6524 5.8682 20.9569C5.74206 21.2614 5.70905 21.5966 5.77336 21.9199C5.83767 22.2432 5.9964 22.5401 6.22949 22.7732C6.46258 23.0063 6.75955 23.165 7.08285 23.2293C7.40615 23.2937 7.74126 23.2607 8.04581 23.1345C8.35035 23.0084 8.61065 22.7947 8.79378 22.5207C8.97692 22.2466 9.07467 21.9243 9.07467 21.5947C9.07416 21.1528 8.89841 20.7292 8.58595 20.4168C8.2735 20.1043 7.84987 19.9285 7.408 19.928ZM7.408 22.428C7.24318 22.428 7.08207 22.3792 6.94503 22.2876C6.80798 22.196 6.70117 22.0659 6.6381 21.9136C6.57503 21.7613 6.55853 21.5938 6.59068 21.4321C6.62283 21.2705 6.7022 21.122 6.81874 21.0055C6.93529 20.8889 7.08377 20.8095 7.24542 20.7774C7.40708 20.7452 7.57463 20.7617 7.7269 20.8248C7.87918 20.8879 8.00932 20.9947 8.10089 21.1317C8.19246 21.2688 8.24133 21.4299 8.24133 21.5947C8.24111 21.8157 8.15324 22.0275 7.99701 22.1837C7.84078 22.34 7.62895 22.4278 7.408 22.428Z" fill="#466B83"/>
<path d="M97.408 14.375C97.0784 14.375 96.7561 14.4727 96.4821 14.6559C96.208 14.839 95.9943 15.0993 95.8682 15.4039C95.7421 15.7084 95.709 16.0435 95.7734 16.3668C95.8377 16.6901 95.9964 16.9871 96.2295 17.2202C96.4626 17.4533 96.7595 17.612 97.0828 17.6763C97.4061 17.7406 97.7413 17.7076 98.0458 17.5815C98.3503 17.4553 98.6106 17.2417 98.7938 16.9676C98.9769 16.6935 99.0747 16.3713 99.0747 16.0417C99.0742 15.5998 98.8984 15.1762 98.586 14.8637C98.2735 14.5513 97.8499 14.3755 97.408 14.375ZM97.408 16.875C97.2432 16.875 97.0821 16.8261 96.945 16.7346C96.808 16.643 96.7012 16.5128 96.6381 16.3606C96.575 16.2083 96.5585 16.0407 96.5907 15.8791C96.6228 15.7174 96.7022 15.569 96.8187 15.4524C96.9353 15.3359 97.0838 15.2565 97.2454 15.2243C97.4071 15.1922 97.5746 15.2087 97.7269 15.2718C97.8792 15.3348 98.0093 15.4417 98.1009 15.5787C98.1925 15.7157 98.2413 15.8768 98.2413 16.0417C98.2411 16.2626 98.1532 16.4744 97.997 16.6307C97.8408 16.7869 97.6289 16.8748 97.408 16.875Z" fill="#466B83"/>
<path d="M73.2413 38.2614C73.2413 37.9318 73.1435 37.6095 72.9604 37.3354C72.7773 37.0614 72.517 36.8477 72.2124 36.7216C71.9079 36.5954 71.5728 36.5624 71.2495 36.6268C70.9262 36.6911 70.6292 36.8498 70.3961 37.0829C70.163 37.316 70.0043 37.6129 69.94 37.9362C69.8757 38.2595 69.9087 38.5947 70.0348 38.8992C70.161 39.2037 70.3746 39.464 70.6487 39.6472C70.9228 39.8303 71.245 39.9281 71.5746 39.9281C72.0165 39.9276 72.4401 39.7518 72.7526 39.4393C73.065 39.1269 73.2408 38.7033 73.2413 38.2614ZM70.7413 38.2614C70.7413 38.0966 70.7902 37.9355 70.8817 37.7984C70.9733 37.6614 71.1035 37.5546 71.2557 37.4915C71.408 37.4284 71.5756 37.4119 71.7372 37.4441C71.8989 37.4762 72.0473 37.5556 72.1639 37.6721C72.2804 37.7887 72.3598 37.9372 72.3919 38.0988C72.4241 38.2605 72.4076 38.428 72.3445 38.5803C72.2815 38.7326 72.1746 38.8627 72.0376 38.9543C71.9006 39.0459 71.7394 39.0947 71.5746 39.0947C71.3537 39.0945 71.1418 39.0066 70.9856 38.8504C70.8294 38.6942 70.7415 38.4823 70.7413 38.2614Z" fill="#466B83"/>
<path d="M13.5859 49.9375L14.825 48.3075L14.0425 47.865L13.2475 49.6892H13.2209L12.4125 47.8775L11.6167 48.3342L12.8425 49.925V49.9508L10.925 49.7025V50.5892L12.855 50.3417V50.3683L11.6167 51.9583L12.3592 52.4283L13.2075 50.5892H13.2334L14.0159 52.415L14.8375 51.9458L13.5859 50.3808V50.355L15.5542 50.5892V49.7025L13.5859 49.9633V49.9375Z" fill="#FDB549"/>
<path d="M52.3175 17.4834L51.6042 18.3992L52.0325 18.67L52.5208 17.6109H52.5358L52.9858 18.6625L53.4592 18.3917L52.7383 17.4909V17.4759L53.8717 17.6109V17.1009L52.7383 17.2509V17.2359L53.4517 16.2975L53.0017 16.0417L52.5433 17.0925H52.5283L52.0633 16.0492L51.6042 16.3125L52.3108 17.2284V17.2434L51.2067 17.1009V17.6109L52.3175 17.4684V17.4834Z" fill="#FDB549"/>
<path d="M102.178 36.6175V35.7483L100.247 36.0042V35.9783L101.462 34.38L100.695 33.945L99.915 35.735H99.8891L99.0966 33.9575L98.3158 34.405L99.5183 35.9658V35.9917L97.6375 35.7483V36.6175L99.5308 36.375V36.4008L98.3158 37.9608L99.0449 38.4217L99.8766 36.6175H99.9016L100.669 38.4083L101.475 37.9483L100.247 36.4133V36.3875L102.178 36.6175Z" fill="#FDB549"/>
<path d="M126.111 20.4158L127.159 19.0375L126.497 18.6625L125.824 20.2066H125.802L125.118 18.6733L124.444 19.0591L125.482 20.4058V20.4275L123.86 20.2175V20.9675L125.492 20.7583V20.7808L124.444 22.1258L125.073 22.5233L125.791 20.9675H125.812L126.474 22.5125L127.17 22.115L126.111 20.7908V20.7691L127.776 20.9675V20.2175L126.111 20.4383V20.4158Z" fill="#FDB549"/>
<path d="M1.66667 113.958C2.58714 113.958 3.33333 113.212 3.33333 112.292C3.33333 111.371 2.58714 110.625 1.66667 110.625C0.746192 110.625 0 111.371 0 112.292C0 113.212 0.746192 113.958 1.66667 113.958Z" fill="#466B83"/>
<path d="M9.16667 110.625H6.66667C6.22464 110.625 5.80072 110.801 5.48816 111.113C5.17559 111.426 5 111.85 5 112.292C5 112.734 5.17559 113.158 5.48816 113.47C5.80072 113.783 6.22464 113.958 6.66667 113.958H9.16667C9.60869 113.958 10.0326 113.783 10.3452 113.47C10.6577 113.158 10.8333 112.734 10.8333 112.292C10.8333 111.85 10.6577 111.426 10.3452 111.113C10.0326 110.801 9.60869 110.625 9.16667 110.625Z" fill="#466B83"/>
<path d="M133.333 110.625H130.833C130.391 110.625 129.967 110.801 129.655 111.113C129.342 111.426 129.167 111.85 129.167 112.292C129.167 112.734 129.342 113.158 129.655 113.47C129.967 113.783 130.391 113.958 130.833 113.958H133.333C133.775 113.958 134.199 113.783 134.512 113.47C134.824 113.158 135 112.734 135 112.292C135 111.85 134.824 111.426 134.512 111.113C134.199 110.801 133.775 110.625 133.333 110.625Z" fill="#466B83"/>
<path d="M138.333 113.958C139.254 113.958 140 113.212 140 112.292C140 111.371 139.254 110.625 138.333 110.625C137.413 110.625 136.667 111.371 136.667 112.292C136.667 113.212 137.413 113.958 138.333 113.958Z" fill="#466B83"/>
<path d="M98.4616 117.292H91.5385C91.1195 117.325 90.7285 117.515 90.4434 117.824C90.1583 118.133 90 118.538 90 118.958C90 119.379 90.1583 119.784 90.4434 120.092C90.7285 120.401 91.1195 120.591 91.5385 120.625H98.4616C98.8806 120.591 99.2715 120.401 99.5566 120.092C99.8417 119.784 100 119.379 100 118.958C100 118.538 99.8417 118.133 99.5566 117.824C99.2715 117.515 98.8806 117.325 98.4616 117.292Z" fill="#FDB549"/>
<path d="M48.4616 117.292H41.5385C41.1195 117.325 40.7285 117.515 40.4434 117.824C40.1583 118.133 40 118.538 40 118.958C40 119.379 40.1583 119.784 40.4434 120.092C40.7285 120.401 41.1195 120.591 41.5385 120.625H48.4616C48.8806 120.591 49.2715 120.401 49.5566 120.092C49.8417 119.784 50 119.379 50 118.958C50 118.538 49.8417 118.133 49.5566 117.824C49.2715 117.515 48.8806 117.325 48.4616 117.292Z" fill="#FDB549"/>
<path d="M86.6666 117.292H53.3333C52.8913 117.292 52.4673 117.467 52.1548 117.78C51.8422 118.092 51.6666 118.516 51.6666 118.958C51.6666 119.4 51.8422 119.824 52.1548 120.137C52.4673 120.449 52.8913 120.625 53.3333 120.625H66.6166V122.292H60C59.5579 122.292 59.134 122.467 58.8214 122.78C58.5089 123.092 58.3333 123.516 58.3333 123.958C58.3333 124.4 58.5089 124.824 58.8214 125.137C59.134 125.449 59.5579 125.625 60 125.625H80.8333C81.2753 125.625 81.6992 125.449 82.0118 125.137C82.3244 124.824 82.5 124.4 82.5 123.958C82.5 123.516 82.3244 123.092 82.0118 122.78C81.6992 122.467 81.2753 122.292 80.8333 122.292H73.3833V120.625H86.6666C87.1087 120.625 87.5326 120.449 87.8451 120.137C88.1577 119.824 88.3333 119.4 88.3333 118.958C88.3333 118.516 88.1577 118.092 87.8451 117.78C87.5326 117.467 87.1087 117.292 86.6666 117.292Z" fill="#FDB549"/>
<path d="M125.601 110.625H21.6667C21.2249 110.625 20.8012 110.449 20.4888 110.136C20.1763 109.824 20.0006 109.4 20.0001 108.958V82.2917C20.0006 81.8498 20.1763 81.4262 20.4888 81.1137C20.8012 80.8013 21.2249 80.6255 21.6667 80.625H45.8334V77.2917H21.6667C20.3411 77.2931 19.0702 77.8204 18.1328 78.7578C17.1954 79.6951 16.6682 80.966 16.6667 82.2917V108.958C16.6679 109.527 16.7666 110.09 16.9584 110.625H14.399C14.1619 110.594 13.9209 110.614 13.6921 110.684C13.4633 110.753 13.252 110.871 13.0723 111.029C12.8926 111.186 12.7487 111.381 12.65 111.598C12.5514 111.816 12.5004 112.053 12.5004 112.292C12.5004 112.531 12.5514 112.767 12.65 112.985C12.7487 113.203 12.8926 113.397 13.0723 113.555C13.252 113.713 13.4633 113.83 13.6921 113.9C13.9209 113.969 14.1619 113.989 14.399 113.958H125.601C125.838 113.989 126.079 113.969 126.308 113.9C126.537 113.83 126.748 113.713 126.928 113.555C127.107 113.397 127.251 113.203 127.35 112.985C127.449 112.767 127.5 112.531 127.5 112.292C127.5 112.053 127.449 111.816 127.35 111.598C127.251 111.381 127.107 111.186 126.928 111.029C126.748 110.871 126.537 110.753 126.308 110.684C126.079 110.614 125.838 110.594 125.601 110.625Z" fill="#466B83"/>
</g>
<defs>
<clipPath id="clip0_2036_2264">
<rect width="140" height="140" fill="white"/>
</clipPath>
</defs>
</svg>
