<svg width="140" height="140" viewBox="0 0 140 140" fill="none" xmlns="http://www.w3.org/2000/svg">
<path d="M101.462 130.241H94.5385C94.1195 130.275 93.7285 130.465 93.4434 130.774C93.1583 131.083 93 131.488 93 131.908C93 132.328 93.1583 132.733 93.4434 133.042C93.7285 133.351 94.1195 133.541 94.5385 133.575H101.462C101.881 133.541 102.272 133.351 102.557 133.042C102.842 132.733 103 132.328 103 131.908C103 131.488 102.842 131.083 102.557 130.774C102.272 130.465 101.881 130.275 101.462 130.241Z" fill="#FDB549"/>
<path d="M45.4616 130.241H38.5385C38.1195 130.275 37.7285 130.465 37.4434 130.774C37.1583 131.083 37 131.488 37 131.908C37 132.328 37.1583 132.733 37.4434 133.042C37.7285 133.351 38.1195 133.541 38.5385 133.575H45.4616C45.8806 133.541 46.2715 133.351 46.5566 133.042C46.8417 132.733 47 132.328 47 131.908C47 131.488 46.8417 131.083 46.5566 130.774C46.2715 130.465 45.8806 130.275 45.4616 130.241Z" fill="#FDB549"/>
<path d="M86.6666 130.241H53.3333C52.8913 130.241 52.4673 130.417 52.1548 130.729C51.8422 131.042 51.6666 131.466 51.6666 131.908C51.6666 132.35 51.8422 132.774 52.1548 133.086C52.4673 133.399 52.8913 133.575 53.3333 133.575H66.6166V135.241H60C59.5579 135.241 59.134 135.417 58.8214 135.729C58.5089 136.042 58.3333 136.466 58.3333 136.908C58.3333 137.35 58.5089 137.774 58.8214 138.086C59.134 138.399 59.5579 138.575 60 138.575H80.8333C81.2753 138.575 81.6992 138.399 82.0118 138.086C82.3244 137.774 82.5 137.35 82.5 136.908C82.5 136.466 82.3244 136.042 82.0118 135.729C81.6992 135.417 81.2753 135.241 80.8333 135.241H73.3833V133.575H86.6666C87.1087 133.575 87.5326 133.399 87.8451 133.086C88.1577 132.774 88.3333 132.35 88.3333 131.908C88.3333 131.466 88.1577 131.042 87.8451 130.729C87.5326 130.417 87.1087 130.241 86.6666 130.241Z" fill="#FDB549"/>
<path d="M41.5 65.8936C38.864 65.8945 36.2874 66.6769 34.0961 68.1421C31.9048 69.6072 30.1972 71.6892 29.1891 74.1248C28.1809 76.5604 27.9176 79.2402 28.4325 81.8255C28.9473 84.4107 30.2171 86.7852 32.0814 88.6488C33.9456 90.5124 36.3206 91.7814 38.906 92.2953C41.4914 92.8092 44.1711 92.545 46.6064 91.536C49.0416 90.527 51.123 88.8186 52.5874 86.6268C54.0518 84.435 54.8333 81.8582 54.8333 79.2222C54.8333 77.4715 54.4883 75.7379 53.8182 74.1205C53.1481 72.5031 52.1659 71.0336 50.9277 69.7958C49.6895 68.5581 48.2196 67.5764 46.602 66.9069C44.9844 66.2373 43.2507 65.893 41.5 65.8936ZM41.5 89.2187C39.523 89.2181 37.5906 88.6312 35.9472 87.5323C34.3037 86.4335 33.023 84.872 32.2669 83.0453C31.5108 81.2187 31.3134 79.2088 31.6995 77.2699C32.0856 75.331 33.0379 73.5501 34.4361 72.1525C35.8343 70.7548 37.6155 69.803 39.5545 69.4176C41.4935 69.0322 43.5033 69.2303 45.3297 69.987C47.1561 70.7437 48.7172 72.025 49.8155 73.6688C50.9137 75.3126 51.5 77.2452 51.5 79.2222C51.4965 81.873 50.4417 84.4141 48.567 86.2882C46.6923 88.1623 44.1508 89.2162 41.5 89.2187Z" fill="#FDB549"/>
<path d="M99.4998 93.5511C102.136 93.5502 104.712 92.7677 106.904 91.3026C109.095 89.8374 110.803 87.7554 111.811 85.3199C112.819 82.8843 113.082 80.2045 112.567 77.6192C112.053 75.034 110.783 72.6595 108.919 70.7959C107.054 68.9323 104.679 67.6633 102.094 67.1493C99.5086 66.6354 96.8288 66.8996 94.3936 67.9086C91.9583 68.9175 89.8769 70.6259 88.4125 72.8177C86.9481 75.0094 86.1665 77.5862 86.1665 80.2222C86.1666 81.9729 86.5115 83.7065 87.1817 85.3239C87.8518 86.9413 88.834 88.4108 90.0722 89.6486C91.3103 90.8863 92.7802 91.868 94.3978 92.5376C96.0154 93.2072 97.7491 93.5516 99.4998 93.5511ZM99.4998 70.2258C101.477 70.2265 103.409 70.8133 105.053 71.9122C106.696 73.011 107.977 74.5725 108.733 76.3992C109.489 78.2259 109.686 80.2358 109.3 82.1747C108.914 84.1136 107.962 85.8944 106.564 87.2921C105.165 88.6898 103.384 89.6415 101.445 90.0269C99.5062 90.4124 97.4964 90.2142 95.67 89.4575C93.8436 88.7007 92.2825 87.4195 91.1843 85.7756C90.086 84.1318 89.4998 82.1992 89.4998 80.2222C89.5033 77.5714 90.5581 75.0303 92.4328 73.1562C94.3075 71.2822 96.8491 70.2283 99.4998 70.2258Z" fill="#FDB549"/>
<path d="M34.8332 59.8669C37.385 59.8694 39.9133 59.3783 42.2786 58.4206L50.7023 63.1788C51.0028 63.3411 51.345 63.41 51.6848 63.3765C52.0247 63.343 52.3468 63.2088 52.6099 62.9909C52.8697 62.7674 53.0542 62.4692 53.1382 62.1369C53.2223 61.8047 53.2017 61.4546 53.0795 61.1344L49.9203 52.8585C52.5431 49.7061 53.9857 45.7384 53.9998 41.6376C53.9998 31.5857 45.402 23.4082 34.8332 23.4082C24.2643 23.4082 15.6665 31.5857 15.6665 41.6376C15.6665 51.6894 24.2643 59.8669 34.8332 59.8669ZM34.8332 26.7403C43.5636 26.7403 50.6665 33.4234 50.6665 41.6375C50.6462 45.2612 49.2587 48.7436 46.7814 51.3883C46.5708 51.6162 46.4282 51.8983 46.3695 52.203C46.3108 52.5076 46.3385 52.8226 46.4494 53.1123L48.3162 58.0031L43.2007 55.1135C42.9721 54.9845 42.7164 54.9113 42.4543 54.8997C42.1921 54.8881 41.9309 54.9385 41.6919 55.0469C39.5389 56.0292 37.1997 56.5367 34.8332 56.5348C26.1027 56.5348 18.9998 49.8517 18.9998 41.6376C18.9998 33.4235 26.1027 26.7403 34.8332 26.7403Z" fill="#466B83"/>
<path d="M37.2004 53.1371C38.0971 52.9293 38.6556 52.0339 38.4478 51.1372C38.24 50.2404 37.3446 49.682 36.4479 49.8898C35.5511 50.0976 34.9927 50.993 35.2005 51.8897C35.4083 52.7865 36.3037 53.3449 37.2004 53.1371Z" fill="#466B83"/>
<path d="M29.2667 40.6949C29.6972 40.5952 30.0705 40.3285 30.3045 39.9535C30.5384 39.5786 30.6138 39.126 30.5141 38.6955C30.4438 38.3641 30.442 38.0219 30.5086 37.6898C30.5753 37.3577 30.7091 37.0428 30.9019 36.7642C31.1804 36.3559 31.5394 36.0087 31.9568 35.7439C32.3742 35.4792 32.8412 35.3025 33.3294 35.2246C34.9526 34.926 36.5875 35.748 36.9735 37.0565C37.1055 37.6123 37.06 38.1955 36.8434 38.7241C36.6268 39.2527 36.25 39.7002 35.766 40.0036C34.9604 40.547 34.3341 41.3171 33.9662 42.2165C33.5983 43.1159 33.5054 44.1042 33.6992 45.0564L34.1246 46.8919C34.2244 47.3225 34.4912 47.6959 34.8662 47.9298C35.2413 48.1637 35.6939 48.239 36.1245 48.1392C36.5551 48.0394 36.9285 47.7727 37.1624 47.3976C37.3963 47.0225 37.4716 46.5699 37.3718 46.1393L36.9464 44.3038C36.9044 43.993 36.9541 43.6767 37.0895 43.3938C37.2249 43.1109 37.4401 42.8738 37.7085 42.7116C38.7603 42.0099 39.5641 40.9947 40.006 39.8101C40.4478 38.6255 40.5051 37.3318 40.1697 36.1128C39.3022 33.1697 36.0327 31.3395 32.7276 31.9469C31.7975 32.1105 30.9099 32.4594 30.1175 32.9731C29.3251 33.4867 28.6441 34.1545 28.115 34.9367C27.6732 35.5909 27.37 36.3287 27.2242 37.1046C27.0783 37.8805 27.0928 38.678 27.2669 39.4481C27.3667 39.8786 27.6335 40.2518 28.0085 40.4856C28.3836 40.7194 28.8361 40.7947 29.2667 40.6949Z" fill="#FDB549"/>
<path d="M101.757 54.85C102.633 55.1333 103.573 54.6529 103.856 53.7771C104.139 52.9013 103.659 51.9617 102.783 51.6784C101.907 51.3952 100.968 51.8755 100.684 52.7513C100.401 53.6271 100.881 54.5667 101.757 54.85Z" fill="#466B83"/>
<path d="M101.357 40.0989C101.778 40.235 102.235 40.1984 102.629 39.9973C103.022 39.7962 103.32 39.447 103.456 39.0265C103.566 38.7062 103.741 38.4119 103.969 38.1614C104.197 37.911 104.474 37.7098 104.782 37.5702C105.231 37.3634 105.718 37.2504 106.212 37.2382C106.706 37.226 107.197 37.3148 107.656 37.4992C109.201 38.0786 110.18 39.6247 109.838 40.9453C109.665 41.4898 109.326 41.9664 108.868 42.3082C108.41 42.65 107.857 42.8398 107.286 42.8508C106.315 42.9022 105.382 43.2402 104.604 43.822C103.826 44.4038 103.237 45.2034 102.913 46.1196L102.334 47.9123C102.198 48.3329 102.234 48.7903 102.435 49.1839C102.637 49.5775 102.986 49.875 103.406 50.011C103.827 50.147 104.284 50.1104 104.678 49.9092C105.072 49.708 105.369 49.3587 105.505 48.9381L106.085 47.1454C106.209 46.8573 106.414 46.6117 106.676 46.4388C106.938 46.2659 107.244 46.1733 107.558 46.1724C108.821 46.112 110.032 45.6552 111.021 44.8668C112.009 44.0785 112.724 42.9987 113.064 41.7809C113.835 38.811 111.973 35.5593 108.827 34.3793C107.945 34.0411 107.004 33.8836 106.061 33.9162C105.117 33.9488 104.189 34.1708 103.333 34.5691C102.618 34.9027 101.978 35.3793 101.454 35.9695C100.929 36.5596 100.531 37.2509 100.284 38.0007C100.148 38.4213 100.185 38.8786 100.386 39.2721C100.588 39.6655 100.937 39.963 101.357 40.0989Z" fill="#FDB549"/>
<path d="M86.9204 63.1344C86.7981 63.4546 86.7776 63.8047 86.8616 64.1369C86.9457 64.4692 87.1302 64.7674 87.39 64.9909C87.6523 65.2102 87.9745 65.3453 88.3148 65.3789C88.655 65.4124 88.9975 65.3427 89.2975 65.1789L97.7212 60.4206C100.087 61.3783 102.615 61.8694 105.167 61.8669C115.736 61.8669 124.333 53.6894 124.333 43.6376C124.333 33.5857 115.736 25.4082 105.167 25.4082C94.5978 25.4082 86 33.5857 86 43.6376C86.0142 47.7384 87.4567 51.7061 90.0796 54.8585L86.9204 63.1344ZM89.3333 43.6376C89.3333 35.4235 96.4362 28.7403 105.167 28.7403C113.897 28.7403 121 35.4235 121 43.6376C121 51.8517 113.897 58.5348 105.167 58.5348C102.8 58.5367 100.461 58.0293 98.3079 57.0469C98.0688 56.939 97.8077 56.8888 97.5456 56.9004C97.2835 56.9119 97.0278 56.985 96.7991 57.1136L91.6836 60.0033L93.5504 55.1125C93.6613 54.8227 93.689 54.5077 93.6303 54.2031C93.5717 53.8985 93.429 53.6163 93.2184 53.3885C90.7411 50.7438 89.3536 47.2613 89.3333 43.6376Z" fill="#466B83"/>
<path d="M65.1586 67.3132L71.9449 65.5079L66.5146 77.177C66.3031 77.634 66.264 78.1653 66.4058 78.6542C66.5475 79.1431 66.8587 79.5498 67.2709 79.7849C67.6831 80.02 68.1626 80.0644 68.6043 79.9082C69.046 79.752 69.4137 79.4081 69.6267 78.952L76.8061 63.5238C76.9594 63.1939 77.0239 62.8221 76.9921 62.4528C76.9602 62.0834 76.8333 61.7319 76.6265 61.4401C76.4196 61.1482 76.1414 60.9283 75.8251 60.8064C75.5087 60.6845 75.1673 60.6658 74.8416 60.7525L68.0126 62.5682L72.913 51.8083C73.1211 51.3493 73.1562 50.8176 73.0106 50.3299C72.865 49.8423 72.5507 49.4385 72.1366 49.2074C71.7225 48.9762 71.2425 48.9366 70.802 49.0971C70.3616 49.2576 69.9966 49.6053 69.7873 50.0636L63.1872 64.557C63.037 64.8871 62.9752 65.2579 63.009 65.6257C63.0428 65.9934 63.1709 66.3428 63.3782 66.6325C63.5854 66.9222 63.8631 67.1403 64.1786 67.2609C64.494 67.3815 64.8341 67.3997 65.1586 67.3132Z" fill="#FDB549"/>
<path d="M1.66667 126.909C2.58714 126.909 3.33333 126.162 3.33333 125.242C3.33333 124.321 2.58714 123.575 1.66667 123.575C0.746192 123.575 0 124.321 0 125.242C0 126.162 0.746192 126.909 1.66667 126.909Z" fill="#466B83"/>
<path d="M9.16667 123.575H6.66667C6.22464 123.575 5.80072 123.75 5.48816 124.063C5.17559 124.375 5 124.799 5 125.241C5 125.683 5.17559 126.107 5.48816 126.42C5.80072 126.732 6.22464 126.908 6.66667 126.908H9.16667C9.60869 126.908 10.0326 126.732 10.3452 126.42C10.6577 126.107 10.8333 125.683 10.8333 125.241C10.8333 124.799 10.6577 124.375 10.3452 124.063C10.0326 123.75 9.60869 123.575 9.16667 123.575Z" fill="#466B83"/>
<path d="M133.333 123.575H130.833C130.391 123.575 129.967 123.75 129.655 124.063C129.342 124.375 129.167 124.799 129.167 125.241C129.167 125.683 129.342 126.107 129.655 126.42C129.967 126.732 130.391 126.908 130.833 126.908H133.333C133.775 126.908 134.199 126.732 134.512 126.42C134.824 126.107 135 125.683 135 125.241C135 124.799 134.824 124.375 134.512 124.063C134.199 123.75 133.775 123.575 133.333 123.575Z" fill="#466B83"/>
<path d="M138.333 126.909C139.254 126.909 140 126.162 140 125.242C140 124.321 139.254 123.575 138.333 123.575C137.413 123.575 136.667 124.321 136.667 125.242C136.667 126.162 137.413 126.909 138.333 126.909Z" fill="#466B83"/>
<path d="M125.601 123.575H123.333V105.625C123.333 97.5846 117.609 92.1068 110.841 90.167C110.074 91.1981 109.193 92.138 108.212 92.968C114.341 94.0101 120 98.3685 120 105.625V123.575H113.333V121.077C113.333 120.635 113.158 120.211 112.845 119.898C112.533 119.585 112.109 119.41 111.667 119.41C111.225 119.41 110.801 119.585 110.488 119.898C110.176 120.211 110 120.635 110 121.077V123.575H85.0001V121.077C85.0001 120.635 84.8245 120.211 84.5119 119.898C84.1993 119.585 83.7754 119.41 83.3334 119.41C82.8914 119.41 82.4674 119.585 82.1549 119.898C81.8423 120.211 81.6667 120.635 81.6667 121.077V123.575H75.0001V105.625C75.0001 98.3685 80.6592 94.0101 86.788 92.968C85.8076 92.138 84.9257 91.1981 84.1596 90.167C77.3908 92.1068 71.6667 97.5846 71.6667 105.625V123.575H68.3334V105.625C68.3334 97.5846 62.6093 92.1068 55.8405 90.167C55.0744 91.1981 54.1925 92.138 53.2121 92.968C59.3409 94.0101 65.0001 98.3685 65.0001 105.625V123.575H58.3334V121.077C58.3334 120.635 58.1578 120.211 57.8452 119.898C57.5327 119.585 57.1088 119.41 56.6667 119.41C56.2247 119.41 55.8008 119.585 55.4882 119.898C55.1757 120.211 55.0001 120.635 55.0001 121.077V123.575H30.0001V121.077C30.0001 120.635 29.8245 120.211 29.5119 119.898C29.1993 119.585 28.7754 119.41 28.3334 119.41C27.8914 119.41 27.4674 119.585 27.1549 119.898C26.8423 120.211 26.6667 120.635 26.6667 121.077V123.575H20.0001V105.625C20.0001 98.3685 25.6592 94.0101 31.788 92.968C30.8076 92.138 29.9257 91.1981 29.1596 90.167C22.3908 92.1068 16.6667 97.5846 16.6667 105.625V123.575H14.399C14.1619 123.544 13.9209 123.564 13.6921 123.633C13.4633 123.703 13.252 123.821 13.0723 123.978C12.8926 124.136 12.7487 124.33 12.65 124.548C12.5514 124.766 12.5004 125.002 12.5004 125.241C12.5004 125.481 12.5514 125.717 12.65 125.935C12.7487 126.153 12.8926 126.347 13.0723 126.505C13.252 126.662 13.4633 126.78 13.6921 126.85C13.9209 126.919 14.1619 126.939 14.399 126.908H125.601C125.838 126.939 126.079 126.919 126.308 126.85C126.537 126.78 126.748 126.662 126.928 126.505C127.107 126.347 127.251 126.153 127.35 125.935C127.449 125.717 127.5 125.481 127.5 125.241C127.5 125.002 127.449 124.766 127.35 124.548C127.251 124.33 127.107 124.136 126.928 123.978C126.748 123.821 126.537 123.703 126.308 123.633C126.079 123.564 125.838 123.544 125.601 123.575Z" fill="#466B83"/>
<path d="M10.6665 17.3091C11.161 17.3091 11.6443 17.1625 12.0554 16.8878C12.4666 16.6131 12.787 16.2226 12.9762 15.7658C13.1654 15.309 13.2149 14.8063 13.1185 14.3214C13.022 13.8364 12.7839 13.3909 12.4343 13.0413C12.0846 12.6917 11.6392 12.4536 11.1542 12.3571C10.6693 12.2607 10.1666 12.3102 9.7098 12.4994C9.25298 12.6886 8.86253 13.009 8.58783 13.4202C8.31313 13.8313 8.1665 14.3146 8.1665 14.8091C8.16726 15.4719 8.4309 16.1073 8.89958 16.576C9.36825 17.0447 10.0037 17.3083 10.6665 17.3091ZM10.6665 13.5591C10.9137 13.5591 11.1554 13.6324 11.361 13.7697C11.5665 13.9071 11.7267 14.1023 11.8214 14.3307C11.916 14.5591 11.9407 14.8105 11.8925 15.0529C11.8443 15.2954 11.7252 15.5182 11.5504 15.693C11.3756 15.8678 11.1528 15.9868 10.9104 16.0351C10.6679 16.0833 10.4166 16.0585 10.1881 15.9639C9.95974 15.8693 9.76452 15.7091 9.62717 15.5035C9.48982 15.298 9.4165 15.0563 9.4165 14.8091C9.41683 14.4777 9.54863 14.1599 9.78298 13.9256C10.0173 13.6912 10.3351 13.5594 10.6665 13.5591Z" fill="#466B83"/>
<path d="M134.667 13.1426C134.337 13.1426 134.015 13.2403 133.741 13.4235C133.467 13.6066 133.253 13.8669 133.127 14.1714C133.001 14.476 132.968 14.8111 133.032 15.1344C133.096 15.4577 133.255 15.7547 133.488 15.9878C133.721 16.2208 134.018 16.3796 134.342 16.4439C134.665 16.5082 135 16.4752 135.304 16.349C135.609 16.2229 135.869 16.0093 136.052 15.7352C136.236 15.4611 136.333 15.1389 136.333 14.8092C136.333 14.3674 136.157 13.9437 135.845 13.6313C135.532 13.3188 135.109 13.1431 134.667 13.1426ZM134.667 15.6426C134.502 15.6426 134.341 15.5937 134.204 15.5021C134.067 15.4106 133.96 15.2804 133.897 15.1281C133.834 14.9759 133.817 14.8083 133.849 14.6467C133.881 14.485 133.961 14.3365 134.077 14.22C134.194 14.1034 134.342 14.0241 134.504 13.9919C134.666 13.9598 134.833 13.9763 134.986 14.0393C135.138 14.1024 135.268 14.2092 135.36 14.3463C135.451 14.4833 135.5 14.6444 135.5 14.8092C135.5 15.0302 135.412 15.242 135.256 15.3983C135.099 15.5545 134.888 15.6424 134.667 15.6426Z" fill="#466B83"/>
<path d="M83.2541 4.32227C82.9244 4.32227 82.6022 4.42001 82.3281 4.60315C82.054 4.78629 81.8404 5.04658 81.7143 5.35113C81.5881 5.65567 81.5551 5.99078 81.6194 6.31408C81.6837 6.63738 81.8425 6.93436 82.0756 7.16744C82.3086 7.40053 82.6056 7.55927 82.9289 7.62357C83.2522 7.68788 83.5873 7.65488 83.8919 7.52873C84.1964 7.40259 84.4567 7.18896 84.6399 6.91488C84.823 6.6408 84.9207 6.31857 84.9207 5.98893C84.9202 5.54706 84.7445 5.12343 84.432 4.81098C84.1196 4.49853 83.6959 4.32277 83.2541 4.32227ZM83.2541 6.82227C83.0893 6.82227 82.9281 6.77339 82.7911 6.68182C82.6541 6.59026 82.5472 6.46011 82.4842 6.30783C82.4211 6.15556 82.4046 5.98801 82.4367 5.82636C82.4689 5.66471 82.5483 5.51622 82.6648 5.39968C82.7814 5.28313 82.9298 5.20377 83.0915 5.17161C83.2531 5.13946 83.4207 5.15596 83.573 5.21903C83.7252 5.28211 83.8554 5.38892 83.947 5.52596C84.0385 5.663 84.0874 5.82411 84.0874 5.98893C84.0872 6.20988 83.9993 6.42171 83.8431 6.57794C83.6869 6.73418 83.475 6.82204 83.2541 6.82227Z" fill="#466B83"/>
<path d="M121.667 5.65576C121.337 5.65576 121.015 5.75351 120.741 5.93665C120.467 6.11978 120.253 6.38008 120.127 6.68462C120.001 6.98917 119.968 7.32428 120.032 7.64758C120.096 7.97088 120.255 8.26785 120.488 8.50094C120.721 8.73403 121.018 8.89276 121.342 8.95707C121.665 9.02138 122 8.98837 122.304 8.86223C122.609 8.73608 122.869 8.52246 123.052 8.24838C123.236 7.9743 123.333 7.65206 123.333 7.32243C123.333 6.88056 123.157 6.45693 122.845 6.14447C122.532 5.83202 122.109 5.65627 121.667 5.65576ZM121.667 8.15576C121.502 8.15576 121.341 8.10689 121.204 8.01532C121.067 7.92375 120.96 7.7936 120.897 7.64133C120.834 7.48906 120.817 7.3215 120.849 7.15985C120.881 6.9982 120.961 6.84972 121.077 6.73317C121.194 6.61663 121.342 6.53726 121.504 6.50511C121.666 6.47295 121.833 6.48946 121.986 6.55253C122.138 6.6156 122.268 6.72241 122.36 6.85945C122.451 6.99649 122.5 7.15761 122.5 7.32243C122.5 7.54337 122.412 7.75521 122.256 7.91144C122.099 8.06767 121.888 8.15554 121.667 8.15576Z" fill="#466B83"/>
<path d="M6.66683 43.0509C6.66683 42.7213 6.56908 42.3991 6.38595 42.125C6.20281 41.8509 5.94251 41.6373 5.63797 41.5111C5.33343 41.385 4.99831 41.352 4.67501 41.4163C4.35171 41.4806 4.05474 41.6393 3.82165 41.8724C3.58856 42.1055 3.42983 42.4025 3.36552 42.7258C3.30121 43.0491 3.33422 43.3842 3.46036 43.6887C3.58651 43.9933 3.80013 44.2536 4.07421 44.4367C4.3483 44.6199 4.67053 44.7176 5.00016 44.7176C5.44204 44.7171 5.86567 44.5413 6.17812 44.2289C6.49057 43.9164 6.66633 43.4928 6.66683 43.0509ZM4.16683 43.0509C4.16683 42.8861 4.2157 42.725 4.30727 42.588C4.39884 42.4509 4.52899 42.3441 4.68126 42.281C4.83353 42.218 5.00109 42.2015 5.16274 42.2336C5.32439 42.2658 5.47288 42.3451 5.58942 42.4617C5.70596 42.5782 5.78533 42.7267 5.81749 42.8884C5.84964 43.05 5.83314 43.2176 5.77006 43.3698C5.70699 43.5221 5.60018 43.6523 5.46314 43.7438C5.3261 43.8354 5.16498 43.8843 5.00016 43.8843C4.77922 43.8841 4.56738 43.7962 4.41115 43.64C4.25492 43.4837 4.16705 43.2719 4.16683 43.0509Z" fill="#466B83"/>
<path d="M40.346 8.49814L41.5852 6.86814L40.8027 6.4248L40.0077 8.2498H39.981L39.1735 6.43814L38.3769 6.8948L39.6035 8.48564V8.51147L37.686 8.26314V9.1498L39.616 8.9023V8.92814L38.3769 10.519L39.1202 10.989L39.9685 9.1498H39.9935L40.776 10.9756L41.5977 10.5065L40.346 8.94147V8.91564L42.3144 9.1498V8.26314L40.346 8.52397V8.49814Z" fill="#FDB549"/>
<path d="M61.7791 29.5535L61.0658 30.4693L61.4933 30.7401L61.9816 29.681H61.9966L62.4475 30.7318L62.9208 30.4618L62.2 29.561V29.546L63.3333 29.681V29.1702L62.2 29.3202V29.3052L62.9133 28.3668L62.4625 28.1118L62.0041 29.1627H61.9891L61.5241 28.1193L61.0658 28.3818L61.7716 29.2985V29.3135L60.6675 29.1702V29.681L61.7791 29.5385V29.5535Z" fill="#FDB549"/>
<path d="M134.353 42.2619V41.3927L132.423 41.6477V41.6227L133.638 40.0244L132.871 39.5894L132.091 41.3794H132.064L131.273 39.6019L130.491 40.0494L131.694 41.6102V41.6352L129.813 41.3927V42.2619L131.707 42.0194V42.0444L130.491 43.6044L131.22 44.0652L132.053 42.2619H132.077L132.844 44.0527L133.651 43.5919L132.423 42.0569V42.0319L134.353 42.2619Z" fill="#FDB549"/>
<path d="M86.7508 24.2309L87.7992 22.8525L87.1375 22.4775L86.4642 24.0217H86.4417L85.7583 22.4884L85.085 22.8742L86.1225 24.2209V24.2425L84.5 24.0325V24.7825L86.1333 24.5734V24.5959L85.085 25.9409L85.7133 26.3384L86.4308 24.7825H86.4525L87.115 26.3275L87.81 25.93L86.7508 24.6059V24.5842L88.4167 24.7825V24.0325L86.7508 24.2534V24.2309Z" fill="#FDB549"/>
</svg>
