<svg width="131" height="130" viewBox="0 0 131 130" fill="none" xmlns="http://www.w3.org/2000/svg">
<g clip-path="url(#clip0_2055_954)">
<path d="M90.6371 46.6219V41.9791C90.6371 40.3372 89.9848 38.7627 88.8239 37.6017C87.663 36.4408 86.0884 35.7886 84.4466 35.7886C82.8048 35.7886 81.2302 36.4408 80.0693 37.6017C78.9083 38.7627 78.2561 40.3372 78.2561 41.9791V46.6219C78.2561 48.2637 78.9083 49.8383 80.0693 50.9992C81.2302 52.1602 82.8048 52.8124 84.4466 52.8124C86.0884 52.8124 87.663 52.1602 88.8239 50.9992C89.9848 49.8383 90.6371 48.2637 90.6371 46.6219ZM81.3513 46.6219V41.9791C81.3513 41.1581 81.6774 40.3709 82.2579 39.7904C82.8384 39.2099 83.6257 38.8838 84.4466 38.8838C85.2675 38.8838 86.0548 39.2099 86.6352 39.7904C87.2157 40.3709 87.5418 41.1581 87.5418 41.9791V46.6219C87.5418 47.4428 87.2157 48.2301 86.6352 48.8106C86.0548 49.391 85.2675 49.7171 84.4466 49.7171C83.6257 49.7171 82.8384 49.391 82.2579 48.8106C81.6774 48.2301 81.3513 47.4428 81.3513 46.6219Z" fill="#B4EDFF"/>
<path d="M47.3038 35.7886C45.6625 35.7905 44.089 36.4433 42.9285 37.6038C41.768 38.7643 41.1152 40.3378 41.1133 41.9791V46.6219C41.1133 48.2637 41.7655 49.8383 42.9264 50.9992C44.0874 52.1602 45.6619 52.8124 47.3038 52.8124C48.9456 52.8124 50.5201 52.1602 51.6811 50.9992C52.842 49.8383 53.4942 48.2637 53.4942 46.6219V41.9791C53.4924 40.3378 52.8395 38.7643 51.679 37.6038C50.5185 36.4433 48.945 35.7905 47.3038 35.7886ZM50.399 46.6219C50.399 47.4428 50.0729 48.2301 49.4924 48.8106C48.912 49.391 48.1247 49.7171 47.3038 49.7171C46.4828 49.7171 45.6956 49.391 45.1151 48.8106C44.5346 48.2301 44.2085 47.4428 44.2085 46.6219V41.9791C44.2085 41.1581 44.5346 40.3709 45.1151 39.7904C45.6956 39.2099 46.4828 38.8838 47.3038 38.8838C48.1247 38.8838 48.912 39.2099 49.4924 39.7904C50.0729 40.3709 50.399 41.1581 50.399 41.9791V46.6219Z" fill="#B4EDFF"/>
<path d="M65.875 57.4555C67.5163 57.4536 69.0898 56.8008 70.2503 55.6402C71.4108 54.4797 72.0636 52.9062 72.0655 51.265V46.6221C72.0655 44.9803 71.4133 43.4057 70.2524 42.2448C69.0914 41.0839 67.5169 40.4316 65.875 40.4316C64.2332 40.4316 62.6587 41.0839 61.4977 42.2448C60.3368 43.4057 59.6846 44.9803 59.6846 46.6221V51.265C59.6864 52.9062 60.3393 54.4797 61.4998 55.6402C62.6603 56.8008 64.2338 57.4536 65.875 57.4555ZM62.7798 46.6221C62.7798 45.8012 63.1059 45.0139 63.6864 44.4335C64.2668 43.853 65.0541 43.5269 65.875 43.5269C66.696 43.5269 67.4832 43.853 68.0637 44.4335C68.6442 45.0139 68.9703 45.8012 68.9703 46.6221V51.265C68.9703 52.0859 68.6442 52.8732 68.0637 53.4536C67.4832 54.0341 66.696 54.3602 65.875 54.3602C65.0541 54.3602 64.2668 54.0341 63.6864 53.4536C63.1059 52.8732 62.7798 52.0859 62.7798 51.265V46.6221Z" fill="#B4EDFF"/>
<path d="M103.018 57.4555C104.659 57.4536 106.233 56.8008 107.393 55.6402C108.554 54.4797 109.206 52.9062 109.208 51.265V46.6221C109.208 44.9803 108.556 43.4057 107.395 42.2448C106.234 41.0839 104.66 40.4316 103.018 40.4316C101.376 40.4316 99.8015 41.0839 98.6405 42.2448C97.4796 43.4057 96.8274 44.9803 96.8274 46.6221V51.265C96.8293 52.9062 97.4821 54.4797 98.6426 55.6402C99.8031 56.8008 101.377 57.4536 103.018 57.4555ZM99.9226 46.6221C99.9226 45.8012 100.249 45.0139 100.829 44.4335C101.41 43.853 102.197 43.5269 103.018 43.5269C103.839 43.5269 104.626 43.853 105.207 44.4335C105.787 45.0139 106.113 45.8012 106.113 46.6221V51.265C106.113 52.0859 105.787 52.8732 105.207 53.4536C104.626 54.0341 103.839 54.3602 103.018 54.3602C102.197 54.3602 101.41 54.0341 100.829 53.4536C100.249 52.8732 99.9226 52.0859 99.9226 51.265V46.6221Z" fill="#B4EDFF"/>
<path d="M28.7322 57.4555C30.3735 57.4536 31.9469 56.8008 33.1075 55.6402C34.268 54.4797 34.9208 52.9062 34.9227 51.265V46.6221C34.9227 44.9803 34.2705 43.4057 33.1096 42.2448C31.9486 41.0839 30.374 40.4316 28.7322 40.4316C27.0904 40.4316 25.5158 41.0839 24.3549 42.2448C23.194 43.4057 22.5417 44.9803 22.5417 46.6221V51.265C22.5436 52.9062 23.1964 54.4797 24.357 55.6402C25.5175 56.8008 27.091 57.4536 28.7322 57.4555ZM25.637 46.6221C25.637 45.8012 25.9631 45.0139 26.5436 44.4335C27.124 43.853 27.9113 43.5269 28.7322 43.5269C29.5531 43.5269 30.3404 43.853 30.9209 44.4335C31.5014 45.0139 31.8275 45.8012 31.8275 46.6221V51.265C31.8275 52.0859 31.5014 52.8732 30.9209 53.4536C30.3404 54.0341 29.5531 54.3602 28.7322 54.3602C27.9113 54.3602 27.124 54.0341 26.5436 53.4536C25.9631 52.8732 25.637 52.0859 25.637 51.265V46.6221Z" fill="#B4EDFF"/>
<path d="M30.3651 27.6639C30.8243 27.6639 31.2731 27.5277 31.6548 27.2726C32.0366 27.0175 32.3341 26.655 32.5098 26.2308C32.6856 25.8066 32.7315 25.3399 32.642 24.8895C32.5524 24.4392 32.3313 24.0256 32.0066 23.7009C31.682 23.3763 31.2683 23.1552 30.818 23.0656C30.3677 22.976 29.9009 23.022 29.4768 23.1977C29.0526 23.3734 28.69 23.671 28.4349 24.0527C28.1799 24.4345 28.0437 24.8833 28.0437 25.3424C28.0444 25.9579 28.2892 26.5479 28.7244 26.9831C29.1596 27.4183 29.7497 27.6631 30.3651 27.6639ZM30.3651 24.1817C30.5947 24.1817 30.8191 24.2498 31.01 24.3773C31.2009 24.5049 31.3496 24.6861 31.4375 24.8982C31.5253 25.1103 31.5483 25.3437 31.5035 25.5689C31.4588 25.794 31.3482 26.0008 31.1859 26.1632C31.0236 26.3255 30.8167 26.436 30.5916 26.4808C30.3664 26.5256 30.133 26.5026 29.9209 26.4148C29.7089 26.3269 29.5276 26.1782 29.4 25.9873C29.2725 25.7964 29.2044 25.572 29.2044 25.3424C29.2047 25.0347 29.3271 24.7396 29.5447 24.522C29.7623 24.3044 30.0574 24.182 30.3651 24.1817Z" fill="#3A576A"/>
<path d="M123.996 39.7842C123.69 39.7842 123.391 39.8749 123.136 40.045C122.882 40.2151 122.683 40.4568 122.566 40.7396C122.449 41.0223 122.419 41.3335 122.478 41.6337C122.538 41.9339 122.685 42.2097 122.902 42.4261C123.118 42.6426 123.394 42.79 123.694 42.8497C123.994 42.9094 124.306 42.8787 124.588 42.7616C124.871 42.6445 125.113 42.4461 125.283 42.1916C125.453 41.9371 125.544 41.6379 125.544 41.3318C125.543 40.9215 125.38 40.5281 125.09 40.238C124.8 39.9479 124.406 39.7846 123.996 39.7842ZM123.996 42.1056C123.843 42.1056 123.693 42.0602 123.566 41.9752C123.439 41.8902 123.34 41.7693 123.281 41.6279C123.223 41.4865 123.207 41.3309 123.237 41.1808C123.267 41.0307 123.341 40.8929 123.449 40.7846C123.557 40.6764 123.695 40.6027 123.845 40.5729C123.995 40.543 124.151 40.5583 124.292 40.6169C124.434 40.6755 124.554 40.7746 124.64 40.9019C124.725 41.0291 124.77 41.1788 124.77 41.3318C124.77 41.537 124.688 41.7337 124.543 41.8787C124.398 42.0238 124.201 42.1054 123.996 42.1056Z" fill="#3A576A"/>
<path d="M7.75392 14.2485C7.44783 14.2485 7.14861 14.3393 6.89411 14.5094C6.6396 14.6794 6.44124 14.9211 6.32411 15.2039C6.20697 15.4867 6.17632 15.7979 6.23604 16.0981C6.29575 16.3983 6.44315 16.674 6.65959 16.8905C6.87603 17.1069 7.15178 17.2543 7.45199 17.314C7.7522 17.3738 8.06338 17.3431 8.34617 17.226C8.62896 17.1088 8.87066 16.9105 9.04072 16.656C9.21077 16.4015 9.30154 16.1022 9.30154 15.7962C9.30107 15.3858 9.13787 14.9925 8.84773 14.7023C8.5576 14.4122 8.16423 14.249 7.75392 14.2485ZM7.75392 16.57C7.60087 16.57 7.45127 16.5246 7.32401 16.4396C7.19676 16.3545 7.09758 16.2337 7.03901 16.0923C6.98044 15.9509 6.96512 15.7953 6.99498 15.6452C7.02484 15.4951 7.09853 15.3572 7.20675 15.249C7.31497 15.1408 7.45285 15.0671 7.60296 15.0372C7.75306 15.0074 7.90865 15.0227 8.05004 15.0812C8.19144 15.1398 8.31229 15.239 8.39732 15.3662C8.48234 15.4935 8.52773 15.6431 8.52773 15.7962C8.52752 16.0013 8.44593 16.198 8.30086 16.3431C8.15579 16.4882 7.95908 16.5698 7.75392 16.57Z" fill="#3A576A"/>
<path d="M91.3252 9.09229C91.0191 9.09229 90.7199 9.18305 90.4654 9.35311C90.2109 9.52316 90.0125 9.76487 89.8954 10.0477C89.7783 10.3304 89.7476 10.6416 89.8073 10.9418C89.867 11.242 90.0144 11.5178 90.2309 11.7342C90.4473 11.9507 90.7231 12.0981 91.0233 12.1578C91.3235 12.2175 91.6347 12.1869 91.9175 12.0697C92.2002 11.9526 92.442 11.7542 92.612 11.4997C92.7821 11.2452 92.8728 10.946 92.8728 10.6399C92.8724 10.2296 92.7092 9.83622 92.419 9.54609C92.1289 9.25596 91.7355 9.09275 91.3252 9.09229ZM91.3252 11.4137C91.1722 11.4137 91.0226 11.3683 90.8953 11.2833C90.768 11.1983 90.6689 11.0774 90.6103 10.936C90.5517 10.7946 90.5364 10.639 90.5663 10.4889C90.5961 10.3388 90.6698 10.201 90.778 10.0927C90.8863 9.98452 91.0241 9.91082 91.1742 9.88096C91.3243 9.85111 91.4799 9.86643 91.6213 9.925C91.7627 9.98357 91.8836 10.0827 91.9686 10.21C92.0536 10.3373 92.099 10.4869 92.099 10.6399C92.0988 10.8451 92.0172 11.0418 91.8721 11.1868C91.7271 11.3319 91.5304 11.4135 91.3252 11.4137Z" fill="#3A576A"/>
<path d="M68.8848 31.2722C68.8848 30.9661 68.794 30.6669 68.624 30.4124C68.4539 30.1579 68.2122 29.9596 67.9294 29.8424C67.6466 29.7253 67.3355 29.6946 67.0352 29.7543C66.735 29.8141 66.4593 29.9615 66.2428 30.1779C66.0264 30.3943 65.879 30.6701 65.8193 30.9703C65.7596 31.2705 65.7902 31.5817 65.9074 31.8645C66.0245 32.1473 66.2229 32.389 66.4774 32.559C66.7319 32.7291 67.0311 32.8198 67.3372 32.8198C67.7475 32.8194 68.1409 32.6562 68.431 32.366C68.7211 32.0759 68.8843 31.6825 68.8848 31.2722ZM66.5634 31.2722C66.5634 31.1192 66.6087 30.9696 66.6938 30.8423C66.7788 30.7151 66.8997 30.6159 67.041 30.5573C67.1824 30.4988 67.338 30.4834 67.4881 30.5133C67.6382 30.5431 67.7761 30.6168 67.8843 30.7251C67.9926 30.8333 68.0663 30.9712 68.0961 31.1213C68.126 31.2714 68.1106 31.427 68.0521 31.5684C67.9935 31.7097 67.8943 31.8306 67.7671 31.9156C67.6398 32.0007 67.4902 32.046 67.3372 32.046C67.132 32.0458 66.9353 31.9642 66.7902 31.8192C66.6452 31.6741 66.5636 31.4774 66.5634 31.2722Z" fill="#3A576A"/>
<path d="M13.4903 42.1144L14.641 40.6008L13.9144 40.1899L13.1761 41.8838H13.1514L12.4008 40.2015L11.6618 40.6256L12.8001 42.1028V42.1268L11.0195 41.8962V42.7195L12.8117 42.4897V42.5145L11.6618 43.9909L12.3513 44.4273L13.139 42.7195H13.163L13.8896 44.4149L14.6526 43.9793L13.4903 42.5261V42.5021L15.318 42.7195V41.8962L13.4903 42.1384V42.1144Z" fill="#B4EDFF"/>
<path d="M49.4556 11.9783L48.7932 12.8288L49.1909 13.0802L49.6444 12.0967H49.6583L50.0762 13.0733L50.5157 12.8218L49.8463 11.9853V11.9714L50.8987 12.0967V11.6232L49.8463 11.7624V11.7485L50.5087 10.8772L50.0909 10.6396L49.6653 11.6154H49.6513L49.2195 10.6466L48.7932 10.8911L49.4494 11.7416V11.7555L48.4241 11.6232V12.0967L49.4556 11.9644V11.9783Z" fill="#B4EDFF"/>
<path d="M95.7548 29.7463V28.9392L93.9619 29.1767V29.1527L95.0901 27.6686L94.3774 27.2646L93.6532 28.9268H93.6292L92.8933 27.2763L92.1682 27.6918L93.2848 29.1411V29.1651L91.5383 28.9392V29.7463L93.2964 29.5211V29.5451L92.1682 30.9936L92.8453 31.4216L93.6176 29.7463H93.6408L94.3534 31.4092L95.1017 30.982L93.9619 29.5567V29.5327L95.7548 29.7463Z" fill="#B4EDFF"/>
<path d="M117.978 14.7018L118.951 13.4219L118.336 13.0737L117.712 14.5076H117.691L117.056 13.0838L116.43 13.4421L117.394 14.6925V14.7127L115.888 14.5177V15.2141L117.404 15.0199V15.0408L116.43 16.2897L117.015 16.6588L117.681 15.2141H117.701L118.315 16.6487L118.962 16.2796L117.978 15.05V15.0299L119.524 15.2141V14.5177L117.978 14.7227V14.7018Z" fill="#B4EDFF"/>
<path d="M2.42262 110.074C3.27735 110.074 3.97024 109.381 3.97024 108.527C3.97024 107.672 3.27735 106.979 2.42262 106.979C1.56789 106.979 0.875 107.672 0.875 108.527C0.875 109.381 1.56789 110.074 2.42262 110.074Z" fill="#3A576A"/>
<path d="M9.38687 106.979H7.06544C6.65499 106.979 6.26134 107.142 5.97111 107.432C5.68087 107.723 5.51782 108.116 5.51782 108.527C5.51782 108.937 5.68087 109.331 5.97111 109.621C6.26134 109.911 6.65499 110.074 7.06544 110.074H9.38687C9.79732 110.074 10.191 109.911 10.4812 109.621C10.7714 109.331 10.9345 108.937 10.9345 108.527C10.9345 108.116 10.7714 107.723 10.4812 107.432C10.191 107.142 9.79732 106.979 9.38687 106.979Z" fill="#3A576A"/>
<path d="M124.684 106.979H122.363C121.953 106.979 121.559 107.142 121.269 107.432C120.978 107.723 120.815 108.116 120.815 108.527C120.815 108.937 120.978 109.331 121.269 109.621C121.559 109.911 121.953 110.074 122.363 110.074H124.684C125.095 110.074 125.489 109.911 125.779 109.621C126.069 109.331 126.232 108.937 126.232 108.527C126.232 108.116 126.069 107.723 125.779 107.432C125.489 107.142 125.095 106.979 124.684 106.979Z" fill="#3A576A"/>
<path d="M129.327 110.074C130.182 110.074 130.875 109.381 130.875 108.527C130.875 107.672 130.182 106.979 129.327 106.979C128.473 106.979 127.78 107.672 127.78 108.527C127.78 109.381 128.473 110.074 129.327 110.074Z" fill="#3A576A"/>
<path d="M92.3035 113.169H85.8749C85.4858 113.201 85.1228 113.377 84.858 113.664C84.5933 113.951 84.4463 114.327 84.4463 114.717C84.4463 115.107 84.5933 115.483 84.858 115.77C85.1228 116.057 85.4858 116.233 85.8749 116.265H92.3035C92.6925 116.233 93.0556 116.057 93.3203 115.77C93.585 115.483 93.7321 115.107 93.7321 114.717C93.7321 114.327 93.585 113.951 93.3203 113.664C93.0556 113.377 92.6925 113.201 92.3035 113.169Z" fill="#B4EDFF"/>
<path d="M45.875 113.169H39.4464C39.0573 113.201 38.6943 113.377 38.4296 113.664C38.1648 113.951 38.0178 114.327 38.0178 114.717C38.0178 115.107 38.1648 115.483 38.4296 115.77C38.6943 116.057 39.0573 116.233 39.4464 116.265H45.875C46.2641 116.233 46.6271 116.057 46.8918 115.77C47.1566 115.483 47.3036 115.107 47.3036 114.717C47.3036 114.327 47.1566 113.951 46.8918 113.664C46.6271 113.377 46.2641 113.201 45.875 113.169Z" fill="#B4EDFF"/>
<path d="M81.3511 113.169H50.3987C49.9882 113.169 49.5946 113.332 49.3044 113.623C49.0141 113.913 48.8511 114.307 48.8511 114.717C48.8511 115.128 49.0141 115.521 49.3044 115.811C49.5946 116.102 49.9882 116.265 50.3987 116.265H62.7332V117.812H56.5892C56.1787 117.812 55.7851 117.975 55.4948 118.266C55.2046 118.556 55.0416 118.949 55.0416 119.36C55.0416 119.77 55.2046 120.164 55.4948 120.454C55.7851 120.744 56.1787 120.908 56.5892 120.908H75.9344C76.3449 120.908 76.7385 120.744 77.0287 120.454C77.319 120.164 77.482 119.77 77.482 119.36C77.482 118.949 77.319 118.556 77.0287 118.266C76.7385 117.975 76.3449 117.812 75.9344 117.812H69.0165V116.265H81.3511C81.7615 116.265 82.1552 116.102 82.4454 115.811C82.7356 115.521 82.8987 115.128 82.8987 114.717C82.8987 114.307 82.7356 113.913 82.4454 113.623C82.1552 113.332 81.7615 113.169 81.3511 113.169Z" fill="#B4EDFF"/>
<path d="M117.505 106.979H110.317C110.32 106.959 110.328 106.94 110.331 106.919L114.304 84.1859C114.647 83.8619 114.92 83.4721 115.108 83.0397C115.296 82.6074 115.395 82.1415 115.399 81.67V62.9565C115.419 61.5101 114.983 60.0941 114.152 58.91C113.322 57.7259 112.138 56.8341 110.771 56.3613C110.08 57.4099 109.185 58.3086 108.138 59.0036C110.591 59.0082 112.304 60.6315 112.304 62.9565V81.67C112.304 81.9284 111.955 82.2171 111.489 82.2171H109.208V74.479C109.208 74.0685 109.045 73.6749 108.755 73.3846C108.465 73.0944 108.071 72.9314 107.661 72.9314C107.25 72.9314 106.857 73.0944 106.566 73.3846C106.276 73.6749 106.113 74.0685 106.113 74.479V82.2171H99.9226V74.479C99.9226 74.0685 99.7596 73.6749 99.4693 73.3846C99.1791 73.0944 98.7855 72.9314 98.375 72.9314C97.9645 72.9314 97.5709 73.0944 97.2807 73.3846C96.9904 73.6749 96.8274 74.0685 96.8274 74.479V82.2171H94.5468C94.0805 82.2171 93.7321 81.9284 93.7321 81.67V62.9565C93.7321 60.6315 95.4446 59.0082 97.8973 59.0036C96.8511 58.3086 95.9557 57.4099 95.2644 56.3613C93.8973 56.8341 92.7142 57.7259 91.8833 58.91C91.0525 60.0941 90.6164 61.5101 90.6369 62.9565V81.67C90.6404 82.1415 90.7393 82.6074 90.9274 83.0398C91.1155 83.4722 91.3891 83.8621 91.7317 84.1861L95.6999 106.886C95.7043 106.918 95.7165 106.947 95.7217 106.979H73.1739C73.1772 106.959 73.1855 106.94 73.1884 106.919L77.1613 84.186C77.5038 83.862 77.7774 83.4721 77.9655 83.0397C78.1536 82.6074 78.2524 82.1415 78.256 81.67V62.9565C78.2765 61.5101 77.8403 60.0941 77.0095 58.91C76.1787 57.7259 74.9956 56.8341 73.6285 56.3613C72.9371 57.4099 72.0417 58.3086 70.9956 59.0036C73.4483 59.0082 75.1607 60.6315 75.1607 62.9565V81.67C75.1607 81.9284 74.8123 82.2171 74.3461 82.2171H72.0655V74.479C72.0655 74.0685 71.9024 73.6749 71.6122 73.3846C71.322 73.0944 70.9283 72.9314 70.5179 72.9314C70.1074 72.9314 69.7138 73.0944 69.4235 73.3846C69.1333 73.6749 68.9702 74.0685 68.9702 74.479V82.2171H62.7798V74.479C62.7798 74.0685 62.6167 73.6749 62.3265 73.3846C62.0362 73.0944 61.6426 72.9314 61.2321 72.9314C60.8217 72.9314 60.428 73.0944 60.1378 73.3846C59.8476 73.6749 59.6845 74.0685 59.6845 74.479V82.2171H57.4039C56.9376 82.2171 56.5893 81.9284 56.5893 81.67V62.9565C56.5893 60.6315 58.3017 59.0082 60.7544 59.0036C59.7083 58.3086 58.8129 57.4099 58.1215 56.3613C56.7544 56.8341 55.5713 57.7259 54.7405 58.91C53.9097 60.0941 53.4735 61.5101 53.494 62.9565V81.67C53.4976 82.1415 53.5964 82.6074 53.7845 83.0398C53.9727 83.4722 54.2463 83.8621 54.5889 84.1861L58.5571 106.886C58.5614 106.918 58.5737 106.947 58.5789 106.979H36.031C36.0343 106.959 36.0426 106.94 36.0455 106.919L40.0184 84.1859C40.361 83.8619 40.6345 83.4721 40.8226 83.0397C41.0108 82.6074 41.1096 82.1415 41.1131 81.67V62.9565C41.1336 61.5101 40.6975 60.0941 39.8666 58.91C39.0358 57.7259 37.8527 56.8341 36.4856 56.3613C35.7943 57.4099 34.8988 58.3086 33.8527 59.0036C36.3054 59.0082 38.0179 60.6315 38.0179 62.9565V81.67C38.0179 81.9284 37.6695 82.2171 37.2032 82.2171H34.9226V74.479C34.9226 74.0685 34.7596 73.6749 34.4693 73.3846C34.1791 73.0944 33.7854 72.9314 33.375 72.9314C32.9645 72.9314 32.5709 73.0944 32.2807 73.3846C31.9904 73.6749 31.8274 74.0685 31.8274 74.479V82.2171H25.6369V74.479C25.6369 74.0685 25.4738 73.6749 25.1836 73.3846C24.8934 73.0944 24.4997 72.9314 24.0893 72.9314C23.6788 72.9314 23.2852 73.0944 22.9949 73.3846C22.7047 73.6749 22.5417 74.0685 22.5417 74.479V82.2171H20.261C19.7948 82.2171 19.4464 81.9284 19.4464 81.67V62.9565C19.4464 60.6315 21.1589 59.0082 23.6116 59.0036C22.5654 58.3086 21.67 57.4099 20.9786 56.3613C19.6116 56.8341 18.4284 57.7259 17.5976 58.91C16.7668 60.0941 16.3306 61.5101 16.3512 62.9565V81.67C16.3547 82.1415 16.4535 82.6074 16.6417 83.0398C16.8298 83.4722 17.1034 83.8621 17.446 84.1861L21.4142 106.886C21.4186 106.918 21.4308 106.947 21.436 106.979H14.2454C14.0252 106.95 13.8015 106.969 13.589 107.033C13.3766 107.098 13.1804 107.207 13.0135 107.354C12.8467 107.5 12.713 107.681 12.6214 107.883C12.5298 108.085 12.4824 108.305 12.4824 108.527C12.4824 108.749 12.5298 108.968 12.6214 109.17C12.713 109.373 12.8467 109.553 13.0135 109.7C13.1804 109.846 13.3766 109.955 13.589 110.02C13.8015 110.084 14.0252 110.103 14.2454 110.074H117.505C117.725 110.103 117.949 110.084 118.161 110.02C118.373 109.955 118.57 109.846 118.736 109.7C118.903 109.553 119.037 109.373 119.129 109.17C119.22 108.968 119.268 108.749 119.268 108.527C119.268 108.305 119.22 108.085 119.129 107.883C119.037 107.681 118.903 107.5 118.736 107.354C118.57 107.207 118.373 107.098 118.161 107.033C117.949 106.969 117.725 106.95 117.505 106.979ZM30.2798 106.979V92.3673C30.2798 91.9568 30.1167 91.5632 29.8265 91.2729C29.5362 90.9827 29.1426 90.8197 28.7321 90.8197C28.3217 90.8197 27.928 90.9827 27.6378 91.2729C27.3476 91.5632 27.1845 91.9568 27.1845 92.3673V106.979H25.1646C24.9996 106.986 24.8378 106.931 24.7101 106.827C24.5824 106.722 24.4975 106.574 24.4717 106.411L20.7846 85.3123H36.6796L32.9926 106.411C32.9888 106.43 32.9858 106.45 32.9836 106.469C32.9476 106.621 32.8594 106.755 32.7343 106.848C32.6093 106.942 32.4554 106.988 32.2997 106.979L30.2798 106.979ZM67.4226 106.979V92.3673C67.4226 91.9568 67.2596 91.5632 66.9693 91.2729C66.6791 90.9827 66.2854 90.8197 65.875 90.8197C65.4645 90.8197 65.0709 90.9827 64.7807 91.2729C64.4904 91.5632 64.3274 91.9568 64.3274 92.3673V106.979H62.3075C62.1424 106.986 61.9807 106.931 61.853 106.827C61.7252 106.722 61.6404 106.574 61.6145 106.411L57.9275 85.3123H73.8225L70.1355 106.411C70.1317 106.43 70.1287 106.45 70.1264 106.469C70.0905 106.621 70.0023 106.755 69.8772 106.848C69.7522 106.942 69.5983 106.988 69.4425 106.979L67.4226 106.979ZM104.565 106.979V92.3673C104.565 91.9568 104.402 91.5632 104.112 91.2729C103.822 90.9827 103.428 90.8197 103.018 90.8197C102.607 90.8197 102.214 90.9827 101.924 91.2729C101.633 91.5632 101.47 91.9568 101.47 92.3673V106.979H99.4503C99.2853 106.986 99.1235 106.931 98.9958 106.827C98.8681 106.722 98.7832 106.574 98.7574 106.411L95.0703 85.3123H110.965L107.278 106.411C107.275 106.43 107.272 106.45 107.269 106.469C107.233 106.621 107.145 106.755 107.02 106.848C106.895 106.942 106.741 106.988 106.585 106.979L104.565 106.979Z" fill="#3A576A"/>
</g>
<defs>
<clipPath id="clip0_2055_954">
<rect width="130" height="130" fill="white" transform="translate(0.875)"/>
</clipPath>
</defs>
</svg>
