<svg width="140" height="140" viewBox="0 0 140 140" fill="none" xmlns="http://www.w3.org/2000/svg">
<path d="M98.4616 130.241H91.5385C91.1195 130.275 90.7285 130.465 90.4434 130.774C90.1583 131.083 90 131.488 90 131.908C90 132.328 90.1583 132.733 90.4434 133.042C90.7285 133.351 91.1195 133.541 91.5385 133.575H98.4616C98.8806 133.541 99.2715 133.351 99.5566 133.042C99.8417 132.733 100 132.328 100 131.908C100 131.488 99.8417 131.083 99.5566 130.774C99.2715 130.465 98.8806 130.275 98.4616 130.241Z" fill="#FDB549"/>
<path d="M48.4616 130.241H41.5385C41.1195 130.275 40.7285 130.465 40.4434 130.774C40.1583 131.083 40 131.488 40 131.908C40 132.328 40.1583 132.733 40.4434 133.042C40.7285 133.351 41.1195 133.541 41.5385 133.575H48.4616C48.8806 133.541 49.2715 133.351 49.5566 133.042C49.8417 132.733 50 132.328 50 131.908C50 131.488 49.8417 131.083 49.5566 130.774C49.2715 130.465 48.8806 130.275 48.4616 130.241Z" fill="#FDB549"/>
<path d="M86.6666 130.241H53.3333C52.8913 130.241 52.4673 130.417 52.1548 130.729C51.8422 131.042 51.6666 131.466 51.6666 131.908C51.6666 132.35 51.8422 132.774 52.1548 133.086C52.4673 133.399 52.8913 133.575 53.3333 133.575H66.6166V135.241H60C59.5579 135.241 59.134 135.417 58.8214 135.729C58.5089 136.042 58.3333 136.466 58.3333 136.908C58.3333 137.35 58.5089 137.774 58.8214 138.086C59.134 138.399 59.5579 138.575 60 138.575H80.8333C81.2753 138.575 81.6992 138.399 82.0118 138.086C82.3244 137.774 82.5 137.35 82.5 136.908C82.5 136.466 82.3244 136.042 82.0118 135.729C81.6992 135.417 81.2753 135.241 80.8333 135.241H73.3833V133.575H86.6666C87.1087 133.575 87.5326 133.399 87.8451 133.086C88.1577 132.774 88.3333 132.35 88.3333 131.908C88.3333 131.466 88.1577 131.042 87.8451 130.729C87.5326 130.417 87.1087 130.241 86.6666 130.241Z" fill="#FDB549"/>
<path d="M42.5 66.8933C39.864 66.8942 37.2874 67.6767 35.0961 69.1418C32.9048 70.607 31.1972 72.689 30.1891 75.1246C29.1809 77.5602 28.9176 80.24 29.4325 82.8252C29.9473 85.4105 31.2171 87.785 33.0814 89.6486C34.9456 91.5122 37.3206 92.7812 39.906 93.2951C42.4914 93.809 45.1711 93.5447 47.6064 92.5358C50.0416 91.5268 52.123 89.8184 53.5874 87.6266C55.0518 85.4347 55.8333 82.8579 55.8333 80.2219C55.8333 78.4712 55.4883 76.7376 54.8182 75.1202C54.1481 73.5029 53.1659 72.0333 51.9277 70.7956C50.6895 69.5579 49.2196 68.5762 47.602 67.9066C45.9844 67.2371 44.2507 66.8927 42.5 66.8933ZM42.5 90.2185C40.523 90.2178 38.5906 89.6309 36.9472 88.5321C35.3037 87.4332 34.023 85.8718 33.2669 84.0451C32.5108 82.2184 32.3134 80.2086 32.6995 78.2697C33.0856 76.3308 34.0379 74.5499 35.4361 73.1522C36.8343 71.7545 38.6155 70.8028 40.5545 70.4173C42.4935 70.0319 44.5033 70.2301 46.3297 70.9868C48.1561 71.7435 49.7172 73.0247 50.8155 74.6686C51.9137 76.3124 52.5 78.245 52.5 80.2219C52.4965 82.8727 51.4417 85.4139 49.567 87.288C47.6923 89.162 45.1508 90.216 42.5 90.2185Z" fill="#FDB549"/>
<path d="M97.5 93.5508C100.136 93.5499 102.712 92.7674 104.904 91.3023C107.095 89.8372 108.803 87.7552 109.811 85.3196C110.819 82.884 111.082 80.2042 110.567 77.619C110.053 75.0338 108.783 72.6592 106.919 70.7956C105.054 68.932 102.679 67.663 100.094 67.1491C97.5087 66.6352 94.8289 66.8994 92.3937 67.9083C89.9585 68.9173 87.877 70.6256 86.4127 72.8174C84.9483 75.0092 84.1666 77.586 84.1666 80.222C84.1667 81.9727 84.5117 83.7063 85.1818 85.3237C85.8519 86.941 86.8341 88.4106 88.0723 89.6483C89.3105 90.8861 90.7803 91.8678 92.3979 92.5374C94.0156 93.207 95.7492 93.5513 97.5 93.5508ZM97.5 70.2255C99.4769 70.2262 101.409 70.8131 103.053 71.9119C104.696 73.0108 105.977 74.5723 106.733 76.399C107.489 78.2257 107.687 80.2355 107.3 82.1744C106.914 84.1133 105.962 85.8942 104.564 87.2919C103.166 88.6895 101.384 89.6413 99.4453 90.0267C97.5063 90.4121 95.4965 90.2139 93.6701 89.4572C91.8437 88.7005 90.2827 87.4192 89.1844 85.7754C88.0861 84.1315 87.4999 82.1989 87.5 80.222C87.5034 77.5712 88.5582 75.03 90.4329 73.156C92.3076 71.2819 94.8492 70.228 97.5 70.2255Z" fill="#FDB549"/>
<path d="M35.8333 60.8667C38.3852 60.8692 40.9134 60.378 43.2788 59.4203L51.7025 64.1786C52.0029 64.3409 52.3451 64.4097 52.685 64.3763C53.0248 64.3428 53.347 64.2085 53.61 63.9907C53.8698 63.7672 54.0543 63.4689 54.1383 63.1367C54.2224 62.8044 54.2019 62.4544 54.0796 62.1342L50.9204 53.8582C53.5433 50.7059 54.9858 46.7381 55 42.6373C55 32.5854 46.4021 24.408 35.8333 24.408C25.2644 24.408 16.6666 32.5855 16.6666 42.6373C16.6666 52.6892 25.2644 60.8667 35.8333 60.8667ZM35.8333 27.74C44.5638 27.74 51.6666 34.4232 51.6666 42.6373C51.6463 46.2609 50.2588 49.7434 47.7815 52.3881C47.571 52.6159 47.4283 52.8981 47.3696 53.2027C47.311 53.5073 47.3386 53.8223 47.4495 54.112L49.3164 59.0029L44.2008 56.1133C43.9723 55.9843 43.7165 55.911 43.4544 55.8994C43.1922 55.8879 42.931 55.9383 42.692 56.0466C40.539 57.029 38.1998 57.5365 35.8333 57.5346C27.1028 57.5346 20 50.8514 20 42.6373C20 34.4232 27.1028 27.74 35.8333 27.74Z" fill="#466B83"/>
<path d="M35.7533 54.3992C36.6738 54.3992 37.42 53.653 37.42 52.7325C37.42 51.812 36.6738 51.0659 35.7533 51.0659C34.8329 51.0659 34.0867 51.812 34.0867 52.7325C34.0867 53.653 34.8329 54.3992 35.7533 54.3992Z" fill="#466B83"/>
<path d="M30.8333 40.4873C31.2752 40.4873 31.6991 40.3118 32.0117 39.9993C32.3242 39.6869 32.4999 39.2631 32.5 38.8211C32.5063 38.4825 32.5817 38.1487 32.7217 37.8402C32.8616 37.5317 33.0631 37.2551 33.3138 37.0273C33.6773 36.6924 34.1054 36.4352 34.5718 36.2715C35.0382 36.1079 35.5331 36.0411 36.0262 36.0755C37.6749 36.1511 39.082 37.321 39.1626 38.6829C39.1657 39.2541 38.9897 39.812 38.6593 40.278C38.329 40.7441 37.8609 41.0949 37.3209 41.2812C36.4134 41.6287 35.6294 42.2375 35.0679 43.0306C34.5065 43.8237 34.1928 44.7655 34.1666 45.7369V47.6211C34.1666 48.0631 34.3422 48.487 34.6548 48.7996C34.9673 49.1121 35.3913 49.2877 35.8333 49.2877C36.2753 49.2877 36.6992 49.1121 37.0118 48.7996C37.3244 48.487 37.5 48.0631 37.5 47.6211V45.7369C37.5292 45.4247 37.649 45.1277 37.8448 44.8827C38.0406 44.6377 38.3037 44.4553 38.6019 44.3579C39.7848 43.9118 40.7972 43.1043 41.4951 42.05C42.1929 40.9957 42.5408 39.7484 42.4894 38.4851C42.3087 35.4222 39.5369 32.9011 36.1799 32.7466C35.237 32.6959 34.2935 32.8355 33.4056 33.1569C32.5176 33.4784 31.7035 33.9752 31.0115 34.6177C30.4334 35.1553 29.9714 35.8056 29.6542 36.5285C29.3369 37.2515 29.171 38.0317 29.1666 38.8211C29.1667 39.2631 29.3424 39.6869 29.6549 39.9993C29.9675 40.3118 30.3913 40.4873 30.8333 40.4873Z" fill="#FDB549"/>
<path d="M104.087 54.3992C105.007 54.3992 105.753 53.653 105.753 52.7325C105.753 51.812 105.007 51.0659 104.087 51.0659C103.166 51.0659 102.42 51.812 102.42 52.7325C102.42 53.653 103.166 54.3992 104.087 54.3992Z" fill="#466B83"/>
<path d="M99.1667 40.4873C99.6086 40.4873 100.032 40.3118 100.345 39.9993C100.658 39.6869 100.833 39.2631 100.833 38.8211C100.84 38.4824 100.915 38.1486 101.055 37.8402C101.195 37.5317 101.396 37.2551 101.647 37.0273C102.011 36.6924 102.439 36.4352 102.905 36.2715C103.372 36.1078 103.866 36.0411 104.36 36.0754C106.008 36.1511 107.415 37.321 107.496 38.6829C107.499 39.2541 107.323 39.812 106.993 40.278C106.662 40.7441 106.194 41.0949 105.654 41.2812C104.747 41.6287 103.963 42.2375 103.401 43.0306C102.84 43.8237 102.526 44.7655 102.5 45.7369V47.6211C102.5 48.0631 102.676 48.487 102.988 48.7996C103.301 49.1121 103.725 49.2877 104.167 49.2877C104.609 49.2877 105.033 49.1121 105.345 48.7996C105.658 48.487 105.833 48.0631 105.833 47.6211V45.7369C105.863 45.4246 105.982 45.1277 106.178 44.8827C106.374 44.6377 106.637 44.4553 106.935 44.3579C108.118 43.9118 109.131 43.1042 109.828 42.05C110.526 40.9957 110.874 39.7484 110.823 38.4851C110.642 35.4222 107.87 32.9011 104.513 32.7466C103.57 32.6961 102.627 32.8358 101.739 33.1572C100.851 33.4786 100.037 33.9753 99.3449 34.6177C98.7667 35.1553 98.3048 35.8056 97.9875 36.5285C97.6702 37.2514 97.5043 38.0316 97.5 38.8211C97.5001 39.2631 97.6757 39.6869 97.9883 39.9993C98.3008 40.3118 98.7247 40.4873 99.1667 40.4873Z" fill="#FDB549"/>
<path d="M85.9204 62.1342C85.7981 62.4543 85.7776 62.8044 85.8616 63.1367C85.9457 63.4689 86.1302 63.7672 86.39 63.9907C86.6523 64.2099 86.9745 64.3451 87.3148 64.3786C87.655 64.4122 87.9975 64.3425 88.2975 64.1787L96.7212 59.4203C99.0865 60.378 101.615 60.8692 104.167 60.8667C114.736 60.8667 123.333 52.6892 123.333 42.6373C123.333 32.5855 114.736 24.408 104.167 24.408C93.5978 24.408 85 32.5855 85 42.6373C85.0142 46.7381 86.4567 50.7059 89.0796 53.8582L85.9204 62.1342ZM88.3333 42.6373C88.3333 34.4232 95.4362 27.7401 104.167 27.7401C112.897 27.7401 120 34.4232 120 42.6373C120 50.8514 112.897 57.5346 104.167 57.5346C101.8 57.5365 99.4609 57.029 97.3079 56.0467C97.0688 55.9387 96.8077 55.8885 96.5456 55.9001C96.2835 55.9117 96.0278 55.9847 95.7991 56.1133L90.6836 59.003L92.5504 54.1122C92.6613 53.8225 92.689 53.5075 92.6303 53.2029C92.5717 52.8982 92.429 52.6161 92.2184 52.3883C89.7411 49.7435 88.3536 46.261 88.3333 42.6373Z" fill="#466B83"/>
<path d="M65.389 69.3119L71.8523 67.7597L66.6805 77.7929C66.4791 78.1858 66.4418 78.6426 66.5769 79.063C66.7119 79.4834 67.0082 79.8331 67.4008 80.0352C67.7933 80.2373 68.2501 80.2755 68.6707 80.1412C69.0914 80.0069 69.4416 79.7112 69.6444 79.319L76.482 66.0538C76.6279 65.7701 76.6894 65.4505 76.6591 65.1329C76.6288 64.8153 76.5079 64.5131 76.3109 64.2622C76.1139 64.0113 75.849 63.8222 75.5476 63.7174C75.2463 63.6126 74.9213 63.5965 74.611 63.671L68.1071 65.2321L72.7743 55.9807C72.9724 55.5861 73.0059 55.1289 72.8672 54.7096C72.7286 54.2903 72.4292 53.9432 72.0348 53.7444C71.6404 53.5457 71.1833 53.5116 70.7638 53.6496C70.3443 53.7876 69.9967 54.0865 69.7974 54.4806L63.5116 66.9421C63.3685 67.226 63.3096 67.5448 63.3418 67.861C63.3741 68.1772 63.496 68.4775 63.6934 68.7267C63.8908 68.9758 64.1553 69.1633 64.4557 69.267C64.7562 69.3707 65.08 69.3863 65.389 69.3119Z" fill="#FDB549"/>
<path d="M1.66667 126.908C2.58714 126.908 3.33333 126.162 3.33333 125.242C3.33333 124.321 2.58714 123.575 1.66667 123.575C0.746192 123.575 0 124.321 0 125.242C0 126.162 0.746192 126.908 1.66667 126.908Z" fill="#466B83"/>
<path d="M9.16667 123.575H6.66667C6.22464 123.575 5.80072 123.75 5.48816 124.063C5.17559 124.375 5 124.799 5 125.241C5 125.683 5.17559 126.107 5.48816 126.42C5.80072 126.732 6.22464 126.908 6.66667 126.908H9.16667C9.60869 126.908 10.0326 126.732 10.3452 126.42C10.6577 126.107 10.8333 125.683 10.8333 125.241C10.8333 124.799 10.6577 124.375 10.3452 124.063C10.0326 123.75 9.60869 123.575 9.16667 123.575Z" fill="#466B83"/>
<path d="M133.333 123.575H130.833C130.391 123.575 129.967 123.75 129.655 124.063C129.342 124.375 129.167 124.799 129.167 125.241C129.167 125.683 129.342 126.107 129.655 126.42C129.967 126.732 130.391 126.908 130.833 126.908H133.333C133.775 126.908 134.199 126.732 134.512 126.42C134.824 126.107 135 125.683 135 125.241C135 124.799 134.824 124.375 134.512 124.063C134.199 123.75 133.775 123.575 133.333 123.575Z" fill="#466B83"/>
<path d="M138.333 126.908C139.254 126.908 140 126.162 140 125.242C140 124.321 139.254 123.575 138.333 123.575C137.413 123.575 136.667 124.321 136.667 125.242C136.667 126.162 137.413 126.908 138.333 126.908Z" fill="#466B83"/>
<path d="M125.601 123.575H123.333V105.625C123.333 97.5844 117.609 92.1066 110.841 90.1668C110.074 91.198 109.193 92.1378 108.212 92.9679C114.341 94.0099 120 98.3684 120 105.625V123.575H113.333V121.076C113.333 120.634 113.158 120.21 112.845 119.898C112.533 119.585 112.109 119.41 111.667 119.41C111.225 119.41 110.801 119.585 110.488 119.898C110.176 120.21 110 120.634 110 121.076V123.575H85.0001V121.076C85.0001 120.634 84.8245 120.21 84.5119 119.898C84.1993 119.585 83.7754 119.41 83.3334 119.41C82.8914 119.41 82.4674 119.585 82.1549 119.898C81.8423 120.21 81.6667 120.634 81.6667 121.076V123.575H75.0001V105.625C75.0001 98.3683 80.6592 94.0099 86.788 92.9679C85.8076 92.1378 84.9257 91.198 84.1596 90.1668C77.3908 92.1066 71.6667 97.5844 71.6667 105.625V123.575H68.3334V105.625C68.3334 97.5844 62.6093 92.1066 55.8405 90.1668C55.0744 91.198 54.1925 92.1378 53.2121 92.9679C59.3409 94.0099 65.0001 98.3684 65.0001 105.625V123.575H58.3334V121.076C58.3334 120.634 58.1578 120.21 57.8452 119.898C57.5327 119.585 57.1088 119.41 56.6667 119.41C56.2247 119.41 55.8008 119.585 55.4882 119.898C55.1757 120.21 55.0001 120.634 55.0001 121.076V123.575H30.0001V121.076C30.0001 120.634 29.8245 120.21 29.5119 119.898C29.1993 119.585 28.7754 119.41 28.3334 119.41C27.8914 119.41 27.4674 119.585 27.1549 119.898C26.8423 120.21 26.6667 120.634 26.6667 121.076V123.575H20.0001V105.625C20.0001 98.3683 25.6592 94.0099 31.788 92.9679C30.8076 92.1378 29.9257 91.198 29.1596 90.1668C22.3908 92.1066 16.6667 97.5844 16.6667 105.625V123.575H14.399C14.1619 123.544 13.9209 123.564 13.6921 123.633C13.4633 123.703 13.252 123.82 13.0723 123.978C12.8926 124.136 12.7487 124.33 12.65 124.548C12.5514 124.766 12.5004 125.002 12.5004 125.241C12.5004 125.48 12.5514 125.717 12.65 125.935C12.7487 126.152 12.8926 126.347 13.0723 126.504C13.252 126.662 13.4633 126.78 13.6921 126.849C13.9209 126.919 14.1619 126.939 14.399 126.908H125.601C125.838 126.939 126.079 126.919 126.308 126.849C126.537 126.78 126.748 126.662 126.928 126.504C127.107 126.347 127.251 126.152 127.35 125.935C127.449 125.717 127.5 125.48 127.5 125.241C127.5 125.002 127.449 124.766 127.35 124.548C127.251 124.33 127.107 124.136 126.928 123.978C126.748 123.82 126.537 123.703 126.308 123.633C126.079 123.564 125.838 123.544 125.601 123.575Z" fill="#466B83"/>
<path d="M6.66663 17.3089C7.16108 17.3089 7.64443 17.1623 8.05555 16.8876C8.46667 16.6129 8.78711 16.2224 8.97633 15.7656C9.16554 15.3088 9.21505 14.8061 9.11859 14.3212C9.02213 13.8362 8.78402 13.3908 8.43439 13.0411C8.08476 12.6915 7.6393 12.4534 7.15435 12.3569C6.6694 12.2605 6.16673 12.31 5.70992 12.4992C5.2531 12.6884 4.86266 13.0089 4.58795 13.42C4.31325 13.8311 4.16663 14.3144 4.16663 14.8089C4.16738 15.4717 4.43102 16.1072 4.8997 16.5758C5.36837 17.0445 6.00382 17.3081 6.66663 17.3089ZM6.66663 13.5589C6.91385 13.5589 7.15553 13.6322 7.36109 13.7696C7.56665 13.9069 7.72687 14.1021 7.82148 14.3305C7.91609 14.559 7.94084 14.8103 7.89261 15.0528C7.84438 15.2952 7.72533 15.518 7.55051 15.6928C7.37569 15.8676 7.15297 15.9866 6.91049 16.0349C6.66801 16.0831 6.41668 16.0584 6.18827 15.9637C5.95986 15.8691 5.76464 15.7089 5.62729 15.5034C5.48994 15.2978 5.41663 15.0561 5.41663 14.8089C5.41695 14.4775 5.54875 14.1597 5.7831 13.9254C6.01745 13.691 6.33521 13.5592 6.66663 13.5589Z" fill="#466B83"/>
<path d="M136.667 13.1423C136.337 13.1423 136.015 13.24 135.741 13.4232C135.467 13.6063 135.253 13.8666 135.127 14.1711C135.001 14.4757 134.968 14.8108 135.032 15.1341C135.096 15.4574 135.255 15.7544 135.488 15.9875C135.721 16.2205 136.018 16.3793 136.342 16.4436C136.665 16.5079 137 16.4749 137.304 16.3487C137.609 16.2226 137.869 16.009 138.052 15.7349C138.236 15.4608 138.333 15.1386 138.333 14.8089C138.333 14.3671 138.157 13.9434 137.845 13.631C137.532 13.3185 137.109 13.1428 136.667 13.1423ZM136.667 15.6423C136.502 15.6423 136.341 15.5934 136.204 15.5018C136.067 15.4103 135.96 15.2801 135.897 15.1278C135.834 14.9756 135.817 14.808 135.849 14.6464C135.881 14.4847 135.961 14.3362 136.077 14.2197C136.194 14.1031 136.342 14.0238 136.504 13.9916C136.666 13.9595 136.833 13.976 136.986 14.039C137.138 14.1021 137.268 14.2089 137.36 14.346C137.451 14.483 137.5 14.6441 137.5 14.8089C137.5 15.0299 137.412 15.2417 137.256 15.398C137.099 15.5542 136.888 15.6421 136.667 15.6423Z" fill="#466B83"/>
<path d="M80.2539 4.3222C79.9243 4.3222 79.6021 4.41995 79.328 4.60309C79.0539 4.78622 78.8403 5.04652 78.7141 5.35107C78.588 5.65561 78.555 5.99072 78.6193 6.31402C78.6836 6.63732 78.8423 6.9343 79.0754 7.16738C79.3085 7.40047 79.6055 7.5592 79.9288 7.62351C80.2521 7.68782 80.5872 7.65482 80.8918 7.52867C81.1963 7.40252 81.4566 7.1889 81.6397 6.91482C81.8229 6.64074 81.9206 6.31851 81.9206 5.98887C81.9201 5.547 81.7444 5.12337 81.4319 4.81092C81.1195 4.49847 80.6958 4.32271 80.2539 4.3222ZM80.2539 6.8222C80.0891 6.8222 79.928 6.77333 79.791 6.68176C79.6539 6.59019 79.5471 6.46005 79.484 6.30777C79.421 6.1555 79.4045 5.98795 79.4366 5.8263C79.4688 5.66465 79.5481 5.51616 79.6647 5.39962C79.7812 5.28307 79.9297 5.2037 80.0914 5.17155C80.253 5.1394 80.4206 5.1559 80.5729 5.21897C80.7251 5.28204 80.8553 5.38885 80.9468 5.5259C81.0384 5.66294 81.0873 5.82405 81.0873 5.98887C81.0871 6.20982 80.9992 6.42165 80.843 6.57788C80.6867 6.73412 80.4749 6.82198 80.2539 6.8222Z" fill="#466B83"/>
<path d="M121.667 2.65552C121.337 2.65552 121.015 2.75327 120.741 2.9364C120.467 3.11954 120.253 3.37984 120.127 3.68438C120.001 3.98892 119.968 4.32403 120.032 4.64734C120.096 4.97064 120.255 5.26761 120.488 5.5007C120.721 5.73378 121.018 5.89252 121.342 5.95683C121.665 6.02114 122 5.98813 122.304 5.86198C122.609 5.73584 122.869 5.52222 123.052 5.24813C123.236 4.97405 123.333 4.65182 123.333 4.32218C123.333 3.88031 123.157 3.45668 122.845 3.14423C122.532 2.83178 122.109 2.65602 121.667 2.65552ZM121.667 5.15552C121.502 5.15552 121.341 5.10664 121.204 5.01508C121.067 4.92351 120.96 4.79336 120.897 4.64109C120.834 4.48882 120.817 4.32126 120.849 4.15961C120.881 3.99796 120.961 3.84947 121.077 3.73293C121.194 3.61638 121.342 3.53702 121.504 3.50486C121.666 3.47271 121.833 3.48921 121.986 3.55228C122.138 3.61536 122.268 3.72217 122.36 3.85921C122.451 3.99625 122.5 4.15737 122.5 4.32218C122.5 4.54313 122.412 4.75496 122.256 4.9112C122.099 5.06743 121.888 5.1553 121.667 5.15552Z" fill="#466B83"/>
<path d="M6.66671 47.0511C6.66671 46.7214 6.56896 46.3992 6.38582 46.1251C6.20269 45.851 5.94239 45.6374 5.63785 45.5113C5.3333 45.3851 4.99819 45.3521 4.67489 45.4164C4.35159 45.4807 4.05462 45.6395 3.82153 45.8726C3.58844 46.1056 3.42971 46.4026 3.3654 46.7259C3.30109 47.0492 3.3341 47.3843 3.46024 47.6889C3.58639 47.9934 3.80001 48.2537 4.07409 48.4369C4.34817 48.62 4.67041 48.7177 5.00004 48.7177C5.44191 48.7172 5.86554 48.5415 6.178 48.229C6.49045 47.9166 6.6662 47.4929 6.66671 47.0511ZM4.16671 47.0511C4.16671 46.8862 4.21558 46.7251 4.30715 46.5881C4.39872 46.4511 4.52887 46.3442 4.68114 46.2812C4.83341 46.2181 5.00097 46.2016 5.16262 46.2337C5.32427 46.2659 5.47275 46.3453 5.5893 46.4618C5.70584 46.5784 5.78521 46.7268 5.81736 46.8885C5.84952 47.0501 5.83301 47.2177 5.76994 47.37C5.70687 47.5222 5.60006 47.6524 5.46302 47.744C5.32598 47.8355 5.16486 47.8844 5.00004 47.8844C4.7791 47.8842 4.56726 47.7963 4.41103 47.6401C4.2548 47.4838 4.16693 47.272 4.16671 47.0511Z" fill="#466B83"/>
<path d="M40.3458 3.49832L41.585 1.86832L40.8025 1.42499L40.0075 3.24999H39.9808L39.1733 1.43832L38.3766 1.89499L39.6033 3.48582V3.51165L37.6858 3.26332V4.14999L39.6158 3.90249V3.92832L38.3766 5.51915L39.12 5.98915L39.9683 4.14999H39.9933L40.7758 5.97582L41.5975 5.50665L40.3458 3.94165V3.91582L42.3141 4.14999V3.26332L40.3458 3.52415V3.49832Z" fill="#FDB549"/>
<path d="M61.7791 31.5534L61.0658 32.4692L61.4933 32.74L61.9816 31.6809H61.9966L62.4475 32.7317L62.9208 32.4617L62.2 31.5609V31.5459L63.3333 31.6809V31.17L62.2 31.32V31.305L62.9133 30.3667L62.4625 30.1117L62.0041 31.1625H61.9891L61.5241 30.1192L61.0658 30.3817L61.7716 31.2984V31.3134L60.6675 31.17V31.6809L61.7791 31.5384V31.5534Z" fill="#FDB549"/>
<path d="M134.353 38.2617V37.3925L132.423 37.6475V37.6225L133.638 36.0242L132.871 35.5892L132.091 37.3792H132.064L131.273 35.6017L130.491 36.0492L131.694 37.61V37.635L129.813 37.3925V38.2617L131.707 38.0192V38.0442L130.491 39.6042L131.22 40.065L132.053 38.2617H132.077L132.844 40.0525L133.651 39.5917L132.423 38.0567V38.0317L134.353 38.2617Z" fill="#FDB549"/>
<path d="M89.7508 24.2308L90.7992 22.8525L90.1375 22.4775L89.4642 24.0216H89.4417L88.7583 22.4883L88.085 22.8741L89.1225 24.2208V24.2425L87.5 24.0325V24.7825L89.1333 24.5733V24.5958L88.085 25.9408L88.7133 26.3383L89.4308 24.7825H89.4525L90.115 26.3275L90.81 25.93L89.7508 24.6058V24.5841L91.4167 24.7825V24.0325L89.7508 24.2533V24.2308Z" fill="#FDB549"/>
</svg>
