<svg width="101" height="100" viewBox="0 0 101 100" fill="none" xmlns="http://www.w3.org/2000/svg">
<g clip-path="url(#clip0_146_10942)">
<path d="M13.5948 16.5406H51.0948C51.4105 16.5406 51.7133 16.4152 51.9366 16.1919C52.1598 15.9687 52.2852 15.6659 52.2852 15.3501C52.2852 15.0344 52.1598 14.7316 51.9366 14.5084C51.7133 14.2851 51.4105 14.1597 51.0948 14.1597H13.5948C13.279 14.1597 12.9762 14.2851 12.753 14.5084C12.5297 14.7316 12.4043 15.0344 12.4043 15.3501C12.4043 15.6659 12.5297 15.9687 12.753 16.1919C12.9762 16.4152 13.279 16.5406 13.5948 16.5406Z" fill="#3A576A"/>
<path d="M13.5948 51.0647H26.69C27.0057 51.0647 27.3085 50.9392 27.5318 50.716C27.755 50.4927 27.8805 50.1899 27.8805 49.8742V46.3028C27.8805 45.987 27.7551 45.6842 27.5318 45.461C27.3085 45.2377 27.0057 45.1123 26.69 45.1123C26.3743 45.1123 26.0715 45.2377 25.8482 45.461C25.625 45.6842 25.4995 45.987 25.4995 46.3028V48.6837H13.5948C13.279 48.6837 12.9762 48.8092 12.753 49.0324C12.5297 49.2557 12.4043 49.5585 12.4043 49.8742C12.4043 50.1899 12.5297 50.4927 12.753 50.716C12.9762 50.9393 13.279 51.0647 13.5948 51.0647Z" fill="#3A576A"/>
<path d="M13.5948 27.8504H25.4995V40.3504C25.4995 40.6661 25.625 40.9689 25.8482 41.1922C26.0715 41.4154 26.3743 41.5409 26.69 41.5409C27.0057 41.5409 27.3085 41.4154 27.5318 41.1922C27.7551 40.9689 27.8805 40.6661 27.8805 40.3504V27.8504H39.7852C40.101 27.8504 40.4038 27.725 40.627 27.5017C40.8503 27.2784 40.9757 26.9757 40.9757 26.6599V21.3028C40.9757 20.987 40.8503 20.6842 40.627 20.461C40.4038 20.2377 40.101 20.1123 39.7852 20.1123C39.4695 20.1123 39.1667 20.2377 38.9435 20.461C38.7202 20.6842 38.5948 20.987 38.5948 21.3028V25.4694H13.5948C13.279 25.4694 12.9762 25.5949 12.753 25.8181C12.5297 26.0414 12.4043 26.3442 12.4043 26.6599C12.4043 26.9757 12.5297 27.2785 12.753 27.5017C12.9762 27.725 13.279 27.8504 13.5948 27.8504Z" fill="#B4EDFF"/>
<path d="M66.5713 50.4692H70.738C71.0537 50.4692 71.3565 50.3438 71.5798 50.1205C71.8031 49.8973 71.9285 49.5944 71.9285 49.2787C71.9285 48.963 71.8031 48.6602 71.5798 48.4369C71.3565 48.2137 71.0537 48.0882 70.738 48.0882H67.7618V30.8263H82.0475C82.3633 30.8263 82.666 30.7009 82.8893 30.4776C83.1126 30.2544 83.238 29.9516 83.238 29.6359V16.5406H87.4047C87.7204 16.5406 88.0232 16.4152 88.2465 16.1919C88.4697 15.9687 88.5951 15.6659 88.5951 15.3501C88.5951 15.0344 88.4697 14.7316 88.2465 14.5084C88.0232 14.2851 87.7204 14.1597 87.4047 14.1597H70.1428C69.827 14.1597 69.5242 14.2851 69.301 14.5084C69.0777 14.7316 68.9523 15.0344 68.9523 15.3501C68.9523 15.6659 69.0777 15.9687 69.301 16.1919C69.5242 16.4152 69.827 16.5406 70.1428 16.5406H80.8571V28.4454H66.5713C66.2556 28.4454 65.9528 28.5708 65.7296 28.7941C65.5063 29.0173 65.3809 29.3201 65.3809 29.6359V49.2787C65.3809 49.5944 65.5063 49.8972 65.7296 50.1205C65.9528 50.3437 66.2556 50.4692 66.5713 50.4692Z" fill="#3A576A"/>
<path d="M87.4044 36.7788H72.5235C72.2078 36.7788 71.9049 36.9042 71.6817 37.1275C71.4584 37.3507 71.333 37.6536 71.333 37.9693C71.333 38.285 71.4584 38.5878 71.6817 38.8111C71.9049 39.0343 72.2078 39.1598 72.5235 39.1598H87.4044C87.7202 39.1598 88.023 39.0343 88.2462 38.8111C88.4695 38.5878 88.5949 38.285 88.5949 37.9693C88.5949 37.6536 88.4695 37.3507 88.2462 37.1275C88.023 36.9042 87.7202 36.7788 87.4044 36.7788Z" fill="#B4EDFF"/>
<path d="M45.7378 26.6597V39.1597H33.8331C33.5173 39.1597 33.2145 39.2851 32.9913 39.5084C32.768 39.7317 32.6426 40.0345 32.6426 40.3502C32.6426 40.6659 32.768 40.9687 32.9913 41.192C33.2145 41.4152 33.5173 41.5407 33.8331 41.5407H46.9283C47.244 41.5406 47.5468 41.4152 47.7701 41.192C47.9933 40.9687 48.1188 40.6659 48.1188 40.3502V27.8502H54.6664C54.9821 27.8502 55.2849 27.7248 55.5082 27.5015C55.7314 27.2783 55.8569 26.9754 55.8569 26.6597C55.8569 26.344 55.7314 26.0412 55.5082 25.8179C55.2849 25.5947 54.9821 25.4692 54.6664 25.4692H46.9283C46.6126 25.4693 46.3098 25.5947 46.0865 25.8179C45.8633 26.0412 45.7378 26.344 45.7378 26.6597Z" fill="#3A576A"/>
<path d="M87.4052 45.1123H80.2623C79.9466 45.1123 79.6438 45.2378 79.4205 45.461C79.1973 45.6843 79.0719 45.9871 79.0718 46.3028V59.9933H28.4766C28.1609 59.9933 27.8581 60.1187 27.6348 60.3419C27.4116 60.5652 27.2861 60.868 27.2861 61.1837C27.2861 61.4995 27.4116 61.8023 27.6348 62.0255C27.8581 62.2488 28.1609 62.3742 28.4766 62.3742H55.8576V76.6599C55.8576 76.9757 55.983 77.2785 56.2062 77.5017C56.4295 77.725 56.7323 77.8504 57.048 77.8504C57.3638 77.8504 57.6666 77.725 57.8898 77.5017C58.1131 77.2785 58.2385 76.9757 58.2385 76.6599V62.3742H80.2623C80.5781 62.3742 80.8808 62.2488 81.1041 62.0255C81.3274 61.8023 81.4528 61.4995 81.4528 61.1837V47.4933H86.2147V50.2712C86.2147 50.587 86.3401 50.8898 86.5634 51.113C86.7866 51.3363 87.0894 51.4617 87.4052 51.4617C87.7209 51.4617 88.0237 51.3363 88.247 51.113C88.4702 50.8898 88.5957 50.587 88.5957 50.2712V46.3028C88.5956 45.9871 88.4702 45.6843 88.247 45.461C88.0237 45.2378 87.7209 45.1123 87.4052 45.1123Z" fill="#3A576A"/>
<path d="M61.5753 26.7867C61.5753 26.4709 61.4499 26.1681 61.2266 25.9449C61.0033 25.7216 60.7005 25.5962 60.3848 25.5962C60.0691 25.5962 59.7663 25.7216 59.543 25.9449C59.3198 26.1681 59.1943 26.4709 59.1943 26.7867V27.3685C59.1943 27.6843 59.3198 27.9871 59.543 28.2103C59.7663 28.4336 60.0691 28.559 60.3848 28.559C60.7005 28.559 61.0033 28.4336 61.2266 28.2103C61.4499 27.9871 61.5753 27.6843 61.5753 27.3685V26.7867Z" fill="#3A576A"/>
<path d="M61.5753 34.9356C61.5753 34.6199 61.4499 34.3171 61.2266 34.0938C61.0033 33.8705 60.7005 33.7451 60.3848 33.7451C60.0691 33.7451 59.7663 33.8705 59.543 34.0938C59.3198 34.3171 59.1943 34.6199 59.1943 34.9356V35.5175C59.1943 35.8332 59.3198 36.136 59.543 36.3593C59.7663 36.5825 60.0691 36.7079 60.3848 36.7079C60.7005 36.7079 61.0033 36.5825 61.2266 36.3593C61.4499 36.136 61.5753 35.8332 61.5753 35.5175V34.9356Z" fill="#3A576A"/>
<path d="M61.5753 39.0103C61.5753 38.6946 61.4499 38.3918 61.2266 38.1685C61.0033 37.9452 60.7005 37.8198 60.3848 37.8198C60.0691 37.8198 59.7663 37.9452 59.543 38.1685C59.3198 38.3918 59.1943 38.6946 59.1943 39.0103V39.5922C59.1943 39.9079 59.3198 40.2107 59.543 40.434C59.7663 40.6572 60.0691 40.7827 60.3848 40.7827C60.7005 40.7827 61.0033 40.6572 61.2266 40.434C61.4499 40.2107 61.5753 39.9079 61.5753 39.5922V39.0103Z" fill="#B4EDFF"/>
<path d="M61.5753 30.8609C61.5753 30.5452 61.4499 30.2423 61.2266 30.0191C61.0033 29.7958 60.7005 29.6704 60.3848 29.6704C60.0691 29.6704 59.7663 29.7958 59.543 30.0191C59.3198 30.2423 59.1943 30.5452 59.1943 30.8609V31.4433C59.1943 31.7591 59.3198 32.0619 59.543 32.2851C59.7663 32.5084 60.0691 32.6338 60.3848 32.6338C60.7005 32.6338 61.0033 32.5084 61.2266 32.2851C61.4499 32.0619 61.5753 31.7591 61.5753 31.4433V30.8609Z" fill="#B4EDFF"/>
<path d="M61.5753 22.7115C61.5753 22.3957 61.4499 22.0929 61.2266 21.8697C61.0033 21.6464 60.7005 21.521 60.3848 21.521C60.0691 21.521 59.7663 21.6464 59.543 21.8697C59.3198 22.0929 59.1943 22.3957 59.1943 22.7115V23.2933C59.1943 23.6091 59.3198 23.9119 59.543 24.1351C59.7663 24.3584 60.0691 24.4838 60.3848 24.4838C60.7005 24.4838 61.0033 24.3584 61.2266 24.1351C61.4499 23.9119 61.5753 23.6091 61.5753 23.2933V22.7115Z" fill="#B4EDFF"/>
<path d="M61.5753 43.0845C61.5753 42.7688 61.4499 42.466 61.2266 42.2427C61.0033 42.0195 60.7005 41.894 60.3848 41.894C60.0691 41.894 59.7663 42.0195 59.543 42.2427C59.3198 42.466 59.1943 42.7688 59.1943 43.0845V43.667C59.1943 43.9827 59.3198 44.2855 59.543 44.5088C59.7663 44.732 60.0691 44.8574 60.3848 44.8574C60.7005 44.8574 61.0033 44.732 61.2266 44.5088C61.4499 44.2855 61.5753 43.9827 61.5753 43.667V43.0845Z" fill="#3A576A"/>
<path d="M61.5753 47.1592C61.5753 46.8435 61.4499 46.5407 61.2266 46.3174C61.0033 46.0942 60.7005 45.9688 60.3848 45.9688C60.0691 45.9688 59.7663 46.0942 59.543 46.3174C59.3198 46.5407 59.1943 46.8435 59.1943 47.1592V47.7411C59.1943 48.0568 59.3198 48.3596 59.543 48.5829C59.7663 48.8061 60.0691 48.9316 60.3848 48.9316C60.7005 48.9316 61.0033 48.8061 61.2266 48.5829C61.4499 48.3596 61.5753 48.0568 61.5753 47.7411V47.1592Z" fill="#B4EDFF"/>
<path d="M61.5753 51.2344C61.5753 50.9187 61.4499 50.6159 61.2266 50.3926C61.0033 50.1694 60.7005 50.0439 60.3848 50.0439C60.0691 50.0439 59.7663 50.1694 59.543 50.3926C59.3198 50.6159 59.1943 50.9187 59.1943 51.2344V51.8163C59.1943 52.132 59.3198 52.4348 59.543 52.6581C59.7663 52.8813 60.0691 53.0068 60.3848 53.0068C60.7005 53.0068 61.0033 52.8813 61.2266 52.6581C61.4499 52.4348 61.5753 52.132 61.5753 51.8163V51.2344Z" fill="#3A576A"/>
<path d="M60.3845 54.1188C60.0297 54.08 59.674 54.1836 59.3954 54.4069C59.1169 54.6301 58.9383 54.9548 58.8989 55.3096C58.8595 55.6643 58.9624 56.0203 59.1852 56.2992C59.4079 56.5782 59.7322 56.7573 60.0869 56.7974H60.3845C60.7003 56.7974 61.0031 56.6719 61.2263 56.4487C61.4496 56.2254 61.575 55.9226 61.575 55.6069V55.3093C61.575 54.9936 61.4496 54.6908 61.2263 54.4675C61.0031 54.2443 60.7003 54.1188 60.3845 54.1188Z" fill="#B4EDFF"/>
<path d="M47.2959 54.416C46.9802 54.416 46.6774 54.5414 46.4542 54.7647C46.2309 54.988 46.1055 55.2908 46.1055 55.6065C46.1055 55.9222 46.2309 56.225 46.4542 56.4483C46.6774 56.6715 46.9802 56.797 47.2959 56.797H47.9051C48.2209 56.797 48.5237 56.6715 48.7469 56.4483C48.9702 56.225 49.0956 55.9222 49.0956 55.6065C49.0956 55.2908 48.9702 54.988 48.7469 54.7647C48.5237 54.5414 48.2209 54.416 47.9051 54.416H47.2959Z" fill="#3A576A"/>
<path d="M22.3231 54.416H21.7139C21.3982 54.416 21.0954 54.5414 20.8721 54.7647C20.6489 54.988 20.5234 55.2908 20.5234 55.6065C20.5234 55.9222 20.6489 56.225 20.8721 56.4483C21.0954 56.6715 21.3982 56.797 21.7139 56.797H22.3231C22.6388 56.797 22.9416 56.6715 23.1649 56.4483C23.3882 56.225 23.5136 55.9222 23.5136 55.6065C23.5136 55.2908 23.3882 54.988 23.1649 54.7647C22.9416 54.5414 22.6388 54.416 22.3231 54.416Z" fill="#3A576A"/>
<path d="M27.7773 55.6065C27.7772 55.2908 27.6518 54.988 27.4286 54.7647C27.2053 54.5415 26.9025 54.416 26.5868 54.416H25.9776C25.6619 54.416 25.359 54.5414 25.1358 54.7647C24.9125 54.988 24.7871 55.2908 24.7871 55.6065C24.7871 55.9222 24.9125 56.225 25.1358 56.4483C25.359 56.6715 25.6619 56.797 25.9776 56.797H26.5868C26.9025 56.797 27.2053 56.6715 27.4286 56.4483C27.6518 56.225 27.7772 55.9222 27.7773 55.6065Z" fill="#B4EDFF"/>
<path d="M34.5049 54.416C34.1892 54.416 33.8864 54.5414 33.6631 54.7647C33.4399 54.988 33.3145 55.2908 33.3145 55.6065C33.3145 55.9222 33.4399 56.225 33.6631 56.4483C33.8864 56.6715 34.1892 56.797 34.5049 56.797H35.1135C35.4293 56.797 35.7321 56.6715 35.9553 56.4483C36.1786 56.225 36.304 55.9222 36.304 55.6065C36.304 55.2908 36.1786 54.988 35.9553 54.7647C35.7321 54.5414 35.4293 54.416 35.1135 54.416H34.5049Z" fill="#B4EDFF"/>
<path d="M51.5596 54.416C51.2439 54.416 50.9411 54.5414 50.7178 54.7647C50.4946 54.988 50.3691 55.2908 50.3691 55.6065C50.3691 55.9222 50.4946 56.225 50.7178 56.4483C50.9411 56.6715 51.2439 56.797 51.5596 56.797H52.1688C52.4845 56.797 52.7873 56.6715 53.0106 56.4483C53.2339 56.225 53.3593 55.9222 53.3593 55.6065C53.3593 55.2908 53.2339 54.988 53.0106 54.7647C52.7873 54.5414 52.4845 54.416 52.1688 54.416H51.5596Z" fill="#B4EDFF"/>
<path d="M43.0323 54.416C42.7165 54.416 42.4137 54.5414 42.1905 54.7647C41.9672 54.988 41.8418 55.2908 41.8418 55.6065C41.8418 55.9222 41.9672 56.225 42.1905 56.4483C42.4137 56.6715 42.7165 56.797 43.0323 56.797H43.6415C43.9572 56.797 44.26 56.6715 44.4833 56.4483C44.7065 56.225 44.8319 55.9222 44.8319 55.6065C44.8319 55.2908 44.7065 54.988 44.4833 54.7647C44.26 54.5414 43.9572 54.416 43.6415 54.416H43.0323Z" fill="#B4EDFF"/>
<path d="M30.2413 54.416C29.9255 54.416 29.6227 54.5414 29.3995 54.7647C29.1762 54.988 29.0508 55.2908 29.0508 55.6065C29.0508 55.9222 29.1762 56.225 29.3995 56.4483C29.6227 56.6715 29.9255 56.797 30.2413 56.797H30.8499C31.1656 56.797 31.4684 56.6715 31.6917 56.4483C31.9149 56.225 32.0403 55.9222 32.0403 55.6065C32.0403 55.2908 31.9149 54.988 31.6917 54.7647C31.4684 54.5414 31.1656 54.416 30.8499 54.416H30.2413Z" fill="#3A576A"/>
<path d="M54.6328 55.6065C54.6328 55.9222 54.7583 56.225 54.9815 56.4483C55.2048 56.6715 55.5076 56.797 55.8233 56.797H56.4325C56.7482 56.797 57.051 56.6715 57.2743 56.4483C57.4975 56.225 57.623 55.9222 57.623 55.6065C57.623 55.2908 57.4975 54.988 57.2743 54.7647C57.051 54.5414 56.7482 54.416 56.4325 54.416H55.8233C55.5076 54.416 55.2048 54.5415 54.9815 54.7647C54.7583 54.988 54.6328 55.2908 54.6328 55.6065Z" fill="#3A576A"/>
<path d="M38.7686 54.416C38.4529 54.416 38.1501 54.5414 37.9268 54.7647C37.7035 54.988 37.5781 55.2908 37.5781 55.6065C37.5781 55.9222 37.7035 56.225 37.9268 56.4483C38.1501 56.6715 38.4529 56.797 38.7686 56.797H39.3778C39.6935 56.797 39.9963 56.6715 40.2196 56.4483C40.4428 56.225 40.5683 55.9222 40.5683 55.6065C40.5683 55.2908 40.4428 54.988 40.2196 54.7647C39.9963 54.5414 39.6935 54.416 39.3778 54.416H38.7686Z" fill="#3A576A"/>
<path d="M18.0594 54.416H17.7618C17.446 54.416 17.1432 54.5415 16.92 54.7647C16.6967 54.988 16.5713 55.2908 16.5713 55.6065V55.9041C16.5712 56.1576 16.6521 56.4045 16.8022 56.6088C16.9522 56.8132 17.1636 56.9643 17.4055 57.0401C17.6474 57.1159 17.9072 57.1125 18.147 57.0304C18.3869 56.9483 18.5942 56.7918 18.7389 56.5836C18.9471 56.439 19.1036 56.2316 19.1857 55.9917C19.2678 55.7519 19.2712 55.4921 19.1954 55.2502C19.1195 55.0083 18.9684 54.797 18.7641 54.6469C18.5598 54.4969 18.3129 54.416 18.0594 54.416Z" fill="#B4EDFF"/>
<path d="M17.7618 60.8731C18.0775 60.8731 18.3803 60.7477 18.6035 60.5244C18.8268 60.3012 18.9522 59.9984 18.9522 59.6826V59.1426C18.9522 58.8269 18.8268 58.5241 18.6036 58.3008C18.3803 58.0776 18.0775 57.9521 17.7618 57.9521C17.446 57.9521 17.1432 58.0776 16.92 58.3008C16.6967 58.5241 16.5713 58.8269 16.5713 59.1426V59.6826C16.5713 59.9984 16.6967 60.3012 16.92 60.5244C17.1432 60.7477 17.446 60.8731 17.7618 60.8731Z" fill="#3A576A"/>
<path d="M16.5713 63.4604C16.5713 63.7761 16.6967 64.0789 16.92 64.3022C17.1432 64.5254 17.446 64.6509 17.7618 64.6509C18.0775 64.6509 18.3803 64.5254 18.6036 64.3022C18.8268 64.0789 18.9522 63.7761 18.9522 63.4604V62.9209C18.9522 62.6052 18.8268 62.3024 18.6036 62.0792C18.3803 61.8559 18.0775 61.7305 17.7618 61.7305C17.446 61.7305 17.1432 61.8559 16.92 62.0792C16.6967 62.3024 16.5713 62.6052 16.5713 62.9209V63.4604Z" fill="#B4EDFF"/>
<path d="M16.5713 66.9964C16.5713 67.3121 16.6967 67.6149 16.92 67.8382C17.1432 68.0614 17.446 68.1869 17.7618 68.1869H18.0594C18.3129 68.1869 18.5598 68.106 18.7641 67.956C18.9684 67.8059 19.1195 67.5946 19.1954 67.3527C19.2712 67.1108 19.2678 66.851 19.1857 66.6111C19.1036 66.3713 18.9471 66.1639 18.7389 66.0193C18.5942 65.8111 18.3869 65.6546 18.147 65.5725C17.9072 65.4903 17.6474 65.487 17.4055 65.5628C17.1636 65.6386 16.9522 65.7897 16.8022 65.994C16.6521 66.1984 16.5712 66.4453 16.5713 66.6988V66.9964Z" fill="#3A576A"/>
<path d="M34.93 68.1871C35.2457 68.1871 35.5485 68.0617 35.7718 67.8384C35.995 67.6152 36.1205 67.3124 36.1205 66.9966C36.1205 66.6809 35.995 66.3781 35.7718 66.1548C35.5485 65.9316 35.2457 65.8062 34.93 65.8062H34.3272C34.0115 65.8062 33.7087 65.9316 33.4854 66.1548C33.2621 66.3781 33.1367 66.6809 33.1367 66.9966C33.1367 67.3124 33.2621 67.6152 33.4854 67.8384C33.7087 68.0617 34.0115 68.1871 34.3272 68.1871H34.93Z" fill="#3A576A"/>
<path d="M43.3646 68.1871C43.6803 68.1871 43.9831 68.0617 44.2064 67.8384C44.4296 67.6152 44.555 67.3124 44.555 66.9966C44.555 66.6809 44.4296 66.3781 44.2064 66.1548C43.9831 65.9316 43.6803 65.8062 43.3646 65.8062H42.7618C42.446 65.8062 42.1432 65.9316 41.92 66.1548C41.6967 66.3781 41.5713 66.6809 41.5713 66.9966C41.5713 67.3124 41.6967 67.6152 41.92 67.8384C42.1432 68.0617 42.446 68.1871 42.7618 68.1871H43.3646Z" fill="#3A576A"/>
<path d="M47.5818 68.1871C47.8975 68.1871 48.2003 68.0617 48.4235 67.8384C48.6468 67.6152 48.7722 67.3124 48.7722 66.9966C48.7722 66.6809 48.6468 66.3781 48.4235 66.1548C48.2003 65.9316 47.8975 65.8062 47.5818 65.8062H46.9795C46.6638 65.8062 46.361 65.9316 46.1377 66.1548C45.9145 66.3781 45.7891 66.6809 45.7891 66.9966C45.7891 67.3124 45.9145 67.6152 46.1377 67.8384C46.361 68.0617 46.6638 68.1871 46.9795 68.1871H47.5818Z" fill="#B4EDFF"/>
<path d="M39.1472 68.1871C39.4629 68.1871 39.7657 68.0617 39.989 67.8384C40.2123 67.6152 40.3377 67.3124 40.3377 66.9966C40.3377 66.6809 40.2123 66.3781 39.989 66.1548C39.7657 65.9316 39.4629 65.8062 39.1472 65.8062H38.545C38.2292 65.8062 37.9264 65.9316 37.7032 66.1548C37.4799 66.3781 37.3545 66.6809 37.3545 66.9966C37.3545 67.3124 37.4799 67.6152 37.7032 67.8384C37.9264 68.0617 38.2292 68.1871 38.545 68.1871H39.1472Z" fill="#B4EDFF"/>
<path d="M22.2771 65.8062H21.6749C21.3591 65.8062 21.0563 65.9316 20.8331 66.1548C20.6098 66.3781 20.4844 66.6809 20.4844 66.9966C20.4844 67.3124 20.6098 67.6152 20.8331 67.8384C21.0563 68.0617 21.3591 68.1871 21.6749 68.1871H22.2771C22.5928 68.1871 22.8956 68.0617 23.1189 67.8384C23.3421 67.6152 23.4676 67.3124 23.4676 66.9966C23.4676 66.6809 23.3421 66.3781 23.1189 66.1548C22.8956 65.9316 22.5928 65.8062 22.2771 65.8062Z" fill="#B4EDFF"/>
<path d="M24.7012 66.9966C24.7012 67.3124 24.8266 67.6152 25.0499 67.8384C25.2731 68.0617 25.5759 68.1871 25.8916 68.1871H26.4944C26.8102 68.1871 27.113 68.0617 27.3362 67.8384C27.5595 67.6152 27.6849 67.3124 27.6849 66.9966C27.6849 66.6809 27.5595 66.3781 27.3362 66.1548C27.113 65.9316 26.8102 65.8062 26.4944 65.8062H25.8916C25.5759 65.8062 25.2731 65.9316 25.0499 66.1549C24.8266 66.3781 24.7012 66.6809 24.7012 66.9966Z" fill="#3A576A"/>
<path d="M30.7116 68.1871C31.0274 68.1871 31.3302 68.0617 31.5534 67.8384C31.7767 67.6152 31.9021 67.3124 31.9021 66.9966C31.9021 66.6809 31.7767 66.3781 31.5534 66.1548C31.3302 65.9316 31.0274 65.8062 30.7116 65.8062H30.1094C29.7937 65.8062 29.4909 65.9316 29.2676 66.1548C29.0444 66.3781 28.9189 66.6809 28.9189 66.9966C28.9189 67.3124 29.0444 67.6152 29.2676 67.8384C29.4909 68.0617 29.7937 68.1871 30.1094 68.1871H30.7116Z" fill="#B4EDFF"/>
<path d="M51.4944 65.8062H51.1968C50.9445 65.8342 50.7053 65.9329 50.5066 66.0909C50.308 66.249 50.158 66.4599 50.074 66.6994C49.99 66.9389 49.9753 67.1973 50.0317 67.4448C50.0881 67.6923 50.2132 67.9188 50.3927 68.0983C50.5722 68.2778 50.7987 68.4029 51.0462 68.4593C51.2937 68.5157 51.5521 68.501 51.7916 68.417C52.0311 68.333 52.2421 68.183 52.4001 67.9844C52.5581 67.7858 52.6568 67.5465 52.6849 67.2942V66.9966C52.6848 66.6809 52.5594 66.3781 52.3362 66.1549C52.1129 65.9316 51.8101 65.8062 51.4944 65.8062Z" fill="#3A576A"/>
<path d="M51.4942 72.2247C51.8099 72.2247 52.1127 72.0993 52.336 71.876C52.5592 71.6528 52.6846 71.35 52.6847 71.0342V70.5C52.6847 70.1843 52.5592 69.8815 52.336 69.6583C52.1127 69.435 51.8099 69.3096 51.4942 69.3096C51.1785 69.3096 50.8756 69.435 50.6524 69.6583C50.4291 69.8815 50.3037 70.1843 50.3037 70.5V71.0342C50.3037 71.35 50.4292 71.6528 50.6524 71.876C50.8757 72.0993 51.1785 72.2247 51.4942 72.2247Z" fill="#B4EDFF"/>
<path d="M50.3037 78.5138C50.3037 78.8296 50.4291 79.1324 50.6524 79.3556C50.8756 79.5789 51.1785 79.7043 51.4942 79.7043C51.8099 79.7043 52.1127 79.5789 52.336 79.3556C52.5592 79.1324 52.6847 78.8296 52.6847 78.5138V77.9791C52.6847 77.6633 52.5592 77.3605 52.336 77.1373C52.1127 76.914 51.8099 76.7886 51.4942 76.7886C51.1785 76.7886 50.8756 76.914 50.6524 77.1373C50.4291 77.3605 50.3037 77.6633 50.3037 77.9791V78.5138Z" fill="#B4EDFF"/>
<path d="M50.3037 74.774C50.3037 75.0897 50.4291 75.3925 50.6524 75.6158C50.8756 75.839 51.1785 75.9645 51.4942 75.9645C51.8099 75.9645 52.1127 75.839 52.336 75.6158C52.5592 75.3925 52.6847 75.0897 52.6847 74.774V74.2398C52.6847 73.9241 52.5592 73.6213 52.336 73.398C52.1127 73.1747 51.8099 73.0493 51.4942 73.0493C51.1785 73.0493 50.8756 73.1747 50.6524 73.398C50.4291 73.6213 50.3037 73.9241 50.3037 74.2398V74.774Z" fill="#3A576A"/>
<path d="M50.3037 82.0168C50.3037 82.3326 50.4292 82.6354 50.6524 82.8586C50.8757 83.0819 51.1785 83.2073 51.4942 83.2073H51.7918C52.0441 83.1793 52.2833 83.0806 52.4819 82.9225C52.6806 82.7645 52.8305 82.5536 52.9146 82.3141C52.9986 82.0746 53.0132 81.8162 52.9569 81.5687C52.9005 81.3212 52.7753 81.0947 52.5958 80.9152C52.4164 80.7357 52.1898 80.6106 51.9423 80.5542C51.6949 80.4978 51.4365 80.5125 51.197 80.5965C50.9574 80.6805 50.7465 80.8305 50.5885 81.0291C50.4305 81.2277 50.3317 81.467 50.3037 81.7192V82.0168Z" fill="#3A576A"/>
<path d="M59.2829 83.2076C59.5986 83.2076 59.9014 83.0822 60.1247 82.8589C60.3479 82.6357 60.4734 82.3329 60.4734 82.0171C60.4734 81.7014 60.3479 81.3986 60.1247 81.1753C59.9014 80.9521 59.5986 80.8267 59.2829 80.8267H58.7481C58.4324 80.8267 58.1296 80.9521 57.9063 81.1753C57.683 81.3986 57.5576 81.7014 57.5576 82.0171C57.5576 82.3329 57.683 82.6357 57.9063 82.8589C58.1296 83.0822 58.4324 83.2076 58.7481 83.2076H59.2829Z" fill="#3A576A"/>
<path d="M55.5383 83.2076C55.8541 83.2076 56.1569 83.0822 56.3801 82.8589C56.6034 82.6357 56.7288 82.3329 56.7288 82.0171C56.7288 81.7014 56.6034 81.3986 56.3801 81.1753C56.1569 80.9521 55.8541 80.8267 55.5383 80.8267H55.003C54.6872 80.8267 54.3844 80.9521 54.1612 81.1753C53.9379 81.3986 53.8125 81.7014 53.8125 82.0171C53.8125 82.3329 53.9379 82.6357 54.1612 82.8589C54.3844 83.0822 54.6872 83.2076 55.003 83.2076H55.5383Z" fill="#B4EDFF"/>
<path d="M62.4936 83.2073H62.7913C63.107 83.2073 63.4098 83.0819 63.633 82.8586C63.8563 82.6354 63.9817 82.3326 63.9817 82.0168V81.7192C63.9537 81.467 63.855 81.2277 63.697 81.0291C63.5389 80.8305 63.328 80.6805 63.0885 80.5965C62.849 80.5125 62.5906 80.4978 62.3431 80.5542C62.0956 80.6106 61.8691 80.7357 61.6896 80.9152C61.5101 81.0947 61.385 81.3212 61.3286 81.5687C61.2722 81.8162 61.2869 82.0746 61.3709 82.3141C61.4549 82.5536 61.6049 82.7645 61.8035 82.9225C62.0021 83.0806 62.2414 83.1793 62.4936 83.2073Z" fill="#B4EDFF"/>
<path d="M61.6006 74.7118C61.6006 75.0275 61.726 75.3303 61.9493 75.5535C62.1725 75.7768 62.4753 75.9022 62.7911 75.9022C63.1068 75.9022 63.4096 75.7768 63.6329 75.5535C63.8561 75.3303 63.9815 75.0275 63.9815 74.7118V74.1729C63.9815 73.8572 63.8561 73.5544 63.6329 73.3311C63.4096 73.1078 63.1068 72.9824 62.7911 72.9824C62.4753 72.9824 62.1725 73.1078 61.9493 73.3311C61.726 73.5544 61.6006 73.8572 61.6006 74.1729V74.7118Z" fill="#B4EDFF"/>
<path d="M61.6006 78.4852C61.6006 78.8009 61.726 79.1037 61.9493 79.327C62.1725 79.5502 62.4753 79.6757 62.7911 79.6757C63.1068 79.6757 63.4096 79.5502 63.6329 79.327C63.8561 79.1037 63.9815 78.8009 63.9815 78.4852V77.9463C63.9815 77.6306 63.8561 77.3278 63.6329 77.1045C63.4096 76.8813 63.1068 76.7559 62.7911 76.7559C62.4753 76.7559 62.1725 76.8813 61.9493 77.1045C61.726 77.3278 61.6006 77.6306 61.6006 77.9463V78.4852Z" fill="#3A576A"/>
<path d="M61.6006 70.9389C61.6006 71.2546 61.726 71.5574 61.9493 71.7807C62.1725 72.0039 62.4753 72.1294 62.7911 72.1294C63.1068 72.1294 63.4096 72.0039 63.6329 71.7807C63.8561 71.5574 63.9815 71.2546 63.9815 70.9389V70.3995C63.9815 70.0837 63.8561 69.7809 63.6329 69.5577C63.4096 69.3344 63.1068 69.209 62.7911 69.209C62.4753 69.209 62.1725 69.3344 61.9493 69.5577C61.726 69.7809 61.6006 70.0837 61.6006 70.3995V70.9389Z" fill="#3A576A"/>
<path d="M62.7911 68.3563C63.1459 68.3951 63.5017 68.2915 63.7802 68.0682C64.0587 67.845 64.2373 67.5203 64.2767 67.1656C64.3162 66.8108 64.2132 66.4549 63.9905 66.1759C63.7677 65.897 63.4434 65.7178 63.0887 65.6777H62.7911C62.4753 65.6778 62.1725 65.8032 61.9493 66.0264C61.726 66.2497 61.6006 66.5525 61.6006 66.8682V67.1658C61.6006 67.4816 61.726 67.7844 61.9493 68.0076C62.1725 68.2309 62.4753 68.3563 62.7911 68.3563Z" fill="#B4EDFF"/>
<path d="M67.1895 68.0587C67.5052 68.0587 67.808 67.9333 68.0313 67.71C68.2545 67.4867 68.38 67.1839 68.38 66.8682C68.38 66.5525 68.2545 66.2497 68.0313 66.0264C67.808 65.8032 67.5052 65.6777 67.1895 65.6777H66.6036C66.2878 65.6777 65.985 65.8032 65.7618 66.0264C65.5385 66.2497 65.4131 66.5525 65.4131 66.8682C65.4131 67.1839 65.5385 67.4867 65.7618 67.71C65.985 67.9333 66.2878 68.0587 66.6036 68.0587H67.1895Z" fill="#3A576A"/>
<path d="M79.4913 68.0587C79.807 68.0587 80.1098 67.9333 80.3331 67.71C80.5563 67.4867 80.6817 67.1839 80.6817 66.8682C80.6817 66.5525 80.5563 66.2497 80.3331 66.0264C80.1098 65.8032 79.807 65.6777 79.4913 65.6777H78.9053C78.5896 65.6777 78.2868 65.8032 78.0635 66.0264C77.8403 66.2497 77.7148 66.5525 77.7148 66.8682C77.7148 67.1839 77.8403 67.4867 78.0635 67.71C78.2868 67.9333 78.5896 68.0587 78.9053 68.0587H79.4913Z" fill="#B4EDFF"/>
<path d="M75.3917 68.0587C75.7074 68.0587 76.0102 67.9333 76.2334 67.71C76.4567 67.4867 76.5821 67.1839 76.5821 66.8682C76.5821 66.5525 76.4567 66.2497 76.2334 66.0264C76.0102 65.8032 75.7074 65.6777 75.3917 65.6777H74.8057C74.49 65.6777 74.1872 65.8032 73.9639 66.0264C73.7407 66.2497 73.6152 66.5525 73.6152 66.8682C73.6152 67.1839 73.7407 67.4867 73.9639 67.71C74.1872 67.9333 74.49 68.0587 74.8057 68.0587H75.3917Z" fill="#3A576A"/>
<path d="M71.2901 68.0587C71.6058 68.0587 71.9086 67.9333 72.1319 67.71C72.3551 67.4867 72.4806 67.1839 72.4806 66.8682C72.4806 66.5525 72.3551 66.2497 72.1319 66.0264C71.9086 65.8032 71.6058 65.6777 71.2901 65.6777H70.7041C70.3884 65.6777 70.0856 65.8032 69.8624 66.0264C69.6391 66.2497 69.5137 66.5525 69.5137 66.8682C69.5137 67.1839 69.6391 67.4867 69.8624 67.71C70.0856 67.9333 70.3884 68.0587 70.7041 68.0587H71.2901Z" fill="#B4EDFF"/>
<path d="M83.5928 68.0587C83.9086 68.0587 84.2114 67.9333 84.4346 67.71C84.6579 67.4867 84.7833 67.1839 84.7833 66.8682C84.7833 66.5525 84.6579 66.2497 84.4346 66.0264C84.2114 65.8032 83.9086 65.6777 83.5928 65.6777H83.0069C82.6911 65.6777 82.3883 65.8032 82.1651 66.0264C81.9418 66.2497 81.8164 66.5525 81.8164 66.8682C81.8164 67.1839 81.9418 67.4867 82.1651 67.71C82.3883 67.9333 82.6911 68.0587 83.0069 68.0587H83.5928Z" fill="#3A576A"/>
<path d="M87.4051 65.6777H87.1075C86.7917 65.6777 86.4889 65.8032 86.2657 66.0264C86.0424 66.2497 85.917 66.5525 85.917 66.8682C85.917 67.1839 86.0424 67.4867 86.2657 67.71C86.4889 67.9333 86.7917 68.0587 87.1075 68.0587H87.4051C87.7208 68.0587 88.0236 67.9333 88.2469 67.71C88.4701 67.4867 88.5956 67.1839 88.5956 66.8682C88.5956 66.5525 88.4701 66.2497 88.2469 66.0264C88.0236 65.8032 87.7208 65.6777 87.4051 65.6777Z" fill="#B4EDFF"/>
<path d="M57.4698 21.177C57.6096 21.247 57.7618 21.2887 57.9178 21.2998C58.0738 21.3109 58.2304 21.2912 58.3788 21.2418C58.5271 21.1923 58.6643 21.1141 58.7824 21.0116C58.9005 20.9092 58.9973 20.7844 59.0671 20.6445L59.4281 19.9223C59.5376 20.0731 59.6812 20.1958 59.8472 20.2806C60.0132 20.3653 60.1968 20.4095 60.3832 20.4097C60.5695 20.4098 60.7532 20.3659 60.9194 20.2815C61.0855 20.1971 61.2293 20.0746 61.3391 19.924L61.6992 20.6445C61.8404 20.9269 62.088 21.1417 62.3876 21.2416C62.6872 21.3414 63.0141 21.3182 63.2966 21.177C63.579 21.0358 63.7938 20.7881 63.8936 20.4886C63.9935 20.189 63.9702 19.862 63.829 19.5796L61.4481 14.8177C61.3492 14.62 61.1971 14.4537 61.0091 14.3374C60.821 14.2212 60.6042 14.1597 60.3831 14.1597C60.1621 14.1597 59.9453 14.2212 59.7572 14.3374C59.5692 14.4537 59.4171 14.62 59.3182 14.8177L56.9373 19.5796C56.8673 19.7194 56.8256 19.8717 56.8145 20.0277C56.8034 20.1836 56.8232 20.3402 56.8726 20.4886C56.9221 20.6369 57.0003 20.7741 57.1027 20.8922C57.2052 21.0103 57.3299 21.1071 57.4698 21.177Z" fill="#3A576A"/>
<path d="M1.69048 90.3502C2.34796 90.3502 2.88095 89.8172 2.88095 89.1597C2.88095 88.5022 2.34796 87.9692 1.69048 87.9692C1.03299 87.9692 0.5 88.5022 0.5 89.1597C0.5 89.8172 1.03299 90.3502 1.69048 90.3502Z" fill="#3A576A"/>
<path d="M7.04748 87.9692H5.26177C4.94603 87.9692 4.64323 88.0947 4.41997 88.3179C4.19671 88.5412 4.07129 88.844 4.07129 89.1597C4.07129 89.4754 4.19671 89.7783 4.41997 90.0015C4.64323 90.2248 4.94603 90.3502 5.26177 90.3502H7.04748C7.36321 90.3502 7.66602 90.2248 7.88927 90.0015C8.11253 89.7783 8.23796 89.4754 8.23796 89.1597C8.23796 88.844 8.11253 88.5412 7.88927 88.3179C7.66602 88.0947 7.36321 87.9692 7.04748 87.9692Z" fill="#3A576A"/>
<path d="M70.8301 92.731H65.885C65.5858 92.7549 65.3065 92.8908 65.1029 93.1114C64.8992 93.332 64.7861 93.6212 64.7861 93.9214C64.7861 94.2217 64.8992 94.5109 65.1029 94.7315C65.3065 94.9521 65.5858 95.0879 65.885 95.1119H70.8301C71.1294 95.0879 71.4087 94.9521 71.6123 94.7315C71.8159 94.5109 71.929 94.2217 71.929 93.9214C71.929 93.6212 71.8159 93.332 71.6123 93.1114C71.4087 92.8908 71.1294 92.7549 70.8301 92.731Z" fill="#B4EDFF"/>
<path d="M35.1153 92.731H30.1702C29.8709 92.7549 29.5917 92.8908 29.388 93.1114C29.1844 93.332 29.0713 93.6212 29.0713 93.9214C29.0713 94.2217 29.1844 94.5109 29.388 94.7315C29.5917 94.9521 29.8709 95.0879 30.1702 95.1119H35.1153C35.4145 95.0879 35.6938 94.9521 35.8975 94.7315C36.1011 94.5109 36.2142 94.2217 36.2142 93.9214C36.2142 93.6212 36.1011 93.332 35.8975 93.1114C35.6938 92.8908 35.4145 92.7549 35.1153 92.731Z" fill="#B4EDFF"/>
<path d="M62.4043 92.731H38.5948C38.279 92.731 37.9762 92.8564 37.753 93.0796C37.5297 93.3029 37.4043 93.6057 37.4043 93.9214C37.4043 94.2372 37.5297 94.54 37.753 94.7632C37.9762 94.9865 38.279 95.1119 38.5948 95.1119H48.0829V96.3024H43.3567C43.0409 96.3024 42.7381 96.4278 42.5149 96.6511C42.2916 96.8743 42.1662 97.1771 42.1662 97.4929C42.1662 97.8086 42.2916 98.1114 42.5149 98.3347C42.7381 98.5579 43.0409 98.6833 43.3567 98.6833H58.2376C58.5534 98.6833 58.8562 98.5579 59.0794 98.3347C59.3027 98.1114 59.4281 97.8086 59.4281 97.4929C59.4281 97.1771 59.3027 96.8743 59.0794 96.6511C58.8562 96.4278 58.5534 96.3024 58.2376 96.3024H52.9162V95.1119H62.4043C62.72 95.1119 63.0228 94.9865 63.2461 94.7632C63.4693 94.54 63.5948 94.2372 63.5948 93.9214C63.5948 93.6057 63.4693 93.3029 63.2461 93.0796C63.0228 92.8564 62.72 92.731 62.4043 92.731Z" fill="#B4EDFF"/>
<path d="M1.69048 90.3502C2.34796 90.3502 2.88095 89.8172 2.88095 89.1597C2.88095 88.5022 2.34796 87.9692 1.69048 87.9692C1.03299 87.9692 0.5 88.5022 0.5 89.1597C0.5 89.8172 1.03299 90.3502 1.69048 90.3502Z" fill="#3A576A"/>
<path d="M7.04748 87.9692H5.26177C4.94603 87.9692 4.64323 88.0947 4.41997 88.3179C4.19671 88.5412 4.07129 88.844 4.07129 89.1597C4.07129 89.4754 4.19671 89.7783 4.41997 90.0015C4.64323 90.2248 4.94603 90.3502 5.26177 90.3502H7.04748C7.36321 90.3502 7.66602 90.2248 7.88927 90.0015C8.11253 89.7783 8.23796 89.4754 8.23796 89.1597C8.23796 88.844 8.11253 88.5412 7.88927 88.3179C7.66602 88.0947 7.36321 87.9692 7.04748 87.9692Z" fill="#3A576A"/>
<path d="M70.8301 92.731H65.885C65.5858 92.7549 65.3065 92.8908 65.1029 93.1114C64.8992 93.332 64.7861 93.6212 64.7861 93.9214C64.7861 94.2217 64.8992 94.5109 65.1029 94.7315C65.3065 94.9521 65.5858 95.0879 65.885 95.1119H70.8301C71.1294 95.0879 71.4087 94.9521 71.6123 94.7315C71.8159 94.5109 71.929 94.2217 71.929 93.9214C71.929 93.6212 71.8159 93.332 71.6123 93.1114C71.4087 92.8908 71.1294 92.7549 70.8301 92.731Z" fill="#B4EDFF"/>
<path d="M35.1153 92.731H30.1702C29.8709 92.7549 29.5917 92.8908 29.388 93.1114C29.1844 93.332 29.0713 93.6212 29.0713 93.9214C29.0713 94.2217 29.1844 94.5109 29.388 94.7315C29.5917 94.9521 29.8709 95.0879 30.1702 95.1119H35.1153C35.4145 95.0879 35.6938 94.9521 35.8975 94.7315C36.1011 94.5109 36.2142 94.2217 36.2142 93.9214C36.2142 93.6212 36.1011 93.332 35.8975 93.1114C35.6938 92.8908 35.4145 92.7549 35.1153 92.731Z" fill="#B4EDFF"/>
<path d="M62.4043 92.731H38.5948C38.279 92.731 37.9762 92.8564 37.753 93.0796C37.5297 93.3029 37.4043 93.6057 37.4043 93.9214C37.4043 94.2372 37.5297 94.54 37.753 94.7632C37.9762 94.9865 38.279 95.1119 38.5948 95.1119H48.0829V96.3024H43.3567C43.0409 96.3024 42.7381 96.4278 42.5149 96.6511C42.2916 96.8743 42.1662 97.1771 42.1662 97.4929C42.1662 97.8086 42.2916 98.1114 42.5149 98.3347C42.7381 98.5579 43.0409 98.6833 43.3567 98.6833H58.2376C58.5534 98.6833 58.8562 98.5579 59.0794 98.3347C59.3027 98.1114 59.4281 97.8086 59.4281 97.4929C59.4281 97.1771 59.3027 96.8743 59.0794 96.6511C58.8562 96.4278 58.5534 96.3024 58.2376 96.3024H52.9162V95.1119H62.4043C62.72 95.1119 63.0228 94.9865 63.2461 94.7632C63.4693 94.54 63.5948 94.2372 63.5948 93.9214C63.5948 93.6057 63.4693 93.3029 63.2461 93.0796C63.0228 92.8564 62.72 92.731 62.4043 92.731Z" fill="#B4EDFF"/>
<path d="M95.7379 87.9692H93.9522C93.6365 87.9692 93.3337 88.0947 93.1104 88.3179C92.8871 88.5412 92.7617 88.844 92.7617 89.1597C92.7617 89.4754 92.8871 89.7783 93.1104 90.0015C93.3337 90.2248 93.6365 90.3502 93.9522 90.3502H95.7379C96.0536 90.3502 96.3564 90.2248 96.5797 90.0015C96.803 89.7783 96.9284 89.4754 96.9284 89.1597C96.9284 88.844 96.803 88.5412 96.5797 88.3179C96.3564 88.0947 96.0536 87.9692 95.7379 87.9692Z" fill="#3A576A"/>
<path d="M99.3096 90.3497C99.9671 90.3497 100.5 89.8167 100.5 89.1592C100.5 88.5017 99.9671 87.9688 99.3096 87.9688C98.6521 87.9688 98.1191 88.5017 98.1191 89.1592C98.1191 89.8167 98.6521 90.3497 99.3096 90.3497Z" fill="#3A576A"/>
<path d="M90.215 87.969H69.5475V73.6832H87.4047C87.7204 73.6832 88.0232 73.5578 88.2465 73.3346C88.4697 73.1113 88.5952 72.8085 88.5952 72.4928C88.5952 72.177 88.4697 71.8742 88.2465 71.651C88.0232 71.4277 87.7204 71.3023 87.4047 71.3023H68.3571C68.0413 71.3023 67.7385 71.4277 67.5153 71.651C67.292 71.8743 67.1666 72.177 67.1666 72.4928V87.969H27.8809V80.8261H45.738C46.0538 80.8261 46.3566 80.7007 46.5798 80.4774C46.8031 80.2542 46.9285 79.9514 46.9285 79.6356C46.9285 79.3199 46.8031 79.0171 46.5798 78.7938C46.3566 78.5706 46.0538 78.4451 45.738 78.4451H27.8809V71.3023C27.8809 70.9866 27.7555 70.6838 27.5322 70.4605C27.3089 70.2372 27.0061 70.1118 26.6904 70.1118C26.3747 70.1118 26.0719 70.2372 25.8486 70.4605C25.6253 70.6838 25.4999 70.9866 25.4999 71.3023V87.969H10.7849C10.6155 87.9468 10.4434 87.9611 10.28 88.0108C10.1165 88.0605 9.96562 88.1445 9.83726 88.2572C9.7089 88.3698 9.60606 88.5086 9.53561 88.6642C9.46515 88.8198 9.42871 88.9886 9.42871 89.1594C9.42871 89.3302 9.46515 89.4991 9.53561 89.6547C9.60606 89.8103 9.7089 89.949 9.83726 90.0617C9.96562 90.1744 10.1165 90.2584 10.28 90.3081C10.4434 90.3578 10.6155 90.372 10.7849 90.3499H90.215C90.3844 90.372 90.5565 90.3578 90.7199 90.3081C90.8833 90.2584 91.0342 90.1744 91.1626 90.0617C91.291 89.949 91.3938 89.8103 91.4642 89.6547C91.5347 89.4991 91.5711 89.3302 91.5711 89.1594C91.5711 88.9886 91.5347 88.8198 91.4642 88.6642C91.3938 88.5086 91.291 88.3698 91.1626 88.2572C91.0342 88.1445 90.8833 88.0605 90.7199 88.0108C90.5565 87.9611 90.3844 87.9468 90.215 87.969Z" fill="#3A576A"/>
<path d="M84.192 5.2311C84.5451 5.2311 84.8904 5.12637 85.1841 4.93015C85.4777 4.73393 85.7066 4.45504 85.8417 4.12875C85.9769 3.80245 86.0123 3.4434 85.9434 3.09701C85.8745 2.75061 85.7044 2.43243 85.4547 2.18269C85.2049 1.93296 84.8867 1.76288 84.5403 1.69398C84.194 1.62508 83.8349 1.66044 83.5086 1.7956C83.1823 1.93075 82.9034 2.15963 82.7072 2.45329C82.511 2.74695 82.4062 3.0922 82.4062 3.44538C82.4068 3.91882 82.5951 4.37271 82.9299 4.70748C83.2646 5.04224 83.7185 5.23056 84.192 5.2311ZM84.192 2.55253C84.3686 2.55253 84.5412 2.60489 84.688 2.703C84.8348 2.80111 84.9493 2.94055 85.0169 3.1037C85.0844 3.26685 85.1021 3.44637 85.0677 3.61957C85.0332 3.79277 84.9482 3.95186 84.8233 4.07673C84.6984 4.2016 84.5393 4.28663 84.3662 4.32108C84.193 4.35554 84.0134 4.33785 83.8503 4.27028C83.6871 4.2027 83.5477 4.08826 83.4496 3.94143C83.3515 3.7946 83.2991 3.62197 83.2991 3.44538C83.2993 3.20865 83.3935 2.98169 83.5609 2.8143C83.7283 2.6469 83.9552 2.55276 84.192 2.55253Z" fill="#3A576A"/>
<path d="M52.2852 6.81641C52.0497 6.81641 51.8196 6.88623 51.6238 7.01704C51.428 7.14785 51.2755 7.33378 51.1853 7.55131C51.0952 7.76884 51.0717 8.0082 51.1176 8.23913C51.1635 8.47006 51.2769 8.68218 51.4434 8.84868C51.6099 9.01517 51.822 9.12855 52.053 9.17448C52.2839 9.22042 52.5232 9.19684 52.7408 9.10674C52.9583 9.01663 53.1442 8.86405 53.275 8.66828C53.4059 8.4725 53.4757 8.24234 53.4757 8.00688C53.4753 7.69126 53.3498 7.38867 53.1266 7.16549C52.9034 6.94231 52.6008 6.81677 52.2852 6.81641ZM52.2852 8.60212C52.1675 8.60212 52.0524 8.56721 51.9545 8.5018C51.8566 8.4364 51.7803 8.34344 51.7353 8.23467C51.6902 8.1259 51.6784 8.00622 51.7014 7.89076C51.7244 7.77529 51.7811 7.66923 51.8643 7.58599C51.9476 7.50274 52.0536 7.44605 52.1691 7.42308C52.2845 7.40011 52.4042 7.4119 52.513 7.45695C52.6218 7.50201 52.7147 7.5783 52.7801 7.67619C52.8455 7.77407 52.8804 7.88916 52.8804 8.00688C52.8803 8.1647 52.8175 8.31601 52.7059 8.4276C52.5943 8.5392 52.443 8.60196 52.2852 8.60212Z" fill="#3A576A"/>
<path d="M3.8897 1.65967C3.65424 1.65967 3.42408 1.72949 3.2283 1.8603C3.03253 1.99111 2.87994 2.17704 2.78984 2.39457C2.69973 2.6121 2.67616 2.85146 2.72209 3.08239C2.76803 3.31332 2.88141 3.52545 3.0479 3.69194C3.21439 3.85843 3.42652 3.97181 3.65745 4.01775C3.88838 4.06368 4.12774 4.04011 4.34527 3.95C4.5628 3.8599 4.74873 3.70731 4.87954 3.51154C5.01035 3.31576 5.08017 3.0856 5.08017 2.85014C5.07981 2.53452 4.95427 2.23193 4.73109 2.00875C4.50791 1.78557 4.20532 1.66003 3.8897 1.65967ZM3.8897 3.44538C3.77197 3.44538 3.65689 3.41047 3.559 3.34507C3.46111 3.27966 3.38482 3.1867 3.33977 3.07793C3.29472 2.96917 3.28293 2.84948 3.30589 2.73402C3.32886 2.61855 3.38555 2.51249 3.4688 2.42925C3.55204 2.346 3.65811 2.28931 3.77357 2.26634C3.88904 2.24338 4.00872 2.25516 4.11748 2.30022C4.22625 2.34527 4.31921 2.42156 4.38462 2.51945C4.45002 2.61733 4.48493 2.73242 4.48493 2.85014C4.48478 3.00796 4.42201 3.15927 4.31042 3.27087C4.19882 3.38246 4.04751 3.44523 3.8897 3.44538Z" fill="#3A576A"/>
<path d="M97.6719 12.9692C97.4365 12.9692 97.2063 13.0391 97.0105 13.1699C96.8148 13.3007 96.6622 13.4866 96.5721 13.7041C96.482 13.9217 96.4584 14.161 96.5043 14.392C96.5503 14.6229 96.6636 14.835 96.8301 15.0015C96.9966 15.168 97.2087 15.2814 97.4397 15.3273C97.6706 15.3733 97.91 15.3497 98.1275 15.2596C98.345 15.1695 98.5309 15.0169 98.6618 14.8211C98.7926 14.6253 98.8624 14.3952 98.8624 14.1597C98.862 13.8441 98.7365 13.5415 98.5133 13.3183C98.2901 13.0951 97.9875 12.9696 97.6719 12.9692ZM97.6719 14.755C97.5542 14.755 97.4391 14.72 97.3412 14.6546C97.2433 14.5892 97.167 14.4963 97.122 14.3875C97.0769 14.2787 97.0651 14.1591 97.0881 14.0436C97.1111 13.9281 97.1678 13.8221 97.251 13.7388C97.3343 13.6556 97.4403 13.5989 97.5558 13.5759C97.6713 13.5529 97.7909 13.5647 97.8997 13.6098C98.0085 13.6548 98.1014 13.7311 98.1668 13.829C98.2322 13.9269 98.2672 14.042 98.2672 14.1597C98.267 14.3175 98.2042 14.4688 98.0926 14.5804C97.981 14.692 97.8297 14.7548 97.6719 14.755Z" fill="#3A576A"/>
<path d="M24.7042 10.3877C24.7042 10.1523 24.6344 9.92212 24.5036 9.72635C24.3728 9.53058 24.1868 9.37799 23.9693 9.28789C23.7518 9.19778 23.5124 9.17421 23.2815 9.22014C23.0505 9.26608 22.8384 9.37946 22.6719 9.54595C22.5054 9.71244 22.3921 9.92456 22.3461 10.1555C22.3002 10.3864 22.3238 10.6258 22.4139 10.8433C22.504 11.0608 22.6566 11.2468 22.8523 11.3776C23.0481 11.5084 23.2783 11.5782 23.5137 11.5782C23.8293 11.5779 24.1319 11.4523 24.3551 11.2291C24.5783 11.006 24.7038 10.7034 24.7042 10.3877ZM22.9185 10.3877C22.9185 10.27 22.9534 10.1549 23.0188 10.057C23.0842 9.95916 23.1772 9.88287 23.2859 9.83781C23.3947 9.79276 23.5144 9.78097 23.6298 9.80394C23.7453 9.82691 23.8514 9.8836 23.9346 9.96685C24.0179 10.0501 24.0746 10.1562 24.0975 10.2716C24.1205 10.3871 24.1087 10.5068 24.0636 10.6155C24.0186 10.7243 23.9423 10.8173 23.8444 10.8827C23.7465 10.9481 23.6314 10.983 23.5137 10.983C23.3559 10.9828 23.2046 10.9201 23.093 10.8085C22.9814 10.6969 22.9186 10.5456 22.9185 10.3877Z" fill="#3A576A"/>
<path d="M4.73263 21.6069L5.61715 20.4426L5.05822 20.126L4.49036 21.4295H4.47132L3.89453 20.1355L3.32548 20.4611L4.20167 21.5974V21.6165L2.83203 21.4391V22.0724L4.2106 21.8956V21.9141L3.32548 23.0504L3.85644 23.3855L4.46239 22.0724H4.48084L5.03977 23.376L5.62667 23.0409L4.73263 21.9236V21.9045L6.13858 22.0724V21.4391L4.73263 21.6254V21.6069Z" fill="#B4EDFF"/>
<path d="M36.1466 2.34666L35.6371 3.00082L35.9424 3.19368L36.2912 2.43773H36.3019L36.624 3.18832L36.9621 2.99547L36.4472 2.35142V2.3407L37.2567 2.43773V2.07285L36.4472 2.17999V2.16928L36.9567 1.49904L36.6347 1.31689L36.3073 2.06749H36.2966L35.9644 1.32166L35.6371 1.50975L36.1412 2.16392V2.17463L35.3525 2.07285V2.43773L36.1466 2.33594V2.34666Z" fill="#B4EDFF"/>
<path d="M96.4665 27.3874V26.7666L95.0873 26.9493V26.9309L95.9558 25.7892L95.4076 25.4785L94.8504 26.7571H94.8314L94.2659 25.4874L93.7076 25.8077L94.5671 26.922V26.9404L93.2236 26.7666V27.3874L94.576 27.2142V27.2327L93.7076 28.347L94.2284 28.6761L94.823 27.3874H94.8403L95.3885 28.6666L95.9647 28.338L95.0873 27.2416V27.2232L96.4665 27.3874Z" fill="#B4EDFF"/>
<path d="M69.9925 11.5322L70.7413 10.5476L70.2681 10.2798L69.7877 11.3828H69.7717L69.2836 10.2875L68.802 10.5631L69.5431 11.5244V11.5405L68.3848 11.3905V11.9262L69.5508 11.7768V11.7923L68.802 12.7536L69.2514 13.0375L69.7639 11.9262H69.7794L70.2526 13.0298L70.7491 12.7459L69.9925 11.8V11.7845L71.1818 11.9262V11.3905L69.9925 11.5482V11.5322Z" fill="#B4EDFF"/>
</g>
<defs>
<clipPath id="clip0_146_10942">
<rect width="100" height="100" fill="white" transform="translate(0.5)"/>
</clipPath>
</defs>
</svg>
