<svg width="101" height="100" viewBox="0 0 101 100" fill="none" xmlns="http://www.w3.org/2000/svg">
<g clip-path="url(#clip0_146_8559)">
<path d="M50.4998 25C61.0205 25 69.5474 22.0689 69.5474 18.4524C69.5474 14.8359 61.0205 11.9048 50.4998 11.9048C39.9791 11.9048 31.4521 14.8359 31.4521 18.4524C31.4521 22.0689 39.9791 25 50.4998 25ZM38.187 15.9468C42.1851 14.7804 46.3355 14.2205 50.4998 14.2857C54.664 14.2205 58.8145 14.7804 62.8126 15.9468C66.241 17.0547 67.1199 18.2137 67.167 18.4413C67.1199 18.691 66.241 19.8501 62.8126 20.958C58.8145 22.1244 54.664 22.6844 50.4998 22.6191C46.3355 22.6844 42.1851 22.1244 38.187 20.958C34.7585 19.8501 33.8796 18.691 33.8325 18.4634C33.8796 18.2138 34.7585 17.0547 38.187 15.9468Z" fill="#466B83"/>
<path d="M56.572 73.4081C56.7329 73.6795 56.9949 73.8759 57.3006 73.9542C57.6062 74.0325 57.9304 73.9863 58.202 73.8257C58.4736 73.6651 58.6703 73.4033 58.7489 73.0978C58.8276 72.7922 58.7818 72.468 58.6215 72.1962C57.77 70.896 56.6174 69.8204 55.2615 69.0606C53.9056 68.3008 52.3864 67.8793 50.8329 67.8318C49.1705 67.7791 47.522 68.1513 46.0436 68.9133C44.5651 69.6753 43.3055 70.8019 42.3839 72.1865C42.2224 72.4562 42.1742 72.7789 42.2497 73.084C42.3253 73.3891 42.5184 73.652 42.787 73.8152C43.0556 73.9785 43.3779 74.0289 43.6836 73.9554C43.9892 73.8819 44.2533 73.6905 44.4184 73.423C45.1175 72.3953 46.0658 71.5618 47.1745 71.0002C48.2833 70.4386 49.5164 70.1673 50.7585 70.2117C51.9118 70.2441 53.0407 70.5511 54.0517 71.1069C55.0627 71.6628 55.9267 72.4517 56.572 73.4081Z" fill="#466B83"/>
<path d="M44.8222 56.2425C44.8222 55.2131 44.517 54.2069 43.9451 53.351C43.3732 52.4951 42.5604 51.828 41.6094 51.4341C40.6584 51.0402 39.612 50.9371 38.6024 51.1379C37.5928 51.3387 36.6655 51.8343 35.9376 52.5622C35.2097 53.29 34.714 54.2174 34.5131 55.2269C34.3123 56.2365 34.4153 57.2829 34.8092 58.2339C35.2031 59.185 35.8701 59.9978 36.7259 60.5697C37.5818 61.1417 38.588 61.447 39.6174 61.447C40.9977 61.447 42.3215 60.8986 43.2976 59.9226C44.2736 58.9466 44.8221 57.6228 44.8222 56.2425ZM39.6174 59.0661C39.1477 59.0673 38.6853 58.951 38.272 58.7278C37.8588 58.5046 37.508 58.1817 37.2514 57.7883C36.9949 57.395 36.8407 56.9437 36.8031 56.4756C36.7654 56.0075 36.8455 55.5374 37.0359 55.1081C37.257 55.5284 37.6127 55.8625 38.0461 56.0568C38.4795 56.2511 38.9656 56.2944 39.4265 56.1798C39.8874 56.0652 40.2966 55.7993 40.5886 55.4246C40.8805 55.05 41.0383 54.5882 41.0368 54.1132C41.0342 54.0076 41.0235 53.9024 41.0048 53.7984C41.5483 54.1035 41.975 54.5803 42.2182 55.1542C42.4614 55.728 42.5072 56.3662 42.3485 56.9689C42.1897 57.5715 41.8354 58.1044 41.3411 58.484C40.8468 58.8636 40.2405 59.0683 39.6174 59.0661Z" fill="#466B83"/>
<path d="M38.7151 45.173C38.6285 45.0428 38.5171 44.9309 38.3872 44.8438C38.2573 44.7568 38.1115 44.6962 37.9582 44.6655C37.8049 44.6348 37.647 44.6347 37.4936 44.6651C37.3402 44.6955 37.1943 44.7559 37.0643 44.8428L31.3868 48.6278C31.2559 48.7142 31.1433 48.8255 31.0555 48.9555C30.9677 49.0855 30.9064 49.2316 30.8753 49.3853C30.8441 49.539 30.8437 49.6974 30.8739 49.8513C30.9041 50.0052 30.9645 50.1516 31.0515 50.2822C31.1385 50.4127 31.2505 50.5247 31.3809 50.6118C31.5114 50.6989 31.6577 50.7594 31.8116 50.7897C31.9655 50.8201 32.1239 50.8198 32.2776 50.7887C32.4314 50.7577 32.5775 50.6966 32.7076 50.6089L38.385 46.8238C38.6476 46.6487 38.83 46.3763 38.8919 46.0668C38.9538 45.7572 38.8902 45.4357 38.7151 45.173Z" fill="#466B83"/>
<path d="M61.3825 61.447C62.4119 61.447 63.4181 61.1417 64.274 60.5698C65.1298 59.9979 65.7968 59.185 66.1907 58.234C66.5846 57.283 66.6876 56.2365 66.4868 55.227C66.2859 54.2174 65.7902 53.2901 65.0623 52.5623C64.3345 51.8344 63.4071 51.3388 62.3975 51.138C61.388 50.9372 60.3415 51.0402 59.3905 51.4342C58.4395 51.8281 57.6267 52.4952 57.0548 53.351C56.483 54.2069 56.1777 55.2131 56.1777 56.2425C56.1777 56.926 56.3124 57.6028 56.5739 58.2342C56.8355 58.8657 57.2189 59.4395 57.7022 59.9227C58.1855 60.406 58.7593 60.7894 59.3908 61.0509C60.0222 61.3125 60.6991 61.4471 61.3825 61.447ZM59.995 53.7984C59.9764 53.9024 59.9657 54.0076 59.9631 54.1132C59.9616 54.5882 60.1194 55.05 60.4113 55.4246C60.7033 55.7993 61.1125 56.0652 61.5734 56.1798C62.0343 56.2944 62.5204 56.2511 62.9538 56.0568C63.3872 55.8625 63.7429 55.5284 63.964 55.1081C64.187 55.608 64.2599 56.162 64.1739 56.7026C64.0879 57.2432 63.8466 57.7472 63.4796 58.1533C63.1125 58.5593 62.6353 58.85 62.1061 58.99C61.5769 59.1299 61.0184 59.1131 60.4985 58.9416C59.9787 58.77 59.5199 58.4512 59.1779 58.0238C58.8359 57.5963 58.6254 57.0788 58.5721 56.5339C58.5187 55.9891 58.6248 55.4406 58.8774 54.9549C59.1301 54.4693 59.5183 54.0675 59.995 53.7984Z" fill="#466B83"/>
<path d="M62.6146 46.8239L68.2921 50.6089C68.4221 50.6966 68.5682 50.7578 68.722 50.7889C68.8758 50.82 69.0342 50.8204 69.1881 50.7901C69.3421 50.7597 69.4885 50.6993 69.619 50.6121C69.7495 50.525 69.8614 50.413 69.9485 50.2824C70.0355 50.1519 70.0959 50.0054 70.1261 49.8515C70.1564 49.6975 70.1559 49.5391 70.1247 49.3853C70.0935 49.2316 70.0322 49.0855 69.9443 48.9555C69.8565 48.8255 69.7438 48.7141 69.6128 48.6278L63.9353 44.8428C63.6726 44.6682 63.3514 44.605 63.0421 44.6671C62.7328 44.7292 62.4609 44.9115 62.2859 45.1739C62.1109 45.4364 62.0473 45.7575 62.1089 46.0669C62.1705 46.3763 62.3524 46.6485 62.6146 46.8239Z" fill="#466B83"/>
<path d="M21.3453 22.0122C21.6985 22.0122 22.0437 21.9075 22.3374 21.7112C22.631 21.515 22.8599 21.2361 22.9951 20.9098C23.1302 20.5835 23.1656 20.2245 23.0967 19.8781C23.0278 19.5317 22.8577 19.2135 22.608 18.9638C22.3582 18.7141 22.0401 18.544 21.6937 18.4751C21.3473 18.4062 20.9882 18.4415 20.6619 18.5767C20.3356 18.7119 20.0567 18.9407 19.8605 19.2344C19.6643 19.528 19.5596 19.8733 19.5596 20.2265C19.5601 20.6999 19.7484 21.1538 20.0832 21.4886C20.418 21.8233 20.8718 22.0117 21.3453 22.0122ZM21.3453 19.3336C21.5219 19.3336 21.6945 19.386 21.8413 19.4841C21.9882 19.5822 22.1026 19.7217 22.1702 19.8848C22.2378 20.0479 22.2554 20.2275 22.221 20.4007C22.1865 20.5739 22.1015 20.733 21.9766 20.8578C21.8518 20.9827 21.6927 21.0677 21.5195 21.1022C21.3463 21.1366 21.1668 21.119 21.0036 21.0514C20.8405 20.9838 20.701 20.8694 20.6029 20.7225C20.5048 20.5757 20.4524 20.4031 20.4524 20.2265C20.4527 19.9898 20.5468 19.7628 20.7142 19.5954C20.8816 19.428 21.1086 19.3339 21.3453 19.3336Z" fill="#466B83"/>
<path d="M76.107 9.51219C76.4602 9.51219 76.8054 9.40746 77.0991 9.21125C77.3928 9.01503 77.6216 8.73614 77.7568 8.40984C77.8919 8.08355 77.9273 7.7245 77.8584 7.3781C77.7895 7.03171 77.6194 6.71353 77.3697 6.46379C77.12 6.21405 76.8018 6.04398 76.4554 5.97508C76.109 5.90618 75.7499 5.94154 75.4236 6.0767C75.0973 6.21185 74.8184 6.44073 74.6222 6.73439C74.426 7.02805 74.3213 7.3733 74.3213 7.72648C74.3218 8.19991 74.5101 8.6538 74.8449 8.98857C75.1797 9.32334 75.6336 9.51165 76.107 9.51219ZM76.107 6.83362C76.2836 6.83362 76.4562 6.88599 76.603 6.9841C76.7499 7.08221 76.8643 7.22165 76.9319 7.3848C76.9995 7.54795 77.0171 7.72747 76.9827 7.90067C76.9482 8.07387 76.8632 8.23296 76.7383 8.35783C76.6135 8.48269 76.4544 8.56773 76.2812 8.60218C76.108 8.63663 75.9285 8.61895 75.7653 8.55137C75.6022 8.48379 75.4627 8.36936 75.3646 8.22253C75.2665 8.0757 75.2141 7.90307 75.2141 7.72648C75.2144 7.48975 75.3085 7.26279 75.4759 7.09539C75.6433 6.928 75.8703 6.83386 76.107 6.83362Z" fill="#466B83"/>
<path d="M52.8931 4.75029C53.2463 4.75029 53.5916 4.64556 53.8852 4.44935C54.1789 4.25313 54.4078 3.97424 54.5429 3.64794C54.6781 3.32165 54.7134 2.9626 54.6445 2.6162C54.5756 2.26981 54.4056 1.95162 54.1558 1.70189C53.9061 1.45215 53.5879 1.28208 53.2415 1.21318C52.8951 1.14427 52.5361 1.17964 52.2098 1.31479C51.8835 1.44995 51.6046 1.67883 51.4084 1.97249C51.2121 2.26615 51.1074 2.6114 51.1074 2.96458C51.108 3.43801 51.2963 3.8919 51.631 4.22667C51.9658 4.56144 52.4197 4.74975 52.8931 4.75029ZM52.8931 2.07172C53.0697 2.07172 53.2423 2.12409 53.3892 2.2222C53.536 2.3203 53.6504 2.45975 53.718 2.6229C53.7856 2.78605 53.8033 2.96557 53.7688 3.13877C53.7344 3.31196 53.6493 3.47106 53.5245 3.59592C53.3996 3.72079 53.2405 3.80583 53.0673 3.84028C52.8941 3.87473 52.7146 3.85705 52.5515 3.78947C52.3883 3.72189 52.2489 3.60745 52.1508 3.46062C52.0526 3.31379 52.0003 3.14117 52.0003 2.96458C52.0005 2.72785 52.0947 2.50088 52.262 2.33349C52.4294 2.1661 52.6564 2.07195 52.8931 2.07172Z" fill="#466B83"/>
<path d="M94.5596 36.2979C94.7951 36.2979 95.0252 36.2281 95.221 36.0973C95.4168 35.9665 95.5694 35.7805 95.6595 35.563C95.7496 35.3455 95.7732 35.1061 95.7272 34.8752C95.6813 34.6443 95.5679 34.4321 95.4014 34.2656C95.2349 34.0992 95.0228 33.9858 94.7919 33.9398C94.5609 33.8939 94.3216 33.9175 94.104 34.0076C93.8865 34.0977 93.7006 34.2503 93.5698 34.446C93.439 34.6418 93.3691 34.872 93.3691 35.1074C93.3695 35.4231 93.495 35.7257 93.7182 35.9488C93.9414 36.172 94.244 36.2976 94.5596 36.2979ZM94.5596 34.5122C94.6773 34.5122 94.7924 34.5471 94.8903 34.6125C94.9882 34.6779 95.0645 34.7709 95.1096 34.8797C95.1546 34.9884 95.1664 35.1081 95.1434 35.2236C95.1205 35.339 95.0638 35.4451 94.9805 35.5283C94.8973 35.6116 94.7912 35.6683 94.6757 35.6912C94.5603 35.7142 94.4406 35.7024 94.3318 35.6574C94.2231 35.6123 94.1301 35.536 94.0647 35.4381C93.9993 35.3403 93.9644 35.2252 93.9644 35.1074C93.9645 34.9496 94.0273 34.7983 94.1389 34.6867C94.2505 34.5751 94.4018 34.5124 94.5596 34.5122Z" fill="#466B83"/>
<path d="M80.8692 43.4408C81.1046 43.4408 81.3348 43.3709 81.5306 43.2401C81.7264 43.1093 81.8789 42.9234 81.969 42.7059C82.0592 42.4883 82.0827 42.249 82.0368 42.018C81.9909 41.7871 81.8775 41.575 81.711 41.4085C81.5445 41.242 81.3324 41.1286 81.1014 41.0827C80.8705 41.0368 80.6311 41.0603 80.4136 41.1504C80.1961 41.2405 80.0102 41.3931 79.8793 41.5889C79.7485 41.7847 79.6787 42.0148 79.6787 42.2503C79.6791 42.5659 79.8046 42.8685 80.0278 43.0917C80.251 43.3149 80.5536 43.4404 80.8692 43.4408ZM80.8692 41.6551C80.9869 41.6551 81.102 41.69 81.1999 41.7554C81.2978 41.8208 81.3741 41.9137 81.4191 42.0225C81.4642 42.1313 81.476 42.251 81.453 42.3664C81.43 42.4819 81.3733 42.5879 81.2901 42.6712C81.2068 42.7544 81.1008 42.8111 80.9853 42.8341C80.8699 42.8571 80.7502 42.8453 80.6414 42.8002C80.5326 42.7552 80.4397 42.6789 80.3743 42.581C80.3089 42.4831 80.2739 42.368 80.2739 42.2503C80.2741 42.0925 80.3369 41.9412 80.4485 41.8296C80.5601 41.718 80.7114 41.6552 80.8692 41.6551Z" fill="#466B83"/>
<path d="M11.8213 12.4884C12.0568 12.4884 12.287 12.4186 12.4827 12.2877C12.6785 12.1569 12.8311 11.971 12.9212 11.7535C13.0113 11.5359 13.0349 11.2966 12.9889 11.0656C12.943 10.8347 12.8296 10.6226 12.6631 10.4561C12.4966 10.2896 12.2845 10.1762 12.0536 10.1303C11.8227 10.0844 11.5833 10.1079 11.3658 10.198C11.1482 10.2881 10.9623 10.4407 10.8315 10.6365C10.7007 10.8323 10.6309 11.0624 10.6309 11.2979C10.6312 11.6135 10.7568 11.9161 10.9799 12.1393C11.2031 12.3625 11.5057 12.488 11.8213 12.4884ZM11.8213 10.7027C11.9391 10.7027 12.0541 10.7376 12.152 10.803C12.2499 10.8684 12.3262 10.9613 12.3713 11.0701C12.4163 11.1789 12.4281 11.2986 12.4051 11.414C12.3822 11.5295 12.3255 11.6355 12.2422 11.7188C12.159 11.802 12.0529 11.8587 11.9375 11.8817C11.822 11.9047 11.7023 11.8929 11.5935 11.8478C11.4848 11.8028 11.3918 11.7265 11.3264 11.6286C11.261 11.5307 11.2261 11.4156 11.2261 11.2979C11.2263 11.1401 11.289 10.9888 11.4006 10.8772C11.5122 10.7656 11.6635 10.7028 11.8213 10.7027Z" fill="#466B83"/>
<path d="M1.70219 89.8691C2.35968 89.8691 2.89267 89.3361 2.89267 88.6786C2.89267 88.0211 2.35968 87.4881 1.70219 87.4881C1.04471 87.4881 0.511719 88.0211 0.511719 88.6786C0.511719 89.3361 1.04471 89.8691 1.70219 89.8691Z" fill="#466B83"/>
<path d="M7.0592 87.4884H5.27348C4.95775 87.4884 4.65495 87.6138 4.43169 87.8371C4.20843 88.0603 4.08301 88.3631 4.08301 88.6789C4.08301 88.9946 4.20843 89.2974 4.43169 89.5207C4.65495 89.7439 4.95775 89.8694 5.27348 89.8694H7.0592C7.37493 89.8694 7.67773 89.7439 7.90099 89.5207C8.12425 89.2974 8.24967 88.9946 8.24967 88.6789C8.24967 88.3631 8.12425 88.0603 7.90099 87.8371C7.67773 87.6138 7.37493 87.4884 7.0592 87.4884Z" fill="#466B83"/>
<path d="M95.7496 87.4884H93.9639C93.6482 87.4884 93.3454 87.6138 93.1221 87.8371C92.8989 88.0603 92.7734 88.3631 92.7734 88.6789C92.7734 88.9946 92.8989 89.2974 93.1221 89.5207C93.3454 89.7439 93.6482 89.8694 93.9639 89.8694H95.7496C96.0654 89.8694 96.3682 89.7439 96.5914 89.5207C96.8147 89.2974 96.9401 88.9946 96.9401 88.6789C96.9401 88.3631 96.8147 88.0603 96.5914 87.8371C96.3682 87.6138 96.0654 87.4884 95.7496 87.4884Z" fill="#466B83"/>
<path d="M99.3213 89.8691C99.9788 89.8691 100.512 89.3361 100.512 88.6786C100.512 88.0211 99.9788 87.4881 99.3213 87.4881C98.6639 87.4881 98.1309 88.0211 98.1309 88.6786C98.1309 89.3361 98.6639 89.8691 99.3213 89.8691Z" fill="#466B83"/>
<path d="M90.2267 87.4884H56.5623C63.9345 85.9858 70.486 81.7991 74.9464 75.7402C79.4069 69.6812 81.4585 62.1818 80.7034 54.696C79.9482 47.2103 76.4402 40.2717 70.8596 35.2256C65.2789 30.1796 58.0232 27.3857 50.4995 27.3857C42.9758 27.3857 35.7201 30.1796 30.1394 35.2256C24.5588 40.2717 21.0508 47.2103 20.2956 54.696C19.5405 62.1818 21.5921 69.6812 26.0526 75.7402C30.513 81.7991 37.0646 85.9858 44.4367 87.4884H10.7966C10.6272 87.4663 10.4551 87.4805 10.2917 87.5302C10.1283 87.5799 9.97734 87.6639 9.84898 87.7766C9.72062 87.8893 9.61778 88.028 9.54733 88.1836C9.47687 88.3392 9.44043 88.5081 9.44043 88.6789C9.44043 88.8497 9.47687 89.0185 9.54733 89.1741C9.61778 89.3297 9.72062 89.4685 9.84898 89.5811C9.97734 89.6938 10.1283 89.7778 10.2917 89.8275C10.4551 89.8772 10.6272 89.8915 10.7966 89.8693H90.2267C90.3961 89.8915 90.5682 89.8772 90.7316 89.8275C90.895 89.7778 91.0459 89.6938 91.1743 89.5811C91.3027 89.4685 91.4055 89.3297 91.476 89.1741C91.5464 89.0185 91.5828 88.8497 91.5828 88.6789C91.5828 88.5081 91.5464 88.3392 91.476 88.1836C91.4055 88.028 91.3027 87.8893 91.1743 87.7766C91.0459 87.6639 90.895 87.5799 90.7316 87.5302C90.5682 87.4805 90.3961 87.4663 90.2267 87.4884ZM22.5233 57.7384C22.5233 52.2052 24.164 46.7963 27.238 42.1956C30.312 37.5949 34.6813 34.0091 39.7933 31.8916C44.9053 29.7741 50.5303 29.22 55.9572 30.2994C61.3841 31.3789 66.369 34.0433 70.2816 37.9559C74.1941 41.8684 76.8586 46.8533 77.9381 52.2801C79.0176 57.707 78.4636 63.3321 76.3462 68.4441C74.2287 73.5561 70.6429 77.9254 66.0423 80.9994C61.4416 84.0735 56.0327 85.7143 50.4995 85.7143C43.0824 85.7059 35.9715 82.7557 30.7268 77.5111C25.482 72.2664 22.5318 65.1555 22.5233 57.7384Z" fill="#466B83"/>
<path d="M4.43087 33.9238L5.31539 32.7595L4.75646 32.4429L4.18861 33.7464H4.16956L3.59277 32.4524L3.02373 32.778L3.89992 33.9143V33.9333L2.53027 33.756V34.3893L3.90884 34.2125V34.231L3.02373 35.3673L3.55468 35.7024L4.16063 34.3893H4.17908L4.73801 35.6935L5.32492 35.3578L4.43087 34.2405V34.2214L5.83623 34.3893V33.756L4.43087 33.9423V33.9238Z" fill="#FDB549"/>
<path d="M19.7275 38.5417L20.237 37.8708L19.915 37.6887L19.5882 38.4393H19.5769L19.2447 37.694L18.9173 37.8815L19.4215 38.5363V38.547L18.6328 38.4446V38.8095L19.4269 38.7077V38.7184L18.9173 39.3726L19.2227 39.5661L19.5721 38.8095H19.5822L19.9042 39.5607L20.2423 39.3673L19.7275 38.7238V38.7131L20.537 38.8095V38.4446L19.7275 38.5524V38.5417Z" fill="#FDB549"/>
<path d="M79.2509 24.256L79.7604 23.5851L79.4384 23.403L79.1116 24.1536H79.1003L78.7682 23.4083L78.4408 23.5958L78.9449 24.2506V24.2613L78.1562 24.1589V24.5238L78.9503 24.422V24.4327L78.4408 25.0869L78.7461 25.2804L79.0955 24.5238H79.1057L79.4277 25.275L79.7658 25.0816L79.2509 24.4381V24.4274L80.0604 24.5238V24.1589L79.2509 24.2667V24.256Z" fill="#FDB549"/>
<path d="M94.5593 17.675V17.0536L93.1807 17.2363V17.2185L94.0485 16.0762L93.5003 15.7661L92.9432 17.0447H92.9247L92.3587 15.775L91.8009 16.0947L92.6599 17.2095V17.2274L91.3164 17.0536V17.675L92.6688 17.5018V17.5197L91.8009 18.6339L92.3212 18.9631L92.9158 17.675H92.9337L93.4819 18.9542L94.0575 18.625L93.1807 17.5286V17.5107L94.5593 17.675Z" fill="#FDB549"/>
<path d="M34.2633 5.95418L33.5145 6.91549L33.9639 7.19942L34.4764 6.08811H34.4919L34.9645 7.19168L35.461 6.90775L34.705 5.96192V5.94644L35.8943 6.08811V5.5524L34.705 5.71013V5.69406L35.4538 4.70954L34.9806 4.44168L34.5002 5.54466H34.4842L33.9961 4.44942L33.5145 4.72501L34.2556 5.68632V5.7024L33.0967 5.5524V6.08811L34.2633 5.9387V5.95418Z" fill="#FDB549"/>
<path d="M70.8418 92.8455H65.8968C65.5975 92.8695 65.3182 93.0053 65.1146 93.2259C64.9109 93.4465 64.7979 93.7358 64.7979 94.036C64.7979 94.3362 64.9109 94.6255 65.1146 94.8461C65.3182 95.0667 65.5975 95.2025 65.8968 95.2265H70.8418C71.1411 95.2025 71.4204 95.0667 71.624 94.8461C71.8277 94.6255 71.9407 94.3362 71.9407 94.036C71.9407 93.7358 71.8277 93.4465 71.624 93.2259C71.4204 93.0053 71.1411 92.8695 70.8418 92.8455Z" fill="#FDB549"/>
<path d="M35.128 92.8455H30.1829C29.8836 92.8695 29.6043 93.0053 29.4007 93.2259C29.1971 93.4465 29.084 93.7358 29.084 94.036C29.084 94.3362 29.1971 94.6255 29.4007 94.8461C29.6043 95.0667 29.8836 95.2025 30.1829 95.2265H35.128C35.4272 95.2025 35.7065 95.0667 35.9102 94.8461C36.1138 94.6255 36.2269 94.3362 36.2269 94.036C36.2269 93.7358 36.1138 93.4465 35.9102 93.2259C35.7065 93.0053 35.4272 92.8695 35.128 92.8455Z" fill="#FDB549"/>
<path d="M62.417 92.8455H38.6075C38.2917 92.8455 37.9889 92.9709 37.7657 93.1942C37.5424 93.4175 37.417 93.7203 37.417 94.036C37.417 94.3517 37.5424 94.6545 37.7657 94.8778C37.9889 95.101 38.2917 95.2265 38.6075 95.2265H48.0956V96.4169H43.3694C43.0536 96.4169 42.7508 96.5424 42.5276 96.7656C42.3043 96.9889 42.1789 97.2917 42.1789 97.6074C42.1789 97.9232 42.3043 98.226 42.5276 98.4492C42.7508 98.6725 43.0536 98.7979 43.3694 98.7979H58.2503C58.5661 98.7979 58.8689 98.6725 59.0921 98.4492C59.3154 98.226 59.4408 97.9232 59.4408 97.6074C59.4408 97.2917 59.3154 96.9889 59.0921 96.7656C58.8689 96.5424 58.5661 96.4169 58.2503 96.4169H52.9289V95.2265H62.417C62.7327 95.2265 63.0355 95.101 63.2588 94.8778C63.482 94.6545 63.6075 94.3517 63.6075 94.036C63.6075 93.7203 63.482 93.4175 63.2588 93.1942C63.0355 92.9709 62.7327 92.8455 62.417 92.8455Z" fill="#FDB549"/>
</g>
<defs>
<clipPath id="clip0_146_8559">
<rect width="100" height="100" fill="white" transform="translate(0.5)"/>
</clipPath>
</defs>
</svg>
