<svg width="472" height="613" viewBox="0 0 472 613" fill="none" xmlns="http://www.w3.org/2000/svg">
<line x1="3" y1="1.31135e-07" x2="2.99999" y2="112" stroke="#B4EDFF" stroke-width="6"/>
<line x1="26.3" y1="1.31135e-07" x2="26.3" y2="112" stroke="#B4EDFF" stroke-width="6"/>
<line x1="49.6" y1="1.31135e-07" x2="49.6" y2="112" stroke="#B4EDFF" stroke-width="6"/>
<line x1="72.9" y1="1.31135e-07" x2="72.9" y2="112" stroke="#B4EDFF" stroke-width="6"/>
<line x1="96.2" y1="1.31135e-07" x2="96.1999" y2="112" stroke="#B4EDFF" stroke-width="6"/>
<line x1="119.5" y1="1.31135e-07" x2="119.5" y2="112" stroke="#B4EDFF" stroke-width="6"/>
<line x1="142.8" y1="1.31135e-07" x2="142.8" y2="112" stroke="#B4EDFF" stroke-width="6"/>
<line x1="166.1" y1="1.31135e-07" x2="166.1" y2="112" stroke="#B4EDFF" stroke-width="6"/>
<line x1="189.4" y1="1.31135e-07" x2="189.4" y2="112" stroke="#B4EDFF" stroke-width="6"/>
<line x1="212.7" y1="1.31135e-07" x2="212.7" y2="112" stroke="#B4EDFF" stroke-width="6"/>
<line x1="236" y1="1.31135e-07" x2="236" y2="112" stroke="#B4EDFF" stroke-width="6"/>
<line x1="259.3" y1="1.31135e-07" x2="259.3" y2="112" stroke="#B4EDFF" stroke-width="6"/>
<line x1="282.6" y1="1.31135e-07" x2="282.6" y2="112" stroke="#B4EDFF" stroke-width="6"/>
<line x1="305.9" y1="1.31135e-07" x2="305.9" y2="112" stroke="#B4EDFF" stroke-width="6"/>
<line x1="329.2" y1="1.31135e-07" x2="329.2" y2="112" stroke="#B4EDFF" stroke-width="6"/>
<line x1="352.5" y1="1.31135e-07" x2="352.5" y2="112" stroke="#B4EDFF" stroke-width="6"/>
<line x1="375.8" y1="1.31135e-07" x2="375.8" y2="112" stroke="#B4EDFF" stroke-width="6"/>
<line x1="399.1" y1="1.31135e-07" x2="399.1" y2="112" stroke="#B4EDFF" stroke-width="6"/>
<line x1="422.4" y1="1.31135e-07" x2="422.4" y2="112" stroke="#B4EDFF" stroke-width="6"/>
<line x1="445.7" y1="1.31135e-07" x2="445.7" y2="112" stroke="#B4EDFF" stroke-width="6"/>
<line x1="469" y1="1.31135e-07" x2="469" y2="112" stroke="#B4EDFF" stroke-width="6"/>
<line x1="3" y1="167" x2="2.99999" y2="279" stroke="#B4EDFF" stroke-width="6"/>
<line x1="34.0667" y1="167" x2="34.0666" y2="279" stroke="#B4EDFF" stroke-width="6"/>
<line x1="65.1333" y1="167" x2="65.1333" y2="279" stroke="#B4EDFF" stroke-width="6"/>
<line x1="96.2" y1="167" x2="96.1999" y2="279" stroke="#B4EDFF" stroke-width="6"/>
<line x1="127.267" y1="167" x2="127.267" y2="279" stroke="#B4EDFF" stroke-width="6"/>
<line x1="158.333" y1="167" x2="158.333" y2="279" stroke="#B4EDFF" stroke-width="6"/>
<line x1="189.4" y1="167" x2="189.4" y2="279" stroke="#B4EDFF" stroke-width="6"/>
<line x1="220.467" y1="167" x2="220.467" y2="279" stroke="#B4EDFF" stroke-width="6"/>
<line x1="251.533" y1="167" x2="251.533" y2="279" stroke="#B4EDFF" stroke-width="6"/>
<line x1="282.6" y1="167" x2="282.6" y2="279" stroke="#B4EDFF" stroke-width="6"/>
<line x1="313.667" y1="167" x2="313.667" y2="279" stroke="#B4EDFF" stroke-width="6"/>
<line x1="344.733" y1="167" x2="344.733" y2="279" stroke="#B4EDFF" stroke-width="6"/>
<line x1="375.8" y1="167" x2="375.8" y2="279" stroke="#B4EDFF" stroke-width="6"/>
<line x1="406.867" y1="167" x2="406.867" y2="279" stroke="#B4EDFF" stroke-width="6"/>
<line x1="437.933" y1="167" x2="437.933" y2="279" stroke="#B4EDFF" stroke-width="6"/>
<line x1="469" y1="167" x2="469" y2="279" stroke="#B4EDFF" stroke-width="6"/>
<line x1="3" y1="334" x2="2.99999" y2="446" stroke="#B4EDFF" stroke-width="6"/>
<line x1="49.6" y1="334" x2="49.6" y2="446" stroke="#B4EDFF" stroke-width="6"/>
<line x1="96.2" y1="334" x2="96.1999" y2="446" stroke="#B4EDFF" stroke-width="6"/>
<line x1="142.8" y1="334" x2="142.8" y2="446" stroke="#B4EDFF" stroke-width="6"/>
<line x1="189.4" y1="334" x2="189.4" y2="446" stroke="#B4EDFF" stroke-width="6"/>
<line x1="236" y1="334" x2="236" y2="446" stroke="#B4EDFF" stroke-width="6"/>
<line x1="282.6" y1="334" x2="282.6" y2="446" stroke="#B4EDFF" stroke-width="6"/>
<line x1="329.2" y1="334" x2="329.2" y2="446" stroke="#B4EDFF" stroke-width="6"/>
<line x1="375.8" y1="334" x2="375.8" y2="446" stroke="#B4EDFF" stroke-width="6"/>
<line x1="422.4" y1="334" x2="422.4" y2="446" stroke="#B4EDFF" stroke-width="6"/>
<line x1="469" y1="334" x2="469" y2="446" stroke="#B4EDFF" stroke-width="6"/>
<line x1="3" y1="501" x2="2.99999" y2="613" stroke="#B4EDFF" stroke-width="6"/>
<line x1="69.5714" y1="501" x2="69.5714" y2="613" stroke="#B4EDFF" stroke-width="6"/>
<line x1="136.143" y1="501" x2="136.143" y2="613" stroke="#B4EDFF" stroke-width="6"/>
<line x1="202.714" y1="501" x2="202.714" y2="613" stroke="#B4EDFF" stroke-width="6"/>
<line x1="269.286" y1="501" x2="269.286" y2="613" stroke="#B4EDFF" stroke-width="6"/>
<line x1="335.857" y1="501" x2="335.857" y2="613" stroke="#B4EDFF" stroke-width="6"/>
<line x1="402.429" y1="501" x2="402.429" y2="613" stroke="#B4EDFF" stroke-width="6"/>
<line x1="469" y1="501" x2="469" y2="613" stroke="#B4EDFF" stroke-width="6"/>
</svg>
