<svg width="101" height="100" viewBox="0 0 101 100" fill="none" xmlns="http://www.w3.org/2000/svg">
<g clip-path="url(#clip0_146_8648)">
<path d="M70.8301 93.0295H65.885C65.5858 93.0535 65.3065 93.1893 65.1029 93.4099C64.8992 93.6305 64.7861 93.9197 64.7861 94.22C64.7861 94.5202 64.8992 94.8094 65.1029 95.03C65.3065 95.2506 65.5858 95.3865 65.885 95.4104H70.8301C71.1294 95.3865 71.4087 95.2506 71.6123 95.03C71.8159 94.8094 71.929 94.5202 71.929 94.22C71.929 93.9197 71.8159 93.6305 71.6123 93.4099C71.4087 93.1893 71.1294 93.0535 70.8301 93.0295Z" fill="#FDB549"/>
<path d="M35.1153 93.0295H30.1702C29.8709 93.0535 29.5917 93.1893 29.388 93.4099C29.1844 93.6305 29.0713 93.9197 29.0713 94.22C29.0713 94.5202 29.1844 94.8094 29.388 95.03C29.5917 95.2506 29.8709 95.3865 30.1702 95.4104H35.1153C35.4145 95.3865 35.6938 95.2506 35.8975 95.03C36.1011 94.8094 36.2142 94.5202 36.2142 94.22C36.2142 93.9197 36.1011 93.6305 35.8975 93.4099C35.6938 93.1893 35.4145 93.0535 35.1153 93.0295Z" fill="#FDB549"/>
<path d="M62.4043 93.0295H38.5948C38.279 93.0295 37.9762 93.1549 37.753 93.3782C37.5297 93.6014 37.4043 93.9042 37.4043 94.22C37.4043 94.5357 37.5297 94.8385 37.753 95.0618C37.9762 95.285 38.279 95.4104 38.5948 95.4104H48.0829V96.6009H43.3567C43.0409 96.6009 42.7381 96.7263 42.5149 96.9496C42.2916 97.1728 42.1662 97.4757 42.1662 97.7914C42.1662 98.1071 42.2916 98.4099 42.5149 98.6332C42.7381 98.8564 43.0409 98.9819 43.3567 98.9819H58.2376C58.5534 98.9819 58.8562 98.8564 59.0794 98.6332C59.3027 98.4099 59.4281 98.1071 59.4281 97.7914C59.4281 97.4757 59.3027 97.1728 59.0794 96.9496C58.8562 96.7263 58.5534 96.6009 58.2376 96.6009H52.9162V95.4104H62.4043C62.72 95.4104 63.0228 95.285 63.2461 95.0618C63.4694 94.8385 63.5948 94.5357 63.5948 94.22C63.5948 93.9042 63.4694 93.6014 63.2461 93.3782C63.0228 93.1549 62.72 93.0295 62.4043 93.0295Z" fill="#FDB549"/>
<path d="M30.8571 47.781C28.9743 47.7816 27.1339 48.3405 25.5687 49.387C24.0035 50.4336 22.7837 51.9207 22.0636 53.6604C21.3435 55.4001 21.1555 57.3143 21.5232 59.1609C21.8909 61.0075 22.7979 62.7036 24.1295 64.0347C25.4612 65.3659 27.1576 66.2723 29.0043 66.6394C30.851 67.0064 32.7651 66.8177 34.5046 66.097C36.244 65.3763 37.7307 64.156 38.7767 62.5904C39.8227 61.0248 40.3809 59.1842 40.3809 57.3014C40.3809 56.0509 40.1345 54.8126 39.6559 53.6573C39.1772 52.5021 38.4756 51.4524 37.5912 50.5683C36.7068 49.6842 35.6569 48.983 34.5014 48.5047C33.346 48.0265 32.1076 47.7805 30.8571 47.781ZM30.8571 64.4418C29.445 64.4413 28.0647 64.0221 26.8908 63.2372C25.717 62.4523 24.8021 61.337 24.2621 60.0322C23.722 58.7275 23.581 57.2918 23.8568 55.9069C24.1326 54.522 24.8128 53.2499 25.8115 52.2516C26.8102 51.2532 28.0825 50.5734 29.4675 50.2981C30.8525 50.0228 32.2881 50.1643 33.5927 50.7049C34.8972 51.2454 36.0123 52.1605 36.7968 53.3347C37.5812 54.5089 38 55.8893 38 57.3014C37.9975 59.1948 37.2441 61.0099 35.905 62.3486C34.5659 63.6872 32.7505 64.44 30.8571 64.4418Z" fill="#FDB549"/>
<path d="M70.143 66.822C72.0258 66.8214 73.8662 66.2625 75.4314 65.2159C76.9966 64.1694 78.2164 62.6823 78.9364 60.9426C79.6565 59.2029 79.8446 57.2887 79.4769 55.4421C79.1092 53.5956 78.2022 51.8995 76.8706 50.5683C75.539 49.2372 73.8426 48.3307 71.9959 47.9636C70.1492 47.5966 68.2351 47.7853 66.4956 48.5059C64.7562 49.2266 63.2694 50.4469 62.2234 52.0124C61.1775 53.578 60.6192 55.4186 60.6191 57.3014C60.6192 58.5519 60.8656 59.7902 61.3443 60.9455C61.8229 62.1007 62.5245 63.1504 63.4089 64.0345C64.2933 64.9186 65.3432 65.6198 66.4986 66.0981C67.6541 66.5764 68.8924 66.8224 70.143 66.822ZM70.143 50.1611C71.5551 50.1616 72.9353 50.5808 74.1092 51.3657C75.2831 52.1506 76.1979 53.2659 76.738 54.5707C77.278 55.8755 77.4191 57.3111 77.1433 58.696C76.8675 60.0809 76.1872 61.353 75.1885 62.3513C74.1898 63.3497 72.9175 64.0295 71.5325 64.3048C70.1475 64.5801 68.7119 64.4385 67.4073 63.898C66.1028 63.3575 64.9877 62.4423 64.2033 61.2681C63.4188 60.0939 63.0001 58.7135 63.0001 57.3014C63.0026 55.408 63.756 53.5929 65.0951 52.2543C66.4342 50.9157 68.2495 50.1629 70.143 50.1611Z" fill="#FDB549"/>
<path d="M26.0948 43.4762C27.9175 43.478 29.7234 43.1272 31.413 42.4431L37.4299 45.8418C37.6445 45.9578 37.8889 46.0069 38.1317 45.983C38.3745 45.9591 38.6045 45.8632 38.7924 45.7076C38.978 45.548 39.1098 45.335 39.1698 45.0976C39.2298 44.8603 39.2152 44.6102 39.1278 44.3816L36.8713 38.4702C38.7447 36.2185 39.7751 33.3844 39.7852 30.4552C39.7852 23.2753 33.644 17.4342 26.0948 17.4342C18.5456 17.4342 12.4043 23.2753 12.4043 30.4552C12.4043 37.6351 18.5456 43.4762 26.0948 43.4762ZM26.0948 19.8143C32.3308 19.8143 37.4043 24.588 37.4043 30.4552C37.3898 33.0435 36.3987 35.531 34.6292 37.4201C34.4788 37.5828 34.3769 37.7843 34.335 38.0019C34.2931 38.2195 34.3129 38.4445 34.3921 38.6515L35.7255 42.1449L32.0716 40.0809C31.9083 39.9888 31.7257 39.9364 31.5384 39.9282C31.3511 39.9199 31.1646 39.9559 30.9939 40.0333C29.456 40.735 27.7851 41.0975 26.0948 41.0961C19.8587 41.0961 14.7852 36.3224 14.7852 30.4552C14.7852 24.588 19.8587 19.8143 26.0948 19.8143Z" fill="#466B83"/>
<path d="M26.0381 38.8565C26.6956 38.8565 27.2286 38.3236 27.2286 37.6661C27.2286 37.0086 26.6956 36.4756 26.0381 36.4756C25.3807 36.4756 24.8477 37.0086 24.8477 37.6661C24.8477 38.3236 25.3807 38.8565 26.0381 38.8565Z" fill="#466B83"/>
<path d="M22.5235 28.9195C22.8392 28.9195 23.1419 28.7941 23.3652 28.5709C23.5884 28.3478 23.7139 28.045 23.714 27.7294C23.7185 27.4875 23.7724 27.249 23.8723 27.0287C23.9723 26.8084 24.1162 26.6108 24.2952 26.4481C24.5549 26.2088 24.8607 26.0251 25.1938 25.9082C25.527 25.7913 25.8805 25.7437 26.2327 25.7682C27.4104 25.8222 28.4154 26.6578 28.473 27.6306C28.4752 28.0386 28.3495 28.4371 28.1135 28.77C27.8776 29.1029 27.5432 29.3535 27.1575 29.4866C26.5093 29.7348 25.9493 30.1696 25.5482 30.7361C25.1472 31.3027 24.9231 31.9754 24.9044 32.6692V34.015C24.9044 34.3308 25.0299 34.6336 25.2531 34.8568C25.4764 35.0801 25.7792 35.2055 26.0949 35.2055C26.4106 35.2055 26.7134 35.0801 26.9367 34.8568C27.16 34.6336 27.2854 34.3308 27.2854 34.015V32.6692C27.3063 32.4462 27.3919 32.2341 27.5317 32.0591C27.6716 31.8841 27.8595 31.7538 28.0725 31.6842C28.9174 31.3656 29.6405 30.7887 30.139 30.0357C30.6375 29.2827 30.886 28.3917 30.8492 27.4894C30.7202 25.3015 28.7403 23.5008 26.3425 23.3904C25.669 23.3542 24.995 23.4539 24.3608 23.6835C23.7266 23.9131 23.145 24.268 22.6508 24.7269C22.2378 25.1109 21.9079 25.5754 21.6812 26.0918C21.4546 26.6082 21.3361 27.1655 21.333 27.7294C21.3331 28.045 21.4585 28.3478 21.6818 28.5709C21.905 28.7941 22.2078 28.9195 22.5235 28.9195Z" fill="#FDB549"/>
<path d="M74.8477 38.8565C75.5052 38.8565 76.0382 38.3236 76.0382 37.6661C76.0382 37.0086 75.5052 36.4756 74.8477 36.4756C74.1902 36.4756 73.6572 37.0086 73.6572 37.6661C73.6572 38.3236 74.1902 38.8565 74.8477 38.8565Z" fill="#466B83"/>
<path d="M71.3331 28.9195C71.6487 28.9195 71.9515 28.7941 72.1748 28.5709C72.398 28.3478 72.5235 28.045 72.5235 27.7294C72.5281 27.4875 72.5819 27.249 72.6819 27.0287C72.7819 26.8084 72.9258 26.6108 73.1048 26.4481C73.3645 26.2088 73.6702 26.0251 74.0034 25.9082C74.3365 25.7913 74.69 25.7437 75.0422 25.7682C76.2199 25.8222 77.225 26.6578 77.2825 27.6306C77.2847 28.0386 77.159 28.4371 76.9231 28.77C76.6871 29.1029 76.3528 29.3535 75.967 29.4866C75.3189 29.7348 74.7588 30.1696 74.3578 30.7361C73.9567 31.3026 73.7327 31.9754 73.714 32.6692V34.015C73.714 34.3308 73.8394 34.6336 74.0627 34.8568C74.2859 35.0801 74.5887 35.2055 74.9045 35.2055C75.2202 35.2055 75.523 35.0801 75.7463 34.8568C75.9695 34.6336 76.095 34.3308 76.095 34.015V32.6692C76.1158 32.4462 76.2014 32.2341 76.3413 32.0591C76.4811 31.8841 76.6691 31.7538 76.882 31.6842C77.727 31.3656 78.4501 30.7887 78.9486 30.0357C79.4471 29.2827 79.6956 28.3917 79.6588 27.4894C79.5298 25.3015 77.5499 23.5008 75.1521 23.3904C74.4786 23.3544 73.8047 23.4541 73.1705 23.6837C72.5363 23.9133 71.9547 24.2681 71.4603 24.7269C71.0474 25.1109 70.7174 25.5754 70.4908 26.0918C70.2642 26.6082 70.1457 27.1655 70.1426 27.7294C70.1426 28.045 70.2681 28.3478 70.4914 28.5709C70.7146 28.7941 71.0174 28.9195 71.3331 28.9195Z" fill="#FDB549"/>
<path d="M61.8713 44.3815C61.784 44.6102 61.7693 44.8603 61.8293 45.0976C61.8894 45.3349 62.0211 45.548 62.2067 45.7076C62.3941 45.8642 62.6243 45.9608 62.8673 45.9847C63.1103 46.0087 63.3549 45.9589 63.5692 45.8419L69.5861 42.4431C71.2757 43.1271 73.0816 43.478 74.9043 43.4762C82.4535 43.4762 88.5948 37.6351 88.5948 30.4552C88.5948 23.2753 82.4535 17.4342 74.9043 17.4342C67.3552 17.4342 61.2139 23.2753 61.2139 30.4552C61.224 33.3844 62.2544 36.2185 64.1279 38.4701L61.8713 44.3815ZM63.5948 30.4552C63.5948 24.588 68.6683 19.8143 74.9043 19.8143C81.1404 19.8143 86.2139 24.588 86.2139 30.4552C86.2139 36.3224 81.1404 41.0961 74.9043 41.0961C73.214 41.0975 71.5431 40.735 70.0053 40.0333C69.8345 39.9562 69.6479 39.9204 69.4607 39.9286C69.2735 39.9369 69.0909 39.9891 68.9275 40.0809L65.2736 42.145L66.607 38.6516C66.6862 38.4446 66.706 38.2196 66.6641 38.002C66.6222 37.7844 66.5203 37.5829 66.3699 37.4202C64.6004 35.5311 63.6093 33.0436 63.5948 30.4552Z" fill="#466B83"/>
<path d="M47.2067 49.5085L51.8233 48.3998L48.1292 55.5663C47.9853 55.847 47.9587 56.1733 48.0551 56.4736C48.1516 56.7739 48.3632 57.0236 48.6437 57.168C48.9241 57.3124 49.2503 57.3396 49.5508 57.2437C49.8512 57.1478 50.1014 56.9366 50.2463 56.6565L55.1302 47.1813C55.2345 46.9786 55.2784 46.7503 55.2567 46.5235C55.2351 46.2966 55.1488 46.0808 55.008 45.9015C54.8673 45.7223 54.6781 45.5872 54.4628 45.5124C54.2476 45.4375 54.0154 45.426 53.7938 45.4793L49.1482 46.5944L52.4819 39.9862C52.6234 39.7043 52.6473 39.3778 52.5483 39.0783C52.4492 38.7788 52.2354 38.5308 51.9537 38.3889C51.672 38.2469 51.3455 38.2225 51.0458 38.3211C50.7462 38.4197 50.4979 38.6332 50.3555 38.9147L45.8656 47.8158C45.7635 48.0185 45.7214 48.2463 45.7444 48.4721C45.7674 48.698 45.8546 48.9125 45.9955 49.0905C46.1365 49.2684 46.3254 49.4023 46.54 49.4764C46.7546 49.5505 46.986 49.5616 47.2067 49.5085Z" fill="#FDB549"/>
<path d="M1.69048 90.6488C2.34796 90.6488 2.88095 90.1158 2.88095 89.4583C2.88095 88.8008 2.34796 88.2679 1.69048 88.2679C1.03299 88.2679 0.5 88.8008 0.5 89.4583C0.5 90.1158 1.03299 90.6488 1.69048 90.6488Z" fill="#466B83"/>
<path d="M7.04748 88.2676H5.26177C4.94603 88.2676 4.64323 88.393 4.41997 88.6163C4.19671 88.8395 4.07129 89.1423 4.07129 89.4581C4.07129 89.7738 4.19671 90.0766 4.41997 90.2998C4.64323 90.5231 4.94603 90.6485 5.26177 90.6485H7.04748C7.36321 90.6485 7.66602 90.5231 7.88927 90.2998C8.11253 90.0766 8.23796 89.7738 8.23796 89.4581C8.23796 89.1423 8.11253 88.8395 7.88927 88.6163C7.66602 88.393 7.36321 88.2676 7.04748 88.2676Z" fill="#466B83"/>
<path d="M95.7379 88.2676H93.9522C93.6365 88.2676 93.3337 88.393 93.1104 88.6163C92.8871 88.8395 92.7617 89.1423 92.7617 89.4581C92.7617 89.7738 92.8871 90.0766 93.1104 90.2998C93.3337 90.5231 93.6365 90.6485 93.9522 90.6485H95.7379C96.0536 90.6485 96.3564 90.5231 96.5797 90.2998C96.803 90.0766 96.9284 89.7738 96.9284 89.4581C96.9284 89.1423 96.803 88.8395 96.5797 88.6163C96.3564 88.393 96.0536 88.2676 95.7379 88.2676Z" fill="#466B83"/>
<path d="M99.3096 90.6488C99.9671 90.6488 100.5 90.1158 100.5 89.4583C100.5 88.8008 99.9671 88.2679 99.3096 88.2679C98.6521 88.2679 98.1191 88.8008 98.1191 89.4583C98.1191 90.1158 98.6521 90.6488 99.3096 90.6488Z" fill="#466B83"/>
<path d="M90.215 88.2676H88.5952V75.4465C88.5952 69.7032 84.5065 65.7904 79.6717 64.4049C79.1245 65.1414 78.4946 65.8127 77.7943 66.4056C82.1719 67.1499 86.2142 70.2631 86.2142 75.4465V88.2676H81.4523V86.4831C81.4523 86.1674 81.3269 85.8646 81.1036 85.6413C80.8804 85.4181 80.5776 85.2926 80.2618 85.2926C79.9461 85.2926 79.6433 85.4181 79.42 85.6413C79.1968 85.8646 79.0714 86.1674 79.0714 86.4831V88.2676H61.2142V86.4831C61.2142 86.1674 61.0888 85.8646 60.8655 85.6413C60.6423 85.4181 60.3395 85.2926 60.0237 85.2926C59.708 85.2926 59.4052 85.4181 59.1819 85.6413C58.9587 85.8646 58.8333 86.1674 58.8333 86.4831V88.2676H54.0714V75.4465C54.0714 70.2631 58.1136 67.1499 62.4913 66.4056C61.791 65.8127 61.1611 65.1414 60.6139 64.4049C55.779 65.7904 51.6904 69.7032 51.6904 75.4465V88.2676H49.3094V75.4465C49.3094 69.7032 45.2208 65.7904 40.386 64.4049C39.8388 65.1414 39.2088 65.8127 38.5085 66.4056C42.8862 67.1499 46.9285 70.2631 46.9285 75.4465V88.2676H42.1666V86.4831C42.1666 86.1674 42.0412 85.8646 41.8179 85.6413C41.5947 85.4181 41.2918 85.2926 40.9761 85.2926C40.6604 85.2926 40.3576 85.4181 40.1343 85.6413C39.9111 85.8646 39.7856 86.1674 39.7856 86.4831V88.2676H21.9285V86.4831C21.9285 86.1674 21.8031 85.8646 21.5798 85.6413C21.3566 85.4181 21.0537 85.2926 20.738 85.2926C20.4223 85.2926 20.1195 85.4181 19.8962 85.6413C19.673 85.8646 19.5475 86.1674 19.5475 86.4831V88.2676H14.7856V75.4465C14.7856 70.2631 18.8279 67.1499 23.2056 66.4056C22.5053 65.8127 21.8754 65.1414 21.3282 64.4049C16.4933 65.7904 12.4047 69.7032 12.4047 75.4465V88.2676H10.7849C10.6155 88.2455 10.4434 88.2597 10.28 88.3094C10.1165 88.3591 9.96562 88.4431 9.83726 88.5558C9.7089 88.6685 9.60606 88.8072 9.53561 88.9628C9.46515 89.1184 9.42871 89.2873 9.42871 89.4581C9.42871 89.6289 9.46515 89.7977 9.53561 89.9533C9.60606 90.1089 9.7089 90.2477 9.83726 90.3603C9.96562 90.473 10.1165 90.557 10.28 90.6067C10.4434 90.6564 10.6155 90.6707 10.7849 90.6485H90.215C90.3843 90.6707 90.5565 90.6564 90.7199 90.6067C90.8833 90.557 91.0342 90.473 91.1626 90.3603C91.2909 90.2477 91.3938 90.1089 91.4642 89.9533C91.5347 89.7977 91.5711 89.6289 91.5711 89.4581C91.5711 89.2873 91.5347 89.1184 91.4642 88.9628C91.3938 88.8072 91.2909 88.6685 91.1626 88.5558C91.0342 88.4431 90.8833 88.3591 90.7199 88.3094C90.5565 88.2597 90.3843 88.2455 90.215 88.2676Z" fill="#466B83"/>
<path d="M5.26228 12.3635C5.61546 12.3635 5.96071 12.2588 6.25437 12.0626C6.54803 11.8663 6.77691 11.5875 6.91206 11.2612C7.04722 10.9349 7.08258 10.5758 7.01368 10.2294C6.94478 9.88302 6.7747 9.56484 6.52497 9.3151C6.27523 9.06536 5.95705 8.89529 5.61065 8.82639C5.26426 8.75749 4.90521 8.79285 4.57891 8.92801C4.25262 9.06316 3.97373 9.29204 3.77751 9.5857C3.58129 9.87936 3.47656 10.2246 3.47656 10.5778C3.4771 11.0512 3.66542 11.5051 4.00018 11.8399C4.33495 12.1747 4.78884 12.363 5.26228 12.3635ZM5.26228 9.68493C5.43887 9.68493 5.61149 9.7373 5.75832 9.83541C5.90515 9.93352 6.01959 10.073 6.08717 10.2361C6.15475 10.3993 6.17243 10.5788 6.13798 10.752C6.10353 10.9252 6.01849 11.0843 5.89362 11.2091C5.76875 11.334 5.60966 11.419 5.43646 11.4535C5.26327 11.4879 5.08374 11.4703 4.9206 11.4027C4.75745 11.3351 4.618 11.2207 4.51989 11.0738C4.42178 10.927 4.36942 10.7544 4.36942 10.5778C4.36965 10.3411 4.4638 10.1141 4.63119 9.9467C4.79858 9.77931 5.02555 9.68517 5.26228 9.68493Z" fill="#466B83"/>
<path d="M98.1192 9.38732C97.8837 9.38732 97.6536 9.45714 97.4578 9.58795C97.262 9.71876 97.1094 9.90469 97.0193 10.1222C96.9292 10.3397 96.9057 10.5791 96.9516 10.81C96.9975 11.041 97.1109 11.2531 97.2774 11.4196C97.4439 11.5861 97.656 11.6995 97.8869 11.7454C98.1179 11.7913 98.3572 11.7678 98.5748 11.6776C98.7923 11.5875 98.9782 11.435 99.109 11.2392C99.2398 11.0434 99.3097 10.8132 99.3097 10.5778C99.3093 10.2622 99.1838 9.95958 98.9606 9.7364C98.7374 9.51322 98.4348 9.38768 98.1192 9.38732ZM98.1192 11.173C98.0015 11.173 97.8864 11.1381 97.7885 11.0727C97.6906 11.0073 97.6143 10.9143 97.5693 10.8056C97.5242 10.6968 97.5124 10.5771 97.5354 10.4617C97.5583 10.3462 97.615 10.2401 97.6983 10.1569C97.7815 10.0736 97.8876 10.017 98.0031 9.99399C98.1185 9.97102 98.2382 9.98281 98.347 10.0279C98.4557 10.0729 98.5487 10.1492 98.6141 10.2471C98.6795 10.345 98.7144 10.4601 98.7144 10.5778C98.7143 10.7356 98.6515 10.8869 98.5399 10.9985C98.4283 11.1101 98.277 11.1729 98.1192 11.173Z" fill="#466B83"/>
<path d="M57.8243 3.08726C57.5888 3.08726 57.3586 3.15708 57.1629 3.28789C56.9671 3.4187 56.8145 3.60463 56.7244 3.82216C56.6343 4.03969 56.6107 4.27906 56.6567 4.50999C56.7026 4.74092 56.816 4.95304 56.9825 5.11953C57.149 5.28602 57.3611 5.3994 57.592 5.44534C57.8229 5.49127 58.0623 5.4677 58.2798 5.37759C58.4974 5.28749 58.6833 5.1349 58.8141 4.93913C58.9449 4.74336 59.0147 4.51319 59.0147 4.27774C59.0144 3.96211 58.8888 3.65952 58.6657 3.43634C58.4425 3.21316 58.1399 3.08762 57.8243 3.08726ZM57.8243 4.87298C57.7065 4.87298 57.5915 4.83807 57.4936 4.77266C57.3957 4.70725 57.3194 4.61429 57.2743 4.50552C57.2293 4.39676 57.2175 4.27708 57.2405 4.16161C57.2634 4.04615 57.3201 3.94009 57.4034 3.85684C57.4866 3.77359 57.5927 3.7169 57.7081 3.69394C57.8236 3.67097 57.9433 3.68276 58.0521 3.72781C58.1608 3.77286 58.2538 3.84915 58.3192 3.94704C58.3846 4.04493 58.4195 4.16001 58.4195 4.27774C58.4193 4.43556 58.3566 4.58687 58.245 4.69846C58.1334 4.81005 57.9821 4.87282 57.8243 4.87298Z" fill="#466B83"/>
<path d="M87.4043 1.89679C87.1689 1.89679 86.9387 1.96661 86.7429 2.09742C86.5472 2.22823 86.3946 2.41416 86.3045 2.63169C86.2144 2.84922 86.1908 3.08858 86.2367 3.31951C86.2827 3.55044 86.3961 3.76256 86.5625 3.92906C86.729 4.09555 86.9412 4.20893 87.1721 4.25486C87.403 4.3008 87.6424 4.27722 87.8599 4.18712C88.0774 4.09701 88.2634 3.94443 88.3942 3.74866C88.525 3.55288 88.5948 3.32272 88.5948 3.08726C88.5945 2.77164 88.4689 2.46905 88.2457 2.24587C88.0226 2.02269 87.72 1.89715 87.4043 1.89679ZM87.4043 3.6825C87.2866 3.6825 87.1715 3.64759 87.0736 3.58218C86.9758 3.51678 86.8995 3.42382 86.8544 3.31505C86.8094 3.20628 86.7976 3.0866 86.8205 2.97114C86.8435 2.85567 86.9002 2.74961 86.9834 2.66637C87.0667 2.58312 87.1728 2.52643 87.2882 2.50346C87.4037 2.48049 87.5234 2.49228 87.6321 2.53733C87.7409 2.58239 87.8339 2.65868 87.8993 2.75657C87.9647 2.85445 87.9996 2.96954 87.9996 3.08726C87.9994 3.24508 87.9367 3.39639 87.8251 3.50798C87.7135 3.61958 87.5622 3.68234 87.4043 3.6825Z" fill="#466B83"/>
<path d="M5.26181 33.6079C5.26181 33.3724 5.19199 33.1423 5.06118 32.9465C4.93037 32.7507 4.74444 32.5981 4.52691 32.508C4.30938 32.4179 4.07002 32.3943 3.83909 32.4403C3.60816 32.4862 3.39603 32.5996 3.22954 32.7661C3.06305 32.9326 2.94967 33.1447 2.90373 33.3756C2.8578 33.6066 2.88138 33.8459 2.97148 34.0634C3.06158 34.281 3.21417 34.4669 3.40994 34.5977C3.60572 34.7285 3.83588 34.7983 4.07134 34.7983C4.38696 34.798 4.68955 34.6724 4.91273 34.4493C5.13591 34.2261 5.26145 33.9235 5.26181 33.6079ZM3.4761 33.6079C3.4761 33.4901 3.51101 33.3751 3.57641 33.2772C3.64182 33.1793 3.73478 33.103 3.84355 33.0579C3.95231 33.0129 4.072 33.0011 4.18746 33.0241C4.30293 33.047 4.40899 33.1037 4.49223 33.187C4.57548 33.2702 4.63217 33.3763 4.65514 33.4917C4.6781 33.6072 4.66632 33.7269 4.62126 33.8357C4.57621 33.9444 4.49992 34.0374 4.40203 34.1028C4.30415 34.1682 4.18906 34.2031 4.07134 34.2031C3.91352 34.203 3.76221 34.1402 3.65061 34.0286C3.53902 33.917 3.47626 33.7657 3.4761 33.6079Z" fill="#466B83"/>
<path d="M29.318 2.49881L30.2031 1.33452L29.6442 1.01786L29.0763 2.32143H29.0573L28.4805 1.02738L27.9114 1.35357L28.7876 2.48988V2.50833L27.418 2.33095V2.96429L28.7965 2.7875V2.80595L27.9114 3.94226L28.4424 4.27798L29.0483 2.96429H29.0662L29.6251 4.26845L30.212 3.93333L29.318 2.81548V2.79702L30.7239 2.96429V2.33095L29.318 2.51726V2.49881Z" fill="#FDB549"/>
<path d="M44.628 22.5381L44.1185 23.1923L44.4239 23.3857L44.7727 22.6292H44.7834L45.1054 23.3798L45.4435 23.1869L44.9286 22.5435V22.5327L45.7381 22.6292V22.2643L44.9286 22.3714V22.3607L45.4382 21.6905L45.1161 21.5083L44.7887 22.2589H44.778L44.4459 21.5137L44.1185 21.7012L44.6227 22.356V22.3667L43.834 22.2643V22.6292L44.628 22.5274V22.5381Z" fill="#FDB549"/>
<path d="M96.4665 27.3298V26.7089L95.0873 26.8911V26.8732L95.9558 25.7315L95.4076 25.4208L94.8504 26.6994H94.8314L94.2659 25.4298L93.7076 25.7494L94.5671 26.8643V26.8821L93.2236 26.7089V27.3298L94.576 27.1565V27.1744L93.7076 28.2887L94.2284 28.6179L94.823 27.3298H94.8403L95.3885 28.6089L95.9647 28.2798L95.0873 27.1833V27.1655L96.4665 27.3298Z" fill="#FDB549"/>
<path d="M64.6077 17.3077L65.3565 16.3232L64.8839 16.0554L64.403 17.1583H64.3869L63.8988 16.0631L63.4179 16.3387L64.1589 17.3006V17.3161L63 17.1661V17.7018L64.1667 17.5524V17.5685L63.4179 18.5292L63.8667 18.8131L64.3792 17.7018H64.3946L64.8679 18.8054L65.3643 18.5214L64.6077 17.5756V17.5601L65.7976 17.7018V17.1661L64.6077 17.3238V17.3077Z" fill="#FDB549"/>
</g>
<defs>
<clipPath id="clip0_146_8648">
<rect width="100" height="100" fill="white" transform="translate(0.5)"/>
</clipPath>
</defs>
</svg>
